<svg width="54" height="54" viewBox="0 0 54 54" fill="none" xmlns="http://www.w3.org/2000/svg">
<path d="M27 0C21.6599 0 16.4397 1.58352 11.9996 4.55032C7.55949 7.51712 4.09883 11.7339 2.05526 16.6675C0.0116987 21.6012 -0.522991 27.03 0.51881 32.2674C1.56061 37.5049 4.13211 42.3159 7.90813 46.0919C11.6841 49.8679 16.4951 52.4394 21.7326 53.4812C26.9701 54.523 32.3989 53.9883 37.3325 51.9447C42.2661 49.9012 46.4829 46.4405 49.4497 42.0004C52.4165 37.5603 54 32.3401 54 27C53.9917 19.8417 51.1444 12.979 46.0827 7.91732C41.021 2.85565 34.1583 0.00833675 27 0V0ZM42.5858 18.45L27.1845 39.3503C27.0027 39.5915 26.7746 39.7941 26.5136 39.9463C26.2527 40.0984 25.964 40.1971 25.6645 40.2364C25.3649 40.2758 25.0606 40.2551 24.7691 40.1756C24.4777 40.0961 24.205 39.9593 23.967 39.7733L12.969 30.9802C12.7382 30.7956 12.5461 30.5673 12.4036 30.3083C12.2611 30.0494 12.1709 29.765 12.1383 29.4712C12.0725 28.8779 12.2451 28.2828 12.618 27.8167C12.991 27.3507 13.5338 27.0519 14.1271 26.9861C14.7203 26.9202 15.3155 27.0928 15.7815 27.4657L24.9525 34.803L38.9633 15.7882C39.1319 15.5351 39.3502 15.3189 39.6048 15.1525C39.8594 14.9861 40.1451 14.8731 40.4447 14.8202C40.7442 14.7674 41.0513 14.7758 41.3475 14.845C41.6437 14.9142 41.9228 15.0427 42.1679 15.2228C42.413 15.4029 42.619 15.6309 42.7736 15.8928C42.9281 16.1548 43.0279 16.4454 43.067 16.747C43.106 17.0487 43.0835 17.3551 43.0008 17.6478C42.9181 17.9405 42.7769 18.2134 42.5858 18.45Z" fill="#2BB763"/>
</svg>
