<svg width="81" height="81" viewBox="0 0 81 81" fill="none" xmlns="http://www.w3.org/2000/svg">
<circle cx="40.5" cy="40.5" r="40.5" fill="#40E395"/>
<circle cx="40.5" cy="40.5" r="40.5" fill="#5AB9FE"/>
<g filter="url(#filter0_d)">
<path d="M57.5 30.5H50.9375C50.8215 30.5 50.7102 30.4539 50.6281 30.3719C50.5461 30.2898 50.5 30.1785 50.5 30.0625V23.5C50.5 22.5717 50.1313 21.6815 49.4749 21.0251C48.8185 20.3687 47.9283 20 47 20H22.5C21.5717 20 20.6815 20.3687 20.0251 21.0251C19.3687 21.6815 19 22.5717 19 23.5V48C19 48.9283 19.3687 49.8185 20.0251 50.4749C20.6815 51.1313 21.5717 51.5 22.5 51.5H29.0625C29.1785 51.5 29.2898 51.5461 29.3719 51.6281C29.4539 51.7102 29.5 51.8215 29.5 51.9375V58.5C29.5 59.4283 29.8687 60.3185 30.5251 60.9749C31.1815 61.6312 32.0717 62 33 62H57.5C58.4283 62 59.3185 61.6312 59.9749 60.9749C60.6312 60.3185 61 59.4283 61 58.5V34C61 33.0717 60.6312 32.1815 59.9749 31.5251C59.3185 30.8687 58.4283 30.5 57.5 30.5ZM22.5 24.375C22.5 24.1429 22.5922 23.9204 22.7563 23.7563C22.9204 23.5922 23.1429 23.5 23.375 23.5H46.125C46.3571 23.5 46.5796 23.5922 46.7437 23.7563C46.9078 23.9204 47 24.1429 47 24.375V47.125C47 47.3571 46.9078 47.5796 46.7437 47.7437C46.5796 47.9078 46.3571 48 46.125 48H23.375C23.1429 48 22.9204 47.9078 22.7563 47.7437C22.5922 47.5796 22.5 47.3571 22.5 47.125V24.375Z" fill="white"/>
</g>
<defs>
<filter id="filter0_d" x="18" y="19.5" width="44" height="44" filterUnits="userSpaceOnUse" color-interpolation-filters="sRGB">
<feFlood flood-opacity="0" result="BackgroundImageFix"/>
<feColorMatrix in="SourceAlpha" type="matrix" values="0 0 0 0 0 0 0 0 0 0 0 0 0 0 0 0 0 0 127 0"/>
<feOffset dy="0.5"/>
<feGaussianBlur stdDeviation="0.5"/>
<feColorMatrix type="matrix" values="0 0 0 0 0 0 0 0 0 0 0 0 0 0 0 0 0 0 0.15 0"/>
<feBlend mode="normal" in2="BackgroundImageFix" result="effect1_dropShadow"/>
<feBlend mode="normal" in="SourceGraphic" in2="effect1_dropShadow" result="shape"/>
</filter>
</defs>
</svg>
