<svg width="81" height="81" viewBox="0 0 81 81" fill="none" xmlns="http://www.w3.org/2000/svg">
<circle cx="40.5" cy="40.5" r="40.5" fill="#40E395"/>
<circle cx="40.5" cy="40.5" r="40.5" fill="#FFB992"/>
<g clip-path="url(#clip0)">
<path d="M59.9062 54.2517H53.3438C52.7397 54.2517 52.25 54.7414 52.25 55.3455V61.908C52.25 62.512 52.7397 63.0017 53.3438 63.0017H59.9062C60.5103 63.0017 61 62.512 61 61.908V55.3455C61 54.7414 60.5103 54.2517 59.9062 54.2517Z" fill="white"/>
<path d="M48.5312 54.2517H41.9688C41.3647 54.2517 40.875 54.7414 40.875 55.3455V61.908C40.875 62.512 41.3647 63.0017 41.9688 63.0017H48.5312C49.1353 63.0017 49.625 62.512 49.625 61.908V55.3455C49.625 54.7414 49.1353 54.2517 48.5312 54.2517Z" fill="white"/>
<path d="M54.6562 42.8767H48.0938C47.4897 42.8767 47 43.3664 47 43.9705V50.533C47 51.137 47.4897 51.6267 48.0938 51.6267H54.6562C55.2603 51.6267 55.75 51.137 55.75 50.533V43.9705C55.75 43.3664 55.2603 42.8767 54.6562 42.8767Z" fill="white"/>
<path d="M55.75 21H24.25C22.8576 21 21.5223 21.5531 20.5377 22.5377C19.5531 23.5223 19 24.8576 19 26.25V51.625C19 53.0174 19.5531 54.3527 20.5377 55.3373C21.5223 56.3219 22.8576 56.875 24.25 56.875H35.625C36.0891 56.875 36.5342 56.6906 36.8624 56.3624C37.1906 56.0342 37.375 55.5891 37.375 55.125C37.375 54.6609 37.1906 54.2158 36.8624 53.8876C36.5342 53.5594 36.0891 53.375 35.625 53.375H24.25C23.7859 53.375 23.3408 53.1906 23.0126 52.8624C22.6844 52.5343 22.5 52.0891 22.5 51.625V30.1892C22.4998 30.1316 22.5109 30.0746 22.5328 30.0213C22.5547 29.968 22.5869 29.9196 22.6275 29.8788C22.6682 29.8379 22.7165 29.8056 22.7697 29.7835C22.8229 29.7614 22.8799 29.75 22.9375 29.75H57.0625C57.1785 29.75 57.2898 29.7961 57.3719 29.8781C57.4539 29.9602 57.5 30.0715 57.5 30.1875V40.25C57.5 40.7141 57.6844 41.1592 58.0126 41.4874C58.3408 41.8156 58.7859 42 59.25 42C59.7141 42 60.1592 41.8156 60.4874 41.4874C60.8156 41.1592 61 40.7141 61 40.25V26.25C61 24.8576 60.4469 23.5223 59.4623 22.5377C58.4777 21.5531 57.1424 21 55.75 21V21ZM26.6055 26.25C26.4595 26.5149 26.2451 26.7357 25.9847 26.8895C25.7243 27.0433 25.4274 27.1245 25.125 27.1245C24.8226 27.1245 24.5257 27.0433 24.2653 26.8895C24.0049 26.7357 23.7905 26.5149 23.6445 26.25C23.4764 25.9884 23.3832 25.6858 23.375 25.375C23.3768 25.1276 23.4317 24.8836 23.536 24.6593C23.6735 24.3524 23.8965 24.0917 24.1783 23.9083C24.4601 23.7249 24.7888 23.6265 25.125 23.625C25.4269 23.6281 25.7226 23.7106 25.9824 23.8642C26.2423 24.0178 26.4572 24.2371 26.6055 24.5C26.7739 24.7614 26.8671 25.0641 26.875 25.375C26.8668 25.6858 26.7736 25.9884 26.6055 26.25ZM32.7305 26.25C32.5845 26.5149 32.3701 26.7357 32.1097 26.8895C31.8493 27.0433 31.5524 27.1245 31.25 27.1245C30.9476 27.1245 30.6507 27.0433 30.3903 26.8895C30.1299 26.7357 29.9155 26.5149 29.7695 26.25C29.6014 25.9884 29.5082 25.6858 29.5 25.375C29.5079 25.0641 29.6011 24.7614 29.7695 24.5C29.9155 24.2351 30.1299 24.0143 30.3903 23.8605C30.6507 23.7067 30.9476 23.6255 31.25 23.6255C31.5524 23.6255 31.8493 23.7067 32.1097 23.8605C32.3701 24.0143 32.5845 24.2351 32.7305 24.5C32.8989 24.7614 32.9921 25.0641 33 25.375C32.9918 25.6858 32.8986 25.9884 32.7305 26.25ZM38.8555 26.25C38.7095 26.5149 38.4951 26.7357 38.2347 26.8895C37.9743 27.0433 37.6774 27.1245 37.375 27.1245C37.0726 27.1245 36.7757 27.0433 36.5153 26.8895C36.2549 26.7357 36.0405 26.5149 35.8945 26.25C35.7264 25.9884 35.6332 25.6858 35.625 25.375C35.6329 25.0641 35.7261 24.7614 35.8945 24.5C36.0405 24.2351 36.2549 24.0143 36.5153 23.8605C36.7757 23.7067 37.0726 23.6255 37.375 23.6255C37.6774 23.6255 37.9743 23.7067 38.2347 23.8605C38.4951 24.0143 38.7095 24.2351 38.8555 24.5C39.0239 24.7614 39.1171 25.0641 39.125 25.375C39.1168 25.6858 39.0236 25.9884 38.8555 26.25Z" fill="white"/>
</g>
<defs>
<clipPath id="clip0">
<rect width="42" height="42" fill="white" transform="translate(19 21)"/>
</clipPath>
</defs>
</svg>
