<svg width="81" height="81" viewBox="0 0 81 81" fill="none" xmlns="http://www.w3.org/2000/svg">
<circle cx="40.5" cy="40.5" r="40.5" fill="#40E395"/>
<circle cx="40.5" cy="40.5" r="40.5" fill="#859BA9"/>
<path d="M56.625 24.375H23.375C22.4467 24.375 21.5565 24.7437 20.9001 25.4001C20.2437 26.0565 19.875 26.9467 19.875 27.875V33.125C19.875 33.5891 20.0594 34.0342 20.3876 34.3624C20.7158 34.6906 21.1609 34.875 21.625 34.875H58.375C58.8391 34.875 59.2842 34.6906 59.6124 34.3624C59.9406 34.0342 60.125 33.5891 60.125 33.125V27.875C60.125 26.9467 59.7562 26.0565 59.0999 25.4001C58.4435 24.7437 57.5533 24.375 56.625 24.375ZM56.625 37.5H23.375C22.9109 37.5 22.4658 37.6844 22.1376 38.0126C21.8094 38.3408 21.625 38.7859 21.625 39.25V54.125C21.625 55.0533 21.9937 55.9435 22.6501 56.5999C23.3065 57.2562 24.1967 57.625 25.125 57.625H54.875C55.8033 57.625 56.6935 57.2562 57.3499 56.5999C58.0062 55.9435 58.375 55.0533 58.375 54.125V39.25C58.375 38.7859 58.1906 38.3408 57.8624 38.0126C57.5342 37.6844 57.0891 37.5 56.625 37.5ZM45.6875 43.625C45.6866 44.2049 45.4558 44.7607 45.0458 45.1708C44.6357 45.5808 44.0799 45.8116 43.5 45.8125H36.5C35.9198 45.8125 35.3634 45.582 34.9532 45.1718C34.543 44.7616 34.3125 44.2052 34.3125 43.625C34.3125 43.0448 34.543 42.4884 34.9532 42.0782C35.3634 41.668 35.9198 41.4375 36.5 41.4375H43.5C44.0799 41.4384 44.6357 41.6692 45.0458 42.0792C45.4558 42.4893 45.6866 43.0451 45.6875 43.625Z" fill="white"/>
</svg>
