<svg width="81" height="81" viewBox="0 0 81 81" fill="none" xmlns="http://www.w3.org/2000/svg">
<circle cx="40.5" cy="40.5" r="40.5" fill="#40E395"/>
<circle cx="40.5" cy="40.5" r="40.5" fill="#FFC8CC"/>
<path d="M44.8015 43.3002C44.8889 43.3001 44.9742 43.2738 45.0465 43.2247C45.1187 43.1756 45.1747 43.106 45.2071 43.0249C45.2394 42.9438 45.2468 42.8548 45.2281 42.7694C45.2095 42.6841 45.1658 42.6063 45.1025 42.546C43.7447 41.2408 42.1193 40.2466 40.339 39.6322C42.3315 38.6413 43.9293 37.0042 44.8715 34.9881C45.8138 32.9721 46.0449 30.6963 45.5271 28.532C45.0093 26.3677 43.7732 24.4429 42.0206 23.0716C40.268 21.7003 38.1023 20.9636 35.877 20.9816C33.6518 20.9997 31.4983 21.7715 29.7682 23.1711C28.038 24.5706 26.8334 26.5153 26.3508 28.6877C25.8683 30.8601 26.1363 33.1319 27.1112 35.1324C28.086 37.1328 29.7102 38.7437 31.7185 39.7022C29.1705 40.612 26.9656 42.2864 25.4051 44.4965C23.8446 46.7066 23.0047 49.3447 23 52.0502C23 52.2823 23.0922 52.5049 23.2563 52.669C23.4204 52.8331 23.6429 52.9252 23.875 52.9252H38.75C38.9821 52.9252 39.2046 52.8331 39.3687 52.669C39.5328 52.5049 39.625 52.2823 39.625 52.0502V46.8002C39.625 45.872 39.9937 44.9817 40.6501 44.3254C41.3065 43.669 42.1967 43.3002 43.125 43.3002H44.8015ZM37.4375 47.4565C37.4375 47.8046 37.2992 48.1384 37.0531 48.3846C36.8069 48.6307 36.4731 48.769 36.125 48.769C35.7769 48.769 35.4431 48.6307 35.1969 48.3846C34.9508 48.1384 34.8125 47.8046 34.8125 47.4565V44.5602C34.8125 44.2121 34.9508 43.8783 35.1969 43.6322C35.4431 43.386 35.7769 43.2477 36.125 43.2477C36.4731 43.2477 36.8069 43.386 37.0531 43.6322C37.2992 43.8783 37.4375 44.2121 37.4375 44.5602V47.4565ZM35.95 37.1752C34.2704 37.172 32.6606 36.503 31.4734 35.3148C30.2863 34.1267 29.6186 32.5163 29.6167 30.8367C29.6205 30.0148 29.7889 29.202 30.112 28.4462C30.139 28.3865 30.1789 28.3335 30.2289 28.2912C30.2789 28.2488 30.3378 28.2182 30.4011 28.2014C30.4645 28.1847 30.5308 28.1822 30.5952 28.1943C30.6596 28.2064 30.7205 28.2327 30.7735 28.2712C33.0584 29.9442 35.8166 30.8464 38.6485 30.8472C39.7103 30.8444 40.7679 30.714 41.7985 30.4587C41.8571 30.4442 41.9182 30.4434 41.9771 30.4565C42.036 30.4695 42.0911 30.4961 42.138 30.534C42.1855 30.5709 42.2239 30.6181 42.2503 30.6721C42.2766 30.7261 42.2903 30.7854 42.2902 30.8455C42.2861 32.5248 41.6164 34.134 40.428 35.3204C39.2396 36.5069 37.6293 37.1739 35.95 37.1752Z" fill="white"/>
<path d="M57.125 44.875H42.875C42.4772 44.875 42.0956 45.033 41.8143 45.3143C41.533 45.5956 41.375 45.9772 41.375 46.375V48.625C41.375 48.8239 41.454 49.0147 41.5947 49.1553C41.7353 49.296 41.9261 49.375 42.125 49.375H57.875C58.0739 49.375 58.2647 49.296 58.4053 49.1553C58.546 49.0147 58.625 48.8239 58.625 48.625V46.375C58.625 45.9772 58.467 45.5956 58.1857 45.3143C57.9044 45.033 57.5228 44.875 57.125 44.875ZM57.125 50.5H42.875C42.6761 50.5 42.4853 50.579 42.3447 50.7197C42.204 50.8603 42.125 51.0511 42.125 51.25V57.625C42.125 58.0228 42.283 58.4044 42.5643 58.6857C42.8456 58.967 43.2272 59.125 43.625 59.125H56.375C56.7728 59.125 57.1544 58.967 57.4357 58.6857C57.717 58.4044 57.875 58.0228 57.875 57.625V51.25C57.875 51.0511 57.796 50.8603 57.6553 50.7197C57.5147 50.579 57.3239 50.5 57.125 50.5ZM52.4375 53.125C52.4371 53.3735 52.3382 53.6117 52.1625 53.7875C51.9867 53.9632 51.7485 54.0621 51.5 54.0625H48.5C48.2514 54.0625 48.0129 53.9637 47.8371 53.7879C47.6613 53.6121 47.5625 53.3736 47.5625 53.125C47.5625 52.8764 47.6613 52.6379 47.8371 52.4621C48.0129 52.2863 48.2514 52.1875 48.5 52.1875H51.5C51.7485 52.1879 51.9867 52.2868 52.1625 52.4625C52.3382 52.6383 52.4371 52.8765 52.4375 53.125Z" fill="white"/>
</svg>
