<svg width="165" height="212" viewBox="0 0 165 212" fill="none" xmlns="http://www.w3.org/2000/svg">
<circle cx="124.5" cy="171.5" r="40.5" fill="#FB4E4E"/>
<g clip-path="url(#clip0)">
<path d="M130.324 166.7L129.624 166.453C129.56 166.43 129.502 166.393 129.455 166.344C129.408 166.294 129.373 166.235 129.353 166.17C129.222 165.609 129.215 165.027 129.33 164.464C129.348 164.398 129.381 164.338 129.426 164.289C130.18 163.456 130.754 162.477 131.111 161.412C131.468 160.348 131.601 159.221 131.502 158.102C131.566 157.335 131.472 156.563 131.226 155.833C130.98 155.104 130.587 154.432 130.072 153.86C129.556 153.289 128.929 152.829 128.228 152.509C127.528 152.189 126.77 152.016 126 152C125.185 151.998 124.381 152.186 123.651 152.55C123.595 152.577 123.546 152.615 123.506 152.663C123.466 152.711 123.436 152.767 123.42 152.827C123.403 152.888 123.4 152.951 123.409 153.012C123.419 153.074 123.442 153.133 123.476 153.185C124.448 154.639 124.961 156.35 124.95 158.099C125.07 160.328 124.507 162.54 123.336 164.441C123.3 164.496 123.277 164.558 123.268 164.623C123.259 164.688 123.265 164.755 123.285 164.817C123.306 164.88 123.34 164.937 123.385 164.985C123.431 165.032 123.487 165.069 123.548 165.092C128.798 167.054 129.941 168.592 130.268 169.271C130.315 169.368 130.397 169.445 130.498 169.486C130.598 169.527 130.711 169.529 130.812 169.491C131.683 169.171 132.585 168.939 133.502 168.8C133.596 168.786 133.683 168.741 133.75 168.673C133.816 168.605 133.859 168.517 133.871 168.423C133.883 168.329 133.864 168.233 133.817 168.15C133.769 168.068 133.696 168.003 133.609 167.965C132.65 167.558 131.553 167.15 130.324 166.7Z" fill="white"/>
<path fill-rule="evenodd" clip-rule="evenodd" d="M127.582 174.582C125.991 176.172 124.907 178.199 124.469 180.406C124.091 182.961 124.229 184.387 125.116 186.978C125.977 189.057 127.435 190.833 129.305 192.083C131.176 193.333 133.375 194 135.625 194C137.875 194 140.074 193.333 141.945 192.083C143.815 190.833 145.273 189.057 146.134 186.978C146.995 184.9 147.22 182.612 146.781 180.406C146.343 178.199 145.259 176.172 143.668 174.582C141.008 172.3 139.274 171.52 135.625 171.256C132.609 171.256 129.717 172.452 127.582 174.582ZM141.706 178.294C141.706 177.83 141.522 177.385 141.193 177.057C140.865 176.728 140.42 176.544 139.956 176.544C139.492 176.544 139.047 176.728 138.719 177.057L135.934 179.841C135.852 179.923 135.741 179.969 135.625 179.969C135.509 179.969 135.398 179.923 135.316 179.841L132.531 177.057C132.203 176.728 131.758 176.544 131.294 176.544C130.83 176.544 130.385 176.728 130.057 177.057C129.728 177.385 129.544 177.83 129.544 178.294C129.544 178.758 129.728 179.203 130.057 179.531L132.841 182.316C132.923 182.398 132.969 182.509 132.969 182.625C132.969 182.741 132.923 182.852 132.841 182.934L130.057 185.719C129.728 186.047 129.544 186.492 129.544 186.956C129.544 187.42 129.728 187.865 130.057 188.193C130.385 188.522 130.83 188.706 131.294 188.706C131.758 188.706 132.203 188.522 132.531 188.193L135.316 185.409C135.398 185.327 135.509 185.281 135.625 185.281C135.741 185.281 135.852 185.327 135.934 185.409L138.719 188.193C139.047 188.522 139.492 188.706 139.956 188.706C140.42 188.706 140.865 188.522 141.193 188.193C141.522 187.865 141.706 187.42 141.706 186.956C141.706 186.492 141.522 186.047 141.193 185.719L138.409 182.934C138.327 182.852 138.281 182.741 138.281 182.625C138.281 182.509 138.327 182.398 138.409 182.316L141.193 179.531C141.522 179.203 141.706 178.758 141.706 178.294Z" fill="white"/>
<path d="M128.13 170.854C128.177 170.821 128.217 170.778 128.247 170.729C128.277 170.679 128.297 170.625 128.305 170.567C128.315 170.51 128.313 170.45 128.3 170.393C128.286 170.336 128.261 170.282 128.227 170.235C126.676 168.135 120.416 166.29 120.864 166.45C120.803 166.427 120.747 166.39 120.702 166.342C120.656 166.295 120.622 166.238 120.602 166.175C120.467 165.612 120.456 165.027 120.57 164.46C120.588 164.395 120.621 164.335 120.667 164.285C121.421 163.453 121.994 162.474 122.351 161.409C122.708 160.344 122.842 159.217 122.742 158.099C122.806 157.332 122.711 156.561 122.466 155.832C122.22 155.103 121.827 154.432 121.312 153.861C120.797 153.29 120.171 152.83 119.471 152.51C118.772 152.19 118.014 152.016 117.245 152C116.476 152.015 115.717 152.188 115.017 152.507C114.316 152.827 113.689 153.287 113.173 153.858C112.657 154.429 112.264 155.101 112.017 155.83C111.771 156.559 111.676 157.331 111.74 158.099C111.637 159.209 111.766 160.329 112.117 161.388C112.469 162.447 113.036 163.421 113.782 164.25C113.821 164.293 113.851 164.343 113.87 164.397C114.012 164.962 114.031 165.551 113.926 166.124C113.91 166.195 113.876 166.261 113.828 166.316C113.78 166.371 113.719 166.412 113.651 166.437L112.921 166.7C109.409 167.99 106.871 168.922 106.077 170.51C105.379 172.126 105.011 173.865 104.995 175.625C104.995 175.857 105.088 176.08 105.252 176.244C105.416 176.408 105.638 176.5 105.87 176.5H122.781C122.861 176.5 122.94 176.477 123.009 176.436C123.078 176.394 123.134 176.334 123.171 176.262C124.313 174.05 126.025 172.183 128.13 170.854Z" fill="white"/>
</g>
<defs>
<clipPath id="clip0">
<rect width="42" height="42" fill="white" transform="translate(105 152)"/>
</clipPath>
</defs>
</svg>
