<svg width="81" height="81" viewBox="0 0 81 81" fill="none" xmlns="http://www.w3.org/2000/svg">
<circle cx="40.5" cy="40.5" r="40.5" fill="#40E395"/>
<circle cx="40.5" cy="40.5" r="40.5" fill="#57E1FF"/>
<g clip-path="url(#clip0)">
<path d="M58.9168 34.2829H58.1068C58.0069 34.2835 57.9097 34.25 57.8312 34.188C57.7528 34.126 57.6978 34.0392 57.6752 33.9418C56.7488 30.3247 54.4901 27.1911 51.3515 25.1686C51.2715 25.1153 51.2109 25.0375 51.1789 24.9469C51.1468 24.8562 51.1451 24.7576 51.1739 24.6659C51.4512 23.8114 51.94 23.0409 52.5949 22.426C52.8256 22.2081 52.9937 21.9323 53.0817 21.6274C53.1698 21.3225 53.1745 20.9996 53.0954 20.6922C53.0164 20.3849 52.8564 20.1043 52.6322 19.8797C52.408 19.6551 52.1277 19.4947 51.8204 19.4151C50.4588 19.0605 49.0225 19.1187 47.6941 19.5824C46.3656 20.046 45.2051 20.8943 44.3599 22.0192C44.3105 22.0848 44.2437 22.1353 44.1672 22.1652C44.0906 22.195 44.0073 22.2029 43.9265 22.188C41.1724 21.6601 38.3378 21.722 35.6094 22.3695C32.881 23.0171 30.3208 24.2357 28.0978 25.9449C25.4947 27.9497 23.6502 30.7795 22.8665 33.9703C22.8516 34.039 22.8534 34.1103 22.8716 34.1782C22.8898 34.2462 22.9239 34.3088 22.9711 34.3609C23.0184 34.413 23.0774 34.4531 23.1432 34.4778C23.209 34.5026 23.2798 34.5112 23.3497 34.5032C24.9942 34.334 26.6472 34.2605 28.3003 34.2829C31.4585 34.2829 39.8463 34.2829 39.8463 38.7237V51.5913C39.8463 51.7088 39.8928 51.8215 39.9757 51.9047C40.0586 51.9879 40.1711 52.0349 40.2886 52.0354C42.2431 52.0422 44.1877 51.7572 46.0581 51.1899C46.1142 51.1731 46.173 51.1677 46.2313 51.1738C46.2895 51.1798 46.3459 51.1974 46.3974 51.2254C46.5007 51.2827 46.5773 51.3785 46.6105 51.4918L47.4756 54.4832C47.636 55.0376 47.9722 55.5249 48.4335 55.8719C48.8948 56.2188 49.4563 56.4066 50.0335 56.4069C50.2848 56.4071 50.5349 56.3712 50.776 56.3003C51.4541 56.1035 52.0265 55.6456 52.3672 55.0271C52.7079 54.4086 52.7892 53.6801 52.5931 53.0017L51.4421 49.0263C51.4161 48.9377 51.4184 48.8432 51.4487 48.756C51.4789 48.6688 51.5356 48.5931 51.6108 48.5396C53.5492 47.1988 55.16 45.438 56.3234 43.3883C56.362 43.3189 56.4184 43.2611 56.4868 43.2208C56.5552 43.1806 56.6331 43.1593 56.7124 43.1591H58.9168C59.6235 43.1591 60.3012 42.8784 60.8009 42.3787C61.3006 41.8791 61.5813 41.2013 61.5813 40.4947V36.9474C61.5813 36.2407 61.3006 35.563 60.8009 35.0633C60.3012 34.5636 59.6235 34.2829 58.9168 34.2829ZM49.1471 34.2829C49.1471 33.9316 49.2513 33.5881 49.4465 33.296C49.6416 33.0039 49.9191 32.7762 50.2436 32.6418C50.5682 32.5073 50.9254 32.4722 51.27 32.5407C51.6145 32.6092 51.931 32.7784 52.1795 33.0268C52.4279 33.2753 52.5971 33.5918 52.6656 33.9364C52.7341 34.2809 52.699 34.6381 52.5645 34.9627C52.4301 35.2872 52.2024 35.5647 51.9103 35.7598C51.6182 35.955 51.2747 36.0592 50.9234 36.0592C50.4523 36.0592 50.0005 35.8721 49.6674 35.5389C49.3342 35.2058 49.1471 34.754 49.1471 34.2829ZM33.0714 30.9079C32.7888 31.1196 32.4338 31.2107 32.0842 31.161C31.7345 31.1114 31.4189 30.9252 31.2063 30.6432C31.101 30.5033 31.0242 30.344 30.9805 30.1744C30.9368 30.0048 30.927 29.8283 30.9516 29.6549C30.9761 29.4815 31.0347 29.3146 31.1238 29.1639C31.2129 29.0131 31.3309 28.8814 31.471 28.7763C34.2734 26.6675 37.7417 25.639 41.2407 25.8791C41.4158 25.8904 41.5869 25.9362 41.7443 26.0138C41.9016 26.0914 42.0421 26.1993 42.1577 26.3313C42.2732 26.4634 42.3615 26.6169 42.4175 26.7832C42.4736 26.9495 42.4962 27.1252 42.4841 27.3002C42.4542 27.6511 42.2894 27.9766 42.0244 28.2085C41.7594 28.4404 41.4148 28.5605 41.0631 28.5436C38.2025 28.3535 35.3681 29.192 33.0714 30.9079Z" fill="white"/>
<path d="M36.9473 47.0617C37.0186 47.0238 37.0781 46.9672 37.1197 46.8981C37.1614 46.829 37.1834 46.7499 37.1836 46.6692V42.454C37.1836 42.3829 37.1667 42.313 37.1341 42.2499C37.1015 42.1868 37.0542 42.1324 36.9963 42.0913C36.9383 42.0503 36.8714 42.0237 36.8011 42.0139C36.7307 42.004 36.6591 42.0112 36.5921 42.0348C33.9014 42.8265 31.1064 43.2062 28.302 43.1609C25.4982 43.2061 22.7038 42.8264 20.0137 42.0348C19.9466 42.0112 19.8749 42.0041 19.8045 42.014C19.7341 42.0238 19.6671 42.0504 19.609 42.0914C19.5509 42.1324 19.5035 42.1867 19.4707 42.2498C19.4379 42.3129 19.4207 42.3829 19.4204 42.454V46.6709C19.4208 46.752 19.4432 46.8315 19.4851 46.9009C19.527 46.9703 19.5869 47.0271 19.6585 47.0653C22.4076 48.1416 25.3529 48.6258 28.302 48.4863C31.2522 48.6299 34.1992 48.1443 36.9473 47.0617ZM28.3002 57.375C25.4965 57.4202 22.702 57.0405 20.0119 56.2488C19.9449 56.2253 19.8731 56.2182 19.8027 56.2281C19.7323 56.2379 19.6653 56.2645 19.6072 56.3055C19.5492 56.3465 19.5018 56.4008 19.469 56.4639C19.4361 56.527 19.4189 56.597 19.4187 56.668V60.0395C19.4187 61.0236 23.3958 61.8158 28.3002 61.8158C33.2046 61.8158 37.1818 61.0236 37.1818 60.0395V56.6645C37.1819 56.5935 37.1649 56.5235 37.1323 56.4604C37.0997 56.3973 37.0525 56.3429 36.9945 56.3019C36.9366 56.2608 36.8696 56.2342 36.7993 56.2244C36.729 56.2145 36.6573 56.2217 36.5903 56.2453C33.8998 57.0383 31.1048 57.4192 28.3002 57.375ZM19.4187 38.7237V39.5692C19.4191 39.6503 19.4414 39.7298 19.4833 39.7992C19.5252 39.8686 19.5851 39.9254 19.6567 39.9636C22.4059 41.0399 25.3512 41.5241 28.3002 41.3846C31.2513 41.5273 34.1989 41.0405 36.9473 39.9565C37.0186 39.9185 37.0781 39.862 37.1197 39.7929C37.1614 39.7237 37.1834 39.6446 37.1836 39.5639V38.7237C37.1836 37.745 33.2082 36.9474 28.302 36.9474C23.3958 36.9474 19.4187 37.745 19.4187 38.7237ZM37.1818 49.5592C37.1819 49.4882 37.1649 49.4182 37.1323 49.3551C37.0997 49.292 37.0525 49.2377 36.9945 49.1966C36.9366 49.1555 36.8696 49.129 36.7993 49.1191C36.729 49.1093 36.6573 49.1164 36.5903 49.14C33.8997 49.9318 31.1046 50.3115 28.3002 50.2662C25.4965 50.3114 22.702 49.9317 20.0119 49.14C19.9449 49.1165 19.8731 49.1094 19.8027 49.1192C19.7323 49.1291 19.6653 49.1556 19.6072 49.1967C19.5492 49.2377 19.5018 49.292 19.469 49.3551C19.4361 49.4181 19.4189 49.4881 19.4187 49.5592V53.7762C19.4191 53.8573 19.4414 53.9368 19.4833 54.0062C19.5252 54.0756 19.5851 54.1324 19.6567 54.1705C22.4059 55.2469 25.3512 55.7311 28.3002 55.5916C31.251 55.7354 34.1986 55.2498 36.9473 54.167C37.0186 54.1291 37.0781 54.0725 37.1197 54.0034C37.1614 53.9342 37.1834 53.8551 37.1836 53.7744L37.1818 49.5592Z" fill="white"/>
</g>
<defs>
<clipPath id="clip0">
<rect width="42.6316" height="42.6316" fill="white" transform="translate(19.1842 19.1842)"/>
</clipPath>
</defs>
</svg>
