<svg width="81" height="81" viewBox="0 0 81 81" fill="none" xmlns="http://www.w3.org/2000/svg">
<circle cx="40.5" cy="40.5" r="40.5" fill="#40E395"/>
<circle cx="40.5" cy="40.5" r="40.5" fill="#F17A8F"/>
<path d="M40.3158 42.9696C41.7873 42.9696 42.9803 41.7766 42.9803 40.3051C42.9803 38.8336 41.7873 37.6406 40.3158 37.6406C38.8442 37.6406 37.6513 38.8336 37.6513 40.3051C37.6513 41.7766 38.8442 42.9696 40.3158 42.9696Z" fill="white"/>
<path d="M40.3158 27.4269C39.4916 27.4278 38.7015 27.7556 38.1188 28.3384C37.536 28.9212 37.2082 29.7113 37.2072 30.5354V32.7558C37.2072 32.9914 37.3008 33.2173 37.4674 33.3839C37.6339 33.5504 37.8598 33.644 38.0954 33.644H42.5362C42.7717 33.644 42.9977 33.5504 43.1642 33.3839C43.3308 33.2173 43.4244 32.9914 43.4244 32.7558V30.5354C43.4234 29.7113 43.0956 28.9212 42.5128 28.3384C41.9301 27.7556 41.1399 27.4278 40.3158 27.4269Z" fill="white"/>
<path d="M55.5658 22.1772C55.5657 21.8312 55.463 21.4929 55.2707 21.2052C55.0785 20.9175 54.8052 20.6932 54.4854 20.5608C54.1657 20.4284 53.8139 20.3937 53.4745 20.4612C53.1351 20.5287 52.8233 20.6953 52.5785 20.94L51.5005 22.018C51.418 22.0994 51.3067 22.1451 51.1908 22.1451C51.0749 22.1451 50.9636 22.0994 50.881 22.018L48.928 20.065C48.5999 19.7369 48.1548 19.5526 47.6908 19.5526C47.2268 19.5526 46.7817 19.7369 46.4535 20.065L44.5005 22.018C44.418 22.0994 44.3067 22.1451 44.1908 22.1451C44.0749 22.1451 43.9636 22.0994 43.881 22.018L41.928 20.065C41.5999 19.7369 41.1548 19.5526 40.6908 19.5526C40.2268 19.5526 39.7817 19.7369 39.4535 20.065L37.5005 22.018C37.418 22.0994 37.3067 22.1451 37.1908 22.1451C37.0749 22.1451 36.9636 22.0994 36.881 22.018L34.928 20.065C34.5999 19.7369 34.1548 19.5526 33.6908 19.5526C33.2268 19.5526 32.7817 19.7369 32.4535 20.065L30.5005 22.018C30.418 22.0994 30.3067 22.1451 30.1908 22.1451C30.0749 22.1451 29.9636 22.0994 29.881 22.018L28.803 20.94C28.5583 20.6953 28.2465 20.5287 27.9071 20.4612C27.5677 20.3937 27.2159 20.4284 26.8962 20.5608C26.5764 20.6932 26.3031 20.9175 26.1108 21.2052C25.9185 21.4929 25.8159 21.8312 25.8158 22.1772V58.2027C25.8159 58.5488 25.9185 58.8871 26.1108 59.1748C26.3031 59.4625 26.5764 59.6868 26.8962 59.8192C27.2159 59.9516 27.5677 59.9863 27.9071 59.9188C28.2465 59.8513 28.5583 59.6847 28.803 59.44L29.881 58.3602C29.9636 58.2788 30.0749 58.2331 30.1908 58.2331C30.3067 58.2331 30.418 58.2788 30.5005 58.3602L32.4535 60.315C32.7817 60.6431 33.2268 60.8274 33.6908 60.8274C34.1548 60.8274 34.5999 60.6431 34.928 60.315L36.881 58.3602C36.9636 58.2788 37.0749 58.2331 37.1908 58.2331C37.3067 58.2331 37.418 58.2788 37.5005 58.3602L39.4535 60.315C39.7817 60.6431 40.2268 60.8274 40.6908 60.8274C41.1548 60.8274 41.5999 60.6431 41.928 60.315L43.881 58.3602C43.9636 58.2788 44.0749 58.2331 44.1908 58.2331C44.3067 58.2331 44.418 58.2788 44.5005 58.3602L46.4535 60.315C46.7817 60.6431 47.2268 60.8274 47.6908 60.8274C48.1548 60.8274 48.5999 60.6431 48.928 60.315L50.881 58.362C50.9216 58.321 50.9698 58.2885 51.023 58.2663C51.0761 58.2441 51.1332 58.2327 51.1908 58.2327C51.2484 58.2327 51.3054 58.2441 51.3586 58.2663C51.4118 58.2885 51.46 58.321 51.5005 58.362L52.5768 59.44C52.8214 59.6853 53.1334 59.8524 53.4731 59.9202C53.8128 59.9881 54.165 59.9536 54.4851 59.8211C54.8052 59.6886 55.0788 59.4641 55.2711 59.176C55.4635 58.8879 55.5661 58.5492 55.5658 58.2027V22.1772ZM43.195 48.0247C43.1023 47.8796 43.0391 47.7176 43.0089 47.5481C42.9788 47.3785 42.9824 47.2047 43.0194 47.0365C43.0565 46.8683 43.1263 46.709 43.2249 46.5678C43.3235 46.4266 43.4489 46.3062 43.594 46.2135C43.7392 46.1208 43.9011 46.0575 44.0707 46.0274C44.2403 45.9973 44.4141 46.0008 44.5823 46.0379C44.7505 46.0749 44.9097 46.1447 45.051 46.2433C45.1922 46.3419 45.3126 46.4674 45.4053 46.6125C45.609 46.9333 45.8928 47.1955 46.2286 47.3733C46.5645 47.5511 46.9409 47.6383 47.3208 47.6264C47.7006 47.6145 48.0708 47.5038 48.3948 47.3052C48.7189 47.1067 48.9856 46.8272 49.1687 46.4942C49.3519 46.1612 49.4451 45.7862 49.4393 45.4063C49.4334 45.0263 49.3286 44.6544 49.1353 44.3272C48.942 44 48.6668 43.7288 48.3368 43.5404C48.0067 43.3519 47.6333 43.2527 47.2533 43.2525C46.024 43.2501 44.8423 42.7775 43.9505 41.9315C43.0586 41.0855 42.5243 39.9303 42.4572 38.7029C42.39 37.4755 42.7951 36.2689 43.5893 35.3307C44.3835 34.3924 45.5066 33.7937 46.7283 33.6572C46.8352 33.6456 46.934 33.5948 47.0057 33.5147C47.0774 33.4346 47.117 33.3308 47.1168 33.2232V32.6072C47.1168 32.2591 47.2551 31.9253 47.5012 31.6792C47.7474 31.433 48.0812 31.2947 48.4293 31.2947C48.7774 31.2947 49.1112 31.433 49.3574 31.6792C49.6035 31.9253 49.7418 32.2591 49.7418 32.6072V34.065C49.7422 34.1369 49.7601 34.2076 49.7939 34.271C49.8278 34.3344 49.8766 34.3886 49.936 34.429C50.5081 34.8128 50.9915 35.3146 51.3535 35.9007C51.4443 36.0474 51.5053 36.2104 51.5331 36.3806C51.5608 36.5508 51.5548 36.7248 51.5153 36.8927C51.4758 37.0606 51.4037 37.219 51.3029 37.359C51.2022 37.4989 51.0749 37.6177 50.9283 37.7085C50.7817 37.7993 50.6186 37.8603 50.4484 37.888C50.2782 37.9158 50.1042 37.9097 49.9363 37.8703C49.7685 37.8308 49.61 37.7586 49.4701 37.6579C49.3301 37.5572 49.2113 37.4299 49.1205 37.2832C48.9194 36.9604 48.6375 36.6955 48.3027 36.5149C47.9679 36.3342 47.5918 36.244 47.2115 36.2531C46.8312 36.2623 46.4598 36.3704 46.1341 36.5669C45.8083 36.7634 45.5394 37.0414 45.354 37.3736C45.1685 37.7058 45.0729 38.0805 45.0765 38.4609C45.0802 38.8413 45.1829 39.2142 45.3747 39.5428C45.5665 39.8713 45.8406 40.1442 46.1701 40.3344C46.4995 40.5246 46.8729 40.6256 47.2533 40.6275C48.4848 40.6258 49.6702 41.0964 50.5651 41.9425C51.46 42.7886 51.9963 43.9457 52.0636 45.1754C52.1309 46.4051 51.724 47.6138 50.9268 48.5524C50.1296 49.4911 49.0027 50.0883 47.7783 50.221C47.6711 50.2327 47.572 50.2837 47.5003 50.3642C47.4285 50.4447 47.3892 50.5489 47.3898 50.6567V51.2745C47.3898 51.6226 47.2515 51.9564 47.0054 52.2026C46.7592 52.4487 46.4254 52.587 46.0773 52.587C45.7292 52.587 45.3954 52.4487 45.1492 52.2026C44.9031 51.9564 44.7648 51.6226 44.7648 51.2745V49.815C44.7649 49.743 44.7472 49.6721 44.7133 49.6087C44.6794 49.5452 44.6304 49.491 44.5705 49.451C44.0178 49.0764 43.5493 48.5907 43.195 48.0247ZM38.0658 43.2525H31.9408C31.5927 43.2525 31.2589 43.1142 31.0127 42.8681C30.7666 42.6219 30.6283 42.2881 30.6283 41.94C30.6283 41.5919 30.7666 41.2581 31.0127 41.0119C31.2589 40.7658 31.5927 40.6275 31.9408 40.6275H38.0658C38.4139 40.6275 38.7477 40.7658 38.9939 41.0119C39.24 41.2581 39.3783 41.5919 39.3783 41.94C39.3783 42.2881 39.24 42.6219 38.9939 42.8681C38.7477 43.1142 38.4139 43.2525 38.0658 43.2525ZM38.5033 48.94C38.5033 49.2881 38.365 49.6219 38.1189 49.8681C37.8727 50.1142 37.5389 50.2525 37.1908 50.2525H31.9408C31.5927 50.2525 31.2589 50.1142 31.0127 49.8681C30.7666 49.6219 30.6283 49.2881 30.6283 48.94C30.6283 48.5919 30.7666 48.2581 31.0127 48.0119C31.2589 47.7658 31.5927 47.6275 31.9408 47.6275H37.1908C37.5389 47.6275 37.8727 47.7658 38.1189 48.0119C38.365 48.2581 38.5033 48.5919 38.5033 48.94ZM38.0658 36.2525H31.9408C31.5927 36.2525 31.2589 36.1142 31.0127 35.8681C30.7666 35.6219 30.6283 35.2881 30.6283 34.94C30.6283 34.5919 30.7666 34.2581 31.0127 34.0119C31.2589 33.7658 31.5927 33.6275 31.9408 33.6275H38.0658C38.4139 33.6275 38.7477 33.7658 38.9939 34.0119C39.24 34.2581 39.3783 34.5919 39.3783 34.94C39.3783 35.2881 39.24 35.6219 38.9939 35.8681C38.7477 36.1142 38.4139 36.2525 38.0658 36.2525Z" fill="white"/>
</svg>
