<svg width="81" height="81" viewBox="0 0 81 81" fill="none" xmlns="http://www.w3.org/2000/svg">
<circle cx="40.5" cy="40.5" r="40.5" fill="#40E395"/>
<circle cx="40.5" cy="40.5" r="40.5" fill="#5ABAFF"/>
<g clip-path="url(#clip0)">
<path d="M35.7458 48.875H23.375C23.1429 48.875 22.9204 48.7828 22.7563 48.6187C22.5922 48.4546 22.5 48.2321 22.5 48V33.125C22.5 32.8929 22.5922 32.6704 22.7563 32.5063C22.9204 32.3422 23.1429 32.25 23.375 32.25H47C47.2321 32.25 47.4546 32.3422 47.6187 32.5063C47.7828 32.6704 47.875 32.8929 47.875 33.125V36.7475C49.0361 36.5865 50.2139 36.5865 51.375 36.7475V25.25C51.375 24.7859 51.1906 24.3408 50.8624 24.0126C50.5343 23.6844 50.0891 23.5 49.625 23.5H45.25C45.134 23.5 45.0227 23.4539 44.9406 23.3719C44.8586 23.2898 44.8125 23.1785 44.8125 23.0625V21.3125C44.8125 20.9644 44.6742 20.6306 44.4281 20.3844C44.1819 20.1383 43.8481 20 43.5 20C43.1519 20 42.8181 20.1383 42.5719 20.3844C42.3258 20.6306 42.1875 20.9644 42.1875 21.3125V27.875C42.1875 28.0474 42.1536 28.218 42.0876 28.3773C42.0216 28.5365 41.925 28.6812 41.8031 28.8031C41.6812 28.925 41.5365 29.0216 41.3773 29.0876C41.218 29.1536 41.0474 29.1875 40.875 29.1875C40.7026 29.1875 40.532 29.1536 40.3727 29.0876C40.2135 29.0216 40.0688 28.925 39.9469 28.8031C39.825 28.6812 39.7284 28.5365 39.6624 28.3773C39.5964 28.218 39.5625 28.0474 39.5625 27.875V24.375C39.5625 24.1429 39.4703 23.9204 39.3062 23.7563C39.1421 23.5922 38.9196 23.5 38.6875 23.5H31.25C31.134 23.5 31.0227 23.4539 30.9406 23.3719C30.8586 23.2898 30.8125 23.1785 30.8125 23.0625V21.3125C30.8125 20.9644 30.6742 20.6306 30.4281 20.3844C30.1819 20.1383 29.8481 20 29.5 20C29.1519 20 28.8181 20.1383 28.5719 20.3844C28.3258 20.6306 28.1875 20.9644 28.1875 21.3125V27.875C28.1875 28.2231 28.0492 28.5569 27.8031 28.8031C27.5569 29.0492 27.2231 29.1875 26.875 29.1875C26.5269 29.1875 26.1931 29.0492 25.9469 28.8031C25.7008 28.5569 25.5625 28.2231 25.5625 27.875V24.375C25.5625 24.1429 25.4703 23.9204 25.3062 23.7563C25.1421 23.5922 24.9196 23.5 24.6875 23.5H20.75C20.2859 23.5 19.8408 23.6844 19.5126 24.0126C19.1844 24.3408 19 24.7859 19 25.25V48.875C19 49.8033 19.3687 50.6935 20.0251 51.3499C20.6815 52.0062 21.5717 52.375 22.5 52.375H35.7458C35.5848 51.2139 35.5848 50.0361 35.7458 48.875Z" fill="white"/>
<path d="M49.625 39.25C47.3752 39.25 45.176 39.9171 43.3054 41.167C41.4348 42.4169 39.9768 44.1935 39.1159 46.272C38.2549 48.3505 38.0297 50.6376 38.4686 52.8442C38.9075 55.0507 39.9908 57.0775 41.5817 58.6683C43.1725 60.2592 45.1993 61.3425 47.4059 61.7814C49.6124 62.2203 51.8995 61.9951 53.978 61.1341C56.0565 60.2732 57.8331 58.8152 59.083 56.9446C60.3329 55.074 61 52.8748 61 50.625C60.9963 47.6093 59.7967 44.7182 57.6642 42.5858C55.5318 40.4533 52.6407 39.2537 49.625 39.25ZM48.3125 57.1875H47C46.6519 57.1875 46.3181 57.0492 46.0719 56.8031C45.8258 56.5569 45.6875 56.2231 45.6875 55.875C45.6875 55.5269 45.8258 55.1931 46.0719 54.9469C46.3181 54.7008 46.6519 54.5625 47 54.5625H50.5578C50.798 54.5619 51.0306 54.4778 51.2157 54.3246C51.4008 54.1714 51.5269 53.9586 51.5724 53.7226C51.6179 53.4867 51.58 53.2423 51.4651 53.0313C51.3502 52.8202 51.1656 52.6556 50.9428 52.5657L47.3325 51.122C46.5732 50.8202 45.9371 50.2723 45.5262 49.5661C45.1153 48.8598 44.9533 48.036 45.0663 47.2268C45.1793 46.4175 45.5606 45.6696 46.1492 45.1029C46.7378 44.5361 47.4996 44.1833 48.3125 44.101V43.1875C48.3125 42.8394 48.4508 42.5056 48.6969 42.2594C48.9431 42.0133 49.2769 41.875 49.625 41.875C49.9731 41.875 50.3069 42.0133 50.5531 42.2594C50.7992 42.5056 50.9375 42.8394 50.9375 43.1875V44.0625H52.25C52.5981 44.0625 52.9319 44.2008 53.1781 44.4469C53.4242 44.6931 53.5625 45.0269 53.5625 45.375C53.5625 45.7231 53.4242 46.0569 53.1781 46.3031C52.9319 46.5492 52.5981 46.6875 52.25 46.6875H48.6923C48.452 46.6881 48.2194 46.7722 48.0343 46.9254C47.8492 47.0786 47.7231 47.2914 47.6776 47.5274C47.6321 47.7633 47.6701 48.0077 47.7849 48.2187C47.8998 48.4298 48.0844 48.5943 48.3073 48.6843L51.9175 50.128C52.6768 50.4298 53.3129 50.9777 53.7238 51.6839C54.1347 52.3902 54.2967 53.214 54.1837 54.0232C54.0707 54.8325 53.6894 55.5804 53.1008 56.1471C52.5122 56.7139 51.7504 57.0667 50.9375 57.149V58.0625C50.9375 58.4106 50.7992 58.7444 50.5531 58.9906C50.3069 59.2367 49.9731 59.375 49.625 59.375C49.2769 59.375 48.9431 59.2367 48.6969 58.9906C48.4508 58.7444 48.3125 58.4106 48.3125 58.0625V57.1875Z" fill="white"/>
</g>
<defs>
<clipPath id="clip0">
<rect width="42" height="42" fill="white" transform="translate(19 20)"/>
</clipPath>
</defs>
</svg>
