<svg width="81" height="81" viewBox="0 0 81 81" fill="none" xmlns="http://www.w3.org/2000/svg">
<circle cx="40.5" cy="40.5" r="40.5" fill="#40E395"/>
<circle cx="40.5" cy="40.5" r="40.5" fill="#6967E0"/>
<path d="M34.75 33H45.25C45.7141 33 46.1593 32.8156 46.4874 32.4874C46.8156 32.1592 47 31.7141 47 31.25C47 30.7859 46.8156 30.3407 46.4874 30.0125C46.1593 29.6844 45.7141 29.5 45.25 29.5H34.75C34.2859 29.5 33.8408 29.6844 33.5126 30.0125C33.1844 30.3407 33 30.7859 33 31.25C33 31.7141 33.1844 32.1592 33.5126 32.4874C33.8408 32.8156 34.2859 33 34.75 33ZM35.5743 26.875C35.6008 27.0878 35.7046 27.2834 35.8659 27.4247C36.0273 27.566 36.2348 27.6431 36.4493 27.6415H43.5613C43.7757 27.6431 43.9833 27.566 44.1446 27.4247C44.3059 27.2834 44.4097 27.0878 44.4363 26.875C44.8133 24.984 45.5282 23.1765 46.5468 21.5392C46.6353 21.3792 46.6714 21.1954 46.65 21.0137C46.6287 20.832 46.5509 20.6616 46.4277 20.5264C46.3045 20.3912 46.142 20.2981 45.9631 20.26C45.7842 20.2219 45.5978 20.2409 45.4303 20.3142L42.1718 21.7142C42.1182 21.737 42.0606 21.7489 42.0023 21.7492C41.9441 21.7495 41.8864 21.7381 41.8326 21.7158C41.7788 21.6934 41.73 21.6606 41.6891 21.6192C41.6482 21.5777 41.6159 21.5285 41.5943 21.4745L40.8225 19.5495C40.7574 19.3874 40.6453 19.2485 40.5006 19.1506C40.3559 19.0528 40.1852 19.0005 40.0105 19.0005C39.8358 19.0005 39.6651 19.0528 39.5204 19.1506C39.3757 19.2485 39.2636 19.3874 39.1985 19.5495L38.4268 21.4745C38.4051 21.5285 38.3729 21.5777 38.3319 21.6192C38.291 21.6606 38.2422 21.6934 38.1884 21.7158C38.1346 21.7381 38.0769 21.7495 38.0187 21.7492C37.9604 21.7489 37.9028 21.737 37.8493 21.7142L34.575 20.3212C34.4074 20.2479 34.2211 20.2289 34.0422 20.267C33.8633 20.3051 33.7008 20.3982 33.5776 20.5334C33.4544 20.6686 33.3766 20.839 33.3552 21.0207C33.3339 21.2024 33.37 21.3862 33.4585 21.5462C34.4781 23.181 35.1948 24.9861 35.5743 26.875ZM46.0165 34.9617C45.837 34.8248 45.6175 34.7505 45.3918 34.75H34.6083C34.3824 34.7497 34.1627 34.8242 33.9835 34.9617C29.5193 38.3742 24.5335 44.4117 24.5335 49.6617C24.53 57.0625 28.6565 61 40 61C51.3435 61 55.47 57.0625 55.47 49.6565C55.47 44.4152 50.4825 38.3742 46.0165 34.9617ZM41.6713 54.2275C41.5705 54.2459 41.4795 54.2991 41.4139 54.3778C41.3484 54.4564 41.3125 54.5556 41.3125 54.658V55.3125C41.3125 55.6606 41.1742 55.9944 40.9281 56.2406C40.6819 56.4867 40.3481 56.625 40 56.625C39.6519 56.625 39.3181 56.4867 39.0719 56.2406C38.8258 55.9944 38.6875 55.6606 38.6875 55.3125V54.7472C38.6875 54.6312 38.6414 54.5199 38.5594 54.4379C38.4773 54.3558 38.366 54.3097 38.25 54.3097H37.221C36.8729 54.3097 36.5391 54.1715 36.2929 53.9253C36.0468 53.6792 35.9085 53.3453 35.9085 52.9972C35.9085 52.6491 36.0468 52.3153 36.2929 52.0692C36.5391 51.823 36.8729 51.6847 37.221 51.6847H40.987C41.26 51.685 41.5246 51.5902 41.7353 51.4166C41.9459 51.2429 42.0895 51.0013 42.1413 50.7332C42.1931 50.4652 42.1499 50.1874 42.019 49.9478C41.8882 49.7082 41.678 49.5216 41.4245 49.4202L37.6008 47.8925C36.8365 47.5881 36.1922 47.0432 35.7651 46.3401C35.3381 45.6371 35.1516 44.8141 35.2338 43.9956C35.316 43.1771 35.6626 42.4076 36.221 41.8036C36.7793 41.1995 37.5192 40.7937 38.3288 40.6475C38.4295 40.629 38.5206 40.5759 38.5861 40.4972C38.6517 40.4185 38.6875 40.3194 38.6875 40.217V39.5625C38.6875 39.2144 38.8258 38.8805 39.0719 38.6344C39.3181 38.3883 39.6519 38.25 40 38.25C40.3481 38.25 40.6819 38.3883 40.9281 38.6344C41.1742 38.8805 41.3125 39.2144 41.3125 39.5625V40.1277C41.3125 40.2438 41.3586 40.355 41.4407 40.4371C41.5227 40.5191 41.634 40.5652 41.75 40.5652H42.779C43.1271 40.5652 43.4609 40.7035 43.7071 40.9497C43.9532 41.1958 44.0915 41.5296 44.0915 41.8777C44.0915 42.2258 43.9532 42.5597 43.7071 42.8058C43.4609 43.0519 43.1271 43.1902 42.779 43.1902H39.013C38.74 43.1899 38.4754 43.2847 38.2647 43.4584C38.0541 43.632 37.9105 43.8737 37.8587 44.1417C37.8069 44.4098 37.8502 44.6875 37.981 44.9271C38.1118 45.1668 38.322 45.3533 38.5755 45.4547L42.3993 46.9825C43.1635 47.2868 43.8079 47.8317 44.2349 48.5348C44.662 49.2379 44.8485 50.0609 44.7662 50.8794C44.684 51.6979 44.3375 52.4673 43.7791 53.0714C43.2207 53.6755 42.4808 54.0813 41.6713 54.2275Z" fill="white"/>
</svg>
