<svg width="81" height="81" viewBox="0 0 81 81" fill="none" xmlns="http://www.w3.org/2000/svg">
<circle cx="40.5" cy="40.5" r="40.5" fill="#40E395"/>
<circle cx="40.5" cy="40.5" r="40.5" fill="#FF6767"/>
<g clip-path="url(#clip0)">
<path d="M44.3242 34.7L43.6242 34.4533C43.5601 34.4304 43.5022 34.3928 43.4551 34.3436C43.408 34.2944 43.373 34.2349 43.353 34.1698C43.2225 33.6093 43.2147 33.0273 43.3302 32.4635C43.3482 32.3984 43.3811 32.3385 43.4265 32.2885C44.1804 31.4563 44.754 30.4771 45.1112 29.4124C45.4683 28.3478 45.6014 27.2208 45.502 26.1023C45.566 25.335 45.4721 24.5628 45.2261 23.8332C44.98 23.1037 44.5871 22.4323 44.0716 21.8605C43.556 21.2887 42.9287 20.8286 42.2284 20.5086C41.5282 20.1886 40.7698 20.0155 40 20C39.1851 19.9981 38.3809 20.1862 37.6515 20.5495C37.5953 20.5766 37.5455 20.6154 37.5055 20.6634C37.4656 20.7113 37.4363 20.7672 37.4197 20.8274C37.4032 20.8876 37.3996 20.9506 37.4094 21.0122C37.4192 21.0739 37.4421 21.1327 37.4765 21.1848C38.4476 22.6388 38.9608 24.3503 38.95 26.0988C39.0702 28.3277 38.5073 30.5403 37.3365 32.4408C37.3002 32.4957 37.2768 32.558 37.268 32.6232C37.2591 32.6884 37.2651 32.7547 37.2854 32.8173C37.3058 32.8799 37.34 32.937 37.3855 32.9846C37.431 33.0321 37.4866 33.0687 37.5482 33.0918C42.7982 35.0535 43.941 36.5918 44.2682 37.2708C44.3155 37.3685 44.3973 37.4451 44.4979 37.4859C44.5985 37.5266 44.7106 37.5286 44.8125 37.4913C45.6835 37.1708 46.5847 36.9392 47.5022 36.8C47.5963 36.7858 47.6832 36.7413 47.7497 36.6732C47.8162 36.6052 47.8587 36.5173 47.8707 36.4229C47.8828 36.3286 47.8638 36.2328 47.8166 36.1502C47.7693 36.0677 47.6965 36.0027 47.609 35.9653C46.65 35.5575 45.5527 35.1498 44.3242 34.7Z" fill="white"/>
<path d="M49.375 39C47.1252 39 44.926 39.6671 43.0554 40.917C41.1848 42.1669 39.7268 43.9435 38.8659 46.022C38.0049 48.1005 37.7797 50.3876 38.2186 52.5942C38.6575 54.8007 39.7408 56.8275 41.3317 58.4183C42.9225 60.0092 44.9493 61.0925 47.1558 61.5314C49.3624 61.9703 51.6495 61.7451 53.728 60.8841C55.8065 60.0232 57.5831 58.5652 58.833 56.6946C60.0829 54.824 60.75 52.6248 60.75 50.375C60.75 47.3582 59.5516 44.4649 57.4183 42.3317C55.2851 40.1984 52.3918 39 49.375 39ZM47.478 48.2645L52.2205 50.0407C52.9065 50.395 53.462 50.9584 53.8066 51.6493C54.1513 52.3402 54.2672 53.1228 54.1376 53.884C54.008 54.6451 53.6397 55.3453 53.0858 55.8832C52.532 56.4211 51.8213 56.7689 51.0568 56.8762C50.9537 56.8922 50.8597 56.9445 50.7919 57.0239C50.7242 57.1032 50.6871 57.2042 50.6875 57.3085V58.25C50.6875 58.5981 50.5492 58.9319 50.3031 59.1781C50.0569 59.4242 49.7231 59.5625 49.375 59.5625C49.0269 59.5625 48.6931 59.4242 48.4469 59.1781C48.2008 58.9319 48.0625 58.5981 48.0625 58.25V57.375C48.0625 57.259 48.0164 57.1477 47.9344 57.0656C47.8523 56.9836 47.741 56.9375 47.625 56.9375H45.875C45.5269 56.9375 45.1931 56.7992 44.9469 56.5531C44.7008 56.3069 44.5625 55.9731 44.5625 55.625C44.5625 55.2769 44.7008 54.9431 44.9469 54.6969C45.1931 54.4508 45.5269 54.3125 45.875 54.3125H50.25C51.125 54.3125 51.5625 54.0097 51.5625 53.413C51.5888 53.0779 51.4848 52.7457 51.272 52.4855L46.5295 50.7092C45.9022 50.408 45.3796 49.9257 45.029 49.3247C44.6784 48.7236 44.5159 48.0313 44.5625 47.337C44.5901 46.4821 44.9211 45.6649 45.4964 45.0319C46.0717 44.3989 46.8536 43.9914 47.702 43.8825C47.803 43.8644 47.8945 43.8114 47.9604 43.7327C48.0263 43.654 48.0625 43.5546 48.0625 43.452V42.5C48.0625 42.1519 48.2008 41.8181 48.4469 41.5719C48.6931 41.3258 49.0269 41.1875 49.375 41.1875C49.7231 41.1875 50.0569 41.3258 50.3031 41.5719C50.5492 41.8181 50.6875 42.1519 50.6875 42.5V43.375C50.6875 43.491 50.7336 43.6023 50.8156 43.6844C50.8977 43.7664 51.009 43.8125 51.125 43.8125H52.875C53.2231 43.8125 53.5569 43.9508 53.8031 44.1969C54.0492 44.4431 54.1875 44.7769 54.1875 45.125C54.1875 45.4731 54.0492 45.8069 53.8031 46.0531C53.5569 46.2992 53.2231 46.4375 52.875 46.4375H48.5C47.7895 46.4375 47.1875 46.8487 47.1875 47.337C47.1612 47.6721 47.2652 48.0043 47.478 48.2645Z" fill="white"/>
<path d="M42.1304 38.8545C42.1772 38.8207 42.2168 38.7779 42.2468 38.7286C42.2769 38.6793 42.2968 38.6246 42.3054 38.5675C42.3151 38.5096 42.3132 38.4504 42.2997 38.3933C42.2861 38.3362 42.2613 38.2823 42.2266 38.235C40.6761 36.135 34.4164 34.2905 34.8644 34.4497C34.8028 34.4266 34.7472 34.3899 34.7018 34.3424C34.6563 34.2948 34.6222 34.2376 34.6019 34.175C34.4672 33.6124 34.4564 33.0272 34.5704 32.46C34.5883 32.3949 34.6213 32.335 34.6666 32.285C35.4205 31.4528 35.9941 30.4735 36.3513 29.4089C36.7085 28.3443 36.8416 27.2173 36.7421 26.0987C36.8056 25.3322 36.7115 24.5608 36.4656 23.832C36.2196 23.1032 35.8271 22.4325 35.3121 21.8611C34.7972 21.2898 34.1707 20.8299 33.4713 20.5098C32.7719 20.1898 32.0144 20.0162 31.2454 20C30.4757 20.0151 29.7172 20.1877 29.0167 20.5073C28.3163 20.8268 27.6888 21.2865 27.1729 21.858C26.657 22.4295 26.2637 23.1006 26.0172 23.83C25.7708 24.5594 25.6764 25.3315 25.7399 26.0987C25.6375 27.2095 25.766 28.3294 26.1175 29.388C26.469 30.4467 27.0357 31.4211 27.7821 32.25C27.8208 32.2927 27.8506 32.3427 27.8696 32.397C28.0116 32.9621 28.0307 33.5511 27.9256 34.1242C27.9097 34.1953 27.8761 34.2611 27.8281 34.3158C27.7801 34.3706 27.7192 34.4124 27.6509 34.4375L26.9211 34.7C23.4089 35.9897 20.8714 36.9225 20.0769 38.5097C19.3789 40.1257 19.0112 41.8649 18.9954 43.625C18.9954 43.8571 19.0876 44.0796 19.2517 44.2437C19.4158 44.4078 19.6383 44.5 19.8704 44.5H36.7806C36.8612 44.4998 36.9402 44.4775 37.009 44.4355C37.0778 44.3935 37.1338 44.3335 37.1709 44.262C38.3131 42.0501 40.0253 40.1833 42.1304 38.8545Z" fill="white"/>
</g>
<defs>
<clipPath id="clip0">
<rect width="42" height="42" fill="white" transform="translate(19 20)"/>
</clipPath>
</defs>
</svg>
