<svg width="81" height="81" viewBox="0 0 81 81" fill="none" xmlns="http://www.w3.org/2000/svg">
<circle cx="40.5" cy="40.5" r="40.5" fill="#40E395"/>
<circle cx="40.5" cy="40.5" r="40.5" fill="#40E395"/>
<g clip-path="url(#clip0)">
<path d="M57 21C57 19.9391 56.5786 18.9217 55.8284 18.1716C55.0783 17.4214 54.0609 17 53 17H21C19.9391 17 18.9217 17.4214 18.1716 18.1716C17.4214 18.9217 17 19.9391 17 21V23C17 23.1326 17.0527 23.2598 17.1464 23.3536C17.2402 23.4473 17.3674 23.5 17.5 23.5H56.5C56.6326 23.5 56.7598 23.4473 56.8536 23.3536C56.9473 23.2598 57 23.1326 57 23V21ZM52 36C53.476 36.0011 54.9446 36.2071 56.364 36.612C56.4383 36.633 56.5164 36.6365 56.5922 36.6223C56.6681 36.608 56.7396 36.5764 56.8012 36.5299C56.8628 36.4835 56.9128 36.4233 56.9473 36.3543C56.9818 36.2853 56.9998 36.2092 57 36.132V27C57 26.8674 56.9473 26.7402 56.8536 26.6464C56.7598 26.5527 56.6326 26.5 56.5 26.5H17.5C17.3674 26.5 17.2402 26.5527 17.1464 26.6464C17.0527 26.7402 17 26.8674 17 27V43C17 44.0609 17.4214 45.0783 18.1716 45.8284C18.9217 46.5786 19.9391 47 21 47H36.45C36.5536 47.0001 36.6546 46.968 36.7392 46.9081C36.8237 46.8483 36.8876 46.7637 36.922 46.666C38.0246 43.5478 40.0665 40.8478 42.7667 38.9378C45.4668 37.0277 48.6926 36.0014 52 36ZM23 31.5H36C36.3978 31.5 36.7794 31.658 37.0607 31.9393C37.342 32.2206 37.5 32.6022 37.5 33C37.5 33.3978 37.342 33.7794 37.0607 34.0607C36.7794 34.342 36.3978 34.5 36 34.5H23C22.6022 34.5 22.2206 34.342 21.9393 34.0607C21.658 33.7794 21.5 33.3978 21.5 33C21.5 32.6022 21.658 32.2206 21.9393 31.9393C22.2206 31.658 22.6022 31.5 23 31.5ZM29 41.5H23C22.6022 41.5 22.2206 41.342 21.9393 41.0607C21.658 40.7794 21.5 40.3978 21.5 40C21.5 39.6022 21.658 39.2206 21.9393 38.9393C22.2206 38.658 22.6022 38.5 23 38.5H29C29.3978 38.5 29.7794 38.658 30.0607 38.9393C30.342 39.2206 30.5 39.6022 30.5 40C30.5 40.3978 30.342 40.7794 30.0607 41.0607C29.7794 41.342 29.3978 41.5 29 41.5Z" fill="white"/>
<path d="M52 39C49.4288 39 46.9154 39.7624 44.7776 41.1909C42.6398 42.6194 40.9735 44.6497 39.9896 47.0251C39.0056 49.4006 38.7482 52.0144 39.2498 54.5362C39.7514 57.0579 40.9895 59.3743 42.8076 61.1924C44.6257 63.0105 46.9421 64.2486 49.4638 64.7502C51.9856 65.2518 54.5995 64.9944 56.9749 64.0104C59.3503 63.0265 61.3807 61.3603 62.8091 59.2224C64.2376 57.0846 65 54.5712 65 52C65 48.5522 63.6304 45.2456 61.1924 42.8076C58.7544 40.3696 55.4478 39 52 39ZM49.832 49.588L55.252 51.618C56.036 52.0229 56.6709 52.6667 57.0647 53.4563C57.4586 54.2459 57.5911 55.1404 57.443 56.0102C57.2949 56.8801 56.8739 57.6803 56.2409 58.2951C55.608 58.9099 54.7958 59.3073 53.922 59.43C53.8042 59.4482 53.6968 59.5081 53.6194 59.5987C53.5419 59.6894 53.4996 59.8048 53.5 59.924V61C53.5 61.3978 53.342 61.7794 53.0607 62.0607C52.7794 62.342 52.3978 62.5 52 62.5C51.6022 62.5 51.2206 62.342 50.9393 62.0607C50.658 61.7794 50.5 61.3978 50.5 61V60C50.5 59.8674 50.4473 59.7402 50.3536 59.6464C50.2598 59.5527 50.1326 59.5 50 59.5H48C47.6022 59.5 47.2207 59.342 46.9393 59.0607C46.658 58.7794 46.5 58.3978 46.5 58C46.5 57.6022 46.658 57.2206 46.9393 56.9393C47.2207 56.658 47.6022 56.5 48 56.5H53C54 56.5 54.5 56.154 54.5 55.472C54.5301 55.0891 54.4112 54.7093 54.168 54.412L48.748 52.382C48.0311 52.0377 47.4339 51.4866 47.0332 50.7996C46.6325 50.1127 46.4468 49.3215 46.5 48.528C46.5315 47.5509 46.9099 46.617 47.5673 45.8936C48.2248 45.1702 49.1184 44.7045 50.088 44.58C50.2035 44.5594 50.308 44.4988 50.3833 44.4088C50.4587 44.3189 50.5 44.2053 50.5 44.088V43C50.5 42.6022 50.658 42.2206 50.9393 41.9393C51.2206 41.658 51.6022 41.5 52 41.5C52.3978 41.5 52.7794 41.658 53.0607 41.9393C53.342 42.2206 53.5 42.6022 53.5 43V44C53.5 44.1326 53.5527 44.2598 53.6465 44.3536C53.7402 44.4473 53.8674 44.5 54 44.5H56C56.3978 44.5 56.7794 44.658 57.0607 44.9393C57.342 45.2206 57.5 45.6022 57.5 46C57.5 46.3978 57.342 46.7794 57.0607 47.0607C56.7794 47.342 56.3978 47.5 56 47.5H51C50.188 47.5 49.5 47.97 49.5 48.528C49.4699 48.9109 49.5889 49.2907 49.832 49.588Z" fill="white"/>
</g>
<defs>
<clipPath id="clip0">
<rect width="48" height="48" fill="white" transform="translate(17 17)"/>
</clipPath>
</defs>
</svg>
