<svg width="81" height="81" viewBox="0 0 81 81" fill="none" xmlns="http://www.w3.org/2000/svg">
<circle cx="40.5" cy="40.5" r="40.5" fill="#6967E0"/>
<g filter="url(#filter0_d)">
<path d="M54.2123 51.7842C54.2123 52.0198 54.3058 52.2457 54.4724 52.4123C54.639 52.5789 54.865 52.6725 55.1005 52.6725H60.1123C60.2578 52.6724 60.401 52.6366 60.5294 52.5682C60.6578 52.4998 60.7674 52.4009 60.8487 52.2802C60.9299 52.1595 60.9802 52.0206 60.9953 51.8759C61.0103 51.7312 60.9895 51.585 60.9348 51.4502C60.4077 50.1328 59.5357 48.9816 58.4104 48.1173C57.2851 47.253 55.9479 46.7075 54.5391 46.538C54.3918 46.5202 54.2423 46.5396 54.1044 46.5945C53.9665 46.6494 53.8445 46.7379 53.7496 46.852C53.6547 46.9662 53.59 47.1023 53.5612 47.2479C53.5325 47.3935 53.5407 47.544 53.5851 47.6857C54.0008 49.0121 54.2123 50.3941 54.2123 51.7842ZM27.3273 47.6093C27.3701 47.4762 27.3809 47.3349 27.3587 47.1968C27.3366 47.0588 27.2822 46.928 27.2 46.8149C27.1178 46.7019 27.01 46.6098 26.8855 46.5463C26.761 46.4827 26.6232 46.4494 26.4834 46.4492H26.4621C24.8707 46.45 23.3159 46.9268 21.9976 47.8183C20.6793 48.7098 19.6578 49.9753 19.0645 51.452C19.0101 51.5869 18.9896 51.733 19.0049 51.8776C19.0202 52.0222 19.0708 52.1609 19.1522 52.2814C19.2336 52.4019 19.3433 52.5006 19.4717 52.5688C19.6002 52.637 19.7434 52.6726 19.8888 52.6725H25.787C26.0226 52.6725 26.2486 52.5789 26.4151 52.4123C26.5817 52.2457 26.6753 52.0198 26.6753 51.7842C26.6747 50.3672 26.8946 48.9586 27.3273 47.6093Z" fill="white"/>
<path d="M36.1446 40.7833C36.2137 40.8257 36.2699 40.8862 36.3071 40.9582C36.3444 41.0303 36.3611 41.1111 36.3556 41.192C36.3501 41.2729 36.3226 41.3508 36.276 41.4172C36.2294 41.4835 36.1655 41.5359 36.0913 41.5685C34.0895 42.4233 32.3826 43.8469 31.1825 45.6629C29.9824 47.4788 29.3418 49.6072 29.3403 51.7838C29.3403 52.0194 29.4339 52.2454 29.6005 52.412C29.7671 52.5785 29.993 52.6721 30.2286 52.6721H50.6592C50.8948 52.6721 51.1207 52.5785 51.2873 52.412C51.4539 52.2454 51.5475 52.0194 51.5475 51.7838C51.5438 49.6039 50.8992 47.4732 49.6938 45.6568C48.4883 43.8405 46.7754 42.4188 44.7681 41.5685C44.693 41.5359 44.6284 41.4834 44.5812 41.4165C44.5341 41.3496 44.5062 41.2711 44.5007 41.1895C44.4952 41.1078 44.5123 41.0263 44.55 40.9537C44.5878 40.8811 44.6448 40.8203 44.7148 40.7779C46.2993 39.8368 47.5308 38.4011 48.2197 36.6917C48.9086 34.9823 49.0168 33.0939 48.5277 31.317C48.0386 29.5401 46.9792 27.9731 45.5126 26.857C44.0459 25.741 42.2532 25.1377 40.4102 25.14C38.5672 25.1423 36.7761 25.75 35.3122 26.8697C33.8483 27.9894 32.7929 29.559 32.3082 31.3372C31.8235 33.1153 31.9364 35.0034 32.6295 36.7111C33.3227 38.4187 34.5577 39.8514 36.1446 40.7886V40.7833ZM35.5583 33.5508C35.5584 33.2149 35.5959 32.88 35.6702 32.5524C35.7011 32.4153 35.764 32.2875 35.8539 32.1794C35.9438 32.0713 36.058 31.9862 36.1872 31.9308C36.3164 31.8755 36.4569 31.8516 36.5971 31.8612C36.7373 31.8707 36.8733 31.9134 36.9938 31.9857C38.6966 33.0108 40.6468 33.552 42.6344 33.5508C43.1541 33.5504 43.6731 33.5118 44.1872 33.4354C44.326 33.4146 44.4677 33.427 44.6008 33.4716C44.7339 33.5161 44.8545 33.5916 44.9528 33.6918C45.0511 33.792 45.1242 33.914 45.1662 34.048C45.2082 34.1819 45.2179 34.3238 45.1945 34.4622C44.9687 35.6517 44.3071 36.7142 43.3392 37.4415C42.3713 38.1689 41.1667 38.5089 39.9613 38.3949C38.756 38.2809 37.6365 37.7211 36.8222 36.8252C36.0078 35.9292 35.5571 34.7616 35.5583 33.5508Z" fill="white"/>
<path d="M53.5374 44.6776C54.5575 44.6839 55.5542 44.3726 56.3895 43.787C57.2248 43.2014 57.8572 42.3704 58.199 41.4093C58.5409 40.4481 58.5752 39.4045 58.2974 38.4229C58.0195 37.4414 57.4432 36.5706 56.6483 35.9313C55.8533 35.292 54.8792 34.9158 53.8609 34.8549C52.8426 34.794 51.8306 35.0514 50.9652 35.5914C50.0997 36.1315 49.4237 36.9273 49.0308 37.8688C48.638 38.8102 48.5477 39.8505 48.7726 40.8455C49.022 41.9261 49.6274 42.8915 50.4916 43.5865C51.3557 44.2815 52.4285 44.6658 53.5374 44.6776Z" fill="white"/>
<path d="M26.4627 44.6771C29.1609 44.6771 31.3483 42.4898 31.3483 39.7915C31.3483 37.0933 29.1609 34.9059 26.4627 34.9059C23.7645 34.9059 21.5771 37.0933 21.5771 39.7915C21.5771 42.4898 23.7645 44.6771 26.4627 44.6771Z" fill="white"/>
</g>
<defs>
<filter id="filter0_d" x="18" y="17.5" width="44" height="44" filterUnits="userSpaceOnUse" color-interpolation-filters="sRGB">
<feFlood flood-opacity="0" result="BackgroundImageFix"/>
<feColorMatrix in="SourceAlpha" type="matrix" values="0 0 0 0 0 0 0 0 0 0 0 0 0 0 0 0 0 0 127 0"/>
<feOffset dy="0.5"/>
<feGaussianBlur stdDeviation="0.5"/>
<feColorMatrix type="matrix" values="0 0 0 0 0 0 0 0 0 0 0 0 0 0 0 0 0 0 0.15 0"/>
<feBlend mode="normal" in2="BackgroundImageFix" result="effect1_dropShadow"/>
<feBlend mode="normal" in="SourceGraphic" in2="effect1_dropShadow" result="shape"/>
</filter>
</defs>
</svg>
