<svg width="81" height="81" viewBox="0 0 81 81" fill="none" xmlns="http://www.w3.org/2000/svg">
<circle cx="40.5" cy="40.5" r="40.5" fill="#40E395"/>
<circle cx="40.5" cy="40.5" r="40.5" fill="#FFA6D1"/>
<g filter="url(#filter0_d)">
<path d="M52 39C49.4288 39 46.9154 39.7624 44.7776 41.1909C42.6398 42.6194 40.9735 44.6497 39.9896 47.0251C39.0056 49.4006 38.7482 52.0144 39.2498 54.5362C39.7514 57.0579 40.9895 59.3743 42.8076 61.1924C44.6257 63.0105 46.9421 64.2486 49.4638 64.7502C51.9856 65.2518 54.5995 64.9944 56.9749 64.0104C59.3503 63.0265 61.3807 61.3603 62.8091 59.2224C64.2376 57.0846 65 54.5712 65 52C65 48.5522 63.6304 45.2456 61.1924 42.8076C58.7544 40.3696 55.4478 39 52 39ZM49.832 49.588L55.252 51.618C56.036 52.0229 56.6709 52.6667 57.0647 53.4563C57.4586 54.2459 57.5911 55.1404 57.443 56.0102C57.2949 56.8801 56.8739 57.6803 56.2409 58.2951C55.608 58.9099 54.7958 59.3073 53.922 59.43C53.8042 59.4482 53.6968 59.5081 53.6194 59.5987C53.5419 59.6894 53.4996 59.8048 53.5 59.924V61C53.5 61.3978 53.342 61.7794 53.0607 62.0607C52.7794 62.342 52.3978 62.5 52 62.5C51.6022 62.5 51.2206 62.342 50.9393 62.0607C50.658 61.7794 50.5 61.3978 50.5 61V60C50.5 59.8674 50.4473 59.7402 50.3536 59.6464C50.2598 59.5527 50.1326 59.5 50 59.5H48C47.6022 59.5 47.2207 59.342 46.9393 59.0607C46.658 58.7794 46.5 58.3978 46.5 58C46.5 57.6022 46.658 57.2206 46.9393 56.9393C47.2207 56.658 47.6022 56.5 48 56.5H53C54 56.5 54.5 56.154 54.5 55.472C54.5301 55.0891 54.4112 54.7093 54.168 54.412L48.748 52.382C48.0311 52.0377 47.4339 51.4866 47.0332 50.7996C46.6325 50.1127 46.4468 49.3215 46.5 48.528C46.5315 47.5509 46.9099 46.617 47.5673 45.8936C48.2248 45.1702 49.1184 44.7045 50.088 44.58C50.2035 44.5594 50.308 44.4988 50.3833 44.4088C50.4587 44.3189 50.5 44.2053 50.5 44.088V43C50.5 42.6022 50.658 42.2206 50.9393 41.9393C51.2206 41.658 51.6022 41.5 52 41.5C52.3978 41.5 52.7794 41.658 53.0607 41.9393C53.342 42.2206 53.5 42.6022 53.5 43V44C53.5 44.1326 53.5527 44.2598 53.6465 44.3536C53.7402 44.4473 53.8674 44.5 54 44.5H56C56.3978 44.5 56.7794 44.658 57.0607 44.9393C57.342 45.2206 57.5 45.6022 57.5 46C57.5 46.3978 57.342 46.7794 57.0607 47.0607C56.7794 47.342 56.3978 47.5 56 47.5H51C50.188 47.5 49.5 47.97 49.5 48.528C49.4699 48.9109 49.5889 49.2907 49.832 49.588Z" fill="white"/>
<path d="M56.75 17H25.25C23.8576 17 22.5223 17.5531 21.5377 18.5377C20.5531 19.5223 20 20.8576 20 22.25V47.625C20 49.0174 20.5531 50.3527 21.5377 51.3373C22.5223 52.3219 23.8576 52.875 25.25 52.875H36.625C37.0891 52.875 37.5342 52.6906 37.8624 52.3624C38.1906 52.0342 38.375 51.5891 38.375 51.125C38.375 50.6609 38.1906 50.2158 37.8624 49.8876C37.5342 49.5594 37.0891 49.375 36.625 49.375H25.25C24.7859 49.375 24.3408 49.1906 24.0126 48.8624C23.6844 48.5343 23.5 48.0891 23.5 47.625V26.1892C23.4998 26.1316 23.5109 26.0746 23.5328 26.0213C23.5547 25.968 23.5869 25.9196 23.6275 25.8788C23.6682 25.8379 23.7165 25.8056 23.7697 25.7835C23.8229 25.7614 23.8799 25.75 23.9375 25.75H58.0625C58.1785 25.75 58.2898 25.7961 58.3719 25.8781C58.4539 25.9602 58.5 26.0715 58.5 26.1875V36.25C58.5 36.7141 58.6844 37.1592 59.0126 37.4874C59.3408 37.8156 59.7859 38 60.25 38C60.7141 38 61.1592 37.8156 61.4874 37.4874C61.8156 37.1592 62 36.7141 62 36.25V22.25C62 20.8576 61.4469 19.5223 60.4623 18.5377C59.4777 17.5531 58.1424 17 56.75 17V17ZM27.6055 22.25C27.4595 22.5149 27.2451 22.7357 26.9847 22.8895C26.7243 23.0433 26.4274 23.1245 26.125 23.1245C25.8226 23.1245 25.5257 23.0433 25.2653 22.8895C25.0049 22.7357 24.7905 22.5149 24.6445 22.25C24.4764 21.9884 24.3832 21.6858 24.375 21.375C24.3768 21.1276 24.4317 20.8836 24.536 20.6593C24.6735 20.3524 24.8965 20.0917 25.1783 19.9083C25.4601 19.7249 25.7888 19.6265 26.125 19.625C26.4269 19.6281 26.7226 19.7106 26.9824 19.8642C27.2423 20.0178 27.4572 20.2371 27.6055 20.5C27.7739 20.7614 27.8671 21.0641 27.875 21.375C27.8668 21.6858 27.7736 21.9884 27.6055 22.25ZM33.7305 22.25C33.5845 22.5149 33.3701 22.7357 33.1097 22.8895C32.8493 23.0433 32.5524 23.1245 32.25 23.1245C31.9476 23.1245 31.6507 23.0433 31.3903 22.8895C31.1299 22.7357 30.9155 22.5149 30.7695 22.25C30.6014 21.9884 30.5082 21.6858 30.5 21.375C30.5079 21.0641 30.6011 20.7614 30.7695 20.5C30.9155 20.2351 31.1299 20.0143 31.3903 19.8605C31.6507 19.7067 31.9476 19.6255 32.25 19.6255C32.5524 19.6255 32.8493 19.7067 33.1097 19.8605C33.3701 20.0143 33.5845 20.2351 33.7305 20.5C33.8989 20.7614 33.9921 21.0641 34 21.375C33.9918 21.6858 33.8986 21.9884 33.7305 22.25ZM39.8555 22.25C39.7095 22.5149 39.4951 22.7357 39.2347 22.8895C38.9743 23.0433 38.6774 23.1245 38.375 23.1245C38.0726 23.1245 37.7757 23.0433 37.5153 22.8895C37.2549 22.7357 37.0405 22.5149 36.8945 22.25C36.7264 21.9884 36.6332 21.6858 36.625 21.375C36.6329 21.0641 36.7261 20.7614 36.8945 20.5C37.0405 20.2351 37.2549 20.0143 37.5153 19.8605C37.7757 19.7067 38.0726 19.6255 38.375 19.6255C38.6774 19.6255 38.9743 19.7067 39.2347 19.8605C39.4951 20.0143 39.7095 20.2351 39.8555 20.5C40.0239 20.7614 40.1171 21.0641 40.125 21.375C40.1168 21.6858 40.0236 21.9884 39.8555 22.25Z" fill="white"/>
</g>
<defs>
<filter id="filter0_d" x="19" y="16.5" width="47" height="50" filterUnits="userSpaceOnUse" color-interpolation-filters="sRGB">
<feFlood flood-opacity="0" result="BackgroundImageFix"/>
<feColorMatrix in="SourceAlpha" type="matrix" values="0 0 0 0 0 0 0 0 0 0 0 0 0 0 0 0 0 0 127 0"/>
<feOffset dy="0.5"/>
<feGaussianBlur stdDeviation="0.5"/>
<feColorMatrix type="matrix" values="0 0 0 0 0 0 0 0 0 0 0 0 0 0 0 0 0 0 0.15 0"/>
<feBlend mode="normal" in2="BackgroundImageFix" result="effect1_dropShadow"/>
<feBlend mode="normal" in="SourceGraphic" in2="effect1_dropShadow" result="shape"/>
</filter>
</defs>
</svg>
