<svg width="81" height="81" viewBox="0 0 81 81" fill="none" xmlns="http://www.w3.org/2000/svg">
<circle cx="40.5" cy="40.5" r="40.5" fill="#40E395"/>
<circle cx="40.5" cy="40.5" r="40.5" fill="#717171"/>
<g clip-path="url(#clip0)">
<path d="M41.875 48.875H24.375C24.1429 48.875 23.9204 48.7828 23.7563 48.6187C23.5922 48.4546 23.5 48.2321 23.5 48V33.125C23.5 32.8929 23.5922 32.6704 23.7563 32.5063C23.9204 32.3422 24.1429 32.25 24.375 32.25H48C48.2321 32.25 48.4546 32.3422 48.6187 32.5063C48.7828 32.6704 48.875 32.8929 48.875 33.125V37.3915C49.9481 36.7724 51.1417 36.3911 52.375 36.2733V25.25C52.375 24.7859 52.1906 24.3408 51.8624 24.0126C51.5343 23.6844 51.0891 23.5 50.625 23.5H46.25C46.134 23.5 46.0227 23.4539 45.9406 23.3719C45.8586 23.2898 45.8125 23.1785 45.8125 23.0625V21.3125C45.8125 20.9644 45.6742 20.6306 45.4281 20.3844C45.1819 20.1383 44.8481 20 44.5 20C44.1519 20 43.8181 20.1383 43.5719 20.3844C43.3258 20.6306 43.1875 20.9644 43.1875 21.3125V27.875C43.1875 28.0474 43.1536 28.218 43.0876 28.3773C43.0216 28.5365 42.925 28.6812 42.8031 28.8031C42.6812 28.925 42.5365 29.0216 42.3773 29.0876C42.218 29.1536 42.0474 29.1875 41.875 29.1875C41.7026 29.1875 41.532 29.1536 41.3727 29.0876C41.2135 29.0216 41.0688 28.925 40.9469 28.8031C40.825 28.6812 40.7284 28.5365 40.6624 28.3773C40.5964 28.218 40.5625 28.0474 40.5625 27.875V24.375C40.5625 24.1429 40.4703 23.9204 40.3062 23.7563C40.1421 23.5922 39.9196 23.5 39.6875 23.5H32.25C32.134 23.5 32.0227 23.4539 31.9406 23.3719C31.8586 23.2898 31.8125 23.1785 31.8125 23.0625V21.3125C31.8125 20.9644 31.6742 20.6306 31.4281 20.3844C31.1819 20.1383 30.8481 20 30.5 20C30.1519 20 29.8181 20.1383 29.5719 20.3844C29.3258 20.6306 29.1875 20.9644 29.1875 21.3125V27.875C29.1875 28.2231 29.0492 28.5569 28.8031 28.8031C28.5569 29.0492 28.2231 29.1875 27.875 29.1875C27.5269 29.1875 27.1931 29.0492 26.9469 28.8031C26.7008 28.5569 26.5625 28.2231 26.5625 27.875V24.375C26.5625 24.1429 26.4703 23.9204 26.3062 23.7563C26.1421 23.5922 25.9196 23.5 25.6875 23.5H21.75C21.2859 23.5 20.8408 23.6844 20.5126 24.0126C20.1844 24.3408 20 24.7859 20 25.25V48.875C20 49.8033 20.3687 50.6935 21.0251 51.3499C21.6815 52.0062 22.5717 52.375 23.5 52.375H41.8103V49.75C41.8113 49.4572 41.833 49.1648 41.875 48.875Z" fill="white"/>
<path d="M49.2088 50.5C49.2617 50.5339 49.3048 50.5822 49.3332 50.6398C49.3617 50.6974 49.3746 50.762 49.3703 50.8266C49.3661 50.8913 49.3451 50.9535 49.3094 51.0065C49.2737 51.0596 49.2248 51.1014 49.168 51.1275C47.6356 51.8105 46.3289 52.9481 45.4102 54.3991C44.4915 55.8502 44.0012 57.5509 44 59.2902C44 59.4784 44.0716 59.659 44.1992 59.7921C44.3267 59.9252 44.4997 60 44.68 60H60.32C60.5003 60 60.6733 59.9252 60.8008 59.7921C60.9284 59.659 61 59.4784 61 59.2902C60.9972 57.5483 60.5037 55.8457 59.5809 54.3943C58.6581 52.9429 57.3469 51.8069 55.8102 51.1275C55.7528 51.1014 55.7033 51.0594 55.6672 51.006C55.6311 50.9526 55.6098 50.8898 55.6056 50.8246C55.6013 50.7594 55.6144 50.6942 55.6433 50.6362C55.6722 50.5782 55.7159 50.5296 55.7694 50.4958C56.9824 49.7437 57.9251 48.5965 58.4525 47.2305C58.9799 45.8646 59.0627 44.3557 58.6883 42.9358C58.3139 41.5159 57.5029 40.2638 56.3802 39.372C55.2574 38.4802 53.8851 37.9982 52.4742 38C51.0634 38.0018 49.6922 38.4875 48.5716 39.3822C47.451 40.2769 46.643 41.5311 46.2719 42.9519C45.9009 44.3728 45.9873 45.8815 46.518 47.246C47.0486 48.6106 47.994 49.7554 49.2088 50.5043V50.5ZM48.76 44.7208C48.76 44.4524 48.7888 44.1848 48.8457 43.923C48.8693 43.8134 48.9175 43.7113 48.9863 43.6249C49.0551 43.5386 49.1425 43.4705 49.2414 43.4263C49.3403 43.3821 49.4479 43.363 49.5552 43.3707C49.6625 43.3783 49.7666 43.4124 49.8589 43.4701C51.1624 44.2893 52.6553 44.7217 54.1769 44.7208C54.5747 44.7204 54.972 44.6896 55.3655 44.6285C55.4718 44.6119 55.5803 44.6218 55.6822 44.6575C55.784 44.6931 55.8764 44.7534 55.9516 44.8335C56.0269 44.9135 56.0829 45.011 56.115 45.118C56.1472 45.2251 56.1546 45.3385 56.1366 45.4491C55.9638 46.3996 55.4573 47.2485 54.7164 47.8297C53.9754 48.411 53.0533 48.6826 52.1306 48.5915C51.2079 48.5004 50.3509 48.0531 49.7275 47.3372C49.1041 46.6213 48.7591 45.6883 48.76 44.7208Z" fill="white"/>
</g>
<defs>
<clipPath id="clip0">
<rect width="42" height="42" fill="white" transform="translate(20 20)"/>
</clipPath>
</defs>
</svg>
