<svg width="81" height="81" viewBox="0 0 81 81" fill="none" xmlns="http://www.w3.org/2000/svg">
<circle cx="40.5" cy="40.5" r="40.5" fill="#40E395"/>
<circle cx="40.5" cy="40.5" r="40.5" fill="#FFB169"/>
<g filter="url(#filter0_d)">
<path d="M59.2692 55.6008C58.6621 55.6336 58.0579 55.4983 57.525 55.2103C56.9921 54.9222 56.5518 54.493 56.2541 53.9711C56.2268 53.9303 56.1884 53.8979 56.1432 53.8778C56.098 53.8576 56.0479 53.8505 55.9988 53.8572C55.9497 53.864 55.9035 53.8843 55.8656 53.9159C55.8278 53.9475 55.7998 53.989 55.785 54.0356L54.12 59.2503C54.0021 59.5601 53.7895 59.8264 53.5115 60.0123C53.2334 60.1983 52.9037 60.2947 52.5676 60.2885C52.2315 60.2822 51.9057 60.1735 51.635 59.9773C51.3644 59.7811 51.1622 59.5071 51.0563 59.1931L48.6011 50.1928C48.5859 50.1368 48.552 50.0874 48.505 50.0525C48.458 50.0175 48.4005 49.9991 48.3416 50C48.2827 50.001 48.2258 50.0213 48.18 50.0577C48.1342 50.0942 48.102 50.1446 48.0887 50.2011C47.8472 51.5529 47.4208 52.8663 46.821 54.1053C46.5434 54.5988 46.1266 55.0026 45.621 55.268C45.1154 55.5333 44.5426 55.649 43.9717 55.6008H39C39.4995 58.5087 41.029 61.1485 43.3171 63.052C45.6052 64.9556 48.5042 66 51.5 66C54.4958 66 57.3948 64.9556 59.6829 63.052C61.971 61.1485 63.5005 58.5087 64 55.6008H59.2692Z" fill="white"/>
<path d="M44.0771 53.2777C45.051 53.2777 45.1312 53.2777 46.0698 49.6306C46.2844 48.7989 46.5365 47.8189 46.8562 46.669C46.9561 46.353 47.1587 46.0778 47.433 45.8856C47.7073 45.6935 48.0382 45.5949 48.375 45.6051C48.7121 45.5958 49.043 45.6956 49.3167 45.8891C49.5904 46.0827 49.7917 46.3592 49.8896 46.6762L52.3896 55.8096C52.4038 55.8633 52.4355 55.9109 52.4799 55.9452C52.5242 55.9796 52.5787 55.9988 52.6351 55.9999C52.6916 56.0011 52.7468 55.9841 52.7926 55.9516C52.8383 55.9191 52.872 55.8729 52.8885 55.8199L54.2906 51.4363C54.3934 51.1482 54.5826 50.8974 54.8332 50.7168C55.0838 50.5363 55.3841 50.4344 55.6948 50.4245C55.996 50.4018 56.2976 50.4643 56.5639 50.6044C56.8302 50.7445 57.0502 50.9564 57.1979 51.2153C57.3021 51.4138 57.4062 51.6071 57.4948 51.7933C58.1 52.9912 58.276 53.2746 59.1615 53.2746H64C63.9996 50.0188 62.6822 46.8965 60.3377 44.5945C57.9932 42.2926 54.8136 40.9996 51.4984 41C48.1832 41.0004 45.004 42.2942 42.6601 44.5967C40.3161 46.8992 38.9996 50.0218 39 53.2777H44.0771Z" fill="white"/>
<path d="M55.75 19H24.25C22.8576 19 21.5223 19.5531 20.5377 20.5377C19.5531 21.5223 19 22.8576 19 24.25V49.625C19 51.0174 19.5531 52.3527 20.5377 53.3373C21.5223 54.3219 22.8576 54.875 24.25 54.875H35.625C36.0891 54.875 36.5342 54.6906 36.8624 54.3624C37.1906 54.0342 37.375 53.5891 37.375 53.125C37.375 52.6609 37.1906 52.2158 36.8624 51.8876C36.5342 51.5594 36.0891 51.375 35.625 51.375H24.25C23.7859 51.375 23.3408 51.1906 23.0126 50.8624C22.6844 50.5343 22.5 50.0891 22.5 49.625V28.1892C22.4998 28.1316 22.5109 28.0746 22.5328 28.0213C22.5547 27.968 22.5869 27.9196 22.6275 27.8788C22.6682 27.8379 22.7165 27.8056 22.7697 27.7835C22.8229 27.7614 22.8799 27.75 22.9375 27.75H57.0625C57.1785 27.75 57.2898 27.7961 57.3719 27.8781C57.4539 27.9602 57.5 28.0715 57.5 28.1875V38.25C57.5 38.7141 57.6844 39.1592 58.0126 39.4874C58.3408 39.8156 58.7859 40 59.25 40C59.7141 40 60.1592 39.8156 60.4874 39.4874C60.8156 39.1592 61 38.7141 61 38.25V24.25C61 22.8576 60.4469 21.5223 59.4623 20.5377C58.4777 19.5531 57.1424 19 55.75 19V19ZM26.6055 24.25C26.4595 24.5149 26.2451 24.7357 25.9847 24.8895C25.7243 25.0433 25.4274 25.1245 25.125 25.1245C24.8226 25.1245 24.5257 25.0433 24.2653 24.8895C24.0049 24.7357 23.7905 24.5149 23.6445 24.25C23.4764 23.9884 23.3832 23.6858 23.375 23.375C23.3768 23.1276 23.4317 22.8836 23.536 22.6593C23.6735 22.3524 23.8965 22.0917 24.1783 21.9083C24.4601 21.7249 24.7888 21.6265 25.125 21.625C25.4269 21.6281 25.7226 21.7106 25.9824 21.8642C26.2423 22.0178 26.4572 22.2371 26.6055 22.5C26.7739 22.7614 26.8671 23.0641 26.875 23.375C26.8668 23.6858 26.7736 23.9884 26.6055 24.25ZM32.7305 24.25C32.5845 24.5149 32.3701 24.7357 32.1097 24.8895C31.8493 25.0433 31.5524 25.1245 31.25 25.1245C30.9476 25.1245 30.6507 25.0433 30.3903 24.8895C30.1299 24.7357 29.9155 24.5149 29.7695 24.25C29.6014 23.9884 29.5082 23.6858 29.5 23.375C29.5079 23.0641 29.6011 22.7614 29.7695 22.5C29.9155 22.2351 30.1299 22.0143 30.3903 21.8605C30.6507 21.7067 30.9476 21.6255 31.25 21.6255C31.5524 21.6255 31.8493 21.7067 32.1097 21.8605C32.3701 22.0143 32.5845 22.2351 32.7305 22.5C32.8989 22.7614 32.9921 23.0641 33 23.375C32.9918 23.6858 32.8986 23.9884 32.7305 24.25ZM38.8555 24.25C38.7095 24.5149 38.4951 24.7357 38.2347 24.8895C37.9743 25.0433 37.6774 25.1245 37.375 25.1245C37.0726 25.1245 36.7757 25.0433 36.5153 24.8895C36.2549 24.7357 36.0405 24.5149 35.8945 24.25C35.7264 23.9884 35.6332 23.6858 35.625 23.375C35.6329 23.0641 35.7261 22.7614 35.8945 22.5C36.0405 22.2351 36.2549 22.0143 36.5153 21.8605C36.7757 21.7067 37.0726 21.6255 37.375 21.6255C37.6774 21.6255 37.9743 21.7067 38.2347 21.8605C38.4951 22.0143 38.7095 22.2351 38.8555 22.5C39.0239 22.7614 39.1171 23.0641 39.125 23.375C39.1168 23.6858 39.0236 23.9884 38.8555 24.25Z" fill="white"/>
</g>
<defs>
<filter id="filter0_d" x="18" y="18.5" width="47" height="49" filterUnits="userSpaceOnUse" color-interpolation-filters="sRGB">
<feFlood flood-opacity="0" result="BackgroundImageFix"/>
<feColorMatrix in="SourceAlpha" type="matrix" values="0 0 0 0 0 0 0 0 0 0 0 0 0 0 0 0 0 0 127 0"/>
<feOffset dy="0.5"/>
<feGaussianBlur stdDeviation="0.5"/>
<feColorMatrix type="matrix" values="0 0 0 0 0 0 0 0 0 0 0 0 0 0 0 0 0 0 0.15 0"/>
<feBlend mode="normal" in2="BackgroundImageFix" result="effect1_dropShadow"/>
<feBlend mode="normal" in="SourceGraphic" in2="effect1_dropShadow" result="shape"/>
</filter>
</defs>
</svg>
