<svg width="81" height="81" viewBox="0 0 81 81" fill="none" xmlns="http://www.w3.org/2000/svg">
<circle cx="40.5" cy="40.5" r="40.5" fill="#40E395"/>
<circle cx="40.5" cy="40.5" r="40.5" fill="#C18AFF"/>
<path d="M44.8015 42.3002C44.8889 42.3001 44.9742 42.2738 45.0465 42.2247C45.1187 42.1756 45.1747 42.106 45.2071 42.0249C45.2394 41.9438 45.2468 41.8548 45.2281 41.7694C45.2095 41.6841 45.1658 41.6063 45.1025 41.546C43.7447 40.2408 42.1193 39.2466 40.339 38.6322C42.3315 37.6413 43.9293 36.0042 44.8715 33.9881C45.8138 31.9721 46.0449 29.6963 45.5271 27.532C45.0093 25.3677 43.7732 23.4429 42.0206 22.0716C40.268 20.7003 38.1023 19.9636 35.877 19.9816C33.6518 19.9997 31.4983 20.7715 29.7682 22.1711C28.038 23.5706 26.8334 25.5153 26.3508 27.6877C25.8683 29.8601 26.1363 32.1319 27.1112 34.1324C28.086 36.1328 29.7102 37.7437 31.7185 38.7022C29.1705 39.612 26.9656 41.2864 25.4051 43.4965C23.8446 45.7066 23.0047 48.3447 23 51.0502C23 51.2823 23.0922 51.5049 23.2563 51.669C23.4204 51.8331 23.6429 51.9252 23.875 51.9252H38.75C38.9821 51.9252 39.2046 51.8331 39.3687 51.669C39.5328 51.5049 39.625 51.2823 39.625 51.0502V45.8002C39.625 44.872 39.9937 43.9817 40.6501 43.3254C41.3065 42.669 42.1967 42.3002 43.125 42.3002H44.8015ZM37.4375 46.4565C37.4375 46.8046 37.2992 47.1384 37.0531 47.3846C36.8069 47.6307 36.4731 47.769 36.125 47.769C35.7769 47.769 35.4431 47.6307 35.1969 47.3846C34.9508 47.1384 34.8125 46.8046 34.8125 46.4565V43.5602C34.8125 43.2121 34.9508 42.8783 35.1969 42.6322C35.4431 42.386 35.7769 42.2477 36.125 42.2477C36.4731 42.2477 36.8069 42.386 37.0531 42.6322C37.2992 42.8783 37.4375 43.2121 37.4375 43.5602V46.4565ZM35.95 36.1752C34.2704 36.172 32.6606 35.503 31.4734 34.3148C30.2863 33.1267 29.6186 31.5163 29.6167 29.8367C29.6205 29.0148 29.7889 28.202 30.112 27.4462C30.139 27.3865 30.1789 27.3335 30.2289 27.2912C30.2789 27.2488 30.3378 27.2182 30.4011 27.2014C30.4645 27.1847 30.5308 27.1822 30.5952 27.1943C30.6596 27.2064 30.7205 27.2327 30.7735 27.2712C33.0584 28.9442 35.8166 29.8464 38.6485 29.8472C39.7103 29.8444 40.7679 29.714 41.7985 29.4587C41.8571 29.4442 41.9182 29.4434 41.9771 29.4565C42.036 29.4695 42.0911 29.4961 42.138 29.534C42.1855 29.5709 42.2239 29.6181 42.2503 29.6721C42.2766 29.7261 42.2903 29.7854 42.2902 29.8455C42.2861 31.5248 41.6164 33.134 40.428 34.3204C39.2396 35.5069 37.6293 36.1739 35.95 36.1752Z" fill="white"/>
<path d="M60 46.3415C60 45.7205 59.7498 45.1249 59.3044 44.6858C58.859 44.2467 58.2549 44 57.625 44H43.375C42.7451 44 42.141 44.2467 41.6956 44.6858C41.2502 45.1249 41 45.7205 41 46.3415V57.6585C41 58.2795 41.2502 58.8751 41.6956 59.3142C42.141 59.7533 42.7451 60 43.375 60H57.625C58.2549 60 58.859 59.7533 59.3044 59.3142C59.7498 58.8751 60 58.2795 60 57.6585V46.3415ZM48.6428 45.561C48.7088 45.4428 48.8058 45.3443 48.9236 45.2758C49.0414 45.2072 49.1757 45.171 49.3125 45.171C49.4493 45.171 49.5836 45.2072 49.7014 45.2758C49.8192 45.3443 49.9162 45.4428 49.9823 45.561C50.0584 45.6776 50.1006 45.8126 50.1042 45.9512C50.1005 46.0898 50.0583 46.2248 49.9823 46.3415C49.9162 46.4596 49.8192 46.5581 49.7014 46.6267C49.5836 46.6953 49.4493 46.7315 49.3125 46.7315C49.1757 46.7315 49.0414 46.6953 48.9236 46.6267C48.8058 46.5581 48.7088 46.4596 48.6428 46.3415C48.5667 46.2248 48.5245 46.0898 48.5208 45.9512C48.5244 45.8126 48.5666 45.6776 48.6428 45.561ZM45.8719 45.561C45.938 45.4428 46.0349 45.3443 46.1527 45.2758C46.2705 45.2072 46.4049 45.171 46.5417 45.171C46.6785 45.171 46.8128 45.2072 46.9306 45.2758C47.0484 45.3443 47.1454 45.4428 47.2114 45.561C47.2876 45.6776 47.3298 45.8126 47.3333 45.9512C47.3296 46.0898 47.2875 46.2248 47.2114 46.3415C47.1454 46.4596 47.0484 46.5581 46.9306 46.6267C46.8128 46.6953 46.6785 46.7315 46.5417 46.7315C46.4049 46.7315 46.2705 46.6953 46.1527 46.6267C46.0349 46.5581 45.938 46.4596 45.8719 46.3415C45.7959 46.2248 45.7537 46.0898 45.75 45.9512C45.7536 45.8126 45.7958 45.6776 45.8719 45.561ZM43.052 45.632C43.1142 45.4952 43.2151 45.3789 43.3426 45.2971C43.47 45.2153 43.6187 45.1714 43.7708 45.1707C43.9074 45.1721 44.0412 45.2089 44.1587 45.2774C44.2763 45.3459 44.3735 45.4437 44.4406 45.561C44.5167 45.6776 44.5589 45.8126 44.5625 45.9512C44.5588 46.0898 44.5166 46.2248 44.4406 46.3415C44.3745 46.4596 44.2776 46.5581 44.1598 46.6267C44.042 46.6953 43.9076 46.7315 43.7708 46.7315C43.634 46.7315 43.4997 46.6953 43.3819 46.6267C43.2641 46.5581 43.1671 46.4596 43.1011 46.3415C43.025 46.2248 42.9829 46.0898 42.9792 45.9512C42.98 45.8409 43.0048 45.732 43.052 45.632ZM58.4167 57.6585C58.4167 57.8655 58.3333 58.0641 58.1848 58.2104C58.0363 58.3568 57.835 58.439 57.625 58.439H43.375C43.165 58.439 42.9637 58.3568 42.8152 58.2104C42.6667 58.0641 42.5833 57.8655 42.5833 57.6585V48.0968C42.5833 48.045 42.6042 47.9954 42.6413 47.9588C42.6784 47.9222 42.7288 47.9017 42.7812 47.9017H58.2188C58.2712 47.9017 58.3216 47.9222 58.3587 47.9588C58.3958 47.9954 58.4167 48.045 58.4167 48.0968V57.6585Z" fill="white"/>
</svg>
