<svg width="81" height="81" viewBox="0 0 81 81" fill="none" xmlns="http://www.w3.org/2000/svg">
<circle cx="40.5" cy="40.5" r="40.5" fill="#40E395"/>
<circle cx="40.5" cy="40.5" r="40.5" fill="#5AA6FF"/>
<g clip-path="url(#clip0)">
<path d="M45.3242 34.7L44.6242 34.4533C44.5601 34.4304 44.5022 34.3928 44.4551 34.3436C44.408 34.2944 44.373 34.2349 44.353 34.1698C44.2225 33.6093 44.2147 33.0273 44.3302 32.4635C44.3482 32.3984 44.3811 32.3385 44.4265 32.2885C45.1804 31.4563 45.754 30.4771 46.1112 29.4124C46.4683 28.3478 46.6014 27.2208 46.502 26.1023C46.566 25.335 46.4721 24.5628 46.2261 23.8332C45.98 23.1037 45.5871 22.4323 45.0716 21.8605C44.556 21.2887 43.9287 20.8286 43.2284 20.5086C42.5282 20.1886 41.7698 20.0155 41 20C40.1851 19.9981 39.3809 20.1862 38.6515 20.5495C38.5953 20.5766 38.5455 20.6154 38.5055 20.6634C38.4656 20.7113 38.4363 20.7672 38.4197 20.8274C38.4032 20.8876 38.3996 20.9506 38.4094 21.0122C38.4192 21.0739 38.4421 21.1327 38.4765 21.1848C39.4476 22.6388 39.9608 24.3503 39.95 26.0988C40.0702 28.3277 39.5073 30.5403 38.3365 32.4408C38.3002 32.4957 38.2768 32.558 38.268 32.6232C38.2591 32.6884 38.2651 32.7547 38.2854 32.8173C38.3058 32.8799 38.34 32.937 38.3855 32.9846C38.431 33.0321 38.4866 33.0687 38.5482 33.0918C43.7982 35.0535 44.941 36.5918 45.2682 37.2708C45.3155 37.3685 45.3973 37.4451 45.4979 37.4859C45.5985 37.5266 45.7106 37.5286 45.8125 37.4913C46.6835 37.1708 47.5847 36.9392 48.5022 36.8C48.5963 36.7858 48.6832 36.7413 48.7497 36.6732C48.8162 36.6052 48.8587 36.5173 48.8707 36.4229C48.8828 36.3286 48.8638 36.2328 48.8166 36.1502C48.7693 36.0677 48.6965 36.0027 48.609 35.9653C47.65 35.5575 46.5527 35.1498 45.3242 34.7Z" fill="white"/>
<path d="M57.6476 52.2508C57.0892 52.2815 56.5333 52.1547 56.043 51.8846C55.5527 51.6146 55.1477 51.2122 54.8737 50.723C54.8487 50.6847 54.8133 50.6543 54.7717 50.6354C54.7302 50.6165 54.6841 50.6098 54.6389 50.6162C54.5937 50.6225 54.5512 50.6416 54.5164 50.6712C54.4816 50.7008 54.4558 50.7397 54.4422 50.7834L52.9104 55.6721C52.8019 55.9626 52.6063 56.2122 52.3506 56.3866C52.0948 56.5609 51.7914 56.6513 51.4822 56.6454C51.173 56.6396 50.8733 56.5376 50.6242 56.3537C50.3752 56.1698 50.1892 55.9129 50.0918 55.6185L47.833 47.1807C47.819 47.1282 47.7879 47.0819 47.7446 47.0492C47.7014 47.0164 47.6484 46.9991 47.5943 47C47.5401 47.0009 47.4878 47.02 47.4456 47.0541C47.4034 47.0883 47.3739 47.1356 47.3616 47.1885C47.1394 48.4559 46.7471 49.6871 46.1953 50.8487C45.9399 51.3113 45.5565 51.6899 45.0913 51.9387C44.6262 52.1875 44.0992 52.2959 43.574 52.2508H39C39.4596 54.9769 40.8666 57.4517 42.9717 59.2363C45.0768 61.0209 47.7439 62 50.5 62C53.2561 62 55.9232 61.0209 58.0283 59.2363C60.1334 57.4517 61.5404 54.9769 62 52.2508H57.6476Z" fill="white"/>
<path d="M43.6709 50.4592C44.567 50.4592 44.6407 50.4592 45.5042 47.0553C45.7016 46.279 45.9335 45.3643 46.2277 44.2911C46.3196 43.9961 46.506 43.7393 46.7584 43.5599C47.0107 43.3806 47.3152 43.2886 47.625 43.2981C47.9352 43.2894 48.2396 43.3825 48.4914 43.5632C48.7432 43.7438 48.9284 44.0019 49.0184 44.2978L51.3184 52.8223C51.3315 52.8724 51.3607 52.9168 51.4015 52.9489C51.4422 52.9809 51.4924 52.9989 51.5443 52.9999C51.5962 53.001 51.6471 52.9852 51.6892 52.9549C51.7313 52.9245 51.7622 52.8814 51.7775 52.8319L53.0674 48.7405C53.162 48.4716 53.336 48.2376 53.5665 48.069C53.7971 47.9005 54.0734 47.8054 54.3592 47.7962C54.6364 47.7751 54.9138 47.8333 55.1588 47.9641C55.4038 48.0948 55.6062 48.2927 55.7421 48.5343C55.8379 48.7195 55.9337 48.9 56.0152 49.0737C56.572 50.1918 56.734 50.4563 57.5485 50.4563H62C61.9996 47.4175 60.7876 44.5034 58.6307 42.3549C56.4738 40.2064 53.5486 38.9996 50.4986 39C47.4486 39.0004 44.5237 40.2079 42.3673 42.3569C40.2109 44.5059 38.9996 47.4204 39 50.4592H43.6709Z" fill="white"/>
<path d="M43.1304 38.8545C43.1772 38.8207 43.2168 38.7779 43.2468 38.7286C43.2769 38.6793 43.2968 38.6246 43.3054 38.5675C43.3151 38.5096 43.3132 38.4504 43.2997 38.3933C43.2861 38.3362 43.2613 38.2823 43.2266 38.235C41.6761 36.135 35.4164 34.2905 35.8644 34.4497C35.8028 34.4266 35.7472 34.3899 35.7018 34.3424C35.6563 34.2948 35.6222 34.2376 35.6019 34.175C35.4672 33.6124 35.4564 33.0272 35.5704 32.46C35.5883 32.3949 35.6213 32.335 35.6666 32.285C36.4205 31.4528 36.9941 30.4735 37.3513 29.4089C37.7085 28.3443 37.8416 27.2173 37.7421 26.0987C37.8056 25.3322 37.7115 24.5608 37.4656 23.832C37.2196 23.1032 36.8271 22.4325 36.3121 21.8611C35.7972 21.2898 35.1707 20.8299 34.4713 20.5098C33.7719 20.1898 33.0144 20.0162 32.2454 20C31.4757 20.0151 30.7172 20.1877 30.0167 20.5073C29.3163 20.8268 28.6888 21.2865 28.1729 21.858C27.657 22.4295 27.2637 23.1006 27.0172 23.83C26.7708 24.5594 26.6764 25.3315 26.7399 26.0987C26.6375 27.2095 26.766 28.3294 27.1175 29.388C27.469 30.4467 28.0357 31.4211 28.7821 32.25C28.8208 32.2927 28.8506 32.3427 28.8696 32.397C29.0116 32.9621 29.0307 33.5511 28.9256 34.1242C28.9097 34.1953 28.8761 34.2611 28.8281 34.3158C28.7801 34.3706 28.7192 34.4124 28.6509 34.4375L27.9211 34.7C24.4089 35.9897 21.8714 36.9225 21.0769 38.5097C20.3789 40.1257 20.0112 41.8649 19.9954 43.625C19.9954 43.8571 20.0876 44.0796 20.2517 44.2437C20.4158 44.4078 20.6383 44.5 20.8704 44.5H37.7806C37.8612 44.4998 37.9402 44.4775 38.009 44.4355C38.0778 44.3935 38.1338 44.3335 38.1709 44.262C39.3131 42.0501 41.0253 40.1833 43.1304 38.8545Z" fill="white"/>
</g>
<defs>
<clipPath id="clip0">
<rect width="42" height="42" fill="white" transform="translate(20 20)"/>
</clipPath>
</defs>
</svg>
