<svg width="81" height="81" viewBox="0 0 81 81" fill="none" xmlns="http://www.w3.org/2000/svg">
<circle cx="40.5" cy="40.5" r="40.5" fill="#40E395"/>
<circle cx="40.5" cy="40.5" r="40.5" fill="#57E1FF"/>
<g filter="url(#filter0_d)">
<path d="M60.2692 54.6008C59.6621 54.6336 59.0579 54.4983 58.525 54.2103C57.9921 53.9222 57.5518 53.493 57.2541 52.9711C57.2268 52.9303 57.1884 52.8979 57.1432 52.8778C57.098 52.8576 57.0479 52.8505 56.9988 52.8572C56.9497 52.864 56.9035 52.8843 56.8656 52.9159C56.8278 52.9475 56.7998 52.989 56.785 53.0356L55.12 58.2503C55.0021 58.5601 54.7895 58.8264 54.5115 59.0123C54.2334 59.1983 53.9037 59.2947 53.5676 59.2885C53.2315 59.2822 52.9057 59.1735 52.635 58.9773C52.3644 58.7811 52.1622 58.5071 52.0563 58.1931L49.6011 49.1928C49.5859 49.1368 49.552 49.0874 49.505 49.0525C49.458 49.0175 49.4005 48.9991 49.3416 49C49.2827 49.001 49.2258 49.0213 49.18 49.0577C49.1342 49.0942 49.102 49.1446 49.0887 49.2011C48.8472 50.5529 48.4208 51.8663 47.821 53.1053C47.5434 53.5988 47.1266 54.0026 46.621 54.268C46.1154 54.5333 45.5426 54.649 44.9717 54.6008H40C40.4995 57.5087 42.029 60.1485 44.3171 62.052C46.6052 63.9556 49.5042 65 52.5 65C55.4958 65 58.3948 63.9556 60.6829 62.052C62.971 60.1485 64.5005 57.5087 65 54.6008H60.2692Z" fill="white"/>
<path d="M45.0771 52.2777C46.051 52.2777 46.1312 52.2777 47.0698 48.6306C47.2844 47.7989 47.5365 46.8189 47.8562 45.669C47.9561 45.353 48.1587 45.0778 48.433 44.8856C48.7073 44.6935 49.0382 44.5949 49.375 44.6051C49.7121 44.5958 50.043 44.6956 50.3167 44.8891C50.5904 45.0827 50.7917 45.3592 50.8896 45.6762L53.3896 54.8096C53.4038 54.8633 53.4355 54.9109 53.4799 54.9452C53.5242 54.9796 53.5787 54.9988 53.6351 54.9999C53.6916 55.0011 53.7468 54.9841 53.7926 54.9516C53.8383 54.9191 53.872 54.8729 53.8885 54.8199L55.2906 50.4363C55.3934 50.1482 55.5826 49.8974 55.8332 49.7168C56.0838 49.5363 56.3841 49.4344 56.6948 49.4245C56.996 49.4018 57.2976 49.4643 57.5639 49.6044C57.8302 49.7445 58.0502 49.9564 58.1979 50.2153C58.3021 50.4138 58.4062 50.6071 58.4948 50.7933C59.1 51.9912 59.276 52.2746 60.1615 52.2746H65C64.9996 49.0188 63.6822 45.8965 61.3377 43.5945C58.9932 41.2926 55.8136 39.9996 52.4984 40C49.1832 40.0004 46.004 41.2942 43.6601 43.5967C41.3161 45.8992 39.9996 49.0218 40 52.2777H45.0771Z" fill="white"/>
<path d="M56.75 18H25.25C23.8576 18 22.5223 18.5531 21.5377 19.5377C20.5531 20.5223 20 21.8576 20 23.25V48.625C20 50.0174 20.5531 51.3527 21.5377 52.3373C22.5223 53.3219 23.8576 53.875 25.25 53.875H36.625C37.0891 53.875 37.5342 53.6906 37.8624 53.3624C38.1906 53.0342 38.375 52.5891 38.375 52.125C38.375 51.6609 38.1906 51.2158 37.8624 50.8876C37.5342 50.5594 37.0891 50.375 36.625 50.375H25.25C24.7859 50.375 24.3408 50.1906 24.0126 49.8624C23.6844 49.5343 23.5 49.0891 23.5 48.625V27.1892C23.4998 27.1316 23.5109 27.0746 23.5328 27.0213C23.5547 26.968 23.5869 26.9196 23.6275 26.8788C23.6682 26.8379 23.7165 26.8056 23.7697 26.7835C23.8229 26.7614 23.8799 26.75 23.9375 26.75H58.0625C58.1785 26.75 58.2898 26.7961 58.3719 26.8781C58.4539 26.9602 58.5 27.0715 58.5 27.1875V37.25C58.5 37.7141 58.6844 38.1592 59.0126 38.4874C59.3408 38.8156 59.7859 39 60.25 39C60.7141 39 61.1592 38.8156 61.4874 38.4874C61.8156 38.1592 62 37.7141 62 37.25V23.25C62 21.8576 61.4469 20.5223 60.4623 19.5377C59.4777 18.5531 58.1424 18 56.75 18V18ZM27.6055 23.25C27.4595 23.5149 27.2451 23.7357 26.9847 23.8895C26.7243 24.0433 26.4274 24.1245 26.125 24.1245C25.8226 24.1245 25.5257 24.0433 25.2653 23.8895C25.0049 23.7357 24.7905 23.5149 24.6445 23.25C24.4764 22.9884 24.3832 22.6858 24.375 22.375C24.3768 22.1276 24.4317 21.8836 24.536 21.6593C24.6735 21.3524 24.8965 21.0917 25.1783 20.9083C25.4601 20.7249 25.7888 20.6265 26.125 20.625C26.4269 20.6281 26.7226 20.7106 26.9824 20.8642C27.2423 21.0178 27.4572 21.2371 27.6055 21.5C27.7739 21.7614 27.8671 22.0641 27.875 22.375C27.8668 22.6858 27.7736 22.9884 27.6055 23.25ZM33.7305 23.25C33.5845 23.5149 33.3701 23.7357 33.1097 23.8895C32.8493 24.0433 32.5524 24.1245 32.25 24.1245C31.9476 24.1245 31.6507 24.0433 31.3903 23.8895C31.1299 23.7357 30.9155 23.5149 30.7695 23.25C30.6014 22.9884 30.5082 22.6858 30.5 22.375C30.5079 22.0641 30.6011 21.7614 30.7695 21.5C30.9155 21.2351 31.1299 21.0143 31.3903 20.8605C31.6507 20.7067 31.9476 20.6255 32.25 20.6255C32.5524 20.6255 32.8493 20.7067 33.1097 20.8605C33.3701 21.0143 33.5845 21.2351 33.7305 21.5C33.8989 21.7614 33.9921 22.0641 34 22.375C33.9918 22.6858 33.8986 22.9884 33.7305 23.25ZM39.8555 23.25C39.7095 23.5149 39.4951 23.7357 39.2347 23.8895C38.9743 24.0433 38.6774 24.1245 38.375 24.1245C38.0726 24.1245 37.7757 24.0433 37.5153 23.8895C37.2549 23.7357 37.0405 23.5149 36.8945 23.25C36.7264 22.9884 36.6332 22.6858 36.625 22.375C36.6329 22.0641 36.7261 21.7614 36.8945 21.5C37.0405 21.2351 37.2549 21.0143 37.5153 20.8605C37.7757 20.7067 38.0726 20.6255 38.375 20.6255C38.6774 20.6255 38.9743 20.7067 39.2347 20.8605C39.4951 21.0143 39.7095 21.2351 39.8555 21.5C40.0239 21.7614 40.1171 22.0641 40.125 22.375C40.1168 22.6858 40.0236 22.9884 39.8555 23.25Z" fill="white"/>
</g>
<defs>
<filter id="filter0_d" x="19" y="17.5" width="47" height="49" filterUnits="userSpaceOnUse" color-interpolation-filters="sRGB">
<feFlood flood-opacity="0" result="BackgroundImageFix"/>
<feColorMatrix in="SourceAlpha" type="matrix" values="0 0 0 0 0 0 0 0 0 0 0 0 0 0 0 0 0 0 127 0"/>
<feOffset dy="0.5"/>
<feGaussianBlur stdDeviation="0.5"/>
<feColorMatrix type="matrix" values="0 0 0 0 0 0 0 0 0 0 0 0 0 0 0 0 0 0 0.15 0"/>
<feBlend mode="normal" in2="BackgroundImageFix" result="effect1_dropShadow"/>
<feBlend mode="normal" in="SourceGraphic" in2="effect1_dropShadow" result="shape"/>
</filter>
</defs>
</svg>
