<svg width="81" height="81" viewBox="0 0 81 81" fill="none" xmlns="http://www.w3.org/2000/svg">
<circle cx="40.5" cy="40.5" r="40.5" fill="#40E395"/>
<circle cx="40.5" cy="40.5" r="40.5" fill="#859BA9"/>
<g clip-path="url(#clip0)">
<path d="M44.3242 34.7L43.6242 34.4533C43.5601 34.4304 43.5021 34.3928 43.455 34.3436C43.408 34.2944 43.373 34.2349 43.353 34.1698C43.2224 33.6093 43.2147 33.0273 43.3302 32.4635C43.3482 32.3984 43.3811 32.3385 43.4265 32.2885C44.1804 31.4563 44.754 30.4771 45.1111 29.4124C45.4683 28.3478 45.6014 27.2208 45.502 26.1023C45.566 25.335 45.4721 24.5628 45.226 23.8332C44.98 23.1037 44.5871 22.4323 44.0715 21.8605C43.556 21.2887 42.9287 20.8286 42.2284 20.5086C41.5282 20.1886 40.7697 20.0155 40 20C39.1851 19.9981 38.3809 20.1862 37.6515 20.5495C37.5953 20.5766 37.5455 20.6154 37.5055 20.6634C37.4656 20.7113 37.4363 20.7672 37.4197 20.8274C37.4031 20.8876 37.3996 20.9506 37.4094 21.0122C37.4192 21.0739 37.4421 21.1327 37.4765 21.1848C38.4476 22.6388 38.9608 24.3503 38.95 26.0988C39.0702 28.3277 38.5073 30.5403 37.3365 32.4408C37.3002 32.4957 37.2768 32.558 37.2679 32.6232C37.2591 32.6884 37.2651 32.7547 37.2854 32.8173C37.3058 32.8799 37.34 32.937 37.3855 32.9846C37.431 33.0321 37.4866 33.0687 37.5482 33.0918C42.7982 35.0535 43.941 36.5918 44.2682 37.2708C44.3154 37.3685 44.3973 37.4451 44.4979 37.4859C44.5984 37.5266 44.7106 37.5286 44.8125 37.4913C45.6835 37.1708 46.5846 36.9392 47.5022 36.8C47.5963 36.7858 47.6832 36.7413 47.7497 36.6732C47.8162 36.6052 47.8587 36.5173 47.8707 36.4229C47.8828 36.3286 47.8638 36.2328 47.8165 36.1502C47.7693 36.0677 47.6964 36.0027 47.609 35.9653C46.65 35.5575 45.5527 35.1498 44.3242 34.7Z" fill="white"/>
<path d="M56.6476 52.2508C56.0892 52.2815 55.5333 52.1547 55.043 51.8846C54.5527 51.6146 54.1477 51.2122 53.8737 50.723C53.8487 50.6847 53.8133 50.6543 53.7717 50.6354C53.7302 50.6165 53.6841 50.6098 53.6389 50.6162C53.5937 50.6225 53.5512 50.6416 53.5164 50.6712C53.4816 50.7008 53.4558 50.7397 53.4422 50.7834L51.9104 55.6721C51.8019 55.9626 51.6063 56.2122 51.3506 56.3866C51.0948 56.5609 50.7914 56.6513 50.4822 56.6454C50.173 56.6396 49.8733 56.5376 49.6242 56.3537C49.3752 56.1698 49.1892 55.9129 49.0918 55.6185L46.833 47.1807C46.819 47.1282 46.7879 47.0819 46.7446 47.0492C46.7014 47.0164 46.6484 46.9991 46.5943 47C46.5401 47.0009 46.4878 47.02 46.4456 47.0541C46.4034 47.0883 46.3739 47.1356 46.3616 47.1885C46.1394 48.4559 45.7471 49.6871 45.1953 50.8487C44.9399 51.3113 44.5565 51.6899 44.0913 51.9387C43.6262 52.1875 43.0992 52.2959 42.574 52.2508H38C38.4596 54.9769 39.8666 57.4517 41.9717 59.2363C44.0768 61.0209 46.7439 62 49.5 62C52.2561 62 54.9232 61.0209 57.0283 59.2363C59.1334 57.4517 60.5404 54.9769 61 52.2508H56.6476Z" fill="white"/>
<path d="M42.6709 50.4592C43.567 50.4592 43.6407 50.4592 44.5042 47.0553C44.7016 46.279 44.9335 45.3643 45.2277 44.2911C45.3196 43.9961 45.506 43.7393 45.7584 43.5599C46.0107 43.3806 46.3152 43.2886 46.625 43.2981C46.9352 43.2894 47.2396 43.3825 47.4914 43.5632C47.7432 43.7438 47.9284 44.0019 48.0184 44.2978L50.3184 52.8223C50.3315 52.8724 50.3607 52.9168 50.4015 52.9489C50.4422 52.9809 50.4924 52.9989 50.5443 52.9999C50.5962 53.001 50.6471 52.9852 50.6892 52.9549C50.7313 52.9245 50.7622 52.8814 50.7775 52.8319L52.0674 48.7405C52.162 48.4716 52.336 48.2376 52.5665 48.069C52.7971 47.9005 53.0734 47.8054 53.3592 47.7962C53.6364 47.7751 53.9138 47.8333 54.1588 47.9641C54.4038 48.0948 54.6062 48.2927 54.7421 48.5343C54.8379 48.7195 54.9337 48.9 55.0152 49.0737C55.572 50.1918 55.734 50.4563 56.5485 50.4563H61C60.9996 47.4175 59.7876 44.5034 57.6307 42.3549C55.4738 40.2064 52.5486 38.9996 49.4986 39C46.4486 39.0004 43.5237 40.2079 41.3673 42.3569C39.2109 44.5059 37.9996 47.4204 38 50.4592H42.6709Z" fill="white"/>
<path d="M42.1304 38.8545C42.1772 38.8207 42.2167 38.7779 42.2468 38.7286C42.2768 38.6793 42.2967 38.6246 42.3054 38.5675C42.3151 38.5096 42.3132 38.4504 42.2996 38.3933C42.2861 38.3362 42.2613 38.2823 42.2266 38.235C40.6761 36.135 34.4164 34.2905 34.8644 34.4497C34.8028 34.4266 34.7472 34.3899 34.7017 34.3424C34.6563 34.2948 34.6221 34.2376 34.6019 34.175C34.4672 33.6124 34.4564 33.0272 34.5704 32.46C34.5883 32.3949 34.6213 32.335 34.6666 32.285C35.4205 31.4528 35.9941 30.4735 36.3513 29.4089C36.7085 28.3443 36.8415 27.2173 36.7421 26.0987C36.8056 25.3322 36.7115 24.5608 36.4655 23.832C36.2196 23.1032 35.8271 22.4325 35.3121 21.8611C34.7972 21.2898 34.1707 20.8299 33.4713 20.5098C32.7719 20.1898 32.0144 20.0162 31.2454 20C30.4756 20.0151 29.7171 20.1877 29.0167 20.5073C28.3163 20.8268 27.6888 21.2865 27.1729 21.858C26.657 22.4295 26.2637 23.1006 26.0172 23.83C25.7707 24.5594 25.6764 25.3315 25.7399 26.0987C25.6374 27.2095 25.766 28.3294 26.1175 29.388C26.4689 30.4467 27.0357 31.4211 27.7821 32.25C27.8208 32.2927 27.8505 32.3427 27.8696 32.397C28.0115 32.9621 28.0306 33.5511 27.9256 34.1242C27.9096 34.1953 27.8761 34.2611 27.8281 34.3158C27.7801 34.3706 27.7192 34.4124 27.6509 34.4375L26.9211 34.7C23.4089 35.9897 20.8714 36.9225 20.0769 38.5097C19.3789 40.1257 19.0112 41.8649 18.9954 43.625C18.9954 43.8571 19.0875 44.0796 19.2516 44.2437C19.4157 44.4078 19.6383 44.5 19.8704 44.5H36.7806C36.8612 44.4998 36.9402 44.4775 37.009 44.4355C37.0778 44.3935 37.1338 44.3335 37.1709 44.262C38.3131 42.0501 40.0252 40.1833 42.1304 38.8545Z" fill="white"/>
</g>
<defs>
<clipPath id="clip0">
<rect width="42" height="42" fill="white" transform="translate(19 20)"/>
</clipPath>
</defs>
</svg>
