<svg width="81" height="81" viewBox="0 0 81 81" fill="none" xmlns="http://www.w3.org/2000/svg">
<circle cx="40.5" cy="40.5" r="40.5" fill="#40E395"/>
<circle cx="40.5" cy="40.5" r="40.5" fill="#40E395"/>
<g clip-path="url(#clip0)">
<path d="M63 26.9081C63 25.4162 62.4074 23.9855 61.3525 22.9306C60.2976 21.8757 58.8668 21.2831 57.375 21.2831H23.625C22.1332 21.2831 20.7024 21.8757 19.6475 22.9306C18.5926 23.9855 18 25.4162 18 26.9081V54.0956C18 55.5874 18.5926 57.0182 19.6475 58.0731C20.7024 59.1279 22.1332 59.7206 23.625 59.7206H57.375C58.8668 59.7206 60.2976 59.1279 61.3525 58.0731C62.4074 57.0182 63 55.5874 63 54.0956V26.9081ZM36.1012 25.0331C36.2577 24.7493 36.4874 24.5127 36.7664 24.3479C37.0454 24.1831 37.3635 24.0962 37.6875 24.0962C38.0115 24.0962 38.3296 24.1831 38.6086 24.3479C38.8876 24.5127 39.1173 24.7493 39.2738 25.0331C39.4541 25.3132 39.554 25.6375 39.5625 25.9706C39.5537 26.3036 39.4539 26.6278 39.2738 26.9081C39.1173 27.1919 38.8876 27.4285 38.6086 27.5933C38.3296 27.7581 38.0115 27.845 37.6875 27.845C37.3635 27.845 37.0454 27.7581 36.7664 27.5933C36.4874 27.4285 36.2577 27.1919 36.1012 26.9081C35.9211 26.6278 35.8213 26.3036 35.8125 25.9706C35.821 25.6375 35.9209 25.3132 36.1012 25.0331ZM29.5387 25.0331C29.6952 24.7493 29.9249 24.5127 30.2039 24.3479C30.4829 24.1831 30.801 24.0962 31.125 24.0962C31.449 24.0962 31.7671 24.1831 32.0461 24.3479C32.3251 24.5127 32.5548 24.7493 32.7113 25.0331C32.8916 25.3132 32.9915 25.6375 33 25.9706C32.9912 26.3036 32.8914 26.6278 32.7113 26.9081C32.5548 27.1919 32.3251 27.4285 32.0461 27.5933C31.7671 27.7581 31.449 27.845 31.125 27.845C30.801 27.845 30.4829 27.7581 30.2039 27.5933C29.9249 27.4285 29.6952 27.1919 29.5387 26.9081C29.3586 26.6278 29.2588 26.3036 29.25 25.9706C29.2585 25.6375 29.3584 25.3132 29.5387 25.0331ZM22.86 25.2037C23.0073 24.875 23.2463 24.5956 23.5482 24.3991C23.8501 24.2026 24.2023 24.0972 24.5625 24.0956C24.8859 24.0989 25.2027 24.1873 25.4812 24.3519C25.7596 24.5164 25.9899 24.7514 26.1488 25.0331C26.3291 25.3132 26.429 25.6375 26.4375 25.9706C26.4287 26.3036 26.3289 26.6278 26.1488 26.9081C25.9923 27.1919 25.7626 27.4285 25.4836 27.5933C25.2046 27.7581 24.8865 27.845 24.5625 27.845C24.2385 27.845 23.9204 27.7581 23.6414 27.5933C23.3624 27.4285 23.1327 27.1919 22.9763 26.9081C22.7961 26.6278 22.6963 26.3036 22.6875 25.9706C22.6894 25.7056 22.7483 25.444 22.86 25.2037ZM59.25 54.0956C59.25 54.5929 59.0525 55.0698 58.7008 55.4214C58.3492 55.773 57.8723 55.9706 57.375 55.9706H23.625C23.1277 55.9706 22.6508 55.773 22.2992 55.4214C21.9475 55.0698 21.75 54.5929 21.75 54.0956V31.125C21.75 31.0006 21.7994 30.8814 21.8873 30.7935C21.9752 30.7056 22.0944 30.6562 22.2188 30.6562H58.7812C58.9056 30.6562 59.0248 30.7056 59.1127 30.7935C59.2006 30.8814 59.25 31.0006 59.25 31.125V54.0956Z" fill="white"/>
<path d="M44.3288 35.2012C44.3681 35.1437 44.394 35.0782 44.4047 35.0094C44.4154 34.9407 44.4106 34.8704 44.3906 34.8037C44.3715 34.7367 44.3375 34.6749 44.291 34.6229C44.2446 34.571 44.187 34.5302 44.1225 34.5037C43.0056 34.0322 41.8061 33.7875 40.5938 33.7837C38.4548 33.7859 36.3814 34.5219 34.7198 35.8689C33.0582 37.2158 31.9091 39.0921 31.4644 41.1843C31.4493 41.2525 31.45 41.3232 31.4662 41.391C31.4824 41.4589 31.5139 41.5222 31.5581 41.5762C31.6017 41.6309 31.657 41.6752 31.72 41.7057C31.7829 41.7362 31.8519 41.7522 31.9219 41.7524H39.6094C39.6858 41.7523 39.761 41.7336 39.8286 41.698C39.8962 41.6624 39.9542 41.611 39.9975 41.5481L44.3288 35.2012ZM31.9219 44.5649C31.8521 44.5648 31.7831 44.5804 31.7201 44.6106C31.6571 44.6408 31.6018 44.6848 31.5581 44.7393C31.5139 44.7933 31.4824 44.8566 31.4662 44.9245C31.45 44.9924 31.4493 45.063 31.4644 45.1312C31.909 47.2236 33.0581 49.1001 34.7196 50.4474C36.3812 51.7946 38.4546 52.5311 40.5938 52.5337C42.1103 52.5295 43.6025 52.1515 44.9381 51.4331C44.9999 51.4003 45.0536 51.3541 45.0953 51.2979C45.1369 51.2416 45.1654 51.1768 45.1787 51.1081C45.192 51.0394 45.1898 50.9686 45.1721 50.9009C45.1545 50.8332 45.122 50.7703 45.0769 50.7168L40.0781 44.7318C40.034 44.6794 39.9789 44.6372 39.9167 44.6084C39.8545 44.5796 39.7867 44.5647 39.7181 44.5649H31.9219ZM47.2294 48.9112C47.2742 48.9649 47.3304 49.008 47.394 49.0372C47.4575 49.0663 47.5268 49.0809 47.5968 49.0799C47.6667 49.0788 47.7355 49.0621 47.7982 49.0309C47.8608 48.9998 47.9157 48.955 47.9588 48.8999C49.3544 47.1453 50.0651 44.9433 49.9585 42.7038C49.8519 40.4643 48.9354 38.3398 47.3794 36.7256C47.3316 36.6751 47.2731 36.6359 47.2082 36.611C47.1433 36.586 47.0737 36.5758 47.0044 36.5812C46.9346 36.587 46.867 36.6081 46.8064 36.6432C46.7458 36.6782 46.6936 36.7262 46.6538 36.7837L42.5569 42.7837C42.5 42.8678 42.4719 42.9679 42.4766 43.0693C42.4813 43.1707 42.5187 43.2678 42.5831 43.3462L47.2294 48.9112Z" fill="white"/>
</g>
<defs>
<clipPath id="clip0">
<rect width="45" height="45" fill="white" transform="translate(18 18)"/>
</clipPath>
</defs>
</svg>
