<svg width="81" height="81" viewBox="0 0 81 81" fill="none" xmlns="http://www.w3.org/2000/svg">
<circle cx="40.5" cy="40.5" r="40.5" fill="#40E395"/>
<circle cx="40.5" cy="40.5" r="40.5" fill="#5AA6FF"/>
<path fill-rule="evenodd" clip-rule="evenodd" d="M42.5817 43.5817C40.9908 45.1725 39.9075 47.1993 39.4686 49.4058C39.0912 51.9612 39.2291 53.3874 40.1159 55.978C40.9768 58.0565 42.4348 59.8331 44.3054 61.083C46.176 62.3329 48.3752 63 50.625 63C52.8748 63 55.074 62.3329 56.9446 61.083C58.8152 59.8331 60.2732 58.0565 61.1341 55.978C61.9951 53.8995 62.2203 51.6124 61.7814 49.4058C61.3425 47.1993 60.2592 45.1725 58.6684 43.5817C56.0079 41.3005 54.2736 40.5201 50.625 40.2558C47.6093 40.2558 44.7167 41.4519 42.5817 43.5817ZM56.706 47.294C56.706 46.8298 56.5217 46.3847 56.1935 46.0565C55.8653 45.7283 55.4202 45.544 54.956 45.544C54.4919 45.544 54.0468 45.7283 53.7186 46.0565L50.9344 48.8408C50.8523 48.9228 50.741 48.9689 50.625 48.9689C50.509 48.9689 50.3977 48.9228 50.3157 48.8408L47.5314 46.0565C47.2032 45.7283 46.7581 45.544 46.294 45.544C45.8299 45.544 45.3847 45.7283 45.0565 46.0565C44.7284 46.3847 44.544 46.8298 44.544 47.294C44.544 47.7581 44.7284 48.2032 45.0565 48.5314L47.8408 51.3156C47.9228 51.3977 47.9689 51.509 47.9689 51.625C47.9689 51.741 47.9228 51.8523 47.8408 51.9344L45.0565 54.7186C44.7284 55.0468 44.544 55.4919 44.544 55.956C44.544 56.4202 44.7284 56.8653 45.0565 57.1935C45.3847 57.5217 45.8299 57.706 46.294 57.706C46.7581 57.706 47.2032 57.5217 47.5314 57.1935L50.3157 54.4092C50.3977 54.3272 50.509 54.2811 50.625 54.2811C50.741 54.2811 50.8523 54.3272 50.9344 54.4092L53.7186 57.1935C54.0468 57.5216 54.4919 57.706 54.956 57.706C55.4202 57.706 55.8653 57.5216 56.1935 57.1935C56.5217 56.8653 56.706 56.4201 56.706 55.956C56.706 55.4919 56.5217 55.0468 56.1935 54.7186L53.4092 51.9344C53.3272 51.8523 53.2811 51.741 53.2811 51.625C53.2811 51.509 53.3272 51.3977 53.4092 51.3156L56.1935 48.5314C56.5217 48.2032 56.706 47.7581 56.706 47.294Z" fill="white"/>
<path d="M55.75 20H24.25C22.8576 20 21.5223 20.5531 20.5377 21.5377C19.5531 22.5223 19 23.8576 19 25.25V50.625C19 52.0174 19.5531 53.3527 20.5377 54.3373C21.5223 55.3219 22.8576 55.875 24.25 55.875H35.625C36.0891 55.875 36.5342 55.6906 36.8624 55.3624C37.1906 55.0342 37.375 54.5891 37.375 54.125C37.375 53.6609 37.1906 53.2158 36.8624 52.8876C36.5342 52.5594 36.0891 52.375 35.625 52.375H24.25C23.7859 52.375 23.3408 52.1906 23.0126 51.8624C22.6844 51.5343 22.5 51.0891 22.5 50.625V29.1892C22.4998 29.1316 22.5109 29.0746 22.5328 29.0213C22.5547 28.968 22.5869 28.9196 22.6275 28.8788C22.6682 28.8379 22.7165 28.8056 22.7697 28.7835C22.8229 28.7614 22.8799 28.75 22.9375 28.75H57.0625C57.1785 28.75 57.2898 28.7961 57.3719 28.8781C57.4539 28.9602 57.5 29.0715 57.5 29.1875V39.25C57.5 39.7141 57.6844 40.1592 58.0126 40.4874C58.3408 40.8156 58.7859 41 59.25 41C59.7141 41 60.1592 40.8156 60.4874 40.4874C60.8156 40.1592 61 39.7141 61 39.25V25.25C61 23.8576 60.4469 22.5223 59.4623 21.5377C58.4777 20.5531 57.1424 20 55.75 20V20ZM26.6055 25.25C26.4595 25.5149 26.2451 25.7357 25.9847 25.8895C25.7243 26.0433 25.4274 26.1245 25.125 26.1245C24.8226 26.1245 24.5257 26.0433 24.2653 25.8895C24.0049 25.7357 23.7905 25.5149 23.6445 25.25C23.4764 24.9884 23.3832 24.6858 23.375 24.375C23.3768 24.1276 23.4317 23.8836 23.536 23.6593C23.6735 23.3524 23.8965 23.0917 24.1783 22.9083C24.4601 22.7249 24.7888 22.6265 25.125 22.625C25.4269 22.6281 25.7226 22.7106 25.9824 22.8642C26.2423 23.0178 26.4572 23.2371 26.6055 23.5C26.7739 23.7614 26.8671 24.0641 26.875 24.375C26.8668 24.6858 26.7736 24.9884 26.6055 25.25ZM32.7305 25.25C32.5845 25.5149 32.3701 25.7357 32.1097 25.8895C31.8493 26.0433 31.5524 26.1245 31.25 26.1245C30.9476 26.1245 30.6507 26.0433 30.3903 25.8895C30.1299 25.7357 29.9155 25.5149 29.7695 25.25C29.6014 24.9884 29.5082 24.6858 29.5 24.375C29.5079 24.0641 29.6011 23.7614 29.7695 23.5C29.9155 23.2351 30.1299 23.0143 30.3903 22.8605C30.6507 22.7067 30.9476 22.6255 31.25 22.6255C31.5524 22.6255 31.8493 22.7067 32.1097 22.8605C32.3701 23.0143 32.5845 23.2351 32.7305 23.5C32.8989 23.7614 32.9921 24.0641 33 24.375C32.9918 24.6858 32.8986 24.9884 32.7305 25.25ZM38.8555 25.25C38.7095 25.5149 38.4951 25.7357 38.2347 25.8895C37.9743 26.0433 37.6774 26.1245 37.375 26.1245C37.0726 26.1245 36.7757 26.0433 36.5153 25.8895C36.2549 25.7357 36.0405 25.5149 35.8945 25.25C35.7264 24.9884 35.6332 24.6858 35.625 24.375C35.6329 24.0641 35.7261 23.7614 35.8945 23.5C36.0405 23.2351 36.2549 23.0143 36.5153 22.8605C36.7757 22.7067 37.0726 22.6255 37.375 22.6255C37.6774 22.6255 37.9743 22.7067 38.2347 22.8605C38.4951 23.0143 38.7095 23.2351 38.8555 23.5C39.0239 23.7614 39.1171 24.0641 39.125 24.375C39.1168 24.6858 39.0236 24.9884 38.8555 25.25Z" fill="white"/>
</svg>
