<svg width="81" height="81" viewBox="0 0 81 81" fill="none" xmlns="http://www.w3.org/2000/svg">
<circle cx="40.5" cy="40.5" r="40.5" fill="#40E395"/>
<circle cx="40.5" cy="40.5" r="40.5" fill="#FF6767"/>
<path d="M25.6716 28.5H56.3273C56.4654 28.4999 56.6015 28.4671 56.7245 28.4043C56.8475 28.3415 56.9539 28.2505 57.035 28.1387C57.116 28.0269 57.1695 27.8975 57.191 27.7611C57.2124 27.6246 57.2013 27.4851 57.1585 27.3537C55.349 21.85 48.7132 18 40.9994 18C33.2856 18 26.6498 21.85 24.8404 27.3537C24.7976 27.4851 24.7864 27.6246 24.8079 27.7611C24.8294 27.8975 24.8828 28.0269 24.9639 28.1387C25.045 28.2505 25.1514 28.3415 25.2744 28.4043C25.3974 28.4671 25.5335 28.4999 25.6716 28.5ZM60.6864 60C61.0345 60 61.3683 59.8617 61.6145 59.6156C61.8606 59.3694 61.9989 59.0356 61.9989 58.6875C61.9989 58.3394 61.8606 58.0056 61.6145 57.7594C61.3683 57.5133 61.0345 57.375 60.6864 57.375H59.8394C59.6882 57.375 59.5396 57.3359 59.408 57.2613C59.2764 57.1868 59.1664 57.0795 59.0887 56.9497L57.4997 54.3003C57.422 54.1705 57.312 54.0632 57.1804 53.9887C57.0489 53.9141 56.9002 53.875 56.749 53.875H25.2499C25.0986 53.875 24.95 53.9141 24.8184 53.9887C24.6869 54.0632 24.5769 54.1705 24.4991 54.3003L22.9102 56.9497C22.8324 57.0795 22.7224 57.1868 22.5909 57.2613C22.4593 57.3359 22.3107 57.375 22.1594 57.375H21.3125C20.9644 57.375 20.6305 57.5133 20.3844 57.7594C20.1383 58.0056 20 58.3394 20 58.6875C20 59.0356 20.1383 59.3694 20.3844 59.6156C20.6305 59.8617 20.9644 60 21.3125 60H60.6864Z" fill="white"/>
<path d="M29.6247 39H26.1248C25.6416 39 25.2499 39.3918 25.2499 39.875V51.25C25.2499 51.7332 25.6416 52.125 26.1248 52.125H29.6247C30.108 52.125 30.4997 51.7332 30.4997 51.25V39.875C30.4997 39.3918 30.108 39 29.6247 39Z" fill="white"/>
<path d="M38.3745 39H34.8746C34.3914 39 33.9996 39.3918 33.9996 39.875V51.25C33.9996 51.7332 34.3914 52.125 34.8746 52.125H38.3745C38.8578 52.125 39.2495 51.7332 39.2495 51.25V39.875C39.2495 39.3918 38.8578 39 38.3745 39Z" fill="white"/>
<path d="M47.1243 39H43.6244C43.1411 39 42.7494 39.3918 42.7494 39.875V51.25C42.7494 51.7332 43.1411 52.125 43.6244 52.125H47.1243C47.6075 52.125 47.9993 51.7332 47.9993 51.25V39.875C47.9993 39.3918 47.6075 39 47.1243 39Z" fill="white"/>
<path d="M55.874 39H52.3741C51.8909 39 51.4991 39.3918 51.4991 39.875V51.25C51.4991 51.7332 51.8909 52.125 52.3741 52.125H55.874C56.3573 52.125 56.749 51.7332 56.749 51.25V39.875C56.749 39.3918 56.3573 39 55.874 39Z" fill="white"/>
<path d="M23.3459 36.0548C23.4622 36.4028 23.685 36.7054 23.9827 36.9199C24.2804 37.1344 24.6379 37.2498 25.0049 37.25H56.994C57.3614 37.2501 57.7196 37.1345 58.0176 36.9197C58.3157 36.7048 58.5386 36.4016 58.6547 36.053L59.8202 32.553C59.9077 32.2901 59.9316 32.0101 59.8898 31.7361C59.848 31.4621 59.7418 31.202 59.5798 30.9771C59.4178 30.7523 59.2047 30.5691 58.9581 30.4427C58.7115 30.3162 58.4384 30.2502 58.1612 30.25H23.8376C23.5605 30.2502 23.2874 30.3162 23.0408 30.4427C22.7941 30.5691 22.5811 30.7523 22.4191 30.9771C22.2571 31.202 22.1508 31.4621 22.109 31.7361C22.0672 32.0101 22.0911 32.2901 22.1787 32.553L23.3459 36.0548Z" fill="white"/>
</svg>
