<svg width="81" height="81" viewBox="0 0 81 81" fill="none" xmlns="http://www.w3.org/2000/svg">
<circle cx="40.5" cy="40.5" r="40.5" fill="#40E395"/>
<path d="M43.0625 34.677C43.0625 33.8648 42.7398 33.0858 42.1655 32.5115C41.5912 31.9372 40.8122 31.6145 40 31.6145C39.1878 31.6145 38.4088 31.9372 37.8345 32.5115C37.2602 33.0858 36.9375 33.8648 36.9375 34.677V37.302C36.9375 37.418 36.9836 37.5293 37.0656 37.6114C37.1477 37.6934 37.259 37.7395 37.375 37.7395H42.625C42.741 37.7395 42.8523 37.6934 42.9344 37.6114C43.0164 37.5293 43.0625 37.418 43.0625 37.302V34.677Z" fill="white"/>
<path d="M61 25.4177C60.9945 24.5128 60.6313 23.6467 59.9897 23.0084C59.3482 22.3701 58.4802 22.0114 57.5752 22.0105H22.4283C21.5225 22.0156 20.6557 22.3791 20.0172 23.0215C19.3787 23.6639 19.0205 24.533 19.021 25.4387L19 38.2855C19.0459 44.2817 21.1238 50.085 24.8942 54.7477C28.6646 59.4103 33.9047 62.6566 39.7585 63.9562C39.8703 63.9787 39.984 63.9898 40.098 63.9895C40.2156 63.989 40.3329 63.9767 40.448 63.9527C46.29 62.6015 51.5012 59.3091 55.2303 54.6134C58.9594 49.9177 60.986 44.0963 60.979 38.1L61 25.4177ZM32.125 49.1145V39.4895C32.125 39.0254 32.3094 38.5802 32.6376 38.2521C32.9658 37.9239 33.4109 37.7395 33.875 37.7395H34.3125V34.677C34.3125 33.1686 34.9117 31.7219 35.9783 30.6553C37.0449 29.5887 38.4916 28.9895 40 28.9895C41.5084 28.9895 42.9551 29.5887 44.0217 30.6553C45.0883 31.7219 45.6875 33.1686 45.6875 34.677V37.7395H46.125C46.5891 37.7395 47.0343 37.9239 47.3624 38.2521C47.6906 38.5802 47.875 39.0254 47.875 39.4895V49.1145C47.875 49.5786 47.6906 50.0237 47.3624 50.3519C47.0343 50.6801 46.5891 50.8645 46.125 50.8645H33.875C33.4109 50.8645 32.9658 50.6801 32.6376 50.3519C32.3094 50.0237 32.125 49.5786 32.125 49.1145Z" fill="white"/>
<path d="M40 47.3645C41.2081 47.3645 42.1875 46.3851 42.1875 45.177C42.1875 43.9689 41.2081 42.9895 40 42.9895C38.7919 42.9895 37.8125 43.9689 37.8125 45.177C37.8125 46.3851 38.7919 47.3645 40 47.3645Z" fill="white"/>
</svg>
