<svg width="81" height="81" viewBox="0 0 81 81" fill="none" xmlns="http://www.w3.org/2000/svg">
<circle cx="40.5" cy="40.5" r="40.5" fill="#40E395"/>
<circle cx="40.5" cy="40.5" r="40.5" fill="#6967E0"/>
<g clip-path="url(#clip0_20065_185688)">
<path d="M50.625 39.25C48.3752 39.25 46.176 39.9171 44.3054 41.167C42.4348 42.4169 40.9768 44.1935 40.1159 46.272C39.2549 48.3505 39.0297 50.6376 39.4686 52.8442C39.9075 55.0507 40.9908 57.0775 42.5817 58.6683C44.1725 60.2592 46.1993 61.3425 48.4058 61.7814C50.6124 62.2203 52.8995 61.9951 54.978 61.1341C57.0565 60.2732 58.8331 58.8152 60.083 56.9446C61.3329 55.074 62 52.8748 62 50.625C61.9963 47.6093 60.7967 44.7182 58.6642 42.5858C56.5318 40.4533 53.6407 39.2537 50.625 39.25V39.25ZM45.0565 53.719L47.8408 50.9348C47.9226 50.8524 47.9686 50.7411 47.9686 50.625C47.9686 50.5089 47.9226 50.3976 47.8408 50.3153L45.0565 47.531C44.8894 47.3696 44.756 47.1765 44.6643 46.963C44.5726 46.7495 44.5243 46.5198 44.5223 46.2875C44.5203 46.0551 44.5646 45.8247 44.6526 45.6096C44.7406 45.3945 44.8705 45.1991 45.0348 45.0348C45.1991 44.8705 45.3945 44.7406 45.6096 44.6526C45.8247 44.5646 46.0551 44.5203 46.2875 44.5223C46.5198 44.5243 46.7495 44.5726 46.963 44.6643C47.1765 44.756 47.3696 44.8894 47.531 45.0565L50.3153 47.8408C50.3559 47.8815 50.4042 47.9138 50.4573 47.9359C50.5105 47.9579 50.5675 47.9693 50.625 47.9693C50.6825 47.9693 50.7395 47.9579 50.7927 47.9359C50.8458 47.9138 50.8941 47.8815 50.9348 47.8408L53.719 45.0565C53.8804 44.8894 54.0735 44.756 54.287 44.6643C54.5006 44.5726 54.7302 44.5243 54.9626 44.5223C55.1949 44.5203 55.4254 44.5646 55.6404 44.6526C55.8555 44.7406 56.0509 44.8705 56.2152 45.0348C56.3795 45.1991 56.5094 45.3945 56.5974 45.6096C56.6854 45.8247 56.7297 46.0551 56.7277 46.2875C56.7257 46.5198 56.6774 46.7495 56.5857 46.963C56.494 47.1765 56.3606 47.3696 56.1935 47.531L53.4093 50.3153C53.3274 50.3976 53.2814 50.5089 53.2814 50.625C53.2814 50.7411 53.3274 50.8524 53.4093 50.9348L56.1935 53.719C56.3606 53.8804 56.494 54.0735 56.5857 54.287C56.6774 54.5006 56.7257 54.7302 56.7277 54.9626C56.7297 55.1949 56.6854 55.4254 56.5974 55.6404C56.5094 55.8555 56.3795 56.0509 56.2152 56.2152C56.0509 56.3795 55.8555 56.5094 55.6404 56.5974C55.4254 56.6854 55.1949 56.7297 54.9626 56.7277C54.7302 56.7257 54.5006 56.6774 54.287 56.5857C54.0735 56.494 53.8804 56.3606 53.719 56.1935L50.9348 53.4093C50.8941 53.3685 50.8458 53.3362 50.7927 53.3141C50.7395 53.2921 50.6825 53.2807 50.625 53.2807C50.5675 53.2807 50.5105 53.2921 50.4573 53.3141C50.4042 53.3362 50.3559 53.3685 50.3153 53.4093L47.531 56.1935C47.3696 56.3606 47.1765 56.494 46.963 56.5857C46.7495 56.6774 46.5198 56.7257 46.2875 56.7277C46.0551 56.7297 45.8247 56.6854 45.6096 56.5974C45.3945 56.5094 45.1991 56.3795 45.0348 56.2152C44.8705 56.0509 44.7406 55.8555 44.6526 55.6404C44.5646 55.4254 44.5203 55.1949 44.5223 54.9626C44.5243 54.7302 44.5726 54.5006 44.6643 54.287C44.756 54.0735 44.8894 53.8804 45.0565 53.719V53.719ZM32.25 37.5C33.9806 37.5 35.6723 36.9868 37.1112 36.0254C38.5502 35.0639 39.6717 33.6973 40.3339 32.0985C40.9962 30.4996 41.1695 28.7403 40.8319 27.043C40.4943 25.3456 39.6609 23.7865 38.4372 22.5628C37.2135 21.3391 35.6544 20.5058 33.957 20.1681C32.2597 19.8305 30.5004 20.0038 28.9015 20.6661C27.3027 21.3283 25.9361 22.4498 24.9746 23.8888C24.0132 25.3277 23.5 27.0194 23.5 28.75C23.5028 31.0698 24.4255 33.2938 26.0659 34.9341C27.7062 36.5745 29.9302 37.4972 32.25 37.5V37.5ZM27.175 27.4498C27.2099 27.3186 27.2747 27.1974 27.3645 27.0956C27.4543 26.9939 27.5665 26.9144 27.6923 26.8635C27.8181 26.8125 27.954 26.7916 28.0892 26.8022C28.2245 26.8128 28.3555 26.8548 28.4718 26.9248C30.3749 28.1037 32.5663 28.7353 34.805 28.75C35.3492 28.749 35.8926 28.708 36.4308 28.6275C36.5651 28.6075 36.7022 28.6191 36.8313 28.6614C36.9604 28.7036 37.0779 28.7753 37.1745 28.8708C37.2712 28.9667 37.3442 29.0839 37.3877 29.213C37.4311 29.3421 37.4438 29.4796 37.4248 29.6145C37.2032 30.9093 36.5042 32.0741 35.4659 32.8788C34.4275 33.6835 33.1252 34.0697 31.8161 33.9611C30.5069 33.8525 29.286 33.2571 28.3944 32.2924C27.5028 31.3276 27.0052 30.0637 27 28.75C27.0006 28.3108 27.0595 27.8735 27.175 27.4498V27.4498ZM39.8363 41.7333C39.9155 41.6376 39.9734 41.5262 40.0062 41.4065C40.0391 41.2867 40.046 41.1613 40.0267 41.0386C40.0073 40.916 39.962 40.7989 39.8939 40.695C39.8258 40.5912 39.7363 40.5031 39.6315 40.4365C37.9224 39.3422 35.9822 38.6605 33.9643 38.4454C31.9463 38.2303 29.906 38.4876 28.0047 39.1971C26.1033 39.9065 24.3931 41.0486 23.0093 42.533C21.6255 44.0174 20.606 45.8034 20.0315 47.7498C19.9924 47.8808 19.9845 48.0191 20.0086 48.1537C20.0326 48.2883 20.0878 48.4154 20.1698 48.5248C20.2518 48.6342 20.3583 48.7229 20.4808 48.7837C20.6033 48.8445 20.7383 48.8758 20.875 48.875H35.995C36.2 48.875 36.3986 48.803 36.5559 48.6715C36.7133 48.5401 36.8195 48.3575 36.856 48.1558C37.2797 45.794 38.3063 43.5817 39.8363 41.7333V41.7333Z" fill="white"/>
</g>
<defs>
<clipPath id="clip0_20065_185688">
<rect width="42" height="42" fill="white" transform="translate(20 20)"/>
</clipPath>
</defs>
</svg>
