<svg width="58" height="50" viewBox="0 0 58 50" fill="none" xmlns="http://www.w3.org/2000/svg">
<path d="M6.1716 10.5H36.8273C36.9654 10.4999 37.1015 10.4671 37.2245 10.4043C37.3475 10.3415 37.4539 10.2505 37.535 10.1387C37.616 10.0269 37.6695 9.89748 37.691 9.76105C37.7124 9.62462 37.7013 9.48505 37.6585 9.35375C35.849 3.85 29.2132 0 21.4994 0C13.7856 0 7.14982 3.85 5.34037 9.35375C5.29756 9.48505 5.28643 9.62462 5.30791 9.76105C5.32938 9.89748 5.38284 10.0269 5.46392 10.1387C5.54499 10.2505 5.65138 10.3415 5.77438 10.4043C5.89738 10.4671 6.03349 10.4999 6.1716 10.5ZM31 42C30.7539 42.2461 31.3481 42 31 42C30.888 42.4471 31.2461 41.7539 31 42C29.5 38 30.0134 35.875 29.8622 35.875H5.74986C5.59865 35.875 5.45001 35.9141 5.31843 35.9887C5.18686 36.0632 5.07685 36.1705 4.99913 36.3003L3.41017 38.9497C3.33245 39.0795 3.22244 39.1868 3.09087 39.2613C2.95929 39.3359 2.81065 39.375 2.65944 39.375H1.81246C1.46438 39.375 1.13055 39.5133 0.884412 39.7594C0.638277 40.0056 0.5 40.3394 0.5 40.6875C0.5 41.0356 0.638277 41.3694 0.884412 41.6156C1.13055 41.8617 1.46438 42 1.81246 42C1.81246 42 15.6235 42 31 42Z" fill="white"/>
<path d="M10.6247 22H7.12479C6.64156 22 6.24982 22.3918 6.24982 22.875V34.25C6.24982 34.7332 6.64156 35.125 7.12479 35.125H10.6247C11.1079 35.125 11.4997 34.7332 11.4997 34.25V22.875C11.4997 22.3918 11.1079 22 10.6247 22Z" fill="white"/>
<path d="M19.3745 22H15.8746C15.3914 22 14.9996 22.3918 14.9996 22.875V34.25C14.9996 34.7332 15.3914 35.125 15.8746 35.125H19.3745C19.8578 35.125 20.2495 34.7332 20.2495 34.25V22.875C20.2495 22.3918 19.8578 22 19.3745 22Z" fill="white"/>
<path d="M28.1243 22H24.6244C24.1411 22 23.7494 22.3918 23.7494 22.875V34.25C23.7494 34.7332 24.1411 35.125 24.6244 35.125H28.1243C28.6075 35.125 28.9992 34.7332 28.9992 34.25V22.875C28.9992 22.3918 28.6075 22 28.1243 22Z" fill="white"/>
<path d="M36.3749 22H32.875C32.3917 22 32 22.3918 32 22.875L32 29C32 29 33.5 27 35 25.5C36.5 24 37.2498 23.9832 37.2498 23.5V22.875C37.2498 22.3918 36.8581 22 36.3749 22Z" fill="white"/>
<path d="M4.34588 19.0548C4.46219 19.4028 4.68494 19.7054 4.98264 19.9199C5.28034 20.1344 5.63792 20.2498 6.00483 20.25H37.994C38.3614 20.2501 38.7195 20.1345 39.0176 19.9197C39.3157 19.7048 39.5386 19.4016 39.6547 19.053L40.8201 15.553C40.9077 15.2901 40.9316 15.0101 40.8898 14.7361C40.848 14.4621 40.7417 14.202 40.5798 13.9771C40.4178 13.7523 40.2047 13.5691 39.9581 13.4427C39.7114 13.3162 39.4383 13.2502 39.1612 13.25H4.83761C4.56048 13.2502 4.28736 13.3162 4.04073 13.4427C3.7941 13.5691 3.58103 13.7523 3.41904 13.9771C3.25706 14.202 3.15079 14.4621 3.109 14.7361C3.06721 15.0101 3.09108 15.2901 3.17866 15.553L4.34588 19.0548Z" fill="white"/>
<path d="M45 24C42.4288 24 39.9154 24.7624 37.7776 26.1909C35.6398 27.6194 33.9735 29.6497 32.9896 32.0251C32.0056 34.4006 31.7482 37.0144 32.2498 39.5362C32.7514 42.0579 33.9895 44.3743 35.8076 46.1924C37.6257 48.0105 39.9421 49.2486 42.4638 49.7502C44.9856 50.2518 47.5995 49.9944 49.9749 49.0104C52.3503 48.0265 54.3807 46.3603 55.8091 44.2224C57.2376 42.0846 58 39.5712 58 37C58 33.5522 56.6304 30.2456 54.1924 27.8076C51.7544 25.3696 48.4478 24 45 24ZM42.832 34.588L48.252 36.618C49.036 37.0229 49.6709 37.6667 50.0647 38.4563C50.4586 39.2459 50.5911 40.1404 50.443 41.0102C50.2949 41.8801 49.8739 42.6803 49.2409 43.2951C48.608 43.9099 47.7958 44.3073 46.922 44.43C46.8042 44.4482 46.6968 44.5081 46.6194 44.5987C46.5419 44.6894 46.4996 44.8048 46.5 44.924V46C46.5 46.3978 46.342 46.7794 46.0607 47.0607C45.7794 47.342 45.3978 47.5 45 47.5C44.6022 47.5 44.2206 47.342 43.9393 47.0607C43.658 46.7794 43.5 46.3978 43.5 46V45C43.5 44.8674 43.4473 44.7402 43.3536 44.6464C43.2598 44.5527 43.1326 44.5 43 44.5H41C40.6022 44.5 40.2207 44.342 39.9393 44.0607C39.658 43.7794 39.5 43.3978 39.5 43C39.5 42.6022 39.658 42.2206 39.9393 41.9393C40.2207 41.658 40.6022 41.5 41 41.5H46C47 41.5 47.5 41.154 47.5 40.472C47.5301 40.0891 47.4112 39.7093 47.168 39.412L41.748 37.382C41.0311 37.0377 40.4339 36.4866 40.0332 35.7996C39.6325 35.1127 39.4468 34.3215 39.5 33.528C39.5315 32.5509 39.9099 31.617 40.5673 30.8936C41.2248 30.1702 42.1184 29.7045 43.088 29.58C43.2035 29.5594 43.308 29.4988 43.3833 29.4088C43.4587 29.3189 43.5 29.2053 43.5 29.088V28C43.5 27.6022 43.658 27.2206 43.9393 26.9393C44.2206 26.658 44.6022 26.5 45 26.5C45.3978 26.5 45.7794 26.658 46.0607 26.9393C46.342 27.2206 46.5 27.6022 46.5 28V29C46.5 29.1326 46.5527 29.2598 46.6465 29.3536C46.7402 29.4473 46.8674 29.5 47 29.5H49C49.3978 29.5 49.7794 29.658 50.0607 29.9393C50.342 30.2206 50.5 30.6022 50.5 31C50.5 31.3978 50.342 31.7794 50.0607 32.0607C49.7794 32.342 49.3978 32.5 49 32.5H44C43.188 32.5 42.5 32.97 42.5 33.528C42.4699 33.9109 42.5889 34.2907 42.832 34.588Z" fill="white"/>
</svg>
