<svg width="81" height="81" viewBox="0 0 81 81" fill="none" xmlns="http://www.w3.org/2000/svg">
<circle cx="40.5" cy="40.5" r="40.5" fill="#40E395"/>
<circle cx="40.5" cy="40.5" r="40.5" fill="#40E395"/>
<path d="M54.4832 51.496C52.7244 51.496 51.0377 50.7973 49.7941 49.5536C48.5504 48.31 47.8518 46.6232 47.8518 44.8644C47.8518 43.1056 48.5504 41.4188 49.7941 40.1752C51.0377 38.9315 52.7244 38.2328 54.4832 38.2328H58.462C58.5792 38.2328 58.6917 38.1863 58.7746 38.1034C58.8575 38.0204 58.9041 37.908 58.9041 37.7907V33.3697C58.9041 32.1972 58.4383 31.0727 57.6092 30.2436C56.7801 29.4145 55.6557 28.9487 54.4832 28.9487H24.4209C23.2484 28.9487 22.1239 29.4145 21.2949 30.2436C20.4658 31.0727 20 32.1972 20 33.3697V56.3591C20 57.5316 20.4658 58.6561 21.2949 59.4852C22.1239 60.3143 23.2484 60.7801 24.4209 60.7801H54.4832C55.6557 60.7801 56.7801 60.3143 57.6092 59.4852C58.4383 58.6561 58.9041 57.5316 58.9041 56.3591V51.9381C58.9041 51.8208 58.8575 51.7084 58.7746 51.6254C58.6917 51.5425 58.5792 51.496 58.462 51.496H54.4832Z" fill="white"/>
<path d="M59.7882 40.8856H54.4832C53.4279 40.8856 52.4159 41.3048 51.6697 42.051C50.9235 42.7972 50.5043 43.8092 50.5043 44.8645C50.5043 45.9198 50.9235 46.9319 51.6697 47.6781C52.4159 48.4243 53.4279 48.8435 54.4832 48.8435H59.7882C60.4117 48.7359 60.9766 48.41 61.3816 47.9239C61.7866 47.4379 62.0054 46.8235 61.9987 46.1908V43.5382C62.0054 42.9056 61.7866 42.2912 61.3816 41.8051C60.9766 41.3191 60.4117 40.9931 59.7882 40.8856ZM54.8138 20.8601C54.7447 20.5819 54.6208 20.3203 54.4494 20.0905C54.278 19.8607 54.0625 19.6675 53.8155 19.5219C53.5686 19.3764 53.2951 19.2815 53.0111 19.2428C52.727 19.2042 52.4382 19.2225 52.1613 19.2968L29.3989 25.4243C29.296 25.4527 29.2068 25.5174 29.1478 25.6064C29.0889 25.6954 29.0641 25.8027 29.0781 25.9086C29.0921 26.0144 29.144 26.1116 29.2241 26.1822C29.3041 26.2528 29.4071 26.292 29.5138 26.2926L55.6149 26.3315C55.6823 26.332 55.749 26.317 55.8097 26.2877C55.8704 26.2584 55.9236 26.2155 55.9651 26.1623C56.0067 26.1092 56.0354 26.0472 56.0492 25.9812C56.063 25.9152 56.0614 25.8469 56.0446 25.7816L54.8138 20.8601Z" fill="white"/>
</svg>
