<svg width="81" height="81" viewBox="0 0 81 81" fill="none" xmlns="http://www.w3.org/2000/svg">
<circle cx="40.5" cy="40.5" r="40.5" fill="#40E395"/>
<circle cx="40.5" cy="40.5" r="40.5" fill="#FFA6D1"/>
<g clip-path="url(#clip0)">
<path d="M60.3892 57.9883C60.4419 57.9224 60.4742 57.8427 60.4823 57.7588C60.4904 57.6749 60.4739 57.5904 60.4347 57.5158L58.8597 54.4708C58.8282 54.4083 58.8114 54.3395 58.8107 54.2695V46.3858C58.8737 43.7258 56.1647 41.3108 53.279 38.8748C53.2304 38.8337 53.1912 38.7825 53.1643 38.7248C53.1375 38.6671 53.1234 38.6042 53.1232 38.5405V37.6358C53.1232 37.2877 52.985 36.9538 52.7388 36.7077C52.4927 36.4615 52.1588 36.3233 51.8107 36.3233C51.4626 36.3233 51.1288 36.4615 50.8827 36.7077C50.6365 36.9538 50.4982 37.2877 50.4982 37.6358V42.0703C50.4982 42.1275 50.5094 42.1842 50.5314 42.237C50.5533 42.2899 50.5854 42.3379 50.626 42.3783L54.9257 46.678C55.0512 46.799 55.1512 46.9438 55.2201 47.1039C55.2889 47.264 55.3252 47.4362 55.3268 47.6105C55.3284 47.7848 55.2953 47.9576 55.2294 48.1189C55.1635 48.2803 55.0661 48.4268 54.9429 48.5501C54.8197 48.6734 54.6732 48.771 54.5119 48.837C54.3507 48.9031 54.1779 48.9364 54.0036 48.935C53.8293 48.9335 53.6571 48.8974 53.4969 48.8287C53.3368 48.76 53.1919 48.6601 53.0707 48.5348L49.45 44.9C48.9901 44.6626 48.4608 44.5966 47.9567 44.7139C47.4526 44.8311 47.0068 45.124 46.6989 45.5401C46.3911 45.9561 46.2414 46.4681 46.2767 46.9845C46.312 47.5008 46.5299 47.9877 46.8915 48.358L51.6935 53.258C51.7738 53.3397 51.8191 53.4496 51.8195 53.5643V56.0143C52.0571 57.5169 52.6184 58.95 53.4645 60.2143C53.4979 60.2681 53.5426 60.3141 53.5955 60.3492C53.6483 60.3842 53.7081 60.4074 53.7707 60.4173C54.9899 60.6215 56.2412 60.505 57.4016 60.0791C58.562 59.6532 59.5917 58.9327 60.3892 57.9883ZM19.5652 22.8063L21.1402 25.8495C21.172 25.9119 21.1888 25.9808 21.1892 26.0508V33.9345C21.1245 36.7345 24.1152 39.251 27.1585 41.8095C27.2074 41.8507 27.2468 41.9022 27.2737 41.9602C27.3006 42.0183 27.3144 42.0815 27.3142 42.1455V58.431C27.3142 59.1272 27.5908 59.7949 28.0831 60.2872C28.5754 60.7795 29.243 61.056 29.9392 61.056H49.1892C49.6534 61.056 50.0985 60.8716 50.4267 60.5434C50.7549 60.2153 50.9392 59.7701 50.9392 59.306C50.9392 58.8419 50.7549 58.3968 50.4267 58.0686C50.0985 57.7404 49.6534 57.556 49.1892 57.556H31.6892C31.4572 57.556 31.2346 57.4638 31.0705 57.2997C30.9064 57.1356 30.8142 56.9131 30.8142 56.681V39.1075C30.6299 39.0429 30.4624 38.9376 30.3242 38.7995L25.51 33.987C25.3877 33.8652 25.2907 33.7205 25.2243 33.5612C25.158 33.4019 25.1237 33.2311 25.1233 33.0585C25.1227 32.71 25.2605 32.3754 25.5065 32.1285C25.7525 31.8816 26.0865 31.7425 26.435 31.7419C26.7836 31.7412 27.1181 31.879 27.365 32.125L30.8125 35.5725V35.52C31.2764 35.6887 31.7839 35.6948 32.2517 35.5373C32.7196 35.3799 33.1201 35.0682 33.3877 34.6534C33.6553 34.2386 33.7741 33.7452 33.7246 33.2541C33.6752 32.7629 33.4604 32.3032 33.1155 31.95L28.1875 26.9345V24.3095C27.9517 22.8042 27.3904 21.3685 26.5425 20.1025C26.5097 20.0481 26.4652 20.0017 26.4122 19.9665C26.3593 19.9314 26.2991 19.9085 26.2362 19.8995C25.0163 19.6939 23.7639 19.8094 22.6022 20.2347C21.4405 20.66 20.4096 21.3804 19.6107 22.325C19.5567 22.3919 19.5236 22.4732 19.5155 22.5588C19.5074 22.6444 19.5247 22.7304 19.5652 22.8063Z" fill="white"/>
<path d="M45.25 43.4423C45.25 43.0942 45.1117 42.7603 44.8656 42.5142C44.6194 42.268 44.2856 42.1298 43.9375 42.1298H34.3125C33.9644 42.1298 33.6306 42.268 33.3844 42.5142C33.1383 42.7603 33 43.0942 33 43.4423C33 43.7904 33.1383 44.1242 33.3844 44.3703C33.6306 44.6165 33.9644 44.7548 34.3125 44.7548H43.9375C44.2856 44.7548 44.6194 44.6165 44.8656 44.3703C45.1117 44.1242 45.25 43.7904 45.25 43.4423ZM34.3125 49.247C33.9644 49.247 33.6306 49.3853 33.3844 49.6314C33.1383 49.8776 33 50.2114 33 50.5595C33 50.9076 33.1383 51.2415 33.3844 51.4876C33.6306 51.7337 33.9644 51.872 34.3125 51.872H40.4375C40.7856 51.872 41.1194 51.7337 41.3656 51.4876C41.6117 51.2415 41.75 50.9076 41.75 50.5595C41.75 50.2114 41.6117 49.8776 41.3656 49.6314C41.1194 49.3853 40.7856 49.247 40.4375 49.247H34.3125ZM52.25 27.6923C52.25 25.9617 51.7368 24.27 50.7754 22.831C49.8139 21.3921 48.4473 20.2706 46.8485 19.6083C45.2496 18.9461 43.4903 18.7728 41.793 19.1104C40.0956 19.448 38.5365 20.2814 37.3128 21.5051C36.0891 22.7288 35.2557 24.2879 34.9181 25.9852C34.5805 27.6826 34.7538 29.4419 35.4161 31.0407C36.0783 32.6396 37.1998 34.0062 38.6388 34.9676C40.0777 35.9291 41.7694 36.4423 43.5 36.4423C45.8198 36.4395 48.0438 35.5167 49.6841 33.8764C51.3245 32.236 52.2472 30.0121 52.25 27.6923ZM48.4875 25.5118L44.354 31.0208C44.1504 31.2946 43.8897 31.521 43.5899 31.6842C43.2902 31.8473 42.9585 31.9434 42.618 31.9658C42.5603 31.9658 42.5025 31.9658 42.443 31.9658C42.1311 31.9662 41.8222 31.9045 41.5344 31.7843C41.2465 31.6641 40.9855 31.4879 40.7665 31.2658L38.635 29.1395C38.5096 29.0185 38.4095 28.8737 38.3407 28.7136C38.2718 28.5535 38.2355 28.3813 38.2339 28.207C38.2323 28.0328 38.2655 27.8599 38.3314 27.6986C38.3973 27.5373 38.4947 27.3907 38.6179 27.2674C38.741 27.1441 38.8875 27.0466 39.0488 26.9805C39.2101 26.9144 39.3829 26.8811 39.5572 26.8826C39.7314 26.884 39.9037 26.9201 40.0638 26.9888C40.224 27.0575 40.3689 27.1575 40.49 27.2828L42.065 28.8578C42.109 28.9024 42.1621 28.9369 42.2207 28.959C42.2793 28.981 42.342 28.9901 42.4045 28.9855C42.4672 28.9806 42.5281 28.9624 42.5833 28.9322C42.6385 28.9021 42.6867 28.8606 42.7248 28.8105L46.3875 23.935C46.5964 23.6565 46.9073 23.4724 47.2519 23.4232C47.4225 23.3988 47.5963 23.4083 47.7632 23.4511C47.9302 23.4939 48.0871 23.5691 48.225 23.6725C48.3629 23.7759 48.4791 23.9055 48.5669 24.0538C48.6547 24.2021 48.7124 24.3663 48.7368 24.5369C48.7612 24.7075 48.7517 24.8813 48.7089 25.0483C48.6662 25.2152 48.5909 25.3721 48.4875 25.51V25.5118Z" fill="white"/>
</g>
<defs>
<clipPath id="clip0">
<rect width="42" height="42" fill="white" transform="translate(19 19)"/>
</clipPath>
</defs>
</svg>
