<svg width="81" height="81" viewBox="0 0 81 81" fill="none" xmlns="http://www.w3.org/2000/svg">
<circle cx="40.5" cy="40.5" r="40.5" fill="#40E395"/>
<circle cx="40.5" cy="40.5" r="40.5" fill="#717171"/>
<path d="M29.5002 55.875C28.5719 55.875 27.6817 55.5063 27.0253 54.8499C26.3689 54.1935 26.0002 53.3033 26.0002 52.375V29.625C26.0002 28.6968 26.3689 27.8065 27.0253 27.1502C27.6817 26.4938 28.5719 26.125 29.5002 26.125H38.6877C38.9198 26.125 39.1423 26.2172 39.3064 26.3813C39.4705 26.5454 39.5627 26.768 39.5627 27V27.875C39.5627 28.0482 39.6141 28.2174 39.7104 28.3614C39.8066 28.5053 39.9434 28.6174 40.1034 28.6835C40.2096 28.7269 40.323 28.7495 40.4377 28.75C40.5527 28.7502 40.6666 28.7278 40.7729 28.6839C40.8792 28.6401 40.9758 28.5757 41.0572 28.4945L44.5572 24.9945C44.6387 24.9133 44.7033 24.8167 44.7474 24.7104C44.7915 24.6041 44.8142 24.4901 44.8142 24.375C44.8142 24.2599 44.7915 24.146 44.7474 24.0397C44.7033 23.9334 44.6387 23.8368 44.5572 23.7555L41.0572 20.2555C40.9348 20.1329 40.7788 20.0493 40.6088 20.0154C40.4389 19.9815 40.2627 19.9988 40.1026 20.0652C39.9425 20.1315 39.8058 20.2439 39.7097 20.3881C39.6135 20.5323 39.5624 20.7018 39.5627 20.875V21.75C39.5627 21.9821 39.4705 22.2047 39.3064 22.3688C39.1423 22.5329 38.9198 22.625 38.6877 22.625H29.5002C27.6437 22.625 25.8632 23.3625 24.5504 24.6753C23.2377 25.988 22.5002 27.7685 22.5002 29.625V52.375C22.5002 54.2316 23.2377 56.012 24.5504 57.3248C25.8632 58.6375 27.6437 59.375 29.5002 59.375C29.9643 59.375 30.4094 59.1907 30.7376 58.8625C31.0658 58.5343 31.2502 58.0892 31.2502 57.625C31.2502 57.1609 31.0658 56.7158 30.7376 56.3876C30.4094 56.0594 29.9643 55.875 29.5002 55.875ZM50.5002 22.625C50.0361 22.625 49.5909 22.8094 49.2627 23.1376C48.9346 23.4658 48.7502 23.9109 48.7502 24.375C48.7502 24.8392 48.9346 25.2843 49.2627 25.6125C49.5909 25.9407 50.0361 26.125 50.5002 26.125C51.4284 26.125 52.3187 26.4938 52.9751 27.1502C53.6314 27.8065 54.0002 28.6968 54.0002 29.625V52.375C54.0002 53.3033 53.6314 54.1935 52.9751 54.8499C52.3187 55.5063 51.4284 55.875 50.5002 55.875H41.3127C41.0806 55.875 40.8581 55.7829 40.694 55.6188C40.5299 55.4547 40.4377 55.2321 40.4377 55V54.125C40.4377 53.9519 40.3863 53.7826 40.29 53.6387C40.1937 53.4948 40.0569 53.3827 39.8969 53.3165C39.7908 53.2732 39.6773 53.2506 39.5627 53.25C39.4477 53.2498 39.3338 53.2723 39.2275 53.3161C39.1212 53.36 39.0246 53.4243 38.9432 53.5055L35.4432 57.0055C35.3617 57.0868 35.297 57.1834 35.2529 57.2897C35.2088 57.396 35.1861 57.5099 35.1861 57.625C35.1861 57.7401 35.2088 57.8541 35.2529 57.9604C35.297 58.0667 35.3617 58.1633 35.4432 58.2445L38.9432 61.7445C39.0656 61.8672 39.2216 61.9508 39.3916 61.9847C39.5615 62.0186 39.7377 62.0013 39.8977 61.9349C40.0578 61.8686 40.1946 61.7562 40.2907 61.612C40.3868 61.4678 40.438 61.2983 40.4377 61.125V60.25C40.4377 60.018 40.5299 59.7954 40.694 59.6313C40.8581 59.4672 41.0806 59.375 41.3127 59.375H50.5002C52.3567 59.375 54.1372 58.6375 55.4499 57.3248C56.7627 56.012 57.5002 54.2316 57.5002 52.375V29.625C57.5002 27.7685 56.7627 25.988 55.4499 24.6753C54.1372 23.3625 52.3567 22.625 50.5002 22.625Z" fill="white"/>
<path d="M39.9998 32.2498C38.2692 32.2498 36.5775 32.763 35.1386 33.7245C33.6997 34.6859 32.5781 36.0525 31.9159 37.6513C31.2536 39.2502 31.0803 41.0095 31.4179 42.7069C31.7556 44.4042 32.5889 45.9633 33.8126 47.187C35.0363 48.4107 36.5954 49.2441 38.2928 49.5817C39.9901 49.9193 41.7494 49.746 43.3483 49.0838C44.9472 48.4215 46.3137 47.3 47.2752 45.8611C48.2366 44.4221 48.7498 42.7304 48.7498 40.9998C48.7498 38.6792 47.8279 36.4536 46.187 34.8126C44.5461 33.1717 42.3205 32.2498 39.9998 32.2498V32.2498ZM41.0673 45.8028C41.024 45.8093 40.9844 45.8311 40.9557 45.8643C40.9271 45.8975 40.9113 45.9398 40.9113 45.9837V46.5415C40.9113 46.7832 40.8152 47.015 40.6443 47.186C40.4734 47.3569 40.2416 47.4529 39.9998 47.4529C39.7581 47.4529 39.5263 47.3569 39.3553 47.186C39.1844 47.015 39.0884 46.7832 39.0884 46.5415V46.0274C39.0885 46.0035 39.0838 45.9797 39.0747 45.9575C39.0656 45.9354 39.0521 45.9153 39.0352 45.8983C39.0182 45.8814 38.9981 45.8679 38.9759 45.8588C38.9538 45.8497 38.93 45.845 38.9061 45.8451H38.0697C37.828 45.8451 37.5961 45.7491 37.4252 45.5782C37.2543 45.4072 37.1583 45.1754 37.1583 44.9337C37.1583 44.6919 37.2543 44.4601 37.4252 44.2892C37.5961 44.1182 37.828 44.0222 38.0697 44.0222H40.686C40.8754 44.0222 41.0589 43.9561 41.2049 43.8355C41.351 43.7148 41.4504 43.5471 41.4863 43.3611C41.5221 43.1751 41.492 42.9824 41.4011 42.8162C41.3103 42.6499 41.1644 42.5205 40.9886 42.4501L38.3344 41.3877C37.7956 41.1741 37.3425 40.7883 37.0456 40.2904C36.7488 39.7925 36.6248 39.2105 36.693 38.6349C36.7613 38.0593 37.0178 37.5223 37.4228 37.1076C37.8278 36.6929 38.3585 36.4237 38.9323 36.3419C38.9756 36.3356 39.0152 36.3139 39.0438 36.2809C39.0725 36.2478 39.0883 36.2055 39.0884 36.1618V35.604C39.0884 35.3622 39.1844 35.1304 39.3553 34.9595C39.5263 34.7886 39.7581 34.6925 39.9998 34.6925C40.2416 34.6925 40.4734 34.7886 40.6443 34.9595C40.8152 35.1304 40.9113 35.3622 40.9113 35.604V36.1188C40.9113 36.1671 40.9305 36.2135 40.9647 36.2477C40.9989 36.2819 41.0452 36.3011 41.0936 36.3011H41.9299C42.1717 36.3011 42.4035 36.3971 42.5744 36.568C42.7454 36.739 42.8414 36.9708 42.8414 37.2125C42.8414 37.4543 42.7454 37.6861 42.5744 37.857C42.4035 38.028 42.1717 38.124 41.9299 38.124H39.3137C39.1241 38.1236 38.9403 38.1893 38.794 38.3099C38.6477 38.4304 38.548 38.5983 38.5121 38.7844C38.4763 38.9706 38.5065 39.1635 38.5976 39.3297C38.6887 39.496 38.8349 39.6253 39.0111 39.6953L41.6652 40.7577C42.2041 40.9714 42.6571 41.3572 42.954 41.8551C43.2508 42.3529 43.3748 42.935 43.3066 43.5106C43.2384 44.0862 42.9818 44.6231 42.5768 45.0378C42.1719 45.4525 41.6412 45.7217 41.0673 45.8036V45.8028Z" fill="white"/>
</svg>
