<svg width="81" height="81" viewBox="0 0 81 81" fill="none" xmlns="http://www.w3.org/2000/svg">
<circle cx="40.5" cy="40.5" r="40.5" fill="#40E395"/>
<circle cx="40.5" cy="40.5" r="40.5" fill="#FFB169"/>
<g clip-path="url(#clip0)">
<path d="M46.3243 35.7L45.6243 35.4533C45.5601 35.4304 45.5022 35.3928 45.4551 35.3436C45.408 35.2944 45.373 35.2349 45.353 35.1698C45.2225 34.6093 45.2147 34.0273 45.3303 33.4635C45.3482 33.3984 45.3812 33.3385 45.4265 33.2885C46.1804 32.4563 46.754 31.4771 47.1112 30.4124C47.4684 29.3478 47.6014 28.2208 47.502 27.1023C47.566 26.335 47.4721 25.5628 47.2261 24.8332C46.9801 24.1037 46.5871 23.4323 46.0716 22.8605C45.556 22.2887 44.9287 21.8286 44.2285 21.5086C43.5282 21.1886 42.7698 21.0155 42 21C41.1851 20.9981 40.381 21.1862 39.6515 21.5495C39.5953 21.5766 39.5455 21.6154 39.5056 21.6634C39.4656 21.7113 39.4363 21.7672 39.4197 21.8274C39.4032 21.8876 39.3997 21.9506 39.4095 22.0122C39.4192 22.0739 39.4421 22.1327 39.4765 22.1848C40.4476 23.6388 40.9608 25.3503 40.95 27.0988C41.0702 29.3277 40.5073 31.5403 39.3365 33.4408C39.3002 33.4957 39.2768 33.558 39.268 33.6232C39.2591 33.6884 39.2651 33.7547 39.2855 33.8173C39.3058 33.8799 39.34 33.937 39.3855 33.9846C39.431 34.0321 39.4866 34.0687 39.5483 34.0918C44.7983 36.0535 45.941 37.5918 46.2683 38.2708C46.3155 38.3685 46.3973 38.4451 46.4979 38.4859C46.5985 38.5266 46.7106 38.5286 46.8125 38.4913C47.6835 38.1708 48.5847 37.9392 49.5023 37.8C49.5963 37.7858 49.6832 37.7413 49.7497 37.6732C49.8162 37.6052 49.8587 37.5173 49.8708 37.4229C49.8828 37.3286 49.8638 37.2328 49.8166 37.1502C49.7693 37.0677 49.6965 37.0027 49.609 36.9653C48.65 36.5575 47.5528 36.1498 46.3243 35.7Z" fill="white"/>
<path fill-rule="evenodd" clip-rule="evenodd" d="M43.5817 43.5817C41.9908 45.1725 40.9075 47.1993 40.4686 49.4058C40.0912 51.9612 40.2291 53.3874 41.1159 55.978C41.9768 58.0565 43.4348 59.8331 45.3054 61.083C47.176 62.3329 49.3752 63 51.625 63C53.8748 63 56.074 62.3329 57.9446 61.083C59.8152 59.8331 61.2732 58.0565 62.1341 55.978C62.9951 53.8995 63.2203 51.6124 62.7814 49.4058C62.3425 47.1993 61.2592 45.1725 59.6684 43.5817C57.0079 41.3005 55.2736 40.5201 51.625 40.2558C48.6093 40.2558 45.7167 41.4519 43.5817 43.5817ZM57.706 47.294C57.706 46.8298 57.5217 46.3847 57.1935 46.0565C56.8653 45.7283 56.4202 45.544 55.956 45.544C55.4919 45.544 55.0468 45.7283 54.7186 46.0565L51.9344 48.8408C51.8523 48.9228 51.741 48.9689 51.625 48.9689C51.509 48.9689 51.3977 48.9228 51.3157 48.8408L48.5314 46.0565C48.2032 45.7283 47.7581 45.544 47.294 45.544C46.8299 45.544 46.3847 45.7283 46.0565 46.0565C45.7284 46.3847 45.544 46.8298 45.544 47.294C45.544 47.7581 45.7284 48.2032 46.0565 48.5314L48.8408 51.3156C48.9228 51.3977 48.9689 51.509 48.9689 51.625C48.9689 51.741 48.9228 51.8523 48.8408 51.9344L46.0565 54.7186C45.7284 55.0468 45.544 55.4919 45.544 55.956C45.544 56.4202 45.7284 56.8653 46.0565 57.1935C46.3847 57.5217 46.8299 57.706 47.294 57.706C47.7581 57.706 48.2032 57.5217 48.5314 57.1935L51.3157 54.4092C51.3977 54.3272 51.509 54.2811 51.625 54.2811C51.741 54.2811 51.8523 54.3272 51.9344 54.4092L54.7186 57.1935C55.0468 57.5216 55.4919 57.706 55.956 57.706C56.4202 57.706 56.8653 57.5216 57.1935 57.1935C57.5217 56.8653 57.706 56.4201 57.706 55.956C57.706 55.4919 57.5217 55.0468 57.1935 54.7186L54.4092 51.9344C54.3272 51.8523 54.2811 51.741 54.2811 51.625C54.2811 51.509 54.3272 51.3977 54.4092 51.3156L57.1935 48.5314C57.5217 48.2032 57.706 47.7581 57.706 47.294Z" fill="white"/>
<path d="M44.1304 39.8545C44.1772 39.8207 44.2168 39.7779 44.2468 39.7286C44.2769 39.6793 44.2968 39.6246 44.3054 39.5675C44.3151 39.5096 44.3132 39.4504 44.2997 39.3933C44.2861 39.3362 44.2613 39.2823 44.2266 39.235C42.6761 37.135 36.4164 35.2905 36.8644 35.4497C36.8028 35.4266 36.7472 35.3899 36.7018 35.3424C36.6563 35.2948 36.6222 35.2376 36.6019 35.175C36.4672 34.6124 36.4564 34.0272 36.5704 33.46C36.5883 33.3949 36.6213 33.335 36.6666 33.285C37.4205 32.4528 37.9941 31.4735 38.3513 30.4089C38.7085 29.3443 38.8416 28.2173 38.7421 27.0987C38.8056 26.3322 38.7115 25.5608 38.4656 24.832C38.2196 24.1032 37.8271 23.4325 37.3121 22.8611C36.7972 22.2898 36.1707 21.8299 35.4713 21.5098C34.7719 21.1898 34.0144 21.0162 33.2454 21C32.4757 21.0151 31.7172 21.1877 31.0167 21.5073C30.3163 21.8268 29.6888 22.2865 29.1729 22.858C28.657 23.4295 28.2637 24.1006 28.0172 24.83C27.7708 25.5594 27.6764 26.3315 27.7399 27.0987C27.6375 28.2095 27.766 29.3294 28.1175 30.388C28.469 31.4467 29.0357 32.4211 29.7821 33.25C29.8208 33.2927 29.8506 33.3427 29.8696 33.397C30.0116 33.9621 30.0307 34.5511 29.9256 35.1242C29.9097 35.1953 29.8761 35.2611 29.8281 35.3158C29.7801 35.3706 29.7192 35.4124 29.6509 35.4375L28.9211 35.7C25.4089 36.9897 22.8714 37.9225 22.0769 39.5097C21.3789 41.1257 21.0112 42.8649 20.9954 44.625C20.9954 44.8571 21.0876 45.0796 21.2517 45.2437C21.4158 45.4078 21.6383 45.5 21.8704 45.5H38.7806C38.8612 45.4998 38.9402 45.4775 39.009 45.4355C39.0778 45.3935 39.1338 45.3335 39.1709 45.262C40.3131 43.0501 42.0253 41.1833 44.1304 39.8545Z" fill="white"/>
</g>
<defs>
<clipPath id="clip0">
<rect width="42" height="42" fill="white" transform="translate(21 21)"/>
</clipPath>
</defs>
</svg>
