<svg width="81" height="81" viewBox="0 0 81 81" fill="none" xmlns="http://www.w3.org/2000/svg">
<circle cx="40.5" cy="40.5" r="40.5" fill="#40E395"/>
<circle cx="40.5" cy="40.5" r="40.5" fill="#C18AFF"/>
<g clip-path="url(#clip0)">
<path d="M30.375 39.25C28.1252 39.25 25.926 39.9171 24.0554 41.167C22.1848 42.4169 20.7268 44.1935 19.8659 46.272C19.0049 48.3505 18.7797 50.6376 19.2186 52.8442C19.6575 55.0507 20.7408 57.0775 22.3317 58.6683C23.9225 60.2592 25.9493 61.3425 28.1559 61.7814C30.3624 62.2203 32.6495 61.9951 34.728 61.1341C36.8065 60.2732 38.5831 58.8152 39.833 56.9446C41.0829 55.074 41.75 52.8748 41.75 50.625C41.7463 47.6093 40.5467 44.7182 38.4143 42.5858C36.2818 40.4533 33.3907 39.2537 30.375 39.25ZM32.5398 50.9347L35.0143 53.4092C35.2461 53.6581 35.3723 53.9871 35.3663 54.3272C35.3603 54.6672 35.2226 54.9916 34.9821 55.2321C34.7416 55.4726 34.4172 55.6103 34.0772 55.6163C33.7371 55.6223 33.4081 55.4961 33.1593 55.2642L30.6848 52.7915C30.6441 52.7508 30.5958 52.7184 30.5427 52.6964C30.4895 52.6743 30.4326 52.663 30.375 52.663C30.3175 52.663 30.2605 52.6743 30.2073 52.6964C30.1542 52.7184 30.1059 52.7508 30.0653 52.7915L27.5908 55.2677C27.3445 55.514 27.0106 55.6523 26.6624 55.6523C26.3142 55.6523 25.9802 55.514 25.734 55.2677C25.4878 55.0215 25.3495 54.6876 25.3495 54.3394C25.3495 53.9912 25.4878 53.6572 25.734 53.411L28.2085 50.9365C28.2492 50.8959 28.2816 50.8476 28.3036 50.7944C28.3257 50.7413 28.337 50.6843 28.337 50.6267C28.337 50.5692 28.3257 50.5122 28.3036 50.4591C28.2816 50.4059 28.2492 50.3576 28.2085 50.317L25.7358 47.8425C25.6103 47.7215 25.5103 47.5767 25.4414 47.4166C25.3726 47.2565 25.3363 47.0843 25.3347 46.91C25.3331 46.7358 25.3662 46.5629 25.4321 46.4016C25.498 46.2402 25.5954 46.0937 25.7186 45.9704C25.8418 45.8471 25.9883 45.7496 26.1496 45.6835C26.3108 45.6174 26.4836 45.5841 26.6579 45.5856C26.8322 45.587 27.0044 45.6231 27.1646 45.6918C27.3247 45.7605 27.4696 45.8605 27.5908 45.9857L30.0653 48.462C30.1478 48.5434 30.2591 48.5891 30.375 48.5891C30.4909 48.5891 30.6022 48.5434 30.6848 48.462L33.1593 45.9857C33.4055 45.7395 33.7394 45.6012 34.0876 45.6012C34.4358 45.6012 34.7698 45.7395 35.016 45.9857C35.2622 46.232 35.4005 46.5659 35.4005 46.9141C35.4005 47.2623 35.2622 47.5963 35.016 47.8425L32.5415 50.317C32.4594 50.3991 32.4131 50.5103 32.4128 50.6264C32.4125 50.7425 32.4581 50.854 32.5398 50.9365V50.9347Z" fill="white"/>
<path d="M59.9745 25.25L55.75 21.0273C55.425 20.7017 55.039 20.4434 54.6141 20.2671C54.1892 20.0909 53.7338 20.0001 53.2738 20H33C32.0717 20 31.1815 20.3687 30.5251 21.0251C29.8688 21.6815 29.5 22.5717 29.5 23.5V36.233C29.4986 36.347 29.5423 36.457 29.6216 36.539C29.701 36.6209 29.8095 36.6682 29.9235 36.6705C30.564 36.6828 31.74 36.73 32.5223 36.8158C32.583 36.8222 32.6445 36.8157 32.7025 36.7966C32.7606 36.7776 32.8139 36.7464 32.8591 36.7053C32.9042 36.6641 32.9401 36.6138 32.9644 36.5577C32.9887 36.5017 33.0008 36.4411 33 36.38V23.9392C32.9998 23.8816 33.0109 23.8246 33.0328 23.7713C33.0547 23.718 33.0869 23.6696 33.1275 23.6288C33.1682 23.5879 33.2165 23.5556 33.2697 23.5335C33.3229 23.5114 33.3799 23.5 33.4375 23.5H53.0935C53.151 23.4998 53.208 23.511 53.2611 23.5329C53.3143 23.5548 53.3626 23.5871 53.4033 23.6277L57.3723 27.5968C57.413 27.6373 57.4453 27.6856 57.4672 27.7388C57.4892 27.792 57.5003 27.849 57.5 27.9065V51.9392C57.5 52.0553 57.4539 52.1666 57.3719 52.2486C57.2898 52.3307 57.1785 52.3767 57.0625 52.3767H44.6235C44.5206 52.3766 44.4212 52.4138 44.3437 52.4814C44.2661 52.549 44.2157 52.6423 44.2018 52.7443C44.0706 53.613 43.8573 54.4673 43.5648 55.2957C43.5401 55.3604 43.5315 55.4301 43.5397 55.4988C43.548 55.5675 43.5728 55.6332 43.612 55.6902C43.6513 55.7472 43.7038 55.7938 43.7651 55.826C43.8264 55.8582 43.8945 55.875 43.9638 55.875H57.5C58.4283 55.875 59.3185 55.5062 59.9749 54.8499C60.6313 54.1935 61 53.3033 61 52.375V27.7262C61.0001 27.2664 60.9096 26.811 60.7337 26.3861C60.5577 25.9612 60.2997 25.5751 59.9745 25.25Z" fill="white"/>
<path d="M46.125 43.1892C47.769 43.1892 49.376 42.7017 50.743 41.7884C52.1099 40.8751 53.1754 39.577 53.8046 38.0582C54.4338 36.5394 54.5985 34.8681 54.2779 33.2557C53.9573 31.6432 53.1658 30.1621 52.0034 28.9995C50.8411 27.8369 49.3601 27.0451 47.7478 26.7241C46.1354 26.4032 44.4641 26.5676 42.9452 27.1965C41.4262 27.8253 40.1279 28.8905 39.2143 30.2573C38.3007 31.624 37.8128 33.231 37.8125 34.875C37.8148 37.079 38.6913 39.1922 40.2496 40.7509C41.808 42.3095 43.9209 43.1864 46.125 43.1892ZM46.125 29.1892C47.25 29.1892 48.3496 29.5228 49.285 30.1479C50.2203 30.7729 50.9493 31.6612 51.3797 32.7006C51.8102 33.74 51.9227 34.8836 51.7031 35.9869C51.4835 37.0902 50.9416 38.1037 50.146 38.899C49.3505 39.6943 48.3369 40.2359 47.2335 40.4551C46.1301 40.6744 44.9865 40.5615 43.9473 40.1308C42.9081 39.7 42.0199 38.9708 41.3952 38.0352C40.7704 37.0997 40.4372 35.9999 40.4375 34.875C40.4398 33.3674 41.0398 31.9223 42.106 30.8565C43.1722 29.7906 44.6175 29.1911 46.125 29.1892Z" fill="white"/>
<path d="M46.125 36.1892H49.219C49.5671 36.1892 49.9009 36.0509 50.1471 35.8048C50.3932 35.5587 50.5315 35.2248 50.5315 34.8767C50.5315 34.5286 50.3932 34.1948 50.1471 33.9486C49.9009 33.7025 49.5671 33.5642 49.219 33.5642H47.875C47.759 33.5633 47.6479 33.5167 47.566 33.4344C47.4841 33.3522 47.438 33.241 47.4375 33.125V31.7827C47.4375 31.4346 47.2992 31.1008 47.0531 30.8546C46.8069 30.6085 46.4731 30.4702 46.125 30.4702C45.7769 30.4702 45.4431 30.6085 45.1969 30.8546C44.9508 31.1008 44.8125 31.4346 44.8125 31.7827V34.875C44.8123 35.0475 44.846 35.2183 44.9119 35.3778C44.9778 35.5372 45.0744 35.6821 45.1963 35.8042C45.3182 35.9262 45.463 36.0231 45.6223 36.0891C45.7817 36.1552 45.9525 36.1892 46.125 36.1892Z" fill="white"/>
</g>
<defs>
<clipPath id="clip0">
<rect width="42" height="42" fill="white" transform="translate(19 20)"/>
</clipPath>
</defs>
</svg>
