<svg width="81" height="81" viewBox="0 0 81 81" fill="none" xmlns="http://www.w3.org/2000/svg">
<circle cx="40.5" cy="40.5" r="40.5" fill="#40E395"/>
<circle cx="40.5" cy="40.5" r="40.5" fill="#5AA6FF"/>
<path d="M41 62C45.1534 62 49.2135 60.7684 52.667 58.4609C56.1204 56.1534 58.812 52.8736 60.4015 49.0364C61.9909 45.1991 62.4068 40.9767 61.5965 36.9031C60.7862 32.8295 58.7861 29.0877 55.8492 26.1508C52.9123 23.2139 49.1705 21.2138 45.0969 20.4035C41.0233 19.5932 36.8009 20.0091 32.9636 21.5985C29.1264 23.188 25.8466 25.8796 23.5391 29.333C21.2316 32.7865 20 36.8466 20 41C20.0063 46.5676 22.2208 51.9054 26.1577 55.8423C30.0946 59.7792 35.4324 61.9937 41 62ZM29.1304 40.087C29.1304 39.6027 29.3228 39.1382 29.6653 38.7957C30.0077 38.4533 30.4722 38.2609 30.9565 38.2609H51.0435C51.5278 38.2609 51.9923 38.4533 52.3347 38.7957C52.6772 39.1382 52.8696 39.6027 52.8696 40.087V41.913C52.8696 42.3974 52.6772 42.8618 52.3347 43.2043C51.9923 43.5467 51.5278 43.7391 51.0435 43.7391H30.9565C30.4722 43.7391 30.0077 43.5467 29.6653 43.2043C29.3228 42.8618 29.1304 42.3974 29.1304 41.913V40.087Z" fill="white"/>
</svg>
