<svg width="30" height="30" viewBox="0 0 30 30" fill="none" xmlns="http://www.w3.org/2000/svg">
<path d="M10.3125 21.5625H2.8125C2.31522 21.5625 1.83831 21.365 1.48667 21.0133C1.13504 20.6617 0.9375 20.1848 0.9375 19.6875V4.6875C0.9375 4.19022 1.13504 3.71331 1.48667 3.36167C1.83831 3.01004 2.31522 2.8125 2.8125 2.8125H19.6875C20.1848 2.8125 20.6617 3.01004 21.0133 3.36167C21.365 3.71331 21.5625 4.19022 21.5625 4.6875V10.3125" stroke="#2266E2" stroke-width="1.5" stroke-linecap="round" stroke-linejoin="round"/>
<path d="M0.9375 8.4375H21.5625" stroke="#2266E2" stroke-width="1.5" stroke-linecap="round" stroke-linejoin="round"/>
<path d="M6.5625 4.6875V0.9375" stroke="#2266E2" stroke-width="1.5" stroke-linecap="round" stroke-linejoin="round"/>
<path d="M15.9375 4.6875V0.9375" stroke="#2266E2" stroke-width="1.5" stroke-linecap="round" stroke-linejoin="round"/>
<path d="M21.5625 29.0625C25.7046 29.0625 29.0625 25.7046 29.0625 21.5625C29.0625 17.4204 25.7046 14.0625 21.5625 14.0625C17.4204 14.0625 14.0625 17.4204 14.0625 21.5625C14.0625 25.7046 17.4204 29.0625 21.5625 29.0625Z" stroke="#2266E2" stroke-width="1.5" stroke-linecap="round" stroke-linejoin="round"/>
<path d="M24.8775 21.5625H21.5625V18.2488" stroke="#2266E2" stroke-width="1.5" stroke-linecap="round" stroke-linejoin="round"/>
</svg>
