<svg width="81" height="81" viewBox="0 0 81 81" fill="none" xmlns="http://www.w3.org/2000/svg">
<circle cx="40.5" cy="40.5" r="40.5" fill="#57E1FF"/>
<path d="M24.8649 53C24.6068 53 24.3593 52.8946 24.1769 52.7071C23.9944 52.5196 23.8919 52.2652 23.8919 52V35C23.8919 34.7348 23.9944 34.4804 24.1769 34.2929C24.3593 34.1054 24.6068 34 24.8649 34H51.1351C51.3932 34 51.6407 34.1054 51.8231 34.2929C52.0056 34.4804 52.1081 34.7348 52.1081 35V39.14C53.3992 38.956 54.7089 38.956 56 39.14V26C56 25.4696 55.795 24.9609 55.43 24.5858C55.0651 24.2107 54.5702 24 54.0541 24H49.1892C49.0602 24 48.9364 23.9473 48.8452 23.8536C48.754 23.7598 48.7027 23.6326 48.7027 23.5V21.5C48.7027 21.1022 48.5489 20.7206 48.2752 20.4393C48.0015 20.158 47.6303 20 47.2432 20C46.8562 20 46.485 20.158 46.2113 20.4393C45.9375 20.7206 45.7838 21.1022 45.7838 21.5V29C45.7838 29.197 45.746 29.392 45.6727 29.574C45.5993 29.756 45.4918 29.9214 45.3563 30.0607C45.2208 30.1999 45.0599 30.3104 44.8828 30.3858C44.7058 30.4612 44.516 30.5 44.3243 30.5C44.1327 30.5 43.9429 30.4612 43.7658 30.3858C43.5887 30.3104 43.4279 30.1999 43.2923 30.0607C43.1568 29.9214 43.0493 29.756 42.976 29.574C42.9026 29.392 42.8649 29.197 42.8649 29V25C42.8649 24.7348 42.7624 24.4804 42.5799 24.2929C42.3974 24.1054 42.1499 24 41.8919 24H33.6216C33.4926 24 33.3689 23.9473 33.2776 23.8536C33.1864 23.7598 33.1351 23.6326 33.1351 23.5V21.5C33.1351 21.1022 32.9814 20.7206 32.7077 20.4393C32.434 20.158 32.0627 20 31.6757 20C31.2886 20 30.9174 20.158 30.6437 20.4393C30.37 20.7206 30.2162 21.1022 30.2162 21.5V29C30.2162 29.3978 30.0625 29.7794 29.7888 30.0607C29.515 30.342 29.1438 30.5 28.7568 30.5C28.3697 30.5 27.9985 30.342 27.7248 30.0607C27.4511 29.7794 27.2973 29.3978 27.2973 29V25C27.2973 24.7348 27.1948 24.4804 27.0123 24.2929C26.8299 24.1054 26.5824 24 26.3243 24H21.9459C21.4298 24 20.9349 24.2107 20.57 24.5858C20.205 24.9609 20 25.4696 20 26V53C20 54.0609 20.41 55.0783 21.1399 55.8284C21.8698 56.5786 22.8597 57 23.8919 57H38.6208C38.4417 55.673 38.4417 54.327 38.6208 53H24.8649Z" fill="white"/>
<path d="M59.899 40.0701C60.1798 40.0128 60.4707 40.0434 60.7334 40.1572L60.4951 40.7076L60.7309 40.1561C60.9929 40.2681 61.2138 40.4566 61.3675 40.6948C61.5208 40.9324 61.6011 41.2097 61.6 41.4918M59.899 40.0701L61 49.0588C61 49.1701 60.9787 49.2804 60.9372 49.3832C60.8958 49.4861 60.8351 49.5796 60.7585 49.6583C60.6819 49.737 60.591 49.7995 60.491 49.8421C60.391 49.8847 60.2837 49.9067 60.1755 49.9067H52.8205C52.6574 49.9066 52.498 49.8569 52.3624 49.7638C52.2268 49.6706 52.1212 49.5382 52.0587 49.3832C51.9963 49.2283 51.98 49.0578 52.0118 48.8933C52.0436 48.7289 52.1222 48.5778 52.2375 48.4592M59.899 40.0701C59.6189 40.1272 59.3642 40.2686 59.1665 40.4733C59.1661 40.4737 59.1656 40.4742 59.1652 40.4747L57.2849 42.4061C55.745 40.9725 53.8452 39.9991 51.792 39.6012C49.5378 39.1644 47.208 39.4427 45.1124 40.3982C43.0169 41.3536 41.2562 42.94 40.0615 44.9444C38.8668 46.9486 38.2937 49.2773 38.4162 51.6219C38.5388 53.9665 39.3515 56.2191 40.7489 58.0809C42.1464 59.943 44.0632 61.3267 46.247 62.0459C48.431 62.765 50.7765 62.7846 52.9717 62.102C55.1655 61.4197 57.1033 60.0691 58.5299 58.2319C58.7311 57.9782 58.8809 57.687 58.9714 57.3753C59.0623 57.0624 59.0918 56.7344 59.0584 56.4101C59.025 56.0858 58.9292 55.7709 58.7762 55.4836C58.6231 55.1963 58.4155 54.942 58.1647 54.7359C57.9137 54.5299 57.6246 54.3763 57.3137 54.285C57.0028 54.1937 56.677 54.1666 56.3554 54.2056C56.0339 54.2447 55.7238 54.3488 55.4431 54.5115C55.1626 54.674 54.9173 54.8916 54.7209 55.1507C53.9088 56.2213 52.8005 57.0091 51.5456 57.4119C50.2908 57.8147 48.947 57.8143 47.6925 57.4107C46.4378 57.0071 45.3299 56.2186 44.5184 55.1475C43.7068 54.0762 43.2309 52.7738 43.1567 51.414C43.0825 50.0541 43.4136 48.7045 44.1041 47.5455C44.7945 46.3867 45.8105 45.4749 47.0141 44.9291C48.2176 44.3833 49.5531 44.2284 50.8432 44.4842C51.9472 44.703 52.975 45.214 53.8267 45.9643L51.8073 48.0409L52.2375 48.4592M59.899 40.0701L52.2375 48.4592M61.6 41.4918C61.6 41.4924 61.6 41.4929 61.6 41.4935L61 41.4905H61.6V41.4918ZM61.6 41.4918V49.0588C61.6 49.2466 61.564 49.433 61.4938 49.6074C61.4235 49.7819 61.3201 49.9414 61.1886 50.0766C61.0571 50.2118 60.9001 50.32 60.7261 50.3941C60.5521 50.4683 60.3649 50.5067 60.1755 50.5067H52.8205C52.535 50.5066 52.2573 50.4195 52.0226 50.2583C51.7882 50.0972 51.608 49.87 51.5022 49.6074C51.3965 49.3449 51.3691 49.057 51.4227 48.7794C51.4765 48.5017 51.6094 48.2444 51.8073 48.0409L52.2375 48.4592" fill="white" stroke="#57E1FF" stroke-width="1.2"/>
</svg>
