<svg width="6" height="6" viewBox="0 0 6 6" fill="none" xmlns="http://www.w3.org/2000/svg">
<path opacity="0.6" d="M3.57474 3.04421C3.56892 3.03841 3.5643 3.03151 3.56115 3.02392C3.558 3.01632 3.55638 3.00818 3.55638 2.99996C3.55638 2.99174 3.558 2.9836 3.56115 2.97601C3.5643 2.96842 3.56892 2.96152 3.57474 2.95572L5.8903 0.640308C5.96061 0.569896 6.00007 0.474436 6 0.374928C5.99993 0.275421 5.96033 0.180017 5.88993 0.109704C5.81952 0.0393915 5.72406 -7.02284e-05 5.62456 9.38265e-08C5.52505 7.04161e-05 5.42965 0.0396671 5.35934 0.110079L3.04403 2.42449C3.03823 2.43031 3.03133 2.43492 3.02374 2.43808C3.01615 2.44123 3.00801 2.44285 2.99979 2.44285C2.99157 2.44285 2.98343 2.44123 2.97583 2.43808C2.96824 2.43492 2.96135 2.43031 2.95554 2.42449L0.640229 0.110079C0.605416 0.0752475 0.564082 0.0476142 0.518589 0.0287571C0.473097 0.00990005 0.424335 0.000188465 0.375089 0.000176858C0.275633 0.000153417 0.180241 0.0396415 0.109898 0.109954C0.0395549 0.180267 2.34506e-05 0.275645 1.043e-08 0.375105C-2.34297e-05 0.474566 0.039463 0.569962 0.109773 0.640308L2.42483 2.95572C2.43065 2.96152 2.43527 2.96842 2.43842 2.97601C2.44157 2.9836 2.44319 2.99174 2.44319 2.99996C2.44319 3.00818 2.44157 3.01632 2.43842 3.02392C2.43527 3.03151 2.43065 3.03841 2.42483 3.04421L0.109773 5.35987C0.0749589 5.3947 0.0473463 5.43605 0.0285114 5.48155C0.0096766 5.52706 -1.15959e-05 5.57582 1.043e-08 5.62507C2.34506e-05 5.72453 0.0395549 5.81991 0.109898 5.89022C0.144728 5.92504 0.186074 5.95265 0.231576 5.97149C0.277078 5.99032 0.325844 6.00001 0.375089 6C0.474546 5.99998 0.56992 5.96044 0.640229 5.8901L2.95554 3.57444C2.96135 3.56862 2.96824 3.564 2.97583 3.56085C2.98343 3.5577 2.99157 3.55608 2.99979 3.55608C3.00801 3.55608 3.01615 3.5577 3.02374 3.56085C3.03133 3.564 3.03823 3.56862 3.04403 3.57444L5.35934 5.8901C5.42965 5.96044 5.52503 5.99998 5.62448 6C5.72394 6.00002 5.81933 5.96054 5.88968 5.89022C5.96002 5.81991 5.99955 5.72453 5.99957 5.62507C5.9996 5.52561 5.96011 5.43021 5.8898 5.35987L3.57474 3.04421Z" fill="white"/>
</svg>
