<svg width="45" height="45" viewBox="0 0 45 45" fill="none" xmlns="http://www.w3.org/2000/svg">
<circle cx="22.5" cy="22.5" r="22.5" fill="url(#paint0_linear_251_3522)"/>
<g clip-path="url(#clip0_251_3522)">
<path d="M32.9362 11.9095C32.7866 11.792 32.6061 11.7206 32.4167 11.704C32.2272 11.6873 32.0371 11.7262 31.8693 11.8158L11.5752 22.6167C11.3308 22.7446 11.128 22.9395 10.9904 23.1785C10.8529 23.4176 10.7863 23.6909 10.7986 23.9665C10.8109 24.242 10.9015 24.5084 11.0599 24.7342C11.2182 24.9601 11.4376 25.1361 11.6924 25.2417L14.7431 26.5355C14.7431 26.6138 14.7567 26.6915 14.7834 26.7651L17.1271 33.0895C17.249 33.4168 17.4685 33.6987 17.7559 33.8971C18.0433 34.0955 18.3848 34.2007 18.734 34.1986C19.1564 34.1949 19.5629 34.0368 19.8768 33.7542C19.9134 33.7214 22.4924 30.8686 23.0643 30.2348C23.0969 30.1987 23.1401 30.1736 23.1876 30.1632C23.2352 30.1528 23.2849 30.1575 23.3296 30.1767L26.2893 31.432C26.4828 31.5139 26.6914 31.5539 26.9014 31.5496C27.1114 31.5452 27.3182 31.4965 27.5081 31.4067C27.6966 31.3176 27.864 31.1894 27.999 31.0304C28.134 30.8715 28.2335 30.6856 28.2909 30.4851L33.2634 12.9173C33.315 12.7358 33.3115 12.5431 33.2532 12.3636C33.1949 12.1841 33.0846 12.0261 32.9362 11.9095ZM16.2731 26.7417L25.3593 19.1826C25.3803 19.1614 25.4055 19.1448 25.4334 19.1339C25.4612 19.1231 25.491 19.1183 25.5209 19.1198C25.5507 19.1213 25.5799 19.1291 25.6065 19.1427C25.6331 19.1563 25.6565 19.1753 25.6752 19.1986C25.6988 19.2165 25.7182 19.2394 25.7321 19.2655C25.746 19.2917 25.754 19.3205 25.7557 19.3501C25.7574 19.3797 25.7527 19.4093 25.7419 19.4368C25.7311 19.4644 25.7144 19.4893 25.6931 19.5098L18.9074 27.8114C18.8298 27.9059 18.7789 28.0196 18.7602 28.1405L18.1668 31.8436L16.2731 26.7417Z" fill="url(#paint1_linear_251_3522)"/>
</g>
<defs>
<linearGradient id="paint0_linear_251_3522" x1="22.5" y1="0" x2="22.5" y2="45" gradientUnits="userSpaceOnUse">
<stop stop-color="#2257E2"/>
<stop offset="1" stop-color="#5AA6FF"/>
</linearGradient>
<linearGradient id="paint1_linear_251_3522" x1="22.0484" y1="11.7002" x2="22.0484" y2="34.1986" gradientUnits="userSpaceOnUse">
<stop stop-color="white"/>
<stop offset="1" stop-color="white" stop-opacity="0.8"/>
</linearGradient>
<clipPath id="clip0_251_3522">
<rect width="22.5" height="22.5" fill="white" transform="translate(10.7999 11.6987)"/>
</clipPath>
</defs>
</svg>
