<svg width="50" height="50" viewBox="0 0 50 50" fill="none" xmlns="http://www.w3.org/2000/svg">
<circle cx="25" cy="25" r="25" fill="url(#paint0_linear_226_3317)"/>
<g clip-path="url(#clip0_226_3317)">
<path d="M21.3374 23.4167C22.3676 23.4167 23.3745 23.1112 24.231 22.5389C25.0875 21.9666 25.7551 21.1532 26.1493 20.2015C26.5435 19.2498 26.6467 18.2026 26.4457 17.1922C26.2447 16.1819 25.7487 15.2539 25.0203 14.5255C24.2919 13.7971 23.3639 13.301 22.3535 13.1001C21.3432 12.8991 20.296 13.0023 19.3443 13.3965C18.3926 13.7907 17.5792 14.4582 17.0069 15.3147C16.4346 16.1712 16.1291 17.1782 16.1291 18.2083C16.1308 19.5892 16.68 20.913 17.6564 21.8894C18.6328 22.8657 19.9566 23.415 21.3374 23.4167ZM18.3166 17.4344C18.3374 17.3563 18.376 17.2841 18.4294 17.2236C18.4829 17.163 18.5496 17.1157 18.6245 17.0854C18.6994 17.0551 18.7803 17.0426 18.8608 17.0489C18.9413 17.0553 19.0193 17.0802 19.0885 17.1219C20.2201 17.823 21.5229 18.1989 22.8541 18.2083C23.178 18.2078 23.5015 18.1834 23.8218 18.1354C23.9021 18.1231 23.9842 18.1297 24.0615 18.1548C24.1387 18.1798 24.2091 18.2226 24.2669 18.2797C24.3247 18.3368 24.3683 18.4066 24.3943 18.4835C24.4203 18.5605 24.428 18.6425 24.4166 18.7229C24.2834 19.4924 23.867 20.1841 23.2493 20.6619C22.6315 21.1397 21.8573 21.3688 21.0791 21.3043C20.3008 21.2397 19.575 20.8861 19.0444 20.3131C18.5138 19.7401 18.217 18.9892 18.2124 18.2083C18.2123 17.9468 18.2474 17.6865 18.3166 17.4344ZM25.7885 25.9021C25.8363 25.845 25.8713 25.7783 25.8912 25.7066C25.9111 25.6348 25.9154 25.5596 25.9037 25.4861C25.8921 25.4125 25.8648 25.3423 25.8237 25.2802C25.7826 25.2181 25.7287 25.1655 25.6656 25.126C24.4328 24.3523 23.0075 23.9404 21.552 23.9375C19.8718 23.9451 18.2383 24.4912 16.8912 25.4955C15.5442 26.4999 14.5546 27.9096 14.0677 29.5177C14.0445 29.5954 14.0397 29.6775 14.0539 29.7574C14.068 29.8373 14.1006 29.9128 14.1491 29.9778C14.1975 30.0429 14.2605 30.0957 14.333 30.1321C14.4055 30.1685 14.4855 30.1875 14.5666 30.1875H23.4791C23.6012 30.1875 23.7193 30.1446 23.813 30.0664C23.9067 29.9881 23.9699 29.8795 23.9916 29.7594C24.2448 28.3392 24.8642 27.0096 25.7885 25.9021ZM32.1833 24.4583C30.8441 24.4583 29.5351 24.8554 28.4216 25.5994C27.3081 26.3434 26.4403 27.4009 25.9278 28.6381C25.4154 29.8753 25.2813 31.2367 25.5425 32.5501C25.8038 33.8635 26.4487 35.07 27.3956 36.0169C28.3425 36.9638 29.5489 37.6086 30.8624 37.8699C32.1758 38.1312 33.5372 37.9971 34.7744 37.4846C36.0116 36.9721 37.069 36.1043 37.813 34.9908C38.557 33.8774 38.9541 32.5683 38.9541 31.2292C38.9519 29.4341 38.2378 27.7132 36.9685 26.4439C35.6992 25.1746 33.9783 24.4605 32.1833 24.4583ZM35.8291 32.2708H33.7458C33.6076 32.2708 33.4752 32.3257 33.3775 32.4234C33.2798 32.5211 33.2249 32.6535 33.2249 32.7917V34.875C33.2249 35.1513 33.1152 35.4162 32.9198 35.6116C32.7245 35.8069 32.4595 35.9167 32.1833 35.9167C31.907 35.9167 31.6421 35.8069 31.4467 35.6116C31.2514 35.4162 31.1416 35.1513 31.1416 34.875V32.7917C31.1416 32.6535 31.0867 32.5211 30.9891 32.4234C30.8914 32.3257 30.7589 32.2708 30.6208 32.2708H28.5374C28.2612 32.2708 27.9962 32.1611 27.8009 31.9657C27.6055 31.7704 27.4958 31.5054 27.4958 31.2292C27.4958 30.9529 27.6055 30.6879 27.8009 30.4926C27.9962 30.2972 28.2612 30.1875 28.5374 30.1875H30.6208C30.7589 30.1875 30.8914 30.1326 30.9891 30.035C31.0867 29.9373 31.1416 29.8048 31.1416 29.6667V27.5833C31.1416 27.3071 31.2514 27.0421 31.4467 26.8468C31.6421 26.6514 31.907 26.5417 32.1833 26.5417C32.4595 26.5417 32.7245 26.6514 32.9198 26.8468C33.1152 27.0421 33.2249 27.3071 33.2249 27.5833V29.6667C33.2249 29.8048 33.2798 29.9373 33.3775 30.035C33.4752 30.1326 33.6076 30.1875 33.7458 30.1875H35.8291C36.1054 30.1875 36.3703 30.2972 36.5657 30.4926C36.761 30.6879 36.8708 30.9529 36.8708 31.2292C36.8708 31.5054 36.761 31.7704 36.5657 31.9657C36.3703 32.1611 36.1054 32.2708 35.8291 32.2708Z" fill="url(#paint1_linear_226_3317)"/>
</g>
<defs>
<linearGradient id="paint0_linear_226_3317" x1="25" y1="0" x2="25" y2="50" gradientUnits="userSpaceOnUse">
<stop stop-color="#2257E2"/>
<stop offset="1" stop-color="#5AA6FF"/>
</linearGradient>
<linearGradient id="paint1_linear_226_3317" x1="26.5" y1="13" x2="26.5" y2="38" gradientUnits="userSpaceOnUse">
<stop stop-color="white"/>
<stop offset="1" stop-color="white" stop-opacity="0.8"/>
</linearGradient>
<clipPath id="clip0_226_3317">
<rect width="25" height="25" fill="white" transform="translate(14 13)"/>
</clipPath>
</defs>
</svg>
