<svg width="50" height="50" viewBox="0 0 50 50" fill="none" xmlns="http://www.w3.org/2000/svg">
<circle cx="25" cy="25" r="25" fill="url(#paint0_linear_937_13020)"/>
<g filter="url(#filter0_d_937_13020)">
<path d="M23.9987 12.7812C25.5922 12.7812 27.0212 13.4407 28.0651 14.4573C29.1093 15.5014 29.7411 16.9301 29.7411 18.5237C29.7411 20.1173 29.1091 21.5462 28.0651 22.5902C27.598 23.0573 27.0486 23.4419 26.4165 23.7442C27.1584 23.9365 27.8729 24.2388 28.5323 24.5959C28.8346 24.7608 28.9444 25.1455 28.7796 25.4476C28.6147 25.7499 28.23 25.8598 27.9279 25.6949C27.3235 25.3652 26.6914 25.1179 26.0046 24.953C25.3451 24.7882 24.6583 24.7057 23.9713 24.7057C21.7182 24.7057 19.6849 25.6125 18.1739 27.1236C16.6901 28.6073 15.756 30.6407 15.756 32.8937V34.0203C15.756 34.2402 15.8384 34.4324 15.9759 34.5699C16.1133 34.7073 16.333 34.7898 16.5803 34.7898H26.3343C26.6914 34.7898 26.9663 35.0645 26.9663 35.4218C26.9663 35.7789 26.6916 36.0538 26.3343 36.0538H16.6076C16.0306 36.0538 15.5086 35.8339 15.1513 35.4494C14.7666 35.0922 14.5469 34.5701 14.5469 33.9931V32.8665C14.5469 30.2837 15.6185 27.8934 17.3221 26.1897C18.4761 25.0357 19.9324 24.1563 21.5534 23.7442C20.949 23.4695 20.3994 23.0573 19.9322 22.5902C18.888 21.546 18.2562 20.1173 18.2562 18.5237C18.2562 16.9301 18.8882 15.5012 19.9322 14.4573C20.9764 13.4133 22.4049 12.7812 23.9987 12.7812ZM24.9328 32.3722H30.0708C30.4279 32.3722 30.7028 32.6469 30.7028 33.0042V34.2406L34.8793 30.806L30.7028 27.344V28.6078C30.7028 28.9375 30.4281 29.2398 30.0708 29.2398H24.9328V32.3722ZM29.4664 33.636H24.3007C23.971 33.636 23.6687 33.3613 23.6687 33.004L23.6689 28.6078C23.6689 28.2507 23.9436 27.9758 24.3009 27.9758H29.4388V26.0249C29.4388 25.8875 29.4938 25.7502 29.5763 25.6128C29.7961 25.338 30.2083 25.3104 30.4556 25.5303L36.2257 30.2839C36.2531 30.3113 36.2807 30.3389 36.3081 30.3663C36.528 30.6411 36.5004 31.0258 36.2257 31.2457L30.5102 36.0539C30.4004 36.1637 30.2355 36.2188 30.0707 36.2188C29.7409 36.2188 29.4386 35.944 29.4386 35.5867V33.636H29.4664ZM27.1584 15.3367C26.3615 14.5398 25.2351 14.0178 23.9987 14.0178C22.7622 14.0178 21.6356 14.5124 20.8389 15.3367C20.0421 16.1335 19.5201 17.26 19.5201 18.4964C19.5201 19.7328 20.0146 20.8594 20.8389 21.6561C21.6358 22.453 22.7622 22.975 23.9987 22.975C25.2351 22.975 26.3617 22.4804 27.1584 21.6561C27.9553 20.8593 28.4773 19.7328 28.4773 18.4964C28.4773 17.26 27.9553 16.161 27.1584 15.3367Z" fill="url(#paint1_linear_937_13020)"/>
<path d="M24.9328 32.3722H30.0708C30.4279 32.3722 30.7028 32.6469 30.7028 33.0042V34.2406L34.8793 30.806L30.7028 27.344V28.6078C30.7028 28.9375 30.4281 29.2398 30.0708 29.2398H24.9328V32.3722Z" fill="url(#paint2_linear_937_13020)"/>
<path d="M27.1584 15.3367C26.3615 14.5398 25.2351 14.0178 23.9987 14.0178C22.7622 14.0178 21.6356 14.5124 20.8389 15.3367C20.0421 16.1335 19.5201 17.26 19.5201 18.4964C19.5201 19.7328 20.0146 20.8594 20.8389 21.6561C21.6358 22.453 22.7622 22.975 23.9987 22.975C25.2351 22.975 26.3617 22.4804 27.1584 21.6561C27.9553 20.8593 28.4773 19.7328 28.4773 18.4964C28.4773 17.26 27.9553 16.161 27.1584 15.3367Z" fill="url(#paint3_linear_937_13020)"/>
</g>
<defs>
<filter id="filter0_d_937_13020" x="10.5469" y="12.7812" width="29.9077" height="31.4375" filterUnits="userSpaceOnUse" color-interpolation-filters="sRGB">
<feFlood flood-opacity="0" result="BackgroundImageFix"/>
<feColorMatrix in="SourceAlpha" type="matrix" values="0 0 0 0 0 0 0 0 0 0 0 0 0 0 0 0 0 0 127 0" result="hardAlpha"/>
<feOffset dy="4"/>
<feGaussianBlur stdDeviation="2"/>
<feColorMatrix type="matrix" values="0 0 0 0 0 0 0 0 0 0 0 0 0 0 0 0 0 0 0.05 0"/>
<feBlend mode="normal" in2="BackgroundImageFix" result="effect1_dropShadow_937_13020"/>
<feBlend mode="normal" in="SourceGraphic" in2="effect1_dropShadow_937_13020" result="shape"/>
</filter>
<linearGradient id="paint0_linear_937_13020" x1="25" y1="0" x2="25" y2="50" gradientUnits="userSpaceOnUse">
<stop stop-color="#2257E2"/>
<stop offset="1" stop-color="#5AA6FF"/>
</linearGradient>
<linearGradient id="paint1_linear_937_13020" x1="25.5008" y1="12.7812" x2="25.5008" y2="36.2188" gradientUnits="userSpaceOnUse">
<stop stop-color="white"/>
<stop offset="1" stop-color="white" stop-opacity="0.8"/>
</linearGradient>
<linearGradient id="paint2_linear_937_13020" x1="25.5008" y1="12.7812" x2="25.5008" y2="36.2188" gradientUnits="userSpaceOnUse">
<stop stop-color="white"/>
<stop offset="1" stop-color="white" stop-opacity="0.8"/>
</linearGradient>
<linearGradient id="paint3_linear_937_13020" x1="25.5008" y1="12.7812" x2="25.5008" y2="36.2188" gradientUnits="userSpaceOnUse">
<stop stop-color="white"/>
<stop offset="1" stop-color="white" stop-opacity="0.8"/>
</linearGradient>
</defs>
</svg>
