<svg width="12" height="12" viewBox="0 0 12 12" fill="none" xmlns="http://www.w3.org/2000/svg">
<g opacity="0.5">
<path d="M9.50259 9.03875C9.50259 9.18747 9.44352 9.3301 9.33836 9.43525C9.2332 9.54041 9.09057 9.59949 8.94186 9.59949C8.79314 9.59949 8.65052 9.54041 8.54536 9.43525C8.4402 9.3301 8.38112 9.18747 8.38112 9.03875V4.64259C8.38108 4.62411 8.37557 4.60607 8.36527 4.59072C8.35498 4.57538 8.34036 4.56344 8.32328 4.55639C8.3062 4.54935 8.28741 4.54753 8.2693 4.55117C8.25118 4.5548 8.23455 4.56372 8.2215 4.5768L3.35694 9.43613C3.2517 9.54122 3.10902 9.6002 2.96029 9.6001C2.81156 9.59999 2.66896 9.54081 2.56387 9.43557C2.45878 9.33033 2.3998 9.18765 2.3999 9.03892C2.40001 8.89019 2.45919 8.74759 2.56443 8.6425L7.43498 3.77719C7.44808 3.76412 7.45701 3.74745 7.46063 3.7293C7.46425 3.71115 7.4624 3.69233 7.45531 3.67524C7.44822 3.65814 7.43622 3.64353 7.42082 3.63326C7.40542 3.623 7.38732 3.61753 7.36881 3.61757H2.96068C2.81197 3.61757 2.66934 3.55849 2.56419 3.45333C2.45903 3.34817 2.39995 3.20555 2.39995 3.05683C2.39995 2.90812 2.45903 2.76549 2.56419 2.66033C2.66934 2.55517 2.81197 2.4961 2.96068 2.4961H8.56803C8.69083 2.4961 8.81241 2.5203 8.92585 2.56731C9.03928 2.61432 9.14234 2.68323 9.22913 2.77009C9.31592 2.85695 9.38475 2.96006 9.43167 3.07353C9.47859 3.18701 9.50269 3.30861 9.50259 3.4314V9.03875Z" fill="#717171"/>
</g>
</svg>
