<svg width="16" height="16" viewBox="0 0 16 16" fill="none" xmlns="http://www.w3.org/2000/svg">
<g clip-path="url(#clip0_22_242)">
<path d="M7.91781 15.5906C8.03218 15.5906 8.14281 15.5906 8.25656 15.5837C8.41447 15.5739 8.56227 15.5026 8.66833 15.3852C8.7744 15.2678 8.83031 15.1136 8.8241 14.9555C8.81789 14.7974 8.75006 14.648 8.63512 14.5393C8.52018 14.4305 8.36725 14.3711 8.20906 14.3737C8.15156 14.3737 8.09468 14.3774 8.03718 14.3781C8.01171 14.3783 7.98657 14.3724 7.96392 14.3607C7.94127 14.3491 7.92179 14.3321 7.90718 14.3112C7.46297 13.6833 7.06844 13.0217 6.72718 12.3324C6.71564 12.3086 6.71034 12.2823 6.71178 12.2558C6.71322 12.2294 6.72135 12.2038 6.7354 12.1813C6.74946 12.1589 6.76898 12.1404 6.79214 12.1276C6.8153 12.1148 6.84134 12.1081 6.86781 12.1081H7.32468C7.48202 12.103 7.63122 12.037 7.74073 11.9239C7.85024 11.8108 7.91147 11.6596 7.91147 11.5021C7.91147 11.3447 7.85024 11.1935 7.74073 11.0804C7.63122 10.9673 7.48202 10.9013 7.32468 10.8962H6.25843C6.22534 10.8964 6.19305 10.886 6.16629 10.8666C6.13952 10.8471 6.11969 10.8196 6.10968 10.7881C5.88158 10.0925 5.73129 9.37369 5.66156 8.64495C5.65946 8.62326 5.66193 8.60137 5.6688 8.58069C5.67567 8.56001 5.68679 8.54099 5.70145 8.52487C5.71611 8.50874 5.73397 8.49586 5.75391 8.48704C5.77384 8.47823 5.79539 8.47369 5.81718 8.4737H7.17218C7.3328 8.4737 7.48685 8.40989 7.60042 8.29632C7.714 8.18274 7.77781 8.0287 7.77781 7.86808C7.77781 7.70745 7.714 7.55341 7.60042 7.43983C7.48685 7.32626 7.3328 7.26245 7.17218 7.26245H5.81218C5.79056 7.26239 5.76918 7.25787 5.74939 7.24915C5.7296 7.24044 5.71183 7.22773 5.69718 7.21183C5.68236 7.19593 5.67107 7.17707 5.66407 7.15649C5.65707 7.13592 5.65451 7.11409 5.65656 7.09245C5.69907 6.57429 5.78988 6.06123 5.92781 5.55995C5.93705 5.5271 5.95676 5.49815 5.98395 5.47751C6.01113 5.45687 6.0443 5.44566 6.07843 5.44558H7.77843C7.93905 5.44558 8.0931 5.38177 8.20667 5.26819C8.32025 5.15462 8.38406 5.00057 8.38406 4.83995C8.38406 4.67933 8.32025 4.52529 8.20667 4.41171C8.0931 4.29813 7.93905 4.23433 7.77843 4.23433H6.67218C6.64558 4.23429 6.61943 4.22743 6.59624 4.21441C6.57304 4.20139 6.55357 4.18264 6.53968 4.15995C6.52558 4.13748 6.51754 4.11173 6.51634 4.08523C6.51513 4.05873 6.52081 4.03236 6.53281 4.0087C6.89131 3.29487 7.33405 2.62657 7.85156 2.01808C7.86566 2.00147 7.88305 1.98795 7.90262 1.97838C7.9222 1.96881 7.94354 1.96338 7.96531 1.96245C8.07468 1.9587 8.24968 1.95183 8.32218 1.9562C8.65781 1.97933 8.82218 1.71245 8.83656 1.37683C8.8435 1.21654 8.7865 1.06006 8.67808 0.941795C8.56967 0.823533 8.41872 0.753177 8.25843 0.746201C8.18406 0.743076 8.11031 0.746201 8.03593 0.746201L7.93968 0.749326C6.98071 0.730284 6.02743 0.901098 5.13473 1.25194C4.24204 1.60277 3.42754 2.1267 2.73813 2.79357C2.04873 3.46044 1.49802 4.25708 1.11771 5.13763C0.737408 6.01818 0.535014 6.96525 0.522181 7.92433C0.498372 8.91487 0.671419 9.90029 1.03129 10.8235C1.39116 11.7466 1.9307 12.5892 2.61862 13.3023C3.30655 14.0154 4.12918 14.5848 5.03883 14.9776C5.94847 15.3705 6.92704 15.5788 7.91781 15.5906ZM6.16406 13.8256C6.18011 13.8532 6.18728 13.8852 6.1846 13.9171C6.18192 13.9489 6.16952 13.9792 6.14907 14.0038C6.12862 14.0285 6.10112 14.0462 6.07026 14.0547C6.03941 14.0631 6.0067 14.0619 5.97656 14.0512C4.9924 13.716 4.10884 13.1377 3.40781 12.37C3.38731 12.3476 3.37376 12.3198 3.3688 12.2899C3.36384 12.26 3.36769 12.2293 3.37988 12.2015C3.39207 12.1737 3.41208 12.1501 3.43746 12.1335C3.46283 12.117 3.49249 12.1081 3.52281 12.1081H5.21031C5.24196 12.107 5.2732 12.1156 5.29988 12.1326C5.32655 12.1497 5.34741 12.1745 5.35968 12.2037C5.5935 12.7607 5.86216 13.3024 6.16406 13.8256ZM3.28843 3.97245C3.96892 3.22916 4.82288 2.66594 5.77406 2.33308C5.80476 2.32134 5.83838 2.31959 5.87014 2.32807C5.9019 2.33655 5.93017 2.35483 5.95094 2.3803C5.97171 2.40578 5.98392 2.43716 5.98582 2.46997C5.98773 2.50279 5.97924 2.53537 5.96156 2.56308C5.64619 3.06344 5.37436 3.58996 5.14906 4.13683C5.13746 4.16562 5.11752 4.1903 5.09179 4.20767C5.06606 4.22505 5.03573 4.23433 5.00468 4.23433H3.40343C3.37311 4.2343 3.34346 4.22545 3.31808 4.20886C3.2927 4.19227 3.2727 4.16866 3.26051 4.1409C3.24832 4.11314 3.24447 4.08243 3.24943 4.05252C3.25438 4.02261 3.26794 3.99479 3.28843 3.97245ZM2.26218 5.53495C2.2747 5.50764 2.29477 5.48448 2.32001 5.4682C2.34526 5.45192 2.37464 5.4432 2.40468 5.44308H4.52968C4.55319 5.44304 4.57641 5.44832 4.5976 5.4585C4.61879 5.46869 4.63741 5.48353 4.65207 5.50191C4.66673 5.5203 4.67705 5.54175 4.68226 5.56468C4.68748 5.5876 4.68745 5.61141 4.68218 5.63433C4.56993 6.12139 4.49554 6.61641 4.45968 7.11495C4.45699 7.15436 4.43941 7.19126 4.41051 7.21819C4.38161 7.24511 4.34355 7.26004 4.30406 7.25995H1.95968C1.93713 7.26003 1.91483 7.25521 1.89433 7.24582C1.87382 7.23643 1.8556 7.2227 1.84093 7.20558C1.8264 7.18848 1.81566 7.16851 1.80941 7.14696C1.80316 7.12542 1.80155 7.10279 1.80468 7.08058C1.8869 6.54792 2.0408 6.02884 2.26218 5.53745V5.53495ZM2.35968 10.8075C2.03574 10.1271 1.83391 9.39516 1.76343 8.64495C1.7614 8.62327 1.76391 8.6014 1.7708 8.58074C1.77769 8.56008 1.7888 8.54108 1.80343 8.52495C1.81852 8.50855 1.83689 8.49551 1.85735 8.48668C1.87781 8.47785 1.8999 8.47343 1.92218 8.4737H4.30656C4.34587 8.47389 4.38368 8.48883 4.4125 8.51557C4.44132 8.5423 4.45905 8.57889 4.46218 8.61808C4.51761 9.32181 4.64068 10.0186 4.82968 10.6987C4.83616 10.7219 4.83717 10.7463 4.83263 10.7699C4.8281 10.7935 4.81814 10.8158 4.80354 10.835C4.78894 10.8541 4.7701 10.8696 4.7485 10.8802C4.7269 10.8908 4.70313 10.8963 4.67906 10.8962H2.50218C2.47246 10.8964 2.44329 10.8882 2.41806 10.8725C2.39283 10.8568 2.37259 10.8342 2.35968 10.8075Z" fill="url(#paint0_linear_22_242)"/>
<path d="M11.8671 6.04249C10.9839 6.04365 10.1371 6.39508 9.51265 7.01969C8.88815 7.64431 8.53688 8.49111 8.53589 9.37437V11.4937C8.53581 11.5335 8.54357 11.5729 8.55874 11.6097C8.5739 11.6465 8.59617 11.6799 8.62427 11.708C8.65237 11.7362 8.68574 11.7585 8.72248 11.7738C8.75923 11.789 8.79861 11.7969 8.83839 11.7969H9.93026C9.96946 11.7967 10.0073 11.8114 10.0361 11.8379C10.065 11.8645 10.0827 11.9009 10.0859 11.94L10.354 15.1537C10.3604 15.2292 10.3949 15.2996 10.4507 15.3508C10.5065 15.4021 10.5795 15.4306 10.6553 15.4306H13.0784C13.1542 15.4307 13.2273 15.4023 13.2831 15.351C13.3389 15.2997 13.3734 15.2293 13.3796 15.1537L13.6478 11.94C13.6509 11.9009 13.6687 11.8645 13.6975 11.8379C13.7264 11.8114 13.7642 11.7967 13.8034 11.7969H14.8953C14.9757 11.7969 15.0528 11.7649 15.1096 11.7081C15.1665 11.6512 15.1984 11.5741 15.1984 11.4937V9.37687C15.1981 8.49318 14.8471 7.64573 14.2225 7.02058C13.5979 6.39542 12.7508 6.04365 11.8671 6.04249ZM12.3209 9.94874C12.3165 10.0662 12.2668 10.1775 12.1821 10.2591C12.0974 10.3407 11.9844 10.3863 11.8668 10.3863C11.7492 10.3863 11.6362 10.3407 11.5515 10.2591C11.4669 10.1775 11.4171 10.0662 11.4128 9.94874V7.55937C11.4171 7.44186 11.4669 7.33061 11.5515 7.24902C11.6362 7.16743 11.7492 7.12184 11.8668 7.12184C11.9844 7.12184 12.0974 7.16743 12.1821 7.24902C12.2668 7.33061 12.3165 7.44186 12.3209 7.55937V9.94874ZM11.8671 5.74249C12.3464 5.74249 12.8149 5.60036 13.2134 5.33408C13.6119 5.06779 13.9225 4.68932 14.1059 4.24651C14.2893 3.80371 14.3372 3.31647 14.2437 2.84641C14.1501 2.37635 13.9193 1.94459 13.5803 1.60574C13.2414 1.26688 12.8096 1.03615 12.3395 0.942725C11.8694 0.849299 11.3822 0.897374 10.9394 1.08087C10.4967 1.26437 10.1183 1.57504 9.85208 1.9736C9.5859 2.37217 9.44389 2.84072 9.44401 3.31999C9.44468 3.96238 9.7002 4.57827 10.1545 5.03245C10.6088 5.48663 11.2247 5.74199 11.8671 5.74249ZM10.4709 2.74749C10.48 2.72628 10.4937 2.70735 10.511 2.69203C10.5282 2.67672 10.5487 2.66541 10.5708 2.6589C10.593 2.65239 10.6163 2.65085 10.6391 2.65439C10.6619 2.65793 10.6836 2.66646 10.7028 2.67937C11.2425 3.04683 11.8805 3.24288 12.5334 3.24187C12.7573 3.24113 12.9806 3.21726 13.1996 3.17062C13.2214 3.16581 13.2439 3.16602 13.2656 3.17121C13.2873 3.17641 13.3074 3.18647 13.3246 3.20062C13.342 3.21477 13.356 3.23259 13.3656 3.2528C13.3752 3.27301 13.3802 3.29511 13.3803 3.31749C13.3722 3.71372 13.2092 4.091 12.9261 4.36837C12.643 4.64575 12.2625 4.8011 11.8662 4.8011C11.4699 4.8011 11.0894 4.64575 10.8063 4.36837C10.5232 4.091 10.3602 3.71372 10.3521 3.31749C10.3533 3.12147 10.3936 2.92765 10.4709 2.74749Z" fill="url(#paint1_linear_22_242)"/>
</g>
<defs>
<linearGradient id="paint0_linear_22_242" x1="4.67857" y1="0.744812" x2="4.67857" y2="15.5906" gradientUnits="userSpaceOnUse">
<stop stop-color="#2257E2"/>
<stop offset="1" stop-color="#5AA6FF"/>
</linearGradient>
<linearGradient id="paint1_linear_22_242" x1="11.8671" y1="0.89624" x2="11.8671" y2="15.4306" gradientUnits="userSpaceOnUse">
<stop stop-color="#2257E2"/>
<stop offset="1" stop-color="#5AA6FF"/>
</linearGradient>
<clipPath id="clip0_22_242">
<rect width="15" height="15" fill="white" transform="translate(0.359619 0.66748)"/>
</clipPath>
</defs>
</svg>
