<svg width="36" height="36" viewBox="0 0 36 36" fill="none" xmlns="http://www.w3.org/2000/svg">
<circle cx="18" cy="18" r="18" fill="#5FCF64"/>
<g clip-path="url(#clip0_2657_19968)">
<path d="M18 8C16.0222 8 14.0888 8.58649 12.4443 9.6853C10.7998 10.7841 9.51809 12.3459 8.76121 14.1732C8.00433 16.0004 7.8063 18.0111 8.19215 19.9509C8.578 21.8907 9.53041 23.6725 10.9289 25.0711C12.3275 26.4696 14.1093 27.422 16.0491 27.8079C17.9889 28.1937 19.9996 27.9957 21.8268 27.2388C23.6541 26.4819 25.2159 25.2002 26.3147 23.5557C27.4135 21.9112 28 19.9778 28 18C27.9969 15.3488 26.9424 12.807 25.0677 10.9323C23.193 9.05765 20.6512 8.00309 18 8V8ZM23.7725 14.8333L18.0683 22.5742C18.001 22.6635 17.9165 22.7386 17.8199 22.7949C17.7232 22.8513 17.6163 22.8878 17.5054 22.9024C17.3944 22.917 17.2817 22.9093 17.1738 22.8799C17.0658 22.8504 16.9648 22.7997 16.8767 22.7308L12.8033 19.4742C12.7179 19.4058 12.6467 19.3212 12.5939 19.2253C12.5411 19.1294 12.5077 19.0241 12.4957 18.9153C12.4713 18.6955 12.5352 18.4751 12.6733 18.3025C12.8115 18.1299 13.0125 18.0192 13.2322 17.9948C13.452 17.9705 13.6724 18.0344 13.845 18.1725L17.2417 20.89L22.4308 13.8475C22.4933 13.7538 22.5741 13.6737 22.6684 13.612C22.7627 13.5504 22.8686 13.5085 22.9795 13.489C23.0904 13.4694 23.2042 13.4725 23.3139 13.4981C23.4236 13.5238 23.527 13.5714 23.6177 13.6381C23.7085 13.7048 23.7848 13.7892 23.8421 13.8862C23.8993 13.9833 23.9363 14.0909 23.9507 14.2026C23.9652 14.3143 23.9569 14.4278 23.9262 14.5362C23.8956 14.6446 23.8433 14.7457 23.7725 14.8333Z" fill="white"/>
</g>
<defs>
<clipPath id="clip0_2657_19968">
<rect width="20" height="20" fill="white" transform="translate(8 8)"/>
</clipPath>
</defs>
</svg>
