<svg width="20" height="20" viewBox="0 0 20 20" fill="none" xmlns="http://www.w3.org/2000/svg">
<g clip-path="url(#clip0_334_2122)">
<path d="M8.95833 2.08333H11.0417C11.1522 2.08333 11.2582 2.03943 11.3363 1.96129C11.4144 1.88315 11.4583 1.77717 11.4583 1.66667V0.833333C11.4583 0.61232 11.3705 0.400358 11.2143 0.244078C11.058 0.0877974 10.846 0 10.625 0L9.375 0C9.15399 0 8.94202 0.0877974 8.78574 0.244078C8.62946 0.400358 8.54167 0.61232 8.54167 0.833333V1.66667C8.54167 1.77717 8.58556 1.88315 8.6637 1.96129C8.74185 2.03943 8.84783 2.08333 8.95833 2.08333ZM19.1667 18.3333C19.1114 18.3333 19.0584 18.3114 19.0194 18.2723C18.9803 18.2332 18.9583 18.1803 18.9583 18.125V11.4583C18.9583 11.2373 18.8705 11.0254 18.7143 10.8691C18.558 10.7128 18.346 10.625 18.125 10.625H16.875V10C16.875 9.83424 16.8092 9.67527 16.6919 9.55806C16.5747 9.44085 16.4158 9.375 16.25 9.375C16.0842 9.375 15.9253 9.44085 15.8081 9.55806C15.6908 9.67527 15.625 9.83424 15.625 10V10.625C15.404 10.625 15.192 10.7128 15.0357 10.8691C14.8795 11.0254 14.7917 11.2373 14.7917 11.4583V17.9167C14.7917 18.0272 14.7478 18.1332 14.6696 18.2113C14.5915 18.2894 14.4855 18.3333 14.375 18.3333H13.9583C13.8478 18.3333 13.7418 18.2894 13.6637 18.2113C13.5856 18.1332 13.5417 18.0272 13.5417 17.9167V4.16667C13.5417 3.94565 13.4539 3.73369 13.2976 3.57741C13.1413 3.42113 12.9293 3.33333 12.7083 3.33333H7.29167C7.07065 3.33333 6.85869 3.42113 6.70241 3.57741C6.54613 3.73369 6.45833 3.94565 6.45833 4.16667V17.9167C6.45833 18.0272 6.41443 18.1332 6.33629 18.2113C6.25815 18.2894 6.15217 18.3333 6.04167 18.3333H5.625C5.51449 18.3333 5.40851 18.2894 5.33037 18.2113C5.25223 18.1332 5.20833 18.0272 5.20833 17.9167V11.4583C5.20833 11.2373 5.12054 11.0254 4.96426 10.8691C4.80798 10.7128 4.59601 10.625 4.375 10.625V10C4.375 9.83424 4.30915 9.67527 4.19194 9.55806C4.07473 9.44085 3.91576 9.375 3.75 9.375C3.58424 9.375 3.42527 9.44085 3.30806 9.55806C3.19085 9.67527 3.125 9.83424 3.125 10V10.625H1.875C1.65399 10.625 1.44202 10.7128 1.28574 10.8691C1.12946 11.0254 1.04167 11.2373 1.04167 11.4583V18.125C1.04167 18.1803 1.01972 18.2332 0.980647 18.2723C0.941577 18.3114 0.888587 18.3333 0.833333 18.3333C0.61232 18.3333 0.400358 18.4211 0.244078 18.5774C0.0877974 18.7337 0 18.9457 0 19.1667C0 19.3877 0.0877974 19.5996 0.244078 19.7559C0.400358 19.9122 0.61232 20 0.833333 20H19.1667C19.3877 20 19.5996 19.9122 19.7559 19.7559C19.9122 19.5996 20 19.3877 20 19.1667C20 18.9457 19.9122 18.7337 19.7559 18.5774C19.5996 18.4211 19.3877 18.3333 19.1667 18.3333ZM8.33333 5.41667H11.6667C11.8324 5.41667 11.9914 5.48251 12.1086 5.59972C12.2258 5.71694 12.2917 5.87591 12.2917 6.04167C12.2917 6.20743 12.2258 6.3664 12.1086 6.48361C11.9914 6.60082 11.8324 6.66667 11.6667 6.66667H8.33333C8.16757 6.66667 8.0086 6.60082 7.89139 6.48361C7.77418 6.3664 7.70833 6.20743 7.70833 6.04167C7.70833 5.87591 7.77418 5.71694 7.89139 5.59972C8.0086 5.48251 8.16757 5.41667 8.33333 5.41667ZM8.33333 8.75H11.6667C11.8324 8.75 11.9914 8.81585 12.1086 8.93306C12.2258 9.05027 12.2917 9.20924 12.2917 9.375C12.2917 9.54076 12.2258 9.69973 12.1086 9.81694C11.9914 9.93415 11.8324 10 11.6667 10H8.33333C8.16757 10 8.0086 9.93415 7.89139 9.81694C7.77418 9.69973 7.70833 9.54076 7.70833 9.375C7.70833 9.20924 7.77418 9.05027 7.89139 8.93306C8.0086 8.81585 8.16757 8.75 8.33333 8.75ZM8.33333 12.0833H11.6667C11.8324 12.0833 11.9914 12.1492 12.1086 12.2664C12.2258 12.3836 12.2917 12.5426 12.2917 12.7083C12.2917 12.8741 12.2258 13.0331 12.1086 13.1503C11.9914 13.2675 11.8324 13.3333 11.6667 13.3333H8.33333C8.16757 13.3333 8.0086 13.2675 7.89139 13.1503C7.77418 13.0331 7.70833 12.8741 7.70833 12.7083C7.70833 12.5426 7.77418 12.3836 7.89139 12.2664C8.0086 12.1492 8.16757 12.0833 8.33333 12.0833ZM11.875 16.6667H8.125C7.95924 16.6667 7.80027 16.6008 7.68306 16.4836C7.56585 16.3664 7.5 16.2074 7.5 16.0417C7.5 15.8759 7.56585 15.7169 7.68306 15.5997C7.80027 15.4825 7.95924 15.4167 8.125 15.4167H11.875C12.0408 15.4167 12.1997 15.4825 12.3169 15.5997C12.4342 15.7169 12.5 15.8759 12.5 16.0417C12.5 16.2074 12.4342 16.3664 12.3169 16.4836C12.1997 16.6008 12.0408 16.6667 11.875 16.6667Z" fill="url(#paint0_linear_334_2122)"/>
</g>
<defs>
<linearGradient id="paint0_linear_334_2122" x1="10" y1="0" x2="10" y2="20" gradientUnits="userSpaceOnUse">
<stop stop-color="#2257E2"/>
<stop offset="1" stop-color="#5AA6FF"/>
</linearGradient>
<clipPath id="clip0_334_2122">
<rect width="20" height="20" fill="white"/>
</clipPath>
</defs>
</svg>
