<svg width="24" height="23" viewBox="0 0 24 23" fill="none" xmlns="http://www.w3.org/2000/svg">
<g filter="url(#filter0_d_18_578)">
<g filter="url(#filter1_d_18_578)">
<path d="M6.68578 3.75H17.6345C17.6839 3.74996 17.7325 3.73825 17.7764 3.71582C17.8203 3.6934 17.8583 3.66089 17.8873 3.62096C17.9162 3.58103 17.9353 3.53481 17.943 3.48609C17.9507 3.43737 17.9467 3.38752 17.9314 3.34062C17.2852 1.375 14.9152 0 12.1602 0C9.40516 0 7.03516 1.375 6.38891 3.34062C6.37362 3.38752 6.36964 3.43737 6.37731 3.48609C6.38498 3.53481 6.40407 3.58103 6.43303 3.62096C6.46199 3.66089 6.49998 3.6934 6.54391 3.71582C6.58784 3.73825 6.63646 3.74996 6.68578 3.75ZM19.1914 15C19.3157 15 19.435 14.9506 19.5229 14.8627C19.6108 14.7748 19.6602 14.6556 19.6602 14.5312C19.6602 14.4069 19.6108 14.2877 19.5229 14.1998C19.435 14.1119 19.3157 14.0625 19.1914 14.0625H18.8889C18.8349 14.0625 18.7818 14.0485 18.7348 14.0219C18.6878 13.9953 18.6485 13.957 18.6208 13.9106L18.0533 12.9644C18.0255 12.918 17.9862 12.8797 17.9392 12.8531C17.8922 12.8265 17.8392 12.8125 17.7852 12.8125H6.53516C6.48115 12.8125 6.42806 12.8265 6.38107 12.8531C6.33408 12.8797 6.29479 12.918 6.26703 12.9644L5.69953 13.9106C5.67177 13.957 5.63248 13.9953 5.58549 14.0219C5.5385 14.0485 5.48541 14.0625 5.43141 14.0625H5.12891C5.00459 14.0625 4.88536 14.1119 4.79745 14.1998C4.70954 14.2877 4.66016 14.4069 4.66016 14.5312C4.66016 14.6556 4.70954 14.7748 4.79745 14.8627C4.88536 14.9506 5.00459 15 5.12891 15H19.1914Z" fill="url(#paint0_linear_18_578)"/>
</g>
<g filter="url(#filter2_d_18_578)">
<path d="M8.09766 7.5H6.84766C6.67507 7.5 6.53516 7.63991 6.53516 7.8125V11.875C6.53516 12.0476 6.67507 12.1875 6.84766 12.1875H8.09766C8.27025 12.1875 8.41016 12.0476 8.41016 11.875V7.8125C8.41016 7.63991 8.27025 7.5 8.09766 7.5Z" fill="url(#paint1_linear_18_578)"/>
</g>
<g filter="url(#filter3_d_18_578)">
<path d="M11.2227 7.5H9.97266C9.80007 7.5 9.66016 7.63991 9.66016 7.8125V11.875C9.66016 12.0476 9.80007 12.1875 9.97266 12.1875H11.2227C11.3952 12.1875 11.5352 12.0476 11.5352 11.875V7.8125C11.5352 7.63991 11.3952 7.5 11.2227 7.5Z" fill="url(#paint2_linear_18_578)"/>
</g>
<g filter="url(#filter4_d_18_578)">
<path d="M14.3477 7.5H13.0977C12.9251 7.5 12.7852 7.63991 12.7852 7.8125V11.875C12.7852 12.0476 12.9251 12.1875 13.0977 12.1875H14.3477C14.5202 12.1875 14.6602 12.0476 14.6602 11.875V7.8125C14.6602 7.63991 14.5202 7.5 14.3477 7.5Z" fill="url(#paint3_linear_18_578)"/>
</g>
<g filter="url(#filter5_d_18_578)">
<path d="M17.4727 7.5H16.2227C16.0501 7.5 15.9102 7.63991 15.9102 7.8125V11.875C15.9102 12.0476 16.0501 12.1875 16.2227 12.1875H17.4727C17.6452 12.1875 17.7852 12.0476 17.7852 11.875V7.8125C17.7852 7.63991 17.6452 7.5 17.4727 7.5Z" fill="url(#paint4_linear_18_578)"/>
</g>
<g filter="url(#filter6_d_18_578)">
<path d="M5.85515 6.44813C5.89669 6.57241 5.97625 6.6805 6.08257 6.7571C6.18889 6.8337 6.31661 6.87494 6.44765 6.875H17.8727C18.0039 6.87503 18.1318 6.83376 18.2382 6.75703C18.3447 6.6803 18.4243 6.572 18.4658 6.4475L18.882 5.1975C18.9133 5.10359 18.9218 5.0036 18.9069 4.90575C18.892 4.8079 18.854 4.715 18.7962 4.63469C18.7383 4.55438 18.6622 4.48895 18.5741 4.44381C18.4861 4.39866 18.3885 4.37508 18.2895 4.375H6.03078C5.9318 4.37508 5.83425 4.39866 5.74617 4.44381C5.65808 4.48895 5.58198 4.55438 5.52413 4.63469C5.46628 4.715 5.42832 4.8079 5.4134 4.90575C5.39847 5.0036 5.407 5.10359 5.43828 5.1975L5.85515 6.44813Z" fill="url(#paint5_linear_18_578)"/>
</g>
</g>
<defs>
<filter id="filter0_d_18_578" x="0.660156" y="0" width="23" height="23" filterUnits="userSpaceOnUse" color-interpolation-filters="sRGB">
<feFlood flood-opacity="0" result="BackgroundImageFix"/>
<feColorMatrix in="SourceAlpha" type="matrix" values="0 0 0 0 0 0 0 0 0 0 0 0 0 0 0 0 0 0 127 0" result="hardAlpha"/>
<feOffset dy="4"/>
<feGaussianBlur stdDeviation="2"/>
<feColorMatrix type="matrix" values="0 0 0 0 0 0 0 0 0 0 0 0 0 0 0 0 0 0 0.05 0"/>
<feBlend mode="normal" in2="BackgroundImageFix" result="effect1_dropShadow_18_578"/>
<feBlend mode="normal" in="SourceGraphic" in2="effect1_dropShadow_18_578" result="shape"/>
</filter>
<filter id="filter1_d_18_578" x="0.660156" y="0" width="23" height="23" filterUnits="userSpaceOnUse" color-interpolation-filters="sRGB">
<feFlood flood-opacity="0" result="BackgroundImageFix"/>
<feColorMatrix in="SourceAlpha" type="matrix" values="0 0 0 0 0 0 0 0 0 0 0 0 0 0 0 0 0 0 127 0" result="hardAlpha"/>
<feOffset dy="4"/>
<feGaussianBlur stdDeviation="2"/>
<feColorMatrix type="matrix" values="0 0 0 0 0 0 0 0 0 0 0 0 0 0 0 0 0 0 0.05 0"/>
<feBlend mode="normal" in2="BackgroundImageFix" result="effect1_dropShadow_18_578"/>
<feBlend mode="normal" in="SourceGraphic" in2="effect1_dropShadow_18_578" result="shape"/>
</filter>
<filter id="filter2_d_18_578" x="2.53516" y="7.5" width="9.875" height="12.6875" filterUnits="userSpaceOnUse" color-interpolation-filters="sRGB">
<feFlood flood-opacity="0" result="BackgroundImageFix"/>
<feColorMatrix in="SourceAlpha" type="matrix" values="0 0 0 0 0 0 0 0 0 0 0 0 0 0 0 0 0 0 127 0" result="hardAlpha"/>
<feOffset dy="4"/>
<feGaussianBlur stdDeviation="2"/>
<feColorMatrix type="matrix" values="0 0 0 0 0 0 0 0 0 0 0 0 0 0 0 0 0 0 0.05 0"/>
<feBlend mode="normal" in2="BackgroundImageFix" result="effect1_dropShadow_18_578"/>
<feBlend mode="normal" in="SourceGraphic" in2="effect1_dropShadow_18_578" result="shape"/>
</filter>
<filter id="filter3_d_18_578" x="5.66016" y="7.5" width="9.875" height="12.6875" filterUnits="userSpaceOnUse" color-interpolation-filters="sRGB">
<feFlood flood-opacity="0" result="BackgroundImageFix"/>
<feColorMatrix in="SourceAlpha" type="matrix" values="0 0 0 0 0 0 0 0 0 0 0 0 0 0 0 0 0 0 127 0" result="hardAlpha"/>
<feOffset dy="4"/>
<feGaussianBlur stdDeviation="2"/>
<feColorMatrix type="matrix" values="0 0 0 0 0 0 0 0 0 0 0 0 0 0 0 0 0 0 0.05 0"/>
<feBlend mode="normal" in2="BackgroundImageFix" result="effect1_dropShadow_18_578"/>
<feBlend mode="normal" in="SourceGraphic" in2="effect1_dropShadow_18_578" result="shape"/>
</filter>
<filter id="filter4_d_18_578" x="8.78516" y="7.5" width="9.875" height="12.6875" filterUnits="userSpaceOnUse" color-interpolation-filters="sRGB">
<feFlood flood-opacity="0" result="BackgroundImageFix"/>
<feColorMatrix in="SourceAlpha" type="matrix" values="0 0 0 0 0 0 0 0 0 0 0 0 0 0 0 0 0 0 127 0" result="hardAlpha"/>
<feOffset dy="4"/>
<feGaussianBlur stdDeviation="2"/>
<feColorMatrix type="matrix" values="0 0 0 0 0 0 0 0 0 0 0 0 0 0 0 0 0 0 0.05 0"/>
<feBlend mode="normal" in2="BackgroundImageFix" result="effect1_dropShadow_18_578"/>
<feBlend mode="normal" in="SourceGraphic" in2="effect1_dropShadow_18_578" result="shape"/>
</filter>
<filter id="filter5_d_18_578" x="11.9102" y="7.5" width="9.875" height="12.6875" filterUnits="userSpaceOnUse" color-interpolation-filters="sRGB">
<feFlood flood-opacity="0" result="BackgroundImageFix"/>
<feColorMatrix in="SourceAlpha" type="matrix" values="0 0 0 0 0 0 0 0 0 0 0 0 0 0 0 0 0 0 127 0" result="hardAlpha"/>
<feOffset dy="4"/>
<feGaussianBlur stdDeviation="2"/>
<feColorMatrix type="matrix" values="0 0 0 0 0 0 0 0 0 0 0 0 0 0 0 0 0 0 0.05 0"/>
<feBlend mode="normal" in2="BackgroundImageFix" result="effect1_dropShadow_18_578"/>
<feBlend mode="normal" in="SourceGraphic" in2="effect1_dropShadow_18_578" result="shape"/>
</filter>
<filter id="filter6_d_18_578" x="1.40625" y="4.375" width="21.5078" height="10.5" filterUnits="userSpaceOnUse" color-interpolation-filters="sRGB">
<feFlood flood-opacity="0" result="BackgroundImageFix"/>
<feColorMatrix in="SourceAlpha" type="matrix" values="0 0 0 0 0 0 0 0 0 0 0 0 0 0 0 0 0 0 127 0" result="hardAlpha"/>
<feOffset dy="4"/>
<feGaussianBlur stdDeviation="2"/>
<feColorMatrix type="matrix" values="0 0 0 0 0 0 0 0 0 0 0 0 0 0 0 0 0 0 0.05 0"/>
<feBlend mode="normal" in2="BackgroundImageFix" result="effect1_dropShadow_18_578"/>
<feBlend mode="normal" in="SourceGraphic" in2="effect1_dropShadow_18_578" result="shape"/>
</filter>
<linearGradient id="paint0_linear_18_578" x1="12.1602" y1="0" x2="12.1602" y2="15" gradientUnits="userSpaceOnUse">
<stop stop-color="#2257E2"/>
<stop offset="1" stop-color="#5AA6FF"/>
</linearGradient>
<linearGradient id="paint1_linear_18_578" x1="7.47266" y1="7.5" x2="7.47266" y2="12.1875" gradientUnits="userSpaceOnUse">
<stop stop-color="#2257E2"/>
<stop offset="1" stop-color="#5AA6FF"/>
</linearGradient>
<linearGradient id="paint2_linear_18_578" x1="10.5977" y1="7.5" x2="10.5977" y2="12.1875" gradientUnits="userSpaceOnUse">
<stop stop-color="#2257E2"/>
<stop offset="1" stop-color="#5AA6FF"/>
</linearGradient>
<linearGradient id="paint3_linear_18_578" x1="13.7227" y1="7.5" x2="13.7227" y2="12.1875" gradientUnits="userSpaceOnUse">
<stop stop-color="#2257E2"/>
<stop offset="1" stop-color="#5AA6FF"/>
</linearGradient>
<linearGradient id="paint4_linear_18_578" x1="16.8477" y1="7.5" x2="16.8477" y2="12.1875" gradientUnits="userSpaceOnUse">
<stop stop-color="#2257E2"/>
<stop offset="1" stop-color="#5AA6FF"/>
</linearGradient>
<linearGradient id="paint5_linear_18_578" x1="12.1602" y1="4.375" x2="12.1602" y2="6.875" gradientUnits="userSpaceOnUse">
<stop stop-color="#2257E2"/>
<stop offset="1" stop-color="#5AA6FF"/>
</linearGradient>
</defs>
</svg>
