<svg width="22" height="15" viewBox="0 0 22 15" fill="none" xmlns="http://www.w3.org/2000/svg">
<g filter="url(#filter0_d_4494_19962)">
<path d="M17.5892 9.6027C16.7558 9.6027 15.973 9.28117 15.3849 8.69727C14.797 8.11369 14.4733 7.33641 14.4733 6.50863C14.4733 6.28177 14.2893 6.0979 14.0626 6.0979C13.8357 6.0979 13.6518 6.28177 13.6518 6.50863C13.6518 7.33641 13.328 8.11369 12.7401 8.69727C12.152 9.28117 11.3692 9.6027 10.5358 9.6027C10.3089 9.6027 10.125 9.78657 10.125 10.0134C10.125 10.2403 10.3089 10.4242 10.5358 10.4242C12.2539 10.4242 13.6518 11.8163 13.6518 13.5273C13.6518 13.7542 13.8357 13.9381 14.0626 13.9381C14.2893 13.9381 14.4733 13.7542 14.4733 13.5273C14.4733 11.8163 15.8711 10.4242 17.5892 10.4242C17.8161 10.4242 18 10.2403 18 10.0134C18 9.78657 17.8161 9.6027 17.5892 9.6027Z" fill="url(#paint0_linear_4494_19962)"/>
</g>
<g filter="url(#filter1_d_4494_19962)">
<path d="M9.70783 6.11295C8.47925 6.11295 7.47967 5.12098 7.47967 3.90157C7.47967 3.67131 7.29292 3.4845 7.0625 3.4845C6.83208 3.4845 6.64533 3.67131 6.64533 3.90157C6.64533 5.12098 5.64575 6.11295 4.41717 6.11295C4.18675 6.11295 4 6.29976 4 6.53003C4 6.76039 4.18675 6.9471 4.41717 6.9471C5.64575 6.9471 6.64533 7.94222 6.64533 9.16532C6.64533 9.39558 6.83208 9.5824 7.0625 9.5824C7.29292 9.5824 7.47967 9.39558 7.47967 9.16532C7.47967 7.94222 8.47925 6.9471 9.70783 6.9471C9.93825 6.9471 10.125 6.76039 10.125 6.53003C10.125 6.29976 9.93825 6.11295 9.70783 6.11295Z" fill="url(#paint1_linear_4494_19962)"/>
</g>
<g filter="url(#filter2_d_4494_19962)">
<path d="M10.494 2.54899C11.2932 2.54899 11.9435 3.19402 11.9435 3.98678C11.9435 4.19042 12.1087 4.35564 12.3125 4.35564C12.5163 4.35564 12.6815 4.19042 12.6815 3.98678C12.6815 3.19142 13.3318 2.54438 14.131 2.54438C14.3348 2.54438 14.5 2.37916 14.5 2.17552C14.5 1.97178 14.3348 1.80665 14.131 1.80665C13.3318 1.80665 12.6815 1.16163 12.6815 0.368862C12.6815 0.165123 12.5163 0 12.3125 0C12.1087 0 11.9435 0.165123 11.9435 0.368862C11.9435 1.16422 11.2932 1.81126 10.494 1.81126C10.2902 1.81126 10.125 1.97639 10.125 2.18013C10.125 2.38386 10.2902 2.54899 10.494 2.54899Z" fill="url(#paint2_linear_4494_19962)"/>
</g>
<defs>
<filter id="filter0_d_4494_19962" x="6.125" y="6.0979" width="15.875" height="15.8402" filterUnits="userSpaceOnUse" color-interpolation-filters="sRGB">
<feFlood flood-opacity="0" result="BackgroundImageFix"/>
<feColorMatrix in="SourceAlpha" type="matrix" values="0 0 0 0 0 0 0 0 0 0 0 0 0 0 0 0 0 0 127 0" result="hardAlpha"/>
<feOffset dy="4"/>
<feGaussianBlur stdDeviation="2"/>
<feColorMatrix type="matrix" values="0 0 0 0 0 0 0 0 0 0 0 0 0 0 0 0 0 0 0.05 0"/>
<feBlend mode="normal" in2="BackgroundImageFix" result="effect1_dropShadow_4494_19962"/>
<feBlend mode="normal" in="SourceGraphic" in2="effect1_dropShadow_4494_19962" result="shape"/>
</filter>
<filter id="filter1_d_4494_19962" x="0" y="3.4845" width="14.125" height="14.0979" filterUnits="userSpaceOnUse" color-interpolation-filters="sRGB">
<feFlood flood-opacity="0" result="BackgroundImageFix"/>
<feColorMatrix in="SourceAlpha" type="matrix" values="0 0 0 0 0 0 0 0 0 0 0 0 0 0 0 0 0 0 127 0" result="hardAlpha"/>
<feOffset dy="4"/>
<feGaussianBlur stdDeviation="2"/>
<feColorMatrix type="matrix" values="0 0 0 0 0 0 0 0 0 0 0 0 0 0 0 0 0 0 0.05 0"/>
<feBlend mode="normal" in2="BackgroundImageFix" result="effect1_dropShadow_4494_19962"/>
<feBlend mode="normal" in="SourceGraphic" in2="effect1_dropShadow_4494_19962" result="shape"/>
</filter>
<filter id="filter2_d_4494_19962" x="6.125" y="0" width="12.375" height="12.3556" filterUnits="userSpaceOnUse" color-interpolation-filters="sRGB">
<feFlood flood-opacity="0" result="BackgroundImageFix"/>
<feColorMatrix in="SourceAlpha" type="matrix" values="0 0 0 0 0 0 0 0 0 0 0 0 0 0 0 0 0 0 127 0" result="hardAlpha"/>
<feOffset dy="4"/>
<feGaussianBlur stdDeviation="2"/>
<feColorMatrix type="matrix" values="0 0 0 0 0 0 0 0 0 0 0 0 0 0 0 0 0 0 0.05 0"/>
<feBlend mode="normal" in2="BackgroundImageFix" result="effect1_dropShadow_4494_19962"/>
<feBlend mode="normal" in="SourceGraphic" in2="effect1_dropShadow_4494_19962" result="shape"/>
</filter>
<linearGradient id="paint0_linear_4494_19962" x1="14.0625" y1="6.0979" x2="14.0625" y2="13.9381" gradientUnits="userSpaceOnUse">
<stop stop-color="#2257E2"/>
<stop offset="1" stop-color="#5AA6FF"/>
</linearGradient>
<linearGradient id="paint1_linear_4494_19962" x1="7.0625" y1="3.4845" x2="7.0625" y2="9.5824" gradientUnits="userSpaceOnUse">
<stop stop-color="#2257E2"/>
<stop offset="1" stop-color="#5AA6FF"/>
</linearGradient>
<linearGradient id="paint2_linear_4494_19962" x1="12.3125" y1="0" x2="12.3125" y2="4.35564" gradientUnits="userSpaceOnUse">
<stop stop-color="#2257E2"/>
<stop offset="1" stop-color="#5AA6FF"/>
</linearGradient>
</defs>
</svg>
