<svg width="40" height="40" viewBox="0 0 40 40" fill="none" xmlns="http://www.w3.org/2000/svg">
<path d="M28.3135 14.9368L28.3147 14.9392C28.7333 15.7653 28.8779 16.7003 28.7284 17.6117C28.579 18.5231 28.1429 19.3657 27.481 20.0194L27.4809 20.0193L27.4733 20.0272L20.2913 27.4377L20.2912 27.4378C20.2726 27.457 20.2498 27.4727 20.2242 27.4835C20.1985 27.4943 20.1708 27.5 20.1426 27.5C20.1143 27.5 20.0866 27.4943 20.0609 27.4835C20.0353 27.4727 20.0126 27.457 19.9939 27.4378L19.9938 27.4377L12.802 20.0161L12.802 20.016L12.7955 20.0095C12.183 19.4002 11.7644 18.6278 11.5905 17.7876C11.4165 16.9474 11.4945 16.0752 11.8151 15.278C12.1357 14.4807 12.6852 13.7926 13.3969 13.2988C14.1075 12.8058 14.9487 12.5281 15.8173 12.5004C16.4546 12.4921 17.0868 12.6133 17.6745 12.8565C18.2635 13.1002 18.7951 13.4611 19.2363 13.9163L19.2363 13.9164L19.2438 13.9238L19.542 14.2188L19.542 14.2188L19.5444 14.2211C19.7047 14.3775 19.9197 14.4643 20.1426 14.4643C20.3654 14.4643 20.5804 14.3775 20.7407 14.2211L20.7407 14.2211L20.7431 14.2188L21.0413 13.9238L21.0414 13.9239L21.0489 13.9162C21.4899 13.4608 22.0214 13.0998 22.6104 12.8561C23.1984 12.6129 23.8309 12.4917 24.4686 12.5004C25.2732 12.5233 26.0561 12.7622 26.7332 13.1912C27.4112 13.6208 27.9573 14.2244 28.3135 14.9368Z" stroke="#717171"/>
<rect x="0.5" y="0.5" width="39" height="39" rx="3.5" stroke="#DDDDDD"/>
</svg>
