<svg width="36" height="36" viewBox="0 0 36 36" fill="none" xmlns="http://www.w3.org/2000/svg">
<circle cx="18" cy="18" r="18" fill="#717171"/>
<g clip-path="url(#clip0_27_8504)">
<path d="M12.9097 12.5649C13.3619 15.2391 14.9514 17.0708 17.7593 17.9999C20.5672 17.0708 22.1566 15.2391 22.6089 12.5649C22.6357 12.3862 22.6244 12.2037 22.5756 12.0299C22.5269 11.8561 22.442 11.6952 22.3267 11.5583C22.2114 11.4214 22.0685 11.3118 21.9078 11.237C21.7471 11.1621 21.5725 11.1239 21.3961 11.1249H14.1225C13.946 11.1239 13.7714 11.1621 13.6107 11.237C13.4501 11.3118 13.3072 11.4214 13.1919 11.5583C13.0766 11.6952 12.9916 11.8561 12.9429 12.0299C12.8942 12.2037 12.8829 12.3862 12.9097 12.5649V12.5649Z" stroke="white" stroke-width="2" stroke-linecap="round" stroke-linejoin="round"/>
<path d="M11.0503 8.625H24.4717" stroke="white" stroke-width="2" stroke-linecap="round" stroke-linejoin="round"/>
<path d="M14.1229 24.875C13.9464 24.876 13.7719 24.8378 13.6113 24.763C13.4507 24.6882 13.3079 24.5787 13.1926 24.4419C13.0773 24.3051 12.9923 24.1443 12.9436 23.9706C12.8948 23.7969 12.8834 23.6145 12.9101 23.4358C13.3623 20.7617 14.9517 18.93 17.7596 18C20.5676 18.93 22.157 20.7617 22.6092 23.4358C22.6359 23.6145 22.6245 23.7969 22.5757 23.9706C22.5269 24.1443 22.442 24.3051 22.3267 24.4419C22.2114 24.5787 22.0686 24.6882 21.908 24.763C21.7473 24.8378 21.5728 24.876 21.3964 24.875H14.1229Z" stroke="white" stroke-width="2" stroke-linecap="round" stroke-linejoin="round"/>
<path d="M11.0503 27.375H24.4717" stroke="white" stroke-width="2" stroke-linecap="round" stroke-linejoin="round"/>
</g>
<defs>
<clipPath id="clip0_27_8504">
<rect width="19.522" height="20" fill="white" transform="translate(8 8)"/>
</clipPath>
</defs>
</svg>
