<svg width="16" height="8" viewBox="0 0 16 8" fill="none" xmlns="http://www.w3.org/2000/svg">
<g filter="url(#filter0_d_4469_201)">
<path d="M11.3333 2.5H10.0833C10.0612 2.5 10.04 2.49122 10.0244 2.47559C10.0088 2.45996 10 2.43877 10 2.41667V1.16667C10 0.989856 9.92976 0.820286 9.80474 0.695262C9.67971 0.570238 9.51014 0.5 9.33333 0.5H4.66667C4.48986 0.5 4.32029 0.570238 4.19526 0.695262C4.07024 0.820286 4 0.989856 4 1.16667V5.83333C4 6.01014 4.07024 6.17971 4.19526 6.30474C4.32029 6.42976 4.48986 6.5 4.66667 6.5H5.91667C5.93877 6.5 5.95996 6.50878 5.97559 6.52441C5.99122 6.54004 6 6.56123 6 6.58333V7.83333C6 8.01014 6.07024 8.17971 6.19526 8.30474C6.32029 8.42976 6.48986 8.5 6.66667 8.5H11.3333C11.5101 8.5 11.6797 8.42976 11.8047 8.30474C11.9298 8.17971 12 8.01014 12 7.83333V3.16667C12 2.98986 11.9298 2.82029 11.8047 2.69526C11.6797 2.57024 11.5101 2.5 11.3333 2.5V2.5ZM4.66667 1.33333C4.66667 1.28913 4.68423 1.24674 4.71548 1.21548C4.74674 1.18423 4.78913 1.16667 4.83333 1.16667H9.16667C9.21087 1.16667 9.25326 1.18423 9.28452 1.21548C9.31577 1.24674 9.33333 1.28913 9.33333 1.33333V5.66667C9.33333 5.71087 9.31577 5.75326 9.28452 5.78452C9.25326 5.81577 9.21087 5.83333 9.16667 5.83333H4.83333C4.78913 5.83333 4.74674 5.81577 4.71548 5.78452C4.68423 5.75326 4.66667 5.71087 4.66667 5.66667V1.33333Z" fill="#5ABAFF"/>
</g>
<defs>
<filter id="filter0_d_4469_201" x="0" y="0.5" width="16" height="16" filterUnits="userSpaceOnUse" color-interpolation-filters="sRGB">
<feFlood flood-opacity="0" result="BackgroundImageFix"/>
<feColorMatrix in="SourceAlpha" type="matrix" values="0 0 0 0 0 0 0 0 0 0 0 0 0 0 0 0 0 0 127 0" result="hardAlpha"/>
<feOffset dy="4"/>
<feGaussianBlur stdDeviation="2"/>
<feColorMatrix type="matrix" values="0 0 0 0 0 0 0 0 0 0 0 0 0 0 0 0 0 0 0.05 0"/>
<feBlend mode="normal" in2="BackgroundImageFix" result="effect1_dropShadow_4469_201"/>
<feBlend mode="normal" in="SourceGraphic" in2="effect1_dropShadow_4469_201" result="shape"/>
</filter>
</defs>
</svg>
