<svg width="150" height="13" viewBox="0 0 150 13" fill="none" xmlns="http://www.w3.org/2000/svg">
<path opacity="0.5" d="M150 6.5L140 0.726497V12.2735L150 6.5ZM3.40909 7.5C3.96138 7.5 4.40909 7.05228 4.40909 6.5C4.40909 5.94772 3.96138 5.5 3.40909 5.5V7.5ZM10.2273 5.5C9.67499 5.5 9.22727 5.94772 9.22727 6.5C9.22727 7.05228 9.67499 7.5 10.2273 7.5V5.5ZM17.0455 7.5C17.5977 7.5 18.0455 7.05228 18.0455 6.5C18.0455 5.94772 17.5977 5.5 17.0455 5.5V7.5ZM23.8636 5.5C23.3114 5.5 22.8636 5.94772 22.8636 6.5C22.8636 7.05228 23.3114 7.5 23.8636 7.5V5.5ZM30.6818 7.5C31.2341 7.5 31.6818 7.05228 31.6818 6.5C31.6818 5.94772 31.2341 5.5 30.6818 5.5V7.5ZM37.5 5.5C36.9477 5.5 36.5 5.94772 36.5 6.5C36.5 7.05228 36.9477 7.5 37.5 7.5V5.5ZM44.3182 7.5C44.8705 7.5 45.3182 7.05228 45.3182 6.5C45.3182 5.94772 44.8705 5.5 44.3182 5.5V7.5ZM51.1364 5.5C50.5841 5.5 50.1364 5.94772 50.1364 6.5C50.1364 7.05228 50.5841 7.5 51.1364 7.5V5.5ZM57.9546 7.5C58.5068 7.5 58.9546 7.05228 58.9546 6.5C58.9546 5.94772 58.5068 5.5 57.9546 5.5V7.5ZM64.7727 5.5C64.2205 5.5 63.7727 5.94772 63.7727 6.5C63.7727 7.05228 64.2205 7.5 64.7727 7.5V5.5ZM71.5909 7.5C72.1432 7.5 72.5909 7.05228 72.5909 6.5C72.5909 5.94772 72.1432 5.5 71.5909 5.5V7.5ZM78.4091 5.5C77.8568 5.5 77.4091 5.94772 77.4091 6.5C77.4091 7.05228 77.8568 7.5 78.4091 7.5V5.5ZM85.2273 7.5C85.7796 7.5 86.2273 7.05228 86.2273 6.5C86.2273 5.94772 85.7796 5.5 85.2273 5.5V7.5ZM92.0455 5.5C91.4932 5.5 91.0455 5.94772 91.0455 6.5C91.0455 7.05228 91.4932 7.5 92.0455 7.5V5.5ZM98.8637 7.5C99.4159 7.5 99.8637 7.05228 99.8637 6.5C99.8637 5.94772 99.4159 5.5 98.8637 5.5V7.5ZM105.682 5.5C105.13 5.5 104.682 5.94772 104.682 6.5C104.682 7.05228 105.13 7.5 105.682 7.5V5.5ZM112.5 7.5C113.052 7.5 113.5 7.05228 113.5 6.5C113.5 5.94772 113.052 5.5 112.5 5.5V7.5ZM119.318 5.5C118.766 5.5 118.318 5.94772 118.318 6.5C118.318 7.05228 118.766 7.5 119.318 7.5V5.5ZM126.136 7.5C126.689 7.5 127.136 7.05228 127.136 6.5C127.136 5.94772 126.689 5.5 126.136 5.5V7.5ZM132.955 5.5C132.402 5.5 131.955 5.94772 131.955 6.5C131.955 7.05228 132.402 7.5 132.955 7.5V5.5ZM139.773 7.5C140.325 7.5 140.773 7.05228 140.773 6.5C140.773 5.94772 140.325 5.5 139.773 5.5V7.5ZM146.591 5.5C146.039 5.5 145.591 5.94772 145.591 6.5C145.591 7.05228 146.039 7.5 146.591 7.5V5.5ZM0 7.5H3.40909V5.5H0V7.5ZM10.2273 7.5H17.0455V5.5H10.2273V7.5ZM23.8636 7.5H30.6818V5.5H23.8636V7.5ZM37.5 7.5H44.3182V5.5H37.5V7.5ZM51.1364 7.5H57.9546V5.5H51.1364V7.5ZM64.7727 7.5H71.5909V5.5H64.7727V7.5ZM78.4091 7.5H85.2273V5.5H78.4091V7.5ZM92.0455 7.5H98.8637V5.5H92.0455V7.5ZM105.682 7.5H112.5V5.5H105.682V7.5ZM119.318 7.5H126.136V5.5H119.318V7.5ZM132.955 7.5H139.773V5.5H132.955V7.5Z" fill="url(#paint0_linear_473_2220)"/>
<defs>
<linearGradient id="paint0_linear_473_2220" x1="136" y1="7.00052" x2="10.5" y2="7.00044" gradientUnits="userSpaceOnUse">
<stop stop-color="#717171"/>
<stop offset="1" stop-color="#717171" stop-opacity="0"/>
</linearGradient>
</defs>
</svg>
