<svg width="20" height="20" viewBox="0 0 20 20" fill="none" xmlns="http://www.w3.org/2000/svg">
<g clip-path="url(#clip0_334_2128)">
<path d="M13.2225 8.71583C13.2878 8.68761 13.3449 8.64313 13.3881 8.58661C13.4314 8.5301 13.4595 8.46344 13.4697 8.393C13.4799 8.32256 13.4718 8.25068 13.4464 8.18422C13.4209 8.11775 13.3788 8.05892 13.3242 8.01334C12.9586 7.70866 12.5525 7.45624 12.1175 7.26333C12.083 7.24842 12.0531 7.2244 12.0312 7.19384C12.0093 7.16328 11.996 7.12733 11.993 7.08984C11.9899 7.05235 11.9971 7.01472 12.0137 6.98099C12.0304 6.94726 12.0559 6.91869 12.0875 6.89833C12.7684 6.4563 13.2882 5.80598 13.5693 5.04438C13.8503 4.28278 13.8777 3.45072 13.6472 2.67232C13.4167 1.89392 12.9407 1.21089 12.2902 0.725137C11.6398 0.239382 10.8497 -0.0230713 10.0379 -0.0230713C9.2261 -0.0230713 8.43604 0.239382 7.7856 0.725137C7.13515 1.21089 6.65917 1.89392 6.42867 2.67232C6.19817 3.45072 6.22549 4.28278 6.50657 5.04438C6.78765 5.80598 7.30742 6.4563 7.98833 6.89833C8.01975 6.91879 8.04507 6.94735 8.06161 6.981C8.07815 7.01465 8.08531 7.05214 8.08232 7.08951C8.07933 7.12688 8.06632 7.16276 8.04464 7.19335C8.02296 7.22395 7.99343 7.24812 7.95917 7.26333C7.51358 7.46014 7.0983 7.71942 6.72583 8.03334C6.6719 8.07891 6.63043 8.13743 6.60532 8.20342C6.58021 8.26942 6.57228 8.34071 6.58227 8.4106C6.59227 8.4805 6.61987 8.54671 6.66247 8.60301C6.70507 8.65932 6.76129 8.70388 6.82583 8.7325C7.59648 9.07704 8.26816 9.60975 8.77917 10.2817C8.81798 10.3334 8.8683 10.3754 8.92616 10.4043C8.98402 10.4333 9.04781 10.4483 9.1125 10.4483H10.8908C10.9555 10.4483 11.0193 10.4333 11.0772 10.4043C11.135 10.3754 11.1854 10.3334 11.2242 10.2817C11.7456 9.5976 12.4336 9.05852 13.2225 8.71583ZM8.06167 3.08333C8.07228 3.05371 8.08947 3.02687 8.11195 3.00484C8.13442 2.98281 8.16159 2.96616 8.19143 2.95614C8.22126 2.94611 8.25297 2.94298 8.28419 2.94697C8.31541 2.95096 8.34531 2.96197 8.37167 2.97917C9.15777 3.49225 10.0763 3.76531 11.015 3.765C11.3047 3.76361 11.5937 3.73572 11.8783 3.68167C11.9092 3.67598 11.941 3.67735 11.9713 3.68567C12.0016 3.69399 12.0296 3.70906 12.0532 3.72973C12.0769 3.75041 12.0955 3.77617 12.1078 3.80508C12.1201 3.83398 12.1257 3.8653 12.1242 3.89667C12.0937 4.44239 11.8509 4.95454 11.4478 5.32367C11.0448 5.6928 10.5133 5.88964 9.96699 5.87212C9.4207 5.8546 8.90293 5.62411 8.52432 5.22991C8.14571 4.8357 7.9363 4.30905 7.94083 3.7625C7.94164 3.53084 7.98252 3.30106 8.06167 3.08333ZM8.55583 13.315C8.5593 12.6617 8.39268 12.0188 8.07237 11.4494C7.75206 10.88 7.28907 10.4038 6.72894 10.0676C6.16881 9.73141 5.53082 9.54677 4.87771 9.53184C4.22459 9.51692 3.57883 9.67223 3.00393 9.98251C2.42903 10.2928 1.94477 10.7474 1.59879 11.3015C1.2528 11.8556 1.057 12.4903 1.03062 13.1431C1.00424 13.7958 1.14821 14.4442 1.44836 15.0244C1.74851 15.6047 2.1945 16.0969 2.7425 16.4525C2.77368 16.4731 2.79876 16.5017 2.81513 16.5353C2.8315 16.569 2.83856 16.6063 2.83559 16.6436C2.83261 16.6809 2.8197 16.7167 2.7982 16.7472C2.7767 16.7778 2.74739 16.8021 2.71333 16.8175C2.39433 16.9583 2.09076 17.1317 1.8075 17.335C1.16505 17.7911 0.636601 18.3895 0.263331 19.0833C0.212898 19.1784 0.187903 19.2849 0.190774 19.3925C0.193645 19.5001 0.224283 19.6051 0.279715 19.6973C0.335146 19.7896 0.413488 19.8659 0.507133 19.919C0.600778 19.972 0.706545 19.9999 0.814165 20H8.76917C8.87679 19.9999 8.98255 19.972 9.0762 19.919C9.16984 19.8659 9.24818 19.7896 9.30362 19.6973C9.35905 19.6051 9.38969 19.5001 9.39256 19.3925C9.39543 19.2849 9.37043 19.1784 9.32 19.0833C8.94694 18.3889 8.41848 17.7899 7.77583 17.3333C7.49257 17.13 7.189 16.9566 6.87 16.8158C6.83573 16.8006 6.8062 16.7764 6.78452 16.7459C6.76285 16.7153 6.74983 16.6794 6.74685 16.642C6.74386 16.6046 6.75101 16.5672 6.76756 16.5335C6.7841 16.4999 6.80941 16.4713 6.84083 16.4508C7.36555 16.1126 7.79733 15.6486 8.09687 15.1009C8.3964 14.5532 8.55418 13.9393 8.55583 13.315ZM2.815 12.6333C2.82562 12.6037 2.84281 12.5769 2.86528 12.5548C2.88775 12.5328 2.91493 12.5162 2.94476 12.5061C2.97459 12.4961 3.0063 12.493 3.03752 12.497C3.06874 12.501 3.09865 12.512 3.125 12.5292C3.9111 13.0422 4.8296 13.3153 5.76833 13.315C6.05805 13.3136 6.34703 13.2857 6.63167 13.2317C6.66259 13.2263 6.69433 13.2278 6.72459 13.2362C6.75485 13.2446 6.78288 13.2595 6.80667 13.28C6.83025 13.3007 6.84887 13.3264 6.86114 13.3552C6.8734 13.3841 6.879 13.4153 6.8775 13.4467C6.847 13.9924 6.60427 14.5045 6.20118 14.8737C5.79809 15.2428 5.26661 15.4396 4.72032 15.4221C4.17403 15.4046 3.65626 15.1741 3.27765 14.7799C2.89904 14.3857 2.68963 13.8591 2.69416 13.3125C2.69497 13.0808 2.73585 12.8511 2.815 12.6333ZM18.1925 17.3333C17.9092 17.13 17.6057 16.9566 17.2867 16.8158C17.2524 16.8006 17.2229 16.7764 17.2012 16.7459C17.1795 16.7153 17.1665 16.6794 17.1635 16.642C17.1605 16.6046 17.1677 16.5672 17.1842 16.5335C17.2008 16.4999 17.2261 16.4713 17.2575 16.4508C17.9385 16.0089 18.4584 15.3586 18.7395 14.597C19.0207 13.8353 19.0481 13.0032 18.8176 12.2248C18.5872 11.4463 18.1112 10.7632 17.4608 10.2774C16.8103 9.79164 16.0202 9.52916 15.2083 9.52916C14.3965 9.52916 13.6064 9.79164 12.9559 10.2774C12.3054 10.7632 11.8295 11.4463 11.599 12.2248C11.3686 13.0032 11.3959 13.8353 11.6771 14.597C11.9583 15.3586 12.4782 16.0089 13.1592 16.4508C13.1903 16.4715 13.2154 16.5001 13.2318 16.5337C13.2482 16.5673 13.2552 16.6047 13.2523 16.6419C13.2493 16.6792 13.2364 16.715 13.2149 16.7456C13.1934 16.7762 13.1641 16.8004 13.13 16.8158C12.811 16.9566 12.5074 17.13 12.2242 17.3333C11.5815 17.7899 11.0531 18.3889 10.68 19.0833C10.6296 19.1784 10.6046 19.2849 10.6074 19.3925C10.6103 19.5001 10.641 19.6051 10.6964 19.6973C10.7518 19.7896 10.8302 19.8659 10.9238 19.919C11.0174 19.972 11.1232 19.9999 11.2308 20H19.1858C19.2935 19.9999 19.3992 19.972 19.4929 19.919C19.5865 19.8659 19.6649 19.7896 19.7203 19.6973C19.7757 19.6051 19.8064 19.5001 19.8092 19.3925C19.8121 19.2849 19.7871 19.1784 19.7367 19.0833C19.3636 18.3889 18.8351 17.7899 18.1925 17.3333ZM13.2317 12.6333C13.2423 12.6037 13.2595 12.5769 13.2819 12.5548C13.3044 12.5328 13.3316 12.5162 13.3614 12.5061C13.3913 12.4961 13.423 12.493 13.4542 12.497C13.4854 12.501 13.5153 12.512 13.5417 12.5292C14.3278 13.0422 15.2463 13.3153 16.185 13.315C16.4747 13.3136 16.7637 13.2857 17.0483 13.2317C17.0793 13.2263 17.111 13.2278 17.1413 13.2362C17.1715 13.2446 17.1995 13.2595 17.2233 13.28C17.2469 13.3007 17.2655 13.3264 17.2778 13.3552C17.2901 13.3841 17.2957 13.4153 17.2942 13.4467C17.2637 13.9924 17.0209 14.5045 16.6178 14.8737C16.2148 15.2428 15.6833 15.4396 15.137 15.4221C14.5907 15.4046 14.0729 15.1741 13.6943 14.7799C13.3157 14.3857 13.1063 13.8591 13.1108 13.3125C13.1116 13.0808 13.1525 12.8511 13.2317 12.6333Z" fill="url(#paint0_linear_334_2128)"/>
</g>
<defs>
<linearGradient id="paint0_linear_334_2128" x1="10" y1="-0.0230713" x2="10" y2="20" gradientUnits="userSpaceOnUse">
<stop stop-color="#2257E2"/>
<stop offset="1" stop-color="#5AA6FF"/>
</linearGradient>
<clipPath id="clip0_334_2128">
<rect width="20" height="20" fill="white"/>
</clipPath>
</defs>
</svg>
