<svg width="60" height="60" viewBox="0 0 60 60" fill="none" xmlns="http://www.w3.org/2000/svg">
<circle opacity="0.35" cx="30" cy="30" r="30" fill="#717171"/>
<g filter="url(#filter0_d_4016_16530)">
<path d="M41.3435 41.1535C41.3435 41.3499 41.4215 41.5381 41.5604 41.677C41.6992 41.8158 41.8875 41.8938 42.0838 41.8938H46.2602C46.3815 41.8937 46.5008 41.8638 46.6078 41.8068C46.7148 41.7498 46.8062 41.6674 46.8739 41.5668C46.9416 41.4662 46.9835 41.3506 46.996 41.23C47.0086 41.1094 46.9913 40.9875 46.9457 40.8752C46.5064 39.7774 45.7798 38.818 44.842 38.0978C43.9043 37.3775 42.7899 36.9229 41.616 36.7817C41.4932 36.7668 41.3686 36.783 41.2537 36.8288C41.1387 36.8745 41.0371 36.9483 40.958 37.0434C40.8789 37.1385 40.825 37.2519 40.801 37.3733C40.7771 37.4946 40.7839 37.62 40.8209 37.7381C41.1674 38.8434 41.3436 39.9951 41.3435 41.1535ZM18.9394 37.6744C18.9751 37.5635 18.9841 37.4457 18.9656 37.3307C18.9472 37.2157 18.9018 37.1066 18.8333 37.0124C18.7648 36.9182 18.675 36.8415 18.5712 36.7886C18.4675 36.7356 18.3527 36.7079 18.2362 36.7076H18.2184C16.8922 36.7083 15.5965 37.1057 14.498 37.8486C13.3994 38.5915 12.5482 39.6461 12.0537 40.8767C12.0084 40.9891 11.9914 41.1109 12.0041 41.2314C12.0168 41.3519 12.059 41.4674 12.1268 41.5678C12.1946 41.6683 12.2861 41.7505 12.3931 41.8073C12.5001 41.8642 12.6195 41.8938 12.7407 41.8938H17.6559C17.8522 41.8938 18.0405 41.8158 18.1793 41.677C18.3181 41.5381 18.3961 41.3499 18.3961 41.1535C18.3956 39.9726 18.5789 38.7989 18.9394 37.6744Z" fill="white"/>
</g>
<g filter="url(#filter1_d_4016_16530)">
<path d="M26.2874 31.986C26.345 32.0213 26.3919 32.0717 26.4229 32.1318C26.4539 32.1918 26.4679 32.2592 26.4633 32.3266C26.4587 32.3941 26.4358 32.4589 26.3969 32.5142C26.3581 32.5696 26.3049 32.6132 26.243 32.6404C24.5748 33.3527 23.1524 34.539 22.1523 36.0523C21.1523 37.5656 20.6185 39.3392 20.6172 41.1531C20.6172 41.3495 20.6952 41.5377 20.834 41.6766C20.9728 41.8154 21.1611 41.8934 21.3574 41.8934H38.383C38.5793 41.8934 38.7676 41.8154 38.9064 41.6766C39.0452 41.5377 39.1232 41.3495 39.1232 41.1531C39.1201 39.3365 38.5829 37.5609 37.5784 36.0473C36.5739 34.5337 35.1464 33.3489 33.4737 32.6404C33.4111 32.6132 33.3573 32.5694 33.318 32.5137C33.2787 32.458 33.2555 32.3925 33.2509 32.3245C33.2463 32.2565 33.2605 32.1885 33.292 32.128C33.3234 32.0675 33.3709 32.0169 33.4293 31.9816C34.7497 31.1972 35.7759 30.0008 36.35 28.5763C36.9241 27.1518 37.0143 25.5782 36.6067 24.0974C36.1991 22.6167 35.3163 21.3108 34.0941 20.3808C32.8719 19.4508 31.378 18.948 29.8421 18.95C28.3063 18.9519 26.8136 19.4583 25.5938 20.3914C24.3739 21.3245 23.4943 22.6325 23.0904 24.1142C22.6865 25.596 22.7806 27.1694 23.3582 28.5925C23.9359 30.0155 24.965 31.2094 26.2874 31.9904V31.986ZM25.7989 25.959C25.7989 25.679 25.8302 25.3999 25.8921 25.1269C25.9179 25.0127 25.9703 24.9062 26.0452 24.8161C26.1201 24.7261 26.2153 24.6551 26.3229 24.609C26.4306 24.5629 26.5477 24.543 26.6645 24.5509C26.7814 24.5589 26.8947 24.5944 26.9951 24.6547C28.4141 25.509 30.0393 25.9599 31.6956 25.959C32.1287 25.9586 32.5612 25.9264 32.9896 25.8627C33.1052 25.8454 33.2234 25.8558 33.3343 25.8929C33.4452 25.9301 33.5457 25.993 33.6276 26.0764C33.7095 26.1599 33.7704 26.2616 33.8055 26.3732C33.8405 26.4848 33.8485 26.6031 33.829 26.7185C33.6408 27.7097 33.0895 28.5951 32.2829 29.2012C31.4763 29.8074 30.4725 30.0907 29.4681 29.9957C28.4636 29.9007 27.5307 29.4342 26.8521 28.6876C26.1734 27.9409 25.7979 26.9679 25.7989 25.959Z" fill="white"/>
</g>
<g filter="url(#filter2_d_4016_16530)">
<path d="M40.7814 35.2314C41.6315 35.2366 42.4621 34.9772 43.1581 34.4892C43.8542 34.0011 44.3812 33.3087 44.6661 32.5077C44.9509 31.7068 44.9796 30.8371 44.748 30.0191C44.5165 29.2012 44.0362 28.4755 43.3738 27.9428C42.7113 27.41 41.8996 27.0965 41.051 27.0458C40.2024 26.995 39.3591 27.2095 38.6379 27.6595C37.9167 28.1096 37.3533 28.7728 37.0259 29.5573C36.6986 30.3418 36.6233 31.2088 36.8107 32.038C37.0186 32.9384 37.5231 33.7429 38.2432 34.3221C38.9633 34.9012 39.8573 35.2215 40.7814 35.2314Z" fill="white"/>
</g>
<g filter="url(#filter3_d_4016_16530)">
<path d="M18.2188 35.2309C20.4673 35.2309 22.2901 33.4081 22.2901 31.1596C22.2901 28.911 20.4673 27.0883 18.2188 27.0883C15.9703 27.0883 14.1475 28.911 14.1475 31.1596C14.1475 33.4081 15.9703 35.2309 18.2188 35.2309Z" fill="white"/>
</g>
<defs>
<filter id="filter0_d_4016_16530" x="8" y="36.7076" width="43" height="13.1862" filterUnits="userSpaceOnUse" color-interpolation-filters="sRGB">
<feFlood flood-opacity="0" result="BackgroundImageFix"/>
<feColorMatrix in="SourceAlpha" type="matrix" values="0 0 0 0 0 0 0 0 0 0 0 0 0 0 0 0 0 0 127 0" result="hardAlpha"/>
<feOffset dy="4"/>
<feGaussianBlur stdDeviation="2"/>
<feColorMatrix type="matrix" values="0 0 0 0 0 0 0 0 0 0 0 0 0 0 0 0 0 0 0.05 0"/>
<feBlend mode="normal" in2="BackgroundImageFix" result="effect1_dropShadow_4016_16530"/>
<feBlend mode="normal" in="SourceGraphic" in2="effect1_dropShadow_4016_16530" result="shape"/>
</filter>
<filter id="filter1_d_4016_16530" x="16.6172" y="18.95" width="26.5059" height="30.9435" filterUnits="userSpaceOnUse" color-interpolation-filters="sRGB">
<feFlood flood-opacity="0" result="BackgroundImageFix"/>
<feColorMatrix in="SourceAlpha" type="matrix" values="0 0 0 0 0 0 0 0 0 0 0 0 0 0 0 0 0 0 127 0" result="hardAlpha"/>
<feOffset dy="4"/>
<feGaussianBlur stdDeviation="2"/>
<feColorMatrix type="matrix" values="0 0 0 0 0 0 0 0 0 0 0 0 0 0 0 0 0 0 0.05 0"/>
<feBlend mode="normal" in2="BackgroundImageFix" result="effect1_dropShadow_4016_16530"/>
<feBlend mode="normal" in="SourceGraphic" in2="effect1_dropShadow_4016_16530" result="shape"/>
</filter>
<filter id="filter2_d_4016_16530" x="32.71" y="27.0385" width="16.1934" height="16.193" filterUnits="userSpaceOnUse" color-interpolation-filters="sRGB">
<feFlood flood-opacity="0" result="BackgroundImageFix"/>
<feColorMatrix in="SourceAlpha" type="matrix" values="0 0 0 0 0 0 0 0 0 0 0 0 0 0 0 0 0 0 127 0" result="hardAlpha"/>
<feOffset dy="4"/>
<feGaussianBlur stdDeviation="2"/>
<feColorMatrix type="matrix" values="0 0 0 0 0 0 0 0 0 0 0 0 0 0 0 0 0 0 0.05 0"/>
<feBlend mode="normal" in2="BackgroundImageFix" result="effect1_dropShadow_4016_16530"/>
<feBlend mode="normal" in="SourceGraphic" in2="effect1_dropShadow_4016_16530" result="shape"/>
</filter>
<filter id="filter3_d_4016_16530" x="10.1475" y="27.0883" width="16.1426" height="16.1427" filterUnits="userSpaceOnUse" color-interpolation-filters="sRGB">
<feFlood flood-opacity="0" result="BackgroundImageFix"/>
<feColorMatrix in="SourceAlpha" type="matrix" values="0 0 0 0 0 0 0 0 0 0 0 0 0 0 0 0 0 0 127 0" result="hardAlpha"/>
<feOffset dy="4"/>
<feGaussianBlur stdDeviation="2"/>
<feColorMatrix type="matrix" values="0 0 0 0 0 0 0 0 0 0 0 0 0 0 0 0 0 0 0.05 0"/>
<feBlend mode="normal" in2="BackgroundImageFix" result="effect1_dropShadow_4016_16530"/>
<feBlend mode="normal" in="SourceGraphic" in2="effect1_dropShadow_4016_16530" result="shape"/>
</filter>
</defs>
</svg>
