<svg width="70" height="70" viewBox="0 0 70 70" fill="none" xmlns="http://www.w3.org/2000/svg">
<g clip-path="url(#clip0_4697_14298)">
<path d="M29.1667 37.9167C29.1667 35.596 30.0885 33.3704 31.7295 31.7295C33.3704 30.0885 35.596 29.1667 37.9167 29.1667H59.0625C59.2559 29.1667 59.4414 29.0898 59.5781 28.9531C59.7149 28.8164 59.7917 28.6309 59.7917 28.4375V4.375C59.7917 3.21468 59.3307 2.10188 58.5103 1.28141C57.6898 0.460936 56.577 0 55.4167 0L4.375 0C3.21468 0 2.10188 0.460936 1.28141 1.28141C0.460936 2.10188 0 3.21468 0 4.375L0 46.6667C0 47.827 0.460936 48.9398 1.28141 49.7603C2.10188 50.5807 3.21468 51.0417 4.375 51.0417H13.125V61.25C13.1251 61.5386 13.2107 61.8206 13.3712 62.0605C13.5316 62.3003 13.7596 62.4872 14.0262 62.5974C14.2929 62.7077 14.5863 62.7363 14.8693 62.6797C15.1522 62.6231 15.412 62.4839 15.6158 62.2796L26.8538 51.0417H28.4375C28.6309 51.0417 28.8164 50.9648 28.9531 50.8281C29.0898 50.6914 29.1667 50.5059 29.1667 50.3125V37.9167ZM21.875 31.3542H13.125C12.5448 31.3542 11.9884 31.1237 11.5782 30.7135C11.168 30.3032 10.9375 29.7468 10.9375 29.1667C10.9375 28.5865 11.168 28.0301 11.5782 27.6199C11.9884 27.2096 12.5448 26.9792 13.125 26.9792H21.875C22.4552 26.9792 23.0116 27.2096 23.4218 27.6199C23.832 28.0301 24.0625 28.5865 24.0625 29.1667C24.0625 29.7468 23.832 30.3032 23.4218 30.7135C23.0116 31.1237 22.4552 31.3542 21.875 31.3542ZM43.75 16.7708H13.125C12.5448 16.7708 11.9884 16.5404 11.5782 16.1301C11.168 15.7199 10.9375 15.1635 10.9375 14.5833C10.9375 14.0032 11.168 13.4468 11.5782 13.0365C11.9884 12.6263 12.5448 12.3958 13.125 12.3958H43.75C44.3302 12.3958 44.8866 12.6263 45.2968 13.0365C45.707 13.4468 45.9375 14.0032 45.9375 14.5833C45.9375 15.1635 45.707 15.7199 45.2968 16.1301C44.8866 16.5404 44.3302 16.7708 43.75 16.7708Z" fill="#EBEBEB"/>
<path d="M65.6251 33.5417H37.9167C36.7564 33.5417 35.6436 34.0026 34.8232 34.8231C34.0027 35.6436 33.5417 36.7564 33.5417 37.9167V56.875C33.5417 58.0353 34.0027 59.1481 34.8232 59.9686C35.6436 60.7891 36.7564 61.25 37.9167 61.25H47.638L58.9168 69.7084C59.1334 69.8708 59.391 69.9698 59.6608 69.9941C59.9305 70.0185 60.2017 69.9672 60.4439 69.8461C60.6862 69.7249 60.8899 69.5388 61.0323 69.3084C61.1747 69.078 61.2501 68.8125 61.2501 68.5417V61.25H65.6251C66.7854 61.25 67.8982 60.7891 68.7187 59.9686C69.5391 59.1481 70.0001 58.0353 70.0001 56.875V37.9167C70.0001 36.7564 69.5391 35.6436 68.7187 34.8231C67.8982 34.0026 66.7854 33.5417 65.6251 33.5417Z" fill="#EBEBEB"/>
</g>
<defs>
<clipPath id="clip0_4697_14298">
<rect width="70" height="70" fill="white"/>
</clipPath>
</defs>
</svg>
