<svg width="40" height="40" viewBox="0 0 40 40" fill="none" xmlns="http://www.w3.org/2000/svg">
<path d="M0.509565 0.509233C0.183392 0.835095 9.84998e-05 1.27709 0 1.738V20.882C0 21.343 0.183229 21.785 0.50938 22.111C0.83553 22.4369 1.27788 22.62 1.73913 22.62H15.6522C16.1134 22.62 16.5558 22.4369 16.8819 22.111C17.2081 21.785 17.3913 21.343 17.3913 20.882V1.76407C17.3913 1.30312 17.2081 0.861055 16.8819 0.535118C16.5558 0.20918 16.1134 0.02607 15.6522 0.02607L1.73913 0C1.27792 9.84356e-05 0.835639 0.183273 0.509565 0.509233V0.509233ZM38.2609 0L24.3478 0.024332C23.8866 0.024332 23.4442 0.207442 23.1181 0.533379C22.7919 0.859317 22.6087 1.30138 22.6087 1.76233V10.4523C22.6087 10.9133 22.7919 11.3553 23.1181 11.6813C23.4442 12.0072 23.8866 12.1903 24.3478 12.1903H38.2609C38.7221 12.1903 39.1645 12.0072 39.4906 11.6813C39.8168 11.3553 40 10.9133 40 10.4523V1.738C40 1.27705 39.8168 0.834985 39.4906 0.509048C39.1645 0.18311 38.7221 0 38.2609 0V0ZM16.8817 39.489C17.2079 39.1632 17.3912 38.7212 17.3913 38.2603V29.5703C17.3913 29.1093 17.2081 28.6673 16.8819 28.3413C16.5558 28.0154 16.1134 27.8323 15.6522 27.8323H1.73913C1.27788 27.8323 0.83553 28.0154 0.50938 28.3413C0.183229 28.6673 0 29.1093 0 29.5703V38.2342C0 38.6951 0.183229 39.1372 0.50938 39.4631C0.83553 39.7891 1.27788 39.9722 1.73913 39.9722L15.6522 39.9965C16.1131 39.9969 16.5554 39.8144 16.8817 39.489ZM38.2609 17.406H24.3478C23.8866 17.406 23.4442 17.5891 23.1181 17.9151C22.7919 18.241 22.6087 18.6831 22.6087 19.144V38.262C22.6087 38.7229 22.7919 39.165 23.1181 39.491C23.4442 39.8169 23.8866 40 24.3478 40L38.2609 39.9757C38.7221 39.9757 39.1645 39.7926 39.4906 39.4666C39.8168 39.1407 40 38.6986 40 38.2377V19.144C40 18.6831 39.8168 18.241 39.4906 17.9151C39.1645 17.5891 38.7221 17.406 38.2609 17.406Z" fill="#EBEBEB"/>
</svg>
