<svg width="40" height="40" viewBox="0 0 40 40" fill="none" xmlns="http://www.w3.org/2000/svg">
<rect width="40" height="40" rx="4" fill="#5ABAFF" fill-opacity="0.1"/>
<path fill-rule="evenodd" clip-rule="evenodd" d="M26.1273 23.951C26.9941 22.6538 27.4567 21.1286 27.4567 19.5685C27.4567 17.4763 26.6256 15.4699 25.1463 13.9905C23.6669 12.5112 21.6605 11.6801 19.5683 11.6801C18.0082 11.6801 16.483 12.1427 15.1858 13.0095C13.8885 13.8763 12.8775 15.1083 12.2804 16.5497C11.6833 17.9911 11.5271 19.5772 11.8315 21.1074C12.1359 22.6376 12.8872 24.0432 13.9904 25.1464C15.0936 26.2496 16.4992 27.0009 18.0294 27.3053C19.5596 27.6097 21.1457 27.4534 22.5871 26.8564C24.0285 26.2593 25.2605 25.2483 26.1273 23.951ZM20.0321 19.1045H22.3522C22.5983 19.1045 22.8344 19.2022 23.0084 19.3763C23.1825 19.5503 23.2803 19.7864 23.2803 20.0325C23.2803 20.2787 23.1825 20.5147 23.0084 20.6887C22.8344 20.8628 22.5983 20.9606 22.3522 20.9606H19.104C18.8579 20.9606 18.6219 20.8628 18.4478 20.6887C18.2738 20.5147 18.176 20.2787 18.176 20.0325V14.9283C18.176 14.6821 18.2738 14.4461 18.4478 14.272C18.6219 14.098 18.8579 14.0002 19.104 14.0002C19.3502 14.0002 19.5862 14.098 19.7603 14.272C19.9343 14.4461 20.0321 14.6821 20.0321 14.9283V19.1045Z" fill="url(#paint0_linear_2843_10741)"/>
<defs>
<linearGradient id="paint0_linear_2843_10741" x1="19.5683" y1="11.6801" x2="19.5683" y2="27.4569" gradientUnits="userSpaceOnUse">
<stop stop-color="#2257E2"/>
<stop offset="1" stop-color="#5AA6FF"/>
</linearGradient>
</defs>
</svg>
