<svg width="11" height="11" viewBox="0 0 11 11" fill="none" xmlns="http://www.w3.org/2000/svg">
<rect width="10.5" height="10.5" rx="5.25" fill="#717171"/>
<g clip-path="url(#clip0_1334_9662)">
<path d="M3.75851 3.61951C3.89751 4.42176 4.38601 4.97126 5.24901 5.25001C6.11201 4.97126 6.60051 4.42176 6.73951 3.61951C6.74775 3.56589 6.74427 3.51113 6.7293 3.45899C6.71433 3.40686 6.68822 3.35859 6.65279 3.31752C6.61735 3.27645 6.57343 3.24356 6.52405 3.22111C6.47466 3.19867 6.421 3.1872 6.36676 3.18751H4.13126C4.07702 3.1872 4.02335 3.19867 3.97397 3.22111C3.92459 3.24356 3.88067 3.27645 3.84523 3.31752C3.8098 3.35859 3.78369 3.40686 3.76872 3.45899C3.75375 3.51113 3.75026 3.56589 3.75851 3.61951V3.61951Z" stroke="white" stroke-width="0.7" stroke-linecap="round" stroke-linejoin="round"/>
<path d="M3.18701 2.4375H7.31201" stroke="white" stroke-width="0.7" stroke-linecap="round" stroke-linejoin="round"/>
<path d="M4.13134 7.3125C4.07712 7.3128 4.02349 7.30134 3.97413 7.27891C3.92476 7.25647 3.88085 7.22361 3.84542 7.18257C3.80999 7.14153 3.78388 7.09329 3.76889 7.04119C3.7539 6.98908 3.75039 6.93434 3.75859 6.88075C3.89759 6.0785 4.38609 5.529 5.24909 5.25C6.11209 5.529 6.60059 6.0785 6.73959 6.88075C6.7478 6.93434 6.74428 6.98908 6.72929 7.04119C6.7143 7.09329 6.68819 7.14153 6.65276 7.18257C6.61733 7.22361 6.57342 7.25647 6.52406 7.27891C6.4747 7.30134 6.42106 7.3128 6.36684 7.3125H4.13134Z" stroke="white" stroke-width="0.7" stroke-linecap="round" stroke-linejoin="round"/>
<path d="M3.18701 8.0625H7.31201" stroke="white" stroke-width="0.7" stroke-linecap="round" stroke-linejoin="round"/>
</g>
<defs>
<clipPath id="clip0_1334_9662">
<rect width="6" height="6" fill="white" transform="translate(2.24951 2.25)"/>
</clipPath>
</defs>
</svg>
