<svg width="35" height="30" viewBox="0 0 35 30" fill="none" xmlns="http://www.w3.org/2000/svg">
<path d="M33.9951 5.08732C33.235 3.59811 32.0704 2.33771 30.6265 1.44156C29.1826 0.545409 27.5139 0.0473852 25.7998 0.00100324C24.4472 -0.0180025 23.1051 0.233215 21.8572 0.738983C20.6093 1.24475 19.4824 1.99422 18.5467 2.94064L17.976 3.49361C17.849 3.61499 17.6778 3.68305 17.4994 3.68305C17.3211 3.68305 17.1499 3.61499 17.0229 3.49361L16.4521 2.94064C15.5161 1.99459 14.3891 1.24538 13.1413 0.739637C11.8935 0.233897 10.5516 -0.0175338 9.19907 0.00100324C7.34951 0.0570125 5.55713 0.635369 4.04226 1.66498C2.52739 2.69459 1.35605 4.13059 0.672203 5.79646C-0.0116412 7.46234 -0.178182 9.2855 0.193051 11.0418C0.564283 12.7982 1.45711 14.4112 2.76179 15.6825L16.5275 29.5982C16.6532 29.7252 16.804 29.8263 16.9711 29.8953C17.1381 29.9644 17.3178 30 17.4994 30C17.681 30 17.8608 29.9644 18.0278 29.8953C18.1948 29.8263 18.3457 29.7252 18.4713 29.5982L32.2182 15.7034C33.6282 14.3392 34.5588 12.5793 34.8777 10.6736C35.1967 8.76792 34.8879 6.81331 33.9951 5.08732Z" fill="#FFE5DA"/>
</svg>
