<svg width="11" height="11" viewBox="0 0 11 11" fill="none" xmlns="http://www.w3.org/2000/svg">
<circle cx="5.25" cy="5.25" r="5.25" fill="white"/>
<path d="M10.4998 5.15876C10.4844 3.77527 9.92539 2.45335 8.94345 1.47843C8.45736 0.99625 7.87908 0.616933 7.24312 0.36313C6.60717 0.109327 5.92658 -0.0137595 5.242 0.0012201C3.8392 0.0242686 2.50182 0.598287 1.51892 1.5992C1.0273 2.08903 0.639475 2.6729 0.37862 3.31594C0.117766 3.95898 -0.0107655 4.648 0.000705428 5.34182C-4.85757e-05 6.01973 0.133012 6.69113 0.392261 7.31754C0.651511 7.94395 1.03185 8.51305 1.51149 8.99223C1.99113 9.47141 2.56063 9.85125 3.18736 10.11C3.8141 10.3687 4.48574 10.5012 5.1638 10.5H5.25852C6.66147 10.4849 8.00115 9.91409 8.98371 8.91279C9.96628 7.91148 10.5115 6.56143 10.4998 5.15876ZM4.61449 2.70648C4.61449 2.5379 4.68147 2.37622 4.8007 2.25702C4.91993 2.13781 5.08164 2.07085 5.25026 2.07085C5.41888 2.07085 5.58059 2.13781 5.69982 2.25702C5.81905 2.37622 5.88603 2.5379 5.88603 2.70648V5.56683C5.88603 5.73541 5.81905 5.89709 5.69982 6.01629C5.58059 6.1355 5.41888 6.20247 5.25026 6.20247C5.08164 6.20247 4.91993 6.1355 4.8007 6.01629C4.68147 5.89709 4.61449 5.73541 4.61449 5.56683V2.70648ZM5.26425 8.44181H5.25026C5.03949 8.44358 4.83665 8.36156 4.68636 8.21381C4.53607 8.06606 4.45064 7.86466 4.44887 7.65394C4.4471 7.44321 4.52913 7.24041 4.67692 7.09016C4.8247 6.9399 5.02614 6.85449 5.23691 6.85272H5.25026C5.46103 6.85104 5.66384 6.93313 5.81407 7.08094C5.9643 7.22876 6.04964 7.43018 6.05133 7.64091C6.05302 7.85163 5.97091 8.0544 5.82306 8.2046C5.67521 8.35479 5.47375 8.44012 5.26298 8.44181H5.26425Z" fill="#FE6955"/>
</svg>
