<svg width="11" height="11" viewBox="0 0 11 11" fill="none" xmlns="http://www.w3.org/2000/svg">
<circle cx="5.25" cy="5.25" r="5.25" fill="#FF6767"/>
<path d="M8.5 5.25C8.5 4.60721 8.30939 3.97886 7.95228 3.4444C7.59516 2.90994 7.08758 2.49338 6.49372 2.24739C5.89986 2.00141 5.2464 1.93705 4.61596 2.06245C3.98552 2.18785 3.40642 2.49738 2.9519 2.9519C2.49738 3.40642 2.18785 3.98552 2.06245 4.61596C1.93705 5.2464 2.00141 5.89986 2.24739 6.49372C2.49338 7.08758 2.90994 7.59516 3.4444 7.95228C3.97886 8.30939 4.60721 8.5 5.25 8.5C6.11163 8.49894 6.93766 8.15619 7.54693 7.54693C8.15619 6.93766 8.49894 6.11163 8.5 5.25ZM5.25 7.5C4.88336 7.49976 4.52253 7.40835 4.2 7.234C4.18278 7.22487 4.16794 7.21184 4.15665 7.19596C4.14537 7.18007 4.13795 7.16176 4.135 7.1425C4.13224 7.12313 4.13401 7.10339 4.14017 7.08483C4.14633 7.06626 4.15671 7.04938 4.1705 7.0355L7.034 4.172C7.04783 4.15817 7.06473 4.1478 7.08332 4.14172C7.10191 4.13563 7.12167 4.13402 7.141 4.137C7.16028 4.1399 7.17862 4.14724 7.19459 4.15843C7.21055 4.16962 7.2237 4.18436 7.233 4.2015C7.40696 4.52416 7.49819 4.88493 7.4985 5.2515C7.4981 5.84772 7.26108 6.4194 6.83949 6.84099C6.4179 7.26258 5.84622 7.4996 5.25 7.5ZM3 5.25C3.00066 4.65347 3.23793 4.08156 3.65974 3.65974C4.08156 3.23793 4.65347 3.00066 5.25 3C5.61667 3.00052 5.97747 3.09209 6.3 3.2665C6.31729 3.27561 6.33215 3.28871 6.34337 3.30471C6.35459 3.3207 6.36183 3.33915 6.3645 3.3585C6.36732 3.37775 6.36563 3.39739 6.35955 3.41588C6.35348 3.43436 6.34319 3.45118 6.3295 3.465L3.465 6.3285C3.45112 6.34229 3.43424 6.35267 3.41567 6.35883C3.39711 6.36499 3.37737 6.36676 3.358 6.364C3.33874 6.36105 3.32043 6.35363 3.30455 6.34235C3.28866 6.33106 3.27563 6.31622 3.2665 6.299C3.09217 5.9768 3.0006 5.61634 3 5.25Z" fill="white"/>
</svg>
