<svg width="36" height="36" viewBox="0 0 36 36" fill="none" xmlns="http://www.w3.org/2000/svg">
<circle cx="18" cy="18" r="18" fill="#EE8F6E"/>
<g clip-path="url(#clip0_586_3189)">
<path d="M17.9858 8.00003C15.3138 8.04378 12.7664 9.1373 10.8942 11.0442C9.95738 11.9768 9.21827 13.0888 8.721 14.3136C8.22373 15.5384 7.9785 16.8508 7.99999 18.1725C7.99845 19.464 8.25179 20.7431 8.74549 21.9365C9.23919 23.1299 9.96354 24.2142 10.877 25.1271C11.7905 26.0401 12.8752 26.7638 14.0689 27.2568C15.2626 27.7498 16.5418 28.0023 17.8333 28H18.0117C20.6845 27.9725 23.2372 26.8859 25.1098 24.9785C26.9823 23.0711 28.0218 20.4987 28 17.8259C28.0031 16.5187 27.7447 15.2241 27.2402 14.0183C26.7357 12.8124 25.9951 11.7196 25.0621 10.8041C24.129 9.88864 23.0224 9.16896 21.8071 8.6874C20.5919 8.20585 19.2927 7.97215 17.9858 8.00003ZM16.75 21.785C16.744 21.6216 16.7706 21.4587 16.8283 21.3057C16.886 21.1527 16.9737 21.0128 17.0861 20.8941C17.1985 20.7753 17.3335 20.6802 17.4831 20.6143C17.6327 20.5484 17.794 20.5129 17.9575 20.51H17.98C18.3088 20.5107 18.6247 20.6386 18.8613 20.867C19.0979 21.0953 19.2369 21.4064 19.2492 21.735C19.2553 21.8985 19.2287 22.0615 19.1711 22.2145C19.1134 22.3675 19.0258 22.5075 18.9133 22.6263C18.8008 22.745 18.6658 22.8401 18.5162 22.906C18.3665 22.9719 18.2052 23.0073 18.0417 23.01H18.0192C17.6904 23.009 17.3748 22.8809 17.1383 22.6527C16.9018 22.4244 16.7627 22.1135 16.75 21.785ZM17.1667 18.4167V13.4167C17.1667 13.1957 17.2544 12.9837 17.4107 12.8274C17.567 12.6712 17.779 12.5834 18 12.5834C18.221 12.5834 18.433 12.6712 18.5892 12.8274C18.7455 12.9837 18.8333 13.1957 18.8333 13.4167V18.4167C18.8333 18.6377 18.7455 18.8497 18.5892 19.006C18.433 19.1622 18.221 19.25 18 19.25C17.779 19.25 17.567 19.1622 17.4107 19.006C17.2544 18.8497 17.1667 18.6377 17.1667 18.4167Z" fill="white"/>
</g>
<defs>
<clipPath id="clip0_586_3189">
<rect width="20" height="20" fill="white" transform="translate(8 8)"/>
</clipPath>
</defs>
</svg>
