<svg width="17" height="17" viewBox="0 0 17 17" fill="none" xmlns="http://www.w3.org/2000/svg">
<g clip-path="url(#clip0_27_8535)">
<path d="M12.3958 6.72917C13.1639 6.72964 13.9236 6.88805 14.6278 7.19454C14.6548 7.20599 14.6841 7.21058 14.7133 7.20792C14.7425 7.20527 14.7706 7.19544 14.795 7.17932C14.8195 7.1632 14.8396 7.14128 14.8536 7.11551C14.8675 7.08974 14.8749 7.06093 14.875 7.03163V1.23959C14.875 1.21713 14.8682 1.19519 14.8556 1.17662C14.843 1.15805 14.8251 1.14371 14.8042 1.13546C14.7836 1.12703 14.7611 1.12482 14.7393 1.1291C14.7175 1.13338 14.6974 1.14397 14.6816 1.15955L8.64167 7.1995C8.32204 7.51838 7.88899 7.69745 7.4375 7.69745C6.98601 7.69745 6.55296 7.51838 6.23333 7.1995L0.191959 1.15955C0.176168 1.14387 0.156089 1.13323 0.134256 1.12896C0.112423 1.12469 0.0898141 1.12697 0.0692806 1.13554C0.0487471 1.1441 0.0312093 1.15855 0.0188795 1.17707C0.00654971 1.19559 -1.96301e-05 1.21734 2.02631e-07 1.23959V8.67709C-9.29118e-05 8.8399 0.0319063 9.00113 0.0941682 9.15156C0.15643 9.302 0.247734 9.43869 0.362858 9.55381C0.477983 9.66894 0.61467 9.76024 0.765105 9.8225C0.915541 9.88476 1.07677 9.91676 1.23958 9.91667H7.19879C7.23141 9.91658 7.26338 9.90755 7.29123 9.89057C7.31907 9.87358 7.34173 9.84929 7.35675 9.82034C7.83082 8.89123 8.55214 8.11099 9.44125 7.56558C10.3304 7.02016 11.3528 6.73073 12.3958 6.72917Z" fill="#717171"/>
<path d="M6.88915 6.54217C7.03447 6.68746 7.23155 6.76908 7.43704 6.76908C7.64254 6.76908 7.83962 6.68746 7.98494 6.54217L13.9881 0.539044C14.0288 0.498369 14.0574 0.447138 14.0706 0.391109C14.0838 0.33508 14.0812 0.276473 14.0629 0.221873C14.0447 0.167273 14.0116 0.118844 13.9673 0.0820273C13.9231 0.045211 13.8694 0.0214662 13.8124 0.0134612C13.7536 0.0043706 13.6941 -0.000129087 13.6346 2.81753e-06H1.23877C1.17972 -5.58867e-05 1.12075 0.00444359 1.0624 0.0134612C1.00516 0.021896 0.951461 0.0463125 0.907479 0.0839035C0.863498 0.121494 0.831017 0.170734 0.813772 0.225961C0.795289 0.280144 0.792122 0.338377 0.80462 0.394244C0.817118 0.450112 0.844797 0.501444 0.884605 0.542586L6.88915 6.54217ZM12.3957 7.79167C11.4851 7.79167 10.5949 8.0617 9.83779 8.56761C9.08064 9.07352 8.49051 9.7926 8.14204 10.6339C7.79356 11.4752 7.70238 12.4009 7.88003 13.2941C8.05768 14.1872 8.49619 15.0076 9.14009 15.6515C9.784 16.2954 10.6044 16.7339 11.4975 16.9115C12.3906 17.0892 13.3164 16.998 14.1577 16.6495C14.999 16.3011 15.718 15.7109 16.224 14.9538C16.7299 14.1966 16.9999 13.3065 16.9999 12.3958C16.9984 11.1752 16.5128 10.005 15.6497 9.14186C14.7866 8.27873 13.6164 7.79317 12.3957 7.79167ZM12.3957 15.5833C11.7653 15.5833 11.149 15.3964 10.6249 15.0461C10.1007 14.6959 9.69212 14.1981 9.45086 13.6156C9.20961 13.0332 9.14649 12.3923 9.26948 11.774C9.39247 11.1557 9.69605 10.5877 10.1418 10.1419C10.5876 9.69615 11.1556 9.39257 11.7739 9.26958C12.3922 9.14659 13.0331 9.20972 13.6155 9.45097C14.198 9.69222 14.6958 10.1008 15.046 10.625C15.3963 11.1491 15.5832 11.7654 15.5832 12.3958C15.5823 13.2409 15.2462 14.0511 14.6486 14.6487C14.051 15.2463 13.2408 15.5824 12.3957 15.5833Z" fill="#717171"/>
<path d="M13.8124 11.8646H13.1041C13.0571 11.8646 13.0121 11.8459 12.9789 11.8127C12.9457 11.7795 12.927 11.7345 12.927 11.6875V10.625C12.927 10.4841 12.871 10.349 12.7714 10.2493C12.6718 10.1497 12.5366 10.0938 12.3958 10.0938C12.2549 10.0938 12.1197 10.1497 12.0201 10.2493C11.9205 10.349 11.8645 10.4841 11.8645 10.625V12.3958C11.8645 12.5367 11.9205 12.6719 12.0201 12.7715C12.1197 12.8711 12.2549 12.9271 12.3958 12.9271H13.8124C13.9533 12.9271 14.0884 12.8711 14.1881 12.7715C14.2877 12.6719 14.3437 12.5367 14.3437 12.3958C14.3437 12.2549 14.2877 12.1198 14.1881 12.0202C14.0884 11.9206 13.9533 11.8646 13.8124 11.8646Z" fill="#717171"/>
</g>
<defs>
<clipPath id="clip0_27_8535">
<rect width="17" height="17" fill="white"/>
</clipPath>
</defs>
</svg>
