<svg width="170" height="155" viewBox="0 0 170 155" fill="none" xmlns="http://www.w3.org/2000/svg">
<g opacity="0.1" clip-path="url(#clip0_334_2135)">
<path d="M167.252 1.59378C166.122 0.706069 164.758 0.166405 163.327 0.0406254C161.895 -0.0851539 160.458 0.20839 159.191 0.885443L5.85793 82.4925C4.01132 83.4585 2.47845 84.931 1.43913 86.7374C0.399818 88.5437 -0.102851 90.609 -0.00990717 92.6909C0.0830362 94.7729 0.767737 96.7851 1.96388 98.4917C3.16002 100.198 4.81801 101.528 6.74335 102.326L29.7925 112.101C29.7924 112.693 29.8955 113.28 30.0971 113.836L47.8054 161.62C48.7261 164.093 50.3845 166.223 52.5562 167.722C54.7278 169.221 57.3076 170.016 59.9463 170C63.1378 169.972 66.2089 168.778 68.5808 166.643C68.8571 166.395 88.3433 144.84 92.6642 140.052C92.9107 139.779 93.2366 139.589 93.596 139.511C93.9555 139.432 94.3306 139.467 94.6688 139.613L117.031 149.097C118.493 149.715 120.069 150.018 121.655 149.985C123.242 149.952 124.804 149.584 126.239 148.906C127.664 148.233 128.928 147.264 129.948 146.063C130.968 144.862 131.72 143.458 132.154 141.943L169.724 9.20836C170.114 7.8371 170.087 6.38073 169.647 5.0247C169.207 3.66867 168.373 2.47434 167.252 1.59378ZM41.3525 113.659L110.004 56.5463C110.163 56.3856 110.353 56.2602 110.564 56.1784C110.774 56.0965 110.999 56.0601 111.225 56.0715C111.45 56.0828 111.671 56.1417 111.872 56.2443C112.073 56.3469 112.25 56.4909 112.391 56.6667C112.569 56.8024 112.716 56.975 112.821 57.1726C112.926 57.3702 112.987 57.5882 112.999 57.8116C113.012 58.035 112.976 58.2585 112.895 58.4668C112.813 58.6751 112.687 58.8633 112.526 59.0184L61.2567 121.741C60.6699 122.455 60.2858 123.314 60.1446 124.228L55.6608 152.207L41.3525 113.659Z" fill="url(#paint0_linear_334_2135)"/>
</g>
<defs>
<linearGradient id="paint0_linear_334_2135" x1="84.9886" y1="0.012207" x2="84.9886" y2="170" gradientUnits="userSpaceOnUse">
<stop stop-color="#2257E2"/>
<stop offset="1" stop-color="#5AA6FF"/>
</linearGradient>
<clipPath id="clip0_334_2135">
<rect width="170" height="170" fill="white"/>
</clipPath>
</defs>
</svg>
