<svg width="17" height="17" viewBox="0 0 17 17" fill="none" xmlns="http://www.w3.org/2000/svg">
<g clip-path="url(#clip0_23_265)">
<path d="M16.0986 1.46951C16.0967 1.12482 15.9585 0.794881 15.7142 0.551705C15.4699 0.30853 15.1393 0.171855 14.7946 0.171509H1.40463C1.05971 0.173623 0.729644 0.312173 0.486555 0.556885C0.243466 0.801598 0.107117 1.13258 0.107299 1.47751L0.0986328 6.37084C0.116217 8.65515 0.907807 10.866 2.34413 12.6423C3.78045 14.4186 5.77662 15.6555 8.00663 16.1508C8.04921 16.1594 8.09254 16.1636 8.13597 16.1635C8.18077 16.1633 8.22544 16.1586 8.2693 16.1495C10.4948 15.6347 12.48 14.3805 13.9007 12.5917C15.3213 10.8028 16.0933 8.58514 16.0906 6.30084L16.0986 1.46951ZM3.02063 8.35818C3.00402 8.29951 3.00381 8.23742 3.02003 8.17865C3.03625 8.11987 3.06828 8.06668 3.11263 8.02484L8.8493 2.59618C8.91124 2.5375 8.99332 2.50482 9.07863 2.50484H10.7886C10.822 2.50489 10.8546 2.51496 10.8822 2.53374C10.9097 2.55252 10.9311 2.57914 10.9433 2.61017C10.9556 2.64119 10.9583 2.67519 10.951 2.70776C10.9438 2.74033 10.9269 2.76997 10.9026 2.79284L3.7353 9.57484C3.71641 9.59346 3.69334 9.60729 3.66802 9.61516C3.64269 9.62303 3.61585 9.62472 3.58973 9.62009C3.56362 9.61545 3.539 9.60463 3.51793 9.58852C3.49686 9.57241 3.47995 9.55149 3.46863 9.52751C3.28437 9.15203 3.13442 8.76066 3.02063 8.35818ZM3.22663 2.50484H6.10197C6.13524 2.50509 6.16768 2.51526 6.19515 2.53404C6.22262 2.55282 6.24386 2.57936 6.25617 2.61027C6.26848 2.64119 6.27129 2.67507 6.26425 2.70759C6.25721 2.74011 6.24063 2.76979 6.21663 2.79284L3.0413 5.79751C3.01763 5.81995 2.98789 5.83495 2.95578 5.84066C2.92366 5.84636 2.89058 5.84251 2.86063 5.8296C2.83068 5.81668 2.80518 5.79526 2.78728 5.76799C2.76939 5.74072 2.75989 5.70879 2.75997 5.67618L2.7653 2.97084C2.76547 2.84811 2.81398 2.73038 2.90033 2.64316C2.98667 2.55594 3.10391 2.50624 3.22663 2.50484ZM4.6533 11.2295C4.62319 11.1973 4.607 11.1545 4.60825 11.1105C4.6095 11.0664 4.62808 11.0246 4.65997 10.9942L13.236 2.87951C13.2532 2.86446 13.2743 2.85462 13.2969 2.85113C13.3195 2.84764 13.3427 2.85065 13.3636 2.8598C13.3846 2.86895 13.4025 2.88388 13.4153 2.90283C13.4281 2.92178 13.4353 2.94398 13.436 2.96684V4.60951C13.4359 4.655 13.4265 4.7 13.4084 4.74174C13.3903 4.78347 13.3638 4.82106 13.3306 4.85218L5.8253 11.8875C5.76709 11.9422 5.6912 11.9741 5.61143 11.9775C5.53166 11.981 5.45331 11.9556 5.39063 11.9062C5.12857 11.699 4.88212 11.4729 4.6533 11.2295ZM8.19663 13.1628C8.15024 13.1725 8.10236 13.1725 8.05597 13.1628C7.84737 13.118 7.6413 13.0622 7.43863 12.9955C7.41112 12.9864 7.38644 12.9704 7.36703 12.9489C7.34762 12.9273 7.33416 12.9011 7.32797 12.8728C7.32148 12.8447 7.32257 12.8153 7.33112 12.7876C7.33967 12.76 7.35537 12.7351 7.37663 12.7155L13.0793 7.37084C13.1045 7.34726 13.1365 7.3321 13.1707 7.32748C13.205 7.32285 13.2398 7.32897 13.2704 7.34501C13.301 7.36104 13.3259 7.38619 13.3416 7.41698C13.3573 7.44776 13.363 7.48266 13.358 7.51684C13.1632 8.86755 12.5669 10.1285 11.6466 11.1362C10.7262 12.1438 9.52423 12.8515 8.19663 13.1675V13.1628Z" fill="url(#paint0_linear_23_265)"/>
</g>
<defs>
<linearGradient id="paint0_linear_23_265" x1="8.09863" y1="0.171509" x2="8.09863" y2="16.1635" gradientUnits="userSpaceOnUse">
<stop stop-color="#2257E2"/>
<stop offset="1" stop-color="#5AA6FF"/>
</linearGradient>
<clipPath id="clip0_23_265">
<rect width="16" height="16" fill="white" transform="translate(0.0986328 0.16748)"/>
</clipPath>
</defs>
</svg>
