<svg width="20" height="20" viewBox="0 0 20 20" fill="none" xmlns="http://www.w3.org/2000/svg">
<path d="M10 10.4166C10.8241 10.4166 11.6297 10.1723 12.3149 9.71444C13.0001 9.2566 13.5341 8.60585 13.8495 7.8445C14.1649 7.08314 14.2474 6.24536 14.0866 5.43711C13.9258 4.62885 13.529 3.88642 12.9463 3.3037C12.3636 2.72098 11.6211 2.32415 10.8129 2.16338C10.0046 2.0026 9.16684 2.08512 8.40549 2.40048C7.64413 2.71585 6.99338 3.2499 6.53554 3.93511C6.0777 4.62031 5.83333 5.42589 5.83333 6.24998C5.83466 7.35464 6.27407 8.41368 7.05518 9.1948C7.8363 9.97591 8.89534 10.4153 10 10.4166ZM7.58333 5.63081C7.59993 5.56836 7.63083 5.51063 7.67358 5.46218C7.71633 5.41372 7.76976 5.37587 7.82966 5.35162C7.88955 5.32737 7.95427 5.31739 8.01869 5.32245C8.08311 5.32752 8.14546 5.3475 8.20083 5.38081C9.10711 5.94223 10.1506 6.24297 11.2167 6.24998C11.4758 6.24949 11.7346 6.22999 11.9908 6.19165C12.0549 6.18201 12.1204 6.18746 12.182 6.20757C12.2437 6.22768 12.2997 6.26189 12.3458 6.30748C12.3917 6.35324 12.4264 6.40908 12.4469 6.47057C12.4674 6.53205 12.4734 6.59748 12.4642 6.66165C12.3587 7.27824 12.0258 7.83287 11.5314 8.21606C11.0369 8.59925 10.4168 8.78315 9.79337 8.73145C9.16996 8.67975 8.58858 8.39622 8.164 7.93681C7.73942 7.47741 7.5025 6.87553 7.5 6.24998C7.5003 6.04082 7.52833 5.83262 7.58333 5.63081ZM10 11.25C8.34294 11.2517 6.75425 11.9108 5.58253 13.0825C4.41081 14.2542 3.75176 15.8429 3.75 17.5C3.75 17.6105 3.7939 17.7165 3.87204 17.7946C3.95018 17.8727 4.05616 17.9166 4.16667 17.9166H15.8333C15.9438 17.9166 16.0498 17.8727 16.128 17.7946C16.2061 17.7165 16.25 17.6105 16.25 17.5C16.2482 15.8429 15.5892 14.2542 14.4175 13.0825C13.2457 11.9108 11.6571 11.2517 10 11.25Z" fill="url(#paint0_linear_334_2116)"/>
<defs>
<linearGradient id="paint0_linear_334_2116" x1="10" y1="2.08331" x2="10" y2="17.9166" gradientUnits="userSpaceOnUse">
<stop stop-color="#2257E2"/>
<stop offset="1" stop-color="#5AA6FF"/>
</linearGradient>
</defs>
</svg>
