<svg width="14" height="14" viewBox="0 0 14 14" fill="none" xmlns="http://www.w3.org/2000/svg">
<path d="M11.8998 6.88423C11.8854 5.5987 11.3637 4.37036 10.4472 3.46446C9.99351 3.01642 9.45378 2.66395 8.86022 2.42812C8.26666 2.19228 7.63145 2.07791 6.9925 2.09183C5.68323 2.11325 4.43501 2.64663 3.51764 3.57668C3.05879 4.03183 2.69682 4.57437 2.45335 5.17188C2.20989 5.7694 2.08993 6.40963 2.10063 7.05434C2.09993 7.68426 2.22412 8.30812 2.46609 8.89018C2.70805 9.47224 3.06304 10.0011 3.5107 10.4463C3.95836 10.8916 4.4899 11.2445 5.07485 11.4849C5.6598 11.7253 6.28666 11.8485 6.91952 11.8473H7.00793C8.31734 11.8333 9.56771 11.3029 10.4848 10.3725C11.4018 9.44208 11.9107 8.1876 11.8998 6.88423ZM6.40683 4.60557C6.40683 4.44892 6.46935 4.29869 6.58063 4.18793C6.69191 4.07716 6.84284 4.01493 7.00022 4.01493C7.15759 4.01493 7.30852 4.07716 7.4198 4.18793C7.53109 4.29869 7.5936 4.44892 7.5936 4.60557V7.26342C7.5936 7.42007 7.53109 7.57029 7.4198 7.68106C7.30852 7.79183 7.15759 7.85405 7.00022 7.85405C6.84284 7.85405 6.69191 7.79183 6.58063 7.68106C6.46935 7.57029 6.40683 7.42007 6.40683 7.26342V4.60557ZM7.01327 9.93485H7.00022C6.8035 9.9365 6.61418 9.86029 6.47391 9.723C6.33364 9.58571 6.25391 9.39857 6.25226 9.20276C6.2506 9.00696 6.32717 8.81852 6.4651 8.6789C6.60303 8.53928 6.79104 8.45992 6.98776 8.45827H7.00022C7.19694 8.4567 7.38622 8.53299 7.52644 8.67034C7.66665 8.80768 7.74631 8.99485 7.74788 9.19066C7.74946 9.38646 7.67282 9.57487 7.53483 9.71444C7.39684 9.854 7.20881 9.93329 7.01209 9.93485H7.01327Z" fill="#FFB169"/>
</svg>
