<svg width="22" height="16" viewBox="0 0 22 16" fill="none" xmlns="http://www.w3.org/2000/svg">
<rect width="22" height="16" rx="2" fill="#6967E0" fill-opacity="0.1"/>
<path d="M7.74695 6.59828H6.24695C6.10888 6.59828 5.99695 6.71021 5.99695 6.84828V11.3483C5.99695 11.4864 6.10888 11.5983 6.24695 11.5983H7.74695C7.88502 11.5983 7.99695 11.4864 7.99695 11.3483V6.84828C7.99695 6.71021 7.88502 6.59828 7.74695 6.59828Z" fill="#6967E0"/>
<path d="M11.7469 6.59828H10.2469C10.1089 6.59828 9.99695 6.71021 9.99695 6.84828V11.3483C9.99695 11.4864 10.1089 11.5983 10.2469 11.5983H11.7469C11.885 11.5983 11.9969 11.4864 11.9969 11.3483V6.84828C11.9969 6.71021 11.885 6.59828 11.7469 6.59828Z" fill="#6967E0"/>
<path d="M15.7469 6.59828H14.2469C14.1089 6.59828 13.9969 6.71021 13.9969 6.84828V11.3483C13.9969 11.4864 14.1089 11.5983 14.2469 11.5983H15.7469C15.885 11.5983 15.9969 11.4864 15.9969 11.3483V6.84828C15.9969 6.71021 15.885 6.59828 15.7469 6.59828Z" fill="#6967E0"/>
<path d="M16.533 12.8483H5.53297C5.33406 12.8483 5.14329 12.9273 5.00264 13.068C4.86199 13.2086 4.78297 13.3994 4.78297 13.5983C4.78297 13.7972 4.86199 13.988 5.00264 14.1286C5.14329 14.2693 5.33406 14.3483 5.53297 14.3483H16.533C16.7319 14.3483 16.9226 14.2693 17.0633 14.1286C17.204 13.988 17.283 13.7972 17.283 13.5983C17.283 13.3994 17.204 13.2086 17.0633 13.068C16.9226 12.9273 16.7319 12.8483 16.533 12.8483ZM17.221 4.59229L11.444 1.70429C11.3051 1.63569 11.1523 1.60001 10.9975 1.60001C10.8426 1.60001 10.6898 1.63569 10.551 1.70429L4.77597 4.59229C4.67539 4.6427 4.59475 4.72556 4.54709 4.82747C4.49942 4.92938 4.48752 5.04439 4.51331 5.1539C4.5391 5.26341 4.60107 5.36102 4.6892 5.43096C4.77733 5.50089 4.88646 5.53906 4.99897 5.53929H16.999C17.1116 5.53928 17.2209 5.50127 17.3092 5.43142C17.3975 5.36156 17.4596 5.26395 17.4855 5.15438C17.5114 5.04482 17.4996 4.92971 17.452 4.8277C17.4043 4.72568 17.3236 4.64274 17.223 4.59229H17.221Z" fill="#6967E0"/>
</svg>
