<svg width="22" height="16" viewBox="0 0 22 16" fill="none" xmlns="http://www.w3.org/2000/svg">
<rect opacity="0.1" width="22" height="16" rx="2" fill="#6967E0"/>
<path d="M3 12.125C3 12.4897 3.14658 12.8394 3.4075 13.0973C3.66842 13.3551 4.02231 13.5 4.3913 13.5H17.6087C17.9777 13.5 18.3316 13.3551 18.5925 13.0973C18.8534 12.8394 19 12.4897 19 12.125V6.28125C19 6.23567 18.9817 6.19195 18.9491 6.15972C18.9164 6.12748 18.8722 6.10938 18.8261 6.10938H3.17391C3.12779 6.10938 3.08355 6.12748 3.05094 6.15972C3.01832 6.19195 3 6.23567 3 6.28125V12.125ZM14.4783 10.5781H16.5652C16.7036 10.5781 16.8363 10.6325 16.9341 10.7291C17.032 10.8258 17.087 10.957 17.087 11.0938C17.087 11.2305 17.032 11.3617 16.9341 11.4584C16.8363 11.5551 16.7036 11.6094 16.5652 11.6094H14.4783C14.3399 11.6094 14.2072 11.5551 14.1093 11.4584C14.0115 11.3617 13.9565 11.2305 13.9565 11.0938C13.9565 10.957 14.0115 10.8258 14.1093 10.7291C14.2072 10.6325 14.3399 10.5781 14.4783 10.5781ZM5.78261 7.82812H11.3478C11.4862 7.82812 11.6189 7.88245 11.7168 7.97915C11.8146 8.07585 11.8696 8.207 11.8696 8.34375C11.8696 8.4805 11.8146 8.61165 11.7168 8.70835C11.6189 8.80505 11.4862 8.85938 11.3478 8.85938H5.78261C5.64423 8.85938 5.51153 8.80505 5.41368 8.70835C5.31584 8.61165 5.26087 8.4805 5.26087 8.34375C5.26087 8.207 5.31584 8.07585 5.41368 7.97915C5.51153 7.88245 5.64423 7.82812 5.78261 7.82812ZM5.78261 10.5781H7.86957C8.00794 10.5781 8.14065 10.6325 8.23849 10.7291C8.33634 10.8258 8.3913 10.957 8.3913 11.0938C8.3913 11.2305 8.33634 11.3617 8.23849 11.4584C8.14065 11.5551 8.00794 11.6094 7.86957 11.6094H5.78261C5.64423 11.6094 5.51153 11.5551 5.41368 11.4584C5.31584 11.3617 5.26087 11.2305 5.26087 11.0938C5.26087 10.957 5.31584 10.8258 5.41368 10.7291C5.51153 10.6325 5.64423 10.5781 5.78261 10.5781ZM19 3.875C19 3.51033 18.8534 3.16059 18.5925 2.90273C18.3316 2.64487 17.9777 2.5 17.6087 2.5H4.3913C4.02231 2.5 3.66842 2.64487 3.4075 2.90273C3.14658 3.16059 3 3.51033 3 3.875V4.90625C3 4.95183 3.01832 4.99555 3.05094 5.02778C3.08355 5.06002 3.12779 5.07812 3.17391 5.07812H18.8261C18.8722 5.07812 18.9164 5.06002 18.9491 5.02778C18.9817 4.99555 19 4.95183 19 4.90625V3.875Z" fill="#6967E0"/>
</svg>
