<svg width="14" height="12" viewBox="0 0 14 12" fill="none" xmlns="http://www.w3.org/2000/svg">
<path d="M5.68201 9.2499L5.21601 9.71589C4.79405 10.1379 4.22175 10.3749 3.62501 10.3749C3.02827 10.3749 2.45597 10.1379 2.03401 9.71589C1.61205 9.29394 1.375 8.72164 1.375 8.1249C1.375 7.52815 1.61205 6.95585 2.03401 6.5339L4.42051 4.14689C4.82062 3.74588 5.35728 3.51054 5.92331 3.48789C6.48933 3.46523 7.04308 3.65691 7.47397 4.02466C7.90485 4.39242 8.18116 4.90917 8.24772 5.47172C8.31428 6.03428 8.16618 6.60125 7.83301 7.0594" stroke="#2266E2" stroke-width="1.05882" stroke-linecap="round" stroke-linejoin="round"/>
<path d="M8.4091 2.78353L8.7841 2.40853C9.20606 1.98657 9.77836 1.74951 10.3751 1.74951C10.9718 1.74951 11.5441 1.98657 11.9661 2.40853C12.3881 2.83049 12.6251 3.40278 12.6251 3.99953C12.6251 4.59627 12.3881 5.16857 11.9661 5.59053L9.5796 7.97703C9.1794 8.37787 8.64275 8.61303 8.07678 8.63555C7.5108 8.65808 6.95716 8.4663 6.52638 8.09852C6.0956 7.73075 5.81938 7.21402 5.75287 6.65152C5.68637 6.08902 5.83446 5.52213 6.1676 5.06403" stroke="#2266E2" stroke-width="1.05882" stroke-linecap="round" stroke-linejoin="round"/>
</svg>
