<svg width="22" height="16" viewBox="0 0 22 16" fill="none" xmlns="http://www.w3.org/2000/svg">
<rect opacity="0.1" width="22" height="16" rx="2" fill="#6967E0"/>
<path d="M15.1302 11.0208C14.5915 11.0208 14.0749 10.8068 13.6939 10.4259C13.313 10.045 13.099 9.52831 13.099 8.98959C13.099 8.45087 13.313 7.93422 13.6939 7.55328C14.0749 7.17235 14.5915 6.95834 15.1302 6.95834H16.349C16.3849 6.95834 16.4194 6.94408 16.4448 6.91868C16.4701 6.89329 16.4844 6.85884 16.4844 6.82293V5.46876C16.4844 5.10961 16.3417 4.76518 16.0878 4.51122C15.8338 4.25726 15.4894 4.11459 15.1302 4.11459H5.92192C5.56277 4.11459 5.21833 4.25726 4.96438 4.51122C4.71042 4.76518 4.56775 5.10961 4.56775 5.46876V12.5104C4.56775 12.8696 4.71042 13.214 4.96438 13.468C5.21833 13.7219 5.56277 13.8646 5.92192 13.8646H15.1302C15.4894 13.8646 15.8338 13.7219 16.0878 13.468C16.3417 13.214 16.4844 12.8696 16.4844 12.5104V11.1563C16.4844 11.1203 16.4701 11.0859 16.4448 11.0605C16.4194 11.0351 16.3849 11.0208 16.349 11.0208H15.1302Z" fill="#6967E0"/>
<path d="M16.7552 7.77081H15.1302C14.807 7.77081 14.497 7.89922 14.2685 8.12778C14.0399 8.35634 13.9115 8.66633 13.9115 8.98956C13.9115 9.3128 14.0399 9.62279 14.2685 9.85135C14.497 10.0799 14.807 10.2083 15.1302 10.2083H16.7552C16.9462 10.1754 17.1192 10.0755 17.2433 9.92666C17.3674 9.77778 17.4344 9.5896 17.4323 9.39581V8.58331C17.4344 8.38953 17.3674 8.20135 17.2433 8.05247C17.1192 7.90359 16.9462 7.80375 16.7552 7.77081ZM15.2315 1.63698C15.2104 1.55177 15.1724 1.47164 15.1199 1.40126C15.0674 1.33089 15.0014 1.27168 14.9258 1.2271C14.8501 1.18252 14.7663 1.15346 14.6793 1.14162C14.5923 1.12979 14.5038 1.1354 14.419 1.15815L7.44671 3.03502C7.41518 3.04372 7.38787 3.06352 7.36981 3.09078C7.35175 3.11805 7.34417 3.15092 7.34846 3.18334C7.35275 3.21576 7.36863 3.24553 7.39316 3.26715C7.41769 3.28877 7.44922 3.30079 7.48192 3.30098L15.4769 3.3129C15.4976 3.31305 15.518 3.30846 15.5366 3.29947C15.5552 3.29048 15.5715 3.27735 15.5842 3.26107C15.5969 3.24479 15.6057 3.22581 15.6099 3.20559C15.6142 3.18537 15.6137 3.16445 15.6085 3.14444L15.2315 1.63698Z" fill="#6967E0"/>
</svg>
