<svg width="8" height="8" viewBox="0 0 8 8" fill="none" xmlns="http://www.w3.org/2000/svg">
<path opacity="0.5" d="M4.76632 4.05895C4.75856 4.05121 4.7524 4.04201 4.7482 4.03189C4.744 4.02177 4.74184 4.01091 4.74184 3.99995C4.74184 3.98899 4.744 3.97814 4.7482 3.96801C4.7524 3.95789 4.75856 3.94869 4.76632 3.94095L7.85373 0.853744C7.94748 0.759861 8.00009 0.632581 8 0.499905C7.99991 0.367228 7.94711 0.240023 7.85323 0.146272C7.75936 0.052522 7.63208 -9.36379e-05 7.49941 1.25102e-07C7.36674 9.38881e-05 7.23954 0.0528894 7.14579 0.146772L4.05871 3.23265C4.05097 3.24041 4.04177 3.24657 4.03165 3.25077C4.02153 3.25497 4.01068 3.25713 3.99972 3.25713C3.98875 3.25713 3.9779 3.25497 3.96778 3.25077C3.95766 3.24657 3.94846 3.24041 3.94072 3.23265L0.853639 0.146772C0.807221 0.10033 0.75211 0.0634856 0.691453 0.0383428C0.630796 0.0132001 0.56578 0.000251286 0.500119 0.000235811C0.367511 0.000204556 0.240321 0.0528554 0.14653 0.146606C0.0527398 0.240356 3.12674e-05 0.367526 1.39067e-08 0.50014C-3.12396e-05 0.632755 0.0526174 0.75995 0.146364 0.853744L3.23311 3.94095C3.24087 3.94869 3.24703 3.95789 3.25123 3.96801C3.25543 3.97814 3.25759 3.98899 3.25759 3.99995C3.25759 4.01091 3.25543 4.02177 3.25123 4.03189C3.24703 4.04201 3.24087 4.05121 3.23311 4.05895L0.146364 7.14649C0.0999452 7.19293 0.0631284 7.24807 0.0380153 7.30874C0.0129021 7.36941 -1.54613e-05 7.43443 1.39067e-08 7.5001C3.12674e-05 7.63271 0.0527398 7.75988 0.14653 7.85363C0.192971 7.90005 0.248099 7.93687 0.308768 7.96198C0.369437 7.9871 0.434458 8.00002 0.500119 8C0.632728 7.99997 0.759893 7.94726 0.853639 7.85346L3.94072 4.76592C3.94846 4.75816 3.95766 4.752 3.96778 4.7478C3.9779 4.7436 3.98875 4.74144 3.99972 4.74144C4.01068 4.74144 4.02153 4.7436 4.03165 4.7478C4.04177 4.752 4.05097 4.75816 4.05871 4.76592L7.14579 7.85346C7.23954 7.94726 7.3667 7.99997 7.49931 8C7.63192 8.00003 7.75911 7.94738 7.8529 7.85363C7.94669 7.75988 7.9994 7.63271 7.99943 7.5001C7.99946 7.36748 7.94681 7.24029 7.85307 7.14649L4.76632 4.05895Z" fill="white"/>
</svg>
