<svg width="6" height="4" viewBox="0 0 6 4" fill="none" xmlns="http://www.w3.org/2000/svg">
<path d="M5.35191 0.091511C5.47995 0.0912819 5.60518 0.129053 5.71174 0.200042C5.8183 0.271031 5.9014 0.372044 5.95052 0.490291C5.99963 0.608538 6.01255 0.738701 5.98764 0.864295C5.96273 0.98989 5.90111 1.10527 5.81059 1.19582L3.45706 3.5487C3.33345 3.66559 3.16979 3.73071 2.99968 3.73071C2.82956 3.73071 2.6659 3.66559 2.5423 3.5487L0.189413 1.19582C0.0989657 1.10535 0.0373739 0.990086 0.0124233 0.864612C-0.0125272 0.739138 0.000283855 0.609084 0.0492371 0.49089C0.0981903 0.372696 0.181088 0.27167 0.28745 0.200582C0.393811 0.129495 0.518861 0.0915382 0.646792 0.091511H5.35191Z" fill="#DDDDDD"/>
</svg>
