<svg width="20" height="20" viewBox="0 0 20 20" fill="none" xmlns="http://www.w3.org/2000/svg">
<path d="M14.0667 16.9997H5.90007C5.59065 16.9997 5.2939 16.8768 5.07511 16.658C4.85631 16.4392 4.7334 16.1424 4.7334 15.833V5.33301H15.2334V15.833C15.2334 16.1424 15.1105 16.4392 14.8917 16.658C14.6729 16.8768 14.3762 16.9997 14.0667 16.9997Z" stroke="#717171" stroke-width="1.3" stroke-linecap="round" stroke-linejoin="round"/>
<path d="M8.2334 13.4997V8.83301" stroke="#717171" stroke-width="1.3" stroke-linecap="round" stroke-linejoin="round"/>
<path d="M11.7334 13.4997V8.83301" stroke="#717171" stroke-width="1.3" stroke-linecap="round" stroke-linejoin="round"/>
<path d="M2.3999 5.33301H17.5666" stroke="#717171" stroke-width="1.3" stroke-linecap="round" stroke-linejoin="round"/>
<path d="M11.7336 3H8.23356C7.92414 3 7.6274 3.12292 7.4086 3.34171C7.18981 3.5605 7.06689 3.85725 7.06689 4.16667V5.33333H12.9002V4.16667C12.9002 3.85725 12.7773 3.5605 12.5585 3.34171C12.3397 3.12292 12.043 3 11.7336 3Z" stroke="#717171" stroke-width="1.3" stroke-linecap="round" stroke-linejoin="round"/>
</svg>
