<svg width="16" height="16" viewBox="0 0 16 16" fill="none" xmlns="http://www.w3.org/2000/svg">
<path d="M9.64526 3.70107C9.62039 3.67598 9.59081 3.65605 9.55822 3.64243C9.52563 3.6288 9.49067 3.62175 9.45535 3.62167C9.42006 3.62168 9.38512 3.62865 9.35254 3.64218C9.31995 3.65571 9.29035 3.67554 9.26544 3.70053L3.40611 9.56147C3.35582 9.61177 3.32757 9.67999 3.32757 9.75112C3.32757 9.82224 3.35582 9.89046 3.40611 9.94076L6.06056 12.5952C6.11086 12.6455 6.17908 12.6737 6.2502 12.6737C6.32133 12.6737 6.38955 12.6455 6.43985 12.5952L12.2965 6.73856C12.3466 6.68828 12.3748 6.62019 12.3748 6.54919C12.3748 6.4782 12.3466 6.4101 12.2965 6.35982L9.64526 3.70107ZM2.86588 10.5754C2.83214 10.5418 2.79006 10.5177 2.74395 10.5058C2.69785 10.4938 2.64938 10.4943 2.60355 10.5073C2.55764 10.5201 2.51599 10.545 2.48289 10.5793C2.44979 10.6137 2.42644 10.6562 2.41524 10.7025L1.60732 14.07C1.59666 14.1146 1.59762 14.1612 1.61011 14.2053C1.6226 14.2495 1.64621 14.2897 1.67867 14.3221C1.71134 14.3542 1.75158 14.3775 1.79566 14.3899C1.83973 14.4022 1.88622 14.4033 1.93081 14.3929L5.29556 13.5882C5.34195 13.5771 5.38455 13.5538 5.41895 13.5208C5.45336 13.4877 5.47833 13.4461 5.49128 13.4002C5.50424 13.3543 5.50471 13.3057 5.49265 13.2596C5.4806 13.2134 5.45645 13.1713 5.4227 13.1376L2.86588 10.5754ZM14.0084 3.13134L12.8694 1.99187C12.618 1.74093 12.2773 1.6 11.922 1.6C11.5668 1.6 11.2261 1.74093 10.9746 1.99187L10.2139 2.75205C10.1636 2.80235 10.1354 2.87057 10.1354 2.94169C10.1354 3.01282 10.1636 3.08104 10.2139 3.13134L12.8694 5.78633C12.9197 5.83662 12.988 5.86487 13.0591 5.86487C13.1302 5.86487 13.1984 5.83662 13.2487 5.78633L14.0084 5.02508C14.259 4.77368 14.3997 4.43318 14.3997 4.07821C14.3997 3.72323 14.259 3.38273 14.0084 3.13134Z" fill="#DDDDDD"/>
</svg>
