<svg width="20" height="14" viewBox="0 0 20 14" fill="none" xmlns="http://www.w3.org/2000/svg">
<g opacity="0.5">
<path d="M10.8567 12.2918H8.80809C8.71753 12.2918 8.63069 12.3278 8.56665 12.3918C8.50262 12.4558 8.46665 12.5427 8.46665 12.6332C8.46665 12.9954 8.61054 13.3428 8.86667 13.599C9.1228 13.8551 9.47018 13.999 9.8324 13.999C10.1946 13.999 10.542 13.8551 10.7981 13.599C11.0543 13.3428 11.1982 12.9954 11.1982 12.6332C11.1982 12.5427 11.1622 12.4558 11.0982 12.3918C11.0341 12.3278 10.9473 12.2918 10.8567 12.2918ZM14.6125 10.2432C14.4314 10.2432 14.2577 10.1712 14.1297 10.0431C14.0016 9.91508 13.9297 9.74139 13.9297 9.56028V6.48733C13.9297 4.13072 12.4499 2.1736 10.5153 1.79324V0.682877C10.5153 0.501767 10.4433 0.328074 10.3153 0.20001C10.1872 0.0719458 10.0135 0 9.8324 0C9.65129 0 9.4776 0.0719458 9.34954 0.20001C9.22147 0.328074 9.14953 0.501767 9.14953 0.682877V1.79392C7.21494 2.17428 5.73514 4.13141 5.73514 6.48733V9.56028C5.73514 9.74139 5.66319 9.91508 5.53513 10.0431C5.40706 10.1712 5.23337 10.2432 5.05226 10.2432C4.87115 10.2432 4.69746 10.3151 4.56939 10.4432C4.44133 10.5712 4.36938 10.7449 4.36938 10.926C4.36938 11.1071 4.44133 11.2808 4.56939 11.4089C4.69746 11.537 4.87115 11.6089 5.05226 11.6089H14.6125C14.7937 11.6089 14.9673 11.537 15.0954 11.4089C15.2235 11.2808 15.2954 11.1071 15.2954 10.926C15.2954 10.7449 15.2235 10.5712 15.0954 10.4432C14.9673 10.3151 14.7937 10.2432 14.6125 10.2432Z" fill="#717171"/>
<path d="M3.1817 2.00032C3.35912 1.96431 3.54358 2.00023 3.69452 2.10018C3.76938 2.14977 3.83371 2.21363 3.88386 2.28812C3.934 2.3626 3.96896 2.44624 3.98674 2.53425C4.00451 2.62226 4.00476 2.71292 3.98746 2.80102C3.97016 2.88913 3.93566 2.97296 3.88592 3.04772C3.52522 3.57991 3.30233 4.19335 3.23727 4.83296C3.18234 5.4735 3.28809 6.11761 3.54493 6.70697C3.58243 6.79001 3.60293 6.87972 3.60523 6.97081C3.60752 7.0619 3.59156 7.15253 3.55829 7.23736C3.52502 7.32218 3.47511 7.3995 3.4115 7.46474C3.34789 7.52998 3.27186 7.58183 3.18791 7.61723C3.10395 7.65264 3.01375 7.67088 2.92263 7.67089C2.83151 7.6709 2.74131 7.65267 2.65735 7.61728C2.57338 7.58189 2.49734 7.53006 2.43372 7.46483C2.3701 7.3996 2.32017 7.3223 2.28688 7.23748C1.93801 6.44171 1.79731 5.57027 1.87805 4.70515C1.95878 3.84003 2.25829 3.00966 2.74838 2.29219C2.84842 2.14131 3.00428 2.03633 3.1817 2.00032Z" fill="#717171"/>
<path d="M16.1694 2.00032C15.992 1.96431 15.8075 2.00023 15.6566 2.10018C15.5817 2.14977 15.5174 2.21363 15.4672 2.28812C15.4171 2.3626 15.3821 2.44624 15.3643 2.53425C15.3466 2.62226 15.3463 2.71292 15.3636 2.80102C15.3809 2.88913 15.4154 2.97296 15.4652 3.04772C15.8259 3.57991 16.0487 4.19335 16.1138 4.83296C16.1687 5.4735 16.063 6.11761 15.8061 6.70697C15.7686 6.79001 15.7481 6.87972 15.7458 6.97081C15.7436 7.0619 15.7595 7.15253 15.7928 7.23736C15.8261 7.32218 15.876 7.3995 15.9396 7.46474C16.0032 7.52998 16.0792 7.58183 16.1632 7.61723C16.2471 7.65264 16.3373 7.67088 16.4284 7.67089C16.5196 7.6709 16.6098 7.65267 16.6937 7.61728C16.7777 7.58189 16.8537 7.53006 16.9174 7.46483C16.981 7.3996 17.0309 7.3223 17.0642 7.23748C17.4131 6.44171 17.5538 5.57027 17.473 4.70515C17.3923 3.84003 17.0928 3.00966 16.6027 2.29219C16.5027 2.14131 16.3468 2.03633 16.1694 2.00032Z" fill="#717171"/>
</g>
</svg>
