<svg width="16" height="16" viewBox="0 0 16 16" fill="none" xmlns="http://www.w3.org/2000/svg">
<path d="M14.6667 4H12.1667C12.1225 4 12.0801 3.98244 12.0488 3.95118C12.0176 3.91993 12 3.87754 12 3.83333V1.33333C12 0.979711 11.8595 0.640573 11.6095 0.390524C11.3594 0.140476 11.0203 0 10.6667 0L1.33333 0C0.979711 0 0.640573 0.140476 0.390524 0.390524C0.140476 0.640573 0 0.979711 0 1.33333L0 10.6667C0 11.0203 0.140476 11.3594 0.390524 11.6095C0.640573 11.8595 0.979711 12 1.33333 12H3.83333C3.87754 12 3.91993 12.0176 3.95118 12.0488C3.98244 12.0801 4 12.1225 4 12.1667V14.6667C4 15.0203 4.14048 15.3594 4.39052 15.6095C4.64057 15.8595 4.97971 16 5.33333 16H14.6667C15.0203 16 15.3594 15.8595 15.6095 15.6095C15.8595 15.3594 16 15.0203 16 14.6667V5.33333C16 4.97971 15.8595 4.64057 15.6095 4.39052C15.3594 4.14048 15.0203 4 14.6667 4ZM1.33333 1.66667C1.33333 1.57826 1.36845 1.49348 1.43096 1.43096C1.49348 1.36845 1.57826 1.33333 1.66667 1.33333H10.3333C10.4217 1.33333 10.5065 1.36845 10.569 1.43096C10.6315 1.49348 10.6667 1.57826 10.6667 1.66667V10.3333C10.6667 10.4217 10.6315 10.5065 10.569 10.569C10.5065 10.6315 10.4217 10.6667 10.3333 10.6667H1.66667C1.57826 10.6667 1.49348 10.6315 1.43096 10.569C1.36845 10.5065 1.33333 10.4217 1.33333 10.3333V1.66667Z" fill="url(#paint0_linear)"/>
<defs>
<linearGradient id="paint0_linear" x1="8" y1="0" x2="8" y2="16" gradientUnits="userSpaceOnUse">
<stop stop-color="#2257E2"/>
<stop offset="1" stop-color="#5AA6FF"/>
</linearGradient>
</defs>
</svg>
