<svg width="14" height="14" viewBox="0 0 14 14" fill="none" xmlns="http://www.w3.org/2000/svg">
<path d="M8.64526 2.70107C8.62039 2.67598 8.59081 2.65605 8.55822 2.64243C8.52563 2.6288 8.49067 2.62175 8.45535 2.62167C8.42006 2.62168 8.38512 2.62865 8.35254 2.64218C8.31995 2.65571 8.29035 2.67554 8.26544 2.70053L2.40611 8.56147C2.35582 8.61177 2.32757 8.67999 2.32757 8.75112C2.32757 8.82224 2.35582 8.89046 2.40611 8.94076L5.06056 11.5952C5.11086 11.6455 5.17908 11.6737 5.2502 11.6737C5.32133 11.6737 5.38955 11.6455 5.43985 11.5952L11.2965 5.73856C11.3466 5.68828 11.3748 5.62019 11.3748 5.54919C11.3748 5.4782 11.3466 5.4101 11.2965 5.35982L8.64526 2.70107ZM1.86588 9.5754C1.83214 9.54177 1.79006 9.51774 1.74395 9.50577C1.69785 9.49379 1.64938 9.49431 1.60355 9.50727C1.55764 9.52015 1.51599 9.54503 1.48289 9.57935C1.44979 9.61367 1.42644 9.6562 1.41524 9.70255L0.60732 13.07C0.596658 13.1146 0.597619 13.1612 0.610111 13.2053C0.622602 13.2495 0.646208 13.2897 0.678671 13.3221C0.711343 13.3542 0.751581 13.3775 0.795657 13.3899C0.839733 13.4022 0.886221 13.4033 0.930812 13.3929L4.29556 12.5882C4.34195 12.5771 4.38455 12.5538 4.41895 12.5208C4.45336 12.4877 4.47833 12.4461 4.49128 12.4002C4.50424 12.3543 4.50471 12.3057 4.49265 12.2596C4.4806 12.2134 4.45645 12.1713 4.4227 12.1376L1.86588 9.5754ZM13.0084 2.13134L11.8694 0.991873C11.618 0.740933 11.2773 0.599998 10.922 0.599998C10.5668 0.599998 10.2261 0.740933 9.97463 0.991873L9.21392 1.75205C9.16363 1.80235 9.13538 1.87057 9.13538 1.94169C9.13538 2.01282 9.16363 2.08104 9.21392 2.13134L11.8694 4.78633C11.9197 4.83662 11.988 4.86487 12.0591 4.86487C12.1302 4.86487 12.1984 4.83662 12.2487 4.78633L13.0084 4.02508C13.259 3.77368 13.3997 3.43318 13.3997 3.07821C13.3997 2.72323 13.259 2.38273 13.0084 2.13134Z" fill="#DDDDDD"/>
</svg>
