<svg width="20" height="20" viewBox="0 0 20 20" fill="none" xmlns="http://www.w3.org/2000/svg">
<path d="M7.66667 3H3.93333C3.41787 3 3 3.41787 3 3.93333V7.66667C3 8.18213 3.41787 8.6 3.93333 8.6H7.66667C8.18213 8.6 8.6 8.18213 8.6 7.66667V3.93333C8.6 3.41787 8.18213 3 7.66667 3Z" stroke="#717171" stroke-width="1.2" stroke-linecap="round" stroke-linejoin="round"/>
<path d="M7.66667 11.4H3.93333C3.41787 11.4 3 11.8179 3 12.3333V16.0667C3 16.5821 3.41787 17 3.93333 17H7.66667C8.18213 17 8.6 16.5821 8.6 16.0667V12.3333C8.6 11.8179 8.18213 11.4 7.66667 11.4Z" stroke="#717171" stroke-width="1.2" stroke-linecap="round" stroke-linejoin="round"/>
<path d="M16.0667 3H12.3334C11.8179 3 11.4 3.41787 11.4 3.93333V7.66667C11.4 8.18213 11.8179 8.6 12.3334 8.6H16.0667C16.5822 8.6 17 8.18213 17 7.66667V3.93333C17 3.41787 16.5822 3 16.0667 3Z" stroke="#717171" stroke-width="1.2" stroke-linecap="round" stroke-linejoin="round"/>
<path d="M16.0667 11.4H12.3334C11.8179 11.4 11.4 11.8179 11.4 12.3333V16.0667C11.4 16.5821 11.8179 17 12.3334 17H16.0667C16.5822 17 17 16.5821 17 16.0667V12.3333C17 11.8179 16.5822 11.4 16.0667 11.4Z" stroke="#717171" stroke-width="1.2" stroke-linecap="round" stroke-linejoin="round"/>
</svg>
