<svg width="20" height="20" viewBox="0 0 20 20" fill="none" xmlns="http://www.w3.org/2000/svg">
<path d="M7.66667 3H3.93333C3.41787 3 3 3.41787 3 3.93333V7.66667C3 8.18213 3.41787 8.6 3.93333 8.6H7.66667C8.18213 8.6 8.6 8.18213 8.6 7.66667V3.93333C8.6 3.41787 8.18213 3 7.66667 3Z" stroke="#2266E2" stroke-width="1.2" stroke-linecap="round" stroke-linejoin="round"/>
<path d="M7.66667 11.4H3.93333C3.41787 11.4 3 11.8179 3 12.3333V16.0667C3 16.5821 3.41787 17 3.93333 17H7.66667C8.18213 17 8.6 16.5821 8.6 16.0667V12.3333C8.6 11.8179 8.18213 11.4 7.66667 11.4Z" stroke="#2266E2" stroke-width="1.2" stroke-linecap="round" stroke-linejoin="round"/>
<path d="M16.0671 3H12.3337C11.8183 3 11.4004 3.41787 11.4004 3.93333V7.66667C11.4004 8.18213 11.8183 8.6 12.3337 8.6H16.0671C16.5825 8.6 17.0004 8.18213 17.0004 7.66667V3.93333C17.0004 3.41787 16.5825 3 16.0671 3Z" stroke="#2266E2" stroke-width="1.2" stroke-linecap="round" stroke-linejoin="round"/>
<path d="M16.0671 11.4H12.3337C11.8183 11.4 11.4004 11.8179 11.4004 12.3333V16.0667C11.4004 16.5821 11.8183 17 12.3337 17H16.0671C16.5825 17 17.0004 16.5821 17.0004 16.0667V12.3333C17.0004 11.8179 16.5825 11.4 16.0671 11.4Z" stroke="#2266E2" stroke-width="1.2" stroke-linecap="round" stroke-linejoin="round"/>
</svg>
