<svg width="87" height="82" viewBox="0 0 87 82" fill="none" xmlns="http://www.w3.org/2000/svg">
<rect x="0.5" y="0.5" width="86" height="81" rx="3.5" fill="#EBEBEB" stroke="#DDDDDD"/>
<g clip-path="url(#clip0)">
<path d="M54.5 33.5H43.736C43.6432 33.5 43.5523 33.4742 43.4733 33.4254C43.3944 33.3767 43.3306 33.3069 43.289 33.224L42.342 31.324C42.2172 31.0753 42.0255 30.8664 41.7884 30.7208C41.5513 30.5752 41.2782 30.4988 41 30.5H33.5C33.1022 30.5 32.7206 30.658 32.4393 30.9393C32.158 31.2206 32 31.6022 32 32V50C32 50.3978 32.158 50.7794 32.4393 51.0607C32.7206 51.342 33.1022 51.5 33.5 51.5H54.5C54.8978 51.5 55.2794 51.342 55.5607 51.0607C55.842 50.7794 56 50.3978 56 50V35C56 34.6022 55.842 34.2206 55.5607 33.9393C55.2794 33.658 54.8978 33.5 54.5 33.5ZM40.8 36C41.1956 36 41.5822 36.1173 41.9111 36.3371C42.24 36.5568 42.4964 36.8692 42.6478 37.2346C42.7991 37.6001 42.8387 38.0022 42.7616 38.3902C42.6844 38.7781 42.4939 39.1345 42.2142 39.4142C41.9345 39.6939 41.5781 39.8844 41.1902 39.9616C40.8022 40.0387 40.4001 39.9991 40.0346 39.8478C39.6692 39.6964 39.3568 39.44 39.1371 39.1111C38.9173 38.7822 38.8 38.3956 38.8 38C38.8 37.4696 39.0107 36.9609 39.3858 36.5858C39.7609 36.2107 40.2696 36 40.8 36ZM50.568 47.871C50.5464 47.9102 50.5147 47.9428 50.4762 47.9655C50.4377 47.9882 50.3937 48.0001 50.349 48H38.25C38.2053 48.0001 38.1614 47.9881 38.1229 47.9654C38.0843 47.9428 38.0526 47.9102 38.031 47.8711C38.0093 47.832 37.9985 47.7878 37.9998 47.7431C38.001 47.6984 38.0142 47.6549 38.038 47.617L40.813 43.178C40.8579 43.1061 40.9204 43.0468 40.9946 43.0057C41.0688 42.9646 41.1522 42.943 41.237 42.943C41.3218 42.943 41.4052 42.9646 41.4794 43.0057C41.5536 43.0468 41.6161 43.1061 41.661 43.178L42.576 45C42.5986 45.0357 42.63 45.0652 42.667 45.0855C42.7041 45.1059 42.7457 45.1166 42.788 45.1166C42.8303 45.1166 42.8719 45.1059 42.909 45.0855C42.946 45.0652 42.9774 45.0357 43 45L45.375 40.678C45.4199 40.6061 45.4824 40.5468 45.5566 40.5057C45.6308 40.4646 45.7142 40.443 45.799 40.443C45.8838 40.443 45.9672 40.4646 46.0414 40.5057C46.1156 40.5468 46.1781 40.6061 46.223 40.678L50.56 47.617C50.5839 47.6548 50.5971 47.6983 50.5983 47.743C50.5996 47.7877 50.5887 47.8319 50.567 47.871H50.568Z" fill="#717171"/>
</g>
<defs>
<clipPath id="clip0">
<rect width="24" height="24" fill="white" transform="translate(32 29)"/>
</clipPath>
</defs>
</svg>
