<svg width="18" height="18" viewBox="0 0 18 18" fill="none" xmlns="http://www.w3.org/2000/svg">
<path d="M9 16.5V10.5" stroke="#717171" stroke-width="1.2" stroke-linecap="round" stroke-linejoin="round"/>
<path d="M6.5 13L9 10.5L11.5 13" stroke="#717171" stroke-width="1.2" stroke-linecap="round" stroke-linejoin="round"/>
<path d="M12.4999 11.4999H13.2499C13.7598 11.5007 14.2627 11.3816 14.7181 11.1521C15.1734 10.9226 15.5684 10.5892 15.871 10.1789C16.1737 9.7685 16.3755 9.29267 16.4602 8.78986C16.545 8.28705 16.5102 7.77136 16.3587 7.28447C16.2073 6.79759 15.9434 6.35317 15.5884 5.98715C15.2334 5.62113 14.7972 5.34378 14.3152 5.17751C13.8331 5.01124 13.3188 4.96072 12.8136 5.03004C12.3084 5.09936 11.8267 5.28656 11.4072 5.57653C11.2398 4.68518 10.8331 3.85615 10.2307 3.17821C9.62822 2.50027 8.85273 1.99896 7.98723 1.72795C7.12173 1.45695 6.19881 1.42646 5.31731 1.63974C4.43581 1.85303 3.62892 2.30206 2.98304 2.93875C2.33716 3.57545 1.87662 4.37582 1.65073 5.25418C1.42484 6.13254 1.44212 7.0558 1.7007 7.92509C1.95928 8.79439 2.44944 9.57698 3.11868 10.1891C3.78792 10.8012 4.61104 11.2197 5.4999 11.3999" stroke="#717171" stroke-width="1.2" stroke-linecap="round" stroke-linejoin="round"/>
</svg>
