<svg width="14" height="15" viewBox="0 0 14 15" fill="none" xmlns="http://www.w3.org/2000/svg">
<path d="M7 0.5C5.61553 0.5 4.26216 0.910543 3.11101 1.67971C1.95987 2.44888 1.06266 3.54213 0.532846 4.82122C0.00303299 6.1003 -0.13559 7.50776 0.134506 8.86563C0.404603 10.2235 1.07129 11.4708 2.05026 12.4497C3.02922 13.4287 4.2765 14.0954 5.63437 14.3655C6.99224 14.6356 8.3997 14.497 9.67879 13.9672C10.9579 13.4373 12.0511 12.5401 12.8203 11.389C13.5895 10.2378 14 8.88447 14 7.5C14 5.64348 13.2625 3.86301 11.9497 2.55025C10.637 1.2375 8.85652 0.5 7 0.5ZM2.72785 9.76154C2.13691 8.66664 1.99517 7.38478 2.33262 6.18723C2.55673 5.3874 2.98267 4.6586 3.56954 4.07078C4.15642 3.48296 4.88453 3.05586 5.684 2.83046C6.88351 2.4908 8.16822 2.6326 9.26477 3.22569C9.30149 3.24641 9.33287 3.27539 9.35644 3.31034C9.38 3.3453 9.3951 3.38526 9.40054 3.42707C9.40597 3.46887 9.40159 3.51137 9.38775 3.55118C9.3739 3.591 9.35097 3.62705 9.32077 3.65646L3.15646 9.82077C3.12682 9.8504 3.09072 9.87277 3.05098 9.88612C3.01124 9.89946 2.96896 9.90342 2.92744 9.89768C2.88591 9.89194 2.84628 9.87667 2.81166 9.85304C2.77703 9.82942 2.74834 9.7981 2.72785 9.76154ZM11.6663 8.80631C11.442 9.60594 11.016 10.3345 10.4292 10.9221C9.8423 11.5098 9.11427 11.9367 8.31493 12.162C7.11745 12.5023 5.83451 12.3624 4.73846 11.7722C4.70175 11.7514 4.67036 11.7225 4.6468 11.6875C4.62323 11.6525 4.60813 11.6126 4.6027 11.5708C4.59726 11.529 4.60164 11.4865 4.61549 11.4467C4.62933 11.4068 4.65227 11.3708 4.68246 11.3414L10.8468 5.17923C10.8761 5.14899 10.9121 5.12599 10.9519 5.11206C10.9916 5.09813 11.0341 5.09365 11.0759 5.09898C11.1177 5.10431 11.1577 5.1193 11.1927 5.14276C11.2277 5.16622 11.2567 5.19751 11.2775 5.23415C11.8672 6.33037 12.0071 7.61309 11.6674 8.81061L11.6663 8.80631Z" fill="#717171"/>
</svg>
