<svg width="69" height="68" viewBox="0 0 69 68" fill="none" xmlns="http://www.w3.org/2000/svg">
<g opacity="1">
<path d="M49.0577 65.875C58.4466 65.875 66.0577 58.2638 66.0577 48.875C66.0577 39.4862 58.4466 31.875 49.0577 31.875C39.6689 31.875 32.0577 39.4862 32.0577 48.875C32.0577 58.2638 39.6689 65.875 49.0577 65.875Z" stroke="black" stroke-width="1.5" stroke-linecap="round" stroke-linejoin="round"/>
<path d="M49.0577 40.375V57.375" stroke="black" stroke-width="1.5" stroke-linecap="round" stroke-linejoin="round"/>
<path d="M40.5577 48.875H57.5577" stroke="black" stroke-width="1.5" stroke-linecap="round" stroke-linejoin="round"/>
<path d="M23.5577 57.375H6.55774C5.43057 57.375 4.34957 56.9272 3.55254 56.1302C2.75551 55.3332 2.30774 54.2522 2.30774 53.125V6.375C2.30774 5.24783 2.75551 4.16683 3.55254 3.3698C4.34957 2.57277 5.43057 2.125 6.55774 2.125H36.6732C37.7996 2.12524 38.8798 2.57261 39.6766 3.36883L47.8139 11.5062C48.6101 12.3029 49.0575 13.3831 49.0577 14.5095V23.375" stroke="black" stroke-width="1.5" stroke-linecap="round" stroke-linejoin="round"/>
</g>
</svg>
