<svg width="12" height="12" viewBox="0 0 12 12" fill="none" xmlns="http://www.w3.org/2000/svg">
<path d="M3.17037 6.94141V8.8276H1.28418" stroke="#2266E2" stroke-linecap="round" stroke-linejoin="round"/>
<path d="M8.8291 5.05514V3.16895H10.7153" stroke="#2266E2" stroke-linecap="round" stroke-linejoin="round"/>
<path d="M8.94738 3.1679C9.59778 3.84549 9.99499 4.72639 10.0722 5.66244C10.1494 6.59849 9.90191 7.53257 9.37134 8.30758C8.84076 9.08259 8.05948 9.65124 7.15889 9.91788C6.25831 10.1845 5.29338 10.1329 4.42639 9.77167M3.05198 8.82899C2.403 8.15106 2.00703 7.27046 1.93058 6.33509C1.85413 5.39971 2.10185 4.4665 2.63214 3.69218C3.16243 2.91786 3.943 2.34958 4.84277 2.08276C5.74254 1.81594 6.70672 1.86683 7.5734 2.22689" stroke="#2266E2" stroke-linecap="round" stroke-linejoin="round"/>
</svg>
