<svg width="61" height="61" viewBox="0 0 61 61" fill="none" xmlns="http://www.w3.org/2000/svg">
<path d="M22.8749 59.7288H3.81242C3.13833 59.7288 2.49184 59.4611 2.01519 58.9844C1.53853 58.5078 1.27075 57.8613 1.27075 57.1872V3.81217C1.27075 3.13808 1.53853 2.4916 2.01519 2.01494C2.49184 1.53829 3.13833 1.27051 3.81242 1.27051H37.5988C37.9327 1.27091 38.2633 1.33712 38.5716 1.46533C38.88 1.59355 39.16 1.78127 39.3958 2.01776L48.8177 11.4372C49.2944 11.9137 49.5623 12.5601 49.5624 13.2341V24.1455" stroke="#FF6767" stroke-width="1.5" stroke-linecap="round" stroke-linejoin="round"/>
<path d="M44.4792 52.1045C44.6048 52.1045 44.7277 52.1418 44.8322 52.2116C44.9367 52.2814 45.0181 52.3806 45.0662 52.4967C45.1143 52.6129 45.1269 52.7406 45.1024 52.8639C45.0779 52.9871 45.0173 53.1004 44.9285 53.1892C44.8396 53.2781 44.7264 53.3386 44.6031 53.3631C44.4799 53.3876 44.3521 53.3751 44.236 53.327C44.1199 53.2789 44.0207 53.1974 43.9508 53.0929C43.881 52.9884 43.8438 52.8656 43.8438 52.7399C43.8438 52.5714 43.9107 52.4098 44.0299 52.2906C44.149 52.1714 44.3106 52.1045 44.4792 52.1045Z" stroke="#FF6767" stroke-width="1.5" stroke-linecap="round" stroke-linejoin="round"/>
<path d="M44.4792 47.0234V39.3984" stroke="#FF6767" stroke-width="1.5" stroke-linecap="round" stroke-linejoin="round"/>
<path d="M46.6091 31.7704C46.4031 31.3845 46.0961 31.0619 45.7209 30.8369C45.3458 30.612 44.9166 30.4932 44.4792 30.4932C44.0418 30.4932 43.6126 30.612 43.2374 30.8369C42.8623 31.0619 42.5553 31.3845 42.3493 31.7704L29.4986 56.2568C29.3088 56.6179 29.2163 57.0223 29.2301 57.43C29.2439 57.8378 29.3636 58.2349 29.5774 58.5824C29.794 58.9312 30.0961 59.2189 30.455 59.4182C30.814 59.6175 31.2179 59.7217 31.6285 59.7211H57.3299C57.7404 59.7217 58.1444 59.6175 58.5034 59.4182C58.8623 59.2189 59.1644 58.9312 59.381 58.5824C59.5948 58.2349 59.7145 57.8378 59.7283 57.43C59.7421 57.0223 59.6496 56.6179 59.4598 56.2568L46.6091 31.7704Z" stroke="#FF6767" stroke-width="1.5" stroke-linecap="round" stroke-linejoin="round"/>
</svg>
