<svg width="82" height="34" viewBox="0 0 82 34" fill="none" xmlns="http://www.w3.org/2000/svg">
<path d="M27.2609 10.5174C27.2652 10.4512 27.2559 10.3848 27.2336 10.3223C27.2112 10.2598 27.1763 10.2025 27.131 10.154C27.0856 10.1055 27.0308 10.0668 26.97 10.0403C26.9091 10.0139 26.8435 10.0001 26.7771 10H13.2251C13.1587 10 13.093 10.0137 13.0321 10.0401C12.9712 10.0666 12.9164 10.1053 12.871 10.1538C12.8256 10.2023 12.7907 10.2596 12.7684 10.3222C12.7461 10.3847 12.7369 10.4512 12.7413 10.5174C12.8551 12.1015 13.4838 13.6049 14.5315 14.7983C15.5792 15.9918 16.9885 16.8099 18.5445 17.1278V23.5151C18.5445 23.6073 18.5708 23.6975 18.6203 23.7753C18.6698 23.8531 18.7404 23.9151 18.8239 23.9542C18.9073 23.9933 19.0002 24.0078 19.0916 23.996C19.1831 23.9842 19.2692 23.9466 19.3401 23.8876L21.2805 22.2706C21.3352 22.2252 21.3792 22.1682 21.4094 22.1038C21.4396 22.0394 21.4552 21.9692 21.4551 21.8981V17.1278C23.0116 16.8105 24.4216 15.9927 25.4698 14.7991C26.5181 13.6056 27.1471 12.1019 27.2609 10.5174V10.5174Z" stroke="#717171" stroke-width="1.2" stroke-linecap="round" stroke-linejoin="round"/>
<path d="M39.378 21V11.51H40.652V21H39.378ZM40.392 16.775V15.631L44.461 15.618V16.762L40.392 16.775ZM40.392 12.654V11.51H44.682V12.654H40.392ZM46.7069 21V14.058H47.9549V21H46.7069ZM45.6409 15.046V14.058H47.9549V15.046H45.6409ZM47.0579 12.94C46.7805 12.94 46.5725 12.8663 46.4339 12.719C46.3039 12.5717 46.2389 12.3853 46.2389 12.16C46.2389 11.9347 46.3039 11.7483 46.4339 11.601C46.5725 11.4537 46.7805 11.38 47.0579 11.38C47.3352 11.38 47.5389 11.4537 47.6689 11.601C47.8075 11.7483 47.8769 11.9347 47.8769 12.16C47.8769 12.3853 47.8075 12.5717 47.6689 12.719C47.5389 12.8663 47.3352 12.94 47.0579 12.94ZM50.4459 21V11.51H51.6939V21H50.4459ZM49.4839 12.498V11.51H51.6939V12.498H49.4839ZM56.7916 21.078C56.2716 21.078 55.8209 21.0043 55.4396 20.857C55.0669 20.7097 54.7766 20.4583 54.5686 20.103C54.3693 19.739 54.2696 19.2493 54.2696 18.634V11.952H55.4656V18.79C55.4656 19.1627 55.5653 19.453 55.7646 19.661C55.9726 19.8603 56.2629 19.96 56.6356 19.96H57.8576V21.078H56.7916ZM53.0736 14.994V14.058H57.8576V14.994H53.0736ZM62.523 21.234C61.9163 21.234 61.392 21.13 60.95 20.922C60.508 20.714 60.1483 20.441 59.871 20.103C59.5936 19.7563 59.3856 19.3707 59.247 18.946C59.117 18.5213 59.052 18.088 59.052 17.646V17.412C59.052 16.9613 59.117 16.5237 59.247 16.099C59.3856 15.6743 59.5936 15.293 59.871 14.955C60.1483 14.6083 60.4993 14.3353 60.924 14.136C61.3573 13.928 61.8643 13.824 62.445 13.824C63.199 13.824 63.8186 13.9887 64.304 14.318C64.798 14.6387 65.162 15.0547 65.396 15.566C65.6386 16.0773 65.76 16.6233 65.76 17.204V17.763H59.598V16.827H64.85L64.564 17.334C64.564 16.84 64.486 16.4153 64.33 16.06C64.174 15.696 63.94 15.4143 63.628 15.215C63.316 15.0157 62.9216 14.916 62.445 14.916C61.951 14.916 61.5393 15.0287 61.21 15.254C60.8893 15.4793 60.6466 15.787 60.482 16.177C60.326 16.567 60.248 17.0177 60.248 17.529C60.248 18.023 60.326 18.4693 60.482 18.868C60.6466 19.258 60.898 19.57 61.236 19.804C61.574 20.0293 62.003 20.142 62.523 20.142C63.069 20.142 63.511 20.0207 63.849 19.778C64.1956 19.5353 64.4036 19.2537 64.473 18.933H65.643C65.5476 19.4097 65.357 19.8213 65.071 20.168C64.785 20.5147 64.4253 20.779 63.992 20.961C63.5586 21.143 63.069 21.234 62.523 21.234ZM67.5319 21V14.058H68.5199V16.918H68.4679C68.4679 15.904 68.6889 15.163 69.1309 14.695C69.5816 14.2183 70.2533 13.98 71.1459 13.98H71.3799V15.098H70.9379C70.2446 15.098 69.7116 15.2843 69.3389 15.657C68.9663 16.021 68.7799 16.5497 68.7799 17.243V21H67.5319Z" fill="#484848"/>
<path d="M4 1H78V-1H4V1ZM81 4V30H83V4H81ZM78 33H4V35H78V33ZM1 30V4H-1V30H1ZM4 33C2.34315 33 1 31.6569 1 30H-1C-1 32.7614 1.23858 35 4 35V33ZM81 30C81 31.6569 79.6569 33 78 33V35C80.7614 35 83 32.7614 83 30H81ZM78 1C79.6569 1 81 2.34315 81 4H83C83 1.23858 80.7614 -1 78 -1V1ZM4 -1C1.23858 -1 -1 1.23858 -1 4H1C1 2.34315 2.34315 1 4 1V-1Z" fill="#DDDDDD"/>
</svg>
