<svg width="18" height="19" viewBox="0 0 18 19" fill="none" xmlns="http://www.w3.org/2000/svg">
<circle opacity="0.2" cx="9" cy="9.5" r="9" fill="#F17A8F"/>
<path d="M6.58759 11.1113C6.26879 10.6344 6.09863 10.0737 6.09863 9.50009C6.0995 8.73118 6.40546 7.99402 6.94937 7.45032C7.49328 6.90662 8.23073 6.60079 8.99993 6.59991C9.57376 6.59991 10.1347 6.77001 10.6118 7.08868C11.0889 7.40736 11.4608 7.8603 11.6804 8.39024C11.9 8.92018 11.9574 9.50331 11.8455 10.0659C11.7335 10.6285 11.4572 11.1452 11.0515 11.5508C10.6457 11.9564 10.1287 12.2326 9.56595 12.3445C9.00315 12.4564 8.4198 12.399 7.88965 12.1795C7.35951 11.96 6.90639 11.5883 6.58759 11.1113Z" fill="#F17A8F"/>
<path d="M5.39234 12.5608C5.40806 12.5794 5.41669 12.6029 5.41669 12.6272C5.41669 12.6516 5.40806 12.6751 5.39234 12.6937L5.20751 12.913C5.17347 12.9524 5.15072 13.0002 5.14169 13.0514C5.13266 13.1027 5.13767 13.1554 5.1562 13.204C5.17474 13.2526 5.20609 13.2953 5.24694 13.3275C5.28779 13.3598 5.33662 13.3803 5.38822 13.387L6.56965 13.5553C6.61418 13.5745 6.66199 13.5848 6.71044 13.5858C6.72361 13.5858 6.73637 13.5825 6.7516 13.5813L6.83599 13.5932C6.84964 13.595 6.86339 13.5959 6.87715 13.5961C6.923 13.5965 6.96828 13.5859 7.00922 13.5653C7.05016 13.5447 7.08559 13.5146 7.11256 13.4775C7.13954 13.4404 7.15727 13.3975 7.1643 13.3522C7.17132 13.3069 7.16744 13.2606 7.15296 13.2171L6.70303 11.8279C6.68769 11.7782 6.65916 11.7335 6.62046 11.6987C6.58177 11.6639 6.53436 11.6402 6.48326 11.6301C6.43217 11.6201 6.37931 11.6241 6.33031 11.6416C6.2813 11.6592 6.23797 11.6898 6.20493 11.73L6.03492 11.9316C6.02499 11.9434 6.01257 11.9529 5.99856 11.9594C5.98454 11.9659 5.96927 11.9692 5.95383 11.9691C5.93835 11.9686 5.92318 11.9646 5.90944 11.9575C5.89569 11.9504 5.88371 11.9403 5.87438 11.9279C5.41782 11.3429 5.13496 10.6414 5.05809 9.90341C4.98122 9.16543 5.11343 8.42072 5.43963 7.75424C5.76583 7.08776 6.27288 6.52637 6.90293 6.13412C7.53298 5.74186 8.26065 5.53455 9.00291 5.53584C9.28474 5.53597 9.56578 5.56562 9.84143 5.62431C9.89169 5.63658 9.94389 5.63864 9.99495 5.63037C10.046 5.6221 10.0949 5.60367 10.1387 5.57617C10.1825 5.54867 10.2203 5.51267 10.25 5.47029C10.2796 5.4279 10.3004 5.38001 10.3112 5.32943C10.322 5.27886 10.3225 5.22664 10.3127 5.17587C10.3029 5.1251 10.283 5.0768 10.2542 5.03385C10.2254 4.9909 10.1883 4.95416 10.1451 4.92581C10.1018 4.89746 10.0533 4.87808 10.0024 4.86882C9.31108 4.72036 8.59532 4.72829 7.90747 4.89203C7.21962 5.05576 6.5771 5.37115 6.02692 5.81513C5.47674 6.2591 5.03283 6.82042 4.72766 7.458C4.4225 8.09559 4.2638 8.79332 4.26319 9.50012C4.26206 10.6224 4.66257 11.708 5.39234 12.5608ZM12.6077 6.43906C12.592 6.42048 12.5834 6.39694 12.5834 6.3726C12.5834 6.34827 12.592 6.32472 12.6077 6.30615L12.7925 6.08682C12.8265 6.04747 12.8491 5.99967 12.8581 5.9485C12.8671 5.89732 12.862 5.84468 12.8435 5.79614C12.825 5.74759 12.7937 5.70496 12.7529 5.67276C12.7121 5.64055 12.6634 5.61997 12.6118 5.6132L11.4119 5.44202C11.3662 5.4261 11.3178 5.41911 11.2694 5.42145L11.1661 5.40704C11.1173 5.39956 11.0674 5.40474 11.0211 5.4221C10.9749 5.43946 10.9339 5.46841 10.902 5.50617C10.8702 5.54394 10.8486 5.58924 10.8394 5.63775C10.8301 5.68625 10.8335 5.73632 10.8492 5.78315L11.297 7.17233C11.313 7.22155 11.3419 7.2656 11.3806 7.29996C11.4193 7.33432 11.4665 7.35773 11.5173 7.36779C11.5357 7.37139 11.5544 7.37318 11.5732 7.37314C11.6155 7.37317 11.6572 7.36398 11.6956 7.34621C11.7339 7.32844 11.7679 7.30252 11.7951 7.27027L11.9651 7.06864C11.975 7.0569 11.9873 7.04751 12.0013 7.04118C12.0153 7.03485 12.0305 7.03172 12.0458 7.03204C12.0611 7.03236 12.0762 7.0361 12.0898 7.04301C12.1035 7.04991 12.1155 7.05979 12.1248 7.07193C12.5814 7.6566 12.8644 8.35778 12.9415 9.09547C13.0186 9.83317 12.8868 10.5777 12.561 11.2441C12.2352 11.9105 11.7286 12.4719 11.099 12.8643C10.4693 13.2568 9.74203 13.4644 9.00003 13.4636C8.71818 13.4637 8.43712 13.434 8.1615 13.3751C8.11136 13.3632 8.05934 13.3615 8.00852 13.37C7.95769 13.3785 7.90908 13.397 7.86552 13.4246C7.82196 13.4521 7.78435 13.488 7.75487 13.5303C7.7254 13.5725 7.70467 13.6202 7.6939 13.6706C7.68312 13.721 7.68252 13.773 7.69213 13.8236C7.70174 13.8742 7.72136 13.9224 7.74985 13.9653C7.77833 14.0082 7.81511 14.0451 7.85802 14.0736C7.90093 14.1021 7.9491 14.1218 7.99972 14.1314C8.69088 14.2795 9.40642 14.2713 10.094 14.1074C10.7816 13.9435 11.4238 13.6281 11.9738 13.1842C12.5237 12.7402 12.9674 12.179 13.2725 11.5416C13.5775 10.9042 13.7362 10.2067 13.7369 9.50012C13.7381 8.37775 13.3375 7.29198 12.6077 6.43906Z" fill="#F17A8F"/>
</svg>
