<svg width="17" height="18" viewBox="0 0 17 18" fill="none" xmlns="http://www.w3.org/2000/svg">
<path d="M7.47898 1.03125C8.56261 1.03125 9.53426 1.47967 10.2442 2.17093C10.9542 2.88097 11.3839 3.8525 11.3839 4.93613C11.3839 6.01976 10.9541 6.99141 10.2442 7.70132C9.9265 8.01899 9.55291 8.28048 9.12313 8.48605C9.6276 8.6168 10.1134 8.82236 10.5618 9.06521C10.7674 9.17732 10.8421 9.43894 10.73 9.64437C10.6179 9.84994 10.3563 9.92464 10.1508 9.81253C9.73983 9.58832 9.31006 9.42017 8.843 9.30806C8.39458 9.19596 7.92752 9.13991 7.46034 9.13991C5.92829 9.13991 4.54563 9.75648 3.51811 10.7841C2.50918 11.793 1.87396 13.1757 1.87396 14.7077V15.4738C1.87396 15.6233 1.93001 15.7541 2.02348 15.8475C2.11694 15.941 2.26633 15.997 2.43448 15.997H9.06721C9.31006 15.997 9.49698 16.1838 9.49698 16.4268C9.49698 16.6697 9.31018 16.8566 9.06721 16.8566H2.45306C2.0607 16.8566 1.70574 16.7071 1.46276 16.4456C1.20114 16.2027 1.05176 15.8476 1.05176 15.4553V14.6892C1.05176 12.9329 1.78043 11.3075 2.93889 10.149C3.72362 9.36424 4.71391 8.76631 5.81619 8.48605C5.40518 8.29925 5.03146 8.01899 4.71378 7.70132C4.00375 6.99129 3.5741 6.01976 3.5741 4.93613C3.5741 3.8525 4.00388 2.88084 4.71378 2.17093C5.42382 1.46103 6.39522 1.03125 7.47898 1.03125ZM8.11419 14.3531H11.608C11.8508 14.3531 12.0378 14.5399 12.0378 14.7828V15.6236L14.8778 13.2881L12.0378 10.9339V11.7933C12.0378 12.0175 11.851 12.2231 11.608 12.2231H8.11419V14.3531ZM11.1971 15.2125H7.68435C7.46014 15.2125 7.25458 15.0257 7.25458 14.7827L7.2547 11.7933C7.2547 11.5505 7.4415 11.3635 7.68448 11.3635H11.1783V10.0369C11.1783 9.94347 11.2157 9.85013 11.2717 9.75667C11.4213 9.56987 11.7015 9.5511 11.8697 9.70062L15.7933 12.9331C15.812 12.9517 15.8307 12.9705 15.8494 12.9891C15.9989 13.1759 15.9801 13.4375 15.7933 13.587L11.9068 16.8566C11.8321 16.9313 11.72 16.9688 11.6079 16.9688C11.3837 16.9688 11.1782 16.782 11.1782 16.539V15.2125H11.1971ZM9.6276 2.76893C9.08572 2.22705 8.31976 1.8721 7.47898 1.8721C6.6382 1.8721 5.87211 2.20841 5.33036 2.76893C4.78848 3.31081 4.43352 4.07677 4.43352 4.91755C4.43352 5.75833 4.76984 6.52442 5.33036 7.06617C5.87224 7.60805 6.6382 7.963 7.47898 7.963C8.31976 7.963 9.08585 7.62669 9.6276 7.06617C10.1695 6.52429 10.5244 5.75833 10.5244 4.91755C10.5244 4.07677 10.1695 3.32945 9.6276 2.76893Z" fill="url(#paint0_linear_12818_113827)"/>
<path d="M8.11419 14.3531H11.608C11.8508 14.3531 12.0378 14.5399 12.0378 14.7828V15.6236L14.8778 13.2881L12.0378 10.9339V11.7933C12.0378 12.0175 11.851 12.2231 11.608 12.2231H8.11419V14.3531Z" fill="url(#paint1_linear_12818_113827)"/>
<path d="M9.6276 2.76893C9.08572 2.22705 8.31976 1.8721 7.47898 1.8721C6.6382 1.8721 5.87211 2.20841 5.33036 2.76893C4.78848 3.31081 4.43352 4.07677 4.43352 4.91755C4.43352 5.75833 4.76984 6.52442 5.33036 7.06617C5.87224 7.60805 6.6382 7.963 7.47898 7.963C8.31976 7.963 9.08585 7.62669 9.6276 7.06617C10.1695 6.52429 10.5244 5.75833 10.5244 4.91755C10.5244 4.07677 10.1695 3.32945 9.6276 2.76893Z" fill="url(#paint2_linear_12818_113827)"/>
<defs>
<linearGradient id="paint0_linear_12818_113827" x1="8.50039" y1="1.03125" x2="8.50039" y2="16.9688" gradientUnits="userSpaceOnUse">
<stop stop-color="#2257E2"/>
<stop offset="1" stop-color="#5AA6FF"/>
</linearGradient>
<linearGradient id="paint1_linear_12818_113827" x1="8.50039" y1="1.03125" x2="8.50039" y2="16.9688" gradientUnits="userSpaceOnUse">
<stop stop-color="#2257E2"/>
<stop offset="1" stop-color="#5AA6FF"/>
</linearGradient>
<linearGradient id="paint2_linear_12818_113827" x1="8.50039" y1="1.03125" x2="8.50039" y2="16.9688" gradientUnits="userSpaceOnUse">
<stop stop-color="#2257E2"/>
<stop offset="1" stop-color="#5AA6FF"/>
</linearGradient>
</defs>
</svg>
