<svg width="22" height="23" viewBox="0 0 22 23" fill="none" xmlns="http://www.w3.org/2000/svg">
<g opacity="0.5">
<path d="M9.67891 1.1875C11.0813 1.1875 12.3387 1.7678 13.2574 2.66238C14.1763 3.58125 14.7323 4.83852 14.7323 6.24087C14.7323 7.64322 14.1761 8.90065 13.2574 9.81936C12.8463 10.2305 12.3628 10.5689 11.8066 10.8349C12.4595 11.0041 13.0882 11.2701 13.6685 11.5844C13.9345 11.7295 14.0312 12.068 13.8861 12.3339C13.741 12.5999 13.4025 12.6966 13.1366 12.5515C12.6047 12.2614 12.0485 12.0437 11.4441 11.8987C10.8638 11.7536 10.2594 11.6811 9.65478 11.6811C7.67213 11.6811 5.88281 12.479 4.55308 13.8088C3.2474 15.1145 2.42536 16.9038 2.42536 18.8864V19.8778C2.42536 20.0713 2.49789 20.2405 2.61885 20.3615C2.7398 20.4824 2.93312 20.555 3.15074 20.555H11.7343C12.0485 20.555 12.2904 20.7967 12.2904 21.1112C12.2904 21.4254 12.0487 21.6673 11.7343 21.6673H3.17478C2.66701 21.6673 2.20766 21.4739 1.89322 21.1355C1.55465 20.8212 1.36133 20.3617 1.36133 19.8539V18.8625C1.36133 16.5897 2.30432 14.4862 3.8035 12.9869C4.81903 11.9714 6.10059 11.1976 7.52706 10.8349C6.99517 10.5932 6.51153 10.2305 6.10042 9.81936C5.18155 8.90049 4.62554 7.64322 4.62554 6.24087C4.62554 4.83852 5.18172 3.58109 6.10042 2.66238C7.01929 1.74368 8.2764 1.1875 9.67891 1.1875ZM10.501 18.4275H15.0223C15.3366 18.4275 15.5785 18.6692 15.5785 18.9837V20.0718L19.2538 17.0493L15.5785 14.0027V15.1149C15.5785 15.405 15.3368 15.6711 15.0223 15.6711H10.501V18.4275ZM14.4905 19.5397H9.94469C9.65454 19.5397 9.38851 19.298 9.38851 18.9835L9.38867 15.1149C9.38867 14.8006 9.63041 14.5587 9.94485 14.5587H14.4662V12.8419C14.4662 12.721 14.5147 12.6002 14.5872 12.4792C14.7807 12.2375 15.1434 12.2132 15.361 12.4067L20.4387 16.5898C20.4628 16.614 20.4871 16.6383 20.5112 16.6624C20.7047 16.9041 20.6804 17.2427 20.4387 17.4362L15.4091 21.6674C15.3124 21.7641 15.1673 21.8125 15.0223 21.8125C14.7321 21.8125 14.4661 21.5708 14.4661 21.2563V19.5397H14.4905ZM12.4595 3.43626C11.7582 2.73501 10.767 2.27565 9.67891 2.27565C8.59084 2.27565 7.59943 2.71088 6.89834 3.43626C6.19708 4.13752 5.73773 5.12876 5.73773 6.21683C5.73773 7.3049 6.17296 8.29631 6.89834 8.9974C7.5996 9.69865 8.59084 10.158 9.67891 10.158C10.767 10.158 11.7584 9.72278 12.4595 8.9974C13.1607 8.29614 13.6201 7.3049 13.6201 6.21683C13.6201 5.12876 13.1607 4.16164 12.4595 3.43626Z" fill="#717171"/>
<path d="M10.501 18.4275H15.0223C15.3366 18.4275 15.5785 18.6692 15.5785 18.9837V20.0718L19.2538 17.0493L15.5785 14.0027V15.1149C15.5785 15.405 15.3368 15.6711 15.0223 15.6711H10.501V18.4275Z" fill="#717171"/>
<path d="M12.4595 3.43626C11.7582 2.73501 10.767 2.27565 9.67891 2.27565C8.59084 2.27565 7.59943 2.71088 6.89834 3.43626C6.19708 4.13752 5.73773 5.12876 5.73773 6.21683C5.73773 7.3049 6.17296 8.29631 6.89834 8.9974C7.5996 9.69865 8.59084 10.158 9.67891 10.158C10.767 10.158 11.7584 9.72278 12.4595 8.9974C13.1607 8.29614 13.6201 7.3049 13.6201 6.21683C13.6201 5.12876 13.1607 4.16164 12.4595 3.43626Z" fill="#717171"/>
</g>
</svg>
