<svg width="17" height="18" viewBox="0 0 17 18" fill="none" xmlns="http://www.w3.org/2000/svg">
<path d="M9.21252 1.03125C8.12889 1.03125 7.15724 1.47966 6.44733 2.17093C5.7373 2.88096 5.30766 3.85248 5.30766 4.93611C5.30766 6.01974 5.73743 6.99139 6.44733 7.70129C6.765 8.01896 7.1386 8.28045 7.56837 8.48602C7.23206 8.57948 6.87711 8.69159 6.55944 8.85974C6.33523 8.95321 6.24177 9.21469 6.35387 9.42026C6.44733 9.64447 6.70882 9.71916 6.91439 9.62583C7.26934 9.45767 7.64306 9.32693 8.03543 9.25211C8.42779 9.15864 8.82015 9.12136 9.21252 9.12136C10.7446 9.12136 12.1272 9.73793 13.1547 10.7655C14.1637 11.7744 14.7989 13.1571 14.7989 14.6891V15.4552C14.7989 15.6047 14.7428 15.7355 14.6494 15.8289C14.5559 15.9224 14.4065 15.9785 14.2384 15.9785H8.01659C7.77374 15.9785 7.58682 16.1653 7.58682 16.4082C7.58682 16.6511 7.77362 16.838 8.01659 16.838L14.2384 16.8379C14.6307 16.8379 14.9857 16.6884 15.2286 16.4269C15.4903 16.184 15.6396 15.8289 15.6396 15.4366V14.6705C15.6396 12.9142 14.911 11.2888 13.7525 10.1303C12.9678 9.34557 11.9775 8.74764 10.8752 8.46738C11.2862 8.28059 11.66 8.00033 11.9776 7.68266C12.6877 6.97262 13.1173 6.0011 13.1173 4.91747C13.1173 3.83385 12.6875 2.8622 11.9776 2.15229C11.2676 1.46103 10.2961 1.03125 9.21252 1.03125ZM1.75762 15.2124H5.25141V16.539C5.25141 16.7818 5.43821 16.9688 5.68118 16.9688C5.79329 16.9688 5.88675 16.9313 5.96144 16.8566L9.88507 13.6056C10.0719 13.4561 10.0906 13.1759 9.94113 13.0077C9.92248 12.9891 9.90372 12.9703 9.88507 12.9517L5.96144 9.71922C5.77465 9.56971 5.51303 9.58848 5.36351 9.77528C5.28882 9.84997 5.27005 9.96207 5.27005 10.0555V11.3821L1.75768 11.3823C1.51483 11.3823 1.32791 11.5691 1.32791 11.812V14.8014C1.32791 15.0069 1.51477 15.2124 1.75762 15.2124ZM5.68125 14.353H2.18746V12.2042H5.68125C5.9241 12.2042 6.11102 12.0174 6.11102 11.7744V10.9337L8.93226 13.288L6.11102 15.6235V14.7826C6.11102 14.5398 5.9241 14.353 5.68125 14.353ZM7.0639 2.76879C7.60578 2.22692 8.37174 1.87196 9.21252 1.87196C10.0533 1.87196 10.8194 2.20828 11.3611 2.76879C11.903 3.31067 12.258 4.07663 12.258 4.91741C12.258 5.75818 11.9216 6.52427 11.3611 7.06602C10.8193 7.6079 10.0533 7.96285 9.21252 7.96285C8.37174 7.96285 7.60565 7.62654 7.0639 7.06602C6.52203 6.52414 6.16707 5.75818 6.16707 4.91741C6.16707 4.07663 6.52203 3.32931 7.0639 2.76879Z" fill="url(#paint0_linear_12818_113425)"/>
<path d="M7.0639 2.76879C7.60578 2.22692 8.37174 1.87196 9.21252 1.87196C10.0533 1.87196 10.8194 2.20828 11.3611 2.76879C11.903 3.31067 12.258 4.07663 12.258 4.91741C12.258 5.75818 11.9216 6.52427 11.3611 7.06602C10.8193 7.6079 10.0533 7.96285 9.21252 7.96285C8.37174 7.96285 7.60565 7.62654 7.0639 7.06602C6.52203 6.52414 6.16707 5.75818 6.16707 4.91741C6.16707 4.07663 6.52203 3.32931 7.0639 2.76879Z" fill="url(#paint1_linear_12818_113425)"/>
<path d="M5.68125 14.353H2.18746V12.2042H5.68125C5.9241 12.2042 6.11102 12.0174 6.11102 11.7744V10.9337L8.93226 13.288L6.11102 15.6235V14.7826C6.11102 14.5398 5.9241 14.353 5.68125 14.353Z" fill="url(#paint2_linear_12818_113425)"/>
<defs>
<linearGradient id="paint0_linear_12818_113425" x1="8.48378" y1="1.03125" x2="8.48378" y2="16.9688" gradientUnits="userSpaceOnUse">
<stop stop-color="#2257E2"/>
<stop offset="1" stop-color="#5AA6FF"/>
</linearGradient>
<linearGradient id="paint1_linear_12818_113425" x1="8.48378" y1="1.03125" x2="8.48378" y2="16.9688" gradientUnits="userSpaceOnUse">
<stop stop-color="#2257E2"/>
<stop offset="1" stop-color="#5AA6FF"/>
</linearGradient>
<linearGradient id="paint2_linear_12818_113425" x1="8.48378" y1="1.03125" x2="8.48378" y2="16.9688" gradientUnits="userSpaceOnUse">
<stop stop-color="#2257E2"/>
<stop offset="1" stop-color="#5AA6FF"/>
</linearGradient>
</defs>
</svg>
