<svg width="18" height="18" viewBox="0 0 18 18" fill="none" xmlns="http://www.w3.org/2000/svg">
<path d="M6.1875 8.4375H11.8125C12.1605 8.4371 12.4941 8.29869 12.7401 8.05264C12.9862 7.80658 13.1246 7.47297 13.125 7.125V1.5C13.1246 1.15203 12.9862 0.818416 12.7401 0.572361C12.4941 0.326305 12.1605 0.187897 11.8125 0.1875H6.1875C5.83953 0.187897 5.50592 0.326305 5.25986 0.572361C5.01381 0.818416 4.8754 1.15203 4.875 1.5V7.125C4.8754 7.47297 5.01381 7.80658 5.25986 8.05264C5.50592 8.29869 5.83953 8.4371 6.1875 8.4375ZM6.5625 3.75V3C6.5625 2.70163 6.68103 2.41548 6.892 2.2045C7.10298 1.99353 7.38913 1.875 7.6875 1.875H8.4375C8.53696 1.875 8.63234 1.91451 8.70267 1.98484C8.77299 2.05516 8.8125 2.15054 8.8125 2.25C8.8125 2.34946 8.77299 2.44484 8.70267 2.51516C8.63234 2.58549 8.53696 2.625 8.4375 2.625H7.6875C7.58804 2.625 7.49266 2.66451 7.42233 2.73484C7.35201 2.80516 7.3125 2.90054 7.3125 3V3.75C7.3125 3.84946 7.27299 3.94484 7.20267 4.01516C7.13234 4.08549 7.03696 4.125 6.9375 4.125C6.83804 4.125 6.74266 4.08549 6.67233 4.01516C6.60201 3.94484 6.5625 3.84946 6.5625 3.75ZM6.9375 9.5625H1.3125C0.964525 9.5629 0.630916 9.70131 0.384861 9.94736C0.138805 10.1934 0.000397005 10.527 0 10.875L0 16.5C0.000397005 16.848 0.138805 17.1816 0.384861 17.4276C0.630916 17.6737 0.964525 17.8121 1.3125 17.8125H6.9375C7.28547 17.8121 7.61908 17.6737 7.86514 17.4276C8.11119 17.1816 8.2496 16.848 8.25 16.5V10.875C8.2496 10.527 8.11119 10.1934 7.86514 9.94736C7.61908 9.70131 7.28547 9.5629 6.9375 9.5625ZM3.9375 11.625C3.9375 11.7245 3.89799 11.8198 3.82766 11.8902C3.75734 11.9605 3.66196 12 3.5625 12H2.8125C2.71304 12 2.61766 12.0395 2.54734 12.1098C2.47701 12.1802 2.4375 12.2755 2.4375 12.375V13.125C2.4375 13.2245 2.39799 13.3198 2.32766 13.3902C2.25734 13.4605 2.16196 13.5 2.0625 13.5C1.96304 13.5 1.86766 13.4605 1.79734 13.3902C1.72701 13.3198 1.6875 13.2245 1.6875 13.125V12.375C1.6875 12.0766 1.80603 11.7905 2.017 11.5795C2.22798 11.3685 2.51413 11.25 2.8125 11.25H3.5625C3.66196 11.25 3.75734 11.2895 3.82766 11.3598C3.89799 11.4302 3.9375 11.5255 3.9375 11.625ZM16.6875 9.5625H11.0625C10.7145 9.5629 10.3809 9.70131 10.1349 9.94736C9.88881 10.1934 9.7504 10.527 9.75 10.875V16.5C9.7504 16.848 9.88881 17.1816 10.1349 17.4276C10.3809 17.6737 10.7145 17.8121 11.0625 17.8125H16.6875C17.0355 17.8121 17.3691 17.6737 17.6151 17.4276C17.8612 17.1816 17.9996 16.848 18 16.5V10.875C17.9996 10.527 17.8612 10.1934 17.6151 9.94736C17.3691 9.70131 17.0355 9.5629 16.6875 9.5625ZM13.6875 11.625C13.6875 11.7245 13.648 11.8198 13.5777 11.8902C13.5073 11.9605 13.412 12 13.3125 12H12.5625C12.463 12 12.3677 12.0395 12.2973 12.1098C12.227 12.1802 12.1875 12.2755 12.1875 12.375V13.125C12.1875 13.2245 12.148 13.3198 12.0777 13.3902C12.0073 13.4605 11.912 13.5 11.8125 13.5C11.713 13.5 11.6177 13.4605 11.5473 13.3902C11.477 13.3198 11.4375 13.2245 11.4375 13.125V12.375C11.4375 12.0766 11.556 11.7905 11.767 11.5795C11.978 11.3685 12.2641 11.25 12.5625 11.25H13.3125C13.412 11.25 13.5073 11.2895 13.5777 11.3598C13.648 11.4302 13.6875 11.5255 13.6875 11.625Z" fill="url(#paint0_linear)"/>
<defs>
<linearGradient id="paint0_linear" x1="9" y1="0.1875" x2="9" y2="17.8125" gradientUnits="userSpaceOnUse">
<stop stop-color="#2257E2"/>
<stop offset="1" stop-color="#5AA6FF"/>
</linearGradient>
</defs>
</svg>
