<svg width="19" height="18" viewBox="0 0 19 18" fill="none" xmlns="http://www.w3.org/2000/svg">
<g clip-path="url(#clip0_2916_10106)">
<path d="M9.89044 17.4362C14.5503 17.4362 18.3279 13.6586 18.3279 8.99866C18.3279 4.33875 14.5503 0.561157 9.89044 0.561157C5.23054 0.561157 1.45294 4.33875 1.45294 8.99866C1.45294 13.6586 5.23054 17.4362 9.89044 17.4362Z" stroke="#717171" stroke-width="1.13116" stroke-linecap="round" stroke-linejoin="round"/>
<path d="M7.64044 11.7098C7.64064 11.9453 7.70862 12.1758 7.83626 12.3737C7.96391 12.5717 8.14583 12.7287 8.3603 12.8261C8.57476 12.9234 8.81272 12.957 9.04574 12.9227C9.27877 12.8885 9.49702 12.7879 9.67444 12.633L13.8279 9.00004L9.67444 5.36479C9.49713 5.20955 9.27884 5.1087 9.0457 5.07429C8.81256 5.03989 8.57445 5.0734 8.35986 5.1708C8.14526 5.26821 7.96328 5.42539 7.8357 5.62353C7.70811 5.82167 7.64032 6.05237 7.64044 6.28804V11.7098Z" stroke="#717171" stroke-width="1.13116" stroke-linecap="round" stroke-linejoin="round"/>
</g>
<defs>
<clipPath id="clip0_2916_10106">
<rect width="18" height="18" fill="white" transform="translate(0.890442)"/>
</clipPath>
</defs>
</svg>
