<svg width="16" height="16" viewBox="0 0 16 16" fill="none" xmlns="http://www.w3.org/2000/svg">
<circle cx="8" cy="8" r="8" fill="#5ABAFF"/>
<path d="M7.51534 4.81266C7.57651 4.88056 7.65126 4.93485 7.73475 4.97201C7.81824 5.00917 7.90861 5.02838 8 5.02838C8.09139 5.02838 8.18176 5.00917 8.26526 4.97201C8.34875 4.93485 8.4235 4.88056 8.48467 4.81266L8.8 4.46666C8.89038 4.36664 9.00949 4.29704 9.141 4.26742C9.2725 4.23779 9.40995 4.24959 9.53449 4.30119C9.65902 4.35279 9.76453 4.44167 9.83654 4.55563C9.90855 4.66959 9.94353 4.80304 9.93667 4.93766L9.913 5.40433C9.90843 5.49537 9.92297 5.58635 9.95569 5.67142C9.98842 5.7565 10.0386 5.83377 10.103 5.89827C10.1674 5.96277 10.2446 6.01307 10.3296 6.04592C10.4147 6.07877 10.5056 6.09344 10.5967 6.089L11.0633 6.06533C11.1979 6.0587 11.3312 6.09383 11.445 6.16593C11.5588 6.23802 11.6475 6.34354 11.6989 6.46802C11.7504 6.5925 11.7621 6.72986 11.7325 6.86126C11.7028 6.99266 11.6333 7.11168 11.5333 7.202L11.186 7.51533C11.1182 7.57658 11.064 7.65138 11.0269 7.7349C10.9898 7.81841 10.9706 7.90878 10.9706 8.00016C10.9706 8.09155 10.9898 8.18192 11.0269 8.26543C11.064 8.34894 11.1182 8.42374 11.186 8.485L11.5333 8.79833C11.6334 8.8887 11.703 9.00782 11.7326 9.13932C11.7622 9.27083 11.7504 9.40828 11.6988 9.53281C11.6472 9.65735 11.5583 9.76286 11.4444 9.83487C11.3304 9.90688 11.197 9.94185 11.0623 9.935L10.5957 9.91133C10.5044 9.90664 10.4132 9.92115 10.328 9.95393C10.2427 9.98671 10.1652 10.037 10.1006 10.1016C10.036 10.1662 9.98572 10.2437 9.95294 10.3289C9.92016 10.4142 9.90564 10.5054 9.91034 10.5967L9.934 11.0633C9.93997 11.1973 9.90456 11.3298 9.83258 11.4429C9.7606 11.5561 9.65554 11.6443 9.53167 11.6956C9.4078 11.747 9.27114 11.7589 9.14024 11.7299C9.00933 11.7009 8.89054 11.6322 8.8 11.5333L8.48634 11.1863C8.42511 11.1185 8.35034 11.0643 8.26686 11.0272C8.18337 10.9901 8.09303 10.9709 8.00167 10.9709C7.91031 10.9709 7.81997 10.9901 7.73649 11.0272C7.653 11.0643 7.57823 11.1185 7.517 11.1863L7.202 11.5333C7.11161 11.6327 6.99277 11.7018 6.86169 11.7311C6.7306 11.7605 6.59366 11.7487 6.46952 11.6974C6.34538 11.646 6.24009 11.5577 6.16799 11.4443C6.0959 11.331 6.06052 11.1982 6.06667 11.064L6.09067 10.5973C6.09536 10.5061 6.08085 10.4149 6.04807 10.3296C6.01529 10.2443 5.96497 10.1669 5.90037 10.1023C5.83577 10.0377 5.75833 9.98738 5.67305 9.9546C5.58778 9.92182 5.49657 9.9073 5.40534 9.912L4.93867 9.93566C4.8041 9.94269 4.67065 9.90788 4.55665 9.83603C4.44265 9.76418 4.35368 9.6588 4.30196 9.53437C4.25025 9.40993 4.23831 9.27254 4.2678 9.14105C4.2973 9.00956 4.36676 8.89043 4.46667 8.8L4.81367 8.48666C4.88149 8.42541 4.9357 8.35061 4.9728 8.2671C5.0099 8.18358 5.02908 8.09321 5.02908 8.00183C5.02908 7.91045 5.0099 7.82008 4.9728 7.73656C4.9357 7.65305 4.88149 7.57825 4.81367 7.517L4.46667 7.202C4.36709 7.11166 4.29783 6.99278 4.26837 6.8616C4.23891 6.73041 4.25068 6.59333 4.30208 6.46909C4.35347 6.34486 4.44198 6.23952 4.55551 6.16749C4.66904 6.09546 4.80204 6.06024 4.93634 6.06666L5.403 6.09033C5.49441 6.09514 5.58581 6.08066 5.67126 6.04784C5.75671 6.01503 5.83431 5.9646 5.899 5.89984C5.96369 5.83509 6.01404 5.75745 6.04678 5.67196C6.07951 5.58648 6.0939 5.49507 6.089 5.40366L6.06667 4.93666C6.06037 4.80242 6.09565 4.6695 6.16768 4.55604C6.23972 4.44259 6.34501 4.35412 6.46918 4.30272C6.59336 4.25131 6.73037 4.23947 6.86152 4.26881C6.99267 4.29815 7.11157 4.36725 7.202 4.46666L7.51534 4.81266Z" stroke="white" stroke-width="0.7" stroke-linecap="round" stroke-linejoin="round"/>
<path d="M8 9.50034C8.82843 9.50034 9.5 8.82876 9.5 8.00034C9.5 7.17191 8.82843 6.50034 8 6.50034C7.17157 6.50034 6.5 7.17191 6.5 8.00034C6.5 8.82876 7.17157 9.50034 8 9.50034Z" stroke="white" stroke-width="0.7" stroke-linecap="round" stroke-linejoin="round"/>
</svg>
