<svg width="72" height="72" viewBox="0 0 72 72" fill="none" xmlns="http://www.w3.org/2000/svg">
<circle cx="36" cy="36" r="35.5" fill="#EBEBEB" stroke="#EBEBEB"/>
<path opacity="0.5" d="M44.0104 40.6396C43.895 40.5846 43.7959 40.5 43.7232 40.3943C43.6504 40.2886 43.6065 40.1656 43.5959 40.0375C43.5853 39.9093 43.6082 39.7806 43.6626 39.6643C43.7169 39.5479 43.8006 39.448 43.9054 39.3744C45.7788 38.0511 47.2818 36.2642 48.2693 34.1861C49.2567 32.108 49.6954 29.8089 49.5429 27.5104C49.3904 25.212 48.652 22.992 47.3988 21.0644C46.1456 19.1369 44.4199 17.567 42.3883 16.5061C40.3567 15.4452 38.0878 14.9292 35.8003 15.0078C33.5129 15.0865 31.2842 15.7571 29.3293 16.955C27.3744 18.153 25.7592 19.8378 24.6396 21.8469C23.52 23.856 22.9338 26.1216 22.9375 28.4251C22.9429 30.6157 23.4847 32.7712 24.5148 34.701C25.545 36.6307 27.0318 38.2752 28.8438 39.4889C28.9498 39.561 29.035 39.66 29.0908 39.7758C29.1466 39.8917 29.171 40.0203 29.1615 40.1487C29.152 40.2771 29.109 40.4007 29.0368 40.507C28.9647 40.6133 28.8658 40.6986 28.7504 40.7541C25.8255 42.208 23.3626 44.4558 21.6397 47.2438C19.9168 50.0318 19.0025 53.249 19 56.5323C19 56.9215 19.1536 57.2949 19.4271 57.5701C19.7006 57.8454 20.0716 58 20.4583 58H52.5417C52.9284 58 53.2994 57.8454 53.5729 57.5701C53.8464 57.2949 54 56.9215 54 56.5323C53.9971 53.2039 53.0571 49.9445 51.2891 47.1318C49.5211 44.319 46.9974 42.068 44.0104 40.6396ZM29.2142 25.9358C29.2515 25.8313 29.312 25.7366 29.391 25.659C29.47 25.5814 29.5655 25.5229 29.6703 25.4878C29.775 25.4528 29.8863 25.4421 29.9958 25.4567C30.1052 25.4712 30.21 25.5106 30.3021 25.5718C32.1997 26.8339 34.3284 27.702 36.5636 28.1254C38.7989 28.5489 41.0956 28.519 43.3192 28.0376C43.3763 28.0254 43.4354 28.0262 43.4921 28.0398C43.5489 28.0534 43.602 28.0796 43.6475 28.1164C43.693 28.1532 43.7298 28.1997 43.7553 28.2526C43.7807 28.3055 43.7941 28.3634 43.7946 28.4222C43.7946 30.4269 43.0033 32.3495 41.5948 33.7671C40.1864 35.1846 38.2761 35.981 36.2842 35.981C34.2923 35.981 32.382 35.1846 30.9735 33.7671C29.565 32.3495 28.7738 30.4269 28.7738 28.4222C28.774 27.5738 28.9231 26.7321 29.2142 25.9358Z" fill="#717171"/>
</svg>
