<svg width="18" height="18" viewBox="0 0 18 18" fill="none" xmlns="http://www.w3.org/2000/svg">
<circle opacity="0.2" cx="9" cy="9" r="9" fill="#6967E0"/>
<path d="M12.4808 12.1305C12.4808 12.1882 12.5037 12.2435 12.5445 12.2843C12.5853 12.3251 12.6407 12.3481 12.6984 12.3481H13.9257C13.9614 12.348 13.9964 12.3393 14.0279 12.3225C14.0593 12.3058 14.0862 12.2815 14.1061 12.252C14.126 12.2224 14.1383 12.1884 14.142 12.153C14.1457 12.1175 14.1406 12.0817 14.1272 12.0487C13.9981 11.7261 13.7845 11.4442 13.509 11.2325C13.2334 11.0208 12.9059 10.8872 12.5609 10.8457C12.5248 10.8414 12.4882 10.8461 12.4544 10.8596C12.4206 10.873 12.3908 10.8947 12.3675 10.9226C12.3443 10.9506 12.3284 10.9839 12.3214 11.0196C12.3144 11.0552 12.3164 11.0921 12.3272 11.1268C12.4291 11.4516 12.4808 11.7901 12.4808 12.1305ZM5.89677 11.1081C5.90724 11.0755 5.90988 11.0409 5.90446 11.0071C5.89904 10.9733 5.88572 10.9412 5.86558 10.9135C5.84544 10.8859 5.81906 10.8633 5.78856 10.8478C5.75807 10.8322 5.72434 10.824 5.6901 10.824H5.68488C5.29514 10.8242 4.91437 10.9409 4.59152 11.1593C4.26867 11.3776 4.01852 11.6875 3.87321 12.0492C3.85989 12.0822 3.85488 12.118 3.85863 12.1534C3.86237 12.1888 3.87476 12.2228 3.89469 12.2523C3.91462 12.2818 3.94149 12.306 3.97295 12.3227C4.0044 12.3394 4.03947 12.3481 4.07509 12.3481H5.51955C5.57725 12.3481 5.63258 12.3251 5.67338 12.2843C5.71417 12.2435 5.73709 12.1882 5.73709 12.1305C5.73693 11.7835 5.7908 11.4385 5.89677 11.1081Z" fill="#6967E0"/>
<path d="M8.056 9.43641C8.07294 9.44679 8.0867 9.4616 8.09582 9.47925C8.10493 9.4969 8.10903 9.5167 8.10769 9.53651C8.10634 9.55633 8.0996 9.5754 8.08819 9.59165C8.07677 9.6079 8.06113 9.62072 8.04295 9.62872C7.55271 9.83804 7.1347 10.1867 6.8408 10.6314C6.54689 11.0761 6.39002 11.5974 6.38965 12.1304C6.38965 12.1881 6.41257 12.2435 6.45336 12.2843C6.49416 12.325 6.54949 12.348 6.60719 12.348H11.6106C11.6683 12.348 11.7236 12.325 11.7644 12.2843C11.8052 12.2435 11.8281 12.1881 11.8281 12.1304C11.8272 11.5966 11.6694 11.0748 11.3742 10.6299C11.079 10.1851 10.6595 9.83694 10.1679 9.62872C10.1495 9.62074 10.1337 9.60786 10.1221 9.59149C10.1106 9.57511 10.1038 9.55588 10.1024 9.53589C10.1011 9.51589 10.1052 9.49592 10.1145 9.47814C10.1237 9.46037 10.1377 9.44548 10.1548 9.43511C10.5429 9.20461 10.8445 8.85301 11.0132 8.43438C11.1819 8.01576 11.2084 7.55329 11.0886 7.11813C10.9688 6.68298 10.7094 6.29922 10.3502 6.02591C9.99102 5.75259 9.552 5.60485 9.10065 5.60541C8.64931 5.60597 8.21065 5.7548 7.85215 6.02901C7.49365 6.30322 7.23517 6.68762 7.11647 7.12308C6.99777 7.55853 7.02542 8.02093 7.19518 8.43913C7.36493 8.85734 7.66738 9.20819 8.056 9.43772V9.43641ZM7.91243 7.6652C7.91244 7.58293 7.92163 7.50092 7.93984 7.42069C7.94739 7.38711 7.96281 7.3558 7.98482 7.32934C8.00683 7.30288 8.0348 7.28202 8.06644 7.26847C8.09808 7.25492 8.13248 7.24907 8.16682 7.25141C8.20116 7.25374 8.23446 7.26419 8.26397 7.2819C8.68099 7.53295 9.1586 7.66548 9.64535 7.6652C9.77263 7.66508 9.89972 7.65563 10.0256 7.63692C10.0596 7.63183 10.0943 7.63487 10.1269 7.64579C10.1595 7.6567 10.189 7.67519 10.2131 7.69972C10.2372 7.72426 10.2551 7.75415 10.2654 7.78695C10.2757 7.81974 10.278 7.85451 10.2723 7.8884C10.217 8.17971 10.055 8.43989 9.81794 8.61802C9.5809 8.79616 9.28591 8.87941 8.99072 8.85149C8.69553 8.82357 8.42138 8.68649 8.22194 8.46707C8.0225 8.24766 7.91213 7.96171 7.91243 7.6652Z" fill="#6967E0"/>
<path d="M12.3156 10.3902C12.5655 10.3917 12.8096 10.3155 13.0141 10.1721C13.2187 10.0287 13.3735 9.82516 13.4573 9.58978C13.541 9.3544 13.5494 9.09881 13.4814 8.85843C13.4133 8.61806 13.2722 8.4048 13.0775 8.24824C12.8828 8.09167 12.6443 7.99954 12.3949 7.98463C12.1455 7.96972 11.8977 8.03275 11.6857 8.16501C11.4738 8.29726 11.3082 8.49217 11.212 8.72272C11.1158 8.95327 11.0937 9.20805 11.1488 9.45173C11.2098 9.71635 11.3581 9.95277 11.5697 10.123C11.7814 10.2932 12.0441 10.3873 12.3156 10.3902Z" fill="#6967E0"/>
<path d="M5.68475 10.3899C6.34554 10.3899 6.88122 9.85427 6.88122 9.19348C6.88122 8.53269 6.34554 7.99701 5.68475 7.99701C5.02396 7.99701 4.48828 8.53269 4.48828 9.19348C4.48828 9.85427 5.02396 10.3899 5.68475 10.3899Z" fill="#6967E0"/>
</svg>
