<svg width="14" height="14" viewBox="0 0 14 14" fill="none" xmlns="http://www.w3.org/2000/svg">
<path d="M9.84681 11.9H4.13014C3.91355 11.9 3.70583 11.814 3.55267 11.6608C3.39952 11.5077 3.31348 11.3 3.31348 11.0834V3.73337H10.6635V11.0834C10.6635 11.3 10.5774 11.5077 10.4243 11.6608C10.2711 11.814 10.0634 11.9 9.84681 11.9Z" stroke="#717171" stroke-width="0.91" stroke-linecap="round" stroke-linejoin="round"/>
<path d="M5.76367 9.45003V6.18336" stroke="#717171" stroke-width="0.91" stroke-linecap="round" stroke-linejoin="round"/>
<path d="M8.21289 9.45003V6.18336" stroke="#717171" stroke-width="0.91" stroke-linecap="round" stroke-linejoin="round"/>
<path d="M1.67969 3.73337H12.2964" stroke="#717171" stroke-width="0.91" stroke-linecap="round" stroke-linejoin="round"/>
<path d="M8.21296 2.10001H5.76296C5.54636 2.10001 5.33864 2.18605 5.18549 2.3392C5.03233 2.49236 4.94629 2.70008 4.94629 2.91667V3.73334H9.02962V2.91667C9.02962 2.70008 8.94358 2.49236 8.79043 2.3392C8.63727 2.18605 8.42955 2.10001 8.21296 2.10001Z" stroke="#717171" stroke-width="0.91" stroke-linecap="round" stroke-linejoin="round"/>
</svg>
