<svg width="18" height="18" viewBox="0 0 18 18" fill="none" xmlns="http://www.w3.org/2000/svg">
<path d="M18 9C18 13.9706 13.9706 18 9 18C4.02944 18 0 13.9706 0 9C0 4.02944 4.02944 0 9 0C13.9706 0 18 4.02944 18 9ZM2.30266 9C2.30266 12.6988 5.30116 15.6973 9 15.6973C12.6988 15.6973 15.6973 12.6988 15.6973 9C15.6973 5.30116 12.6988 2.30266 9 2.30266C5.30116 2.30266 2.30266 5.30116 2.30266 9Z" fill="#DDDDDD"/>
<path d="M9 0C7.21997 0 5.47991 0.527841 3.99987 1.51677C2.51983 2.50571 1.36628 3.91131 0.685088 5.55585C0.00389957 7.20038 -0.17433 9.00998 0.172936 10.7558C0.520203 12.5016 1.37737 14.1053 2.63604 15.364C3.89471 16.6226 5.49836 17.4798 7.24419 17.8271C8.99002 18.1743 10.7996 17.9961 12.4442 17.3149C14.0887 16.6337 15.4943 15.4802 16.4832 14.0001C17.4722 12.5201 18 10.78 18 9C17.9972 6.6139 17.0481 4.32633 15.3609 2.63911C13.6737 0.951883 11.3861 0.00277892 9 0V0ZM14.1953 6.15L9.0615 13.1167C9.00089 13.1972 8.92487 13.2647 8.83788 13.3154C8.75088 13.3661 8.65466 13.399 8.55482 13.4121C8.45498 13.4253 8.35353 13.4184 8.25638 13.3919C8.15923 13.3654 8.06834 13.3198 7.989 13.2577L4.323 10.3267C4.24608 10.2652 4.18204 10.1891 4.13453 10.1028C4.08702 10.0165 4.05697 9.92165 4.04611 9.82373C4.02417 9.62597 4.08168 9.4276 4.206 9.27225C4.33032 9.1169 4.51126 9.0173 4.70902 8.99535C4.90678 8.97341 5.10515 9.03093 5.2605 9.15525L8.3175 11.601L12.9878 5.26275C13.044 5.17838 13.1167 5.10629 13.2016 5.05082C13.2865 4.99536 13.3817 4.95768 13.4815 4.94007C13.5814 4.92245 13.6838 4.92526 13.7825 4.94833C13.8812 4.9714 13.9743 5.01424 14.056 5.07427C14.1377 5.13431 14.2063 5.21028 14.2579 5.29761C14.3094 5.38494 14.3426 5.4818 14.3557 5.58235C14.3687 5.6829 14.3612 5.78504 14.3336 5.88261C14.306 5.98017 14.259 6.07114 14.1953 6.15Z" fill="#2BB763"/>
</svg>
