<svg width="18" height="18" viewBox="0 0 18 18" fill="none" xmlns="http://www.w3.org/2000/svg">
<path d="M9 16.5V10.5" stroke="#717171" stroke-width="1.2" stroke-linecap="round" stroke-linejoin="round"/>
<path d="M6.5 13L9 10.5L11.5 13" stroke="#717171" stroke-width="1.2" stroke-linecap="round" stroke-linejoin="round"/>
<path d="M12.4999 11.5H13.2499C13.7598 11.5008 14.2627 11.3817 14.7181 11.1522C15.1734 10.9228 15.5684 10.5894 15.871 10.179C16.1737 9.76862 16.3755 9.29279 16.4602 8.78998C16.545 8.28717 16.5102 7.77148 16.3587 7.28459C16.2073 6.79771 15.9434 6.35329 15.5884 5.98727C15.2334 5.62125 14.7972 5.3439 14.3152 5.17763C13.8331 5.01136 13.3188 4.96084 12.8136 5.03016C12.3084 5.09948 11.8267 5.28669 11.4072 5.57665C11.2398 4.6853 10.8331 3.85627 10.2307 3.17833C9.62822 2.50039 8.85273 1.99908 7.98723 1.72808C7.12173 1.45707 6.19881 1.42658 5.31731 1.63986C4.43581 1.85315 3.62892 2.30218 2.98304 2.93887C2.33716 3.57557 1.87662 4.37595 1.65073 5.2543C1.42484 6.13266 1.44212 7.05592 1.7007 7.92521C1.95928 8.79451 2.44944 9.5771 3.11868 10.1892C3.78792 10.8013 4.61104 11.2198 5.4999 11.4" stroke="#717171" stroke-width="1.2" stroke-linecap="round" stroke-linejoin="round"/>
</svg>
