<svg width="15" height="15" viewBox="0 0 15 15" fill="none" xmlns="http://www.w3.org/2000/svg">
<rect x="0.5625" y="0.5" width="14" height="14" rx="7" fill="#5FCF64"/>
<path d="M6.24621 10.416C6.11529 10.416 5.98462 10.3669 5.88464 10.2683L3.47739 7.89549L4.20053 7.18244L6.24621 9.19885L10.3376 5.16602L11.0607 5.87907L6.60779 10.2683C6.5078 10.3669 6.37714 10.416 6.24621 10.416Z" fill="white"/>
<circle cx="7.5625" cy="7.5" r="7" fill="#FE6955"/>
<path d="M11.8958 7.50033C11.8958 6.64327 11.6417 5.80547 11.1655 5.09286C10.6894 4.38024 10.0126 3.82483 9.22079 3.49685C8.42897 3.16887 7.55768 3.08306 6.7171 3.25026C5.87652 3.41746 5.10439 3.83017 4.49836 4.4362C3.89233 5.04222 3.47962 5.81435 3.31242 6.65494C3.14522 7.49552 3.23103 8.36681 3.55901 9.15862C3.88699 9.95043 4.44241 10.6272 5.15502 11.1034C5.86763 11.5795 6.70544 11.8337 7.56249 11.8337C8.71133 11.8322 9.81271 11.3752 10.6251 10.5629C11.4374 9.75054 11.8944 8.64916 11.8958 7.50033ZM7.56249 10.5003C7.07364 10.5 6.59253 10.3781 6.16249 10.1457C6.13953 10.1335 6.11974 10.1161 6.1047 10.0949C6.08965 10.0738 6.07976 10.0493 6.07582 10.0237C6.07215 9.99784 6.07451 9.97152 6.08272 9.94676C6.09093 9.92201 6.10477 9.89949 6.12316 9.88099L9.94116 6.06299C9.9596 6.04455 9.98213 6.03072 10.0069 6.02261C10.0317 6.01451 10.058 6.01235 10.0838 6.01633C10.1095 6.02019 10.134 6.02997 10.1553 6.0449C10.1766 6.05982 10.1941 6.07948 10.2065 6.10233C10.4384 6.53254 10.5601 7.01357 10.5605 7.50233C10.56 8.29728 10.2439 9.05953 9.68181 9.62165C9.11969 10.1838 8.35745 10.4998 7.56249 10.5003ZM4.56249 7.50033C4.56337 6.70495 4.87973 5.9424 5.44215 5.37998C6.00456 4.81756 6.76711 4.50121 7.56249 4.50033C8.05138 4.50101 8.53245 4.62311 8.96249 4.85566C8.98554 4.86781 9.00536 4.88527 9.02032 4.9066C9.03527 4.92793 9.04493 4.95252 9.04849 4.97833C9.05225 5.00399 9.04999 5.03018 9.04189 5.05483C9.03379 5.07947 9.02008 5.10189 9.00182 5.12033L5.18249 8.93833C5.16399 8.95671 5.14148 8.97055 5.11672 8.97876C5.09197 8.98698 5.06565 8.98934 5.03982 8.98566C5.01414 8.98172 4.98973 8.97184 4.96855 8.95679C4.94737 8.94174 4.93 8.92195 4.91782 8.89899C4.68539 8.46939 4.56329 7.98878 4.56249 7.50033Z" fill="white"/>
</svg>
