<svg width="17" height="20" viewBox="0 0 17 20" fill="none" xmlns="http://www.w3.org/2000/svg">
<g filter="url(#filter0_d)">
<path d="M6.66579 12.6718H2.48025C2.40173 12.6718 2.32643 12.6405 2.27091 12.5848C2.21539 12.5291 2.1842 12.4536 2.1842 12.3749V7.32807C2.1842 7.24934 2.21539 7.17383 2.27091 7.11815C2.32643 7.06248 2.40173 7.0312 2.48025 7.0312H10.4736C10.5521 7.0312 10.6274 7.06248 10.6829 7.11815C10.7384 7.17383 10.7696 7.24934 10.7696 7.32807V8.55712C11.1625 8.5025 11.561 8.5025 11.9538 8.55712V4.65623C11.9538 4.49876 11.8914 4.34774 11.7804 4.23639C11.6694 4.12504 11.5188 4.06249 11.3617 4.06249H9.88147C9.84221 4.06249 9.80456 4.04685 9.7768 4.01901C9.74904 3.99117 9.73345 3.95342 9.73345 3.91405V3.32031C9.73345 3.2022 9.68666 3.08894 9.60338 3.00543C9.5201 2.92192 9.40715 2.875 9.28937 2.875C9.1716 2.875 9.05865 2.92192 8.97537 3.00543C8.89209 3.08894 8.8453 3.2022 8.8453 3.32031V5.54684C8.8453 5.60532 8.83381 5.66323 8.8115 5.71725C8.78918 5.77128 8.75647 5.82037 8.71523 5.86172C8.674 5.90307 8.62504 5.93587 8.57117 5.95825C8.51729 5.98063 8.45954 5.99215 8.40123 5.99215C8.34291 5.99215 8.28516 5.98063 8.23129 5.95825C8.17741 5.93587 8.12846 5.90307 8.08722 5.86172C8.04598 5.82037 8.01327 5.77128 7.99096 5.71725C7.96864 5.66323 7.95715 5.60532 7.95715 5.54684V4.35936C7.95715 4.28062 7.92596 4.20511 7.87044 4.14944C7.81492 4.09376 7.73962 4.06249 7.6611 4.06249H5.14469C5.10543 4.06249 5.06778 4.04685 5.04002 4.01901C5.01226 3.99117 4.99666 3.95342 4.99666 3.91405V3.32031C4.99666 3.2022 4.94988 3.08894 4.8666 3.00543C4.78332 2.92192 4.67036 2.875 4.55259 2.875C4.43481 2.875 4.32186 2.92192 4.23858 3.00543C4.1553 3.08894 4.10852 3.2022 4.10852 3.32031V5.54684C4.10852 5.66495 4.06173 5.77821 3.97845 5.86172C3.89517 5.94523 3.78222 5.99215 3.66444 5.99215C3.54667 5.99215 3.43371 5.94523 3.35043 5.86172C3.26715 5.77821 3.22037 5.66495 3.22037 5.54684V4.35936C3.22037 4.28062 3.18918 4.20511 3.13366 4.14944C3.07814 4.09376 3.00284 4.06249 2.92432 4.06249H1.5921C1.43506 4.06249 1.28446 4.12504 1.17342 4.23639C1.06238 4.34774 1 4.49876 1 4.65623L1 12.6718C1 12.9867 1.12476 13.2887 1.34684 13.5114C1.56892 13.7341 1.87013 13.8592 2.1842 13.8592H6.66579C6.61131 13.4653 6.61131 13.0657 6.66579 12.6718Z" fill="#549DFC"/>
<path d="M11.3618 9.40625C10.6006 9.40625 9.85654 9.6326 9.22363 10.0567C8.59073 10.4807 8.09744 11.0835 7.80615 11.7887C7.51485 12.4939 7.43864 13.2699 7.58714 14.0185C7.73564 14.7671 8.10218 15.4548 8.64042 15.9945C9.17867 16.5343 9.86443 16.9018 10.611 17.0508C11.3576 17.1997 12.1314 17.1232 12.8346 16.8311C13.5379 16.539 14.139 16.0444 14.5618 15.4097C14.9847 14.775 15.2105 14.0289 15.2105 13.2656C15.2092 12.2424 14.8033 11.2615 14.0818 10.538C13.3603 9.81452 12.3822 9.40751 11.3618 9.40625ZM11.8059 14.7499C11.8059 14.868 11.7591 14.9813 11.6758 15.0648C11.5926 15.1483 11.4796 15.1952 11.3618 15.1952C11.244 15.1952 11.1311 15.1483 11.0478 15.0648C10.9645 14.9813 10.9177 14.868 10.9177 14.7499V13.8593C10.9177 13.82 10.9022 13.7822 10.8744 13.7544C10.8466 13.7265 10.809 13.7109 10.7697 13.7109H9.88158C9.7638 13.7109 9.65085 13.664 9.56757 13.5805C9.48429 13.4969 9.4375 13.3837 9.4375 13.2656C9.4375 13.1475 9.48429 13.0342 9.56757 12.9507C9.65085 12.8672 9.7638 12.8203 9.88158 12.8203H10.7697C10.809 12.8203 10.8466 12.8046 10.8744 12.7768C10.9022 12.749 10.9177 12.7112 10.9177 12.6718V11.7812C10.9177 11.6631 10.9645 11.5499 11.0478 11.4663C11.1311 11.3828 11.244 11.3359 11.3618 11.3359C11.4796 11.3359 11.5926 11.3828 11.6758 11.4663C11.7591 11.5499 11.8059 11.6631 11.8059 11.7812V12.6718C11.8059 12.7112 11.8215 12.749 11.8493 12.7768C11.877 12.8046 11.9147 12.8203 11.9539 12.8203H12.8421C12.9598 12.8203 13.0728 12.8672 13.1561 12.9507C13.2394 13.0342 13.2861 13.1475 13.2861 13.2656C13.2861 13.3837 13.2394 13.4969 13.1561 13.5805C13.0728 13.664 12.9598 13.7109 12.8421 13.7109H11.9539C11.9147 13.7109 11.877 13.7265 11.8493 13.7544C11.8215 13.7822 11.8059 13.82 11.8059 13.8593V14.7499Z" fill="url(#paint0_linear)"/>
</g>
<defs>
<filter id="filter0_d" x="0" y="0" width="17" height="21" filterUnits="userSpaceOnUse" color-interpolation-filters="sRGB">
<feFlood flood-opacity="0" result="BackgroundImageFix"/>
<feColorMatrix in="SourceAlpha" type="matrix" values="0 0 0 0 0 0 0 0 0 0 0 0 0 0 0 0 0 0 127 0"/>
<feOffset dy="0.5"/>
<feGaussianBlur stdDeviation="0.5"/>
<feColorMatrix type="matrix" values="0 0 0 0 0 0 0 0 0 0 0 0 0 0 0 0 0 0 0.15 0"/>
<feBlend mode="normal" in2="BackgroundImageFix" result="effect1_dropShadow"/>
<feBlend mode="normal" in="SourceGraphic" in2="effect1_dropShadow" result="shape"/>
</filter>
<linearGradient id="paint0_linear" x1="11.3618" y1="9.40625" x2="11.3618" y2="17.1249" gradientUnits="userSpaceOnUse">
<stop stop-color="#2257E2"/>
<stop offset="1" stop-color="#5AA6FF"/>
</linearGradient>
</defs>
</svg>
