<svg width="24" height="24" viewBox="0 0 24 24" fill="none" xmlns="http://www.w3.org/2000/svg">
<g clip-path="url(#clip0_19851_184955)">
<path d="M12 0C14.3734 0 16.6934 0.703788 18.6668 2.02236C20.6402 3.34094 22.1783 5.21509 23.0865 7.4078C23.9948 9.60051 24.2324 12.0133 23.7694 14.3411C23.3064 16.6689 22.1635 18.8071 20.4853 20.4853C18.807 22.1635 16.6688 23.3064 14.3411 23.7694C12.0133 24.2324 9.60051 23.9948 7.40779 23.0866C5.21508 22.1783 3.34094 20.6402 2.02236 18.6668C0.703783 16.6935 -5.72205e-06 14.3734 -5.72205e-06 12C0.00343536 8.81846 1.26882 5.76821 3.51851 3.51852C5.7682 1.26883 8.81845 0.00344108 12 0V0ZM6.68399 12.384L14.4 18.817C14.4731 18.8779 14.562 18.9166 14.6563 18.9287C14.7506 18.9409 14.8464 18.9258 14.9325 18.8854C15.0186 18.845 15.0913 18.7809 15.1423 18.7006C15.1932 18.6203 15.2201 18.5271 15.22 18.432V15.745C15.22 15.6688 15.2027 15.5936 15.1692 15.5252C15.1358 15.4567 15.0871 15.3968 15.027 15.35L10.977 12.2C10.9469 12.1767 10.9225 12.1469 10.9058 12.1127C10.889 12.0786 10.8803 12.041 10.8803 12.003C10.8803 11.965 10.889 11.9274 10.9058 11.8933C10.9225 11.8591 10.9469 11.8293 10.977 11.806L15.03 8.65C15.0901 8.60322 15.1388 8.54331 15.1722 8.47485C15.2057 8.40639 15.223 8.33119 15.223 8.255V5.568C15.2231 5.47291 15.1962 5.37974 15.1453 5.29943C15.0943 5.21913 15.0216 5.155 14.9355 5.11459C14.8494 5.07418 14.7536 5.05915 14.6593 5.07126C14.565 5.08338 14.4761 5.12214 14.403 5.183L6.68399 11.616C6.62772 11.6629 6.58245 11.7216 6.55139 11.788C6.52032 11.8544 6.50422 11.9267 6.50422 12C6.50422 12.0733 6.52032 12.1456 6.55139 12.212C6.58245 12.2784 6.62772 12.3371 6.68399 12.384Z" fill="#717171"/>
</g>
<defs>
<clipPath id="clip0_19851_184955">
<rect width="24" height="24" fill="white" transform="matrix(-1 0 0 1 24 0)"/>
</clipPath>
</defs>
</svg>
