<svg width="33" height="58" viewBox="0 0 33 58" fill="none" xmlns="http://www.w3.org/2000/svg">
<path d="M17.8973 38.4559H21.3962V39.7005V39.8505H21.5462H23.709H23.859V39.7005V37.6085C23.859 37.1972 23.69 36.8038 23.391 36.5146C23.0921 36.2255 22.6878 36.0639 22.2672 36.0639H17.8973C17.6113 35.1833 17.0182 34.4258 16.219 33.9213C15.3875 33.3964 14.3885 33.1804 13.406 33.3125C12.4235 33.4446 11.5226 33.916 10.8699 34.6412C10.2171 35.3665 9.85684 36.2965 9.85684 37.2599C9.85684 38.2232 10.2171 39.1533 10.8699 39.8786C11.5226 40.6037 12.4235 41.0752 13.406 41.2073C14.3885 41.3394 15.3875 41.1234 16.219 40.5985C17.0182 40.094 17.6113 39.3364 17.8973 38.4559ZM13.9766 38.8532C13.6487 38.8532 13.3286 38.7591 13.0567 38.5834C12.7849 38.4077 12.5738 38.1585 12.4494 37.868C12.325 37.5774 12.2925 37.2581 12.3558 36.95C12.4192 36.6419 12.5757 36.3582 12.8064 36.135C13.0372 35.9118 13.3318 35.7592 13.6533 35.6974C13.9748 35.6355 14.308 35.6673 14.6105 35.7885C14.913 35.9097 15.1708 36.1146 15.3517 36.3766C15.5326 36.6385 15.6289 36.9459 15.6289 37.2599C15.6289 37.6808 15.4561 38.0855 15.1467 38.3848C14.8372 38.6841 14.4164 38.8532 13.9766 38.8532Z" fill="#2266E2" stroke="#2266E2" stroke-width="0.3"/>
<path d="M12.1746 29.3912H12.3246V29.2412V27.1493V26.9993H12.1746H8.93044C8.22304 26.9993 7.54365 27.2711 7.04197 27.7563C6.54012 28.2417 6.25723 28.9012 6.25723 29.5899V32.7278V32.8778H6.40723H8.56998H8.71999V32.7278V29.5899C8.71999 29.5389 8.7409 29.4889 8.77985 29.4512C8.81896 29.4133 8.87305 29.3912 8.93044 29.3912H12.1746Z" fill="#2266E2" stroke="#2266E2" stroke-width="0.3"/>
<path d="M8.71901 41.7926V41.6426H8.56901H6.40625H6.25625V41.7926V44.9305C6.25625 45.6192 6.53915 46.2787 7.041 46.7641C7.54268 47.2494 8.22207 47.5211 8.92947 47.5211H12.1736H12.3236V47.3711V45.2792V45.1292H12.1736H8.92947C8.87207 45.1292 8.81799 45.1071 8.77887 45.0693C8.73993 45.0316 8.71901 44.9816 8.71901 44.9305V41.7926Z" fill="#2266E2" stroke="#2266E2" stroke-width="0.3"/>
<path d="M21.5449 45.1292H21.3949V45.2792V47.3711V47.5211H21.5449H24.7891C25.4965 47.5211 26.1758 47.2494 26.6775 46.7641C27.1794 46.2787 27.4623 45.6192 27.4623 44.9305V41.7926V41.6426H27.3123H25.1495H24.9995V41.7926V44.9305C24.9995 44.9816 24.9786 45.0316 24.9397 45.0693C24.9005 45.1071 24.8465 45.1292 24.7891 45.1292H21.5449Z" fill="#2266E2" stroke="#2266E2" stroke-width="0.3"/>
<path d="M21.5449 26.9987H21.3949V27.1487V29.2406V29.3906H21.5449H24.7891C24.8465 29.3906 24.9005 29.4127 24.9397 29.4506C24.9786 29.4882 24.9995 29.5382 24.9995 29.5893V32.7272V32.8772H25.1495H27.3123H27.4623V32.7272V29.5893C27.4623 28.9006 27.1794 28.2411 26.6775 27.7557C26.1758 27.2704 25.4965 26.9987 24.7891 26.9987H21.5449Z" fill="#2266E2" stroke="#2266E2" stroke-width="0.3"/>
<path d="M7.03077 57.15H26.3292C29.7327 57.15 32.51 54.4707 32.51 51.1667V6.83333C32.51 3.52932 29.7327 0.85 26.3292 0.85H7.03077C3.62731 0.85 0.85 3.52932 0.85 6.83333V51.1667C0.85 54.4707 3.62731 57.15 7.03077 57.15ZM3.56231 6.83333C3.56231 4.99118 5.11389 3.48333 7.03077 3.48333H26.3292C28.2461 3.48333 29.7977 4.99118 29.7977 6.83333V51.1667C29.7977 53.0088 28.2461 54.5167 26.3292 54.5167H7.03077C5.11389 54.5167 3.56231 53.0088 3.56231 51.1667V6.83333Z" fill="#2266E2" stroke="#2266E2" stroke-width="0.3"/>
<path d="M15.3246 6.83267C15.3246 7.56418 15.9369 8.14934 16.6808 8.14934C17.4247 8.14934 18.0369 7.56418 18.0369 6.83267V6.499C18.0369 5.76749 17.4247 5.18234 16.6808 5.18234C15.9369 5.18234 15.3246 5.76749 15.3246 6.499V6.83267Z" fill="#2266E2" stroke="#2266E2" stroke-width="0.3"/>
</svg>
