<svg width="65" height="61" viewBox="0 0 65 61" fill="none" xmlns="http://www.w3.org/2000/svg">
<g filter="url(#filter0_d_11105_5529)">
<path d="M22.9529 20.2938H6.11336C5.33829 20.2938 4.63348 19.6598 4.63348 18.814V2.04488C4.63348 1.19953 5.2675 0.564999 6.11336 0.564999H22.9529C23.7983 0.564999 24.4328 1.19901 24.4328 2.04488V18.8844C24.4328 19.6595 23.728 20.2935 22.9529 20.2935V20.2938Z" fill="#FFB169"/>
</g>
<g filter="url(#filter1_d_11105_5529)">
<path d="M54.8001 20.0825H45.288C44.7945 20.0825 44.3016 19.8008 44.02 19.3777L39.2993 11.134C39.0176 10.7114 39.0176 10.1476 39.2993 9.65416L44.02 1.41053C44.3016 0.987859 44.795 0.70575 45.288 0.70575H54.8001C55.2935 0.70575 55.7865 0.987368 56.0681 1.41053L60.7888 9.65416C61.0704 10.0768 61.0704 10.6406 60.7888 11.134L56.0681 19.3777C55.7865 19.8003 55.293 20.0825 54.8001 20.0825Z" fill="#6967E0"/>
</g>
<g filter="url(#filter2_d_11105_5529)">
<path d="M50.0794 52.4229C44.5134 52.4229 39.9332 47.8433 39.9332 42.2767C39.9332 36.7108 44.5128 32.1306 50.0794 32.1306C55.6453 32.1306 60.2255 36.7101 60.2255 42.2767C60.225 47.8432 55.6454 52.4229 50.0794 52.4229Z" fill="#FF6767"/>
</g>
<g filter="url(#filter3_d_11105_5529)">
<path d="M23.587 51.6478H5.47921C4.98577 51.6478 4.49282 51.3662 4.21121 50.943C3.9296 50.5204 3.9296 49.9566 4.21121 49.4632L13.3001 33.7509C13.7935 32.8348 15.3431 32.8348 15.8366 33.7509L24.9255 49.4632C25.2071 49.8858 25.2071 50.4495 24.9255 50.943C24.6439 51.4365 24.1504 51.6478 23.5866 51.6478H23.587Z" fill="#79BAF2"/>
</g>
<g filter="url(#filter4_d_11105_5529)">
<path d="M34.2262 11.9798H34.0852C33.2398 11.9798 32.6053 11.3458 32.6053 10.4999C32.6053 9.65454 33.2393 9.02001 34.0852 9.02001L34.2262 9.0205C35.0716 9.0205 35.7061 9.65452 35.7061 10.5004C35.7056 11.3457 35.0716 11.9798 34.2262 11.9798V11.9798ZM28.237 11.9798C27.3917 11.9798 26.6869 11.3458 26.6869 10.4999C26.6869 9.65454 27.2507 9.02001 28.096 9.02001H28.237C29.0824 9.02001 29.7169 9.65403 29.7169 10.4999C29.7169 11.3458 29.0121 11.9798 28.237 11.9798H28.237Z" fill="#859BA9"/>
</g>
<g filter="url(#filter5_d_11105_5529)">
<path d="M50.3612 30.7922C49.5158 30.7922 48.8813 30.1581 48.8813 29.3123V29.1717C48.8813 28.3264 49.5153 27.6918 50.3612 27.6918C51.2065 27.6918 51.8411 28.3259 51.8411 29.1717V29.3128C51.7703 30.1581 51.1363 30.7921 50.3612 30.7921V30.7922ZM50.3612 24.7332C49.5158 24.7332 48.8813 24.0992 48.8813 23.2534V23.1123C48.8813 22.267 49.5153 21.6324 50.3612 21.6324C51.2065 21.6324 51.8411 22.2664 51.8411 23.1123V23.2534C51.7703 24.0987 51.1363 24.7332 50.3612 24.7332Z" fill="#859BA9"/>
</g>
<g filter="url(#filter6_d_11105_5529)">
<path d="M37.0446 43.3337C36.1992 43.3337 35.4945 42.6997 35.4945 41.8538C35.4945 41.0085 36.0582 40.374 36.9035 40.374H37.0446C37.8899 40.374 38.5245 41.008 38.5245 41.8538C38.5245 42.6992 37.89 43.3337 37.0446 43.3337H37.0446ZM31.0554 43.3337H30.9143C30.069 43.3337 29.4344 42.6997 29.4344 41.8538C29.4344 41.0085 30.0684 40.374 30.9143 40.374H31.0554C31.9007 40.374 32.5352 41.008 32.5352 41.8538C32.465 42.6992 31.8305 43.3337 31.0554 43.3337ZM24.9959 43.3337C24.1506 43.3337 23.4459 42.6997 23.4459 41.8538C23.4459 41.0085 24.0096 40.374 24.8549 40.374H24.996C25.8413 40.374 26.4758 41.008 26.4758 41.8538C26.4758 42.6992 25.7711 43.3337 24.996 43.3337H24.9959Z" fill="#859BA9"/>
</g>
<g filter="url(#filter7_d_11105_5529)">
<path d="M14.5683 31.0035C13.723 31.0035 13.0884 30.3695 13.0884 29.5236V29.3826C13.0884 28.5372 13.7225 27.9027 14.5683 27.9027C15.4137 27.9027 16.0482 28.5367 16.0482 29.3826V29.5236C15.9774 30.369 15.3434 31.0035 14.5683 31.0035ZM14.5683 25.0143C13.723 25.0143 13.0884 24.3803 13.0884 23.5344V23.3934C13.0884 22.548 13.7225 21.9135 14.5683 21.9135C15.4137 21.9135 16.0482 22.5475 16.0482 23.3934V23.5344C15.9774 24.3095 15.3434 25.0143 14.5683 25.0143Z" fill="#859BA9"/>
</g>
<defs>
<filter id="filter0_d_11105_5529" x="0.633484" y="0.564999" width="27.7993" height="27.7289" filterUnits="userSpaceOnUse" color-interpolation-filters="sRGB">
<feFlood flood-opacity="0" result="BackgroundImageFix"/>
<feColorMatrix in="SourceAlpha" type="matrix" values="0 0 0 0 0 0 0 0 0 0 0 0 0 0 0 0 0 0 127 0" result="hardAlpha"/>
<feOffset dy="4"/>
<feGaussianBlur stdDeviation="2"/>
<feColorMatrix type="matrix" values="0 0 0 0 0 0 0 0 0 0 0 0 0 0 0 0 0 0 0.05 0"/>
<feBlend mode="normal" in2="BackgroundImageFix" result="effect1_dropShadow_11105_5529"/>
<feBlend mode="normal" in="SourceGraphic" in2="effect1_dropShadow_11105_5529" result="shape"/>
</filter>
<filter id="filter1_d_11105_5529" x="35.088" y="0.70575" width="29.912" height="27.3767" filterUnits="userSpaceOnUse" color-interpolation-filters="sRGB">
<feFlood flood-opacity="0" result="BackgroundImageFix"/>
<feColorMatrix in="SourceAlpha" type="matrix" values="0 0 0 0 0 0 0 0 0 0 0 0 0 0 0 0 0 0 127 0" result="hardAlpha"/>
<feOffset dy="4"/>
<feGaussianBlur stdDeviation="2"/>
<feColorMatrix type="matrix" values="0 0 0 0 0 0 0 0 0 0 0 0 0 0 0 0 0 0 0.05 0"/>
<feBlend mode="normal" in2="BackgroundImageFix" result="effect1_dropShadow_11105_5529"/>
<feBlend mode="normal" in="SourceGraphic" in2="effect1_dropShadow_11105_5529" result="shape"/>
</filter>
<filter id="filter2_d_11105_5529" x="35.9332" y="32.1306" width="28.2923" height="28.2923" filterUnits="userSpaceOnUse" color-interpolation-filters="sRGB">
<feFlood flood-opacity="0" result="BackgroundImageFix"/>
<feColorMatrix in="SourceAlpha" type="matrix" values="0 0 0 0 0 0 0 0 0 0 0 0 0 0 0 0 0 0 127 0" result="hardAlpha"/>
<feOffset dy="4"/>
<feGaussianBlur stdDeviation="2"/>
<feColorMatrix type="matrix" values="0 0 0 0 0 0 0 0 0 0 0 0 0 0 0 0 0 0 0.05 0"/>
<feBlend mode="normal" in2="BackgroundImageFix" result="effect1_dropShadow_11105_5529"/>
<feBlend mode="normal" in="SourceGraphic" in2="effect1_dropShadow_11105_5529" result="shape"/>
</filter>
<filter id="filter3_d_11105_5529" x="0" y="33.0639" width="29.1367" height="26.584" filterUnits="userSpaceOnUse" color-interpolation-filters="sRGB">
<feFlood flood-opacity="0" result="BackgroundImageFix"/>
<feColorMatrix in="SourceAlpha" type="matrix" values="0 0 0 0 0 0 0 0 0 0 0 0 0 0 0 0 0 0 127 0" result="hardAlpha"/>
<feOffset dy="4"/>
<feGaussianBlur stdDeviation="2"/>
<feColorMatrix type="matrix" values="0 0 0 0 0 0 0 0 0 0 0 0 0 0 0 0 0 0 0.05 0"/>
<feBlend mode="normal" in2="BackgroundImageFix" result="effect1_dropShadow_11105_5529"/>
<feBlend mode="normal" in="SourceGraphic" in2="effect1_dropShadow_11105_5529" result="shape"/>
</filter>
<filter id="filter4_d_11105_5529" x="22.6869" y="9.02001" width="17.0192" height="10.9598" filterUnits="userSpaceOnUse" color-interpolation-filters="sRGB">
<feFlood flood-opacity="0" result="BackgroundImageFix"/>
<feColorMatrix in="SourceAlpha" type="matrix" values="0 0 0 0 0 0 0 0 0 0 0 0 0 0 0 0 0 0 127 0" result="hardAlpha"/>
<feOffset dy="4"/>
<feGaussianBlur stdDeviation="2"/>
<feColorMatrix type="matrix" values="0 0 0 0 0 0 0 0 0 0 0 0 0 0 0 0 0 0 0.05 0"/>
<feBlend mode="normal" in2="BackgroundImageFix" result="effect1_dropShadow_11105_5529"/>
<feBlend mode="normal" in="SourceGraphic" in2="effect1_dropShadow_11105_5529" result="shape"/>
</filter>
<filter id="filter5_d_11105_5529" x="44.8813" y="21.6324" width="10.9597" height="17.1597" filterUnits="userSpaceOnUse" color-interpolation-filters="sRGB">
<feFlood flood-opacity="0" result="BackgroundImageFix"/>
<feColorMatrix in="SourceAlpha" type="matrix" values="0 0 0 0 0 0 0 0 0 0 0 0 0 0 0 0 0 0 127 0" result="hardAlpha"/>
<feOffset dy="4"/>
<feGaussianBlur stdDeviation="2"/>
<feColorMatrix type="matrix" values="0 0 0 0 0 0 0 0 0 0 0 0 0 0 0 0 0 0 0.05 0"/>
<feBlend mode="normal" in2="BackgroundImageFix" result="effect1_dropShadow_11105_5529"/>
<feBlend mode="normal" in="SourceGraphic" in2="effect1_dropShadow_11105_5529" result="shape"/>
</filter>
<filter id="filter6_d_11105_5529" x="19.4459" y="40.374" width="23.0786" height="10.9598" filterUnits="userSpaceOnUse" color-interpolation-filters="sRGB">
<feFlood flood-opacity="0" result="BackgroundImageFix"/>
<feColorMatrix in="SourceAlpha" type="matrix" values="0 0 0 0 0 0 0 0 0 0 0 0 0 0 0 0 0 0 127 0" result="hardAlpha"/>
<feOffset dy="4"/>
<feGaussianBlur stdDeviation="2"/>
<feColorMatrix type="matrix" values="0 0 0 0 0 0 0 0 0 0 0 0 0 0 0 0 0 0 0.05 0"/>
<feBlend mode="normal" in2="BackgroundImageFix" result="effect1_dropShadow_11105_5529"/>
<feBlend mode="normal" in="SourceGraphic" in2="effect1_dropShadow_11105_5529" result="shape"/>
</filter>
<filter id="filter7_d_11105_5529" x="9.08844" y="21.9135" width="10.9597" height="17.09" filterUnits="userSpaceOnUse" color-interpolation-filters="sRGB">
<feFlood flood-opacity="0" result="BackgroundImageFix"/>
<feColorMatrix in="SourceAlpha" type="matrix" values="0 0 0 0 0 0 0 0 0 0 0 0 0 0 0 0 0 0 127 0" result="hardAlpha"/>
<feOffset dy="4"/>
<feGaussianBlur stdDeviation="2"/>
<feColorMatrix type="matrix" values="0 0 0 0 0 0 0 0 0 0 0 0 0 0 0 0 0 0 0.05 0"/>
<feBlend mode="normal" in2="BackgroundImageFix" result="effect1_dropShadow_11105_5529"/>
<feBlend mode="normal" in="SourceGraphic" in2="effect1_dropShadow_11105_5529" result="shape"/>
</filter>
</defs>
</svg>
