<svg width="18" height="18" viewBox="0 0 18 18" fill="none" xmlns="http://www.w3.org/2000/svg">
<path d="M8.75 5.5C8.70055 5.5 8.65222 5.51466 8.61111 5.54213C8.57 5.5696 8.53795 5.60865 8.51903 5.65433C8.50011 5.70001 8.49516 5.75028 8.5048 5.79877C8.51445 5.84727 8.53826 5.89181 8.57322 5.92678C8.60819 5.96174 8.65273 5.98555 8.70123 5.9952C8.74972 6.00484 8.79999 5.99989 8.84567 5.98097C8.89135 5.96205 8.9304 5.93 8.95787 5.88889C8.98534 5.84778 9 5.79945 9 5.75C9 5.6837 8.97366 5.62011 8.92678 5.57322C8.87989 5.52634 8.8163 5.5 8.75 5.5Z" fill="#5ABAFF"/>
<path d="M10.5 12H10C9.73478 12 9.48043 11.8946 9.29289 11.7071C9.10536 11.5196 9 11.2652 9 11V8.5C9 8.36739 8.94732 8.24022 8.85355 8.14645C8.75978 8.05268 8.63261 8 8.5 8H8M8.75 5.5C8.70055 5.5 8.65222 5.51466 8.61111 5.54213C8.57 5.5696 8.53795 5.60865 8.51903 5.65433C8.50011 5.70001 8.49516 5.75028 8.5048 5.79877C8.51445 5.84727 8.53826 5.89181 8.57322 5.92678C8.60819 5.96174 8.65273 5.98555 8.70123 5.9952C8.74972 6.00484 8.79999 5.99989 8.84567 5.98097C8.89135 5.96205 8.9304 5.93 8.95787 5.88889C8.98534 5.84778 9 5.79945 9 5.75C9 5.6837 8.97366 5.62011 8.92678 5.57322C8.87989 5.52634 8.8163 5.5 8.75 5.5Z" stroke="#5ABAFF" stroke-width="1.5" stroke-linecap="round" stroke-linejoin="round"/>
<path d="M9 16.5C13.1421 16.5 16.5 13.1421 16.5 9C16.5 4.85786 13.1421 1.5 9 1.5C4.85786 1.5 1.5 4.85786 1.5 9C1.5 13.1421 4.85786 16.5 9 16.5Z" stroke="#5ABAFF" stroke-width="1.5" stroke-linecap="round" stroke-linejoin="round"/>
</svg>
