<svg width="17" height="17" viewBox="0 0 17 17" fill="none" xmlns="http://www.w3.org/2000/svg">
    <path d="M8.5 0C6.81886 0 5.17547 0.498516 3.77766 1.43251C2.37984 2.3665 1.29037 3.69402 0.647028 5.24719C0.00368293 6.80036 -0.164645 8.50943 0.163329 10.1583C0.491303 11.8071 1.30085 13.3217 2.4896 14.5104C3.67834 15.6992 5.1929 16.5087 6.84174 16.8367C8.49057 17.1646 10.1996 16.9963 11.7528 16.353C13.306 15.7096 14.6335 14.6202 15.5675 13.2223C16.5015 11.8245 17 10.1811 17 8.5C16.9974 6.24646 16.101 4.08598 14.5075 2.49249C12.914 0.899 10.7535 0.00262453 8.5 0V0ZM13.4066 5.80833L8.55809 12.388C8.50084 12.464 8.42905 12.5278 8.34688 12.5757C8.26472 12.6236 8.17384 12.6546 8.07955 12.667C7.98526 12.6794 7.88944 12.6729 7.79769 12.6479C7.70594 12.6228 7.6201 12.5798 7.54517 12.5212L4.08284 9.75304C4.01019 9.6949 3.9497 9.62303 3.90483 9.54151C3.85996 9.46 3.83159 9.37045 3.82133 9.27797C3.8006 9.0912 3.85492 8.90384 3.97234 8.75712C4.08975 8.6104 4.26064 8.51633 4.44741 8.49561C4.63418 8.47489 4.82153 8.52921 4.96825 8.64662L7.85542 10.9565L12.2662 4.97037C12.3193 4.89069 12.388 4.8226 12.4682 4.77022C12.5483 4.71784 12.6383 4.68226 12.7326 4.66562C12.8269 4.64898 12.9236 4.65164 13.0168 4.67342C13.11 4.69521 13.1979 4.73567 13.2751 4.79237C13.3522 4.84907 13.4171 4.92082 13.4658 5.0033C13.5144 5.08577 13.5458 5.17726 13.5581 5.27222C13.5704 5.36718 13.5633 5.46365 13.5373 5.55579C13.5113 5.64794 13.4668 5.73385 13.4066 5.80833Z" fill="#5FCF64"/>
</svg>
