<svg width="24" height="24" viewBox="0 0 24 24" fill="none" xmlns="http://www.w3.org/2000/svg">
<g clip-path="url(#clip0)">
<path d="M12 0C9.62663 0 7.30655 0.703788 5.33316 2.02236C3.35977 3.34094 1.8217 5.21509 0.913451 7.4078C0.00519943 9.60051 -0.232441 12.0133 0.230582 14.3411C0.693605 16.6689 1.83649 18.8071 3.51472 20.4853C5.19295 22.1635 7.33115 23.3064 9.65892 23.7694C11.9867 24.2324 14.3995 23.9948 16.5922 23.0866C18.7849 22.1783 20.6591 20.6402 21.9776 18.6668C23.2962 16.6935 24 14.3734 24 12C23.9966 8.81846 22.7312 5.76821 20.4815 3.51852C18.2318 1.26883 15.1815 0.00344108 12 0V0ZM17.316 12.384L9.60001 18.817C9.52694 18.8779 9.43803 18.9166 9.34372 18.9287C9.2494 18.9409 9.15358 18.9258 9.0675 18.8854C8.98143 18.845 8.90866 18.7809 8.85774 18.7006C8.80682 18.6203 8.77985 18.5271 8.78001 18.432V15.745C8.77995 15.6688 8.79731 15.5936 8.83076 15.5252C8.86421 15.4567 8.91287 15.3968 8.97301 15.35L13.023 12.2C13.0531 12.1767 13.0775 12.1469 13.0942 12.1127C13.111 12.0786 13.1197 12.041 13.1197 12.003C13.1197 11.965 13.111 11.9274 13.0942 11.8933C13.0775 11.8591 13.0531 11.8293 13.023 11.806L8.97001 8.65C8.90987 8.60322 8.86121 8.54331 8.82776 8.47485C8.79431 8.40639 8.77695 8.33119 8.77701 8.255V5.568C8.77685 5.47291 8.80382 5.37974 8.85474 5.29943C8.90566 5.21913 8.97843 5.155 9.06451 5.11459C9.15058 5.07418 9.2464 5.05915 9.34072 5.07126C9.43503 5.08338 9.52394 5.12214 9.59701 5.183L17.316 11.616C17.3723 11.6629 17.4175 11.7216 17.4486 11.788C17.4797 11.8544 17.4958 11.9267 17.4958 12C17.4958 12.0733 17.4797 12.1456 17.4486 12.212C17.4175 12.2784 17.3723 12.3371 17.316 12.384Z" fill="#717171"/>
</g>
<defs>
<clipPath id="clip0">
<rect width="24" height="24" fill="white"/>
</clipPath>
</defs>
</svg>
