<svg width="20" height="21" viewBox="0 0 20 21" fill="none" xmlns="http://www.w3.org/2000/svg">
<g clip-path="url(#clip0)">
<path d="M2.92505 1.1617V10.745C2.92505 10.966 3.01285 11.178 3.16913 11.3343C3.32541 11.4906 3.53737 11.5784 3.75838 11.5784C3.9794 11.5784 4.19136 11.4906 4.34764 11.3343C4.50392 11.178 4.59172 10.966 4.59172 10.745V2.4117C4.59172 2.3012 4.63561 2.19521 4.71375 2.11707C4.79189 2.03893 4.89788 1.99504 5.00838 1.99504H12.8242C12.9345 1.99506 13.0403 2.03881 13.1184 2.1167L15.3026 4.30087C15.3414 4.33957 15.3722 4.38554 15.3932 4.43616C15.4142 4.48679 15.425 4.54106 15.425 4.59587V10.745C15.425 10.966 15.5128 11.178 15.6691 11.3343C15.8254 11.4906 16.0374 11.5784 16.2584 11.5784C16.4794 11.5784 16.6914 11.4906 16.8476 11.3343C17.0039 11.178 17.0917 10.966 17.0917 10.745V4.07837C17.0917 3.85737 17.0038 3.64545 16.8475 3.4892L13.9309 0.572536C13.7746 0.416245 13.5627 0.328416 13.3417 0.328369H3.75838C3.53737 0.328369 3.32541 0.416167 3.16913 0.572447C3.01285 0.728727 2.92505 0.940689 2.92505 1.1617Z" fill="#549DFC"/>
<path d="M13.895 17.96C13.9412 17.9915 13.973 18.04 13.9833 18.095C14.0457 18.4296 14.2232 18.7319 14.4849 18.9495C14.7467 19.1671 15.0763 19.2864 15.4167 19.2866H17.5C17.6658 19.2866 17.8247 19.2208 17.9419 19.1036C18.0592 18.9864 18.125 18.8274 18.125 18.6616V12.8283C18.125 12.6625 18.0592 12.5036 17.9419 12.3863C17.8247 12.2691 17.6658 12.2033 17.5 12.2033H15.4167C15.1683 12.2031 14.9241 12.2668 14.7075 12.3883C14.6808 12.4032 14.6511 12.4121 14.6206 12.4142C14.59 12.4164 14.5594 12.4118 14.5308 12.4008L12.1508 11.49C11.8953 11.3993 11.6242 11.3605 11.3535 11.3758C11.0828 11.3911 10.8179 11.4602 10.5742 11.5791L9.335 12.1791C9.30481 12.1941 9.27141 12.2015 9.23771 12.2006C9.20401 12.1998 9.17104 12.1907 9.14167 12.1741C8.89988 12.0379 8.63031 11.9583 8.3533 11.9414C8.07628 11.9246 7.79905 11.9708 7.5425 12.0766L5.92667 12.7658C5.8859 12.7831 5.8407 12.787 5.79757 12.777C5.75444 12.7669 5.71561 12.7435 5.68667 12.71C5.55013 12.551 5.38084 12.4234 5.19041 12.336C4.99997 12.2485 4.79289 12.2033 4.58333 12.2033H2.5C2.33424 12.2033 2.17527 12.2691 2.05806 12.3863C1.94085 12.5036 1.875 12.6625 1.875 12.8283V18.6616C1.875 18.8274 1.94085 18.9864 2.05806 19.1036C2.17527 19.2208 2.33424 19.2866 2.5 19.2866H4.58333C4.83923 19.2865 5.09058 19.219 5.31218 19.091C5.53377 18.963 5.71781 18.779 5.84583 18.5575C5.86415 18.5259 5.89039 18.4997 5.92197 18.4814C5.95355 18.4631 5.98935 18.4534 6.02583 18.4533H6.29333C6.34007 18.4534 6.38547 18.4689 6.4225 18.4975L8.10167 19.8183C8.31052 20.0297 8.59082 20.1554 8.8876 20.1709C9.18437 20.1863 9.4762 20.0903 9.70583 19.9016L11.545 18.3933C11.5717 18.3718 11.6031 18.3569 11.6367 18.35L13.7375 17.9333C13.7915 17.9211 13.8481 17.9307 13.895 17.96ZM11.6167 16.7216L8.99 18.94C8.99 18.94 8.90667 18.865 6.96833 17.3375C6.85825 17.2504 6.72199 17.2031 6.58167 17.2033H6.25C6.19475 17.2033 6.14176 17.1813 6.10269 17.1423C6.06362 17.1032 6.04167 17.0502 6.04167 16.995V14.2125C6.04156 14.1716 6.05352 14.1316 6.07605 14.0975C6.09859 14.0634 6.13069 14.0367 6.16833 14.0208L8.01917 13.2325C8.03929 13.2246 8.06119 13.2223 8.08249 13.226C8.10379 13.2297 8.12368 13.2391 8.14 13.2533C8.15631 13.2676 8.1683 13.2862 8.17463 13.3069C8.18096 13.3277 8.18138 13.3498 8.17583 13.3708C8.10113 13.6623 8.10864 13.9689 8.19754 14.2564C8.28643 14.5439 8.45323 14.8012 8.67945 14.9997C8.90566 15.1982 9.18243 15.3302 9.47908 15.381C9.77572 15.4318 10.0806 15.3994 10.36 15.2875L10.4067 15.2675C10.4464 15.2515 10.49 15.2481 10.5317 15.2576C10.5734 15.2672 10.6112 15.2892 10.64 15.3208L11.64 16.4183C11.6775 16.4606 11.6967 16.516 11.6933 16.5725C11.6915 16.6013 11.6837 16.6294 11.6705 16.655C11.6573 16.6807 11.639 16.7034 11.6167 16.7216ZM13.1317 16.7008C13.1074 16.6825 13.0874 16.6592 13.0731 16.6324C13.0587 16.6056 13.0502 16.5761 13.0483 16.5458C13.0344 16.2794 12.9374 16.0241 12.7708 15.8158L11.1692 14.0516C11.0824 13.9569 10.9689 13.8909 10.8436 13.8625C10.7184 13.834 10.5875 13.8445 10.4683 13.8925L9.885 14.1316C9.83916 14.15 9.79014 14.1592 9.74075 14.1586C9.69136 14.158 9.64257 14.1476 9.5972 14.1281C9.55182 14.1086 9.51075 14.0803 9.47633 14.0449C9.44192 14.0094 9.41485 13.9675 9.39667 13.9216C9.3025 13.6808 9.4225 13.5808 9.575 13.45L11.1217 12.7C11.3056 12.6119 11.5164 12.5985 11.71 12.6625L13.8217 13.47C13.8604 13.4848 13.8938 13.5111 13.9173 13.5453C13.9408 13.5795 13.9534 13.6201 13.9533 13.6616V16.4391C13.9533 16.4871 13.9368 16.5337 13.9064 16.5709C13.876 16.6081 13.8337 16.6337 13.7867 16.6433L13.2967 16.7408C13.2679 16.7462 13.2383 16.7455 13.2098 16.7386C13.1814 16.7317 13.1547 16.7188 13.1317 16.7008ZM9.58333 5.53662C9.74909 5.53662 9.90806 5.47077 10.0253 5.35356C10.1425 5.23635 10.2083 5.07738 10.2083 4.91162C10.2083 4.74586 10.1425 4.58689 10.0253 4.46968C9.90806 4.35247 9.74909 4.28662 9.58333 4.28662H7.08333C6.91757 4.28662 6.7586 4.35247 6.64139 4.46968C6.52418 4.58689 6.45833 4.74586 6.45833 4.91162C6.45833 5.07738 6.52418 5.23635 6.64139 5.35356C6.7586 5.47077 6.91757 5.53662 7.08333 5.53662H9.58333ZM7.09167 8.86995H13.3417C13.5074 8.86995 13.6664 8.80411 13.7836 8.6869C13.9008 8.56969 13.9667 8.41071 13.9667 8.24495C13.9667 8.07919 13.9008 7.92022 13.7836 7.80301C13.6664 7.6858 13.5074 7.61995 13.3417 7.61995H7.09167C6.92591 7.61995 6.76694 7.6858 6.64972 7.80301C6.53251 7.92022 6.46667 8.07919 6.46667 8.24495C6.46667 8.41071 6.53251 8.56969 6.64972 8.6869C6.76694 8.80411 6.92591 8.86995 7.09167 8.86995Z" fill="url(#paint0_linear)"/>
</g>
<defs>
<linearGradient id="paint0_linear" x1="10" y1="4.28662" x2="10" y2="20.1725" gradientUnits="userSpaceOnUse">
<stop stop-color="#2257E2"/>
<stop offset="1" stop-color="#5AA6FF"/>
</linearGradient>
<clipPath id="clip0">
<rect width="20" height="20" fill="white" transform="translate(0 0.25)"/>
</clipPath>
</defs>
</svg>
