<svg width="16" height="16" viewBox="0 0 16 16" fill="none" xmlns="http://www.w3.org/2000/svg">
<g clip-path="url(#clip0)">
<path d="M4.66667 1.33333H11.0573C11.2341 1.33337 11.4037 1.40363 11.5287 1.52867L13.138 3.138C13.263 3.26299 13.3333 3.43254 13.3333 3.60933V12.6667C13.3333 12.8435 13.2631 13.013 13.1381 13.1381C13.013 13.2631 12.8435 13.3333 12.6667 13.3333H4.66667C4.48986 13.3333 4.32029 13.2631 4.19526 13.1381C4.07024 13.013 4 12.8435 4 12.6667V2C4 1.82319 4.07024 1.65362 4.19526 1.52859C4.32029 1.40357 4.48986 1.33333 4.66667 1.33333Z" stroke="#2266E2" stroke-linecap="round" stroke-linejoin="round"/>
<path d="M10.3327 15.6667H2.33268C2.15587 15.6667 1.9863 15.5964 1.86128 15.4714C1.73625 15.3464 1.66602 15.1768 1.66602 15V4.33334" stroke="#2266E2" stroke-linecap="round" stroke-linejoin="round"/>
</g>
<defs>
<clipPath id="clip0">
<rect width="16" height="16" fill="white"/>
</clipPath>
</defs>
</svg>
