<svg width="50" height="52" viewBox="0 0 50 52" fill="none" xmlns="http://www.w3.org/2000/svg">
<g filter="url(#filter0_d_14465_34)">
<path d="M22.2375 0.4375C25.1697 0.4375 27.7989 1.65086 29.7198 3.52135C31.6411 5.44262 32.8036 8.07146 32.8036 11.0036C32.8036 13.9358 31.6407 16.565 29.7198 18.4859C28.8602 19.3455 27.8493 20.0531 26.6864 20.6093C28.0514 20.9631 29.366 21.5193 30.5794 22.1765C31.1356 22.4798 31.3377 23.1877 31.0344 23.7436C30.731 24.2998 30.0231 24.502 29.4672 24.1986C28.3551 23.5919 27.1922 23.1369 25.9284 22.8336C24.715 22.5302 23.4512 22.3786 22.1871 22.3786C18.0415 22.3786 14.3002 24.0469 11.5199 26.8275C8.78979 29.5575 7.07098 33.2988 7.07098 37.4444V39.5173C7.07098 39.9219 7.22265 40.2757 7.47555 40.5286C7.72845 40.7815 8.13267 40.9331 8.58768 40.9331H26.5351C27.1922 40.9331 27.698 41.4386 27.698 42.0961C27.698 42.7532 27.1925 43.259 26.5351 43.259H8.63795C7.57626 43.259 6.61579 42.8544 5.95833 42.1469C5.25041 41.4897 4.84619 40.5289 4.84619 39.4672V37.3943C4.84619 32.6421 6.81791 28.2438 9.95254 25.109C12.0759 22.9856 14.7556 21.3677 17.7382 20.6093C16.626 20.1039 15.6148 19.3455 14.7552 18.4859C12.8339 16.5647 11.6714 13.9358 11.6714 11.0036C11.6714 8.07146 12.8343 5.44228 14.7552 3.52135C16.6765 1.60042 19.305 0.4375 22.2375 0.4375ZM23.9563 36.4848H33.4101C34.0673 36.4848 34.5731 36.9902 34.5731 37.6477V39.9228L42.2578 33.603L34.5731 27.2329V29.5584C34.5731 30.1651 34.0676 30.7213 33.4101 30.7213H23.9563V36.4848ZM32.2982 38.8103H22.7932C22.1865 38.8103 21.6303 38.3048 21.6303 37.6474L21.6306 29.5584C21.6306 28.9013 22.1361 28.3955 22.7936 28.3955H32.2474V24.8058C32.2474 24.5529 32.3486 24.3004 32.5003 24.0475C32.9049 23.542 33.6632 23.4912 34.1182 23.8958L44.7351 32.6424C44.7856 32.6929 44.8364 32.7436 44.8868 32.7941C45.2914 33.2995 45.2406 34.0074 44.7351 34.412L34.2188 43.2592C34.0166 43.4613 33.7133 43.5625 33.41 43.5625C32.8033 43.5625 32.247 43.0571 32.247 42.3996V38.8103H32.2982ZM28.0514 5.13945C26.5851 3.67319 24.5126 2.71273 22.2375 2.71273C19.9624 2.71273 17.8895 3.62275 16.4236 5.13945C14.9573 6.60572 13.9969 8.67831 13.9969 10.9534C13.9969 13.2284 14.9069 15.3014 16.4236 16.7673C17.8898 18.2335 19.9624 19.194 22.2375 19.194C24.5126 19.194 26.5855 18.284 28.0514 16.7673C29.5177 15.301 30.4781 13.2284 30.4781 10.9534C30.4781 8.67831 29.5177 6.65616 28.0514 5.13945Z" fill="#5ABAFF"/>
<path d="M23.9563 36.4848H33.4101C34.0673 36.4848 34.5731 36.9902 34.5731 37.6477V39.9228L42.2578 33.603L34.5731 27.2329V29.5584C34.5731 30.1651 34.0676 30.7213 33.4101 30.7213H23.9563V36.4848Z" fill="#5ABAFF"/>
<path d="M28.0514 5.13945C26.5851 3.67319 24.5126 2.71273 22.2375 2.71273C19.9624 2.71273 17.8895 3.62275 16.4236 5.13945C14.9573 6.60572 13.9969 8.67831 13.9969 10.9534C13.9969 13.2284 14.9069 15.3014 16.4236 16.7673C17.8898 18.2335 19.9624 19.194 22.2375 19.194C24.5126 19.194 26.5855 18.284 28.0514 16.7673C29.5177 15.301 30.4781 13.2284 30.4781 10.9534C30.4781 8.67831 29.5177 6.65616 28.0514 5.13945Z" fill="#5ABAFF"/>
</g>
<defs>
<filter id="filter0_d_14465_34" x="0.846191" y="0.4375" width="48.3101" height="51.125" filterUnits="userSpaceOnUse" color-interpolation-filters="sRGB">
<feFlood flood-opacity="0" result="BackgroundImageFix"/>
<feColorMatrix in="SourceAlpha" type="matrix" values="0 0 0 0 0 0 0 0 0 0 0 0 0 0 0 0 0 0 127 0" result="hardAlpha"/>
<feOffset dy="4"/>
<feGaussianBlur stdDeviation="2"/>
<feColorMatrix type="matrix" values="0 0 0 0 0 0 0 0 0 0 0 0 0 0 0 0 0 0 0.05 0"/>
<feBlend mode="normal" in2="BackgroundImageFix" result="effect1_dropShadow_14465_34"/>
<feBlend mode="normal" in="SourceGraphic" in2="effect1_dropShadow_14465_34" result="shape"/>
</filter>
</defs>
</svg>
