<svg width="46" height="46" viewBox="0 0 46 46" fill="none" xmlns="http://www.w3.org/2000/svg">
<path d="M45.7071 22.5771C45.6405 16.5916 43.2224 10.8725 38.9751 6.65458C36.8725 4.56846 34.3712 2.92739 31.6204 1.82934C28.8696 0.73129 25.9257 0.198772 22.9646 0.263579C16.8969 0.363296 11.1121 2.84672 6.86058 7.17708C4.73407 9.29624 3.05655 11.8223 1.92823 14.6044C0.799918 17.3864 0.243961 20.3673 0.293579 23.3691C0.290317 26.302 0.865865 29.2067 1.98724 31.9168C3.10861 34.6269 4.75377 37.089 6.82842 39.1622C8.90307 41.2353 11.3664 42.8786 14.0774 43.998C16.7883 45.1174 19.6934 45.6908 22.6263 45.6853H23.0361C29.1045 45.62 34.8992 43.1505 39.1492 38.8185C43.3993 34.4864 45.7577 28.6456 45.7071 22.5771ZM20.2503 11.9676C20.2503 11.2382 20.5401 10.5388 21.0558 10.023C21.5715 9.50731 22.271 9.21758 23.0003 9.21758C23.7297 9.21758 24.4291 9.50731 24.9449 10.023C25.4606 10.5388 25.7503 11.2382 25.7503 11.9676V24.3426C25.7503 25.0719 25.4606 25.7714 24.9449 26.2871C24.4291 26.8028 23.7297 27.0926 23.0003 27.0926C22.271 27.0926 21.5715 26.8028 21.0558 26.2871C20.5401 25.7714 20.2503 25.0719 20.2503 24.3426V11.9676ZM23.0608 36.7808H23.0003C22.0886 36.7885 21.2113 36.4337 20.5612 35.7944C19.9111 35.1552 19.5416 34.2839 19.534 33.3722C19.5263 32.4605 19.8811 31.5831 20.5204 30.9331C21.1596 30.283 22.0309 29.9135 22.9426 29.9058H23.0003C23.912 29.8985 24.7892 30.2537 25.4391 30.8932C26.0889 31.5327 26.458 32.4041 26.4653 33.3158C26.4726 34.2275 26.1175 35.1047 25.478 35.7546C24.8385 36.4044 23.967 36.7735 23.0553 36.7808H23.0608Z" fill="#FE6955"/>
</svg>
