<svg width="10" height="10" viewBox="0 0 10 10" fill="none" xmlns="http://www.w3.org/2000/svg">
<path d="M7.03337 8.5H2.95003C2.79532 8.5 2.64695 8.43854 2.53755 8.32914C2.42816 8.21975 2.3667 8.07137 2.3667 7.91666V2.66666H7.6167V7.91666C7.6167 8.07137 7.55524 8.21975 7.44584 8.32914C7.33645 8.43854 7.18808 8.5 7.03337 8.5Z" stroke="#5ABAFF" stroke-width="0.65" stroke-linecap="round" stroke-linejoin="round"/>
<path d="M4.1167 6.75V4.41667" stroke="#5ABAFF" stroke-width="0.65" stroke-linecap="round" stroke-linejoin="round"/>
<path d="M5.8667 6.75V4.41667" stroke="#5ABAFF" stroke-width="0.65" stroke-linecap="round" stroke-linejoin="round"/>
<path d="M1.20001 2.66666H8.78335" stroke="#5ABAFF" stroke-width="0.65" stroke-linecap="round" stroke-linejoin="round"/>
<path d="M5.86666 1.5H4.11666C3.96195 1.5 3.81358 1.56146 3.70418 1.67085C3.59478 1.78025 3.53333 1.92862 3.53333 2.08333V2.66667H6.44999V2.08333C6.44999 1.92862 6.38853 1.78025 6.27914 1.67085C6.16974 1.56146 6.02137 1.5 5.86666 1.5Z" stroke="#5ABAFF" stroke-width="0.65" stroke-linecap="round" stroke-linejoin="round"/>
</svg>
