<svg width="20" height="20" viewBox="0 0 20 20" fill="none" xmlns="http://www.w3.org/2000/svg">
<path d="M14.0667 16.9999H5.90007C5.59065 16.9999 5.2939 16.877 5.07511 16.6582C4.85631 16.4394 4.7334 16.1427 4.7334 15.8333V5.33325H15.2334V15.8333C15.2334 16.1427 15.1105 16.4394 14.8917 16.6582C14.6729 16.877 14.3762 16.9999 14.0667 16.9999Z" stroke="#2266E2" stroke-width="1.3" stroke-linecap="round" stroke-linejoin="round"/>
<path d="M8.2334 13.4999V8.83325" stroke="#2266E2" stroke-width="1.3" stroke-linecap="round" stroke-linejoin="round"/>
<path d="M11.7334 13.4999V8.83325" stroke="#2266E2" stroke-width="1.3" stroke-linecap="round" stroke-linejoin="round"/>
<path d="M2.40039 5.33325H17.5671" stroke="#2266E2" stroke-width="1.3" stroke-linecap="round" stroke-linejoin="round"/>
<path d="M11.7331 3H8.23307C7.92365 3 7.62691 3.12292 7.40811 3.34171C7.18932 3.5605 7.06641 3.85725 7.06641 4.16667V5.33333H12.8997V4.16667C12.8997 3.85725 12.7768 3.5605 12.558 3.34171C12.3392 3.12292 12.0425 3 11.7331 3Z" stroke="#2266E2" stroke-width="1.3" stroke-linecap="round" stroke-linejoin="round"/>
</svg>
