<svg width="20" height="20" viewBox="0 0 20 20" fill="none" xmlns="http://www.w3.org/2000/svg">
<path d="M14.0667 16.9999H5.90007C5.59065 16.9999 5.2939 16.877 5.07511 16.6582C4.85631 16.4394 4.7334 16.1427 4.7334 15.8333V5.33325H15.2334V15.8333C15.2334 16.1427 15.1105 16.4394 14.8917 16.6582C14.6729 16.877 14.3762 16.9999 14.0667 16.9999Z" stroke="#717171" stroke-width="1.3" stroke-linecap="round" stroke-linejoin="round"/>
<path d="M8.2334 13.4999V8.83325" stroke="#717171" stroke-width="1.3" stroke-linecap="round" stroke-linejoin="round"/>
<path d="M11.7334 13.4999V8.83325" stroke="#717171" stroke-width="1.3" stroke-linecap="round" stroke-linejoin="round"/>
<path d="M2.3999 5.33325H17.5666" stroke="#717171" stroke-width="1.3" stroke-linecap="round" stroke-linejoin="round"/>
<path d="M11.7333 3H8.23332C7.9239 3 7.62715 3.12292 7.40836 3.34171C7.18957 3.5605 7.06665 3.85725 7.06665 4.16667V5.33333H12.9V4.16667C12.9 3.85725 12.7771 3.5605 12.5583 3.34171C12.3395 3.12292 12.0427 3 11.7333 3Z" stroke="#717171" stroke-width="1.3" stroke-linecap="round" stroke-linejoin="round"/>
</svg>
