<svg width="18" height="20" viewBox="0 0 18 20" fill="none" xmlns="http://www.w3.org/2000/svg">
<path d="M4.00008 17.0831C3.55805 17.0831 3.13413 16.9075 2.82157 16.5949C2.50901 16.2824 2.33341 15.8585 2.33341 15.4164V4.5831C2.33341 4.14108 2.50901 3.71715 2.82157 3.40459C3.13413 3.09203 3.55805 2.91644 4.00008 2.91644H8.37508C8.48559 2.91644 8.59157 2.96033 8.66971 3.03847C8.74785 3.11662 8.79175 3.2226 8.79175 3.3331V3.74977C8.79176 3.83222 8.81624 3.91281 8.86207 3.98135C8.90791 4.04988 8.97305 4.10327 9.04925 4.13477C9.09979 4.15541 9.15382 4.16616 9.20842 4.16644C9.26317 4.16653 9.31741 4.15584 9.36802 4.13496C9.41864 4.11409 9.46465 4.08344 9.50342 4.04477L11.1701 2.3781C11.2089 2.3394 11.2397 2.29342 11.2607 2.2428C11.2817 2.19218 11.2925 2.13791 11.2925 2.0831C11.2925 2.0283 11.2817 1.97403 11.2607 1.92341C11.2397 1.87279 11.2089 1.82681 11.1701 1.7881L9.50342 0.121436C9.44514 0.0630134 9.37083 0.0232096 9.28991 0.00707065C9.20898 -0.00906834 9.12509 -0.000815751 9.04886 0.0307822C8.97263 0.0623801 8.90751 0.1159 8.86173 0.184558C8.81596 0.253216 8.7916 0.333919 8.79175 0.416436V0.833102C8.79175 0.943609 8.74785 1.04959 8.66971 1.12773C8.59157 1.20587 8.48559 1.24977 8.37508 1.24977H4.00008C3.11603 1.24977 2.26818 1.60096 1.64306 2.22608C1.01794 2.8512 0.666748 3.69905 0.666748 4.5831V15.4164C0.666748 16.3005 1.01794 17.1483 1.64306 17.7735C2.26818 18.3986 3.11603 18.7498 4.00008 18.7498C4.2211 18.7498 4.43306 18.662 4.58934 18.5057C4.74562 18.3494 4.83342 18.1374 4.83342 17.9164C4.83342 17.6954 4.74562 17.4835 4.58934 17.3272C4.43306 17.1709 4.2211 17.0831 4.00008 17.0831ZM14.0001 1.24977C13.7791 1.24977 13.5671 1.33757 13.4108 1.49385C13.2545 1.65013 13.1667 1.86209 13.1667 2.0831C13.1667 2.30412 13.2545 2.51608 13.4108 2.67236C13.5671 2.82864 13.7791 2.91644 14.0001 2.91644C14.4421 2.91644 14.866 3.09203 15.1786 3.40459C15.4912 3.71715 15.6667 4.14108 15.6667 4.5831V15.4164C15.6667 15.8585 15.4912 16.2824 15.1786 16.5949C14.866 16.9075 14.4421 17.0831 14.0001 17.0831H9.62508C9.51458 17.0831 9.40859 17.0392 9.33045 16.9611C9.25231 16.8829 9.20842 16.7769 9.20842 16.6664V16.2498C9.2084 16.1673 9.18393 16.0867 9.13809 16.0182C9.09225 15.9497 9.02711 15.8963 8.95092 15.8648C8.90037 15.8441 8.84634 15.8334 8.79175 15.8331C8.73699 15.833 8.68276 15.8437 8.63214 15.8646C8.58152 15.8855 8.53551 15.9161 8.49675 15.9548L6.83008 17.6214C6.79128 17.6601 6.76049 17.7061 6.73949 17.7567C6.71848 17.8074 6.70767 17.8616 6.70767 17.9164C6.70767 17.9712 6.71848 18.0255 6.73949 18.0761C6.76049 18.1268 6.79128 18.1727 6.83008 18.2114L8.49675 19.8781C8.55502 19.9365 8.62933 19.9763 8.71026 19.9925C8.79118 20.0086 8.87507 20.0004 8.9513 19.9688C9.02753 19.9372 9.09266 19.8836 9.13843 19.815C9.18421 19.7463 9.20856 19.6656 9.20842 19.5831V19.1664C9.20842 19.0559 9.25231 18.9499 9.33045 18.8718C9.40859 18.7937 9.51458 18.7498 9.62508 18.7498H14.0001C14.8841 18.7498 15.732 18.3986 16.3571 17.7735C16.9822 17.1483 17.3334 16.3005 17.3334 15.4164V4.5831C17.3334 3.69905 16.9822 2.8512 16.3571 2.22608C15.732 1.60096 14.8841 1.24977 14.0001 1.24977Z" fill="#DDDDDD"/>
<path d="M8.99992 5.83301C8.17583 5.83301 7.37025 6.07738 6.68504 6.53522C5.99984 6.99306 5.46579 7.6438 5.15042 8.40516C4.83506 9.16652 4.75254 10.0043 4.91332 10.8125C5.07409 11.6208 5.47092 12.3632 6.05364 12.946C6.63636 13.5287 7.37879 13.9255 8.18704 14.0863C8.9953 14.247 9.83307 14.1645 10.5944 13.8492C11.3558 13.5338 12.0065 12.9998 12.4644 12.3145C12.9222 11.6293 13.1666 10.8238 13.1666 9.99967C13.1666 8.89461 12.7276 7.8348 11.9462 7.0534C11.1648 6.27199 10.105 5.83301 8.99992 5.83301V5.83301ZM9.50825 12.2868C9.48761 12.2899 9.46875 12.3003 9.45512 12.3161C9.44148 12.3319 9.43397 12.3521 9.43395 12.3729V12.6386C9.43395 12.7537 9.38822 12.8641 9.30682 12.9455C9.22543 13.0269 9.11503 13.0726 8.99992 13.0726C8.88481 13.0726 8.77441 13.0269 8.69302 12.9455C8.61162 12.8641 8.56589 12.7537 8.56589 12.6386V12.3938C8.56594 12.3824 8.56372 12.371 8.55938 12.3605C8.55503 12.3499 8.54864 12.3404 8.54057 12.3323C8.5325 12.3242 8.52291 12.3178 8.51236 12.3135C8.50181 12.3091 8.4905 12.3069 8.47909 12.307H8.08082C7.96571 12.307 7.85531 12.2612 7.77392 12.1798C7.69252 12.0984 7.64679 11.988 7.64679 11.8729C7.64679 11.7578 7.69252 11.6474 7.77392 11.566C7.85531 11.4846 7.96571 11.4389 8.08082 11.4389H9.32666C9.41686 11.4389 9.50424 11.4074 9.57379 11.35C9.64333 11.2925 9.6907 11.2127 9.70775 11.1241C9.7248 11.0355 9.71047 10.9438 9.66722 10.8646C9.62397 10.7854 9.5545 10.7238 9.47075 10.6903L8.20686 10.1844C7.95028 10.0826 7.73453 9.89893 7.59317 9.66186C7.45182 9.42478 7.39278 9.14762 7.42527 8.87352C7.45775 8.59942 7.57992 8.34373 7.77277 8.14626C7.96562 7.94878 8.21833 7.82059 8.49159 7.78162C8.5122 7.77862 8.53105 7.7683 8.54469 7.75256C8.55833 7.73681 8.56586 7.71669 8.56589 7.69585V7.43023C8.56589 7.31512 8.61162 7.20472 8.69302 7.12333C8.77441 7.04193 8.88481 6.9962 8.99992 6.9962C9.11503 6.9962 9.22543 7.04193 9.30682 7.12333C9.38822 7.20472 9.43395 7.31512 9.43395 7.43023V7.67537C9.43395 7.69839 9.44309 7.72047 9.45937 7.73675C9.47565 7.75303 9.49773 7.76217 9.52075 7.76217H9.91902C10.0341 7.76217 10.1445 7.8079 10.2259 7.8893C10.3073 7.97069 10.353 8.08109 10.353 8.1962C10.353 8.31131 10.3073 8.42171 10.2259 8.50311C10.1445 8.5845 10.0341 8.63023 9.91902 8.63023H8.67318C8.5829 8.63004 8.49538 8.66134 8.42571 8.71875C8.35604 8.77616 8.30857 8.85608 8.2915 8.94473C8.27443 9.03338 8.28882 9.12521 8.33219 9.20439C8.37556 9.28357 8.44519 9.34515 8.52909 9.37849L9.79297 9.8844C10.0496 9.98615 10.2653 10.1699 10.4067 10.4069C10.548 10.644 10.6071 10.9212 10.5746 11.1953C10.5421 11.4694 10.4199 11.7251 10.2271 11.9225C10.0342 12.12 9.78151 12.2482 9.50825 12.2872V12.2868Z" fill="#DDDDDD"/>
</svg>
