<svg width="14" height="9" viewBox="0 0 14 9" fill="none" xmlns="http://www.w3.org/2000/svg">
<path d="M13.5586 0.973301C13.5406 0.966237 13.521 0.964409 13.502 0.96803C13.4831 0.971651 13.4655 0.980572 13.4514 0.993761L7.57651 6.14971C7.27582 6.4181 6.88809 6.56849 6.48507 6.57302C6.30358 6.57777 6.12329 6.54227 5.95715 6.46908C5.79101 6.39589 5.64314 6.28682 5.52415 6.14971L1.1993 0.990939C1.18687 0.977208 1.17037 0.967815 1.15222 0.964134C1.13407 0.960452 1.11521 0.962676 1.09841 0.970479C1.08028 0.978203 1.06435 0.990301 1.05204 1.00569C1.03972 1.02108 1.03142 1.03928 1.02786 1.05867L0.0189684 7.40836C-0.00853174 7.53864 -0.00610181 7.67346 0.0260752 7.80266C0.0582522 7.93187 0.119337 8.05209 0.204726 8.15425C0.290114 8.25642 0.397579 8.33787 0.519021 8.39247C0.640463 8.44707 0.772714 8.4734 0.905808 8.46946H11.4653C11.7585 8.46017 12.0394 8.34969 12.2604 8.15678C12.4813 7.96387 12.6287 7.70042 12.6774 7.41118L13.6052 1.06149C13.6083 1.04371 13.6055 1.02537 13.597 1.0094C13.5886 0.993422 13.5751 0.980719 13.5586 0.973301Z" fill="#5ABAFF"/>
<path d="M6.16943 5.58891C6.23049 5.65047 6.30313 5.69933 6.38317 5.73268C6.46321 5.76603 6.54907 5.78319 6.63577 5.78319C6.72248 5.78319 6.80833 5.76603 6.88837 5.73268C6.96842 5.69933 7.04106 5.65047 7.10212 5.58891L12.9403 0.464006C12.9786 0.431171 13.0078 0.389137 13.0254 0.341863C13.0429 0.29459 13.0481 0.243633 13.0405 0.193792C13.0031 -0.00939831 12.7745 0.00330107 12.7061 0.00330107H2.24179C2.16495 -0.00666705 2.08688 0.00605557 2.01718 0.0399021C1.94748 0.0737485 1.8892 0.127241 1.84952 0.193792C1.82665 0.236049 1.81642 0.283993 1.82005 0.331905C1.82368 0.379816 1.84101 0.425673 1.86998 0.464006L6.16943 5.58891Z" fill="#5ABAFF"/>
</svg>
