<svg width="45" height="45" viewBox="0 0 45 45" fill="none" xmlns="http://www.w3.org/2000/svg">
<path d="M4.31413 45H40.6859C41.8305 44.9987 42.9278 44.5504 43.7367 43.7535C44.5456 42.9565 45 41.8762 45 40.7498V18.0212C44.9998 17.846 44.9608 17.673 44.8856 17.5142C44.8104 17.3554 44.7009 17.2146 44.5647 17.1018L38.5435 12.0959V3.36934C38.5435 2.47574 38.1827 1.61873 37.5406 0.986858C36.8985 0.354983 36.0276 0 35.1196 0H10.1201C9.21203 0 8.34115 0.354983 7.69904 0.986858C7.05693 1.61873 6.6962 2.47574 6.6962 3.36934V11.913L0.435326 17.1018C0.299133 17.2146 0.189616 17.3554 0.114425 17.5142C0.0392336 17.673 0.00018264 17.846 0 18.0212V40.7498C-7.34028e-07 41.8762 0.454366 42.9565 1.26328 43.7535C2.0722 44.5504 3.1695 44.9987 4.31413 45ZM40.681 42.5933H4.31413C3.81813 42.5921 3.34289 42.3973 2.99262 42.0517C2.64235 41.7061 2.44565 41.2379 2.44565 40.7498V20.3171L16.3859 30.0209L6.49076 37.4719C6.23131 37.6634 6.05979 37.9485 6.01392 38.2644C5.96806 38.5804 6.05161 38.9013 6.2462 39.1566C6.44078 39.4119 6.73047 39.5807 7.05152 39.6258C7.37258 39.671 7.6987 39.5887 7.95815 39.3973L18.4793 31.4745L21.9033 33.8812C22.1099 34.0252 22.3568 34.1025 22.6101 34.1025C22.8633 34.1025 23.1102 34.0252 23.3168 33.8812L26.7408 31.4745L37.2668 39.3828C37.5263 39.5743 37.8524 39.6565 38.1735 39.6114C38.4945 39.5663 38.7842 39.3975 38.9788 39.1422C39.1734 38.8868 39.2569 38.5659 39.2111 38.25C39.1652 37.934 38.9937 37.649 38.7342 37.4575L28.8587 30.0209L42.5543 20.4904V40.7546C42.5531 41.2419 42.3558 41.7088 42.0057 42.0534C41.6555 42.3979 41.181 42.5921 40.6859 42.5933H40.681ZM41.8696 18.0164L38.5435 20.3316V15.2439L41.8696 18.0164ZM10.1201 2.41149H35.1245C35.3839 2.41149 35.6327 2.51291 35.8162 2.69345C35.9996 2.87398 36.1027 3.11884 36.1027 3.37416V22.0211L22.6223 31.4119L9.14674 22.0211V3.36934C9.14803 3.11569 9.25099 2.87279 9.43325 2.69344C9.61552 2.51408 9.86235 2.41275 10.1201 2.41149ZM6.6962 20.3316L3.23315 17.9249L6.6962 15.0369V20.3316ZM22.5 25.2316H22.813C23.1374 25.2316 23.4484 25.1048 23.6777 24.8791C23.907 24.6535 24.0359 24.3474 24.0359 24.0282C24.0359 23.7091 23.907 23.403 23.6777 23.1774C23.4484 22.9517 23.1374 22.8249 22.813 22.8249H22.5C20.958 22.8249 19.4505 22.3749 18.1684 21.5319C16.8862 20.6888 15.8869 19.4905 15.2968 18.0886C14.7066 16.6866 14.5522 15.1439 14.8531 13.6556C15.1539 12.1673 15.8965 10.8002 16.9869 9.72716C18.0773 8.65415 19.4665 7.92341 20.9789 7.62737C22.4914 7.33133 24.059 7.48327 25.4837 8.06398C26.9084 8.64469 28.126 9.62809 28.9828 10.8898C29.8395 12.1516 30.2967 13.635 30.2967 15.1524V17.2077C30.2759 17.5494 30.1233 17.8703 29.8702 18.105C29.617 18.3396 29.2823 18.4703 28.9345 18.4703C28.5867 18.4703 28.252 18.3396 27.9989 18.105C27.7457 17.8703 27.5931 17.5494 27.5723 17.2077V15.1524C27.5798 14.0192 27.1963 12.9171 26.4847 12.0261C25.773 11.1352 24.7752 10.5083 23.6544 10.2479C22.5337 9.98749 21.3563 10.109 20.3148 10.5925C19.2733 11.0761 18.4294 11.8931 17.921 12.9099C17.4126 13.9267 17.2699 15.0832 17.5161 16.1902C17.7624 17.2972 18.383 18.2893 19.2766 19.0041C20.1701 19.7189 21.2837 20.1143 22.4352 20.1255C23.5867 20.1366 24.708 19.763 25.6158 19.0657C26.0281 19.7912 26.6741 20.3612 27.4519 20.6856C28.2296 21.0101 29.095 21.0706 29.9116 20.8577C30.7282 20.6448 31.4496 20.1706 31.9622 19.5097C32.4747 18.8489 32.7492 18.039 32.7424 17.2077V15.1524C32.7424 13.159 32.1417 11.2103 31.0162 9.55275C29.8908 7.89524 28.2911 6.60337 26.4196 5.8405C24.548 5.07763 22.4886 4.87803 20.5018 5.26694C18.515 5.65584 16.69 6.61579 15.2575 8.02539C13.8251 9.43498 12.8496 11.2309 12.4544 13.1861C12.0592 15.1412 12.262 17.1678 13.0373 19.0096C13.8125 20.8513 15.1253 22.4254 16.8096 23.5329C18.494 24.6404 20.4742 25.2316 22.5 25.2316ZM22.5 17.7372C21.9805 17.7372 21.4727 17.5856 21.0407 17.3016C20.6088 17.0176 20.2721 16.6139 20.0733 16.1416C19.8745 15.6693 19.8225 15.1496 19.9238 14.6482C20.0252 14.1468 20.2754 13.6862 20.6427 13.3247C21.01 12.9632 21.4781 12.7171 21.9876 12.6173C22.4971 12.5176 23.0252 12.5688 23.5052 12.7644C23.9851 12.96 24.3953 13.2913 24.684 13.7164C24.9726 14.1415 25.1266 14.6412 25.1266 15.1524C25.1266 15.8379 24.8499 16.4954 24.3573 16.9801C23.8647 17.4649 23.1966 17.7372 22.5 17.7372Z" fill="#2266E2"/>
</svg>
