<svg width="17" height="16" viewBox="0 0 17 16" fill="none" xmlns="http://www.w3.org/2000/svg">
<path d="M16.7463 7.86096C16.7228 5.7528 15.8712 3.73844 14.3752 2.25285C13.6347 1.5181 12.7536 0.940089 11.7848 0.553341C10.8159 0.166593 9.77905 -0.0209669 8.73609 0.0018592C6.59896 0.0369807 4.56149 0.911675 3.06406 2.43688C2.31507 3.18328 1.72423 4.07299 1.32682 5.05287C0.929414 6.03274 0.733599 7.08266 0.751075 8.13991C0.749926 9.17293 0.952641 10.196 1.3476 11.1505C1.74257 12.1051 2.32201 12.9723 3.05273 13.7024C3.78345 14.4326 4.65108 15.0114 5.6059 15.4057C6.56071 15.7999 7.58395 16.0019 8.61696 16H8.76128C10.8986 15.977 12.9396 15.1072 14.4365 13.5814C15.9335 12.0556 16.7641 9.99837 16.7463 7.86096ZM7.7801 4.12416C7.7801 3.86727 7.88215 3.62091 8.06379 3.43927C8.24544 3.25762 8.4918 3.15557 8.74869 3.15557C9.00557 3.15557 9.25193 3.25762 9.43358 3.43927C9.61522 3.62091 9.71727 3.86727 9.71727 4.12416V8.48279C9.71727 8.73968 9.61522 8.98604 9.43358 9.16769C9.25193 9.34933 9.00557 9.45138 8.74869 9.45138C8.4918 9.45138 8.24544 9.34933 8.06379 9.16769C7.88215 8.98604 7.7801 8.73968 7.7801 8.48279V4.12416ZM8.76999 12.8637H8.74869C8.42758 12.8664 8.11855 12.7414 7.88959 12.5163C7.66063 12.2911 7.53048 11.9843 7.52778 11.6631C7.52509 11.342 7.65006 11.033 7.87521 10.804C8.10036 10.5751 8.40724 10.4449 8.72834 10.4422H8.74869C9.06979 10.4397 9.37877 10.5648 9.60764 10.79C9.83651 11.0152 9.96653 11.3222 9.9691 11.6433C9.97167 11.9644 9.84658 12.2734 9.62134 12.5022C9.3961 12.7311 9.08916 12.8611 8.76806 12.8637H8.76999Z" fill="#FF6767"/>
</svg>
