<svg width="40" height="40" viewBox="0 0 40 40" fill="none" xmlns="http://www.w3.org/2000/svg">
<path d="M39.2666 19.6412C39.2101 14.5627 37.1584 9.71006 33.5546 6.13125C31.7706 4.36121 29.6482 2.96879 27.3142 2.03711C24.9802 1.10543 22.4824 0.653592 19.9699 0.70858C14.8215 0.793188 9.91324 2.90034 6.30591 6.57458C4.50161 8.37266 3.07825 10.516 2.12089 12.8765C1.16353 15.237 0.691813 17.7663 0.733912 20.3132C0.731145 22.8018 1.21949 25.2664 2.17096 27.5659C3.12243 29.8653 4.51831 31.9544 6.27863 33.7134C8.03894 35.4725 10.1291 36.8668 12.4292 37.8166C14.7294 38.7663 17.1944 39.2529 19.6829 39.2482H20.0306C25.1795 39.1928 30.0962 37.0975 33.7024 33.4218C37.3085 29.7462 39.3095 24.7903 39.2666 19.6412ZM17.6669 10.6392C17.6669 10.0204 17.9127 9.42692 18.3503 8.98933C18.7879 8.55175 19.3814 8.30591 20.0002 8.30591C20.6191 8.30591 21.2126 8.55175 21.6502 8.98933C22.0877 9.42692 22.3336 10.0204 22.3336 10.6392V21.1392C22.3336 21.7581 22.0877 22.3516 21.6502 22.7892C21.2126 23.2267 20.6191 23.4726 20.0002 23.4726C19.3814 23.4726 18.7879 23.2267 18.3503 22.7892C17.9127 22.3516 17.6669 21.7581 17.6669 21.1392V10.6392ZM20.0516 31.6929H20.0002C19.2267 31.6994 18.4823 31.3984 17.9307 30.856C17.3791 30.3136 17.0656 29.5743 17.0591 28.8007C17.0526 28.0272 17.3536 27.2828 17.896 26.7312C18.4384 26.1796 19.1777 25.8661 19.9512 25.8596H20.0002C20.7738 25.8534 21.5181 26.1547 22.0695 26.6974C22.6208 27.24 22.9341 27.9794 22.9402 28.7529C22.9464 29.5265 22.6451 30.2708 22.1025 30.8221C21.5599 31.3735 20.8205 31.6867 20.0469 31.6929H20.0516Z" fill="#FE6955"/>
</svg>
