<svg width="16" height="16" viewBox="0 0 16 16" fill="none" xmlns="http://www.w3.org/2000/svg">
    <path d="M8 4.66667V8.66667" stroke="#FF6767" stroke-linecap="round" stroke-linejoin="round"/>
    <path d="M8.25 10.9167C8.25 10.983 8.22366 11.0466 8.17678 11.0934C8.12989 11.1403 8.0663 11.1667 8 11.1667M8 10.6667C8.0663 10.6667 8.12989 10.693 8.17678 10.7399C8.22366 10.7868 8.25 10.8504 8.25 10.9167L8 10.6667ZM7.75 10.9167C7.75 10.8504 7.77634 10.7868 7.82322 10.7399C7.87011 10.693 7.9337 10.6667 8 10.6667L7.75 10.9167ZM8 11.1667C7.9337 11.1667 7.87011 11.1403 7.82322 11.0934C7.77634 11.0466 7.75 10.983 7.75 10.9167L8 11.1667Z" stroke="#FF6767" stroke-linecap="round" stroke-linejoin="round"/>
    <path d="M8 13.6667C11.0376 13.6667 13.5 11.2042 13.5 8.16667C13.5 5.1291 11.0376 2.66667 8 2.66667C4.96243 2.66667 2.5 5.1291 2.5 8.16667C2.5 11.2042 4.96243 13.6667 8 13.6667Z" stroke="#FF6767" stroke-linecap="round" stroke-linejoin="round"/>
</svg>
