<svg width="43" height="43" viewBox="0 0 43 43" fill="none" xmlns="http://www.w3.org/2000/svg">
<g clip-path="url(#clip0_26054_172357)">
<path d="M30.9062 41.6562C36.8433 41.6562 41.6562 36.8433 41.6562 30.9062C41.6562 24.9692 36.8433 20.1562 30.9062 20.1562C24.9692 20.1562 20.1562 24.9692 20.1562 30.9062C20.1562 36.8433 24.9692 41.6562 30.9062 41.6562Z" stroke="#40E395" stroke-width="0.948529" stroke-linecap="round" stroke-linejoin="round"/>
<path d="M25 31.8889L28.3478 35L36 27" stroke="#40E395" stroke-width="0.95" stroke-linecap="round" stroke-linejoin="round"/>
<path d="M14.7812 36.2812H4.03125C3.31848 36.2812 2.6349 35.9981 2.1309 35.4941C1.6269 34.9901 1.34375 34.3065 1.34375 33.5937V4.03125C1.34375 3.31848 1.6269 2.6349 2.1309 2.1309C2.6349 1.6269 3.31848 1.34375 4.03125 1.34375H23.0749C23.7871 1.3439 24.4702 1.6268 24.974 2.13029L30.1197 7.27596C30.6232 7.77977 30.9061 8.46285 30.9062 9.17512V14.7812" stroke="#40E395" stroke-width="0.948529" stroke-linecap="round" stroke-linejoin="round"/>
</g>
<defs>
<clipPath id="clip0_26054_172357">
<rect width="43" height="43" fill="white"/>
</clipPath>
</defs>
</svg>
