<svg width="40" height="34" viewBox="0 0 40 34" fill="none" xmlns="http://www.w3.org/2000/svg">
<path d="M27.2609 10.5174C27.2652 10.4512 27.2559 10.3848 27.2336 10.3223C27.2112 10.2598 27.1763 10.2025 27.131 10.154C27.0856 10.1055 27.0308 10.0668 26.97 10.0403C26.9091 10.0139 26.8435 10.0001 26.7771 10H13.2251C13.1587 10 13.093 10.0137 13.0321 10.0401C12.9712 10.0666 12.9164 10.1053 12.871 10.1538C12.8256 10.2023 12.7907 10.2596 12.7684 10.3222C12.7461 10.3847 12.7369 10.4512 12.7413 10.5174C12.8551 12.1015 13.4838 13.6049 14.5315 14.7983C15.5792 15.9918 16.9885 16.8099 18.5445 17.1278V23.5151C18.5445 23.6073 18.5708 23.6975 18.6203 23.7753C18.6698 23.8531 18.7404 23.9151 18.8239 23.9542C18.9073 23.9933 19.0002 24.0078 19.0916 23.996C19.1831 23.9842 19.2692 23.9466 19.3401 23.8876L21.2805 22.2706C21.3352 22.2252 21.3792 22.1682 21.4094 22.1038C21.4396 22.0394 21.4552 21.9692 21.4551 21.8981V17.1278C23.0116 16.8105 24.4216 15.9927 25.4698 14.7991C26.5181 13.6056 27.1471 12.1019 27.2609 10.5174V10.5174Z" stroke="#717171" stroke-width="1.2" stroke-linecap="round" stroke-linejoin="round"/>
<path d="M4 1H36V-1H4V1ZM39 4V30H41V4H39ZM36 33H4V35H36V33ZM1 30V4H-1V30H1ZM4 33C2.34315 33 1 31.6569 1 30H-1C-1 32.7614 1.23858 35 4 35V33ZM39 30C39 31.6569 37.6569 33 36 33V35C38.7614 35 41 32.7614 41 30H39ZM36 1C37.6569 1 39 2.34315 39 4H41C41 1.23858 38.7614 -1 36 -1V1ZM4 -1C1.23858 -1 -1 1.23858 -1 4H1C1 2.34315 2.34315 1 4 1V-1Z" fill="#DDDDDD"/>
</svg>
