<svg width="11" height="13" viewBox="0 0 11 13" fill="none" xmlns="http://www.w3.org/2000/svg">
<path d="M6.02439 11.4146H4.12195C4.03786 11.4146 3.95721 11.448 3.89775 11.5075C3.83829 11.567 3.80488 11.6476 3.80488 11.7317C3.80488 12.0681 3.9385 12.3907 4.17635 12.6285C4.41421 12.8664 4.7368 13 5.07317 13C5.40954 13 5.73214 12.8664 5.96999 12.6285C6.20784 12.3907 6.34147 12.0681 6.34147 11.7317C6.34147 11.6476 6.30806 11.567 6.2486 11.5075C6.18913 11.448 6.10849 11.4146 6.02439 11.4146ZM9.5122 9.5122C9.34401 9.5122 9.18271 9.44538 9.06379 9.32646C8.94486 9.20753 8.87805 9.04624 8.87805 8.87805V6.02439C8.87805 3.83595 7.50386 2.01849 5.70732 1.66527V0.634146C5.70732 0.46596 5.64051 0.304663 5.52158 0.185737C5.40266 0.0668117 5.24136 0 5.07317 0C4.90499 0 4.74369 0.0668117 4.62476 0.185737C4.50584 0.304663 4.43903 0.46596 4.43903 0.634146V1.6659C2.64249 2.01912 1.26829 3.83659 1.26829 6.02439V8.87805C1.26829 9.04624 1.20148 9.20753 1.08256 9.32646C0.96363 9.44538 0.802332 9.5122 0.634146 9.5122C0.46596 9.5122 0.304663 9.57901 0.185737 9.69793C0.0668117 9.81686 0 9.97816 0 10.1463C0 10.3145 0.0668117 10.4758 0.185737 10.5948C0.304663 10.7137 0.46596 10.7805 0.634146 10.7805H9.5122C9.68038 10.7805 9.84168 10.7137 9.96061 10.5948C10.0795 10.4758 10.1463 10.3145 10.1463 10.1463C10.1463 9.97816 10.0795 9.81686 9.96061 9.69793C9.84168 9.57901 9.68038 9.5122 9.5122 9.5122Z" fill="#717171"/>
</svg>
