<svg width="16" height="16" viewBox="0 0 16 16" fill="none" xmlns="http://www.w3.org/2000/svg">
<path d="M10.1666 13.8333C10.1666 12.6367 9.19654 11.6667 7.99992 11.6667C6.8033 11.6667 5.83325 12.6367 5.83325 13.8333C5.83325 15.03 6.8033 16 7.99992 16C9.19654 16 10.1666 15.03 10.1666 13.8333Z" fill="#DDDDDD"/>
<path d="M10.1666 8C10.1666 6.80338 9.19654 5.83333 7.99992 5.83333C6.8033 5.83333 5.83325 6.80338 5.83325 8C5.83325 9.19662 6.8033 10.1667 7.99992 10.1667C9.19654 10.1667 10.1666 9.19662 10.1666 8Z" fill="#DDDDDD"/>
<path d="M10.1666 2.16667C10.1666 0.970049 9.19654 -9.53674e-07 7.99992 -9.53674e-07C6.8033 -9.53674e-07 5.83325 0.970049 5.83325 2.16667C5.83325 3.36328 6.8033 4.33333 7.99992 4.33333C9.19654 4.33333 10.1666 3.36328 10.1666 2.16667Z" fill="#DDDDDD"/>
</svg>
