<svg width="16" height="16" viewBox="0 0 16 16" fill="none" xmlns="http://www.w3.org/2000/svg">
<path d="M15.9963 7.86096C15.9728 5.7528 15.1212 3.73844 13.6252 2.25285C12.8847 1.5181 12.0036 0.940089 11.0348 0.553341C10.0659 0.166593 9.02905 -0.0209669 7.98609 0.0018592C5.84896 0.0369807 3.81149 0.911675 2.31406 2.43688C1.56507 3.18328 0.974229 4.07299 0.576822 5.05287C0.179414 6.03274 -0.0164011 7.08266 0.00107471 8.13991C-7.40042e-05 9.17293 0.202641 10.196 0.597603 11.1505C0.992566 12.1051 1.57201 12.9723 2.30273 13.7024C3.03345 14.4326 3.90108 15.0114 4.8559 15.4057C5.81071 15.7999 6.83395 16.0019 7.86696 16H8.01128C10.1486 15.977 12.1896 15.1072 13.6865 13.5814C15.1835 12.0556 16.0141 9.99837 15.9963 7.86096ZM7.0301 4.12416C7.0301 3.86727 7.13215 3.62091 7.31379 3.43927C7.49544 3.25762 7.7418 3.15557 7.99869 3.15557C8.25557 3.15557 8.50193 3.25762 8.68358 3.43927C8.86522 3.62091 8.96727 3.86727 8.96727 4.12416V8.48279C8.96727 8.73968 8.86522 8.98604 8.68358 9.16769C8.50193 9.34933 8.25557 9.45138 7.99869 9.45138C7.7418 9.45138 7.49544 9.34933 7.31379 9.16769C7.13215 8.98604 7.0301 8.73968 7.0301 8.48279V4.12416ZM8.01999 12.8637H7.99869C7.67758 12.8664 7.36855 12.7414 7.13959 12.5163C6.91063 12.2911 6.78048 11.9843 6.77778 11.6631C6.77509 11.342 6.90006 11.033 7.12521 10.804C7.35036 10.5751 7.65724 10.4449 7.97834 10.4422H7.99869C8.31979 10.4397 8.62877 10.5648 8.85764 10.79C9.08651 11.0152 9.21653 11.3222 9.2191 11.6433C9.22167 11.9644 9.09658 12.2734 8.87134 12.5022C8.6461 12.7311 8.33916 12.8611 8.01806 12.8637H8.01999Z" fill="#FFB169"/>
</svg>
