<svg width="20" height="20" viewBox="0 0 20 20" fill="none" xmlns="http://www.w3.org/2000/svg">
<g opacity="0.5">
<path d="M16.0667 3H8.59999C8.08452 3 7.66666 3.41787 7.66666 3.93333V4.86667C7.66666 5.38213 8.08452 5.8 8.59999 5.8H16.0667C16.5821 5.8 17 5.38213 17 4.86667V3.93333C17 3.41787 16.5821 3 16.0667 3Z" stroke="#717171" stroke-width="1.2" stroke-linecap="round" stroke-linejoin="round"/>
<path d="M16.0667 8.59998H8.59999C8.08452 8.59998 7.66666 9.01784 7.66666 9.53331V10.4666C7.66666 10.9821 8.08452 11.4 8.59999 11.4H16.0667C16.5821 11.4 17 10.9821 17 10.4666V9.53331C17 9.01784 16.5821 8.59998 16.0667 8.59998Z" stroke="#717171" stroke-width="1.2" stroke-linecap="round" stroke-linejoin="round"/>
<path d="M16.0667 14.2H8.59999C8.08452 14.2 7.66666 14.6179 7.66666 15.1333V16.0667C7.66666 16.5821 8.08452 17 8.59999 17H16.0667C16.5821 17 17 16.5821 17 16.0667V15.1333C17 14.6179 16.5821 14.2 16.0667 14.2Z" stroke="#717171" stroke-width="1.2" stroke-linecap="round" stroke-linejoin="round"/>
<path d="M4.86667 3H3.93333C3.41787 3 3 3.41787 3 3.93333V4.86667C3 5.38213 3.41787 5.8 3.93333 5.8H4.86667C5.38213 5.8 5.8 5.38213 5.8 4.86667V3.93333C5.8 3.41787 5.38213 3 4.86667 3Z" stroke="#717171" stroke-width="1.2" stroke-linecap="round" stroke-linejoin="round"/>
<path d="M4.86667 8.59998H3.93333C3.41787 8.59998 3 9.01784 3 9.53331V10.4666C3 10.9821 3.41787 11.4 3.93333 11.4H4.86667C5.38213 11.4 5.8 10.9821 5.8 10.4666V9.53331C5.8 9.01784 5.38213 8.59998 4.86667 8.59998Z" stroke="#717171" stroke-width="1.2" stroke-linecap="round" stroke-linejoin="round"/>
<path d="M4.86667 14.2H3.93333C3.41787 14.2 3 14.6179 3 15.1333V16.0667C3 16.5821 3.41787 17 3.93333 17H4.86667C5.38213 17 5.8 16.5821 5.8 16.0667V15.1333C5.8 14.6179 5.38213 14.2 4.86667 14.2Z" stroke="#717171" stroke-width="1.2" stroke-linecap="round" stroke-linejoin="round"/>
</g>
</svg>
