<svg width="12" height="14" viewBox="0 0 12 14" fill="none" xmlns="http://www.w3.org/2000/svg">
<path d="M10.3752 5.54167H9.93766V3.9375C9.93766 2.89321 9.52282 1.89169 8.7844 1.15327C8.04597 0.414843 7.04445 0 6.00016 0C4.95587 0 3.95435 0.414843 3.21593 1.15327C2.47751 1.89169 2.06266 2.89321 2.06266 3.9375V5.54167H1.62516C1.31574 5.54167 1.019 5.66458 0.800205 5.88338C0.581412 6.10217 0.458496 6.39891 0.458496 6.70833V12.8333C0.458496 13.1428 0.581412 13.4395 0.800205 13.6583C1.019 13.8771 1.31574 14 1.62516 14H10.3752C10.6846 14 10.9813 13.8771 11.2001 13.6583C11.4189 13.4395 11.5418 13.1428 11.5418 12.8333V6.70833C11.5418 6.39891 11.4189 6.10217 11.2001 5.88338C10.9813 5.66458 10.6846 5.54167 10.3752 5.54167ZM6.00016 10.7917C5.76942 10.7917 5.54385 10.7232 5.352 10.595C5.16014 10.4669 5.01061 10.2846 4.9223 10.0715C4.834 9.85828 4.8109 9.62371 4.85591 9.39739C4.90093 9.17108 5.01204 8.9632 5.1752 8.80004C5.33837 8.63688 5.54625 8.52577 5.77256 8.48075C5.99887 8.43573 6.23345 8.45884 6.44663 8.54714C6.65981 8.63544 6.84202 8.78498 6.97021 8.97683C7.09841 9.16869 7.16683 9.39425 7.16683 9.625C7.16683 9.93442 7.04391 10.2312 6.82512 10.45C6.60633 10.6687 6.30958 10.7917 6.00016 10.7917ZM8.47933 5.25C8.47933 5.32735 8.4486 5.40154 8.3939 5.45624C8.3392 5.51094 8.26502 5.54167 8.18766 5.54167H3.81266C3.73531 5.54167 3.66112 5.51094 3.60642 5.45624C3.55173 5.40154 3.521 5.32735 3.521 5.25V3.9375C3.521 3.27998 3.78219 2.6494 4.24713 2.18446C4.71206 1.71953 5.34265 1.45833 6.00016 1.45833C6.65768 1.45833 7.28826 1.71953 7.7532 2.18446C8.21813 2.6494 8.47933 3.27998 8.47933 3.9375V5.25Z" fill="#717171"/>
</svg>
