<svg width="19" height="19" viewBox="0 0 19 19" fill="none" xmlns="http://www.w3.org/2000/svg">
<circle cx="9.5" cy="9.5" r="9.5" fill="#5ABAFF" fill-opacity="0.1"/>
<path d="M10.6347 5.71279C10.5228 5.6332 10.4049 5.56237 10.2821 5.50094L9.46648 5.09312C9.23423 4.97706 8.97475 4.92647 8.71591 4.94678C8.45708 4.96708 8.20866 5.05751 7.99735 5.20836L6.72419 6.11785C6.52678 6.25949 6.36008 6.43962 6.23414 6.6474C6.10819 6.85517 6.02561 7.08629 5.99135 7.32683L5.79883 8.67796" stroke="#717171" stroke-width="0.7977" stroke-linecap="round" stroke-linejoin="round"/>
<path d="M15.6845 13.4055L11.9893 7.4959" stroke="#717171" stroke-width="0.7977" stroke-linecap="round" stroke-linejoin="round"/>
<path d="M9.10188 9.26519L12.9462 6.91003C13.0709 6.83359 13.1794 6.73334 13.2654 6.61498C13.3514 6.49663 13.4132 6.3625 13.4473 6.22024C13.4815 6.07799 13.4873 5.93041 13.4644 5.78591C13.4415 5.64142 13.3904 5.50285 13.314 5.37811C13.2375 5.25337 13.1373 5.14491 13.0189 5.05892C12.9006 4.97293 12.7664 4.91109 12.6242 4.87694C12.4819 4.84278 12.3344 4.83698 12.1899 4.85987C12.0454 4.88275 11.9068 4.93387 11.7821 5.01031L4.8187 9.2783L3.5 11.3919L5.9842 11.1773L7.40365 10.3003" stroke="#717171" stroke-width="0.7977" stroke-linecap="round" stroke-linejoin="round"/>
<path d="M11.029 9.2652H8.44133C8.16681 9.2652 7.90353 9.37425 7.70942 9.56837C7.5153 9.76249 7.40625 10.0258 7.40625 10.3003V10.3003C7.40625 10.5748 7.5153 10.8381 7.70942 11.0322C7.90353 11.2263 8.16681 11.3354 8.44133 11.3354H10.3335L11.5466 13.9231" stroke="#717171" stroke-width="0.7977" stroke-linecap="round" stroke-linejoin="round"/>
</svg>
