<svg width="24" height="24" viewBox="0 0 24 24" fill="none" xmlns="http://www.w3.org/2000/svg">
<g clip-path="url(#clip0)">
<path d="M4 7H1C0.734784 7 0.48043 7.10536 0.292893 7.29289C0.105357 7.48043 0 7.73478 0 8C0 8.26522 0.105357 8.51957 0.292893 8.70711C0.48043 8.89464 0.734784 9 1 9H4C4.26522 9 4.51957 8.89464 4.70711 8.70711C4.89464 8.51957 5 8.26522 5 8C5 7.73478 4.89464 7.48043 4.70711 7.29289C4.51957 7.10536 4.26522 7 4 7ZM3 11H1C0.734784 11 0.48043 11.1054 0.292893 11.2929C0.105357 11.4804 0 11.7348 0 12C0 12.2652 0.105357 12.5196 0.292893 12.7071C0.48043 12.8946 0.734784 13 1 13H3C3.26522 13 3.51957 12.8946 3.70711 12.7071C3.89464 12.5196 4 12.2652 4 12C4 11.7348 3.89464 11.4804 3.70711 11.2929C3.51957 11.1054 3.26522 11 3 11ZM2.247 15H1C0.734784 15 0.48043 15.1054 0.292893 15.2929C0.105357 15.4804 0 15.7348 0 16C0 16.2652 0.105357 16.5196 0.292893 16.7071C0.48043 16.8946 0.734784 17 1 17H2.247C2.51222 17 2.76657 16.8946 2.95411 16.7071C3.14164 16.5196 3.247 16.2652 3.247 16C3.247 15.7348 3.14164 15.4804 2.95411 15.2929C2.76657 15.1054 2.51222 15 2.247 15ZM23.934 7.375C23.9085 7.36499 23.8807 7.3624 23.8538 7.36753C23.8269 7.37266 23.802 7.38531 23.782 7.404L15.455 14.712C15.0288 15.0924 14.4792 15.3056 13.908 15.312C13.6508 15.3187 13.3952 15.2684 13.1597 15.1647C12.9243 15.0609 12.7147 14.9063 12.546 14.712L6.416 7.4C6.39838 7.38054 6.37499 7.36722 6.34926 7.36201C6.32353 7.35679 6.29681 7.35994 6.273 7.371C6.2473 7.38195 6.22471 7.39909 6.20726 7.42091C6.18981 7.44272 6.17804 7.46852 6.173 7.496L4.743 16.496C4.70402 16.6807 4.70747 16.8718 4.75307 17.0549C4.79868 17.238 4.88526 17.4084 5.00629 17.5532C5.12732 17.698 5.27964 17.8135 5.45177 17.8909C5.6239 17.9683 5.81135 18.0056 6 18H20.967C21.3825 17.9868 21.7807 17.8302 22.0939 17.5568C22.4071 17.2834 22.6159 16.91 22.685 16.5L24 7.5C24.0045 7.47479 24.0004 7.44881 23.9885 7.42616C23.9765 7.40352 23.9573 7.38551 23.934 7.375Z" fill="#5FCF64"/>
<path d="M13.4612 13.917C13.5477 14.0043 13.6507 14.0735 13.7642 14.1208C13.8776 14.168 13.9993 14.1924 14.1222 14.1924C14.2451 14.1924 14.3668 14.168 14.4802 14.1208C14.5937 14.0735 14.6966 14.0043 14.7832 13.917L23.0582 6.65299C23.1124 6.60645 23.1539 6.54688 23.1788 6.47987C23.2036 6.41286 23.211 6.34064 23.2002 6.26999C23.1472 5.98199 22.8232 5.99999 22.7262 5.99999H7.8942C7.78529 5.98587 7.67462 6.0039 7.57583 6.05187C7.47704 6.09985 7.39444 6.17567 7.3382 6.26999C7.30578 6.32989 7.29128 6.39785 7.29642 6.46576C7.30157 6.53366 7.32613 6.59866 7.3672 6.65299L13.4612 13.917Z" fill="#5FCF64"/>
</g>
<defs>
<clipPath id="clip0">
<rect width="24" height="24" fill="white"/>
</clipPath>
</defs>
</svg>
