<svg width="30" height="29" viewBox="0 0 30 29" fill="none" xmlns="http://www.w3.org/2000/svg">
<path d="M3.5009 4.4C3.93602 4.4 4.36136 4.27097 4.72315 4.02923C5.08494 3.7875 5.36692 3.4439 5.53343 3.04191C5.69995 2.63991 5.74351 2.19756 5.65863 1.7708C5.57374 1.34404 5.36421 0.952042 5.05653 0.644366C4.74886 0.336691 4.35685 0.127161 3.9301 0.0422734C3.50334 -0.0426141 3.06099 0.000953227 2.65899 0.167466C2.257 0.333979 1.9134 0.615958 1.67166 0.977746C1.42993 1.33953 1.3009 1.76488 1.3009 2.2C1.3009 2.78348 1.53268 3.34306 1.94526 3.75564C2.35784 4.16822 2.91742 4.4 3.5009 4.4ZM3.5009 5.2C2.74489 5.20048 2.0083 5.43948 1.39604 5.88297C0.783772 6.32646 0.327045 6.95182 0.0908975 7.67C0.0784452 7.70737 0.0750343 7.74715 0.0809447 7.78609C0.0868552 7.82503 0.101918 7.86201 0.124897 7.894C0.148291 7.92493 0.178509 7.95005 0.213199 7.9674C0.247888 7.98474 0.286113 7.99385 0.324897 7.994H6.6739C6.71268 7.99385 6.75091 7.98474 6.7856 7.9674C6.82029 7.95005 6.8505 7.92493 6.8739 7.894C6.8971 7.86212 6.9123 7.82513 6.91822 7.78615C6.92414 7.74717 6.9206 7.70733 6.9079 7.67C6.67191 6.95231 6.21564 6.32729 5.60397 5.88385C4.99231 5.4404 4.25639 5.20111 3.5009 5.2Z" fill="#2266E2"/>
<path d="M26.2727 1.5H11.7273C11.3256 1.5 11 1.77982 11 2.125V5.875C11 6.22018 11.3256 6.5 11.7273 6.5H26.2727C26.6744 6.5 27 6.22018 27 5.875V2.125C27 1.77982 26.6744 1.5 26.2727 1.5Z" stroke="#2266E2" stroke-width="1.5" stroke-linecap="round" stroke-linejoin="round"/>
<path d="M26.2727 11.5H11.7273C11.3256 11.5 11 11.7798 11 12.125V15.875C11 16.2202 11.3256 16.5 11.7273 16.5H26.2727C26.6744 16.5 27 16.2202 27 15.875V12.125C27 11.7798 26.6744 11.5 26.2727 11.5Z" stroke="#2266E2" stroke-width="1.5" stroke-linecap="round" stroke-linejoin="round"/>
<path d="M26.2727 21.5H11.7273C11.3256 21.5 11 21.7798 11 22.125V25.875C11 26.2202 11.3256 26.5 11.7273 26.5H26.2727C26.6744 26.5 27 26.2202 27 25.875V22.125C27 21.7798 26.6744 21.5 26.2727 21.5Z" stroke="#2266E2" stroke-width="1.5" stroke-linecap="round" stroke-linejoin="round"/>
<path d="M3.5009 14.4C3.93602 14.4 4.36136 14.271 4.72315 14.0292C5.08494 13.7875 5.36692 13.4439 5.53343 13.0419C5.69995 12.6399 5.74351 12.1976 5.65863 11.7708C5.57374 11.344 5.36421 10.952 5.05653 10.6444C4.74886 10.3367 4.35685 10.1272 3.9301 10.0423C3.50334 9.95739 3.06099 10.001 2.65899 10.1675C2.257 10.334 1.9134 10.616 1.67166 10.9777C1.42993 11.3395 1.3009 11.7649 1.3009 12.2C1.3009 12.7835 1.53268 13.3431 1.94526 13.7556C2.35784 14.1682 2.91742 14.4 3.5009 14.4ZM3.5009 15.2C2.74489 15.2005 2.0083 15.4395 1.39604 15.883C0.783772 16.3265 0.327045 16.9518 0.0908975 17.67C0.0784452 17.7074 0.0750343 17.7472 0.0809447 17.7861C0.0868552 17.825 0.101918 17.862 0.124897 17.894C0.148291 17.9249 0.178509 17.9501 0.213199 17.9674C0.247888 17.9847 0.286113 17.9938 0.324897 17.994H6.6739C6.71268 17.9938 6.75091 17.9847 6.7856 17.9674C6.82029 17.9501 6.8505 17.9249 6.8739 17.894C6.8971 17.8621 6.9123 17.8251 6.91822 17.7861C6.92414 17.7472 6.9206 17.7073 6.9079 17.67C6.67191 16.9523 6.21564 16.3273 5.60397 15.8838C4.99231 15.4404 4.25639 15.2011 3.5009 15.2Z" fill="#2266E2"/>
<path d="M3.5009 24.4C3.93602 24.4 4.36136 24.271 4.72315 24.0292C5.08494 23.7875 5.36692 23.4439 5.53343 23.0419C5.69995 22.6399 5.74351 22.1976 5.65863 21.7708C5.57374 21.344 5.36421 20.952 5.05653 20.6444C4.74886 20.3367 4.35685 20.1272 3.9301 20.0423C3.50334 19.9574 3.06099 20.001 2.65899 20.1675C2.257 20.334 1.9134 20.616 1.67166 20.9777C1.42993 21.3395 1.3009 21.7649 1.3009 22.2C1.3009 22.7835 1.53268 23.3431 1.94526 23.7556C2.35784 24.1682 2.91742 24.4 3.5009 24.4ZM3.5009 25.2C2.74489 25.2005 2.0083 25.4395 1.39604 25.883C0.783772 26.3265 0.327045 26.9518 0.0908975 27.67C0.0784452 27.7074 0.0750343 27.7472 0.0809447 27.7861C0.0868552 27.825 0.101918 27.862 0.124897 27.894C0.148291 27.9249 0.178509 27.9501 0.213199 27.9674C0.247888 27.9847 0.286113 27.9938 0.324897 27.994H6.6739C6.71268 27.9938 6.75091 27.9847 6.7856 27.9674C6.82029 27.9501 6.8505 27.9249 6.8739 27.894C6.8971 27.8621 6.9123 27.8251 6.91822 27.7861C6.92414 27.7472 6.9206 27.7073 6.9079 27.67C6.67191 26.9523 6.21564 26.3273 5.60397 25.8838C4.99231 25.4404 4.25639 25.2011 3.5009 25.2Z" fill="#2266E2"/>
</svg>
