<svg width="12" height="9" viewBox="0 0 12 9" fill="none" xmlns="http://www.w3.org/2000/svg">
<g clip-path="url(#clip0_16510_123935)">
<path d="M9.33333 8.15C9.33333 8.21188 9.35791 8.27123 9.40167 8.31499C9.44543 8.35875 9.50478 8.38333 9.56666 8.38333H10.8831C10.9213 8.38331 10.959 8.37389 10.9927 8.35592C11.0264 8.33795 11.0552 8.31197 11.0766 8.28027C11.0979 8.24856 11.1111 8.2121 11.1151 8.17409C11.119 8.13608 11.1136 8.09768 11.0992 8.06226C10.9607 7.71622 10.7317 7.41381 10.4361 7.18678C10.1405 6.95974 9.78925 6.81645 9.4192 6.77193C9.38049 6.76726 9.34123 6.77236 9.305 6.78677C9.26877 6.80118 9.23673 6.82444 9.21181 6.85442C9.18688 6.88441 9.16987 6.92016 9.16232 6.95841C9.15477 6.99666 9.15693 7.03619 9.1686 7.0734C9.2778 7.42183 9.33334 7.78485 9.33333 8.15ZM2.27126 7.05333C2.2825 7.01837 2.28533 6.98125 2.27951 6.945C2.2737 6.90874 2.25941 6.87437 2.23781 6.84467C2.21621 6.81498 2.18791 6.7908 2.1552 6.77411C2.1225 6.75741 2.08632 6.74867 2.0496 6.7486H2.044C1.62596 6.74881 1.21754 6.87406 0.871257 7.10824C0.524972 7.34242 0.256652 7.67483 0.100796 8.06273C0.0865096 8.09816 0.0811392 8.13655 0.0851561 8.17453C0.0891729 8.21252 0.102454 8.24894 0.123834 8.28059C0.145213 8.31225 0.174037 8.33817 0.207774 8.35608C0.241512 8.37399 0.279131 8.38335 0.317329 8.38333H1.86666C1.92855 8.38333 1.9879 8.35875 2.03165 8.31499C2.07541 8.27123 2.1 8.21188 2.1 8.15C2.09983 7.77777 2.15761 7.40778 2.27126 7.05333Z" fill="#5ABAFF"/>
<path d="M4.58738 5.26041C4.60554 5.27154 4.62031 5.28743 4.63008 5.30636C4.63985 5.32529 4.64426 5.34653 4.64282 5.36778C4.64137 5.38903 4.63414 5.40948 4.6219 5.42692C4.60966 5.44435 4.59288 5.4581 4.57338 5.46668C4.04754 5.6912 3.59919 6.06516 3.28395 6.54217C2.96871 7.01918 2.80045 7.57824 2.80005 8.15001C2.80005 8.21189 2.82463 8.27124 2.86839 8.315C2.91215 8.35876 2.9715 8.38334 3.03338 8.38334H8.40005C8.46193 8.38334 8.52128 8.35876 8.56504 8.315C8.6088 8.27124 8.63338 8.21189 8.63338 8.15001C8.63242 7.57739 8.46308 7.0177 8.14644 6.54059C7.82981 6.06347 7.37985 5.69001 6.85258 5.46668C6.83287 5.45812 6.81589 5.4443 6.8035 5.42674C6.79111 5.40918 6.7838 5.38855 6.78235 5.36711C6.7809 5.34566 6.78539 5.32423 6.7953 5.30517C6.80522 5.2861 6.82019 5.27013 6.83858 5.25901C7.25481 5.01178 7.57828 4.63465 7.75924 4.18563C7.9402 3.73661 7.96863 3.24058 7.84015 2.77383C7.71167 2.30707 7.4334 1.89546 7.04814 1.6023C6.66288 1.30914 6.19198 1.15068 5.70787 1.15128C5.22376 1.15188 4.75325 1.31152 4.36873 1.60563C3.9842 1.89975 3.70696 2.31206 3.57964 2.77913C3.45232 3.2462 3.48198 3.74216 3.66406 4.19073C3.84614 4.63929 4.17054 5.01562 4.58738 5.26181V5.26041ZM4.43338 3.36061C4.43339 3.27237 4.44325 3.1844 4.46278 3.09834C4.47089 3.06233 4.48742 3.02875 4.51103 3.00036C4.53464 2.97198 4.56464 2.94961 4.59858 2.93507C4.63251 2.92054 4.66941 2.91427 4.70625 2.91677C4.74308 2.91928 4.77879 2.93049 4.81045 2.94948C5.25774 3.21876 5.77002 3.36091 6.29212 3.36061C6.42863 3.36048 6.56495 3.35034 6.69998 3.33028C6.73644 3.32482 6.77368 3.32808 6.80864 3.33979C6.84359 3.3515 6.87528 3.37132 6.90109 3.39764C6.92691 3.42396 6.94613 3.45602 6.95716 3.49119C6.9682 3.52637 6.97074 3.56366 6.96458 3.60001C6.90527 3.91247 6.73148 4.19154 6.47723 4.38261C6.22299 4.57367 5.90658 4.66297 5.58996 4.63302C5.27333 4.60308 4.97928 4.45604 4.76536 4.2207C4.55145 3.98535 4.43306 3.67865 4.43338 3.36061Z" fill="#5ABAFF"/>
<path d="M9.15605 6.28333C9.424 6.28497 9.68583 6.20321 9.90523 6.04938C10.1246 5.89555 10.2908 5.67727 10.3806 5.42481C10.4703 5.17234 10.4794 4.89819 10.4064 4.64036C10.3334 4.38254 10.182 4.1538 9.9732 3.98587C9.76439 3.81793 9.50851 3.71912 9.24103 3.70312C8.97355 3.68713 8.70772 3.75474 8.48038 3.89659C8.25305 4.03845 8.07548 4.24751 7.97228 4.4948C7.86908 4.74209 7.84538 5.01536 7.90444 5.27673C7.96995 5.56057 8.12898 5.81415 8.35598 5.99671C8.58298 6.17927 8.86476 6.28022 9.15605 6.28333Z" fill="#5ABAFF"/>
<path d="M2.04395 6.28334C2.75272 6.28334 3.32729 5.70877 3.32729 5.00001C3.32729 4.29124 2.75272 3.71667 2.04395 3.71667C1.33519 3.71667 0.76062 4.29124 0.76062 5.00001C0.76062 5.70877 1.33519 6.28334 2.04395 6.28334Z" fill="#5ABAFF"/>
</g>
<defs>
<clipPath id="clip0_16510_123935">
<rect width="11.2" height="8" fill="white" transform="translate(0 0.5)"/>
</clipPath>
</defs>
</svg>
