<svg width="34" height="34" viewBox="0 0 34 34" fill="none" xmlns="http://www.w3.org/2000/svg">
<path d="M13.9011 30.6C13.9714 30.6033 14.0412 30.5857 14.1014 30.5492C14.1616 30.5128 14.2096 30.4592 14.2393 30.3954C14.2689 30.3315 14.2789 30.2603 14.2678 30.1907C14.2568 30.1212 14.2253 30.0565 14.1774 30.005C13.0465 28.7903 12.238 27.3116 11.8257 25.704C11.8086 25.6349 11.7708 25.5726 11.7174 25.5255C11.664 25.4784 11.5975 25.4488 11.5268 25.4405C8.29957 25.192 5.19461 24.0985 2.52386 22.27C2.47206 22.2275 2.40923 22.2006 2.34271 22.1924C2.27618 22.1843 2.20873 22.1953 2.14824 22.2242C2.08774 22.253 2.03671 22.2985 2.00112 22.3553C1.96553 22.4121 1.94685 22.4778 1.94727 22.5448V24.9758C1.94727 27.8842 7.17902 30.2784 13.9011 30.6ZM12.2124 19.5882C12.2326 19.5375 12.2408 19.4829 12.2364 19.4285C12.232 19.3741 12.2151 19.3215 12.1869 19.2747C12.1588 19.228 12.1203 19.1883 12.0743 19.1589C12.0284 19.1295 11.9763 19.1111 11.922 19.1051C8.55783 18.8931 5.31221 17.7821 2.52386 15.8879C2.47206 15.8454 2.40923 15.8185 2.34271 15.8104C2.27618 15.8023 2.20873 15.8133 2.14824 15.8421C2.08774 15.8709 2.03671 15.9164 2.00112 15.9732C1.96553 16.03 1.94685 16.0957 1.94727 16.1627V18.5937C1.94727 21.0927 5.78786 23.2092 11.1159 23.9643C11.1675 23.9714 11.2199 23.9671 11.2696 23.9517C11.3193 23.9363 11.365 23.9102 11.4036 23.8752C11.4421 23.8402 11.4724 23.7972 11.4925 23.7492C11.5125 23.7012 11.5218 23.6494 11.5197 23.5974C11.4669 22.2272 11.7029 20.8612 12.2124 19.5882ZM15.4056 12.9271C10.4473 12.9271 5.26794 11.747 2.52386 9.51148C2.47206 9.46895 2.40923 9.44206 2.34271 9.43395C2.27618 9.42584 2.20873 9.43685 2.14824 9.46568C2.08774 9.49452 2.03671 9.53999 2.00112 9.59677C1.96553 9.65355 1.94685 9.7193 1.94727 9.78631V12.2187C1.94727 14.9926 6.68319 17.2932 12.9307 17.7834C12.9928 17.7885 13.0552 17.777 13.1114 17.7501C13.1677 17.7232 13.2158 17.6819 13.2509 17.6304C14.7118 15.4804 16.9574 13.9889 19.5057 13.4761C22.054 12.9634 24.7018 13.4702 26.8806 14.8877C26.9424 14.9278 27.0151 14.9477 27.0887 14.9446C27.1623 14.9416 27.2332 14.9158 27.2914 14.8707C29.0566 13.4994 28.905 12.5474 28.8682 9.77922C28.8675 9.71269 28.8481 9.6477 28.8121 9.59176C28.7761 9.53581 28.725 9.49119 28.6647 9.46305C28.6044 9.4349 28.5374 9.42438 28.4714 9.4327C28.4053 9.44102 28.343 9.46784 28.2916 9.51006C25.5475 11.747 20.3739 12.9271 15.4056 12.9271Z" fill="#DDDDDD"/>
<path d="M15.4056 11.5105C22.8384 11.5105 28.8639 8.9734 28.8639 5.84379C28.8639 2.71418 22.8384 0.177124 15.4056 0.177124C7.97277 0.177124 1.94727 2.71418 1.94727 5.84379C1.94727 8.9734 7.97277 11.5105 15.4056 11.5105Z" fill="#DDDDDD"/>
<path d="M28.1191 27.8856C28.0619 27.8287 28.0261 27.7539 28.0175 27.6736C28.009 27.5934 28.0284 27.5127 28.0724 27.445C29.1145 25.8132 29.5173 23.854 29.2036 21.9434C28.8899 20.0328 27.8818 18.3053 26.3726 17.0923C24.8634 15.8794 22.9595 15.2664 21.0262 15.371C19.0928 15.4756 17.2661 16.2904 15.8966 17.6591C14.5271 19.0278 13.7112 20.854 13.6055 22.7873C13.4997 24.7206 14.1116 26.6248 15.3237 28.1347C16.5357 29.6446 18.2626 30.6538 20.1731 30.9686C22.0835 31.2834 24.0429 30.8817 25.6754 29.8406C25.7433 29.7973 25.824 29.7785 25.9041 29.7873C25.9842 29.796 26.0589 29.8318 26.116 29.8888L29.635 33.4078C29.7665 33.5394 29.9227 33.6438 30.0945 33.7151C30.2664 33.7864 30.4507 33.8231 30.6367 33.8232C30.8228 33.8232 31.0071 33.7866 31.179 33.7155C31.351 33.6443 31.5072 33.54 31.6388 33.4085C31.7705 33.277 31.8749 33.1208 31.9461 32.9489C32.0174 32.777 32.0541 32.5928 32.0542 32.4067C32.0543 32.2206 32.0177 32.0364 31.9465 31.8644C31.8754 31.6925 31.7711 31.5362 31.6395 31.4046L28.1191 27.8856ZM16.4699 23.2333C16.4699 22.2442 16.7632 21.2772 17.3128 20.4548C17.8623 19.6324 18.6434 18.9914 19.5573 18.613C20.4712 18.2345 21.4767 18.1356 22.4468 18.3286C23.4169 18.5217 24.308 18.9981 25.0073 19.6977C25.7066 20.3972 26.1828 21.2884 26.3756 22.2585C26.5684 23.2287 26.4692 24.2342 26.0905 25.148C25.7117 26.0618 25.0706 26.8427 24.248 27.392C23.4254 27.9413 22.4584 28.2344 21.4693 28.2341C20.1436 28.2326 18.8726 27.7052 17.9353 26.7677C16.998 25.8301 16.471 24.559 16.4699 23.2333Z" fill="#DDDDDD"/>
</svg>
