<svg width="22" height="23" viewBox="0 0 22 23" fill="none" xmlns="http://www.w3.org/2000/svg">
<g filter="url(#filter0_d_12028_709)">
<path d="M10.1592 0.9375C11.0516 0.9375 11.8518 1.30678 12.4364 1.87606C13.0212 2.4608 13.375 3.26088 13.375 4.15328C13.375 5.04568 13.0211 5.84587 12.4364 6.4305C12.1748 6.69211 11.8672 6.90746 11.5132 7.07675C11.9287 7.18442 12.3288 7.35371 12.698 7.5537C12.8673 7.64603 12.9288 7.86148 12.8365 8.03066C12.7442 8.19995 12.5288 8.26146 12.3596 8.16914C12.0211 7.9845 11.6672 7.84602 11.2825 7.7537C10.9132 7.66138 10.5286 7.61522 10.1439 7.61522C8.88218 7.61522 7.74352 8.12298 6.89733 8.96922C6.06644 9.80011 5.54332 10.9388 5.54332 12.2005V12.8314C5.54332 12.9545 5.58948 13.0622 5.66645 13.1391C5.74342 13.2161 5.86644 13.2623 6.00493 13.2623H11.4672C11.6672 13.2623 11.8211 13.4161 11.8211 13.6162C11.8211 13.8162 11.6673 13.9701 11.4672 13.9701H6.02022C5.6971 13.9701 5.40479 13.847 5.20469 13.6317C4.98924 13.4317 4.86621 13.1392 4.86621 12.8161V12.1852C4.86621 10.7389 5.4663 9.40028 6.42032 8.44621C7.06657 7.79996 7.8821 7.30755 8.78986 7.07675C8.45138 6.92291 8.14361 6.69211 7.882 6.4305C7.29726 5.84576 6.94344 5.04568 6.94344 4.15328C6.94344 3.26088 7.29737 2.46069 7.882 1.87606C8.46673 1.29143 9.26671 0.9375 10.1592 0.9375ZM10.6823 11.9084H13.5596C13.7596 11.9084 13.9135 12.0622 13.9135 12.2623V12.9548L16.2524 11.0314L13.9135 9.09262V9.80038C13.9135 9.98502 13.7597 10.1543 13.5596 10.1543H10.6823V11.9084ZM13.2212 12.6162H10.3283C10.1437 12.6162 9.97442 12.4623 9.97442 12.2622L9.97452 9.80038C9.97452 9.60038 10.1284 9.44645 10.3285 9.44645H13.2057V8.35394C13.2057 8.27697 13.2365 8.20011 13.2827 8.12314C13.4058 7.96931 13.6366 7.95385 13.7751 8.07698L17.0063 10.739C17.0217 10.7543 17.0371 10.7698 17.0525 10.7852C17.1756 10.939 17.1602 11.1544 17.0063 11.2776L13.8057 13.9702C13.7442 14.0317 13.6519 14.0625 13.5595 14.0625C13.3749 14.0625 13.2056 13.9087 13.2056 13.7086V12.6162H13.2212ZM11.9287 2.36853C11.4824 1.92228 10.8516 1.62996 10.1592 1.62996C9.46681 1.62996 8.83591 1.90692 8.38976 2.36853C7.94351 2.81478 7.6512 3.44557 7.6512 4.13798C7.6512 4.83039 7.92816 5.46129 8.38976 5.90743C8.83602 6.35369 9.46681 6.646 10.1592 6.646C10.8516 6.646 11.4825 6.36904 11.9287 5.90743C12.3749 5.46118 12.6672 4.83039 12.6672 4.13798C12.6672 3.44557 12.3749 2.83014 11.9287 2.36853Z" fill="url(#paint0_linear_12028_709)"/>
<path d="M10.6823 11.9084H13.5596C13.7596 11.9084 13.9135 12.0622 13.9135 12.2623V12.9548L16.2524 11.0314L13.9135 9.09262V9.80038C13.9135 9.98502 13.7597 10.1543 13.5596 10.1543H10.6823V11.9084Z" fill="url(#paint1_linear_12028_709)"/>
<path d="M11.9287 2.36853C11.4824 1.92228 10.8516 1.62996 10.1592 1.62996C9.46681 1.62996 8.83591 1.90692 8.38976 2.36853C7.94351 2.81478 7.6512 3.44557 7.6512 4.13798C7.6512 4.83039 7.92816 5.46129 8.38976 5.90743C8.83602 6.35369 9.46681 6.646 10.1592 6.646C10.8516 6.646 11.4825 6.36904 11.9287 5.90743C12.3749 5.46118 12.6672 4.83039 12.6672 4.13798C12.6672 3.44557 12.3749 2.83014 11.9287 2.36853Z" fill="url(#paint2_linear_12028_709)"/>
</g>
<defs>
<filter id="filter0_d_12028_709" x="0.866211" y="0.9375" width="20.2683" height="21.125" filterUnits="userSpaceOnUse" color-interpolation-filters="sRGB">
<feFlood flood-opacity="0" result="BackgroundImageFix"/>
<feColorMatrix in="SourceAlpha" type="matrix" values="0 0 0 0 0 0 0 0 0 0 0 0 0 0 0 0 0 0 127 0" result="hardAlpha"/>
<feOffset dy="4"/>
<feGaussianBlur stdDeviation="2"/>
<feColorMatrix type="matrix" values="0 0 0 0 0 0 0 0 0 0 0 0 0 0 0 0 0 0 0.05 0"/>
<feBlend mode="normal" in2="BackgroundImageFix" result="effect1_dropShadow_12028_709"/>
<feBlend mode="normal" in="SourceGraphic" in2="effect1_dropShadow_12028_709" result="shape"/>
</filter>
<linearGradient id="paint0_linear_12028_709" x1="11.0004" y1="0.9375" x2="11.0004" y2="14.0625" gradientUnits="userSpaceOnUse">
<stop stop-color="white"/>
<stop offset="1" stop-color="white" stop-opacity="0.8"/>
</linearGradient>
<linearGradient id="paint1_linear_12028_709" x1="11.0004" y1="0.9375" x2="11.0004" y2="14.0625" gradientUnits="userSpaceOnUse">
<stop stop-color="white"/>
<stop offset="1" stop-color="white" stop-opacity="0.8"/>
</linearGradient>
<linearGradient id="paint2_linear_12028_709" x1="11.0004" y1="0.9375" x2="11.0004" y2="14.0625" gradientUnits="userSpaceOnUse">
<stop stop-color="white"/>
<stop offset="1" stop-color="white" stop-opacity="0.8"/>
</linearGradient>
</defs>
</svg>
