<svg width="20" height="23" viewBox="0 0 20 23" fill="none" xmlns="http://www.w3.org/2000/svg">
<g filter="url(#filter0_d_12028_705)">
<path d="M9.38668 0.9375C10.2791 0.9375 11.0793 1.30678 11.6639 1.87606C12.2486 2.46079 12.6025 3.26087 12.6025 4.15327C12.6025 5.04567 12.2485 5.84585 11.6639 6.43048C11.4023 6.69209 11.0946 6.90743 10.7407 7.07672C11.0176 7.15369 11.31 7.24601 11.5716 7.38449C11.7562 7.46146 11.8332 7.67681 11.7409 7.8461C11.6639 8.03074 11.4485 8.09225 11.2793 8.01539C10.9869 7.87691 10.6792 7.76923 10.3561 7.70762C10.0329 7.63065 9.7098 7.59994 9.38668 7.59994C8.125 7.59994 6.98634 8.10771 6.14016 8.95395C5.30927 9.78483 4.78616 10.9235 4.78616 12.1852V12.8161C4.78616 12.9392 4.83232 13.0469 4.90928 13.1238C4.98625 13.2008 5.10928 13.247 5.24776 13.247H10.3716C10.5716 13.247 10.7255 13.4008 10.7255 13.6009C10.7255 13.8009 10.5717 13.9548 10.3716 13.9548L5.24776 13.9547C4.92464 13.9547 4.63232 13.8316 4.43222 13.6163C4.21677 13.4163 4.09375 13.1238 4.09375 12.8007V12.1698C4.09375 10.7235 4.69383 9.3849 5.64785 8.43083C6.2941 7.78459 7.10963 7.29218 8.01738 7.06137C7.67891 6.90754 7.37114 6.67674 7.10953 6.41513C6.52479 5.8304 6.17097 5.03032 6.17097 4.13792C6.17097 3.24552 6.5249 2.44534 7.10953 1.86071C7.69426 1.29143 8.49428 0.9375 9.38668 0.9375ZM15.526 12.6161H12.6488V13.7086C12.6488 13.9086 12.4949 14.0625 12.2948 14.0625C12.2025 14.0625 12.1255 14.0317 12.064 13.9702L8.83281 11.2929C8.67898 11.1697 8.66352 10.9389 8.78665 10.8005C8.802 10.7851 8.81746 10.7697 8.83281 10.7543L12.064 8.0923C12.2179 7.96917 12.4333 7.98463 12.5564 8.13846C12.618 8.19998 12.6334 8.2923 12.6334 8.36927V9.46176L15.526 9.46187C15.726 9.46187 15.8799 9.6157 15.8799 9.8158V12.2776C15.8799 12.4468 15.726 12.6161 15.526 12.6161ZM12.2948 11.9083H15.172V10.1388H12.2948C12.0948 10.1388 11.9409 9.98493 11.9409 9.78483V9.09243L9.61748 11.0313L11.9409 12.9547V12.2621C11.9409 12.0621 12.0948 11.9083 12.2948 11.9083ZM11.1561 2.36842C10.7099 1.92217 10.0791 1.62985 9.38668 1.62985C8.69428 1.62985 8.06338 1.90681 7.61724 2.36842C7.17098 2.81467 6.87867 3.44546 6.87867 4.13786C6.87867 4.83027 7.15563 5.46116 7.61724 5.90731C8.06349 6.35356 8.69428 6.64587 9.38668 6.64587C10.0791 6.64587 10.71 6.36891 11.1561 5.90731C11.6024 5.46106 11.8947 4.83027 11.8947 4.13786C11.8947 3.44546 11.6024 2.83002 11.1561 2.36842Z" fill="url(#paint0_linear_12028_705)"/>
<path d="M11.1561 2.36842C10.7099 1.92217 10.0791 1.62985 9.38668 1.62985C8.69428 1.62985 8.06338 1.90681 7.61724 2.36842C7.17098 2.81467 6.87867 3.44546 6.87867 4.13786C6.87867 4.83027 7.15563 5.46116 7.61724 5.90731C8.06349 6.35356 8.69428 6.64587 9.38668 6.64587C10.0791 6.64587 10.71 6.36891 11.1561 5.90731C11.6024 5.46106 11.8947 4.83027 11.8947 4.13786C11.8947 3.44546 11.6024 2.83002 11.1561 2.36842Z" fill="url(#paint1_linear_12028_705)"/>
<path d="M12.2948 11.9083H15.172V10.1388H12.2948C12.0948 10.1388 11.9409 9.98493 11.9409 9.78483V9.09243L9.61748 11.0313L11.9409 12.9547V12.2621C11.9409 12.0621 12.0948 11.9083 12.2948 11.9083Z" fill="url(#paint2_linear_12028_705)"/>
</g>
<defs>
<filter id="filter0_d_12028_705" x="0.09375" y="0.9375" width="19.7861" height="21.125" filterUnits="userSpaceOnUse" color-interpolation-filters="sRGB">
<feFlood flood-opacity="0" result="BackgroundImageFix"/>
<feColorMatrix in="SourceAlpha" type="matrix" values="0 0 0 0 0 0 0 0 0 0 0 0 0 0 0 0 0 0 127 0" result="hardAlpha"/>
<feOffset dy="4"/>
<feGaussianBlur stdDeviation="2"/>
<feColorMatrix type="matrix" values="0 0 0 0 0 0 0 0 0 0 0 0 0 0 0 0 0 0 0.05 0"/>
<feBlend mode="normal" in2="BackgroundImageFix" result="effect1_dropShadow_12028_705"/>
<feBlend mode="normal" in="SourceGraphic" in2="effect1_dropShadow_12028_705" result="shape"/>
</filter>
<linearGradient id="paint0_linear_12028_705" x1="9.98682" y1="0.9375" x2="9.98682" y2="14.0625" gradientUnits="userSpaceOnUse">
<stop stop-color="white"/>
<stop offset="1" stop-color="white" stop-opacity="0.8"/>
</linearGradient>
<linearGradient id="paint1_linear_12028_705" x1="9.98682" y1="0.9375" x2="9.98682" y2="14.0625" gradientUnits="userSpaceOnUse">
<stop stop-color="white"/>
<stop offset="1" stop-color="white" stop-opacity="0.8"/>
</linearGradient>
<linearGradient id="paint2_linear_12028_705" x1="9.98682" y1="0.9375" x2="9.98682" y2="14.0625" gradientUnits="userSpaceOnUse">
<stop stop-color="white"/>
<stop offset="1" stop-color="white" stop-opacity="0.8"/>
</linearGradient>
</defs>
</svg>
