<svg width="10" height="10" viewBox="0 0 10 10" fill="none" xmlns="http://www.w3.org/2000/svg">
<path d="M5.41929 0.3125C4.78186 0.3125 4.2103 0.576274 3.79271 0.982899C3.37504 1.40057 3.12231 1.97205 3.12231 2.60948C3.12231 3.2469 3.37512 3.81846 3.79271 4.23606C3.97957 4.42292 4.19933 4.57674 4.45214 4.69766C4.25431 4.75264 4.04552 4.81858 3.85865 4.9175C3.72676 4.97247 3.67179 5.12629 3.73773 5.24721C3.79271 5.3791 3.94653 5.42304 4.06745 5.36813C4.27624 5.26922 4.49608 5.19231 4.72688 5.1483C4.95768 5.09332 5.18848 5.07139 5.41929 5.07139C6.32049 5.07139 7.13381 5.43408 7.73823 6.03853C8.33172 6.63202 8.70538 7.44535 8.70538 8.34655V8.79719C8.70538 8.88514 8.6724 8.96205 8.61743 9.01702C8.56245 9.072 8.47457 9.10497 8.37566 9.10497H4.7158C4.57295 9.10497 4.46299 9.21486 4.46299 9.35778C4.46299 9.50064 4.57287 9.61059 4.7158 9.61059L8.37566 9.61052C8.60646 9.61052 8.81526 9.52257 8.95818 9.36875C9.11208 9.2259 9.19995 9.01703 9.19995 8.78623V8.33559C9.19995 7.3025 8.77132 6.34636 8.08988 5.66488C7.62828 5.20328 7.04575 4.85155 6.39736 4.6867C6.63912 4.57681 6.85896 4.41196 7.04583 4.22509C7.46349 3.80743 7.71623 3.23594 7.71623 2.59851C7.71623 1.96109 7.46342 1.38953 7.04583 0.971935C6.62816 0.56531 6.05671 0.3125 5.41929 0.3125ZM1.03405 8.65434H3.08922V9.43469C3.08922 9.57754 3.1991 9.6875 3.34203 9.6875C3.40797 9.6875 3.46295 9.66549 3.50689 9.62156L5.81491 7.7092C5.92479 7.62125 5.93583 7.45639 5.84788 7.35748C5.83691 7.34651 5.82587 7.33547 5.81491 7.3245L3.50689 5.42307C3.39701 5.33512 3.24312 5.34616 3.15517 5.45605C3.11123 5.49998 3.10019 5.56593 3.10019 5.6209V6.40126L1.03409 6.40133C0.891236 6.40133 0.781281 6.51121 0.781281 6.65414V8.41261C0.781281 8.53345 0.891197 8.65434 1.03405 8.65434ZM3.34207 8.1488H1.2869V6.88483H3.34207C3.48492 6.88483 3.59488 6.77495 3.59488 6.63202V6.13745L5.25443 7.52233L3.59488 8.89618V8.40153C3.59488 8.25868 3.48492 8.1488 3.34207 8.1488ZM4.1554 1.33458C4.47415 1.01583 4.92471 0.807038 5.41929 0.807038C5.91386 0.807038 6.3645 1.00487 6.68317 1.33458C7.00193 1.65334 7.21072 2.1039 7.21072 2.59847C7.21072 3.09305 7.01289 3.54369 6.68317 3.86236C6.36442 4.18112 5.91386 4.38991 5.41929 4.38991C4.92471 4.38991 4.47407 4.19208 4.1554 3.86236C3.83664 3.54361 3.62785 3.09305 3.62785 2.59847C3.62785 2.1039 3.83664 1.6643 4.1554 1.33458Z" fill="url(#paint0_linear_3300_12815)"/>
<path d="M4.1554 1.33458C4.47415 1.01583 4.92471 0.807038 5.41929 0.807038C5.91386 0.807038 6.3645 1.00487 6.68317 1.33458C7.00193 1.65334 7.21072 2.1039 7.21072 2.59847C7.21072 3.09305 7.01289 3.54369 6.68317 3.86236C6.36442 4.18112 5.91386 4.38991 5.41929 4.38991C4.92471 4.38991 4.47407 4.19208 4.1554 3.86236C3.83664 3.54361 3.62785 3.09305 3.62785 2.59847C3.62785 2.1039 3.83664 1.6643 4.1554 1.33458Z" fill="url(#paint1_linear_3300_12815)"/>
<path d="M3.34207 8.1488H1.2869V6.88483H3.34207C3.48492 6.88483 3.59488 6.77495 3.59488 6.63202V6.13745L5.25443 7.52233L3.59488 8.89618V8.40153C3.59488 8.25868 3.48492 8.1488 3.34207 8.1488Z" fill="url(#paint2_linear_3300_12815)"/>
<defs>
<linearGradient id="paint0_linear_3300_12815" x1="4.99062" y1="0.3125" x2="4.99062" y2="9.6875" gradientUnits="userSpaceOnUse">
<stop stop-color="#2257E2"/>
<stop offset="1" stop-color="#5AA6FF"/>
</linearGradient>
<linearGradient id="paint1_linear_3300_12815" x1="4.99062" y1="0.3125" x2="4.99062" y2="9.6875" gradientUnits="userSpaceOnUse">
<stop stop-color="#2257E2"/>
<stop offset="1" stop-color="#5AA6FF"/>
</linearGradient>
<linearGradient id="paint2_linear_3300_12815" x1="4.99062" y1="0.3125" x2="4.99062" y2="9.6875" gradientUnits="userSpaceOnUse">
<stop stop-color="#2257E2"/>
<stop offset="1" stop-color="#5AA6FF"/>
</linearGradient>
</defs>
</svg>
