<svg width="98" height="98" viewBox="0 0 98 98" fill="none" xmlns="http://www.w3.org/2000/svg">
<circle opacity="0.5" cx="49" cy="49" r="48" fill="#F5F6FE" stroke="url(#paint0_linear_20763_188565)" stroke-width="2"/>
<path d="M64.1875 40.9375H33.8125C31.9485 40.9375 30.4375 42.4485 30.4375 44.3125V67.9375C30.4375 69.8015 31.9485 71.3125 33.8125 71.3125H64.1875C66.0515 71.3125 67.5625 69.8015 67.5625 67.9375V44.3125C67.5625 42.4485 66.0515 40.9375 64.1875 40.9375Z" stroke="#2266E2" stroke-width="3" stroke-linecap="round" stroke-linejoin="round"/>
<path d="M41.4062 51.0625C41.2394 51.0625 41.0762 51.112 40.9375 51.2047C40.7987 51.2974 40.6906 51.4292 40.6267 51.5834C40.5629 51.7375 40.5462 51.9072 40.5787 52.0709C40.6113 52.2345 40.6916 52.3849 40.8096 52.5029C40.9276 52.6209 41.078 52.7012 41.2416 52.7338C41.4053 52.7663 41.575 52.7496 41.7291 52.6858C41.8833 52.6219 42.0151 52.5138 42.1078 52.375C42.2005 52.2363 42.25 52.0731 42.25 51.9062C42.25 51.6825 42.1611 51.4679 42.0029 51.3096C41.8446 51.1514 41.63 51.0625 41.4062 51.0625ZM49 51.0625C48.8331 51.0625 48.67 51.112 48.5312 51.2047C48.3925 51.2974 48.2843 51.4292 48.2205 51.5834C48.1566 51.7375 48.1399 51.9072 48.1725 52.0709C48.205 52.2345 48.2854 52.3849 48.4034 52.5029C48.5214 52.6209 48.6717 52.7012 48.8354 52.7338C48.9991 52.7663 49.1687 52.7496 49.3229 52.6858C49.4771 52.6219 49.6088 52.5138 49.7016 52.375C49.7943 52.2363 49.8437 52.0731 49.8437 51.9062C49.8437 51.6825 49.7549 51.4679 49.5966 51.3096C49.4384 51.1514 49.2238 51.0625 49 51.0625ZM56.5938 51.0625C56.4269 51.0625 56.2637 51.112 56.125 51.2047C55.9862 51.2974 55.8781 51.4292 55.8142 51.5834C55.7504 51.7375 55.7337 51.9072 55.7662 52.0709C55.7988 52.2345 55.8791 52.3849 55.9971 52.5029C56.1151 52.6209 56.2655 52.7012 56.4291 52.7338C56.5928 52.7663 56.7625 52.7496 56.9166 52.6858C57.0708 52.6219 57.2026 52.5138 57.2953 52.375C57.388 52.2363 57.4375 52.0731 57.4375 51.9062C57.4375 51.6825 57.3486 51.4679 57.1904 51.3096C57.0321 51.1514 56.8175 51.0625 56.5938 51.0625ZM41.4062 59.5C41.2394 59.5 41.0762 59.5495 40.9375 59.6422C40.7987 59.7349 40.6906 59.8667 40.6267 60.0209C40.5629 60.175 40.5462 60.3447 40.5787 60.5084C40.6113 60.672 40.6916 60.8224 40.8096 60.9404C40.9276 61.0584 41.078 61.1387 41.2416 61.1713C41.4053 61.2038 41.575 61.1871 41.7291 61.1233C41.8833 61.0594 42.0151 60.9513 42.1078 60.8125C42.2005 60.6738 42.25 60.5106 42.25 60.3438C42.25 60.12 42.1611 59.9054 42.0029 59.7471C41.8446 59.5889 41.63 59.5 41.4062 59.5ZM49 59.5C48.8331 59.5 48.67 59.5495 48.5312 59.6422C48.3925 59.7349 48.2843 59.8667 48.2205 60.0209C48.1566 60.175 48.1399 60.3447 48.1725 60.5084C48.205 60.672 48.2854 60.8224 48.4034 60.9404C48.5214 61.0584 48.6717 61.1387 48.8354 61.1713C48.9991 61.2038 49.1687 61.1871 49.3229 61.1233C49.4771 61.0594 49.6088 60.9513 49.7016 60.8125C49.7943 60.6738 49.8437 60.5106 49.8437 60.3438C49.8437 60.12 49.7549 59.9054 49.5966 59.7471C49.4384 59.5889 49.2238 59.5 49 59.5ZM56.5938 59.5C56.4269 59.5 56.2637 59.5495 56.125 59.6422C55.9862 59.7349 55.8781 59.8667 55.8142 60.0209C55.7504 60.175 55.7337 60.3447 55.7662 60.5084C55.7988 60.672 55.8791 60.8224 55.9971 60.9404C56.1151 61.0584 56.2655 61.1387 56.4291 61.1713C56.5928 61.2038 56.7625 61.1871 56.9166 61.1233C57.0708 61.0594 57.2026 60.9513 57.2953 60.8125C57.388 60.6738 57.4375 60.5106 57.4375 60.3438C57.4375 60.12 57.3486 59.9054 57.1904 59.7471C57.0321 59.5889 56.8175 59.5 56.5938 59.5Z" stroke="#2266E2" stroke-width="4" stroke-linecap="round" stroke-linejoin="round"/>
<path d="M37.1875 40.9375V32.5C37.1875 29.3671 38.432 26.3626 40.6473 24.1473C42.8626 21.932 45.8671 20.6875 49 20.6875C52.1329 20.6875 55.1374 21.932 57.3527 24.1473C59.568 26.3626 60.8125 29.3671 60.8125 32.5V40.9375" stroke="#2266E2" stroke-width="3" stroke-linecap="round" stroke-linejoin="round"/>
<defs>
<linearGradient id="paint0_linear_20763_188565" x1="23.0118" y1="2" x2="77.2" y2="96" gradientUnits="userSpaceOnUse">
<stop stop-color="#5454D4"/>
<stop offset="1" stop-color="#F97468" stop-opacity="0.27"/>
</linearGradient>
</defs>
</svg>
