<svg width="32" height="32" viewBox="0 0 32 32" fill="none" xmlns="http://www.w3.org/2000/svg">
    <path d="M24 25.3333V13.3333C24 12.9797 23.8595 12.6406 23.6095 12.3905C23.3594 12.1405 23.0203 12 22.6667 12H1.33333C0.979711 12 0.640573 12.1405 0.390524 12.3905C0.140476 12.6406 0 12.9797 0 13.3333L0 25.3333C0 25.687 0.140476 26.0261 0.390524 26.2761C0.640573 26.5262 0.979711 26.6667 1.33333 26.6667H22.6667C23.0203 26.6667 23.3594 26.5262 23.6095 26.2761C23.8595 26.0261 24 25.687 24 25.3333ZM5.33333 20.164H4.50267C4.45854 20.164 4.41485 20.1727 4.37409 20.1896C4.33332 20.2065 4.29628 20.2312 4.26508 20.2624C4.23388 20.2936 4.20913 20.3307 4.19224 20.3714C4.17536 20.4122 4.16667 20.4559 4.16667 20.5V23.3333C4.16667 23.5543 4.07887 23.7663 3.92259 23.9226C3.76631 24.0789 3.55435 24.1667 3.33333 24.1667C3.11232 24.1667 2.90036 24.0789 2.74408 23.9226C2.5878 23.7663 2.5 23.5543 2.5 23.3333V15.3333C2.5 15.1123 2.5878 14.9004 2.74408 14.7441C2.90036 14.5878 3.11232 14.5 3.33333 14.5H5.33333C6.08478 14.5 6.80545 14.7985 7.3368 15.3299C7.86816 15.8612 8.16667 16.5819 8.16667 17.3333C8.16667 18.0848 7.86816 18.8054 7.3368 19.3368C6.80545 19.8682 6.08478 20.1667 5.33333 20.1667V20.164ZM10 24.164C9.77899 24.164 9.56703 24.0762 9.41074 23.9199C9.25446 23.7636 9.16667 23.5517 9.16667 23.3307V15.3307C9.16667 15.1097 9.25446 14.8977 9.41074 14.7414C9.56703 14.5851 9.77899 14.4973 10 14.4973C11.2819 14.4973 12.5113 15.0066 13.4177 15.913C14.3241 16.8194 14.8333 18.0488 14.8333 19.3307C14.8333 20.6125 14.3241 21.8419 13.4177 22.7483C12.5113 23.6548 11.2819 24.164 10 24.164ZM20.6667 16.164H18C17.8674 16.164 17.7402 16.2167 17.6464 16.3104C17.5527 16.4042 17.5 16.5314 17.5 16.664V18.1613C17.5 18.2504 17.5354 18.3359 17.5984 18.3989C17.6614 18.4619 17.7469 18.4973 17.836 18.4973H19.3333C19.5543 18.4973 19.7663 18.5851 19.9226 18.7414C20.0789 18.8977 20.1667 19.1097 20.1667 19.3307C20.1667 19.5517 20.0789 19.7636 19.9226 19.9199C19.7663 20.0762 19.5543 20.164 19.3333 20.164H17.836C17.7469 20.164 17.6614 20.1994 17.5984 20.2624C17.5354 20.3254 17.5 20.4109 17.5 20.5V23.3333C17.5 23.5543 17.4122 23.7663 17.2559 23.9226C17.0996 24.0789 16.8877 24.1667 16.6667 24.1667C16.4457 24.1667 16.2337 24.0789 16.0774 23.9226C15.9211 23.7663 15.8333 23.5543 15.8333 23.3333V16.6667C15.8333 16.0918 16.0615 15.5404 16.4678 15.1337C16.874 14.7269 17.4251 14.498 18 14.4973H20.6667C20.8877 14.4973 21.0996 14.5851 21.2559 14.7414C21.4122 14.8977 21.5 15.1097 21.5 15.3307C21.5 15.5517 21.4122 15.7636 21.2559 15.9199C21.0996 16.0762 20.8877 16.164 20.6667 16.164Z" fill="#FE6955"/>
    <path d="M31.6095 7.60667L24.3908 0.388005C24.2667 0.264508 24.1194 0.166679 23.9574 0.100105C23.7954 0.0335311 23.6219 -0.000482989 23.4468 5.181e-06H8.00016C7.29292 5.181e-06 6.61464 0.280957 6.11454 0.781054C5.61445 1.28115 5.3335 1.95943 5.3335 2.66667V10.3333C5.3335 10.4217 5.36861 10.5065 5.43113 10.569C5.49364 10.6316 5.57842 10.6667 5.66683 10.6667H7.66683C7.71083 10.6667 7.75439 10.658 7.79501 10.641C7.83563 10.6241 7.87249 10.5993 7.90348 10.5681C7.93447 10.5369 7.95896 10.4998 7.97556 10.4591C7.99215 10.4183 8.00051 10.3747 8.00016 10.3307V3.33334C8.00016 3.15653 8.0704 2.98696 8.19542 2.86193C8.32045 2.73691 8.49002 2.66667 8.66683 2.66667H22.3335C22.4219 2.66667 22.5067 2.70179 22.5692 2.7643C22.6317 2.82681 22.6668 2.9116 22.6668 3.00001V6.66667C22.6668 7.37392 22.9478 8.05219 23.4479 8.55229C23.948 9.05239 24.6263 9.33334 25.3335 9.33334H29.0002C29.0886 9.33334 29.1734 9.36846 29.2359 9.43097C29.2984 9.49348 29.3335 9.57827 29.3335 9.66667V28.6667C29.3335 28.8435 29.2633 29.0131 29.1382 29.1381C29.0132 29.2631 28.8436 29.3333 28.6668 29.3333H8.3335C8.24509 29.3333 8.16031 29.2982 8.09779 29.2357C8.03528 29.1732 8.00016 29.0884 8.00016 29V28.3333C8.00052 28.2896 7.99218 28.2462 7.97564 28.2057C7.95909 28.1652 7.93467 28.1283 7.90379 28.0973C7.87291 28.0663 7.83618 28.0417 7.79573 28.025C7.75528 28.0083 7.71192 27.9998 7.66816 28H5.66683C5.57842 28 5.49364 28.0351 5.43113 28.0976C5.36861 28.1601 5.3335 28.2449 5.3335 28.3333V29.3333C5.3335 30.0406 5.61445 30.7189 6.11454 31.219C6.61464 31.7191 7.29292 32 8.00016 32H29.3335C30.0407 32 30.719 31.7191 31.2191 31.219C31.7192 30.7189 32.0002 30.0406 32.0002 29.3333V8.54934C32.0001 8.19575 31.8596 7.85666 31.6095 7.60667Z" fill="#FE6955"/>
</svg>
