<svg width="41" height="75" viewBox="0 0 41 75" fill="none" xmlns="http://www.w3.org/2000/svg">
<path d="M20.8288 37.2842C22.379 37.2842 23.6357 38.5408 23.6357 40.091C23.6357 41.6412 22.379 42.8978 20.8288 42.8978C19.2787 42.8978 18.022 41.6412 18.022 40.091C18.022 38.5408 19.2787 37.2842 20.8288 37.2842ZM29.2493 37.2842C30.7995 37.2842 32.0561 38.5408 32.0561 40.091C32.0561 41.6412 30.7995 42.8978 29.2493 42.8978C27.6991 42.8978 26.4425 41.6412 26.4425 40.091C26.4425 38.5408 27.6991 37.2842 29.2493 37.2842ZM12.4084 37.2842C13.9585 37.2842 15.2152 38.5408 15.2152 40.091C15.2152 41.6412 13.9585 42.8978 12.4084 42.8978C10.8582 42.8978 9.60156 41.6412 9.60156 40.091C9.60156 38.5408 10.8582 37.2842 12.4084 37.2842ZM20.8288 44.769C22.379 44.769 23.6357 46.0257 23.6357 47.5758C23.6357 49.126 22.379 50.3827 20.8288 50.3827C19.2787 50.3827 18.022 49.126 18.022 47.5758C18.022 46.0257 19.2787 44.769 20.8288 44.769ZM29.2493 44.769C30.7995 44.769 32.0561 46.0257 32.0561 47.5758C32.0561 49.126 30.7995 50.3827 29.2493 50.3827C27.6991 50.3827 26.4425 49.126 26.4425 47.5758C26.4425 46.0257 27.6991 44.769 29.2493 44.769ZM12.4084 44.769C13.9585 44.769 15.2152 46.0257 15.2152 47.5758C15.2152 49.126 13.9585 50.3827 12.4084 50.3827C10.8582 50.3827 9.60156 49.126 9.60156 47.5758C9.60156 46.0257 10.8582 44.769 12.4084 44.769ZM20.8288 52.2539C22.379 52.2539 23.6357 53.5105 23.6357 55.0607C23.6357 56.6109 22.379 57.8675 20.8288 57.8675C19.2787 57.8675 18.022 56.6109 18.022 55.0607C18.022 53.5105 19.2787 52.2539 20.8288 52.2539ZM29.2493 52.2539C30.7995 52.2539 32.0561 53.5105 32.0561 55.0607C32.0561 56.6109 30.7995 57.8675 29.2493 57.8675C27.6991 57.8675 26.4425 56.6109 26.4425 55.0607C26.4425 53.5105 27.6991 52.2539 29.2493 52.2539ZM12.4084 52.2539C13.9585 52.2539 15.2152 53.5105 15.2152 55.0607C15.2152 56.6109 13.9585 57.8675 12.4084 57.8675C10.8582 57.8675 9.60156 56.6109 9.60156 55.0607C9.60156 53.5105 10.8582 52.2539 12.4084 52.2539ZM20.8288 59.7387C22.379 59.7387 23.6357 60.9954 23.6357 62.5455C23.6357 64.0957 22.379 65.3524 20.8288 65.3524C19.2787 65.3524 18.022 64.0957 18.022 62.5455C18.022 60.9954 19.2787 59.7387 20.8288 59.7387Z" fill="#2266E2"/>
<path d="M32.8125 75H7.8125C3.50469 75 0 71.4953 0 67.1875V7.8125C0 3.50469 3.50469 0 7.8125 0H32.8125C37.1203 0 40.625 3.50469 40.625 7.8125V67.1875C40.625 71.4953 37.1203 75 32.8125 75ZM7.8125 3.125C5.22813 3.125 3.125 5.22813 3.125 7.8125V67.1875C3.125 69.7719 5.22813 71.875 7.8125 71.875H32.8125C35.3969 71.875 37.5 69.7719 37.5 67.1875V7.8125C37.5 5.22813 35.3969 3.125 32.8125 3.125H7.8125Z" fill="#2266E2"/>
<path d="M20.3125 9.3753C19.45 9.3753 18.75 8.6753 18.75 7.8128V7.36593C18.75 6.50343 19.45 5.80343 20.3125 5.80343C21.175 5.80343 21.875 6.50343 21.875 7.36593V7.8128C21.875 8.6753 21.175 9.3753 20.3125 9.3753Z" fill="#2266E2"/>
</svg>
