<svg width="46" height="46" viewBox="0 0 46 46" fill="none" xmlns="http://www.w3.org/2000/svg">
<circle cx="23" cy="23" r="23" fill="#FFC117"/>
<path d="M32.4984 19.7807L19.7785 13.4208C19.2799 13.1359 18.7138 12.9907 18.1397 13.0005C17.5656 13.0102 17.0047 13.1746 16.5161 13.4762C16.0275 13.7778 15.6293 14.2056 15.3633 14.7145C15.0973 15.2233 14.9735 15.7945 15.0047 16.3679V28.7186C14.982 29.2899 15.1087 29.8572 15.3722 30.3646C15.6357 30.872 16.0269 31.3019 16.5073 31.612C16.997 31.9137 17.5612 32.0728 18.1364 32.0713C18.7048 32.0652 19.264 31.9271 19.7699 31.6678L32.4898 25.3078C33.0427 25.0875 33.5168 24.7063 33.8508 24.2137C34.1847 23.721 34.3633 23.1395 34.3633 22.5443C34.3633 21.9491 34.1847 21.3676 33.8508 20.8749C33.5168 20.3822 33.0427 20.0011 32.4898 19.7807H32.4984Z" fill="white"/>
</svg>
