<svg width="22" height="22" viewBox="0 0 22 22" fill="none" xmlns="http://www.w3.org/2000/svg">
<g clip-path="url(#clip0)">
<path d="M11 15.8125C10.932 15.8125 10.8656 15.8327 10.809 15.8705C10.7525 15.9082 10.7084 15.9619 10.6824 16.0247C10.6564 16.0875 10.6496 16.1567 10.6629 16.2233C10.6761 16.29 10.7089 16.3513 10.7569 16.3993C10.805 16.4474 10.8663 16.4802 10.9329 16.4934C10.9996 16.5067 11.0687 16.4999 11.1315 16.4739C11.1944 16.4478 11.248 16.4038 11.2858 16.3473C11.3236 16.2907 11.3437 16.2243 11.3437 16.1563C11.3437 16.0651 11.3075 15.9777 11.2431 15.9132C11.1786 15.8487 11.0912 15.8125 11 15.8125Z" fill="#2266E2"/>
<path d="M8.25 8.25003C8.2501 7.74588 8.38877 7.25147 8.65088 6.82082C8.91298 6.39017 9.28842 6.03986 9.73617 5.80817C10.1839 5.57648 10.6867 5.47233 11.1897 5.5071C11.6926 5.54187 12.1763 5.71423 12.5879 6.00534C12.9995 6.29644 13.3232 6.69509 13.5235 7.15771C13.7239 7.62034 13.7932 8.12913 13.7239 8.62849C13.6546 9.12785 13.4494 9.59855 13.1307 9.98915C12.8119 10.3798 12.392 10.6752 11.9167 10.8433C11.6485 10.9381 11.4163 11.1138 11.2521 11.3461C11.0879 11.5784 10.9999 11.8559 11 12.1404V13.0625M11 15.8125C10.932 15.8125 10.8656 15.8327 10.809 15.8705C10.7525 15.9082 10.7084 15.9619 10.6824 16.0247C10.6564 16.0875 10.6496 16.1567 10.6629 16.2233C10.6761 16.29 10.7089 16.3513 10.7569 16.3993C10.805 16.4474 10.8663 16.4802 10.9329 16.4934C10.9996 16.5067 11.0687 16.4999 11.1315 16.4739C11.1944 16.4478 11.248 16.4038 11.2858 16.3473C11.3236 16.2907 11.3437 16.2243 11.3437 16.1563C11.3437 16.0651 11.3075 15.9777 11.2431 15.9132C11.1786 15.8487 11.0912 15.8125 11 15.8125Z" stroke="#2266E2" stroke-width="1.5" stroke-linecap="round" stroke-linejoin="round"/>
<path d="M11 21.3125C16.6954 21.3125 21.3125 16.6954 21.3125 11C21.3125 5.30456 16.6954 0.6875 11 0.6875C5.30456 0.6875 0.6875 5.30456 0.6875 11C0.6875 16.6954 5.30456 21.3125 11 21.3125Z" stroke="#2266E2" stroke-width="1.5" stroke-miterlimit="10"/>
</g>
<defs>
<clipPath id="clip0">
<rect width="22" height="22" fill="white"/>
</clipPath>
</defs>
</svg>
