<svg width="14" height="14" viewBox="0 0 14 14" fill="none" xmlns="http://www.w3.org/2000/svg">
<path d="M6.99903 0C5.61456 0 4.26118 0.410543 3.11003 1.17971C1.95889 1.94888 1.06168 3.04213 0.53187 4.32122C0.00205644 5.6003 -0.136567 7.00776 0.13353 8.36563C0.403626 9.7235 1.07031 10.9708 2.04928 11.9497C3.02825 12.9287 4.27553 13.5954 5.6334 13.8655C6.99126 14.1356 8.39873 13.997 9.67781 13.4672C10.9569 12.9373 12.0501 12.0401 12.8193 10.889C13.5885 9.73785 13.999 8.38447 13.999 7C13.997 5.1441 13.2589 3.36479 11.9466 2.05247C10.6342 0.74015 8.85493 0.0020073 6.99903 0V0ZM6.99903 11.0833C6.82597 11.0833 6.6568 11.032 6.5129 10.9359C6.36901 10.8397 6.25686 10.7031 6.19063 10.5432C6.12441 10.3833 6.10708 10.2074 6.14084 10.0376C6.1746 9.8679 6.25794 9.71199 6.38031 9.58961C6.50268 9.46724 6.65859 9.38391 6.82832 9.35015C6.99806 9.31638 7.17399 9.33371 7.33388 9.39994C7.49376 9.46617 7.63042 9.57832 7.72656 9.72221C7.82271 9.8661 7.87403 10.0353 7.87403 10.2083C7.87403 10.4404 7.78184 10.663 7.61775 10.8271C7.45365 10.9911 7.23109 11.0833 6.99903 11.0833ZM7.93236 7.53667C7.82829 7.58209 7.73974 7.65689 7.67756 7.75191C7.61539 7.84693 7.58231 7.95803 7.58236 8.07158C7.58236 8.22629 7.5209 8.37467 7.41151 8.48406C7.30211 8.59346 7.15374 8.65492 6.99903 8.65492C6.84432 8.65492 6.69594 8.59346 6.58655 8.48406C6.47715 8.37467 6.41569 8.22629 6.41569 8.07158C6.41564 7.73103 6.51496 7.39786 6.70147 7.11291C6.88797 6.82797 7.15357 6.60364 7.46569 6.46742C7.6585 6.38327 7.82496 6.24856 7.94746 6.07755C8.06997 5.90653 8.14395 5.70558 8.16159 5.49595C8.17922 5.28633 8.13985 5.07584 8.04764 4.88676C7.95543 4.69768 7.81382 4.53706 7.63779 4.42188C7.46175 4.30671 7.25785 4.24127 7.04767 4.2325C6.83749 4.22373 6.62885 4.27195 6.44383 4.37205C6.25882 4.47216 6.10431 4.62043 5.99667 4.80117C5.88902 4.98191 5.83225 5.18839 5.83236 5.39875C5.83236 5.55346 5.7709 5.70183 5.66151 5.81123C5.55211 5.92062 5.40374 5.98208 5.24903 5.98208C5.09432 5.98208 4.94594 5.92062 4.83655 5.81123C4.72715 5.70183 4.66569 5.55346 4.66569 5.39875C4.66569 4.97807 4.77941 4.56522 4.99483 4.20388C5.21025 3.84254 5.51934 3.54616 5.88941 3.34611C6.25948 3.14605 6.67674 3.04977 7.09705 3.06744C7.51735 3.08511 7.92507 3.21609 8.27703 3.4465C8.629 3.67691 8.91213 3.99819 9.09645 4.37634C9.28078 4.75448 9.35944 5.17543 9.32412 5.59462C9.2888 6.01381 9.14081 6.41566 8.89581 6.75763C8.65081 7.0996 8.31792 7.36898 7.93236 7.53725V7.53667Z" fill="#5ABAFF"/>
</svg>
