<svg width="24" height="24" viewBox="0 0 24 24" fill="none" xmlns="http://www.w3.org/2000/svg">
<path d="M4.8506 7.00651L4.8506 7.0066C4.82794 7.36597 4.53006 7.64622 4.16948 7.64622H4.16947H4.16947H4.16946H4.16946H4.16945H4.16945H4.16944H4.16943H4.16943H4.16942H4.16942H4.16941H4.16941H4.1694H4.1694H4.16939H4.16938H4.16938H4.16937H4.16937H4.16936H4.16936H4.16935H4.16935H4.16934H4.16933H4.16933H4.16932H4.16932H4.16931H4.16931H4.1693H4.1693H4.16929H4.16929H4.16928H4.16927H4.16927H4.16926H4.16926H4.16925H4.16925H4.16924H4.16924H4.16923H4.16922H4.16922H4.16921H4.16921H4.1692H4.1692H4.16919H4.16919H4.16918H4.16917H4.16917H4.16916H4.16916H4.16915H4.16915H4.16914H4.16914H4.16913H4.16913H4.16912H4.16911H4.16911H4.1691H4.1691H4.16909H4.16909H4.16908H4.16908H4.16907H4.16906H4.16906H4.16905H4.16905H4.16904H4.16904H4.16903H4.16903H4.16902H4.16901H4.16901H4.169H4.169H4.16899H4.16899H4.16898H4.16898H4.16897H4.16896H4.16896H4.16895H4.16895H4.16894H4.16894H4.16893H4.16893H4.16892H4.16892H4.16891H4.1689H4.1689H4.16889H4.16889H4.16888H4.16888H4.16887H4.16887H4.16886H4.16885H4.16885H4.16884H4.16884H4.16883H4.16883H4.16882H4.16882H4.16881H4.1688H4.1688H4.16879H4.16879H4.16878H4.16878H4.16877H4.16877H4.16876H4.16876H4.16875H4.16874H4.16874H4.16873H4.16873H4.16872H4.16872H4.16871H4.16871H4.1687H4.16869H4.16869H4.16868H4.16868H4.16867H4.16867H4.16866H4.16866H4.16865H4.16864H4.16864H4.16863H4.16863H4.16862H4.16862H4.16861H4.16861H4.1686H4.1686H4.16859H4.16858H4.16858H4.16857H4.16857H4.16856H4.16856H4.16855H4.16855H4.16854H4.16853H4.16853H4.16852H4.16852H4.16851H4.16851H4.1685H4.1685H4.16849H4.16848H4.16848H4.16847H4.16847H4.16846H4.16846H4.16845H4.16845H4.16844H4.16843H4.16843H4.16842H4.16842H4.16841H4.16841H4.1684H4.1684H4.16839H4.16839H4.16838H4.16837H4.16837H4.16836H4.16836H4.16835H4.16835H4.16834H4.16834H4.16833H4.16832H4.16832H4.16831H4.16831H4.1683H4.1683H4.16829H4.16829H4.16828H4.16827H4.16827H4.16826H4.16826H4.16825H4.16825H4.16824H4.16824H4.16823H4.16823H4.16822H4.16821H4.16821H4.1682H4.1682H4.16819H4.16819H4.16818H4.16818H4.16817H4.16816H4.16816H4.16815H4.16815H4.16814H4.16814H4.16813H4.16813H4.16812H4.16811H4.16811H4.1681H4.1681H4.16809H4.16809H4.16808H4.16808H4.16807H4.16806C2.73822 7.64622 1.58593 8.79963 1.58593 10.216C1.58593 11.633 2.73924 12.7862 4.15676 12.7862H5.08311C6.32289 10.211 8.95317 8.42453 12 8.42453C15.0468 8.42453 17.677 10.211 18.9168 12.7862H19.8432C21.2607 12.7862 22.414 11.633 22.414 10.216C22.414 9.29672 21.9154 8.44059 21.1125 7.98276L4.8506 7.00651ZM4.8506 7.00651C4.96085 5.24531 6.42927 3.86539 8.19262 3.86539C9.04637 3.86539 9.86107 4.18955 10.4876 4.77905L10.4878 4.77921M4.8506 7.00651L10.4878 4.77921M10.4878 4.77921C10.6512 4.93261 10.8784 4.99519 11.0965 4.94978L11.0972 4.94963M10.4878 4.77921L11.0972 4.94963M11.0972 4.94963C11.3162 4.90324 11.4981 4.75218 11.5846 4.54622L11.5846 4.54614M11.0972 4.94963L11.5846 4.54614M11.5846 4.54614C12.3393 2.7475 14.0858 1.58578 16.0354 1.58578M11.5846 4.54614L16.0354 1.58578M16.0354 1.58578C18.6953 1.58578 20.8597 3.74975 20.8597 6.40898M16.0354 1.58578L20.8597 6.40898M20.8597 6.40898C20.8597 6.68115 20.8332 6.96255 20.7785 7.27005M20.8597 6.40898L20.7785 7.27005M20.7785 7.27005C20.7278 7.55399 20.861 7.83959 21.1123 7.98267L20.7785 7.27005ZM4.15676 14.1509H4.57534C4.41079 14.7738 4.32096 15.4271 4.32096 16.1016C4.32096 20.3352 7.76559 23.779 12 23.779C16.2343 23.779 19.679 20.3352 19.679 16.1016C19.679 15.4271 19.5891 14.7738 19.4246 14.1509H19.8432C22.0135 14.1509 23.7789 12.3859 23.7789 10.216C23.7789 8.96642 23.1793 7.79548 22.1879 7.05836C22.2126 6.83721 22.2246 6.62218 22.2246 6.40898C22.2246 2.9967 19.448 0.221082 16.0354 0.221082C13.8301 0.221082 11.8258 1.38078 10.7198 3.23743C9.96856 2.75817 9.09621 2.50069 8.19262 2.50069C5.91193 2.50069 3.9838 4.13816 3.56393 6.32536C1.67383 6.61228 0.221021 8.24723 0.221021 10.216C0.221021 12.3859 1.98648 14.1509 4.15676 14.1509ZM12 22.4143C8.51835 22.4143 5.68587 19.5821 5.68587 16.1016C5.68587 12.6211 8.51834 9.78923 12 9.78923C15.4816 9.78923 18.3141 12.6211 18.3141 16.1016C18.3141 19.5821 15.4816 22.4143 12 22.4143Z" fill="#2266E2" stroke="#2266E2" stroke-width="0.4"/>
<path d="M11.3319 12.1819C11.398 12.498 11.6773 12.724 11.9997 12.724C13.8625 12.724 15.3781 14.2393 15.3781 16.1015C15.3781 16.4784 15.6834 16.7839 16.0605 16.7839C16.4377 16.7839 16.743 16.4784 16.743 16.1015C16.743 14.2301 15.6534 12.6093 14.0762 11.8383C14.29 11.6468 14.367 11.3328 14.2455 11.0559L14.2454 11.0556C14.0937 10.7113 13.6919 10.5534 13.346 10.7054C13.3459 10.7054 13.3459 10.7054 13.3459 10.7054L11.7252 11.4169M11.3319 12.1819C11.2653 11.8656 11.43 11.5465 11.7252 11.4169M11.3319 12.1819C11.3319 12.1818 11.3319 12.1817 11.3318 12.1817L11.5276 12.1408M11.3319 12.1819C11.3319 12.1819 11.3319 12.182 11.3319 12.182L11.5276 12.1408M11.7252 11.4169L11.8056 11.6M11.7252 11.4169L11.7252 11.4169L11.8056 11.6M11.8056 11.6C11.5969 11.6916 11.4805 11.9173 11.5276 12.1408M11.8056 11.6L11.5276 12.1408" fill="#2266E2" stroke="#2266E2" stroke-width="0.4"/>
<path d="M10.147 21.5992L10.1471 21.5992C10.2817 21.7725 10.4834 21.863 10.6866 21.863C10.8326 21.863 10.9802 21.8163 11.1046 21.7198L11.1046 21.7198L12.4182 20.7007C12.6487 20.5218 12.7401 20.2165 12.6455 19.9404L12.6454 19.9403C12.5508 19.6645 12.2915 19.4792 11.9997 19.4792C10.137 19.4792 8.62133 17.9639 8.62133 16.1017C8.62133 15.7249 8.31603 15.4193 7.93888 15.4193C7.56173 15.4193 7.25642 15.7249 7.25642 16.1017C7.25642 18.1471 8.55807 19.8934 10.3759 20.5576L10.2677 20.6415C10.2677 20.6415 10.2677 20.6416 10.2677 20.6416C9.96968 20.8726 9.91583 21.3014 10.147 21.5992Z" fill="#2266E2" stroke="#2266E2" stroke-width="0.4"/>
</svg>
