<svg width="20" height="20" viewBox="0 0 20 20" fill="none" xmlns="http://www.w3.org/2000/svg">
<path d="M5.28379 11.5691V14.7128H2.14014" stroke="#717171" stroke-width="1.2" stroke-linecap="round" stroke-linejoin="round"/>
<path d="M14.7148 8.42549V5.28183H17.8585" stroke="#717171" stroke-width="1.2" stroke-linecap="round" stroke-linejoin="round"/>
<path d="M14.9117 5.27972C15.9957 6.40905 16.6577 7.87722 16.7863 9.4373C16.915 10.9974 16.5025 12.5542 15.6182 13.8459C14.7339 15.1375 13.4318 16.0853 11.9308 16.5297C10.4299 16.9741 8.82164 16.888 7.37666 16.286M5.08598 14.7149C4.00434 13.585 3.3444 12.1173 3.21699 10.5584C3.08957 8.99941 3.50244 7.44407 4.38625 6.15354C5.27007 4.863 6.57101 3.91586 8.07063 3.47116C9.57025 3.02647 11.1772 3.11129 12.6217 3.71139" stroke="#717171" stroke-width="1.2" stroke-linecap="round" stroke-linejoin="round"/>
</svg>
