<svg width="12" height="14" viewBox="0 0 12 14" fill="none" xmlns="http://www.w3.org/2000/svg">
<path d="M7.39777 11.945L5.44903 12.3949C5.36289 12.4148 5.28818 12.4681 5.24133 12.543C5.19448 12.618 5.17933 12.7085 5.19922 12.7947C5.27877 13.1392 5.49193 13.4381 5.79182 13.6255C6.09171 13.8129 6.45376 13.8734 6.79832 13.7939C7.14288 13.7143 7.44172 13.5012 7.62911 13.2013C7.8165 12.9014 7.87709 12.5394 7.79754 12.1948C7.77766 12.1087 7.72436 12.034 7.64939 11.9871C7.57442 11.9403 7.48391 11.9251 7.39777 11.945ZM10.5206 9.17144C10.3483 9.21121 10.1673 9.18092 10.0173 9.08722C9.86736 8.99353 9.76078 8.8441 9.72101 8.67182L9.04616 5.74871C8.52862 3.50701 6.69117 1.97029 4.76738 2.03334L4.52353 0.977119C4.48376 0.80484 4.37718 0.655417 4.22723 0.561722C4.07729 0.468026 3.89626 0.437733 3.72399 0.477507C3.55171 0.517281 3.40228 0.623863 3.30859 0.773807C3.21489 0.923752 3.1846 1.10477 3.22437 1.27705L3.46837 2.33392C1.71164 3.12059 0.733807 5.30727 1.25119 7.54832L1.92605 10.4714C1.96582 10.6437 1.93553 10.8247 1.84183 10.9747C1.74814 11.1246 1.59871 11.2312 1.42643 11.271C1.25415 11.3108 1.10473 11.4173 1.01104 11.5673C0.917341 11.7172 0.887048 11.8982 0.926822 12.0705C0.966595 12.2428 1.07318 12.3922 1.22312 12.4859C1.37307 12.5796 1.55409 12.6099 1.72637 12.5701L10.8205 10.4706C10.9928 10.4308 11.1422 10.3242 11.2359 10.1743C11.3296 10.0244 11.3599 9.84333 11.3201 9.67105C11.2803 9.49877 11.1737 9.34935 11.0238 9.25565C10.8739 9.16195 10.6928 9.13166 10.5206 9.17144Z" fill="#2266E2"/>
</svg>
