<svg width="28" height="20" viewBox="0 0 28 20" fill="none" xmlns="http://www.w3.org/2000/svg">
<path d="M15.509 17.561H12.5822C12.4528 17.561 12.3287 17.6124 12.2373 17.7039C12.1458 17.7953 12.0944 17.9194 12.0944 18.0488C12.0944 18.5663 12.3 19.0626 12.6659 19.4285C13.0318 19.7944 13.5281 20 14.0456 20C14.5631 20 15.0594 19.7944 15.4253 19.4285C15.7912 19.0626 15.9968 18.5663 15.9968 18.0488C15.9968 17.9194 15.9454 17.7953 15.8539 17.7039C15.7625 17.6124 15.6384 17.561 15.509 17.561ZM20.8749 14.6341C20.6161 14.6341 20.368 14.5314 20.185 14.3484C20.002 14.1654 19.8993 13.9173 19.8993 13.6585V9.26829C19.8993 5.90146 17.7851 3.10537 15.0212 2.56195V0.97561C15.0212 0.716862 14.9184 0.468712 14.7355 0.285749C14.5525 0.102787 14.3044 0 14.0456 0C13.7869 0 13.5387 0.102787 13.3557 0.285749C13.1728 0.468712 13.07 0.716862 13.07 0.97561V2.56293C10.3061 3.10634 8.19194 5.90244 8.19194 9.26829V13.6585C8.19194 13.9173 8.08916 14.1654 7.90619 14.3484C7.72323 14.5314 7.47508 14.6341 7.21633 14.6341C6.95758 14.6341 6.70943 14.7369 6.52647 14.9199C6.34351 15.1029 6.24072 15.351 6.24072 15.6098C6.24072 15.8685 6.34351 16.1167 6.52647 16.2996C6.70943 16.4826 6.95758 16.5854 7.21633 16.5854H20.8749C21.1336 16.5854 21.3818 16.4826 21.5647 16.2996C21.7477 16.1167 21.8505 15.8685 21.8505 15.6098C21.8505 15.351 21.7477 15.1029 21.5647 14.9199C21.3818 14.7369 21.1336 14.6341 20.8749 14.6341Z" fill="#717171"/>
<path d="M4.54562 2.85782C4.79909 2.80638 5.06262 2.85769 5.27827 3.00048C5.38521 3.07133 5.47713 3.16257 5.54877 3.26899C5.62041 3.3754 5.67035 3.4949 5.69575 3.62064C5.72115 3.74638 5.7215 3.87589 5.69679 4.00177C5.67207 4.12764 5.62278 4.24741 5.55172 4.35421C5.03639 5.11454 4.71795 5.99095 4.625 6.90475C4.54654 7.81986 4.69761 8.74009 5.06455 9.58209C5.11813 9.70073 5.14742 9.8289 5.1507 9.95904C5.15398 10.0892 5.13118 10.2187 5.08365 10.3398C5.03611 10.461 4.96481 10.5715 4.87393 10.6647C4.78305 10.7579 4.67443 10.832 4.55448 10.8826C4.43453 10.9331 4.30567 10.9592 4.17549 10.9592C4.04531 10.9592 3.91644 10.9332 3.79648 10.8826C3.67652 10.8321 3.56789 10.758 3.477 10.6648C3.3861 10.5716 3.31477 10.4612 3.26722 10.34C2.76878 9.20313 2.56778 7.95812 2.68312 6.72214C2.79846 5.48616 3.22636 4.29984 3.92654 3.27481C4.06947 3.05925 4.29214 2.90926 4.54562 2.85782Z" fill="#717171"/>
<path d="M23.1014 2.85782C22.8479 2.80638 22.5844 2.85769 22.3687 3.00048C22.2618 3.07133 22.1698 3.16257 22.0982 3.26899C22.0266 3.3754 21.9766 3.4949 21.9512 3.62064C21.9258 3.74638 21.9255 3.87589 21.9502 4.00177C21.9749 4.12764 22.0242 4.24741 22.0953 4.35421C22.6106 5.11454 22.929 5.99095 23.022 6.90475C23.1004 7.81986 22.9494 8.74009 22.5824 9.58209C22.5288 9.70073 22.4996 9.8289 22.4963 9.95904C22.493 10.0892 22.5158 10.2187 22.5633 10.3398C22.6109 10.461 22.6822 10.5715 22.773 10.6647C22.8639 10.7579 22.9725 10.832 23.0925 10.8826C23.2124 10.9331 23.3413 10.9592 23.4715 10.9592C23.6017 10.9592 23.7305 10.9332 23.8505 10.8826C23.9704 10.8321 24.0791 10.758 24.17 10.6648C24.2609 10.5716 24.3322 10.4612 24.3798 10.34C24.8782 9.20313 25.0792 7.95812 24.9639 6.72214C24.8485 5.48616 24.4206 4.29984 23.7204 3.27481C23.5775 3.05925 23.3548 2.90926 23.1014 2.85782Z" fill="#717171"/>
</svg>
