<svg width="45" height="39" viewBox="0 0 45 39" fill="none" xmlns="http://www.w3.org/2000/svg">
<path d="M23.9099 18.6804C25.0747 18.6804 26.019 17.7393 26.019 16.5783C26.019 15.4174 25.0747 14.4763 23.9099 14.4763C22.7451 14.4763 21.8008 15.4174 21.8008 16.5783C21.8008 17.7393 22.7451 18.6804 23.9099 18.6804Z" fill="#2266E2"/>
<path d="M9.84838 18.6804C11.0132 18.6804 11.9575 17.7393 11.9575 16.5783C11.9575 15.4174 11.0132 14.4763 9.84838 14.4763C8.68354 14.4763 7.73926 15.4174 7.73926 16.5783C7.73926 17.7393 8.68354 18.6804 9.84838 18.6804Z" fill="#2266E2"/>
<path d="M16.8786 18.6804C18.0435 18.6804 18.9878 17.7393 18.9878 16.5783C18.9878 15.4174 18.0435 14.4763 16.8786 14.4763C15.7138 14.4763 14.7695 15.4174 14.7695 16.5783C14.7695 17.7393 15.7138 18.6804 16.8786 18.6804Z" fill="#2266E2"/>
<path d="M29.5331 5.46567C26.6219 2.29398 22.6024 0.353841 18.3005 0.0438208C13.9986 -0.266199 9.74094 1.07744 6.40212 3.79871C3.0633 6.51998 0.896886 10.4123 0.347922 14.6759C-0.201042 18.9396 0.909131 23.2509 3.45038 26.7242L0.792888 29.1905L0.680402 29.2886C0.348221 29.6324 0.125238 30.0662 0.0393999 30.5358C-0.0464384 31.0053 0.00868699 31.4896 0.197867 31.9281C0.387048 32.3665 0.701866 32.7396 1.10287 33.0004C1.50387 33.2613 1.9732 33.3984 2.45206 33.3946H15.5848C16.5563 34.4657 17.6621 35.4077 18.8751 36.1973H4.60336C4.23045 36.1973 3.8728 36.3449 3.60911 36.6077C3.34542 36.8705 3.19728 37.227 3.19728 37.5986C3.19728 37.9703 3.34542 38.3267 3.60911 38.5896C3.8728 38.8524 4.23045 39 4.60336 39H42.5675C43.2126 39 43.8313 38.7446 44.2875 38.2899C44.7437 37.8353 45 37.2186 45 36.5757C44.9985 36.2423 44.9291 35.9128 44.7962 35.6069C44.6633 35.301 44.4695 35.0251 44.2267 34.7959L41.5692 32.3296C43.3803 29.9302 44.5139 27.0914 44.8521 24.1079C45.1903 21.1244 44.7209 18.105 43.4926 15.3634C42.2642 12.6219 40.3218 10.258 37.867 8.51751C35.4122 6.77697 32.5346 5.72321 29.5331 5.46567ZM16.3301 30.5919H3.40819L6.33284 27.8733C6.60203 27.6225 6.7617 27.2764 6.77747 26.9095C6.79325 26.5426 6.66388 26.1842 6.4172 25.9114C4.27263 23.5174 3.0175 20.4624 2.8616 17.2569C2.7057 14.0514 3.65847 10.8897 5.56067 8.30022C7.46287 5.71076 10.1992 3.85047 13.3124 3.03028C16.4255 2.21009 19.7268 2.4797 22.6645 3.79405C25.6021 5.1084 27.9981 7.38784 29.452 10.2514C30.9058 13.1149 31.3294 16.389 30.652 19.5265C29.9746 22.6639 28.2372 25.4746 25.7302 27.4886C23.2232 29.5027 20.0985 30.5982 16.8784 30.5919H16.3301ZM38.6726 33.4787L41.5973 36.1973H28.1271C24.9751 36.1966 21.9149 35.1404 19.4375 33.1984L19.9015 33.1003L20.5764 32.9742L21.4763 32.736L22.1231 32.5538L22.9949 32.2315L23.5995 31.9932C23.9088 31.8671 24.2041 31.713 24.4994 31.5588L25.0056 31.3066C25.3711 31.1104 25.7227 30.8862 26.0742 30.662C26.1617 30.6108 26.2462 30.5546 26.3273 30.4938C26.7491 30.2135 27.1709 29.9052 27.5646 29.5829L27.9161 29.2746C28.1833 29.0364 28.4645 28.7982 28.7176 28.5459L29.1254 28.1115L29.7722 27.4108L30.1659 26.9063C30.3487 26.6681 30.5455 26.4299 30.7142 26.1776L31.0798 25.6311C31.2345 25.3789 31.4032 25.1266 31.5438 24.8604C31.6844 24.5941 31.7688 24.468 31.8672 24.2718C31.9656 24.0756 32.1344 23.7393 32.2609 23.473L32.5281 22.8424C32.6406 22.5621 32.739 22.2819 32.8374 21.9876C32.9358 21.6933 32.9921 21.5672 33.0483 21.357C33.1046 21.1468 33.2171 20.7404 33.2874 20.4321C33.3476 20.2298 33.3945 20.0238 33.428 19.8155C33.4983 19.4652 33.5545 19.1008 33.5967 18.7505C33.6389 18.4001 33.5967 18.4001 33.667 18.218C33.7232 17.6732 33.7513 17.126 33.7514 16.5784C33.7489 15.9602 33.7114 15.3426 33.6389 14.7286C33.6389 14.5744 33.6389 14.4063 33.6389 14.2381C33.5545 13.7336 33.4701 13.2292 33.3436 12.7247C33.3436 12.6266 33.3436 12.5145 33.2733 12.4024C33.1226 11.8181 32.9395 11.2427 32.7249 10.6787L32.5562 10.2583C32.3734 9.80986 32.1625 9.36142 31.9375 8.85694C31.9375 8.77286 31.8672 8.67476 31.825 8.59068C34.1392 9.21479 36.2548 10.4182 37.9709 12.0867C39.687 13.7552 40.9465 15.8332 41.6298 18.1234C42.3132 20.4137 42.3976 22.84 41.8751 25.1719C41.3526 27.5038 40.2405 29.6638 38.6445 31.4467C38.508 31.5795 38.4001 31.7386 38.3273 31.9143C38.2544 32.09 38.2182 32.2786 38.2209 32.4687C38.2235 32.6588 38.2649 32.8464 38.3426 33.02C38.4202 33.1936 38.5325 33.3497 38.6726 33.4787Z" fill="#2266E2"/>
</svg>
