<svg width="22" height="23" viewBox="0 0 22 23" fill="none" xmlns="http://www.w3.org/2000/svg">
<g filter="url(#filter0_d_11101_93066)">
<path d="M17.5892 10.1454C16.7558 10.1454 15.973 9.82242 15.3849 9.23593C14.797 8.64975 14.4733 7.86901 14.4733 7.03756C14.4733 6.80968 14.2893 6.625 14.0626 6.625C13.8357 6.625 13.6518 6.80968 13.6518 7.03756C13.6518 7.86901 13.328 8.64975 12.7401 9.23593C12.152 9.82242 11.3692 10.1454 10.5358 10.1454C10.3089 10.1454 10.125 10.3301 10.125 10.5579C10.125 10.7858 10.3089 10.9705 10.5358 10.9705C12.2539 10.9705 13.6518 12.3688 13.6518 14.0874C13.6518 14.3153 13.8357 14.5 14.0626 14.5C14.2893 14.5 14.4733 14.3153 14.4733 14.0874C14.4733 12.3688 15.8711 10.9705 17.5892 10.9705C17.8161 10.9705 18 10.7858 18 10.5579C18 10.3301 17.8161 10.1454 17.5892 10.1454Z" fill="#2266E2"/>
</g>
<g filter="url(#filter1_d_11101_93066)">
<path d="M9.70783 6.64013C8.47925 6.64013 7.47967 5.64376 7.47967 4.41893C7.47967 4.18765 7.29292 4 7.0625 4C6.83208 4 6.64533 4.18765 6.64533 4.41893C6.64533 5.64376 5.64575 6.64013 4.41717 6.64013C4.18675 6.64013 4 6.82778 4 7.05906C4 7.29046 4.18675 7.47799 4.41717 7.47799C5.64575 7.47799 6.64533 8.47754 6.64533 9.70607C6.64533 9.93735 6.83208 10.125 7.0625 10.125C7.29292 10.125 7.47967 9.93735 7.47967 9.70607C7.47967 8.47754 8.47925 7.47799 9.70783 7.47799C9.93825 7.47799 10.125 7.29046 10.125 7.05906C10.125 6.82778 9.93825 6.64013 9.70783 6.64013Z" fill="#2266E2"/>
</g>
<g filter="url(#filter2_d_11101_93066)">
<path d="M10.494 3.06032C11.2932 3.06032 11.9435 3.70821 11.9435 4.5045C11.9435 4.70905 12.1087 4.875 12.3125 4.875C12.5163 4.875 12.6815 4.70905 12.6815 4.5045C12.6815 3.70561 13.3318 3.05569 14.131 3.05569C14.3348 3.05569 14.5 2.88973 14.5 2.68518C14.5 2.48054 14.3348 2.31468 14.131 2.31468C13.3318 2.31468 12.6815 1.66679 12.6815 0.870501C12.6815 0.665857 12.5163 0.5 12.3125 0.5C12.1087 0.5 11.9435 0.665857 11.9435 0.870501C11.9435 1.66939 11.2932 2.31931 10.494 2.31931C10.2902 2.31931 10.125 2.48517 10.125 2.68982C10.125 2.89446 10.2902 3.06032 10.494 3.06032Z" fill="#2266E2"/>
</g>
<defs>
<filter id="filter0_d_11101_93066" x="6.125" y="6.625" width="15.875" height="15.875" filterUnits="userSpaceOnUse" color-interpolation-filters="sRGB">
<feFlood flood-opacity="0" result="BackgroundImageFix"/>
<feColorMatrix in="SourceAlpha" type="matrix" values="0 0 0 0 0 0 0 0 0 0 0 0 0 0 0 0 0 0 127 0" result="hardAlpha"/>
<feOffset dy="4"/>
<feGaussianBlur stdDeviation="2"/>
<feColorMatrix type="matrix" values="0 0 0 0 0 0 0 0 0 0 0 0 0 0 0 0 0 0 0.05 0"/>
<feBlend mode="normal" in2="BackgroundImageFix" result="effect1_dropShadow_11101_93066"/>
<feBlend mode="normal" in="SourceGraphic" in2="effect1_dropShadow_11101_93066" result="shape"/>
</filter>
<filter id="filter1_d_11101_93066" x="0" y="4" width="14.125" height="14.125" filterUnits="userSpaceOnUse" color-interpolation-filters="sRGB">
<feFlood flood-opacity="0" result="BackgroundImageFix"/>
<feColorMatrix in="SourceAlpha" type="matrix" values="0 0 0 0 0 0 0 0 0 0 0 0 0 0 0 0 0 0 127 0" result="hardAlpha"/>
<feOffset dy="4"/>
<feGaussianBlur stdDeviation="2"/>
<feColorMatrix type="matrix" values="0 0 0 0 0 0 0 0 0 0 0 0 0 0 0 0 0 0 0.05 0"/>
<feBlend mode="normal" in2="BackgroundImageFix" result="effect1_dropShadow_11101_93066"/>
<feBlend mode="normal" in="SourceGraphic" in2="effect1_dropShadow_11101_93066" result="shape"/>
</filter>
<filter id="filter2_d_11101_93066" x="6.125" y="0.5" width="12.375" height="12.375" filterUnits="userSpaceOnUse" color-interpolation-filters="sRGB">
<feFlood flood-opacity="0" result="BackgroundImageFix"/>
<feColorMatrix in="SourceAlpha" type="matrix" values="0 0 0 0 0 0 0 0 0 0 0 0 0 0 0 0 0 0 127 0" result="hardAlpha"/>
<feOffset dy="4"/>
<feGaussianBlur stdDeviation="2"/>
<feColorMatrix type="matrix" values="0 0 0 0 0 0 0 0 0 0 0 0 0 0 0 0 0 0 0.05 0"/>
<feBlend mode="normal" in2="BackgroundImageFix" result="effect1_dropShadow_11101_93066"/>
<feBlend mode="normal" in="SourceGraphic" in2="effect1_dropShadow_11101_93066" result="shape"/>
</filter>
</defs>
</svg>
