<svg width="21" height="20" viewBox="0 0 21 20" fill="none" xmlns="http://www.w3.org/2000/svg">
<g>
<path d="M2 10C2 11.3261 2.47762 12.5979 3.32778 13.5355C4.17795 14.4732 5.33102 15 6.53333 15H14.4667C15.669 15 16.8221 14.4732 17.6722 13.5355C18.5224 12.5979 19 11.3261 19 10C19 8.67392 18.5224 7.40215 17.6722 6.46447C16.8221 5.52678 15.669 5 14.4667 5H6.53333C5.33102 5 4.17795 5.52678 3.32778 6.46447C2.47762 7.40215 2 8.67392 2 10V10Z" stroke="#484848" stroke-width="1.5" stroke-linecap="round" stroke-linejoin="round"/>
<path d="M14.3735 7.70825V12.7083" stroke="#484848" stroke-width="1.5" stroke-linecap="round" stroke-linejoin="round"/>
<path d="M11.8735 7.70825V12.7083" stroke="#484848" stroke-width="1.5" stroke-linecap="round" stroke-linejoin="round"/>
</g>
</svg>
