<svg width="20" height="14" viewBox="0 0 20 14" fill="none" xmlns="http://www.w3.org/2000/svg">
<path d="M16.7677 13.0874C16.7677 13.1996 16.8123 13.3072 16.8916 13.3865C16.971 13.4658 17.0785 13.5104 17.1907 13.5104H19.5773C19.6465 13.5103 19.7148 13.4933 19.7759 13.4607C19.837 13.4281 19.8893 13.381 19.9279 13.3235C19.9666 13.2661 19.9906 13.2 19.9977 13.1311C20.0049 13.0621 19.995 12.9925 19.969 12.9283C19.718 12.301 19.3027 11.7528 18.7669 11.3412C18.231 10.9297 17.5942 10.6699 16.9234 10.5892C16.8532 10.5807 16.7821 10.59 16.7164 10.6161C16.6507 10.6422 16.5926 10.6844 16.5474 10.7387C16.5023 10.7931 16.4714 10.8579 16.4577 10.9272C16.444 10.9966 16.448 11.0682 16.4691 11.1357C16.6671 11.7673 16.7678 12.4254 16.7677 13.0874ZM3.96539 11.0993C3.98576 11.0359 3.99089 10.9686 3.98035 10.9029C3.96981 10.8372 3.94391 10.7749 3.90476 10.721C3.8656 10.6672 3.81429 10.6234 3.755 10.5931C3.69571 10.5629 3.63011 10.547 3.56355 10.5469H3.55339C2.79556 10.5473 2.05517 10.7743 1.42741 11.1988C0.799658 11.6234 0.313238 12.226 0.0306974 12.9292C0.00479914 12.9934 -0.00493646 13.063 0.0023454 13.1319C0.00962725 13.2007 0.0337039 13.2667 0.0724612 13.3241C0.111219 13.3815 0.163471 13.4285 0.224632 13.461C0.285792 13.4935 0.35399 13.5104 0.423236 13.5104H3.23192C3.3441 13.5104 3.45169 13.4658 3.53102 13.3865C3.61035 13.3072 3.65491 13.1996 3.65491 13.0874C3.65461 12.4126 3.75935 11.7419 3.96539 11.0993Z" fill="#DDDDDD"/>
<path d="M8.16408 7.84908C8.197 7.86925 8.22377 7.89806 8.24149 7.93237C8.2592 7.96669 8.26719 8.00519 8.26457 8.04372C8.26196 8.08225 8.24884 8.11932 8.22666 8.15093C8.20447 8.18253 8.17405 8.20746 8.1387 8.223C7.18544 8.63002 6.37266 9.30795 5.80118 10.1727C5.2297 11.0374 4.92467 12.0509 4.92394 13.0874C4.92394 13.1996 4.96851 13.3072 5.04783 13.3865C5.12716 13.4659 5.23475 13.5104 5.34694 13.5104H15.0758C15.188 13.5104 15.2956 13.4659 15.3749 13.3865C15.4542 13.3072 15.4988 13.1996 15.4988 13.0874C15.4971 12.0494 15.1901 11.0347 14.6161 10.1698C14.0421 9.3049 13.2264 8.62787 12.2705 8.223C12.2348 8.20749 12.204 8.18245 12.1815 8.15061C12.1591 8.11877 12.1458 8.08137 12.1432 8.0425C12.1406 8.00363 12.1487 7.96478 12.1667 7.93022C12.1847 7.89566 12.2118 7.86671 12.2451 7.84654C12.9997 7.39835 13.5861 6.71468 13.9141 5.90069C14.2422 5.08669 14.2937 4.18746 14.0608 3.34132C13.8279 2.49517 13.3234 1.74899 12.625 1.21754C11.9266 0.686087 11.073 0.398814 10.1953 0.399905C9.31773 0.400997 8.46478 0.690393 7.7677 1.22358C7.07061 1.75676 6.56802 2.5042 6.33721 3.35092C6.1064 4.19764 6.16017 5.09674 6.49025 5.90992C6.82032 6.7231 7.40842 7.40531 8.16408 7.85161V7.84908ZM7.8849 4.40506C7.88492 4.24508 7.9028 4.08561 7.9382 3.92961C7.95289 3.86432 7.98287 3.80344 8.02566 3.75199C8.06846 3.70054 8.12285 3.65997 8.18437 3.63363C8.2459 3.60729 8.31279 3.59592 8.37956 3.60046C8.44633 3.605 8.51107 3.62531 8.56846 3.65974C9.37932 4.1479 10.308 4.40559 11.2545 4.40506C11.502 4.40483 11.7491 4.38645 11.9939 4.35007C12.06 4.34017 12.1275 4.34608 12.1908 4.36731C12.2542 4.38853 12.3117 4.42447 12.3585 4.47218C12.4053 4.51989 12.4401 4.57801 12.4601 4.64178C12.4801 4.70555 12.4847 4.77315 12.4735 4.83905C12.366 5.40548 12.051 5.9114 11.5901 6.25777C11.1292 6.60414 10.5556 6.76602 9.98158 6.71173C9.4076 6.65744 8.87453 6.39089 8.48673 5.96425C8.09893 5.53761 7.88432 4.9816 7.8849 4.40506Z" fill="#DDDDDD"/>
<path d="M16.4464 9.70363C16.9321 9.70661 17.4068 9.55839 17.8045 9.27952C18.2023 9.00065 18.5034 8.60495 18.6662 8.14727C18.829 7.68959 18.8453 7.19261 18.713 6.72521C18.5807 6.25781 18.3063 5.84315 17.9277 5.53872C17.5492 5.23428 17.0853 5.05515 16.6004 5.02615C16.1155 4.99715 15.6336 5.11972 15.2215 5.37688C14.8094 5.63403 14.4875 6.01303 14.3004 6.46132C14.1133 6.90962 14.0703 7.40502 14.1774 7.87884C14.2962 8.39339 14.5845 8.85308 14.996 9.18404C15.4075 9.51499 15.9183 9.69799 16.4464 9.70363Z" fill="#DDDDDD"/>
<path d="M3.55367 9.70323C4.83855 9.70323 5.88014 8.66163 5.88014 7.37676C5.88014 6.09189 4.83855 5.05029 3.55367 5.05029C2.2688 5.05029 1.2272 6.09189 1.2272 7.37676C1.2272 8.66163 2.2688 9.70323 3.55367 9.70323Z" fill="#DDDDDD"/>
</svg>
