<svg width="8" height="7" viewBox="0 0 8 7" fill="none" xmlns="http://www.w3.org/2000/svg">
<path d="M7.08362 6.27088C7.08362 6.40349 7.03094 6.53067 6.93717 6.62443C6.84341 6.7182 6.71623 6.77088 6.58362 6.77088C6.45101 6.77088 6.32384 6.7182 6.23007 6.62443C6.1363 6.53067 6.08362 6.40349 6.08362 6.27088V2.35088C6.08358 2.33441 6.07867 2.31831 6.06949 2.30463C6.06031 2.29095 6.04728 2.2803 6.03204 2.27402C6.01681 2.26774 6.00006 2.26612 5.98391 2.26936C5.96775 2.2726 5.95292 2.28055 5.94129 2.29221L1.60362 6.62521C1.50978 6.71892 1.38255 6.77152 1.24993 6.77142C1.11731 6.77133 0.990163 6.71856 0.896453 6.62471C0.802743 6.53087 0.75015 6.40365 0.750244 6.27103C0.750338 6.13841 0.803111 6.01126 0.896953 5.91755L5.23995 1.57921C5.25164 1.56756 5.2596 1.5527 5.26283 1.53651C5.26605 1.52033 5.2644 1.50355 5.25808 1.4883C5.25176 1.47306 5.24106 1.46003 5.22733 1.45088C5.2136 1.44172 5.19746 1.43685 5.18095 1.43688H1.25029C1.11768 1.43688 0.990501 1.3842 0.896733 1.29043C0.802965 1.19667 0.750287 1.06949 0.750287 0.936881C0.750287 0.804272 0.802965 0.677095 0.896733 0.583327C0.990501 0.489559 1.11768 0.436881 1.25029 0.436881H6.25029C6.35978 0.436881 6.4682 0.458457 6.56934 0.500378C6.67049 0.542299 6.76239 0.603741 6.83978 0.681194C6.91717 0.758647 6.97854 0.850592 7.02038 0.951773C7.06222 1.05295 7.08371 1.16139 7.08362 1.27088V6.27088Z" fill="#5ABAFF"/>
</svg>
