<svg width="24" height="24" viewBox="0 0 24 24" fill="none" xmlns="http://www.w3.org/2000/svg">
<g filter="url(#filter0_d_12111_1699)">
<path d="M9.31989 6.25814H4.59313C4.37557 6.25814 4.17773 6.08017 4.17773 5.84273V1.13562C4.17773 0.898328 4.3557 0.720215 4.59313 0.720215H9.31989C9.55718 0.720215 9.73528 0.898183 9.73528 1.13562V5.86251C9.73528 6.08007 9.53746 6.25803 9.31989 6.25803V6.25814Z" fill="url(#paint0_linear_12111_1699)"/>
</g>
<g filter="url(#filter1_d_12111_1699)">
<path d="M18.2599 6.19884H15.5899C15.4514 6.19884 15.313 6.11979 15.234 6.00101L13.9089 3.68701C13.8298 3.56836 13.8298 3.41012 13.9089 3.2716L15.234 0.9576C15.313 0.838954 15.4515 0.759766 15.5899 0.759766H18.2599C18.3984 0.759766 18.5368 0.838816 18.6158 0.9576L19.9409 3.2716C20.0199 3.39025 20.0199 3.54848 19.9409 3.68701L18.6158 6.00101C18.5368 6.11965 18.3983 6.19884 18.2599 6.19884Z" fill="url(#paint1_linear_12111_1699)"/>
</g>
<g filter="url(#filter2_d_12111_1699)">
<path d="M16.9339 15.2766C15.3716 15.2766 14.0859 13.9912 14.0859 12.4286C14.0859 10.8662 15.3714 9.58057 16.9339 9.58057C18.4962 9.58057 19.7819 10.8661 19.7819 12.4286C19.7817 13.9911 18.4963 15.2766 16.9339 15.2766Z" fill="url(#paint2_linear_12111_1699)"/>
</g>
<g filter="url(#filter3_d_12111_1699)">
<path d="M9.49796 15.0593H4.41521C4.2767 15.0593 4.13833 14.9803 4.05929 14.8615C3.98024 14.7428 3.98024 14.5846 4.05929 14.4461L6.61048 10.0356C6.74899 9.77849 7.18395 9.77849 7.32246 10.0356L9.87366 14.4461C9.95271 14.5647 9.95271 14.723 9.87366 14.8615C9.79461 15 9.6561 15.0593 9.49785 15.0593H9.49796Z" fill="url(#paint3_linear_12111_1699)"/>
</g>
<g filter="url(#filter4_d_12111_1699)">
<path d="M12.4835 3.92456H12.4439C12.2066 3.92456 12.0285 3.74659 12.0285 3.50915C12.0285 3.27186 12.2065 3.09375 12.4439 3.09375L12.4835 3.09389C12.7208 3.09389 12.8989 3.27186 12.8989 3.50929C12.8987 3.74658 12.7208 3.92456 12.4835 3.92456V3.92456ZM10.8023 3.92456C10.565 3.92456 10.3672 3.74659 10.3672 3.50915C10.3672 3.27186 10.5254 3.09375 10.7627 3.09375H10.8023C11.0396 3.09375 11.2177 3.27172 11.2177 3.50915C11.2177 3.74659 11.0199 3.92456 10.8023 3.92456H10.8023Z" fill="url(#paint4_linear_12111_1699)"/>
</g>
<g filter="url(#filter5_d_12111_1699)">
<path d="M17.0131 9.20494C16.7758 9.20494 16.5977 9.02697 16.5977 8.78954V8.75008C16.5977 8.51279 16.7756 8.33468 17.0131 8.33468C17.2504 8.33468 17.4285 8.51264 17.4285 8.75008V8.78967C17.4086 9.02697 17.2306 9.20494 17.0131 9.20494V9.20494ZM17.0131 7.50419C16.7758 7.50419 16.5977 7.32622 16.5977 7.08879V7.04919C16.5977 6.8119 16.7756 6.63379 17.0131 6.63379C17.2504 6.63379 17.4285 6.81176 17.4285 7.04919V7.08879C17.4086 7.32608 17.2306 7.50419 17.0131 7.50419Z" fill="url(#paint5_linear_12111_1699)"/>
</g>
<g filter="url(#filter6_d_12111_1699)">
<path d="M13.2761 12.7253C13.0388 12.7253 12.841 12.5474 12.841 12.3099C12.841 12.0726 12.9992 11.8945 13.2365 11.8945H13.2761C13.5134 11.8945 13.6915 12.0725 13.6915 12.3099C13.6915 12.5472 13.5134 12.7253 13.2761 12.7253H13.2761ZM11.5949 12.7253H11.5553C11.318 12.7253 11.1399 12.5474 11.1399 12.3099C11.1399 12.0726 11.3179 11.8945 11.5553 11.8945H11.5949C11.8322 11.8945 12.0103 12.0725 12.0103 12.3099C11.9906 12.5472 11.8125 12.7253 11.5949 12.7253ZM9.89408 12.7253C9.6568 12.7253 9.45898 12.5474 9.45898 12.3099C9.45898 12.0726 9.61722 11.8945 9.85449 11.8945H9.89409C10.1314 11.8945 10.3095 12.0725 10.3095 12.3099C10.3095 12.5472 10.1117 12.7253 9.89409 12.7253H9.89408Z" fill="url(#paint6_linear_12111_1699)"/>
</g>
<g filter="url(#filter7_d_12111_1699)">
<path d="M6.96619 9.26448C6.72889 9.26448 6.55078 9.08651 6.55078 8.84907V8.80948C6.55078 8.57219 6.72875 8.39407 6.96619 8.39407C7.20348 8.39407 7.38159 8.57204 7.38159 8.80948V8.84907C7.36172 9.08636 7.18376 9.26448 6.96619 9.26448ZM6.96619 7.58329C6.72889 7.58329 6.55078 7.40532 6.55078 7.16789V7.12829C6.55078 6.891 6.72875 6.71289 6.96619 6.71289C7.20348 6.71289 7.38159 6.89086 7.38159 7.12829V7.16789C7.36172 7.38545 7.18376 7.58329 6.96619 7.58329Z" fill="url(#paint7_linear_12111_1699)"/>
</g>
<defs>
<filter id="filter0_d_12111_1699" x="0.177734" y="0.720215" width="13.5566" height="13.5381" filterUnits="userSpaceOnUse" color-interpolation-filters="sRGB">
<feFlood flood-opacity="0" result="BackgroundImageFix"/>
<feColorMatrix in="SourceAlpha" type="matrix" values="0 0 0 0 0 0 0 0 0 0 0 0 0 0 0 0 0 0 127 0" result="hardAlpha"/>
<feOffset dy="4"/>
<feGaussianBlur stdDeviation="2"/>
<feColorMatrix type="matrix" values="0 0 0 0 0 0 0 0 0 0 0 0 0 0 0 0 0 0 0.05 0"/>
<feBlend mode="normal" in2="BackgroundImageFix" result="effect1_dropShadow_12111_1699"/>
<feBlend mode="normal" in="SourceGraphic" in2="effect1_dropShadow_12111_1699" result="shape"/>
</filter>
<filter id="filter1_d_12111_1699" x="9.84961" y="0.759766" width="14.1504" height="13.439" filterUnits="userSpaceOnUse" color-interpolation-filters="sRGB">
<feFlood flood-opacity="0" result="BackgroundImageFix"/>
<feColorMatrix in="SourceAlpha" type="matrix" values="0 0 0 0 0 0 0 0 0 0 0 0 0 0 0 0 0 0 127 0" result="hardAlpha"/>
<feOffset dy="4"/>
<feGaussianBlur stdDeviation="2"/>
<feColorMatrix type="matrix" values="0 0 0 0 0 0 0 0 0 0 0 0 0 0 0 0 0 0 0.05 0"/>
<feBlend mode="normal" in2="BackgroundImageFix" result="effect1_dropShadow_12111_1699"/>
<feBlend mode="normal" in="SourceGraphic" in2="effect1_dropShadow_12111_1699" result="shape"/>
</filter>
<filter id="filter2_d_12111_1699" x="10.0859" y="9.58057" width="13.6953" height="13.6963" filterUnits="userSpaceOnUse" color-interpolation-filters="sRGB">
<feFlood flood-opacity="0" result="BackgroundImageFix"/>
<feColorMatrix in="SourceAlpha" type="matrix" values="0 0 0 0 0 0 0 0 0 0 0 0 0 0 0 0 0 0 127 0" result="hardAlpha"/>
<feOffset dy="4"/>
<feGaussianBlur stdDeviation="2"/>
<feColorMatrix type="matrix" values="0 0 0 0 0 0 0 0 0 0 0 0 0 0 0 0 0 0 0.05 0"/>
<feBlend mode="normal" in2="BackgroundImageFix" result="effect1_dropShadow_12111_1699"/>
<feBlend mode="normal" in="SourceGraphic" in2="effect1_dropShadow_12111_1699" result="shape"/>
</filter>
<filter id="filter3_d_12111_1699" x="0" y="9.84277" width="13.9336" height="13.2163" filterUnits="userSpaceOnUse" color-interpolation-filters="sRGB">
<feFlood flood-opacity="0" result="BackgroundImageFix"/>
<feColorMatrix in="SourceAlpha" type="matrix" values="0 0 0 0 0 0 0 0 0 0 0 0 0 0 0 0 0 0 127 0" result="hardAlpha"/>
<feOffset dy="4"/>
<feGaussianBlur stdDeviation="2"/>
<feColorMatrix type="matrix" values="0 0 0 0 0 0 0 0 0 0 0 0 0 0 0 0 0 0 0.05 0"/>
<feBlend mode="normal" in2="BackgroundImageFix" result="effect1_dropShadow_12111_1699"/>
<feBlend mode="normal" in="SourceGraphic" in2="effect1_dropShadow_12111_1699" result="shape"/>
</filter>
<filter id="filter4_d_12111_1699" x="6.36719" y="3.09375" width="10.5312" height="8.83057" filterUnits="userSpaceOnUse" color-interpolation-filters="sRGB">
<feFlood flood-opacity="0" result="BackgroundImageFix"/>
<feColorMatrix in="SourceAlpha" type="matrix" values="0 0 0 0 0 0 0 0 0 0 0 0 0 0 0 0 0 0 127 0" result="hardAlpha"/>
<feOffset dy="4"/>
<feGaussianBlur stdDeviation="2"/>
<feColorMatrix type="matrix" values="0 0 0 0 0 0 0 0 0 0 0 0 0 0 0 0 0 0 0.05 0"/>
<feBlend mode="normal" in2="BackgroundImageFix" result="effect1_dropShadow_12111_1699"/>
<feBlend mode="normal" in="SourceGraphic" in2="effect1_dropShadow_12111_1699" result="shape"/>
</filter>
<filter id="filter5_d_12111_1699" x="12.5977" y="6.63379" width="8.83008" height="10.5713" filterUnits="userSpaceOnUse" color-interpolation-filters="sRGB">
<feFlood flood-opacity="0" result="BackgroundImageFix"/>
<feColorMatrix in="SourceAlpha" type="matrix" values="0 0 0 0 0 0 0 0 0 0 0 0 0 0 0 0 0 0 127 0" result="hardAlpha"/>
<feOffset dy="4"/>
<feGaussianBlur stdDeviation="2"/>
<feColorMatrix type="matrix" values="0 0 0 0 0 0 0 0 0 0 0 0 0 0 0 0 0 0 0.05 0"/>
<feBlend mode="normal" in2="BackgroundImageFix" result="effect1_dropShadow_12111_1699"/>
<feBlend mode="normal" in="SourceGraphic" in2="effect1_dropShadow_12111_1699" result="shape"/>
</filter>
<filter id="filter6_d_12111_1699" x="5.45898" y="11.8945" width="12.2324" height="8.83057" filterUnits="userSpaceOnUse" color-interpolation-filters="sRGB">
<feFlood flood-opacity="0" result="BackgroundImageFix"/>
<feColorMatrix in="SourceAlpha" type="matrix" values="0 0 0 0 0 0 0 0 0 0 0 0 0 0 0 0 0 0 127 0" result="hardAlpha"/>
<feOffset dy="4"/>
<feGaussianBlur stdDeviation="2"/>
<feColorMatrix type="matrix" values="0 0 0 0 0 0 0 0 0 0 0 0 0 0 0 0 0 0 0.05 0"/>
<feBlend mode="normal" in2="BackgroundImageFix" result="effect1_dropShadow_12111_1699"/>
<feBlend mode="normal" in="SourceGraphic" in2="effect1_dropShadow_12111_1699" result="shape"/>
</filter>
<filter id="filter7_d_12111_1699" x="2.55078" y="6.71289" width="8.83008" height="10.5518" filterUnits="userSpaceOnUse" color-interpolation-filters="sRGB">
<feFlood flood-opacity="0" result="BackgroundImageFix"/>
<feColorMatrix in="SourceAlpha" type="matrix" values="0 0 0 0 0 0 0 0 0 0 0 0 0 0 0 0 0 0 127 0" result="hardAlpha"/>
<feOffset dy="4"/>
<feGaussianBlur stdDeviation="2"/>
<feColorMatrix type="matrix" values="0 0 0 0 0 0 0 0 0 0 0 0 0 0 0 0 0 0 0.05 0"/>
<feBlend mode="normal" in2="BackgroundImageFix" result="effect1_dropShadow_12111_1699"/>
<feBlend mode="normal" in="SourceGraphic" in2="effect1_dropShadow_12111_1699" result="shape"/>
</filter>
<linearGradient id="paint0_linear_12111_1699" x1="6.95651" y1="0.720215" x2="6.95651" y2="6.25814" gradientUnits="userSpaceOnUse">
<stop stop-color="white"/>
<stop offset="1" stop-color="white" stop-opacity="0.8"/>
</linearGradient>
<linearGradient id="paint1_linear_12111_1699" x1="16.9249" y1="0.759766" x2="16.9249" y2="6.19884" gradientUnits="userSpaceOnUse">
<stop stop-color="white"/>
<stop offset="1" stop-color="white" stop-opacity="0.8"/>
</linearGradient>
<linearGradient id="paint2_linear_12111_1699" x1="16.9339" y1="9.58057" x2="16.9339" y2="15.2766" gradientUnits="userSpaceOnUse">
<stop stop-color="white"/>
<stop offset="1" stop-color="white" stop-opacity="0.8"/>
</linearGradient>
<linearGradient id="paint3_linear_12111_1699" x1="6.96647" y1="9.84277" x2="6.96647" y2="15.0593" gradientUnits="userSpaceOnUse">
<stop stop-color="white"/>
<stop offset="1" stop-color="white" stop-opacity="0.8"/>
</linearGradient>
<linearGradient id="paint4_linear_12111_1699" x1="11.633" y1="3.09375" x2="11.633" y2="3.92456" gradientUnits="userSpaceOnUse">
<stop stop-color="white"/>
<stop offset="1" stop-color="white" stop-opacity="0.8"/>
</linearGradient>
<linearGradient id="paint5_linear_12111_1699" x1="17.0131" y1="6.63379" x2="17.0131" y2="9.20494" gradientUnits="userSpaceOnUse">
<stop stop-color="white"/>
<stop offset="1" stop-color="white" stop-opacity="0.8"/>
</linearGradient>
<linearGradient id="paint6_linear_12111_1699" x1="11.5752" y1="11.8945" x2="11.5752" y2="12.7253" gradientUnits="userSpaceOnUse">
<stop stop-color="white"/>
<stop offset="1" stop-color="white" stop-opacity="0.8"/>
</linearGradient>
<linearGradient id="paint7_linear_12111_1699" x1="6.96619" y1="6.71289" x2="6.96619" y2="9.26448" gradientUnits="userSpaceOnUse">
<stop stop-color="white"/>
<stop offset="1" stop-color="white" stop-opacity="0.8"/>
</linearGradient>
</defs>
</svg>
