<svg width="16" height="16" viewBox="0 0 16 16" fill="none" xmlns="http://www.w3.org/2000/svg">
<g clip-path="url(#clip0_934_1885)">
<path d="M14.0002 11.6667C13.7349 11.6667 13.4806 11.5613 13.2931 11.3738C13.1055 11.1862 13.0002 10.9319 13.0002 10.6667V7.42533C13.0387 6.15939 12.6229 4.92146 11.8282 3.93533C11.0334 2.94921 9.91205 2.27999 8.66683 2.04867V0.666667C8.66683 0.489856 8.59659 0.320286 8.47157 0.195262C8.34654 0.0702379 8.17697 0 8.00016 0C7.82335 0 7.65378 0.0702379 7.52876 0.195262C7.40373 0.320286 7.3335 0.489856 7.3335 0.666667V2.04867C6.08828 2.27999 4.96691 2.94921 4.17215 3.93533C3.37738 4.92146 2.96167 6.15939 3.00016 7.42533V10.6667C3.00016 10.9319 2.89481 11.1862 2.70727 11.3738C2.51973 11.5613 2.26538 11.6667 2.00016 11.6667C1.82335 11.6667 1.65378 11.7369 1.52876 11.8619C1.40373 11.987 1.3335 12.1565 1.3335 12.3333C1.3335 12.5101 1.40373 12.6797 1.52876 12.8047C1.65378 12.9298 1.82335 13 2.00016 13H14.0002C14.177 13 14.3465 12.9298 14.4716 12.8047C14.5966 12.6797 14.6668 12.5101 14.6668 12.3333C14.6668 12.1565 14.5966 11.987 14.4716 11.8619C14.3465 11.7369 14.177 11.6667 14.0002 11.6667ZM9.49083 14H6.5095C6.46857 14.0001 6.42911 14.0152 6.39862 14.0425C6.36813 14.0698 6.34875 14.1073 6.34416 14.148C6.3369 14.2095 6.33334 14.2714 6.3335 14.3333C6.3335 14.7754 6.50909 15.1993 6.82165 15.5118C7.13421 15.8244 7.55814 16 8.00016 16C8.44219 16 8.86611 15.8244 9.17867 15.5118C9.49123 15.1993 9.66683 14.7754 9.66683 14.3333C9.66699 14.2714 9.66343 14.2095 9.65616 14.148C9.65186 14.1072 9.63256 14.0695 9.60201 14.0421C9.57146 14.0148 9.53183 13.9998 9.49083 14Z" fill="#222222"/>
</g>
<defs>
<clipPath id="clip0_934_1885">
<rect width="16" height="16" fill="white"/>
</clipPath>
</defs>
</svg>
