<svg width="12" height="11" viewBox="0 0 12 11" fill="none" xmlns="http://www.w3.org/2000/svg">
<path d="M10.8637 4.47589e-05L0.961911 0C0.456146 0 0.0461426 0.492485 0.0461426 1.1V2.56666C0.0461426 3.17417 0.456146 3.66665 0.961911 3.66665L10.8637 3.6667C11.3694 3.6667 11.7794 3.17421 11.7794 2.5667V1.10004C11.7794 0.49253 11.3694 4.47589e-05 10.8637 4.47589e-05Z" fill="#484848"/>
<path d="M10.6794 7.3335H9.21279C8.47946 7.3335 8.11279 7.82598 8.11279 8.43349V9.90015C8.11279 10.5077 8.47946 11.0001 9.21279 11.0001H10.6794C11.4128 11.0001 11.7794 10.5077 11.7794 9.90015V8.43349C11.7794 7.82598 11.4128 7.3335 10.6794 7.3335Z" fill="#484848"/>
<path d="M5.38192 7.92244C5.43291 7.89689 5.48915 7.88358 5.54619 7.88357C5.62552 7.88357 5.70272 7.90931 5.76619 7.95691L7.23285 9.0569C7.27839 9.09106 7.31535 9.13534 7.3408 9.18626C7.36626 9.23717 7.37951 9.29331 7.37951 9.35023C7.37951 9.40716 7.36626 9.4633 7.3408 9.51421C7.31535 9.56512 7.27839 9.60941 7.23285 9.64357L5.76619 10.7436C5.71171 10.7844 5.64693 10.8093 5.57912 10.8154C5.5113 10.8215 5.44312 10.8086 5.38221 10.7782C5.3213 10.7477 5.27008 10.7009 5.23428 10.643C5.19848 10.5851 5.17952 10.5183 5.17952 10.4502V10.2669C5.17952 10.2183 5.16021 10.1716 5.12583 10.1373C5.09144 10.1029 5.04481 10.0836 4.99619 10.0836H3.71286C3.12939 10.0836 2.56981 9.85178 2.15723 9.4392C1.74466 9.02662 1.51287 8.46705 1.51287 7.88357V6.78358C1.51287 6.73495 1.49356 6.68832 1.45917 6.65394C1.42479 6.61956 1.37816 6.60025 1.32954 6.60025H1.14621C1.07811 6.60025 1.01136 6.58128 0.953439 6.54548C0.895515 6.50969 0.848704 6.45846 0.818251 6.39756C0.787798 6.33665 0.774908 6.26847 0.781023 6.20065C0.787138 6.13283 0.812018 6.06806 0.852874 6.01358L1.95287 4.54692C1.98702 4.50138 2.03131 4.46442 2.08222 4.43896C2.13314 4.41351 2.18928 4.40025 2.2462 4.40025C2.30312 4.40025 2.35927 4.41351 2.41018 4.43896C2.46109 4.46442 2.50538 4.50138 2.53953 4.54692L3.63953 6.01358C3.68039 6.06806 3.70527 6.13283 3.71138 6.20065C3.7175 6.26847 3.7046 6.33665 3.67415 6.39756C3.6437 6.45846 3.59689 6.50969 3.53896 6.54548C3.48104 6.58128 3.41429 6.60025 3.3462 6.60025H3.16286C3.11424 6.60025 3.06761 6.61956 3.03323 6.65394C2.99885 6.68832 2.97953 6.73495 2.97953 6.78358V7.88357C2.97953 8.07806 3.05679 8.26459 3.19432 8.40212C3.33185 8.53964 3.51837 8.6169 3.71286 8.6169H4.99619C5.04481 8.6169 5.09144 8.59759 5.12583 8.56321C5.16021 8.52883 5.17952 8.48219 5.17952 8.43357V8.25024C5.17952 8.1822 5.19846 8.11551 5.2342 8.05762C5.26995 7.99972 5.32109 7.95292 5.38192 7.92244Z" fill="#484848"/>
</svg>
