<svg width="13" height="14" viewBox="0 0 13 14" fill="none" xmlns="http://www.w3.org/2000/svg">
<g opacity="0.5" clip-path="url(#clip0_2148_8506)">
<path d="M3.81553 5.91667C4.35119 5.91667 4.87482 5.75783 5.3202 5.46023C5.76558 5.16264 6.11272 4.73965 6.3177 4.24477C6.52269 3.74989 6.57633 3.20533 6.47182 2.67997C6.36732 2.1546 6.10938 1.67202 5.73061 1.29325C5.35184 0.914486 4.86927 0.656543 4.3439 0.552041C3.81853 0.447539 3.27398 0.501173 2.7791 0.706161C2.28421 0.911148 1.86123 1.25828 1.56363 1.70367C1.26604 2.14905 1.1072 2.67268 1.1072 3.20833C1.10806 3.92637 1.39367 4.61474 1.9014 5.12247C2.40912 5.63019 3.0975 5.91581 3.81553 5.91667ZM2.2447 2.80588C2.25549 2.76528 2.27557 2.72776 2.30336 2.69626C2.33114 2.66477 2.36588 2.64016 2.40481 2.6244C2.44374 2.60864 2.4858 2.60215 2.52768 2.60544C2.56955 2.60874 2.61008 2.62172 2.64607 2.64338C3.23451 3.00794 3.91199 3.20341 4.6042 3.20833C4.77264 3.20803 4.94082 3.19536 5.10741 3.17042C5.14916 3.16401 5.19183 3.16745 5.23202 3.18047C5.2722 3.1935 5.30878 3.21574 5.33884 3.24543C5.36889 3.27511 5.39159 3.31142 5.4051 3.35144C5.41862 3.39146 5.42259 3.43409 5.4167 3.47592C5.34744 3.87605 5.13089 4.23575 4.80968 4.48419C4.48846 4.73262 4.08587 4.85179 3.68118 4.81823C3.2765 4.78466 2.89904 4.60079 2.62315 4.30283C2.34725 4.00487 2.19292 3.61441 2.19053 3.20833C2.19046 3.07236 2.20868 2.93699 2.2447 2.80588ZM6.13007 7.20908C6.15494 7.17941 6.17316 7.14474 6.1835 7.10742C6.19383 7.07011 6.19605 7.03101 6.18999 6.99276C6.18393 6.95452 6.16974 6.91802 6.14838 6.88572C6.12702 6.85342 6.09898 6.82608 6.06616 6.80554C5.42514 6.40317 4.68395 6.18902 3.92711 6.1875C3.0534 6.19148 2.20397 6.47543 1.5035 6.99768C0.803039 7.51994 0.28844 8.25298 0.0352386 9.08921C0.0231742 9.12963 0.0207185 9.17231 0.0280673 9.21385C0.0354161 9.25539 0.0523662 9.29464 0.0775667 9.32847C0.102767 9.36229 0.135521 9.38977 0.173218 9.4087C0.210916 9.42763 0.252514 9.43749 0.294697 9.4375H4.9292C4.99266 9.4375 5.05411 9.41521 5.10282 9.37452C5.15153 9.33383 5.1844 9.27733 5.1957 9.21488C5.32737 8.47638 5.64943 7.78502 6.13007 7.20908ZM9.45536 6.45833C8.75901 6.45833 8.07829 6.66483 7.49929 7.0517C6.9203 7.43858 6.46902 7.98846 6.20254 8.6318C5.93605 9.27515 5.86633 9.98307 6.00218 10.666C6.13803 11.349 6.47336 11.9764 6.96576 12.4688C7.45816 12.9612 8.08551 13.2965 8.76848 13.4324C9.45146 13.5682 10.1594 13.4985 10.8027 13.232C11.4461 12.9655 11.996 12.5142 12.3828 11.9352C12.7697 11.3562 12.9762 10.6755 12.9762 9.97917C12.9751 9.04574 12.6037 8.15087 11.9437 7.49083C11.2837 6.83079 10.3888 6.45948 9.45536 6.45833ZM11.3512 10.5208H10.2679C10.196 10.5208 10.1271 10.5494 10.0764 10.6002C10.0256 10.651 9.99703 10.7198 9.99703 10.7917V11.875C9.99703 12.0187 9.93996 12.1564 9.83838 12.258C9.7368 12.3596 9.59902 12.4167 9.45536 12.4167C9.3117 12.4167 9.17393 12.3596 9.07235 12.258C8.97077 12.1564 8.9137 12.0187 8.9137 11.875V10.7917C8.9137 10.7198 8.88516 10.651 8.83437 10.6002C8.78358 10.5494 8.71469 10.5208 8.64286 10.5208H7.55953C7.41587 10.5208 7.2781 10.4638 7.17651 10.3622C7.07493 10.2606 7.01786 10.1228 7.01786 9.97917C7.01786 9.83551 7.07493 9.69773 7.17651 9.59615C7.2781 9.49457 7.41587 9.4375 7.55953 9.4375H8.64286C8.71469 9.4375 8.78358 9.40897 8.83437 9.35818C8.88516 9.30739 8.9137 9.2385 8.9137 9.16667V8.08333C8.9137 7.93968 8.97077 7.8019 9.07235 7.70032C9.17393 7.59874 9.3117 7.54167 9.45536 7.54167C9.59902 7.54167 9.7368 7.59874 9.83838 7.70032C9.93996 7.8019 9.99703 7.93968 9.99703 8.08333V9.16667C9.99703 9.2385 10.0256 9.30739 10.0764 9.35818C10.1271 9.40897 10.196 9.4375 10.2679 9.4375H11.3512C11.4949 9.4375 11.6326 9.49457 11.7342 9.59615C11.8358 9.69773 11.8929 9.83551 11.8929 9.97917C11.8929 10.1228 11.8358 10.2606 11.7342 10.3622C11.6326 10.4638 11.4949 10.5208 11.3512 10.5208Z" fill="#5ABAFF"/>
</g>
<defs>
<clipPath id="clip0_2148_8506">
<rect width="13" height="13" fill="white" transform="translate(0 0.5)"/>
</clipPath>
</defs>
</svg>
