<svg width="16" height="16" viewBox="0 0 16 16" fill="none" xmlns="http://www.w3.org/2000/svg">
<path d="M7.99967 15.6668C9.516 15.6668 10.9983 15.2172 12.259 14.3748C13.5198 13.5323 14.5025 12.335 15.0828 10.9341C15.663 9.53317 15.8148 7.99166 15.519 6.50447C15.2232 5.01729 14.493 3.65122 13.4208 2.57901C12.3486 1.50681 10.9826 0.776632 9.49537 0.480812C8.00818 0.184992 6.46667 0.336818 5.06577 0.91709C3.66487 1.49736 2.4675 2.48002 1.62507 3.74079C0.78265 5.00157 0.333008 6.48384 0.333008 8.00017C0.335302 10.0328 1.14377 11.9815 2.58106 13.4188C4.01834 14.8561 5.96705 15.6645 7.99967 15.6668ZM3.66634 7.66683C3.66634 7.49002 3.73658 7.32045 3.8616 7.19543C3.98663 7.0704 4.1562 7.00017 4.33301 7.00017H11.6663C11.8432 7.00017 12.0127 7.0704 12.1377 7.19543C12.2628 7.32045 12.333 7.49002 12.333 7.66683V8.3335C12.333 8.51031 12.2628 8.67988 12.1377 8.8049C12.0127 8.92993 11.8432 9.00017 11.6663 9.00017H4.33301C4.1562 9.00017 3.98663 8.92993 3.8616 8.8049C3.73658 8.67988 3.66634 8.51031 3.66634 8.3335V7.66683Z" fill="#717171"/>
</svg>
