<svg width="14" height="14" viewBox="0 0 14 14" fill="none" xmlns="http://www.w3.org/2000/svg">
<path d="M13.7743 6.59167L10.9048 3.675C10.8504 3.61979 10.7856 3.57589 10.7141 3.54586C10.6426 3.51582 10.5659 3.50024 10.4883 3.5H8.14976C8.03499 3.50025 7.92284 3.53434 7.82736 3.59802C7.73187 3.6617 7.65729 3.75212 7.61296 3.85798C7.56862 3.96384 7.5565 4.08043 7.5781 4.19315C7.59971 4.30587 7.65409 4.4097 7.73442 4.49167L10.101 6.89675C10.1276 6.92418 10.1425 6.9609 10.1425 6.99912C10.1425 7.03735 10.1276 7.07407 10.101 7.1015L7.73442 9.50833C7.65409 9.59029 7.59971 9.69413 7.5781 9.80685C7.5565 9.91957 7.56862 10.0362 7.61296 10.142C7.65729 10.2479 7.73187 10.3383 7.82736 10.402C7.92284 10.4657 8.03499 10.4998 8.14976 10.5H10.4883C10.5658 10.4999 10.6425 10.4844 10.7139 10.4543C10.7853 10.4243 10.85 10.3803 10.9043 10.325L13.7743 7.40833C13.8811 7.29929 13.941 7.15269 13.941 7C13.941 6.84731 13.8811 6.70071 13.7743 6.59167Z" fill="#717171"/>
<path d="M8.2495 6.59167L5.38008 3.675C5.32573 3.61983 5.261 3.57596 5.18962 3.54593C5.11823 3.51589 5.04161 3.50028 4.96417 3.5H4.074C3.95918 3.50013 3.84695 3.53414 3.75138 3.59778C3.65581 3.66141 3.58114 3.75183 3.53673 3.85772C3.49232 3.9636 3.48015 4.08023 3.50174 4.19301C3.52332 4.30578 3.57771 4.40967 3.65808 4.49167L6.02525 6.89675C6.05215 6.92404 6.06723 6.96081 6.06723 6.99912C6.06723 7.03744 6.05215 7.07421 6.02525 7.1015L3.65808 9.50833C3.57771 9.59033 3.52332 9.69422 3.50174 9.80699C3.48015 9.91977 3.49232 10.0364 3.53673 10.1423C3.58114 10.2482 3.65581 10.3386 3.75138 10.4022C3.84695 10.4659 3.95918 10.4999 4.074 10.5H4.96417C5.04154 10.4998 5.11811 10.4843 5.18942 10.4542C5.26072 10.4242 5.32534 10.3803 5.3795 10.325L8.2495 7.40833C8.35638 7.29929 8.41625 7.15269 8.41625 7C8.41625 6.84731 8.35638 6.70071 8.2495 6.59167Z" fill="#717171"/>
<path d="M3.724 6.38575L1.05817 3.675C0.948388 3.57186 0.802964 3.51519 0.652342 3.51685C0.501721 3.5185 0.357579 3.57836 0.250091 3.68389C0.142604 3.78942 0.0801042 3.93243 0.0756765 4.083C0.0712489 4.23356 0.125236 4.38001 0.226337 4.49167L2.59 6.89617C2.61676 6.92353 2.63174 6.96027 2.63174 6.99854C2.63174 7.03681 2.61676 7.07356 2.59 7.10092L0.226337 9.50833C0.125236 9.62 0.0712489 9.76644 0.0756765 9.917C0.0801042 10.0676 0.142604 10.2106 0.250091 10.3161C0.357579 10.4216 0.501721 10.4815 0.652342 10.4832C0.802964 10.4848 0.948388 10.4281 1.05817 10.325L3.72342 7.6125C3.88324 7.44836 3.97273 7.22834 3.97284 6.99924C3.97294 6.77015 3.88367 6.55004 3.724 6.38575Z" fill="#717171"/>
</svg>
