<svg width="24" height="24" viewBox="0 0 24 24" fill="none" xmlns="http://www.w3.org/2000/svg">
<rect width="24" height="24" rx="8" fill="#2266E2"/>
<g clip-path="url(#clip0_2733_38002)">
<path d="M12 6C10.8133 6 9.65328 6.35189 8.66658 7.01118C7.67989 7.67047 6.91085 8.60754 6.45673 9.7039C6.0026 10.8003 5.88378 12.0067 6.11529 13.1705C6.3468 14.3344 6.91825 15.4035 7.75736 16.2426C8.59648 17.0818 9.66558 17.6532 10.8295 17.8847C11.9933 18.1162 13.1997 17.9974 14.2961 17.5433C15.3925 17.0892 16.3295 16.3201 16.9888 15.3334C17.6481 14.3467 18 13.1867 18 12C17.9983 10.4092 17.3656 8.88411 16.2407 7.75926C15.1159 6.63441 13.5908 6.00172 12 6ZM12 16.715C11.0674 16.7151 10.1558 16.4387 9.38035 15.9206C8.60491 15.4026 8.0005 14.6662 7.64355 13.8047C7.28661 12.9432 7.19317 11.9951 7.37504 11.0805C7.55691 10.1658 8.00593 9.32562 8.66532 8.66617C9.3247 8.00671 10.1648 7.5576 11.0795 7.37563C11.9941 7.19366 12.9422 7.28701 13.8037 7.64386C14.6653 8.00071 15.4017 8.60505 15.9198 9.38043C16.438 10.1558 16.7145 11.0674 16.7145 12C16.713 13.2499 16.2159 14.4482 15.3321 15.332C14.4482 16.2159 13.2499 16.7135 12 16.715Z" fill="white"/>
<path d="M14.3046 11.356L11.3416 9.8745C11.2255 9.80815 11.0936 9.77432 10.9599 9.7766C10.8261 9.77887 10.6955 9.81715 10.5817 9.88741C10.4679 9.95768 10.3751 10.0573 10.3131 10.1759C10.2512 10.2944 10.2223 10.4274 10.2296 10.561V13.438C10.2243 13.5711 10.2538 13.7032 10.3152 13.8214C10.3766 13.9396 10.4677 14.0398 10.5796 14.112C10.6937 14.1823 10.8251 14.2193 10.9591 14.219C11.0915 14.2176 11.2218 14.1854 11.3396 14.125L14.3026 12.6435C14.4314 12.5922 14.5418 12.5034 14.6196 12.3886C14.6974 12.2739 14.739 12.1384 14.739 11.9998C14.739 11.8611 14.6974 11.7256 14.6196 11.6109C14.5418 11.4961 14.4314 11.4073 14.3026 11.356H14.3046Z" fill="white"/>
</g>
<defs>
<clipPath id="clip0_2733_38002">
<rect width="12" height="12" fill="white" transform="translate(6 6)"/>
</clipPath>
</defs>
</svg>
