<svg width="16" height="16" viewBox="0 0 16 16" fill="none" xmlns="http://www.w3.org/2000/svg">
<path d="M7.98867 1.56042e-05C5.85107 0.0350105 3.81311 0.909825 2.31533 2.43535C1.56592 3.18147 0.97463 4.07102 0.576813 5.05085C0.178995 6.03067 -0.0171842 7.08065 1.33144e-06 8.13802C-0.00122832 9.17121 0.201444 10.1945 0.596403 11.1492C0.991362 12.1039 1.57084 12.9713 2.30164 13.7017C3.03243 14.432 3.90017 15.011 4.85512 15.4054C5.81008 15.7998 6.83348 16.0019 7.86667 16H8.00933C10.1476 15.978 12.1898 15.1087 13.6878 13.5828C15.1859 12.0568 16.0174 9.99897 16 7.86068C16.0025 6.81496 15.7958 5.7793 15.3922 4.81461C14.9885 3.84992 14.3961 2.97567 13.6497 2.24329C12.9032 1.5109 12.0179 0.935153 11.0457 0.549911C10.0736 0.164668 9.03416 -0.0222954 7.98867 1.56042e-05ZM7 11.028C6.99519 10.8973 7.0165 10.7669 7.06267 10.6446C7.10884 10.5222 7.17894 10.4102 7.26889 10.3152C7.35883 10.2203 7.46681 10.1442 7.58651 10.0914C7.7062 10.0387 7.83522 10.0103 7.966 10.008H7.984C8.24707 10.0085 8.49973 10.1108 8.68902 10.2935C8.87831 10.4762 8.98951 10.7251 8.99933 10.988C9.00423 11.1188 8.98299 11.2492 8.93685 11.3716C8.89072 11.494 8.82062 11.606 8.73065 11.701C8.64069 11.796 8.53268 11.8721 8.41294 11.9248C8.2932 11.9775 8.16415 12.0058 8.03333 12.008H8.01533C7.75236 12.0072 7.49989 11.9047 7.31067 11.7221C7.12146 11.5395 7.01015 11.2908 7 11.028ZM7.33333 8.33335V4.33335C7.33333 4.15654 7.40357 3.98697 7.5286 3.86194C7.65362 3.73692 7.82319 3.66668 8 3.66668C8.17681 3.66668 8.34638 3.73692 8.47141 3.86194C8.59643 3.98697 8.66667 4.15654 8.66667 4.33335V8.33335C8.66667 8.51016 8.59643 8.67973 8.47141 8.80475C8.34638 8.92978 8.17681 9.00002 8 9.00002C7.82319 9.00002 7.65362 8.92978 7.5286 8.80475C7.40357 8.67973 7.33333 8.51016 7.33333 8.33335Z" fill="#2266E2"/>
</svg>
