<svg width="8" height="8" viewBox="0 0 8 8" fill="none" xmlns="http://www.w3.org/2000/svg">
<g clip-path="url(#clip0_2666_9722)">
<path d="M7.71333 3.53627L0.751 0.0549408C0.671847 0.0155911 0.583965 -0.00291762 0.495664 0.001165C0.407364 0.00524761 0.321564 0.0317866 0.24638 0.0782722C0.171195 0.124758 0.109111 0.189653 0.0659988 0.266821C0.0228863 0.34399 0.000170606 0.43088 0 0.519274L0 7.48161C0.000135872 7.57001 0.022835 7.65691 0.0659477 7.73408C0.10906 7.81126 0.17116 7.87615 0.246364 7.92262C0.321569 7.96908 0.407389 7.99558 0.495699 7.9996C0.584008 8.00363 0.671882 7.98504 0.751 7.94561L7.71333 4.46461C7.79952 4.42149 7.872 4.35524 7.92266 4.27326C7.97332 4.19127 8.00015 4.09681 8.00015 4.00044C8.00015 3.90407 7.97332 3.80961 7.92266 3.72762C7.872 3.64564 7.79952 3.57939 7.71333 3.53627Z" fill="#2266E2"/>
</g>
<defs>
<clipPath id="clip0_2666_9722">
<rect width="8" height="8" fill="white"/>
</clipPath>
</defs>
</svg>
