<svg width="8" height="8" viewBox="0 0 8 8" fill="none" xmlns="http://www.w3.org/2000/svg">
<path d="M4.67053 4.05158C4.66374 4.04481 4.65835 4.03676 4.65468 4.0279C4.651 4.01904 4.64911 4.00955 4.64911 3.99996C4.64911 3.99037 4.651 3.98087 4.65468 3.97201C4.65835 3.96315 4.66374 3.95511 4.67053 3.94833L7.37202 1.24703C7.45404 1.16488 7.50008 1.05351 7.5 0.937416C7.49992 0.821324 7.45372 0.71002 7.37158 0.627988C7.28944 0.545957 7.17807 0.499918 7.06198 0.5C6.9459 0.500082 6.8346 0.546278 6.75257 0.628426L4.05137 3.32857C4.0446 3.33536 4.03655 3.34075 4.02769 3.34442C4.01884 3.3481 4.00934 3.34999 3.99975 3.34999C3.99016 3.34999 3.98066 3.3481 3.97181 3.34442C3.96295 3.34075 3.9549 3.33536 3.94813 3.32857L1.24693 0.628426C1.20632 0.587789 1.1581 0.55555 1.10502 0.53355C1.05195 0.51155 0.995058 0.50022 0.937604 0.500206C0.821572 0.500179 0.710281 0.546248 0.628214 0.62828C0.546147 0.710311 0.500027 0.821585 0.5 0.937623C0.499973 1.05366 0.54604 1.16496 0.628068 1.24703L3.32897 3.94833C3.33576 3.95511 3.34115 3.96315 3.34483 3.97201C3.3485 3.98087 3.35039 3.99037 3.35039 3.99996C3.35039 4.00955 3.3485 4.01904 3.34483 4.0279C3.34115 4.03676 3.33576 4.04481 3.32897 4.05158L0.628068 6.75318C0.587452 6.79382 0.555237 6.84206 0.533263 6.89514C0.511289 6.94823 0.499986 7.00513 0.5 7.06258C0.500027 7.17862 0.546147 7.28989 0.628214 7.37193C0.668849 7.41254 0.717087 7.44476 0.770172 7.46674C0.823257 7.48871 0.880151 7.50001 0.937604 7.5C1.05364 7.49997 1.16491 7.45385 1.24693 7.37178L3.94813 4.67018C3.9549 4.66339 3.96295 4.658 3.97181 4.65433C3.98066 4.65065 3.99016 4.64876 3.99975 4.64876C4.00934 4.64876 4.01884 4.65065 4.02769 4.65433C4.03655 4.658 4.0446 4.66339 4.05137 4.67018L6.75257 7.37178C6.8346 7.45385 6.94587 7.49997 7.0619 7.5C7.17793 7.50003 7.28922 7.45396 7.37129 7.37193C7.45335 7.28989 7.49947 7.17862 7.4995 7.06258C7.49953 6.94655 7.45346 6.83525 7.37143 6.75318L4.67053 4.05158Z" fill="#5ABAFF"/>
</svg>
