<svg width="24" height="24" viewBox="0 0 24 24" fill="none" xmlns="http://www.w3.org/2000/svg">
<g clip-path="url(#clip0_2733_38006)">
<path d="M14.0934 7.7555C14.0457 7.71028 13.9824 7.68507 13.9166 7.68507C13.8509 7.68507 13.7876 7.71028 13.7399 7.7555L8.0334 13.462C7.98653 13.5089 7.9602 13.5725 7.9602 13.6388C7.9602 13.705 7.98653 13.7686 8.0334 13.8155L10.1734 15.9555C10.2203 16.0024 10.2839 16.0287 10.3501 16.0287C10.4164 16.0287 10.48 16.0024 10.5269 15.9555L16.2334 10.25C16.2803 10.2031 16.3066 10.1395 16.3066 10.0733C16.3066 10.007 16.2803 9.94338 16.2334 9.8965L14.0934 7.7555ZM7.4999 14.355C7.46961 14.3249 7.43211 14.303 7.39098 14.2915C7.34985 14.28 7.30646 14.2793 7.26495 14.2893C7.22344 14.2993 7.18518 14.3198 7.15384 14.3488C7.12249 14.3778 7.0991 14.4144 7.0859 14.455L6.0159 17.665C6.00113 17.709 5.99893 17.7563 6.00953 17.8015C6.02012 17.8467 6.04311 17.8881 6.0759 17.921C6.10898 17.9535 6.15033 17.9763 6.19546 17.987C6.24058 17.9976 6.28777 17.9957 6.3319 17.9815L9.5419 16.912C9.58261 16.8988 9.61926 16.8754 9.64834 16.8441C9.67743 16.8127 9.69797 16.7744 9.708 16.7328C9.71804 16.6912 9.71723 16.6477 9.70565 16.6065C9.69408 16.5653 9.67213 16.5278 9.6419 16.4975L7.4999 14.355ZM17.4839 6.5085C17.1479 6.18793 16.7013 6.00907 16.2369 6.00907C15.7725 6.00907 15.3259 6.18793 14.9899 6.5085L14.6339 6.865C14.587 6.91188 14.5607 6.97546 14.5607 7.04175C14.5607 7.10804 14.587 7.17162 14.6339 7.2185L16.7734 9.3585C16.8203 9.40537 16.8839 9.4317 16.9501 9.4317C17.0164 9.4317 17.08 9.40537 17.1269 9.3585L17.4839 9C17.8135 8.66919 17.9986 8.22124 17.9986 7.75425C17.9986 7.28727 17.8135 6.83931 17.4839 6.5085Z" fill="#484848"/>
</g>
<rect x="0.14" y="0.14" width="23.72" height="23.72" rx="7.86" stroke="#A8A8A8" stroke-width="0.28"/>
<defs>
<clipPath id="clip0_2733_38006">
<rect width="12" height="12" fill="white" transform="translate(6 6)"/>
</clipPath>
</defs>
</svg>
