<svg width="10" height="9" viewBox="0 0 10 9" fill="none" xmlns="http://www.w3.org/2000/svg">
<g opacity="0.8">
<path d="M3.76743 4.04999H3.49352C3.42087 4.04999 3.3512 4.07885 3.29983 4.13022C3.24846 4.18158 3.2196 4.25125 3.2196 4.3239C3.2196 4.39655 3.24846 4.46622 3.29983 4.51759C3.3512 4.56896 3.42087 4.59781 3.49352 4.59781H3.76743C3.84008 4.59781 3.90975 4.56896 3.96112 4.51759C4.01248 4.46622 4.04134 4.39655 4.04134 4.3239C4.04134 4.25125 4.01248 4.18158 3.96112 4.13022C3.90975 4.07885 3.84008 4.04999 3.76743 4.04999ZM5.137 4.04999H4.86308C4.79044 4.04999 4.72077 4.07885 4.6694 4.13022C4.61803 4.18158 4.58917 4.25125 4.58917 4.3239C4.58917 4.39655 4.61803 4.46622 4.6694 4.51759C4.72077 4.56896 4.79044 4.59781 4.86308 4.59781H5.137C5.20964 4.59781 5.27931 4.56896 5.33068 4.51759C5.38205 4.46622 5.41091 4.39655 5.41091 4.3239C5.41091 4.25125 5.38205 4.18158 5.33068 4.13022C5.27931 4.07885 5.20964 4.04999 5.137 4.04999ZM6.50656 4.04999H6.23265C6.16 4.04999 6.09033 4.07885 6.03896 4.13022C5.98759 4.18158 5.95873 4.25125 5.95873 4.3239C5.95873 4.39655 5.98759 4.46622 6.03896 4.51759C6.09033 4.56896 6.16 4.59781 6.23265 4.59781H6.50656C6.57921 4.59781 6.64888 4.56896 6.70025 4.51759C6.75162 4.46622 6.78047 4.39655 6.78047 4.3239C6.78047 4.25125 6.75162 4.18158 6.70025 4.13022C6.64888 4.07885 6.57921 4.04999 6.50656 4.04999ZM3.76743 5.14564H3.49352C3.42087 5.14564 3.3512 5.1745 3.29983 5.22587C3.24846 5.27724 3.2196 5.34691 3.2196 5.41955C3.2196 5.4922 3.24846 5.56187 3.29983 5.61324C3.3512 5.66461 3.42087 5.69347 3.49352 5.69347H3.76743C3.84008 5.69347 3.90975 5.66461 3.96112 5.61324C4.01248 5.56187 4.04134 5.4922 4.04134 5.41955C4.04134 5.34691 4.01248 5.27724 3.96112 5.22587C3.90975 5.1745 3.84008 5.14564 3.76743 5.14564ZM5.137 5.14564H4.86308C4.79044 5.14564 4.72077 5.1745 4.6694 5.22587C4.61803 5.27724 4.58917 5.34691 4.58917 5.41955C4.58917 5.4922 4.61803 5.56187 4.6694 5.61324C4.72077 5.66461 4.79044 5.69347 4.86308 5.69347H5.137C5.20964 5.69347 5.27931 5.66461 5.33068 5.61324C5.38205 5.56187 5.41091 5.4922 5.41091 5.41955C5.41091 5.34691 5.38205 5.27724 5.33068 5.22587C5.27931 5.1745 5.20964 5.14564 5.137 5.14564ZM6.50656 5.14564H6.23265C6.16 5.14564 6.09033 5.1745 6.03896 5.22587C5.98759 5.27724 5.95873 5.34691 5.95873 5.41955C5.95873 5.4922 5.98759 5.56187 6.03896 5.61324C6.09033 5.66461 6.16 5.69347 6.23265 5.69347H6.50656C6.57921 5.69347 6.64888 5.66461 6.70025 5.61324C6.75162 5.56187 6.78047 5.4922 6.78047 5.41955C6.78047 5.34691 6.75162 5.27724 6.70025 5.22587C6.64888 5.1745 6.57921 5.14564 6.50656 5.14564ZM3.76743 6.24129H3.49352C3.42087 6.24129 3.3512 6.27015 3.29983 6.32152C3.24846 6.37289 3.2196 6.44256 3.2196 6.51521C3.2196 6.58785 3.24846 6.65752 3.29983 6.70889C3.3512 6.76026 3.42087 6.78912 3.49352 6.78912H3.76743C3.84008 6.78912 3.90975 6.76026 3.96112 6.70889C4.01248 6.65752 4.04134 6.58785 4.04134 6.51521C4.04134 6.44256 4.01248 6.37289 3.96112 6.32152C3.90975 6.27015 3.84008 6.24129 3.76743 6.24129ZM5.137 6.24129H4.86308C4.79044 6.24129 4.72077 6.27015 4.6694 6.32152C4.61803 6.37289 4.58917 6.44256 4.58917 6.51521C4.58917 6.58785 4.61803 6.65752 4.6694 6.70889C4.72077 6.76026 4.79044 6.78912 4.86308 6.78912H5.137C5.20964 6.78912 5.27931 6.76026 5.33068 6.70889C5.38205 6.65752 5.41091 6.58785 5.41091 6.51521C5.41091 6.44256 5.38205 6.37289 5.33068 6.32152C5.27931 6.27015 5.20964 6.24129 5.137 6.24129ZM6.50656 6.24129H6.23265C6.16 6.24129 6.09033 6.27015 6.03896 6.32152C5.98759 6.37289 5.95873 6.44256 5.95873 6.51521C5.95873 6.58785 5.98759 6.65752 6.03896 6.70889C6.09033 6.76026 6.16 6.78912 6.23265 6.78912H6.50656C6.57921 6.78912 6.64888 6.76026 6.70025 6.70889C6.75162 6.65752 6.78047 6.58785 6.78047 6.51521C6.78047 6.44256 6.75162 6.37289 6.70025 6.32152C6.64888 6.27015 6.57921 6.24129 6.50656 6.24129Z" fill="#717171"/>
<path d="M7.60215 1.99564H6.84889C6.83073 1.99564 6.81331 1.98843 6.80047 1.97559C6.78763 1.96274 6.78041 1.94533 6.78041 1.92717V1.44782C6.78041 1.37517 6.75155 1.3055 6.70018 1.25413C6.64881 1.20276 6.57914 1.1739 6.5065 1.1739C6.43385 1.1739 6.36418 1.20276 6.31281 1.25413C6.26144 1.3055 6.23258 1.37517 6.23258 1.44782V2.7489C6.23258 2.80339 6.21094 2.85564 6.17241 2.89417C6.13389 2.9327 6.08163 2.95434 6.02715 2.95434C5.97266 2.95434 5.92041 2.9327 5.88189 2.89417C5.84336 2.85564 5.82171 2.80339 5.82171 2.7489V2.1326C5.82171 2.09628 5.80729 2.06144 5.7816 2.03576C5.75592 2.01007 5.72108 1.99564 5.68476 1.99564H3.9728C3.95469 1.99564 3.93731 1.98847 3.92448 1.97568C3.91164 1.9629 3.9044 1.94555 3.90432 1.92744V1.44782C3.90432 1.37517 3.87546 1.3055 3.8241 1.25413C3.77273 1.20276 3.70306 1.1739 3.63041 1.1739C3.55776 1.1739 3.48809 1.20276 3.43672 1.25413C3.38536 1.3055 3.3565 1.37517 3.3565 1.44782V2.7489C3.3565 2.80339 3.33485 2.85564 3.29633 2.89417C3.2578 2.9327 3.20555 2.95434 3.15106 2.95434C3.09658 2.95434 3.04432 2.9327 3.0058 2.89417C2.96727 2.85564 2.94563 2.80339 2.94563 2.7489V2.1326C2.94563 2.09628 2.9312 2.06144 2.90551 2.03576C2.87983 2.01007 2.84499 1.99564 2.80867 1.99564H2.3978C2.25251 1.99564 2.11317 2.05336 2.01043 2.1561C1.90769 2.25884 1.84998 2.39818 1.84998 2.54347V7.19999C1.84998 7.34528 1.90769 7.48462 2.01043 7.58736C2.11317 7.6901 2.25251 7.74782 2.3978 7.74782H7.60215C7.74744 7.74782 7.88678 7.6901 7.98952 7.58736C8.09226 7.48462 8.14998 7.34528 8.14998 7.19999V2.54347C8.14998 2.39818 8.09226 2.25884 7.98952 2.1561C7.88678 2.05336 7.74744 1.99564 7.60215 1.99564ZM7.60215 7.06303C7.60215 7.09936 7.58772 7.13419 7.56204 7.15988C7.53635 7.18556 7.50152 7.19999 7.46519 7.19999H2.53476C2.49844 7.19999 2.4636 7.18556 2.43792 7.15988C2.41223 7.13419 2.3978 7.09936 2.3978 7.06303V3.77608C2.3978 3.73976 2.41223 3.70492 2.43792 3.67924C2.4636 3.65355 2.49844 3.63912 2.53476 3.63912H7.46519C7.50152 3.63912 7.53635 3.65355 7.56204 3.67924C7.58772 3.70492 7.60215 3.73976 7.60215 3.77608V7.06303Z" fill="#717171"/>
</g>
</svg>
