<svg width="15" height="14" viewBox="0 0 15 14" fill="none" xmlns="http://www.w3.org/2000/svg">
<path opacity="0.5" d="M13.3916 7.60856H1.21742C0.894538 7.60856 0.584883 7.73682 0.356573 7.96513C0.128263 8.19344 0 8.5031 0 8.82597C0 9.14885 0.128263 9.45851 0.356573 9.68682C0.584883 9.91513 0.894538 10.0434 1.21742 10.0434H13.3916C13.7145 10.0434 14.0241 9.91513 14.2524 9.68682C14.4807 9.45851 14.609 9.14885 14.609 8.82597C14.609 8.5031 14.4807 8.19344 14.2524 7.96513C14.0241 7.73682 13.7145 7.60856 13.3916 7.60856ZM7.3045 14C7.42443 14.0003 7.54322 13.9768 7.65398 13.9308C7.76474 13.8848 7.86527 13.8173 7.94973 13.7322L9.16715 12.5147C9.29468 12.3871 9.38151 12.2244 9.41668 12.0474C9.45184 11.8704 9.43376 11.687 9.36472 11.5202C9.29568 11.3535 9.17877 11.2109 9.02877 11.1106C8.87877 11.0102 8.70239 10.9566 8.52192 10.9565H6.08709C5.90662 10.9566 5.73024 11.0102 5.58024 11.1106C5.43023 11.2109 5.31332 11.3535 5.24428 11.5202C5.17524 11.687 5.15716 11.8704 5.19233 12.0474C5.22749 12.2244 5.31432 12.3871 5.44185 12.5147L6.65927 13.7322C6.74374 13.8173 6.84426 13.8848 6.95503 13.9308C7.06579 13.9768 7.18458 14.0003 7.3045 14ZM14.609 5.17372C14.609 4.85084 14.4807 4.54119 14.2524 4.31288C14.0241 4.08457 13.7145 3.95631 13.3916 3.95631H1.21742C0.894538 3.95631 0.584883 4.08457 0.356573 4.31288C0.128263 4.54119 0 4.85084 0 5.17372C0 5.4966 0.128263 5.80626 0.356573 6.03457C0.584883 6.26288 0.894538 6.39114 1.21742 6.39114H13.3916C13.7145 6.39114 14.0241 6.26288 14.2524 6.03457C14.4807 5.80626 14.609 5.4966 14.609 5.17372ZM6.65927 0.267533L5.44185 1.48495C5.31432 1.61264 5.22749 1.77526 5.19233 1.95227C5.15716 2.12928 5.17524 2.31275 5.24428 2.47949C5.31332 2.64623 5.43023 2.78877 5.58024 2.88911C5.73024 2.98945 5.90662 3.04308 6.08709 3.04324H8.52192C8.70239 3.04308 8.87877 2.98945 9.02877 2.88911C9.17877 2.78877 9.29568 2.64623 9.36472 2.47949C9.43376 2.31275 9.45184 2.12928 9.41668 1.95227C9.38151 1.77526 9.29468 1.61264 9.16715 1.48495L7.94973 0.267533C7.86504 0.182722 7.76447 0.11544 7.65375 0.0695346C7.54304 0.0236288 7.42436 0 7.3045 0C7.18465 0 7.06597 0.0236288 6.95525 0.0695346C6.84454 0.11544 6.74396 0.182722 6.65927 0.267533Z" fill="#5ABAFF"/>
</svg>
