<svg width="12" height="12" viewBox="0 0 12 12" fill="none" xmlns="http://www.w3.org/2000/svg">
<path opacity="0.75" d="M7.23398 2.7758C7.21532 2.75699 7.19314 2.74204 7.1687 2.73182C7.14426 2.7216 7.11804 2.71631 7.09154 2.71626C7.06508 2.71626 7.03887 2.72149 7.01443 2.73164C6.98999 2.74179 6.96779 2.75666 6.94911 2.7754L2.55461 7.17111C2.5169 7.20883 2.49571 7.25999 2.49571 7.31334C2.49571 7.36668 2.5169 7.41784 2.55461 7.45557L4.54545 9.44641C4.58318 9.48413 4.63434 9.50531 4.68768 9.50531C4.74103 9.50531 4.79219 9.48413 4.82992 9.44641L9.2224 5.05393C9.26 5.01622 9.28111 4.96514 9.28111 4.9119C9.28111 4.85865 9.26 4.80757 9.2224 4.76986L7.23398 2.7758ZM2.14944 7.93155C2.12414 7.90633 2.09257 7.88831 2.05799 7.87933C2.02342 7.87035 1.98707 7.87074 1.95269 7.88046C1.91826 7.89011 1.88702 7.90877 1.8622 7.93451C1.83738 7.96026 1.81986 7.99215 1.81146 8.02691L1.20552 10.5525C1.19752 10.5859 1.19824 10.6209 1.20761 10.654C1.21698 10.6871 1.23469 10.7173 1.25903 10.7416C1.28354 10.7656 1.31372 10.7831 1.34677 10.7924C1.37983 10.8017 1.4147 10.8025 1.44814 10.7947L3.9717 10.1912C4.0065 10.1828 4.03844 10.1654 4.06425 10.1406C4.09005 10.1158 4.10877 10.0846 4.11849 10.0501C4.12821 10.0157 4.12856 9.9793 4.11952 9.94468C4.11048 9.91006 4.09237 9.87848 4.06705 9.85319L2.14944 7.93155ZM10.5063 2.3485L9.65212 1.49391C9.46354 1.3057 9.20799 1.2 8.94156 1.2C8.67513 1.2 8.41959 1.3057 8.23101 1.49391L7.66047 2.06404C7.62276 2.10177 7.60157 2.15293 7.60157 2.20627C7.60157 2.25962 7.62276 2.31078 7.66047 2.3485L9.65212 4.33975C9.68984 4.37746 9.741 4.39865 9.79435 4.39865C9.84769 4.39865 9.89886 4.37746 9.93658 4.33975L10.5063 3.76881C10.6943 3.58026 10.7998 3.32489 10.7998 3.05866C10.7998 2.79243 10.6943 2.53705 10.5063 2.3485Z" fill="#717171"/>
</svg>
