<svg width="40" height="40" viewBox="0 0 40 40" fill="none" xmlns="http://www.w3.org/2000/svg">
<g clip-path="url(#clip0_3105_11802)">
<path d="M26.445 17.4317C26.5757 17.3752 26.6897 17.2862 26.7763 17.1732C26.8628 17.0602 26.9189 16.9269 26.9393 16.786C26.9597 16.6451 26.9437 16.5014 26.8927 16.3684C26.8418 16.2355 26.7577 16.1178 26.6483 16.0267C25.9172 15.4173 25.105 14.9125 24.235 14.5267C24.1659 14.4968 24.1063 14.4488 24.0624 14.3877C24.0185 14.3266 23.9921 14.2547 23.9859 14.1797C23.9798 14.1047 23.9941 14.0294 24.0274 13.962C24.0607 13.8945 24.1117 13.8374 24.175 13.7967C25.5368 12.9126 26.5764 11.612 27.1385 10.0888C27.7007 8.56556 27.7553 6.90143 27.2943 5.34463C26.8333 3.78783 25.8814 2.42178 24.5805 1.45027C23.2796 0.478762 21.6995 -0.0461445 20.0758 -0.0461445C18.4522 -0.0461445 16.8721 0.478762 15.5712 1.45027C14.2703 2.42178 13.3183 3.78783 12.8573 5.34463C12.3963 6.90143 12.451 8.56556 13.0131 10.0888C13.5753 11.612 14.6148 12.9126 15.9767 13.7967C16.0395 13.8376 16.0901 13.8947 16.1232 13.962C16.1563 14.0293 16.1706 14.1043 16.1646 14.179C16.1587 14.2538 16.1326 14.3255 16.0893 14.3867C16.0459 14.4479 15.9869 14.4962 15.9183 14.5267C15.0272 14.9203 14.1966 15.4388 13.4517 16.0667C13.3438 16.1578 13.2609 16.2749 13.2106 16.4068C13.1604 16.5388 13.1446 16.6814 13.1645 16.8212C13.1845 16.961 13.2397 17.0934 13.3249 17.206C13.4101 17.3186 13.5226 17.4078 13.6517 17.465C15.193 18.1541 16.5363 19.2195 17.5583 20.5633C17.636 20.6668 17.7366 20.7508 17.8523 20.8087C17.968 20.8665 18.0956 20.8967 18.225 20.8967H21.7817C21.911 20.8967 22.0386 20.8665 22.1543 20.8087C22.2701 20.7508 22.3707 20.6668 22.4483 20.5633C23.4912 19.1952 24.8671 18.117 26.445 17.4317ZM16.1233 6.16667C16.1446 6.10742 16.1789 6.05375 16.2239 6.00969C16.2688 5.96563 16.3232 5.93232 16.3829 5.91227C16.4425 5.89223 16.5059 5.88596 16.5684 5.89393C16.6308 5.90191 16.6906 5.92393 16.7433 5.95833C18.3155 6.98449 20.1525 7.53062 22.03 7.53C22.6094 7.52722 23.1874 7.47143 23.7567 7.36333C23.8184 7.35195 23.882 7.35469 23.9426 7.37134C24.0031 7.38798 24.0592 7.41811 24.1065 7.45947C24.1537 7.50082 24.1911 7.55233 24.2156 7.61015C24.2402 7.66797 24.2514 7.73059 24.2483 7.79333C24.1873 8.88477 23.7019 9.90907 22.8957 10.6473C22.0895 11.3856 21.0266 11.7793 19.934 11.7442C18.8414 11.7092 17.8059 11.2482 17.0486 10.4598C16.2914 9.67141 15.8726 8.61811 15.8817 7.525C15.8833 7.06167 15.965 6.60212 16.1233 6.16667ZM17.1117 26.63C17.1186 25.3234 16.7854 24.0376 16.1447 22.8988C15.5041 21.7601 14.5781 20.8077 13.4579 20.1353C12.3376 19.4628 11.0616 19.0935 9.75541 19.0637C8.44917 19.0338 7.15766 19.3445 6.00786 19.965C4.85805 20.5856 3.88955 21.4947 3.19758 22.603C2.50561 23.7113 2.11399 24.9806 2.06124 26.2861C2.00849 27.5916 2.29642 28.8884 2.89671 30.0489C3.49701 31.2094 4.38901 32.1937 5.485 32.905C5.54735 32.9463 5.59751 33.0035 5.63026 33.0707C5.663 33.1379 5.67713 33.2127 5.67117 33.2872C5.66522 33.3617 5.63939 33.4333 5.59639 33.4945C5.55339 33.5556 5.49478 33.6042 5.42666 33.635C4.78866 33.9165 4.18153 34.2634 3.615 34.67C2.3301 35.5823 1.2732 36.7789 0.526663 38.1667C0.425796 38.3568 0.375807 38.5698 0.381548 38.785C0.387289 39.0001 0.448566 39.2102 0.559429 39.3946C0.670293 39.5791 0.826976 39.7318 1.01427 39.8379C1.20156 39.944 1.41309 39.9998 1.62833 40H17.5383C17.7536 39.9998 17.9651 39.944 18.1524 39.8379C18.3397 39.7318 18.4964 39.5791 18.6072 39.3946C18.7181 39.2102 18.7794 39.0001 18.7851 38.785C18.7909 38.5698 18.7409 38.3568 18.64 38.1667C17.8939 36.7777 16.837 35.5799 15.5517 34.6667C14.9851 34.26 14.378 33.9132 13.74 33.6317C13.6715 33.6012 13.6124 33.5529 13.569 33.4917C13.5257 33.4305 13.4997 33.3588 13.4937 33.284C13.4877 33.2093 13.502 33.1343 13.5351 33.067C13.5682 32.9997 13.6188 32.9426 13.6817 32.9017C14.7311 32.2253 15.5947 31.2971 16.1937 30.2018C16.7928 29.1064 17.1084 27.8785 17.1117 26.63ZM5.63 25.2667C5.65123 25.2074 5.68561 25.1537 5.73056 25.1097C5.77551 25.0656 5.82985 25.0323 5.88952 25.0123C5.94918 24.9922 6.01261 24.986 6.07504 24.9939C6.13748 25.0019 6.19729 25.0239 6.25 25.0583C7.8222 26.0845 9.65921 26.6306 11.5367 26.63C12.1161 26.6272 12.6941 26.5714 13.2633 26.4633C13.3252 26.4526 13.3887 26.4557 13.4492 26.4724C13.5097 26.4891 13.5658 26.519 13.6133 26.56C13.6605 26.6013 13.6977 26.6528 13.7223 26.7105C13.7468 26.7682 13.758 26.8307 13.755 26.8933C13.694 27.9848 13.2085 29.0091 12.4024 29.7473C11.5962 30.4856 10.5332 30.8793 9.44065 30.8442C8.34807 30.8092 7.31252 30.3482 6.55531 29.5598C5.79809 28.7714 5.37926 27.7181 5.38833 26.625C5.38994 26.1617 5.4717 25.7021 5.63 25.2667ZM36.385 34.6667C35.8185 34.26 35.2113 33.9132 34.5733 33.6317C34.5048 33.6012 34.4457 33.5529 34.4024 33.4917C34.359 33.4305 34.333 33.3588 34.327 33.284C34.321 33.2093 34.3354 33.1343 34.3684 33.067C34.4015 32.9997 34.4522 32.9426 34.515 32.9017C35.877 32.0177 36.9168 30.7171 37.4791 29.1939C38.0414 27.6707 38.0962 26.0065 37.6353 24.4496C37.1744 22.8927 36.2224 21.5265 34.9215 20.5549C33.6206 19.5833 32.0404 19.0583 30.4167 19.0583C28.793 19.0583 27.2128 19.5833 25.9118 20.5549C24.6109 21.5265 23.659 22.8927 23.198 24.4496C22.7371 26.0065 22.7919 27.6707 23.3542 29.1939C23.9166 30.7171 24.9563 32.0177 26.3183 32.9017C26.3807 32.9429 26.4308 33.0001 26.4636 33.0674C26.4963 33.1346 26.5105 33.2093 26.5045 33.2839C26.4985 33.3584 26.4727 33.43 26.4297 33.4911C26.3867 33.5523 26.3281 33.6008 26.26 33.6317C25.622 33.9132 25.0149 34.26 24.4483 34.6667C23.163 35.5799 22.1061 36.7777 21.36 38.1667C21.2591 38.3568 21.2091 38.5698 21.2149 38.785C21.2206 39.0001 21.2819 39.2102 21.3928 39.3946C21.5036 39.5791 21.6603 39.7318 21.8476 39.8379C22.0349 39.944 22.2464 39.9998 22.4617 40H38.3717C38.5869 39.9998 38.7984 39.944 38.9857 39.8379C39.173 39.7318 39.3297 39.5791 39.4406 39.3946C39.5514 39.2102 39.6127 39.0001 39.6184 38.785C39.6242 38.5698 39.5742 38.3568 39.4733 38.1667C38.7272 36.7777 37.6703 35.5799 36.385 34.6667ZM26.4633 25.2667C26.4846 25.2074 26.5189 25.1537 26.5639 25.1097C26.6088 25.0656 26.6632 25.0323 26.7228 25.0123C26.7825 24.9922 26.8459 24.986 26.9084 24.9939C26.9708 25.0019 27.0306 25.0239 27.0833 25.0583C28.6555 26.0845 30.4925 26.6306 32.37 26.63C32.9494 26.6272 33.5274 26.5714 34.0967 26.4633C34.1585 26.4526 34.222 26.4557 34.2825 26.4724C34.343 26.4891 34.3991 26.519 34.4467 26.56C34.4938 26.6013 34.5311 26.6528 34.5556 26.7105C34.5801 26.7682 34.5913 26.8307 34.5883 26.8933C34.5273 27.9848 34.0419 29.0091 33.2357 29.7473C32.4295 30.4856 31.3666 30.8793 30.274 30.8442C29.1814 30.8092 28.1459 30.3482 27.3886 29.5598C26.6314 28.7714 26.2126 27.7181 26.2217 26.625C26.2233 26.1617 26.305 25.7021 26.4633 25.2667Z" fill="#DDDDDD"/>
</g>
<defs>
<clipPath id="clip0_3105_11802">
<rect width="40" height="40" fill="white"/>
</clipPath>
</defs>
</svg>
