<svg width="4" height="5" viewBox="0 0 4 5" fill="none" xmlns="http://www.w3.org/2000/svg">
<path d="M3.2333 2.71911C3.26465 2.69215 3.28984 2.6586 3.30711 2.62078C3.32439 2.58296 3.33333 2.54179 3.33333 2.50011C3.33333 2.45844 3.32439 2.41726 3.30711 2.37944C3.28984 2.34163 3.26465 2.30807 3.2333 2.28112L0.444131 0.0595185C0.403611 0.0272193 0.354937 0.00714021 0.303684 0.00157988C0.25243 -0.00398046 0.200668 0.00520276 0.154323 0.0280782C0.107978 0.0509535 0.068924 0.0865965 0.0416315 0.130926C0.014339 0.175256 -8.86423e-05 0.226482 4.09763e-07 0.278737V4.72149C-4.73119e-05 4.77372 0.0144103 4.82492 0.0417191 4.86922C0.069028 4.91351 0.108085 4.94912 0.154422 4.97197C0.200759 4.99482 0.252505 5.00398 0.303739 4.99841C0.354972 4.99285 0.403626 4.97277 0.444131 4.94048L3.2333 2.71911Z" fill="#717171"/>
</svg>
