<svg width="6" height="5" viewBox="0 0 6 5" fill="none" xmlns="http://www.w3.org/2000/svg">
<path d="M2.44758 4.06655C2.47454 4.0979 2.50809 4.12309 2.54591 4.14036C2.58372 4.15764 2.6249 4.16659 2.66658 4.16659C2.70825 4.16659 2.74943 4.15764 2.78724 4.14036C2.82506 4.12309 2.85861 4.0979 2.88557 4.06655L5.10717 1.27738C5.13947 1.23686 5.15955 1.18819 5.16511 1.13694C5.17067 1.08568 5.16148 1.03392 5.13861 0.987575C5.11573 0.94123 5.08009 0.902176 5.03576 0.874883C4.99143 0.847591 4.94021 0.833163 4.88795 0.833252L0.445201 0.833252C0.392965 0.833204 0.341769 0.847662 0.297472 0.874971C0.253175 0.90228 0.217565 0.941337 0.194717 0.987674C0.171869 1.03401 0.162704 1.08576 0.168273 1.13699C0.173842 1.18822 0.193918 1.23688 0.226205 1.27738L2.44758 4.06655Z" fill="#717171"/>
</svg>
