<svg width="11" height="11" viewBox="0 0 11 11" fill="none" xmlns="http://www.w3.org/2000/svg">
<rect x="0.75" y="0.248535" width="10.25" height="10.501" rx="5.125" fill="#717171"/>
<g clip-path="url(#clip0_6648:83985)">
<path d="M4.41929 3.86808C4.55498 4.67041 5.03185 5.21996 5.87431 5.49873C6.71676 5.21996 7.19363 4.67041 7.32932 3.86808C7.33737 3.81446 7.33397 3.75969 7.31935 3.70755C7.30473 3.65541 7.27925 3.60714 7.24466 3.56607C7.21007 3.525 7.16719 3.4921 7.11898 3.46965C7.07078 3.4472 7.01839 3.43574 6.96544 3.43604H4.78317C4.73022 3.43574 4.67783 3.4472 4.62963 3.46965C4.58142 3.4921 4.53854 3.525 4.50395 3.56607C4.46936 3.60714 4.44388 3.65541 4.42926 3.70755C4.41464 3.75969 4.41124 3.81446 4.41929 3.86808V3.86808Z" stroke="white" stroke-width="0.7" stroke-linecap="round" stroke-linejoin="round"/>
<path d="M3.86133 2.68604H7.88811" stroke="white" stroke-width="0.7" stroke-linecap="round" stroke-linejoin="round"/>
<path d="M4.78313 7.56172C4.7302 7.56201 4.67784 7.55055 4.62966 7.52812C4.58147 7.50568 4.53861 7.47281 4.50402 7.43177C4.46943 7.39073 4.44394 7.34249 4.42931 7.29038C4.41468 7.23827 4.41125 7.18352 4.41926 7.12993C4.55495 6.3276 5.03182 5.77805 5.87427 5.49902C6.71672 5.77805 7.19359 6.3276 7.32928 7.12993C7.33729 7.18352 7.33386 7.23827 7.31923 7.29038C7.30459 7.34249 7.2791 7.39073 7.24452 7.43177C7.20993 7.47281 7.16706 7.50568 7.11888 7.52812C7.07069 7.55055 7.01833 7.56201 6.9654 7.56172H4.78313Z" stroke="white" stroke-width="0.7" stroke-linecap="round" stroke-linejoin="round"/>
<path d="M3.86133 8.31152H7.88811" stroke="white" stroke-width="0.7" stroke-linecap="round" stroke-linejoin="round"/>
</g>
<defs>
<clipPath id="clip0_6648:83985">
<rect width="5.85714" height="6.00056" fill="white" transform="translate(2.94629 2.49854)"/>
</clipPath>
</defs>
</svg>
