<svg width="24" height="24" viewBox="0 0 24 24" fill="none" xmlns="http://www.w3.org/2000/svg">
<rect width="24" height="24" rx="8" fill="#E8F0FC"/>
<g clip-path="url(#clip0_5818_111)">
<path d="M12 4.5C10.4178 4.5 8.87104 4.96919 7.55544 5.84824C6.23985 6.72729 5.21447 7.97672 4.60897 9.43853C4.00347 10.9003 3.84504 12.5089 4.15372 14.0607C4.4624 15.6126 5.22433 17.038 6.34315 18.1569C7.46197 19.2757 8.88743 20.0376 10.4393 20.3463C11.9911 20.655 13.5997 20.4965 15.0615 19.891C16.5233 19.2855 17.7727 18.2602 18.6518 16.9446C19.5308 15.629 20 14.0822 20 12.5C19.9975 10.379 19.1539 8.34563 17.6541 6.84587C16.1544 5.34612 14.121 4.50247 12 4.5V4.5ZM12 19.1667C10.6815 19.1667 9.39253 18.7757 8.2962 18.0431C7.19987 17.3106 6.34539 16.2694 5.84081 15.0512C5.33622 13.833 5.2042 12.4926 5.46144 11.1994C5.71867 9.90619 6.35361 8.7183 7.28596 7.78595C8.21831 6.8536 9.4062 6.21867 10.6994 5.96143C11.9926 5.7042 13.3331 5.83622 14.5512 6.3408C15.7694 6.84539 16.8106 7.69987 17.5431 8.7962C18.2757 9.89253 18.6667 11.1815 18.6667 12.5C18.6647 14.2675 17.9617 15.9621 16.7119 17.2119C15.4621 18.4617 13.7675 19.1647 12 19.1667Z" fill="#484848"/>
<path d="M15.4227 15.04L12.3333 12.2074V8.83335C12.3333 8.65654 12.2631 8.48697 12.1381 8.36195C12.013 8.23693 11.8435 8.16669 11.6667 8.16669C11.4899 8.16669 11.3203 8.23693 11.1953 8.36195C11.0702 8.48697 11 8.65654 11 8.83335V12.5C10.9999 12.5925 11.0191 12.684 11.0562 12.7687C11.0934 12.8534 11.1478 12.9295 11.216 12.992L14.522 16.022C14.6531 16.1399 14.8252 16.2017 15.0013 16.1941C15.1774 16.1865 15.3436 16.1101 15.464 15.9814C15.5832 15.851 15.6459 15.6786 15.6381 15.5021C15.6304 15.3256 15.5529 15.1594 15.4227 15.04Z" fill="#484848"/>
</g>
<defs>
<clipPath id="clip0_5818_111">
<rect width="16" height="16" fill="white" transform="translate(4 4.5)"/>
</clipPath>
</defs>
</svg>
