<svg width="10" height="10" viewBox="0 0 10 10" fill="none" xmlns="http://www.w3.org/2000/svg">
<path d="M5 0C4.01109 0 3.0444 0.293245 2.22215 0.842652C1.3999 1.39206 0.759043 2.17295 0.380605 3.08658C0.00216643 4.00021 -0.0968502 5.00555 0.0960758 5.97545C0.289002 6.94536 0.765206 7.83627 1.46447 8.53553C2.16373 9.23479 3.05465 9.711 4.02455 9.90392C4.99445 10.0969 5.99979 9.99783 6.91342 9.6194C7.82705 9.24096 8.60794 8.6001 9.15735 7.77785C9.70675 6.9556 10 5.98891 10 5C9.99846 3.67439 9.47118 2.40352 8.53383 1.46617C7.59648 0.528824 6.32561 0.00154384 5 0V0ZM7.88625 3.41667L5.03417 7.28708C5.0005 7.33176 4.95826 7.36928 4.90993 7.39745C4.8616 7.42563 4.80814 7.4439 4.75268 7.45119C4.69721 7.45848 4.64085 7.45465 4.58688 7.43993C4.53291 7.4252 4.48241 7.39987 4.43833 7.36542L2.40167 5.73708C2.35893 5.70288 2.32335 5.6606 2.29696 5.61265C2.27057 5.56471 2.25387 5.51203 2.24784 5.45763C2.23565 5.34776 2.2676 5.23756 2.33667 5.15125C2.40574 5.06494 2.50626 5.00961 2.61612 4.99742C2.72599 4.98523 2.8362 5.01718 2.9225 5.08625L4.62083 6.445L7.21542 2.92375C7.24665 2.87688 7.28707 2.83683 7.33422 2.80601C7.38137 2.7752 7.43428 2.75427 7.48975 2.74448C7.54522 2.7347 7.6021 2.73626 7.65694 2.74907C7.71179 2.76189 7.76347 2.78569 7.80887 2.81904C7.85426 2.85239 7.89241 2.8946 7.92103 2.94312C7.94965 2.99163 7.96813 3.04544 7.97536 3.1013C7.9826 3.15716 7.97843 3.21391 7.96311 3.26811C7.9478 3.32232 7.92165 3.37285 7.88625 3.41667Z" fill="white"/>
</svg>
