<svg width="12" height="10" viewBox="0 0 12 10" fill="none" xmlns="http://www.w3.org/2000/svg">
<path d="M6.30735 4.77727C6.3301 4.79193 6.35658 4.79973 6.38365 4.79973C6.41071 4.79973 6.43719 4.79193 6.45994 4.77727L11.8543 1.17805C11.9009 1.14696 11.9372 1.10261 11.9584 1.05071C11.9796 0.998817 11.9847 0.94176 11.9732 0.886903C11.9195 0.636204 11.7815 0.411464 11.5823 0.250096C11.3831 0.0887268 11.1346 0.000464014 10.8782 2.0879e-07H1.62208C1.35865 -0.000160431 1.10357 0.0923793 0.901512 0.261407C0.699459 0.430434 0.563326 0.665169 0.516962 0.924488C0.507278 0.979376 0.514165 1.0359 0.536746 1.08686C0.559327 1.13782 0.596576 1.18089 0.643742 1.21059L6.30735 4.77727Z" fill="#5ABAFF"/>
<path d="M6.92654 5.47567C6.76904 5.58032 6.58468 5.63727 6.3956 5.63966C6.20652 5.64205 6.02077 5.58977 5.86068 5.48913L0.930268 2.37684C0.887831 2.35003 0.838978 2.33511 0.788807 2.33362C0.738636 2.33213 0.688985 2.34413 0.645033 2.36837C0.601081 2.39261 0.564438 2.4282 0.538928 2.47143C0.513418 2.51465 0.499974 2.56394 0.5 2.61413V8.6951C0.5 8.99266 0.618205 9.27804 0.828612 9.48844C1.03902 9.69885 1.32439 9.81706 1.62195 9.81706H10.878C11.1756 9.81706 11.461 9.69885 11.6714 9.48844C11.8818 9.27804 12 8.99266 12 8.6951V2.61749C12 2.56676 11.9862 2.51698 11.9601 2.47346C11.934 2.42994 11.8966 2.39431 11.8519 2.37036C11.8072 2.34641 11.7568 2.33505 11.7061 2.33747C11.6554 2.3399 11.6064 2.35602 11.5641 2.38413L6.92654 5.47567Z" fill="#5ABAFF"/>
</svg>
