<svg width="24" height="24" viewBox="0 0 24 24" fill="none" xmlns="http://www.w3.org/2000/svg">
<rect width="24" height="24" rx="4" fill="#757575" fill-opacity="0.1"/>
<path d="M19.6564 11.8618C19.6339 9.8419 18.8179 7.9119 17.3846 6.48852C16.6751 5.78453 15.8309 5.23072 14.9027 4.86017C13.9744 4.48962 12.9809 4.30991 11.9816 4.33178C9.93399 4.36543 7.98184 5.2035 6.54711 6.66484C5.82949 7.37998 5.26339 8.23244 4.88262 9.17128C4.50186 10.1101 4.31424 11.1161 4.33099 12.1291C4.32989 13.1188 4.52411 14.0991 4.90253 15.0136C5.28096 15.9282 5.83614 16.7591 6.53626 17.4587C7.23638 18.1583 8.06768 18.7128 8.98251 19.0906C9.89735 19.4683 10.8777 19.6618 11.8675 19.66H12.0058C14.0536 19.6379 16.0091 18.8046 17.4434 17.3427C18.8776 15.8808 19.6735 13.9097 19.6564 11.8618ZM11.0657 8.28146C11.0657 8.03533 11.1634 7.79929 11.3375 7.62525C11.5115 7.45121 11.7476 7.35344 11.9937 7.35344C12.2398 7.35344 12.4759 7.45121 12.6499 7.62525C12.8239 7.79929 12.9217 8.03533 12.9217 8.28146V12.4576C12.9217 12.7037 12.8239 12.9398 12.6499 13.1138C12.4759 13.2878 12.2398 13.3856 11.9937 13.3856C11.7476 13.3856 11.5115 13.2878 11.3375 13.1138C11.1634 12.9398 11.0657 12.7037 11.0657 12.4576V8.28146ZM12.0141 16.655H11.9937C11.686 16.6576 11.39 16.5379 11.1706 16.3222C10.9512 16.1064 10.8265 15.8124 10.8239 15.5048C10.8213 15.1971 10.9411 14.901 11.1568 14.6816C11.3725 14.4623 11.6665 14.3376 11.9742 14.335H11.9937C12.3014 14.3325 12.5974 14.4524 12.8167 14.6682C13.036 14.884 13.1605 15.1781 13.163 15.4857C13.1655 15.7934 13.0456 16.0894 12.8298 16.3087C12.614 16.528 12.3199 16.6526 12.0123 16.655H12.0141Z" fill="#757575"/>
</svg>
