<svg width="10" height="10" viewBox="0 0 10 10" fill="none" xmlns="http://www.w3.org/2000/svg">
<path d="M4.39949 0.3125C5.03692 0.3125 5.60849 0.576275 6.0261 0.982902C6.4437 1.40057 6.6965 1.97206 6.6965 2.60949C6.6965 3.24692 6.4437 3.81848 6.0261 4.23607C5.83921 4.42294 5.61945 4.57675 5.36664 4.69768C5.66339 4.77459 5.94917 4.89551 6.2129 5.03836C6.3339 5.1043 6.3778 5.2582 6.3119 5.37904C6.2459 5.49997 6.092 5.5439 5.97118 5.47796C5.72941 5.34607 5.4766 5.24716 5.20186 5.18121C4.93808 5.11527 4.66334 5.0823 4.38853 5.0823C3.48732 5.0823 2.67399 5.44499 2.06957 6.04945C1.47608 6.64294 1.10242 7.45627 1.10242 8.35747V8.80811C1.10242 8.89606 1.1354 8.97297 1.19037 9.02795C1.24535 9.08293 1.33323 9.1159 1.43214 9.1159H5.33375C5.4766 9.1159 5.58655 9.22578 5.58655 9.36871C5.58655 9.51156 5.47667 9.62152 5.33375 9.62152H1.44307C1.21227 9.62152 1.00347 9.53357 0.860537 9.37975C0.706647 9.2369 0.618767 9.02803 0.618767 8.79722V8.34658C0.618767 7.31349 1.04741 6.35735 1.72885 5.67587C2.19046 5.21426 2.77298 4.86254 3.42138 4.69768C3.17961 4.5878 2.95977 4.42294 2.77291 4.23607C2.35524 3.8184 2.10251 3.24692 2.10251 2.60949C2.10251 1.97206 2.35532 1.40049 2.77291 0.982902C3.19058 0.565309 3.76199 0.3125 4.39949 0.3125ZM4.77315 8.14887H6.8283C6.9712 8.14887 7.0811 8.25875 7.0811 8.40167V8.89625L8.7517 7.5224L7.0811 6.13758V6.64313C7.0811 6.77501 6.9713 6.89594 6.8283 6.89594H4.77315V8.14887ZM6.5866 8.65441H4.5203C4.38841 8.65441 4.26749 8.54453 4.26749 8.4016L4.26757 6.64313C4.26757 6.50027 4.37745 6.39032 4.52038 6.39032H6.5756V5.60996C6.5756 5.55498 6.5976 5.50008 6.6305 5.4451C6.7185 5.33522 6.8833 5.32418 6.9823 5.41213L9.2903 7.31357C9.3013 7.32453 9.3123 7.33557 9.3233 7.34654C9.4112 7.45642 9.4002 7.61031 9.2903 7.69826L7.0041 9.62156C6.9602 9.66549 6.8942 9.6875 6.8283 9.6875C6.6964 9.6875 6.5755 9.57762 6.5755 9.43469V8.65441H6.5866ZM5.66339 1.33466C5.34464 1.01591 4.89407 0.807115 4.39949 0.807115C3.90492 0.807115 3.45428 1.00495 3.1356 1.33466C2.81685 1.65342 2.60805 2.10398 2.60805 2.59856C2.60805 3.09314 2.80588 3.54378 3.1356 3.86245C3.45435 4.18121 3.90492 4.39 4.39949 4.39C4.89407 4.39 5.34471 4.19217 5.66339 3.86245C5.98214 3.5437 6.1909 3.09314 6.1909 2.59856C6.1909 2.10398 5.98214 1.66438 5.66339 1.33466Z" fill="url(#paint0_linear_1_7)"/>
<path d="M4.77315 8.14887H6.8283C6.9712 8.14887 7.0811 8.25875 7.0811 8.40167V8.89625L8.7517 7.5224L7.0811 6.13758V6.64313C7.0811 6.77501 6.9713 6.89594 6.8283 6.89594H4.77315V8.14887Z" fill="url(#paint1_linear_1_7)"/>
<path d="M5.66339 1.33466C5.34464 1.01591 4.89407 0.807115 4.39949 0.807115C3.90492 0.807115 3.45428 1.00495 3.1356 1.33466C2.81685 1.65342 2.60805 2.10398 2.60805 2.59856C2.60805 3.09314 2.80588 3.54378 3.1356 3.86245C3.45435 4.18121 3.90492 4.39 4.39949 4.39C4.89407 4.39 5.34471 4.19217 5.66339 3.86245C5.98214 3.5437 6.1909 3.09314 6.1909 2.59856C6.1909 2.10398 5.98214 1.66438 5.66339 1.33466Z" fill="url(#paint2_linear_1_7)"/>
<defs>
<linearGradient id="paint0_linear_1_7" x1="5.00033" y1="0.3125" x2="5.00033" y2="9.6875" gradientUnits="userSpaceOnUse">
<stop stop-color="#2257E2"/>
<stop offset="1" stop-color="#5AA6FF"/>
</linearGradient>
<linearGradient id="paint1_linear_1_7" x1="5.00033" y1="0.312501" x2="5.00033" y2="9.6875" gradientUnits="userSpaceOnUse">
<stop stop-color="#2257E2"/>
<stop offset="1" stop-color="#5AA6FF"/>
</linearGradient>
<linearGradient id="paint2_linear_1_7" x1="5.00033" y1="0.3125" x2="5.00033" y2="9.6875" gradientUnits="userSpaceOnUse">
<stop stop-color="#2257E2"/>
<stop offset="1" stop-color="#5AA6FF"/>
</linearGradient>
</defs>
</svg>
