<svg width="10" height="10" viewBox="0 0 10 10" fill="none" xmlns="http://www.w3.org/2000/svg">
<g clip-path="url(#clip0_2635_9181)">
<path opacity="0.75" d="M0.715827 0.516098C0.715942 0.516154 0.716056 0.516211 0.716171 0.516268L9.41798 4.86738C9.418 4.86739 9.41803 4.86741 9.41805 4.86742C9.44273 4.87978 9.46347 4.89875 9.47798 4.92222C9.4925 4.94572 9.50019 4.9728 9.50019 5.00042C9.50019 5.02804 9.4925 5.05511 9.47798 5.07861C9.46348 5.10208 9.44273 5.12105 9.41807 5.13341C9.41804 5.13342 9.41801 5.13344 9.41798 5.13345L0.715709 9.48438C0.715621 9.48442 0.715534 9.48447 0.715447 9.48451C0.692789 9.49575 0.667644 9.50104 0.642377 9.49989C0.617012 9.49873 0.592364 9.49112 0.570765 9.47778L0.307955 9.90314L0.570762 9.47778C0.549161 9.46443 0.531325 9.44579 0.518941 9.42362C0.506599 9.40153 0.500081 9.37666 0.5 9.35136V0.649613C0.500102 0.624276 0.506637 0.599379 0.518996 0.577257C0.531406 0.555045 0.549277 0.536365 0.570918 0.522984C0.59256 0.509603 0.617257 0.501964 0.642673 0.500789C0.667963 0.49962 0.693132 0.504888 0.715827 0.516098Z" fill="#717171" stroke="#717171"/>
</g>
<defs>
<clipPath id="clip0_2635_9181">
<rect width="10" height="10" fill="white"/>
</clipPath>
</defs>
</svg>
