<svg width="18" height="18" viewBox="0 0 18 18" fill="none" xmlns="http://www.w3.org/2000/svg">
<path d="M8.75015 12.483C8.69741 12.483 8.64586 12.4986 8.602 12.5279C8.55815 12.5572 8.52397 12.5989 8.50379 12.6476C8.4836 12.6963 8.47832 12.75 8.48861 12.8017C8.4989 12.8534 8.5243 12.9009 8.56159 12.9382C8.59889 12.9755 8.6464 13.0009 8.69813 13.0112C8.74986 13.0215 8.80348 13.0162 8.8522 12.996C8.90093 12.9758 8.94258 12.9417 8.97188 12.8978C9.00118 12.854 9.01682 12.8024 9.01682 12.7497C9.01682 12.6789 8.98873 12.6111 8.93872 12.5611C8.88871 12.5111 8.82088 12.483 8.75015 12.483Z" fill="white"/>
<path d="M6.61682 6.61633C6.6169 6.22523 6.72448 5.84169 6.92781 5.50761C7.13113 5.17353 7.42239 4.90177 7.76973 4.72203C8.11707 4.5423 8.50714 4.4615 8.8973 4.48848C9.28746 4.51546 9.6627 4.64916 9.982 4.87499C10.3013 5.10082 10.5524 5.41007 10.7078 5.76896C10.8632 6.12784 10.917 6.52254 10.8632 6.90992C10.8095 7.2973 10.6503 7.66245 10.403 7.96547C10.1558 8.26848 9.82999 8.4977 9.46127 8.62806C9.25321 8.70162 9.07309 8.83789 8.94573 9.01811C8.81837 9.19832 8.75004 9.41361 8.75015 9.63428V10.3497M8.75015 12.483C8.69741 12.483 8.64586 12.4986 8.602 12.5279C8.55815 12.5572 8.52397 12.5989 8.50379 12.6476C8.4836 12.6963 8.47832 12.75 8.48861 12.8017C8.4989 12.8534 8.5243 12.9009 8.56159 12.9382C8.59889 12.9755 8.6464 13.0009 8.69813 13.0112C8.74986 13.0215 8.80348 13.0162 8.8522 12.996C8.90093 12.9758 8.94258 12.9417 8.97188 12.8978C9.00118 12.854 9.01682 12.8024 9.01682 12.7497C9.01682 12.6789 8.98873 12.6111 8.93872 12.5611C8.88871 12.5111 8.82088 12.483 8.75015 12.483Z" stroke="white" stroke-width="1.5" stroke-linecap="round" stroke-linejoin="round"/>
<path d="M8.75012 16.75C13.1684 16.75 16.7501 13.1683 16.7501 8.75C16.7501 4.33172 13.1684 0.75 8.75012 0.75C4.33184 0.75 0.750122 4.33172 0.750122 8.75C0.750122 13.1683 4.33184 16.75 8.75012 16.75Z" stroke="white" stroke-width="1.5" stroke-miterlimit="10"/>
</svg>
