<svg width="18" height="18" viewBox="0 0 18 18" fill="none" xmlns="http://www.w3.org/2000/svg">
<path d="M8.75012 12.483C8.69738 12.483 8.64583 12.4986 8.60197 12.5279C8.55812 12.5572 8.52394 12.5989 8.50376 12.6476C8.48357 12.6963 8.47829 12.75 8.48858 12.8017C8.49887 12.8534 8.52427 12.9009 8.56156 12.9382C8.59886 12.9755 8.64637 13.0009 8.6981 13.0112C8.74983 13.0215 8.80345 13.0162 8.85217 12.996C8.9009 12.9758 8.94255 12.9417 8.97185 12.8978C9.00115 12.854 9.01679 12.8024 9.01679 12.7497C9.01679 12.6789 8.9887 12.6111 8.93869 12.5611C8.88868 12.5111 8.82085 12.483 8.75012 12.483Z" fill="#505259"/>
<path d="M6.61679 6.61633C6.61687 6.22523 6.72445 5.84169 6.92778 5.50761C7.1311 5.17353 7.42236 4.90177 7.7697 4.72203C8.11704 4.5423 8.50711 4.4615 8.89727 4.48848C9.28743 4.51546 9.66267 4.64916 9.98197 4.87499C10.3013 5.10082 10.5524 5.41007 10.7078 5.76896C10.8632 6.12784 10.917 6.52254 10.8632 6.90992C10.8095 7.2973 10.6503 7.66245 10.403 7.96547C10.1558 8.26848 9.82996 8.4977 9.46124 8.62806C9.25318 8.70162 9.07306 8.83789 8.9457 9.01811C8.81834 9.19832 8.75001 9.41361 8.75012 9.63428V10.3497M8.75012 12.483C8.69738 12.483 8.64583 12.4986 8.60197 12.5279C8.55812 12.5572 8.52394 12.5989 8.50376 12.6476C8.48357 12.6963 8.47829 12.75 8.48858 12.8017C8.49887 12.8534 8.52427 12.9009 8.56156 12.9382C8.59886 12.9755 8.64637 13.0009 8.6981 13.0112C8.74983 13.0215 8.80345 13.0162 8.85217 12.996C8.9009 12.9758 8.94255 12.9417 8.97185 12.8978C9.00115 12.854 9.01679 12.8024 9.01679 12.7497C9.01679 12.6789 8.9887 12.6111 8.93869 12.5611C8.88868 12.5111 8.82085 12.483 8.75012 12.483Z" stroke="#505259" stroke-width="1.5" stroke-linecap="round" stroke-linejoin="round"/>
<path d="M8.75012 16.75C13.1684 16.75 16.7501 13.1683 16.7501 8.75C16.7501 4.33172 13.1684 0.75 8.75012 0.75C4.33184 0.75 0.750122 4.33172 0.750122 8.75C0.750122 13.1683 4.33184 16.75 8.75012 16.75Z" stroke="#505259" stroke-width="1.5" stroke-miterlimit="10"/>
</svg>
