<svg width="16" height="16" viewBox="0 0 16 16" fill="none" xmlns="http://www.w3.org/2000/svg">
<g clip-path="url(#clip0_6253:79764)">
<path d="M15.5314 11.0526C14.5802 11.0526 13.6869 10.6857 13.0158 10.0193C12.3449 9.35327 11.9755 8.46619 11.9755 7.52148C11.9755 7.26257 11.7655 7.05273 11.5067 7.05273C11.2478 7.05273 11.038 7.26257 11.038 7.52148C11.038 8.46619 10.6685 9.35327 9.99759 10.0193C9.32645 10.6857 8.43314 11.0526 7.48196 11.0526C7.22305 11.0526 7.01321 11.2625 7.01321 11.5214C7.01321 11.7803 7.22305 11.9901 7.48196 11.9901C9.44266 11.9901 11.038 13.5789 11.038 15.5316C11.038 15.7905 11.2478 16.0004 11.5067 16.0004C11.7655 16.0004 11.9755 15.7905 11.9755 15.5316C11.9755 13.5789 13.5707 11.9901 15.5314 11.9901C15.7903 11.9901 16.0002 11.7803 16.0002 11.5214C16.0002 11.2625 15.7903 11.0526 15.5314 11.0526Z" fill="#505259"/>
<path d="M6.41357 7.38721C5.03308 7.38721 3.90991 6.27234 3.90991 4.90186C3.90991 4.64307 3.70007 4.43311 3.44116 4.43311C3.18225 4.43311 2.97241 4.64307 2.97241 4.90186C2.97241 6.27234 1.84924 7.38721 0.46875 7.38721C0.209839 7.38721 0 7.59717 0 7.85596C0 8.11487 0.209839 8.32471 0.46875 8.32471C1.84924 8.32471 2.97241 9.44311 2.97241 10.8177C2.97241 11.0765 3.18225 11.2865 3.44116 11.2865C3.70007 11.2865 3.90991 11.0765 3.90991 10.8177C3.90991 9.44311 5.03308 8.32471 6.41357 8.32471C6.67249 8.32471 6.88232 8.11487 6.88232 7.85596C6.88232 7.59717 6.67249 7.38721 6.41357 7.38721Z" fill="#505259"/>
<path d="M7.17627 3.23926C8.19153 3.23926 9.01758 4.05896 9.01758 5.06641C9.01758 5.3252 9.22742 5.53516 9.48633 5.53516C9.74524 5.53516 9.95508 5.3252 9.95508 5.06641C9.95508 4.05566 10.7811 3.2334 11.7964 3.2334C12.0553 3.2334 12.2651 3.02344 12.2651 2.76465C12.2651 2.50574 12.0553 2.2959 11.7964 2.2959C10.7811 2.2959 9.95508 1.4762 9.95508 0.46875C9.95508 0.209839 9.74524 0 9.48633 0C9.22742 0 9.01758 0.209839 9.01758 0.46875C9.01758 1.47949 8.19153 2.30176 7.17627 2.30176C6.91736 2.30176 6.70752 2.5116 6.70752 2.77051C6.70752 3.02942 6.91736 3.23926 7.17627 3.23926Z" fill="#505259"/>
</g>
<defs>
<clipPath id="clip0_6253:79764">
<rect width="16" height="16" fill="white"/>
</clipPath>
</defs>
</svg>
