<svg width="16" height="16" viewBox="0 0 16 16" fill="none" xmlns="http://www.w3.org/2000/svg">
<path d="M15.5319 11.0526C14.5807 11.0526 13.6874 10.6857 13.0162 10.0193C12.3453 9.35327 11.976 8.46619 11.976 7.52148C11.976 7.26257 11.766 7.05273 11.5072 7.05273C11.2483 7.05273 11.0385 7.26257 11.0385 7.52148C11.0385 8.46619 10.6689 9.35327 9.99805 10.0193C9.3269 10.6857 8.43359 11.0526 7.48242 11.0526C7.22351 11.0526 7.01367 11.2625 7.01367 11.5214C7.01367 11.7803 7.22351 11.9901 7.48242 11.9901C9.44311 11.9901 11.0385 13.5789 11.0385 15.5316C11.0385 15.7905 11.2483 16.0004 11.5072 16.0004C11.766 16.0004 11.976 15.7905 11.976 15.5316C11.976 13.5789 13.5712 11.9901 15.5319 11.9901C15.7908 11.9901 16.0006 11.7803 16.0006 11.5214C16.0006 11.2625 15.7908 11.0526 15.5319 11.0526Z" fill="white"/>
<path d="M6.41357 7.38721C5.03308 7.38721 3.90991 6.27234 3.90991 4.90186C3.90991 4.64307 3.70007 4.43311 3.44116 4.43311C3.18225 4.43311 2.97241 4.64307 2.97241 4.90186C2.97241 6.27234 1.84924 7.38721 0.46875 7.38721C0.209839 7.38721 0 7.59717 0 7.85596C0 8.11487 0.209839 8.32471 0.46875 8.32471C1.84924 8.32471 2.97241 9.44311 2.97241 10.8177C2.97241 11.0765 3.18225 11.2865 3.44116 11.2865C3.70007 11.2865 3.90991 11.0765 3.90991 10.8177C3.90991 9.44311 5.03308 8.32471 6.41357 8.32471C6.67249 8.32471 6.88232 8.11487 6.88232 7.85596C6.88232 7.59717 6.67249 7.38721 6.41357 7.38721Z" fill="white"/>
<path d="M7.17676 3.23926C8.19202 3.23926 9.01807 4.05896 9.01807 5.06641C9.01807 5.3252 9.2279 5.53516 9.48682 5.53516C9.74573 5.53516 9.95557 5.3252 9.95557 5.06641C9.95557 4.05566 10.7816 3.2334 11.7969 3.2334C12.0558 3.2334 12.2656 3.02344 12.2656 2.76465C12.2656 2.50574 12.0558 2.2959 11.7969 2.2959C10.7816 2.2959 9.95557 1.4762 9.95557 0.46875C9.95557 0.209839 9.74573 0 9.48682 0C9.2279 0 9.01807 0.209839 9.01807 0.46875C9.01807 1.47949 8.19202 2.30176 7.17676 2.30176C6.91785 2.30176 6.70801 2.5116 6.70801 2.77051C6.70801 3.02942 6.91785 3.23926 7.17676 3.23926Z" fill="white"/>
</svg>
