<svg width="24" height="24" viewBox="0 0 24 24" fill="none" xmlns="http://www.w3.org/2000/svg">
<rect width="24" height="24" rx="4" fill="#FE6955" fill-opacity="0.1"/>
<path d="M12 19.6667C13.5163 19.6667 14.9986 19.217 16.2594 18.3746C17.5201 17.5322 18.5028 16.3348 19.0831 14.9339C19.6633 13.533 19.8152 11.9915 19.5193 10.5043C19.2235 9.01712 18.4933 7.65105 17.4211 6.57885C16.3489 5.50664 14.9829 4.77646 13.4957 4.48064C12.0085 4.18482 10.467 4.33665 9.06607 4.91692C7.66517 5.49719 6.4678 6.47985 5.62538 7.74063C4.78296 9.0014 4.33331 10.4837 4.33331 12C4.33561 14.0326 5.14408 15.9813 6.58136 17.4186C8.01864 18.8559 9.96736 19.6644 12 19.6667ZM7.66665 11.6667C7.66665 11.4899 7.73688 11.3203 7.86191 11.1953C7.98693 11.0702 8.1565 11 8.33331 11H15.6666C15.8435 11 16.013 11.0702 16.1381 11.1953C16.2631 11.3203 16.3333 11.4899 16.3333 11.6667V12.3333C16.3333 12.5101 16.2631 12.6797 16.1381 12.8047C16.013 12.9298 15.8435 13 15.6666 13H8.33331C8.1565 13 7.98693 12.9298 7.86191 12.8047C7.73688 12.6797 7.66665 12.5101 7.66665 12.3333V11.6667Z" fill="#FE6955"/>
</svg>
