<svg width="11" height="12" viewBox="0 0 11 12" fill="none" xmlns="http://www.w3.org/2000/svg">
<g clip-path="url(#clip0_2145_8386)">
<path opacity="0.5" d="M5.5 0.5C4.41221 0.5 3.34884 0.822569 2.44437 1.42692C1.5399 2.03126 0.834947 2.89025 0.418665 3.89524C0.00238307 4.90023 -0.106535 6.0061 0.105683 7.073C0.317902 8.13989 0.841726 9.1199 1.61092 9.88909C2.3801 10.6583 3.36011 11.1821 4.42701 11.3943C5.4939 11.6065 6.59977 11.4976 7.60476 11.0813C8.60976 10.6651 9.46874 9.96011 10.0731 9.05564C10.6774 8.15117 11 7.0878 11 6C10.9984 4.54179 10.4185 3.14376 9.38735 2.11265C8.35624 1.08155 6.95821 0.501577 5.5 0.5V0.5ZM7.88334 8.39296C7.80024 8.48091 7.68616 8.53305 7.56528 8.53836C7.4444 8.54366 7.3262 8.50171 7.23571 8.42138L4.96284 6.33779C4.91569 6.29501 4.87798 6.24289 4.8521 6.18473C4.82621 6.12657 4.81273 6.06366 4.8125 6V3.47917C4.8125 3.35761 4.86079 3.24103 4.94675 3.15508C5.0327 3.06912 5.14928 3.02083 5.27084 3.02083C5.39239 3.02083 5.50897 3.06912 5.59493 3.15508C5.68088 3.24103 5.72917 3.35761 5.72917 3.47917V5.79833L7.85309 7.74533C7.89768 7.78587 7.93383 7.8348 7.95949 7.88933C7.98515 7.94385 7.9998 8.00291 8.00261 8.0631C8.00542 8.1233 7.99633 8.18346 7.97587 8.24014C7.9554 8.29682 7.92396 8.3489 7.88334 8.39342V8.39296Z" fill="#919AB6"/>
</g>
<defs>
<clipPath id="clip0_2145_8386">
<rect width="11" height="11" fill="white" transform="translate(0 0.5)"/>
</clipPath>
</defs>
</svg>
