<svg width="16" height="16" viewBox="0 0 16 16" fill="none" xmlns="http://www.w3.org/2000/svg">
<g clip-path="url(#clip0_4782_15052)">
<path d="M5.00033 7H4.33366C4.15685 7 3.98728 7.07024 3.86225 7.19526C3.73723 7.32029 3.66699 7.48986 3.66699 7.66667C3.66699 7.84348 3.73723 8.01305 3.86225 8.13807C3.98728 8.2631 4.15685 8.33333 4.33366 8.33333H5.00033C5.17714 8.33333 5.34671 8.2631 5.47173 8.13807C5.59675 8.01305 5.66699 7.84348 5.66699 7.66667C5.66699 7.48986 5.59675 7.32029 5.47173 7.19526C5.34671 7.07024 5.17714 7 5.00033 7ZM8.33366 7H7.66699C7.49018 7 7.32061 7.07024 7.19559 7.19526C7.07056 7.32029 7.00033 7.48986 7.00033 7.66667C7.00033 7.84348 7.07056 8.01305 7.19559 8.13807C7.32061 8.2631 7.49018 8.33333 7.66699 8.33333H8.33366C8.51047 8.33333 8.68004 8.2631 8.80506 8.13807C8.93009 8.01305 9.00033 7.84348 9.00033 7.66667C9.00033 7.48986 8.93009 7.32029 8.80506 7.19526C8.68004 7.07024 8.51047 7 8.33366 7ZM11.667 7H11.0003C10.8235 7 10.6539 7.07024 10.5289 7.19526C10.4039 7.32029 10.3337 7.48986 10.3337 7.66667C10.3337 7.84348 10.4039 8.01305 10.5289 8.13807C10.6539 8.2631 10.8235 8.33333 11.0003 8.33333H11.667C11.8438 8.33333 12.0134 8.2631 12.1384 8.13807C12.2634 8.01305 12.3337 7.84348 12.3337 7.66667C12.3337 7.48986 12.2634 7.32029 12.1384 7.19526C12.0134 7.07024 11.8438 7 11.667 7ZM5.00033 9.66667H4.33366C4.15685 9.66667 3.98728 9.7369 3.86225 9.86193C3.73723 9.98695 3.66699 10.1565 3.66699 10.3333C3.66699 10.5101 3.73723 10.6797 3.86225 10.8047C3.98728 10.9298 4.15685 11 4.33366 11H5.00033C5.17714 11 5.34671 10.9298 5.47173 10.8047C5.59675 10.6797 5.66699 10.5101 5.66699 10.3333C5.66699 10.1565 5.59675 9.98695 5.47173 9.86193C5.34671 9.7369 5.17714 9.66667 5.00033 9.66667ZM8.33366 9.66667H7.66699C7.49018 9.66667 7.32061 9.7369 7.19559 9.86193C7.07056 9.98695 7.00033 10.1565 7.00033 10.3333C7.00033 10.5101 7.07056 10.6797 7.19559 10.8047C7.32061 10.9298 7.49018 11 7.66699 11H8.33366C8.51047 11 8.68004 10.9298 8.80506 10.8047C8.93009 10.6797 9.00033 10.5101 9.00033 10.3333C9.00033 10.1565 8.93009 9.98695 8.80506 9.86193C8.68004 9.7369 8.51047 9.66667 8.33366 9.66667ZM11.667 9.66667H11.0003C10.8235 9.66667 10.6539 9.7369 10.5289 9.86193C10.4039 9.98695 10.3337 10.1565 10.3337 10.3333C10.3337 10.5101 10.4039 10.6797 10.5289 10.8047C10.6539 10.9298 10.8235 11 11.0003 11H11.667C11.8438 11 12.0134 10.9298 12.1384 10.8047C12.2634 10.6797 12.3337 10.5101 12.3337 10.3333C12.3337 10.1565 12.2634 9.98695 12.1384 9.86193C12.0134 9.7369 11.8438 9.66667 11.667 9.66667ZM5.00033 12.3333H4.33366C4.15685 12.3333 3.98728 12.4036 3.86225 12.5286C3.73723 12.6536 3.66699 12.8232 3.66699 13C3.66699 13.1768 3.73723 13.3464 3.86225 13.4714C3.98728 13.5964 4.15685 13.6667 4.33366 13.6667H5.00033C5.17714 13.6667 5.34671 13.5964 5.47173 13.4714C5.59675 13.3464 5.66699 13.1768 5.66699 13C5.66699 12.8232 5.59675 12.6536 5.47173 12.5286C5.34671 12.4036 5.17714 12.3333 5.00033 12.3333ZM8.33366 12.3333H7.66699C7.49018 12.3333 7.32061 12.4036 7.19559 12.5286C7.07056 12.6536 7.00033 12.8232 7.00033 13C7.00033 13.1768 7.07056 13.3464 7.19559 13.4714C7.32061 13.5964 7.49018 13.6667 7.66699 13.6667H8.33366C8.51047 13.6667 8.68004 13.5964 8.80506 13.4714C8.93009 13.3464 9.00033 13.1768 9.00033 13C9.00033 12.8232 8.93009 12.6536 8.80506 12.5286C8.68004 12.4036 8.51047 12.3333 8.33366 12.3333ZM11.667 12.3333H11.0003C10.8235 12.3333 10.6539 12.4036 10.5289 12.5286C10.4039 12.6536 10.3337 12.8232 10.3337 13C10.3337 13.1768 10.4039 13.3464 10.5289 13.4714C10.6539 13.5964 10.8235 13.6667 11.0003 13.6667H11.667C11.8438 13.6667 12.0134 13.5964 12.1384 13.4714C12.2634 13.3464 12.3337 13.1768 12.3337 13C12.3337 12.8232 12.2634 12.6536 12.1384 12.5286C12.0134 12.4036 11.8438 12.3333 11.667 12.3333Z" fill="#2266E2"/>
<path d="M14.333 2H12.4997C12.4555 2 12.4131 1.98244 12.3818 1.95118C12.3506 1.91993 12.333 1.87754 12.333 1.83333V0.666667C12.333 0.489856 12.2628 0.320286 12.1377 0.195262C12.0127 0.0702379 11.8432 0 11.6663 0C11.4895 0 11.32 0.0702379 11.1949 0.195262C11.0699 0.320286 10.9997 0.489856 10.9997 0.666667V3.83333C10.9997 3.96594 10.947 4.09312 10.8532 4.18689C10.7595 4.28066 10.6323 4.33333 10.4997 4.33333C10.3671 4.33333 10.2399 4.28066 10.1461 4.18689C10.0524 4.09312 9.99967 3.96594 9.99967 3.83333V2.33333C9.99967 2.24493 9.96456 2.16014 9.90204 2.09763C9.83953 2.03512 9.75475 2 9.66634 2H5.49967C5.45559 2 5.4133 1.98253 5.38206 1.95142C5.35082 1.92031 5.33318 1.87809 5.33301 1.834V0.666667C5.33301 0.489856 5.26277 0.320286 5.13775 0.195262C5.01272 0.0702379 4.84315 0 4.66634 0C4.48953 0 4.31996 0.0702379 4.19494 0.195262C4.06991 0.320286 3.99967 0.489856 3.99967 0.666667V3.83333C3.99967 3.96594 3.947 4.09312 3.85323 4.18689C3.75946 4.28066 3.63228 4.33333 3.49967 4.33333C3.36707 4.33333 3.23989 4.28066 3.14612 4.18689C3.05235 4.09312 2.99967 3.96594 2.99967 3.83333V2.33333C2.99967 2.24493 2.96456 2.16014 2.90204 2.09763C2.83953 2.03512 2.75475 2 2.66634 2H1.66634C1.31272 2 0.973581 2.14048 0.723532 2.39052C0.473484 2.64057 0.333008 2.97971 0.333008 3.33333V14.6667C0.333008 15.0203 0.473484 15.3594 0.723532 15.6095C0.973581 15.8595 1.31272 16 1.66634 16H14.333C14.6866 16 15.0258 15.8595 15.2758 15.6095C15.5259 15.3594 15.6663 15.0203 15.6663 14.6667V3.33333C15.6663 2.97971 15.5259 2.64057 15.2758 2.39052C15.0258 2.14048 14.6866 2 14.333 2ZM14.333 14.3333C14.333 14.4217 14.2979 14.5065 14.2354 14.569C14.1729 14.6315 14.0881 14.6667 13.9997 14.6667H1.99967C1.91127 14.6667 1.82648 14.6315 1.76397 14.569C1.70146 14.5065 1.66634 14.4217 1.66634 14.3333V6.33333C1.66634 6.24493 1.70146 6.16014 1.76397 6.09763C1.82648 6.03512 1.91127 6 1.99967 6H13.9997C14.0881 6 14.1729 6.03512 14.2354 6.09763C14.2979 6.16014 14.333 6.24493 14.333 6.33333V14.3333Z" fill="#2266E2"/>
</g>
<defs>
<clipPath id="clip0_4782_15052">
<rect width="16" height="16" fill="white"/>
</clipPath>
</defs>
</svg>
