<svg width="22" height="22" viewBox="0 0 22 22" fill="none" xmlns="http://www.w3.org/2000/svg">
<path d="M18.5334 9.00416C18.5094 8.91995 18.4538 8.84829 18.3781 8.80416L17.6668 8.39083C17.7742 7.91459 17.7742 7.4204 17.6668 6.94416L18.3674 6.5335C18.4053 6.5115 18.4385 6.48225 18.4651 6.44742C18.4917 6.41259 18.5111 6.37286 18.5223 6.33051C18.5335 6.28816 18.5363 6.24401 18.5304 6.2006C18.5245 6.15719 18.5102 6.11535 18.4881 6.0775L17.8121 4.9195C17.7675 4.84429 17.6951 4.78963 17.6105 4.76731C17.526 4.74499 17.4361 4.75679 17.3601 4.80016L16.6234 5.21683C16.2808 4.8442 15.8294 4.589 15.3334 4.4875V3.66683C15.3334 3.57842 15.2983 3.49364 15.2358 3.43113C15.1733 3.36862 15.0885 3.3335 15.0001 3.3335H13.6668C13.5784 3.3335 13.4936 3.36862 13.4311 3.43113C13.3686 3.49364 13.3335 3.57842 13.3335 3.66683V4.48683C12.8377 4.58778 12.3862 4.84197 12.0428 5.2135L11.3068 4.80016C11.2304 4.75707 11.1402 4.74578 11.0556 4.76874C10.971 4.7917 10.8989 4.84706 10.8548 4.92283L10.1788 6.07816C10.1567 6.11602 10.1424 6.15785 10.1365 6.20127C10.1306 6.24468 10.1334 6.28882 10.1446 6.33118C10.1558 6.37353 10.1752 6.41325 10.2018 6.44808C10.2284 6.48291 10.2616 6.51216 10.2995 6.53416L11.0055 6.94416C10.8977 7.42037 10.8977 7.91463 11.0055 8.39083L10.2921 8.8015C10.2541 8.82338 10.2208 8.85255 10.1941 8.88733C10.1674 8.92211 10.1478 8.96182 10.1365 9.00418C10.1252 9.04654 10.1223 9.09072 10.1281 9.13419C10.1338 9.17766 10.1481 9.21956 10.1701 9.2575L10.8368 10.4162C10.8805 10.4919 10.9523 10.5474 11.0366 10.5708C11.1209 10.5941 11.211 10.5833 11.2875 10.5408L12.0421 10.1215C12.3859 10.4929 12.8376 10.747 13.3335 10.8482V11.6668C13.3335 11.7552 13.3686 11.84 13.4311 11.9025C13.4936 11.965 13.5784 12.0002 13.6668 12.0002H15.0001C15.0885 12.0002 15.1733 11.965 15.2358 11.9025C15.2983 11.84 15.3334 11.7552 15.3334 11.6668V10.8482C15.8292 10.7472 16.2807 10.493 16.6241 10.1215L17.3794 10.5408C17.4559 10.5833 17.546 10.5941 17.6303 10.5708C17.7146 10.5474 17.7864 10.4919 17.8301 10.4162L18.4968 9.2575C18.5193 9.21977 18.5341 9.17797 18.5404 9.13449C18.5467 9.09101 18.5443 9.04672 18.5334 9.00416ZM14.3334 9.3335C14.0038 9.3335 13.6816 9.23575 13.4075 9.05261C13.1334 8.86948 12.9198 8.60918 12.7937 8.30464C12.6675 8.00009 12.6345 7.66498 12.6988 7.34168C12.7631 7.01838 12.9219 6.72141 13.1549 6.48832C13.388 6.25523 13.685 6.0965 14.0083 6.03219C14.3316 5.96788 14.6667 6.00088 14.9713 6.12703C15.2758 6.25318 15.5361 6.4668 15.7192 6.74088C15.9024 7.01496 16.0001 7.33719 16.0001 7.66683C16.0001 8.10886 15.8245 8.53278 15.512 8.84534C15.1994 9.1579 14.7755 9.3335 14.3334 9.3335ZM11.7101 15.4668L11.0001 15.0575C11.1075 14.5813 11.1075 14.0871 11.0001 13.6108L11.7061 13.2008C11.744 13.1788 11.7772 13.1496 11.8038 13.1147C11.8303 13.0799 11.8498 13.0402 11.861 12.9978C11.8722 12.9555 11.8749 12.9113 11.8691 12.8679C11.8632 12.8245 11.8488 12.7827 11.8268 12.7448L11.1508 11.5862C11.1067 11.5104 11.0346 11.455 10.95 11.4321C10.8654 11.4091 10.7751 11.4204 10.6988 11.4635L9.96545 11.8802C9.62002 11.5072 9.16544 11.2531 8.66678 11.1542V10.3335C8.66678 10.2451 8.63166 10.1603 8.56915 10.0978C8.50664 10.0353 8.42186 10.0002 8.33345 10.0002H7.00012C6.91171 10.0002 6.82693 10.0353 6.76442 10.0978C6.7019 10.1603 6.66678 10.2451 6.66678 10.3335V11.1535C6.17103 11.2544 5.71953 11.5086 5.37612 11.8802L4.64012 11.4668C4.56378 11.4237 4.47354 11.4124 4.38894 11.4354C4.30434 11.4584 4.23219 11.5137 4.18812 11.5895L3.51212 12.7448C3.49007 12.7827 3.47571 12.8245 3.46984 12.8679C3.46397 12.9113 3.46672 12.9555 3.47793 12.9978C3.48913 13.0402 3.50858 13.0799 3.53515 13.1147C3.56172 13.1496 3.5949 13.1788 3.63278 13.2008L4.33878 13.6108C4.23105 14.087 4.23105 14.5813 4.33878 15.0575L3.62345 15.4668C3.58545 15.4887 3.55215 15.5179 3.52545 15.5527C3.49874 15.5874 3.47916 15.6272 3.46783 15.6695C3.4565 15.7119 3.45363 15.7561 3.4594 15.7995C3.46517 15.843 3.47946 15.8849 3.50145 15.9228L4.16812 17.0815C4.21185 17.1573 4.28362 17.2128 4.36792 17.2361C4.45223 17.2594 4.54233 17.2487 4.61878 17.2062L5.37345 16.7868C5.71759 17.1591 6.17002 17.4137 6.66678 17.5148V18.3335C6.66678 18.4219 6.7019 18.5067 6.76442 18.5692C6.82693 18.6317 6.91171 18.6668 7.00012 18.6668H8.33345C8.42186 18.6668 8.50664 18.6317 8.56915 18.5692C8.63166 18.5067 8.66678 18.4219 8.66678 18.3335V17.5148C9.16254 17.4139 9.61403 17.1597 9.95745 16.7882L10.7128 17.2075C10.7892 17.25 10.8793 17.2608 10.9636 17.2374C11.048 17.2141 11.1197 17.1586 11.1635 17.0828L11.8301 15.9242C11.8521 15.8862 11.8664 15.8443 11.8722 15.8009C11.8779 15.7574 11.8751 15.7132 11.8637 15.6708C11.8524 15.6285 11.8328 15.5888 11.8061 15.554C11.7794 15.5192 11.7461 15.4901 11.7081 15.4682L11.7101 15.4668ZM7.66678 16.0002C7.33715 16.0002 7.01492 15.9024 6.74083 15.7193C6.46675 15.5361 6.25313 15.2758 6.12698 14.9713C6.00084 14.6668 5.96783 14.3316 6.03214 14.0083C6.09645 13.685 6.25518 13.3881 6.48827 13.155C6.72136 12.9219 7.01833 12.7632 7.34163 12.6989C7.66494 12.6345 8.00005 12.6676 8.30459 12.7937C8.60913 12.9198 8.86943 13.1335 9.05257 13.4075C9.2357 13.6816 9.33345 14.0039 9.33345 14.3335C9.33345 14.7755 9.15786 15.1994 8.8453 15.512C8.53273 15.8246 8.10881 16.0002 7.66678 16.0002Z" fill="white"/>
</svg>
