<svg width="22" height="22" viewBox="0 0 22 22" fill="none" xmlns="http://www.w3.org/2000/svg">
<path d="M18.5335 9.00416C18.5095 8.91995 18.4538 8.84829 18.3782 8.80416L17.6668 8.39083C17.7742 7.91459 17.7742 7.4204 17.6668 6.94416L18.3675 6.5335C18.4054 6.5115 18.4385 6.48225 18.4651 6.44742C18.4917 6.41259 18.5111 6.37286 18.5223 6.33051C18.5336 6.28816 18.5363 6.24401 18.5304 6.2006C18.5246 6.15719 18.5102 6.11535 18.4882 6.0775L17.8122 4.9195C17.7675 4.84429 17.6951 4.78963 17.6106 4.76731C17.526 4.74499 17.4361 4.75679 17.3602 4.80016L16.6235 5.21683C16.2808 4.8442 15.8294 4.589 15.3335 4.4875V3.66683C15.3335 3.57842 15.2984 3.49364 15.2359 3.43113C15.1733 3.36862 15.0886 3.3335 15.0002 3.3335H13.6668C13.5784 3.3335 13.4936 3.36862 13.4311 3.43113C13.3686 3.49364 13.3335 3.57842 13.3335 3.66683V4.48683C12.8377 4.58778 12.3862 4.84197 12.0428 5.2135L11.3068 4.80016C11.2305 4.75707 11.1402 4.74578 11.0556 4.76874C10.971 4.7917 10.8989 4.84706 10.8548 4.92283L10.1788 6.07816C10.1568 6.11602 10.1424 6.15785 10.1365 6.20127C10.1307 6.24468 10.1334 6.28882 10.1446 6.33118C10.1558 6.37353 10.1753 6.41325 10.2019 6.44808C10.2284 6.48291 10.2616 6.51216 10.2995 6.53416L11.0055 6.94416C10.8978 7.42037 10.8978 7.91463 11.0055 8.39083L10.2922 8.8015C10.2542 8.82338 10.2209 8.85255 10.1942 8.88733C10.1674 8.92211 10.1479 8.96182 10.1365 9.00418C10.1252 9.04654 10.1223 9.09072 10.1281 9.13419C10.1339 9.17766 10.1482 9.21956 10.1702 9.2575L10.8368 10.4162C10.8806 10.4919 10.9523 10.5474 11.0366 10.5708C11.1209 10.5941 11.211 10.5833 11.2875 10.5408L12.0422 10.1215C12.3859 10.4929 12.8376 10.747 13.3335 10.8482V11.6668C13.3335 11.7552 13.3686 11.84 13.4311 11.9025C13.4936 11.965 13.5784 12.0002 13.6668 12.0002H15.0002C15.0886 12.0002 15.1733 11.965 15.2359 11.9025C15.2984 11.84 15.3335 11.7552 15.3335 11.6668V10.8482C15.8292 10.7472 16.2807 10.493 16.6242 10.1215L17.3795 10.5408C17.4559 10.5833 17.546 10.5941 17.6303 10.5708C17.7147 10.5474 17.7864 10.4919 17.8302 10.4162L18.4968 9.2575C18.5193 9.21977 18.5341 9.17797 18.5404 9.13449C18.5467 9.09101 18.5444 9.04672 18.5335 9.00416ZM14.3335 9.3335C14.0039 9.3335 13.6816 9.23575 13.4075 9.05261C13.1335 8.86948 12.9198 8.60918 12.7937 8.30464C12.6675 8.00009 12.6345 7.66498 12.6988 7.34168C12.7632 7.01838 12.9219 6.72141 13.155 6.48832C13.3881 6.25523 13.685 6.0965 14.0083 6.03219C14.3316 5.96788 14.6667 6.00088 14.9713 6.12703C15.2758 6.25318 15.5361 6.4668 15.7193 6.74088C15.9024 7.01496 16.0002 7.33719 16.0002 7.66683C16.0002 8.10886 15.8246 8.53278 15.512 8.84534C15.1994 9.1579 14.7755 9.3335 14.3335 9.3335ZM11.7102 15.4668L11.0002 15.0575C11.1076 14.5813 11.1076 14.0871 11.0002 13.6108L11.7062 13.2008C11.744 13.1788 11.7772 13.1496 11.8038 13.1147C11.8304 13.0799 11.8498 13.0402 11.861 12.9978C11.8722 12.9555 11.875 12.9113 11.8691 12.8679C11.8632 12.8245 11.8489 12.7827 11.8268 12.7448L11.1508 11.5862C11.1067 11.5104 11.0346 11.455 10.95 11.4321C10.8654 11.4091 10.7752 11.4204 10.6988 11.4635L9.96549 11.8802C9.62006 11.5072 9.16548 11.2531 8.66682 11.1542V10.3335C8.66682 10.2451 8.6317 10.1603 8.56919 10.0978C8.50668 10.0353 8.42189 10.0002 8.33349 10.0002H7.00016C6.91175 10.0002 6.82697 10.0353 6.76445 10.0978C6.70194 10.1603 6.66682 10.2451 6.66682 10.3335V11.1535C6.17107 11.2544 5.71957 11.5086 5.37616 11.8802L4.64016 11.4668C4.56382 11.4237 4.47358 11.4124 4.38898 11.4354C4.30438 11.4584 4.23223 11.5137 4.18816 11.5895L3.51216 12.7448C3.49011 12.7827 3.47574 12.8245 3.46988 12.8679C3.46401 12.9113 3.46676 12.9555 3.47797 12.9978C3.48917 13.0402 3.50862 13.0799 3.53519 13.1147C3.56176 13.1496 3.59494 13.1788 3.63282 13.2008L4.33882 13.6108C4.23109 14.087 4.23109 14.5813 4.33882 15.0575L3.62349 15.4668C3.58549 15.4887 3.55219 15.5179 3.52548 15.5527C3.49878 15.5874 3.4792 15.6272 3.46787 15.6695C3.45654 15.7119 3.45367 15.7561 3.45944 15.7995C3.46521 15.843 3.4795 15.8849 3.50149 15.9228L4.16816 17.0815C4.21189 17.1573 4.28365 17.2128 4.36796 17.2361C4.45227 17.2594 4.54237 17.2487 4.61882 17.2062L5.37349 16.7868C5.71763 17.1591 6.17006 17.4137 6.66682 17.5148V18.3335C6.66682 18.4219 6.70194 18.5067 6.76445 18.5692C6.82697 18.6317 6.91175 18.6668 7.00016 18.6668H8.33349C8.42189 18.6668 8.50668 18.6317 8.56919 18.5692C8.6317 18.5067 8.66682 18.4219 8.66682 18.3335V17.5148C9.16258 17.4139 9.61407 17.1597 9.95749 16.7882L10.7128 17.2075C10.7893 17.25 10.8794 17.2608 10.9637 17.2374C11.048 17.2141 11.1198 17.1586 11.1635 17.0828L11.8302 15.9242C11.8521 15.8862 11.8664 15.8443 11.8722 15.8009C11.878 15.7574 11.8751 15.7132 11.8638 15.6708C11.8524 15.6285 11.8329 15.5888 11.8062 15.554C11.7795 15.5192 11.7462 15.4901 11.7082 15.4682L11.7102 15.4668ZM7.66682 16.0002C7.33719 16.0002 7.01495 15.9024 6.74087 15.7193C6.46679 15.5361 6.25317 15.2758 6.12702 14.9713C6.00088 14.6668 5.96787 14.3316 6.03218 14.0083C6.09649 13.685 6.25522 13.3881 6.48831 13.155C6.7214 12.9219 7.01837 12.7632 7.34167 12.6989C7.66497 12.6345 8.00008 12.6676 8.30463 12.7937C8.60917 12.9198 8.86947 13.1335 9.05261 13.4075C9.23574 13.6816 9.33349 14.0039 9.33349 14.3335C9.33349 14.7755 9.15789 15.1994 8.84533 15.512C8.53277 15.8246 8.10885 16.0002 7.66682 16.0002Z" fill="#505259"/>
</svg>
