<svg width="24" height="24" viewBox="0 0 24 24" fill="none" xmlns="http://www.w3.org/2000/svg">
<rect width="24" height="24" rx="4" fill="#5ABAFF" fill-opacity="0.1"/>
<path fill-rule="evenodd" clip-rule="evenodd" d="M18.1745 5.62805C18.2797 5.79427 18.3349 5.98725 18.3334 6.18396V11.2753C18.3361 12.9273 17.8391 14.5415 16.9077 15.9059C15.9764 17.2704 14.6542 18.3213 13.1147 18.9206L12.4034 19.1966C11.9294 19.38 11.404 19.38 10.93 19.1966L10.2187 18.9206C8.67924 18.3213 7.35703 17.2704 6.42566 15.9059C5.4943 14.5415 4.99734 12.9273 5.00003 11.2753V6.18396C4.99852 5.98725 5.05367 5.79427 5.15888 5.62805C5.26409 5.46184 5.41492 5.32943 5.59336 5.24663C7.50678 4.40606 9.57688 3.98137 11.6667 4.00063C13.7565 3.98137 15.8266 4.40606 17.74 5.24663C17.9185 5.32943 18.0693 5.46184 18.1745 5.62805ZM7.52862 9.86255C7.4036 9.98758 7.33336 10.1571 7.33336 10.334V11.0006C7.33336 11.1774 7.4036 11.347 7.52862 11.472C7.65365 11.5971 7.82321 11.6673 8.00003 11.6673H15.3334C15.5102 11.6673 15.6797 11.5971 15.8048 11.472C15.9298 11.347 16 11.1774 16 11.0006V10.334C16 10.1571 15.9298 9.98758 15.8048 9.86255C15.6797 9.73753 15.5102 9.66729 15.3334 9.66729H8.00003C7.82321 9.66729 7.65365 9.73753 7.52862 9.86255Z" fill="#5ABAFF"/>
</svg>
