<svg width="24" height="24" viewBox="0 0 24 24" fill="none" xmlns="http://www.w3.org/2000/svg">
<g filter="url(#filter0_d_1982_16)">
<path d="M14.5736 6.98307C14.6258 6.96052 14.6714 6.92497 14.7059 6.87981C14.7405 6.83465 14.7629 6.78139 14.7711 6.7251C14.7792 6.66881 14.7728 6.61137 14.7525 6.55826C14.7321 6.50515 14.6985 6.45814 14.6548 6.42172C14.3627 6.17825 14.0382 5.97656 13.6906 5.82241C13.663 5.81049 13.6392 5.79129 13.6216 5.76687C13.6041 5.74245 13.5935 5.71373 13.5911 5.68377C13.5886 5.65381 13.5943 5.62375 13.6077 5.59679C13.621 5.56984 13.6413 5.54701 13.6666 5.53074C14.2107 5.17753 14.6261 4.65787 14.8507 4.04929C15.0753 3.44071 15.0971 2.77583 14.9129 2.15383C14.7287 1.53182 14.3484 0.986033 13.8286 0.597877C13.3089 0.209721 12.6775 0 12.0288 0C11.3801 0 10.7488 0.209721 10.2291 0.597877C9.70931 0.986033 9.32897 1.53182 9.14478 2.15383C8.96059 2.77583 8.98242 3.44071 9.20703 4.04929C9.43163 4.65787 9.84696 5.17753 10.3911 5.53074C10.4162 5.54709 10.4364 5.56991 10.4496 5.5968C10.4628 5.62369 10.4686 5.65364 10.4662 5.68351C10.4638 5.71337 10.4534 5.74204 10.4361 5.76649C10.4187 5.79093 10.3951 5.81025 10.3678 5.82241C10.0117 5.97967 9.67986 6.18685 9.38223 6.4377C9.33914 6.47411 9.306 6.52088 9.28593 6.57361C9.26587 6.62634 9.25953 6.68331 9.26752 6.73916C9.27551 6.79502 9.29756 6.84792 9.3316 6.89292C9.36565 6.93791 9.41056 6.97351 9.46214 6.99639C10.0779 7.2717 10.6147 7.69737 11.023 8.23429C11.054 8.27564 11.0942 8.30921 11.1405 8.33232C11.1867 8.35544 11.2377 8.36747 11.2894 8.36747H12.7104C12.7621 8.36747 12.8131 8.35544 12.8593 8.33232C12.9055 8.30921 12.9457 8.27564 12.9768 8.23429C13.3934 7.68767 13.9432 7.2569 14.5736 6.98307ZM10.4497 2.48226C10.4582 2.45859 10.4719 2.43714 10.4898 2.41954C10.5078 2.40194 10.5295 2.38863 10.5534 2.38062C10.5772 2.37261 10.6025 2.37011 10.6275 2.37329C10.6524 2.37648 10.6763 2.38528 10.6974 2.39902C11.3255 2.80901 12.0595 3.02721 12.8096 3.02697C13.0411 3.02585 13.272 3.00357 13.4995 2.96038C13.5242 2.95583 13.5496 2.95692 13.5738 2.96357C13.598 2.97022 13.6203 2.98226 13.6392 2.99878C13.6581 3.01531 13.673 3.03589 13.6829 3.05899C13.6927 3.08209 13.6971 3.10711 13.6959 3.13218C13.6716 3.56825 13.4776 3.9775 13.1555 4.27246C12.8334 4.56743 12.4087 4.72472 11.9722 4.71072C11.5356 4.69672 11.1219 4.51254 10.8194 4.19754C10.5168 3.88254 10.3495 3.46171 10.3531 3.02497C10.3538 2.83985 10.3864 2.65624 10.4497 2.48226ZM10.8445 10.6582C10.8473 10.1361 10.7142 9.62239 10.4582 9.16741C10.2023 8.71244 9.83231 8.33192 9.38472 8.06326C8.93713 7.79459 8.42733 7.64705 7.90544 7.63512C7.38354 7.6232 6.86753 7.7473 6.40814 7.99524C5.94875 8.24318 5.5618 8.60641 5.28533 9.04922C5.00886 9.49202 4.85239 9.99916 4.83131 10.5208C4.81024 11.0424 4.92528 11.5605 5.16512 12.0241C5.40496 12.4878 5.76135 12.8811 6.19924 13.1653C6.22415 13.1818 6.24419 13.2046 6.25728 13.2315C6.27036 13.2583 6.276 13.2882 6.27362 13.318C6.27124 13.3478 6.26093 13.3764 6.24375 13.4008C6.22656 13.4252 6.20315 13.4446 6.17593 13.4569C5.92102 13.5694 5.67845 13.708 5.4521 13.8705C4.93873 14.2349 4.51646 14.713 4.21819 15.2675C4.17789 15.3435 4.15792 15.4286 4.16021 15.5145C4.16251 15.6005 4.18699 15.6844 4.23128 15.7581C4.27558 15.8318 4.33818 15.8929 4.41301 15.9352C4.48784 15.9776 4.57235 15.9999 4.65835 16H11.015C11.101 15.9999 11.1855 15.9776 11.2604 15.9352C11.3352 15.8929 11.3978 15.8318 11.4421 15.7581C11.4864 15.6844 11.5109 15.6005 11.5132 15.5145C11.5154 15.4286 11.4955 15.3435 11.4552 15.2675C11.1571 14.7126 10.7348 14.234 10.2213 13.8691C9.99491 13.7067 9.75234 13.5681 9.49743 13.4556C9.47005 13.4434 9.44645 13.4241 9.42913 13.3997C9.41181 13.3752 9.40141 13.3466 9.39902 13.3167C9.39664 13.2868 9.40236 13.2569 9.41557 13.23C9.42879 13.2031 9.44902 13.1803 9.47413 13.1639C9.89341 12.8937 10.2384 12.5229 10.4778 12.0852C10.7172 11.6476 10.8432 11.157 10.8445 10.6582ZM6.25717 10.1135C6.26566 10.0898 6.27939 10.0683 6.29735 10.0507C6.31531 10.0331 6.33702 10.0198 6.36086 10.0118C6.3847 10.0038 6.41004 10.0013 6.43499 10.0045C6.45993 10.0077 6.48383 10.0165 6.50489 10.0302C7.13304 10.4402 7.867 10.6584 8.61712 10.6582C8.84862 10.6571 9.07954 10.6348 9.30699 10.5916C9.3317 10.5873 9.35706 10.5885 9.38124 10.5952C9.40542 10.6019 9.42782 10.6138 9.44683 10.6302C9.46567 10.6467 9.48055 10.6673 9.49035 10.6903C9.50015 10.7134 9.50462 10.7383 9.50343 10.7634C9.47906 11.1994 9.2851 11.6087 8.963 11.9037C8.6409 12.1986 8.21621 12.3559 7.77968 12.3419C7.34315 12.3279 6.92941 12.1437 6.62687 11.8287C6.32433 11.5137 6.15699 11.0929 6.16062 10.6562C6.16126 10.471 6.19393 10.2874 6.25717 10.1135ZM18.545 13.8691C18.3186 13.7067 18.0761 13.5681 17.8212 13.4556C17.7938 13.4434 17.7702 13.4241 17.7529 13.3997C17.7355 13.3752 17.7251 13.3466 17.7228 13.3167C17.7204 13.2868 17.7261 13.2569 17.7393 13.23C17.7525 13.2031 17.7728 13.1803 17.7979 13.1639C18.342 12.8108 18.7575 12.2911 18.9821 11.6825C19.2068 11.074 19.2287 10.409 19.0445 9.78699C18.8604 9.16495 18.48 8.61911 17.9603 8.23091C17.4405 7.84272 16.8091 7.63298 16.1604 7.63298C15.5117 7.63298 14.8803 7.84272 14.3606 8.23091C13.8408 8.61911 13.4604 9.16495 13.2763 9.78699C13.0921 10.409 13.114 11.074 13.3387 11.6825C13.5634 12.2911 13.9788 12.8108 14.523 13.1639C14.5479 13.1804 14.5679 13.2033 14.581 13.2301C14.5941 13.257 14.5997 13.2869 14.5974 13.3166C14.595 13.3464 14.5847 13.375 14.5675 13.3995C14.5503 13.4239 14.5269 13.4433 14.4997 13.4556C14.2448 13.5681 14.0022 13.7067 13.7758 13.8691C13.2623 14.234 12.84 14.7126 12.5419 15.2675C12.5016 15.3435 12.4816 15.4286 12.4839 15.5145C12.4862 15.6005 12.5107 15.6844 12.555 15.7581C12.5993 15.8318 12.6619 15.8929 12.7367 15.9352C12.8116 15.9776 12.8961 15.9999 12.9821 16H19.3387C19.4247 15.9999 19.5093 15.9776 19.5841 15.9352C19.6589 15.8929 19.7215 15.8318 19.7658 15.7581C19.8101 15.6844 19.8346 15.6005 19.8369 15.5145C19.8392 15.4286 19.8192 15.3435 19.7789 15.2675C19.4808 14.7126 19.0585 14.234 18.545 13.8691ZM14.5809 10.1135C14.5894 10.0898 14.6031 10.0683 14.6211 10.0507C14.639 10.0331 14.6608 10.0198 14.6846 10.0118C14.7084 10.0038 14.7338 10.0013 14.7587 10.0045C14.7837 10.0077 14.8076 10.0165 14.8286 10.0302C15.4568 10.4402 16.1907 10.6584 16.9408 10.6582C17.1724 10.6571 17.4033 10.6348 17.6307 10.5916C17.6554 10.5873 17.6808 10.5885 17.705 10.5952C17.7291 10.6019 17.7515 10.6138 17.7706 10.6302C17.7894 10.6467 17.8043 10.6673 17.8141 10.6903C17.8239 10.7134 17.8284 10.7383 17.8272 10.7634C17.8028 11.1994 17.6088 11.6087 17.2867 11.9037C16.9646 12.1986 16.5399 12.3559 16.1034 12.3419C15.6669 12.3279 15.2531 12.1437 14.9506 11.8287C14.6481 11.5137 14.4807 11.0929 14.4843 10.6562C14.485 10.471 14.5177 10.2874 14.5809 10.1135Z" fill="url(#paint0_linear_1982_16)"/>
</g>
<defs>
<filter id="filter0_d_1982_16" x="0.160034" y="0" width="23.677" height="24" filterUnits="userSpaceOnUse" color-interpolation-filters="sRGB">
<feFlood flood-opacity="0" result="BackgroundImageFix"/>
<feColorMatrix in="SourceAlpha" type="matrix" values="0 0 0 0 0 0 0 0 0 0 0 0 0 0 0 0 0 0 127 0" result="hardAlpha"/>
<feOffset dy="4"/>
<feGaussianBlur stdDeviation="2"/>
<feColorMatrix type="matrix" values="0 0 0 0 0 0 0 0 0 0 0 0 0 0 0 0 0 0 0.05 0"/>
<feBlend mode="normal" in2="BackgroundImageFix" result="effect1_dropShadow_1982_16"/>
<feBlend mode="normal" in="SourceGraphic" in2="effect1_dropShadow_1982_16" result="shape"/>
</filter>
<linearGradient id="paint0_linear_1982_16" x1="11.9985" y1="0" x2="11.9985" y2="16" gradientUnits="userSpaceOnUse">
<stop stop-color="#2257E2"/>
<stop offset="1" stop-color="#5AA6FF"/>
</linearGradient>
</defs>
</svg>
