<svg width="24" height="24" viewBox="0 0 24 24" fill="none" xmlns="http://www.w3.org/2000/svg">
<g filter="url(#filter0_d_1982_59)">
<path d="M9.32009 6.25789H4.5932C4.37564 6.25789 4.1778 6.07993 4.1778 5.84249V1.13537C4.1778 0.898084 4.35576 0.719971 4.5932 0.719971H9.32009C9.55738 0.719971 9.73549 0.897939 9.73549 1.13537V5.86227C9.73549 6.07983 9.53766 6.25779 9.32009 6.25779V6.25789Z" fill="url(#paint0_linear_1982_59)"/>
</g>
<g filter="url(#filter1_d_1982_59)">
<path d="M18.2597 6.1986H15.5896C15.4511 6.1986 15.3128 6.11955 15.2337 6.00076L13.9086 3.68676C13.8295 3.56812 13.8295 3.40988 13.9086 3.27136L15.2337 0.957356C15.3128 0.83871 15.4513 0.759521 15.5896 0.759521H18.2597C18.3982 0.759521 18.5366 0.838572 18.6156 0.957356L19.9407 3.27136C20.0198 3.39 20.0198 3.54824 19.9407 3.68676L18.6156 6.00076C18.5366 6.11941 18.3981 6.1986 18.2597 6.1986Z" fill="url(#paint1_linear_1982_59)"/>
</g>
<g filter="url(#filter2_d_1982_59)">
<path d="M16.9346 15.2765C15.3722 15.2765 14.0865 13.991 14.0865 12.4285C14.0865 10.8661 15.372 9.58044 16.9346 9.58044C18.497 9.58044 19.7826 10.8659 19.7826 12.4285C19.7825 13.991 18.497 15.2765 16.9346 15.2765Z" fill="url(#paint2_linear_1982_59)"/>
</g>
<g filter="url(#filter3_d_1982_59)">
<path d="M9.49811 15.059H4.41522C4.27671 15.059 4.13834 14.9799 4.05929 14.8611C3.98024 14.7425 3.98024 14.5842 4.05929 14.4457L6.61055 10.0353C6.74906 9.77812 7.18404 9.77812 7.32255 10.0353L9.87382 14.4457C9.95287 14.5644 9.95287 14.7226 9.87382 14.8611C9.79477 14.9996 9.65625 15.059 9.498 15.059H9.49811Z" fill="url(#paint3_linear_1982_59)"/>
</g>
<g filter="url(#filter4_d_1982_59)">
<path d="M12.4846 3.92407H12.445C12.2077 3.92407 12.0296 3.7461 12.0296 3.50867C12.0296 3.27138 12.2076 3.09326 12.445 3.09326L12.4846 3.0934C12.7219 3.0934 12.9 3.27137 12.9 3.5088C12.8998 3.7461 12.7219 3.92407 12.4846 3.92407V3.92407ZM10.8034 3.92407C10.5661 3.92407 10.3683 3.7461 10.3683 3.50867C10.3683 3.27138 10.5265 3.09326 10.7638 3.09326H10.8034C11.0407 3.09326 11.2188 3.27123 11.2188 3.50867C11.2188 3.7461 11.021 3.92407 10.8034 3.92407H10.8034Z" fill="url(#paint4_linear_1982_59)"/>
</g>
<g filter="url(#filter5_d_1982_59)">
<path d="M17.0137 9.20482C16.7764 9.20482 16.5983 9.02685 16.5983 8.78941V8.74996C16.5983 8.51267 16.7762 8.33455 17.0137 8.33455C17.251 8.33455 17.4291 8.51252 17.4291 8.74996V8.78955C17.4092 9.02684 17.2312 9.20481 17.0137 9.20481V9.20482ZM17.0137 7.50407C16.7764 7.50407 16.5983 7.3261 16.5983 7.08867V7.04907C16.5983 6.81178 16.7762 6.63367 17.0137 6.63367C17.251 6.63367 17.4291 6.81164 17.4291 7.04907V7.08867C17.4092 7.32596 17.2312 7.50407 17.0137 7.50407Z" fill="url(#paint5_linear_1982_59)"/>
</g>
<g filter="url(#filter6_d_1982_59)">
<path d="M13.2757 12.7252C13.0384 12.7252 12.8406 12.5472 12.8406 12.3098C12.8406 12.0725 12.9988 11.8944 13.2361 11.8944H13.2757C13.513 11.8944 13.6911 12.0724 13.6911 12.3098C13.6911 12.5471 13.513 12.7252 13.2757 12.7252H13.2757ZM11.5945 12.7252H11.5549C11.3176 12.7252 11.1395 12.5472 11.1395 12.3098C11.1395 12.0725 11.3175 11.8944 11.5549 11.8944H11.5945C11.8318 11.8944 12.0099 12.0724 12.0099 12.3098C11.9902 12.5471 11.8121 12.7252 11.5945 12.7252ZM9.89361 12.7252C9.65632 12.7252 9.4585 12.5472 9.4585 12.3098C9.4585 12.0725 9.61674 11.8944 9.85402 11.8944H9.89361C10.1309 11.8944 10.309 12.0724 10.309 12.3098C10.309 12.5471 10.1112 12.7252 9.89361 12.7252H9.89361Z" fill="url(#paint6_linear_1982_59)"/>
</g>
<g filter="url(#filter7_d_1982_59)">
<path d="M6.96655 9.26411C6.72926 9.26411 6.55115 9.08614 6.55115 8.84871V8.80911C6.55115 8.57182 6.72912 8.39371 6.96655 8.39371C7.20384 8.39371 7.38196 8.57168 7.38196 8.80911V8.84871C7.36209 9.086 7.18412 9.26411 6.96655 9.26411ZM6.96655 7.58293C6.72926 7.58293 6.55115 7.40496 6.55115 7.16752V7.12793C6.55115 6.89064 6.72912 6.71252 6.96655 6.71252C7.20384 6.71252 7.38196 6.89049 7.38196 7.12793V7.16752C7.36209 7.38509 7.18412 7.58293 6.96655 7.58293Z" fill="url(#paint7_linear_1982_59)"/>
</g>
<defs>
<filter id="filter0_d_1982_59" x="0.177795" y="0.719971" width="13.5577" height="13.538" filterUnits="userSpaceOnUse" color-interpolation-filters="sRGB">
<feFlood flood-opacity="0" result="BackgroundImageFix"/>
<feColorMatrix in="SourceAlpha" type="matrix" values="0 0 0 0 0 0 0 0 0 0 0 0 0 0 0 0 0 0 127 0" result="hardAlpha"/>
<feOffset dy="4"/>
<feGaussianBlur stdDeviation="2"/>
<feColorMatrix type="matrix" values="0 0 0 0 0 0 0 0 0 0 0 0 0 0 0 0 0 0 0.05 0"/>
<feBlend mode="normal" in2="BackgroundImageFix" result="effect1_dropShadow_1982_59"/>
<feBlend mode="normal" in="SourceGraphic" in2="effect1_dropShadow_1982_59" result="shape"/>
</filter>
<filter id="filter1_d_1982_59" x="9.8493" y="0.759521" width="14.1508" height="13.4391" filterUnits="userSpaceOnUse" color-interpolation-filters="sRGB">
<feFlood flood-opacity="0" result="BackgroundImageFix"/>
<feColorMatrix in="SourceAlpha" type="matrix" values="0 0 0 0 0 0 0 0 0 0 0 0 0 0 0 0 0 0 127 0" result="hardAlpha"/>
<feOffset dy="4"/>
<feGaussianBlur stdDeviation="2"/>
<feColorMatrix type="matrix" values="0 0 0 0 0 0 0 0 0 0 0 0 0 0 0 0 0 0 0.05 0"/>
<feBlend mode="normal" in2="BackgroundImageFix" result="effect1_dropShadow_1982_59"/>
<feBlend mode="normal" in="SourceGraphic" in2="effect1_dropShadow_1982_59" result="shape"/>
</filter>
<filter id="filter2_d_1982_59" x="10.0865" y="9.58044" width="13.696" height="13.696" filterUnits="userSpaceOnUse" color-interpolation-filters="sRGB">
<feFlood flood-opacity="0" result="BackgroundImageFix"/>
<feColorMatrix in="SourceAlpha" type="matrix" values="0 0 0 0 0 0 0 0 0 0 0 0 0 0 0 0 0 0 127 0" result="hardAlpha"/>
<feOffset dy="4"/>
<feGaussianBlur stdDeviation="2"/>
<feColorMatrix type="matrix" values="0 0 0 0 0 0 0 0 0 0 0 0 0 0 0 0 0 0 0.05 0"/>
<feBlend mode="normal" in2="BackgroundImageFix" result="effect1_dropShadow_1982_59"/>
<feBlend mode="normal" in="SourceGraphic" in2="effect1_dropShadow_1982_59" result="shape"/>
</filter>
<filter id="filter3_d_1982_59" x="0" y="9.84241" width="13.9331" height="13.2166" filterUnits="userSpaceOnUse" color-interpolation-filters="sRGB">
<feFlood flood-opacity="0" result="BackgroundImageFix"/>
<feColorMatrix in="SourceAlpha" type="matrix" values="0 0 0 0 0 0 0 0 0 0 0 0 0 0 0 0 0 0 127 0" result="hardAlpha"/>
<feOffset dy="4"/>
<feGaussianBlur stdDeviation="2"/>
<feColorMatrix type="matrix" values="0 0 0 0 0 0 0 0 0 0 0 0 0 0 0 0 0 0 0.05 0"/>
<feBlend mode="normal" in2="BackgroundImageFix" result="effect1_dropShadow_1982_59"/>
<feBlend mode="normal" in="SourceGraphic" in2="effect1_dropShadow_1982_59" result="shape"/>
</filter>
<filter id="filter4_d_1982_59" x="6.36829" y="3.09326" width="10.5317" height="8.83081" filterUnits="userSpaceOnUse" color-interpolation-filters="sRGB">
<feFlood flood-opacity="0" result="BackgroundImageFix"/>
<feColorMatrix in="SourceAlpha" type="matrix" values="0 0 0 0 0 0 0 0 0 0 0 0 0 0 0 0 0 0 127 0" result="hardAlpha"/>
<feOffset dy="4"/>
<feGaussianBlur stdDeviation="2"/>
<feColorMatrix type="matrix" values="0 0 0 0 0 0 0 0 0 0 0 0 0 0 0 0 0 0 0.05 0"/>
<feBlend mode="normal" in2="BackgroundImageFix" result="effect1_dropShadow_1982_59"/>
<feBlend mode="normal" in="SourceGraphic" in2="effect1_dropShadow_1982_59" result="shape"/>
</filter>
<filter id="filter5_d_1982_59" x="12.5983" y="6.63367" width="8.83081" height="10.5712" filterUnits="userSpaceOnUse" color-interpolation-filters="sRGB">
<feFlood flood-opacity="0" result="BackgroundImageFix"/>
<feColorMatrix in="SourceAlpha" type="matrix" values="0 0 0 0 0 0 0 0 0 0 0 0 0 0 0 0 0 0 127 0" result="hardAlpha"/>
<feOffset dy="4"/>
<feGaussianBlur stdDeviation="2"/>
<feColorMatrix type="matrix" values="0 0 0 0 0 0 0 0 0 0 0 0 0 0 0 0 0 0 0.05 0"/>
<feBlend mode="normal" in2="BackgroundImageFix" result="effect1_dropShadow_1982_59"/>
<feBlend mode="normal" in="SourceGraphic" in2="effect1_dropShadow_1982_59" result="shape"/>
</filter>
<filter id="filter6_d_1982_59" x="5.4585" y="11.8944" width="12.2326" height="8.83081" filterUnits="userSpaceOnUse" color-interpolation-filters="sRGB">
<feFlood flood-opacity="0" result="BackgroundImageFix"/>
<feColorMatrix in="SourceAlpha" type="matrix" values="0 0 0 0 0 0 0 0 0 0 0 0 0 0 0 0 0 0 127 0" result="hardAlpha"/>
<feOffset dy="4"/>
<feGaussianBlur stdDeviation="2"/>
<feColorMatrix type="matrix" values="0 0 0 0 0 0 0 0 0 0 0 0 0 0 0 0 0 0 0.05 0"/>
<feBlend mode="normal" in2="BackgroundImageFix" result="effect1_dropShadow_1982_59"/>
<feBlend mode="normal" in="SourceGraphic" in2="effect1_dropShadow_1982_59" result="shape"/>
</filter>
<filter id="filter7_d_1982_59" x="2.55115" y="6.71252" width="8.83081" height="10.5516" filterUnits="userSpaceOnUse" color-interpolation-filters="sRGB">
<feFlood flood-opacity="0" result="BackgroundImageFix"/>
<feColorMatrix in="SourceAlpha" type="matrix" values="0 0 0 0 0 0 0 0 0 0 0 0 0 0 0 0 0 0 127 0" result="hardAlpha"/>
<feOffset dy="4"/>
<feGaussianBlur stdDeviation="2"/>
<feColorMatrix type="matrix" values="0 0 0 0 0 0 0 0 0 0 0 0 0 0 0 0 0 0 0.05 0"/>
<feBlend mode="normal" in2="BackgroundImageFix" result="effect1_dropShadow_1982_59"/>
<feBlend mode="normal" in="SourceGraphic" in2="effect1_dropShadow_1982_59" result="shape"/>
</filter>
<linearGradient id="paint0_linear_1982_59" x1="6.95665" y1="0.719971" x2="6.95665" y2="6.25789" gradientUnits="userSpaceOnUse">
<stop stop-color="#2257E2"/>
<stop offset="1" stop-color="#5AA6FF"/>
</linearGradient>
<linearGradient id="paint1_linear_1982_59" x1="16.9247" y1="0.759521" x2="16.9247" y2="6.1986" gradientUnits="userSpaceOnUse">
<stop stop-color="#2257E2"/>
<stop offset="1" stop-color="#5AA6FF"/>
</linearGradient>
<linearGradient id="paint2_linear_1982_59" x1="16.9346" y1="9.58044" x2="16.9346" y2="15.2765" gradientUnits="userSpaceOnUse">
<stop stop-color="#2257E2"/>
<stop offset="1" stop-color="#5AA6FF"/>
</linearGradient>
<linearGradient id="paint3_linear_1982_59" x1="6.96655" y1="9.84241" x2="6.96655" y2="15.059" gradientUnits="userSpaceOnUse">
<stop stop-color="#2257E2"/>
<stop offset="1" stop-color="#5AA6FF"/>
</linearGradient>
<linearGradient id="paint4_linear_1982_59" x1="11.6341" y1="3.09326" x2="11.6341" y2="3.92407" gradientUnits="userSpaceOnUse">
<stop stop-color="#2257E2"/>
<stop offset="1" stop-color="#5AA6FF"/>
</linearGradient>
<linearGradient id="paint5_linear_1982_59" x1="17.0137" y1="6.63367" x2="17.0137" y2="9.20482" gradientUnits="userSpaceOnUse">
<stop stop-color="#2257E2"/>
<stop offset="1" stop-color="#5AA6FF"/>
</linearGradient>
<linearGradient id="paint6_linear_1982_59" x1="11.5748" y1="11.8944" x2="11.5748" y2="12.7252" gradientUnits="userSpaceOnUse">
<stop stop-color="#2257E2"/>
<stop offset="1" stop-color="#5AA6FF"/>
</linearGradient>
<linearGradient id="paint7_linear_1982_59" x1="6.96655" y1="6.71252" x2="6.96655" y2="9.26411" gradientUnits="userSpaceOnUse">
<stop stop-color="#2257E2"/>
<stop offset="1" stop-color="#5AA6FF"/>
</linearGradient>
</defs>
</svg>
