<svg width="24" height="24" viewBox="0 0 24 24" fill="none" xmlns="http://www.w3.org/2000/svg">
<path d="M12 15.75C14.0711 15.75 15.75 14.0711 15.75 12C15.75 9.92893 14.0711 8.25 12 8.25C9.92893 8.25 8.25 9.92893 8.25 12C8.25 14.0711 9.92893 15.75 12 15.75Z" stroke="#A7B0CC" stroke-width="1.5" stroke-linecap="round" stroke-linejoin="round"/>
<path d="M17.1191 20.3009L12.5291 15.7109" stroke="#A7B0CC" stroke-width="1.5" stroke-linecap="round" stroke-linejoin="round"/>
<path d="M15.7111 12.5298L20.3011 17.1188" stroke="#A7B0CC" stroke-width="1.5" stroke-linecap="round" stroke-linejoin="round"/>
<path d="M3.69897 17.1188L8.28897 12.5288" stroke="#A7B0CC" stroke-width="1.5" stroke-linecap="round" stroke-linejoin="round"/>
<path d="M11.471 15.7119L6.88098 20.3009" stroke="#A7B0CC" stroke-width="1.5" stroke-linecap="round" stroke-linejoin="round"/>
<path d="M6.88098 3.7002L11.471 8.2892" stroke="#A7B0CC" stroke-width="1.5" stroke-linecap="round" stroke-linejoin="round"/>
<path d="M8.28897 11.4709L3.69897 6.88086" stroke="#A7B0CC" stroke-width="1.5" stroke-linecap="round" stroke-linejoin="round"/>
<path d="M20.3011 6.88086L15.7111 11.4709" stroke="#A7B0CC" stroke-width="1.5" stroke-linecap="round" stroke-linejoin="round"/>
<path d="M12.5291 8.2892L17.1191 3.7002" stroke="#A7B0CC" stroke-width="1.5" stroke-linecap="round" stroke-linejoin="round"/>
<path d="M12 21.75C17.3848 21.75 21.75 17.3848 21.75 12C21.75 6.61522 17.3848 2.25 12 2.25C6.61522 2.25 2.25 6.61522 2.25 12C2.25 17.3848 6.61522 21.75 12 21.75Z" stroke="#A7B0CC" stroke-width="1.5" stroke-linecap="round" stroke-linejoin="round"/>
</svg>
