<svg width="16" height="16" viewBox="0 0 16 16" fill="none" xmlns="http://www.w3.org/2000/svg">
<g clip-path="url(#clip0_995_36666)">
<path d="M6.96532 8.526C7.04632 8.38642 7.14318 8.25667 7.25398 8.13933C7.28885 8.10226 7.31476 8.05769 7.32973 8.00905C7.3447 7.96041 7.34833 7.90899 7.34035 7.85872C7.33237 7.80846 7.31299 7.76069 7.28369 7.71908C7.25439 7.67747 7.21595 7.64312 7.17132 7.61867C6.4468 7.21603 5.6322 7.00321 4.80332 7C3.72806 7.00493 2.68271 7.35444 1.82071 7.99721C0.958719 8.63999 0.32549 9.54218 0.0139845 10.5713C-0.000864039 10.6211 -0.00388642 10.6736 0.00515826 10.7247C0.0142029 10.7759 0.0350646 10.8242 0.0660806 10.8658C0.0970966 10.9074 0.137409 10.9413 0.183806 10.9646C0.230202 10.9878 0.2814 11 0.333318 11H6.56532C6.62127 11.0001 6.67634 10.9861 6.72545 10.9593C6.77457 10.9325 6.81615 10.8938 6.84637 10.8467C6.87659 10.7996 6.89447 10.7457 6.89836 10.6899C6.90226 10.6341 6.89204 10.5782 6.86865 10.5273C6.72263 10.2106 6.65517 9.86324 6.672 9.51483C6.68883 9.16643 6.78945 8.82723 6.96532 8.526Z" fill="#9FA65E"/>
<path d="M4.666 6.33333C6.4149 6.33333 7.83266 4.91557 7.83266 3.16667C7.83266 1.41777 6.4149 0 4.666 0C2.91709 0 1.49933 1.41777 1.49933 3.16667C1.49933 4.91557 2.91709 6.33333 4.666 6.33333Z" fill="#9FA65E"/>
<path d="M11.832 12.3535C12.3843 12.3535 12.832 11.9058 12.832 11.3535C12.832 10.8012 12.3843 10.3535 11.832 10.3535C11.2797 10.3535 10.832 10.8012 10.832 11.3535C10.832 11.9058 11.2797 12.3535 11.832 12.3535Z" fill="#9FA65E"/>
<path d="M15.6774 10.436C15.8503 10.25 15.9592 10.0134 15.9879 9.76105C16.0166 9.50866 15.9638 9.2537 15.837 9.03355C15.7103 8.8134 15.5164 8.63964 15.2837 8.53775C15.051 8.43586 14.7918 8.41119 14.544 8.46735L13.6034 8.68535C13.5289 8.70209 13.4509 8.69001 13.3849 8.65155C13.319 8.61308 13.2701 8.55109 13.248 8.47802L12.9654 7.54935C12.8918 7.30604 12.7419 7.09285 12.5378 6.94134C12.3337 6.78982 12.0862 6.70801 11.832 6.70801C11.5778 6.70801 11.3304 6.78982 11.1263 6.94134C10.9222 7.09285 10.7723 7.30604 10.6987 7.54935L10.416 8.47802C10.3938 8.551 10.3449 8.6129 10.279 8.65134C10.2131 8.68978 10.1352 8.70193 10.0607 8.68535L9.12069 8.46669C8.87296 8.41052 8.61375 8.43519 8.38106 8.53708C8.14837 8.63898 7.95444 8.81274 7.8277 9.03288C7.70096 9.25303 7.64809 9.50799 7.67682 9.76038C7.70555 10.0128 7.81439 10.2493 7.98736 10.4354L8.64603 11.1454C8.69808 11.2023 8.72694 11.2766 8.72694 11.3537C8.72694 11.4308 8.69808 11.5051 8.64603 11.562L7.98736 12.2714C7.81439 12.4574 7.70555 12.6939 7.67682 12.9463C7.64809 13.1987 7.70096 13.4537 7.8277 13.6738C7.95444 13.894 8.14837 14.0677 8.38106 14.1696C8.61375 14.2715 8.87296 14.2962 9.12069 14.24L10.0614 14.022C10.1359 14.0055 10.2139 14.0177 10.2798 14.0563C10.3457 14.0949 10.3946 14.1569 10.4167 14.23L10.6994 15.158C10.7725 15.4017 10.9223 15.6153 11.1265 15.7672C11.3306 15.919 11.5783 16.001 11.8327 16.001C12.0871 16.001 12.3348 15.919 12.5389 15.7672C12.7431 15.6153 12.8928 15.4017 12.966 15.158L13.2487 14.23C13.2705 14.1567 13.3193 14.0945 13.3853 14.0559C13.4513 14.0172 13.5295 14.0051 13.604 14.022L14.5447 14.24C14.7924 14.2962 15.0516 14.2715 15.2843 14.1696C15.517 14.0677 15.711 13.894 15.8377 13.6738C15.9644 13.4537 16.0173 13.1987 15.9886 12.9463C15.9598 12.6939 15.851 12.4574 15.678 12.2714L15.02 11.562C14.968 11.5051 14.9391 11.4308 14.9391 11.3537C14.9391 11.2766 14.968 11.2023 15.02 11.1454L15.6774 10.436ZM11.832 13.354C11.4365 13.354 11.0498 13.2367 10.7209 13.017C10.392 12.7972 10.1356 12.4848 9.98427 12.1194C9.83289 11.7539 9.79329 11.3518 9.87046 10.9638C9.94763 10.5759 10.1381 10.2195 10.4178 9.93981C10.6975 9.6601 11.0539 9.46962 11.4418 9.39245C11.8298 9.31528 12.2319 9.35489 12.5974 9.50626C12.9628 9.65764 13.2752 9.91398 13.495 10.2429C13.7147 10.5718 13.832 10.9585 13.832 11.354C13.832 11.8845 13.6213 12.3932 13.2462 12.7682C12.8712 13.1433 12.3625 13.354 11.832 13.354Z" fill="#9FA65E"/>
</g>
<defs>
<clipPath id="clip0_995_36666">
<rect width="16" height="16" fill="white"/>
</clipPath>
</defs>
</svg>
