<svg width="16" height="16" viewBox="0 0 16 16" fill="none" xmlns="http://www.w3.org/2000/svg">
<g clip-path="url(#clip0_995_36463)">
<path d="M8.00002 9.03966V12.3337C8.00002 12.5105 7.92978 12.68 7.80476 12.8051C7.67973 12.9301 7.51016 13.0003 7.33335 13.0003H2.66669C2.48988 13.0003 2.32031 12.9301 2.19528 12.8051C2.07026 12.68 2.00002 12.5105 2.00002 12.3337V5.00033C2.00002 4.82351 2.07026 4.65395 2.19528 4.52892C2.32031 4.4039 2.48988 4.33366 2.66669 4.33366H5.50669C5.54897 4.3328 5.58927 4.31558 5.61911 4.28561C5.64895 4.25565 5.66601 4.21528 5.66669 4.17299C5.67969 3.73484 5.74686 3.29998 5.86669 2.87833C5.87415 2.85407 5.87585 2.82841 5.87167 2.80337C5.86748 2.77834 5.85752 2.75463 5.84257 2.73412C5.82763 2.71361 5.80811 2.69686 5.78556 2.68521C5.76301 2.67356 5.73806 2.66732 5.71269 2.66699H2.33335C1.89133 2.66699 1.4674 2.84259 1.15484 3.15515C0.842282 3.46771 0.666687 3.89163 0.666687 4.33366V14.3337C0.666687 14.5525 0.709797 14.7693 0.793554 14.9715C0.877312 15.1737 1.00008 15.3574 1.15484 15.5122C1.30961 15.6669 1.49334 15.7897 1.69555 15.8735C1.89776 15.9572 2.11448 16.0003 2.33335 16.0003H7.66669C7.88556 16.0003 8.10228 15.9572 8.30449 15.8735C8.5067 15.7897 8.69043 15.6669 8.8452 15.5122C8.99996 15.3574 9.12273 15.1737 9.20649 14.9715C9.29024 14.7693 9.33335 14.5525 9.33335 14.3337V9.51499C9.33335 9.48149 9.32287 9.44882 9.30339 9.42157C9.2839 9.39432 9.25639 9.37383 9.22469 9.36299C8.88548 9.24279 8.55936 9.08845 8.25135 8.90233C8.22673 8.88632 8.19824 8.87727 8.1689 8.87615C8.13955 8.87503 8.11045 8.88187 8.08469 8.89595C8.05892 8.91003 8.03744 8.93083 8.02253 8.95613C8.00763 8.98143 7.99985 9.01029 8.00002 9.03966Z" fill="#FFA217"/>
<path d="M11 0C10.143 0 9.30516 0.254146 8.59255 0.730298C7.87994 1.20645 7.32452 1.88323 6.99654 2.67504C6.66856 3.46685 6.58275 4.33814 6.74995 5.17872C6.91716 6.01931 7.32986 6.79144 7.93589 7.39746C8.54192 8.00349 9.31405 8.4162 10.1546 8.5834C10.9952 8.75061 11.8665 8.66479 12.6583 8.33681C13.4501 8.00883 14.1269 7.45342 14.6031 6.7408C15.0792 6.02819 15.3334 5.19039 15.3334 4.33333C15.3319 3.1845 14.8749 2.08311 14.0626 1.27076C13.2502 0.458411 12.1489 0.00141135 11 0V0ZM8.73736 5.158C8.64632 5.06366 8.59598 4.93733 8.59718 4.80623C8.59838 4.67513 8.65103 4.54975 8.74377 4.45709C8.83652 4.36443 8.96195 4.31191 9.09305 4.31083C9.22415 4.30975 9.35043 4.36021 9.44469 4.45133L10.4447 5.45133L12.3814 2.86867C12.4208 2.81614 12.4701 2.77188 12.5266 2.73843C12.5831 2.70498 12.6456 2.68298 12.7106 2.67369C12.7756 2.66441 12.8418 2.66801 12.9054 2.68431C12.9691 2.70061 13.0288 2.72927 13.0814 2.76867C13.1339 2.80806 13.1781 2.85742 13.2116 2.91392C13.245 2.97042 13.267 3.03296 13.2763 3.09796C13.2856 3.16296 13.282 3.22915 13.2657 3.29276C13.2494 3.35636 13.2208 3.41614 13.1814 3.46867L11.2454 6.05267C11.1575 6.16471 11.0471 6.25709 10.9214 6.32384C10.7956 6.3906 10.6572 6.43025 10.5152 6.44024C10.3732 6.45022 10.2306 6.43033 10.0968 6.38183C9.96291 6.33333 9.8407 6.25731 9.73802 6.15867L8.73736 5.158Z" fill="#FFA217"/>
</g>
<defs>
<clipPath id="clip0_995_36463">
<rect width="16" height="16" fill="white"/>
</clipPath>
</defs>
</svg>
