<svg width="24" height="24" viewBox="0 0 24 24" fill="none" xmlns="http://www.w3.org/2000/svg">
<path d="M23.4227 20.5797L18.3596 15.4545C19.7131 13.3812 20.2486 10.8791 19.8623 8.43335C19.476 5.9876 18.1954 3.77239 16.2687 2.21713C14.342 0.661867 11.9065 -0.122669 9.43432 0.0156034C6.96212 0.153876 4.6293 1.20511 2.88808 2.96552C1.14685 4.72593 0.121254 7.07013 0.010084 9.5437C-0.101086 12.0173 0.710095 14.444 2.28638 16.3535C3.86267 18.263 6.09178 19.5193 8.54161 19.8788C10.9914 20.2383 13.4875 19.6754 15.5459 18.2992L20.5761 23.3924C20.9527 23.7631 21.4592 23.9723 21.9877 23.9753C22.5161 23.9783 23.0249 23.7749 23.4057 23.4084C23.783 23.0355 23.9968 22.528 24 21.9976C24.0032 21.4671 23.7955 20.9571 23.4227 20.5797ZM9.99662 1.73036C11.6287 1.73036 13.2241 2.21432 14.5811 3.12106C15.9382 4.02779 16.9958 5.31656 17.6204 6.8244C18.245 8.33224 18.4084 9.99143 18.09 11.5921C17.7716 13.1929 16.9857 14.6632 15.8316 15.8173C14.6776 16.9713 13.2072 17.7572 11.6065 18.0756C10.0058 18.394 8.34659 18.2306 6.83875 17.606C5.33091 16.9815 4.04214 15.9238 3.13541 14.5668C2.22868 13.2098 1.74471 11.6143 1.74471 9.98227C1.74736 7.79454 2.6176 5.69717 4.16456 4.15021C5.71152 2.60325 7.80889 1.733 9.99662 1.73036Z" fill="#5287E8"/>
<path d="M9.99656 16.7336C13.7254 16.7336 16.7481 13.7108 16.7481 9.98204C16.7481 6.25325 13.7254 3.23047 9.99656 3.23047C6.26778 3.23047 3.245 6.25325 3.245 9.98204C3.245 13.7108 6.26778 16.7336 9.99656 16.7336Z" fill="#5287E8"/>
</svg>
