<svg width="16" height="16" viewBox="0 0 16 16" fill="none" xmlns="http://www.w3.org/2000/svg">
<g clip-path="url(#clip0_995_36508)">
<path d="M7.48601 8.16067C7.51855 8.12342 7.5424 8.0794 7.55582 8.03179C7.56924 7.98418 7.5719 7.93418 7.56361 7.88542C7.55531 7.83666 7.53626 7.79036 7.50785 7.74987C7.47944 7.70938 7.44237 7.67572 7.39934 7.65133C6.65987 7.22752 5.82298 7.00308 4.97067 7C3.89533 7.00489 2.84987 7.35437 1.98777 7.99715C1.12566 8.63992 0.492303 9.54212 0.180672 10.5713C0.165823 10.6211 0.162801 10.6736 0.171845 10.7247C0.18089 10.7759 0.201752 10.8242 0.232768 10.8658C0.263784 10.9074 0.304096 10.9413 0.350493 10.9646C0.396889 10.9878 0.448087 11 0.500005 11H5.92667C6.00478 11 6.08042 10.9726 6.14036 10.9225C6.20031 10.8724 6.24077 10.8029 6.25467 10.726C6.42454 9.77494 6.85021 8.88809 7.48601 8.16067Z" fill="#1176BE"/>
<path d="M4.83335 6.33333C6.58226 6.33333 8.00002 4.91557 8.00002 3.16667C8.00002 1.41777 6.58226 0 4.83335 0C3.08445 0 1.66669 1.41777 1.66669 3.16667C1.66669 4.91557 3.08445 6.33333 4.83335 6.33333Z" fill="#1176BE"/>
<path d="M11.5 7.33301C10.643 7.33301 9.80516 7.58715 9.09255 8.06331C8.37994 8.53946 7.82452 9.21623 7.49654 10.008C7.16856 10.7999 7.08275 11.6711 7.24995 12.5117C7.41716 13.3523 7.82986 14.1244 8.43589 14.7305C9.04192 15.3365 9.81405 15.7492 10.6546 15.9164C11.4952 16.0836 12.3665 15.9978 13.1583 15.6698C13.9501 15.3418 14.6269 14.7864 15.1031 14.0738C15.5792 13.3612 15.8334 12.5234 15.8334 11.6663C15.8319 10.5175 15.3749 9.41612 14.5626 8.60377C13.7502 7.79142 12.6489 7.33442 11.5 7.33301ZM12.1667 9.66634V11.1663C12.1667 11.2547 12.2018 11.3395 12.2643 11.402C12.3268 11.4646 12.4116 11.4997 12.5 11.4997H13.1C13.1629 11.4995 13.2246 11.5172 13.2779 11.5506C13.3311 11.584 13.3739 11.6319 13.4011 11.6885C13.4284 11.7452 13.4391 11.8085 13.4319 11.8709C13.4248 11.9334 13.4001 11.9926 13.3607 12.0417L11.7607 14.0417C11.7295 14.0808 11.6898 14.1125 11.6447 14.1342C11.5996 14.156 11.5501 14.1672 11.5 14.1672C11.4499 14.1672 11.4005 14.156 11.3554 14.1342C11.3102 14.1125 11.2706 14.0808 11.2394 14.0417L9.63936 12.0417C9.59998 11.9926 9.57529 11.9334 9.56813 11.8709C9.56097 11.8085 9.57164 11.7452 9.5989 11.6885C9.62616 11.6319 9.6689 11.584 9.72219 11.5506C9.77547 11.5172 9.83712 11.4995 9.90002 11.4997H10.5C10.5438 11.4997 10.5871 11.4911 10.6276 11.4743C10.668 11.4575 10.7048 11.433 10.7357 11.402C10.7667 11.3711 10.7912 11.3343 10.808 11.2939C10.8247 11.2535 10.8334 11.2101 10.8334 11.1663V9.66634C10.8334 9.48953 10.9036 9.31996 11.0286 9.19494C11.1536 9.06991 11.3232 8.99967 11.5 8.99967C11.6768 8.99967 11.8464 9.06991 11.9714 9.19494C12.0965 9.31996 12.1667 9.48953 12.1667 9.66634Z" fill="#1176BE"/>
</g>
<defs>
<clipPath id="clip0_995_36508">
<rect width="16" height="16" fill="white"/>
</clipPath>
</defs>
</svg>
