<svg width="16" height="16" viewBox="0 0 16 16" fill="none" xmlns="http://www.w3.org/2000/svg">
<g clip-path="url(#clip0_995_36374)">
<path d="M7.55664 8.27962C7.58681 8.24318 7.60889 8.20074 7.6214 8.15512C7.6339 8.1095 7.63656 8.06173 7.62918 8.015C7.6218 7.96828 7.60456 7.92365 7.57861 7.8841C7.55265 7.84455 7.51857 7.81098 7.47864 7.78562C6.82757 7.36874 6.08844 7.10905 5.31969 7.0271C4.55095 6.94515 3.77368 7.04318 3.04936 7.31345C2.32504 7.58371 1.67354 8.01879 1.14637 8.58427C0.6192 9.14976 0.23083 9.83014 0.011972 10.5716C-0.00292591 10.6215 -0.00591966 10.6742 0.00323089 10.7255C0.0123814 10.7768 0.0334216 10.8252 0.0646638 10.8669C0.095906 10.9086 0.136481 10.9423 0.183133 10.9655C0.229786 10.9887 0.281219 11.0006 0.333305 11.0003H6.11064C6.18407 11.0002 6.25514 10.9743 6.31143 10.9271C6.36773 10.88 6.40567 10.8146 6.41864 10.7423C6.57813 9.83664 6.97029 8.98801 7.55664 8.27962Z" fill="#5ABAFF"/>
<path d="M4.66667 6.33333C6.41557 6.33333 7.83333 4.91557 7.83333 3.16667C7.83333 1.41777 6.41557 0 4.66667 0C2.91777 0 1.5 1.41777 1.5 3.16667C1.5 4.91557 2.91777 6.33333 4.66667 6.33333Z" fill="#5ABAFF"/>
<path d="M11.6666 7.33301C10.8096 7.33301 9.97179 7.58715 9.25918 8.06331C8.54656 8.53946 7.99115 9.21623 7.66317 10.008C7.33519 10.7999 7.24938 11.6711 7.41658 12.5117C7.58378 13.3523 7.99649 14.1244 8.60252 14.7305C9.20855 15.3365 9.98067 15.7492 10.8213 15.9164C11.6618 16.0836 12.5331 15.9978 13.3249 15.6698C14.1168 15.3418 14.7935 14.7864 15.2697 14.0738C15.7458 13.3612 16 12.5234 16 11.6663C15.9986 10.5175 15.5416 9.41612 14.7292 8.60377C13.9169 7.79142 12.8155 7.33442 11.6666 7.33301ZM11 13.6663V12.1663C11 12.0779 10.9649 11.9932 10.9024 11.9306C10.8398 11.8681 10.7551 11.833 10.6666 11.833H10.0666C10.0039 11.833 9.94235 11.8154 9.88919 11.782C9.83602 11.7486 9.79336 11.7009 9.76613 11.6443C9.73889 11.5877 9.72818 11.5246 9.73523 11.4622C9.74228 11.3999 9.76681 11.3407 9.80598 11.2917L11.406 9.29167C11.4383 9.25427 11.4784 9.22427 11.5233 9.20371C11.5683 9.18315 11.6172 9.1725 11.6666 9.1725C11.7161 9.1725 11.765 9.18315 11.81 9.20371C11.8549 9.22427 11.895 9.25427 11.9273 9.29167L13.5273 11.2917C13.5665 11.3407 13.591 11.3999 13.5981 11.4622C13.6051 11.5246 13.5944 11.5877 13.5672 11.6443C13.5399 11.7009 13.4973 11.7486 13.4441 11.782C13.3909 11.8154 13.3294 11.833 13.2666 11.833H12.6666C12.5782 11.833 12.4935 11.8681 12.4309 11.9306C12.3684 11.9932 12.3333 12.0779 12.3333 12.1663V13.6663C12.3333 13.8432 12.2631 14.0127 12.1381 14.1377C12.013 14.2628 11.8435 14.333 11.6666 14.333C11.4898 14.333 11.3203 14.2628 11.1952 14.1377C11.0702 14.0127 11 13.8432 11 13.6663Z" fill="#5ABAFF"/>
</g>
<defs>
<clipPath id="clip0_995_36374">
<rect width="16" height="16" fill="white"/>
</clipPath>
</defs>
</svg>
