<svg width="12" height="12" viewBox="0 0 12 12" fill="none" xmlns="http://www.w3.org/2000/svg">
<g clip-path="url(#clip0_1091_29827)">
<path d="M11.707 10.2951L9.38449 7.97265C10.0917 6.91408 10.3798 5.63031 10.1928 4.37107C10.0059 3.11182 9.35725 1.96713 8.37306 1.15965C7.38887 0.352177 6.13952 -0.0603503 4.86801 0.00231482C3.59651 0.0649799 2.39377 0.598357 1.49375 1.4987C0.593731 2.39903 0.0607793 3.60196 -0.00143626 4.87349C-0.0636518 6.14501 0.349317 7.39422 1.15714 8.37812C1.96497 9.36203 3.10989 10.0103 4.3692 10.1968C5.62851 10.3833 6.91217 10.0947 7.97049 9.38715L10.293 11.7091C10.4821 11.8936 10.7358 11.9969 11 11.9969C11.2642 11.9969 11.5179 11.8936 11.707 11.7091C11.8945 11.5216 11.9998 11.2673 11.9998 11.0021C11.9998 10.737 11.8945 10.4827 11.707 10.2951ZM5.12499 1.50215C5.84195 1.50215 6.54281 1.71475 7.13893 2.11307C7.73506 2.51139 8.19969 3.07754 8.47405 3.73992C8.74842 4.4023 8.82021 5.13117 8.68034 5.83435C8.54047 6.53753 8.19522 7.18344 7.68825 7.69041C7.18129 8.19737 6.53537 8.54262 5.83219 8.68249C5.12901 8.82236 4.40015 8.75058 3.73776 8.47621C3.07538 8.20184 2.50923 7.73722 2.11091 7.14109C1.71259 6.54496 1.49999 5.8441 1.49999 5.12715C1.50105 4.16606 1.88331 3.24464 2.5629 2.56505C3.24249 1.88546 4.16391 1.5032 5.12499 1.50215Z" fill="#000000"/>
</g>
<defs>
<clipPath id="clip0_1091_29827">
<rect width="12" height="12" fill="white"/>
</clipPath>
</defs>
</svg>
