<svg width="16" height="16" viewBox="0 0 16 16" fill="none" xmlns="http://www.w3.org/2000/svg">
<path d="M0.198953 12.6258L3.44438 15.8125C3.57434 15.9329 3.74626 16 3.92494 16C4.10362 16 4.27554 15.9329 4.4055 15.8125L7.65025 12.6258C7.74521 12.5326 7.80988 12.4137 7.83608 12.2844C7.86227 12.155 7.84882 12.0209 7.79742 11.8991C7.74603 11.7772 7.65899 11.6731 7.54731 11.5998C7.43564 11.5265 7.30434 11.4874 7.17002 11.4873L5.11328 11.4873C5.06824 11.4873 5.02505 11.4698 4.9932 11.4385C4.96136 11.4072 4.94347 11.3648 4.94347 11.3206L4.94347 1.00084C4.94347 0.735506 4.83612 0.481043 4.64505 0.293425C4.45397 0.105808 4.19482 0.000405952 3.9246 0.000405928C3.65438 0.000405905 3.39523 0.105808 3.20416 0.293425C3.01308 0.481042 2.90574 0.735506 2.90574 1.00084L2.90574 11.3206C2.90583 11.3425 2.9015 11.3643 2.89299 11.3845C2.88449 11.4048 2.87199 11.4232 2.8562 11.4387C2.84041 11.4542 2.82166 11.4665 2.80102 11.4748C2.78037 11.4832 2.75825 11.4874 2.73593 11.4873L0.679179 11.4873C0.544858 11.4874 0.413562 11.5265 0.301888 11.5998C0.190214 11.6731 0.103176 11.7772 0.0517773 11.8991C0.000378963 12.0209 -0.0130721 12.155 0.0131243 12.2844C0.0393213 12.4137 0.103989 12.5326 0.198953 12.6258Z" fill="#000000"/>
<path d="M15.8012 3.37416L12.5557 0.187456C12.4258 0.0670616 12.2539 0 12.0752 0C11.8965 0 11.7246 0.0670616 11.5946 0.187456L8.34987 3.37416C8.25491 3.46744 8.19024 3.58626 8.16404 3.71562C8.13785 3.84498 8.1513 3.97906 8.2027 4.10091C8.2541 4.22276 8.34113 4.32692 8.45281 4.4002C8.56448 4.47349 8.69578 4.51262 8.8301 4.51265H10.8868C10.9319 4.51265 10.9751 4.53022 11.0069 4.56149C11.0388 4.59276 11.0567 4.63517 11.0567 4.67939V14.9992C11.0567 15.2645 11.164 15.519 11.3551 15.7066C11.5461 15.8942 11.8053 15.9996 12.0755 15.9996C12.3457 15.9996 12.6049 15.8942 12.796 15.7066C12.987 15.519 13.0944 15.2645 13.0944 14.9992V4.67939C13.0943 4.65747 13.0986 4.63575 13.1071 4.61548C13.1156 4.59521 13.1281 4.57679 13.1439 4.56129C13.1597 4.54579 13.1785 4.53351 13.1991 4.52516C13.2197 4.51682 13.2419 4.51256 13.2642 4.51265H15.3209C15.4553 4.51262 15.5866 4.47349 15.6982 4.4002C15.8099 4.32692 15.8969 4.22276 15.9483 4.10091C15.9997 3.97906 16.0132 3.84498 15.987 3.71562C15.9608 3.58626 15.8961 3.46744 15.8012 3.37416Z" fill="#000000"/>
</svg>
