<svg width="16" height="16" viewBox="0 0 16 16" fill="none" xmlns="http://www.w3.org/2000/svg">
<g clip-path="url(#clip0_995_34216)">
<path d="M2.16667 10.1663C3.36328 10.1663 4.33333 9.19629 4.33333 7.99967C4.33333 6.80306 3.36328 5.83301 2.16667 5.83301C0.97005 5.83301 0 6.80306 0 7.99967C0 9.19629 0.97005 10.1663 2.16667 10.1663Z" fill="#222222"/>
<path d="M8.00004 10.1663C9.19666 10.1663 10.1667 9.19629 10.1667 7.99967C10.1667 6.80306 9.19666 5.83301 8.00004 5.83301C6.80342 5.83301 5.83337 6.80306 5.83337 7.99967C5.83337 9.19629 6.80342 10.1663 8.00004 10.1663Z" fill="#222222"/>
<path d="M13.8333 10.1663C15.0299 10.1663 16 9.19629 16 7.99967C16 6.80306 15.0299 5.83301 13.8333 5.83301C12.6367 5.83301 11.6666 6.80306 11.6666 7.99967C11.6666 9.19629 12.6367 10.1663 13.8333 10.1663Z" fill="#222222"/>
</g>
<defs>
<clipPath id="clip0_995_34216">
<rect width="16" height="16" fill="white"/>
</clipPath>
</defs>
</svg>
