<svg width="20" height="20" viewBox="0 0 20 20" fill="none" xmlns="http://www.w3.org/2000/svg">
<g clip-path="url(#clip0_482_83526)">
<path d="M13.75 7.5004H6.25C6.08424 7.5004 5.92527 7.56625 5.80806 7.68346C5.69085 7.80067 5.625 7.95964 5.625 8.1254C5.625 8.29116 5.69085 8.45013 5.80806 8.56734C5.92527 8.68455 6.08424 8.7504 6.25 8.7504H13.75C13.9158 8.7504 14.0747 8.68455 14.1919 8.56734C14.3092 8.45013 14.375 8.29116 14.375 8.1254C14.375 7.95964 14.3092 7.80067 14.1919 7.68346C14.0747 7.56625 13.9158 7.5004 13.75 7.5004ZM14.375 11.0412C14.375 10.8755 14.3092 10.7165 14.1919 10.5993C14.0747 10.4821 13.9158 10.4162 13.75 10.4162H6.25C6.08424 10.4162 5.92527 10.4821 5.80806 10.5993C5.69085 10.7165 5.625 10.8755 5.625 11.0412C5.625 11.207 5.69085 11.366 5.80806 11.4832C5.92527 11.6004 6.08424 11.6662 6.25 11.6662H13.75C13.9158 11.6662 14.0747 11.6004 14.1919 11.4832C14.3092 11.366 14.375 11.207 14.375 11.0412ZM8.33333 5.41706H11.6667C11.8877 5.41706 12.0996 5.32927 12.2559 5.17299C12.4122 5.01671 12.5 4.80474 12.5 4.58373V2.5004C12.4993 2.11475 12.4096 1.73447 12.2379 1.38916C12.0662 1.04385 11.8171 0.742827 11.51 0.509535C11.203 0.276242 10.8462 0.116974 10.4675 0.044131C10.0888 -0.028712 9.69838 -0.0131641 9.32667 0.0895641C8.79179 0.245543 8.32312 0.573226 7.99299 1.02204C7.66286 1.47085 7.48961 2.01584 7.5 2.5729V4.58373C7.5 4.80474 7.5878 5.01671 7.74408 5.17299C7.90036 5.32927 8.11232 5.41706 8.33333 5.41706ZM9.375 2.29206C9.375 2.16845 9.41166 2.04761 9.48033 1.94483C9.54901 1.84205 9.64662 1.76194 9.76082 1.71464C9.87503 1.66733 10.0007 1.65496 10.1219 1.67907C10.2432 1.70319 10.3545 1.76271 10.4419 1.85012C10.5293 1.93753 10.5889 2.04889 10.613 2.17013C10.6371 2.29137 10.6247 2.41704 10.5774 2.53124C10.5301 2.64545 10.45 2.74306 10.3472 2.81173C10.2445 2.88041 10.1236 2.91706 10 2.91706C9.91785 2.91706 9.83651 2.90087 9.76063 2.86941C9.68475 2.83795 9.61581 2.79184 9.55776 2.73371C9.49972 2.67559 9.4537 2.60659 9.42234 2.53066C9.39098 2.45474 9.37489 2.37338 9.375 2.29123V2.29206Z" fill="#717171"/>
<path d="M16.25 2.5H13.9583C13.9031 2.5 13.8501 2.52195 13.811 2.56102C13.7719 2.60009 13.75 2.65308 13.75 2.70833V3.95833C13.75 4.01359 13.7719 4.06658 13.811 4.10565C13.8501 4.14472 13.9031 4.16667 13.9583 4.16667H15.8333C15.9438 4.16667 16.0498 4.21057 16.1279 4.28871C16.2061 4.36685 16.25 4.47283 16.25 4.58333V15.2433C16.2501 15.2981 16.2394 15.3523 16.2185 15.4029C16.1976 15.4536 16.167 15.4996 16.1283 15.5383L13.455 18.2108C13.3769 18.2887 13.2711 18.3325 13.1608 18.3325H4.16665C4.05614 18.3325 3.95016 18.2886 3.87202 18.2105C3.79388 18.1323 3.74998 18.0263 3.74998 17.9158V4.58333C3.74998 4.47283 3.79388 4.36685 3.87202 4.28871C3.95016 4.21057 4.05614 4.16667 4.16665 4.16667H6.04165C6.0969 4.16667 6.14989 4.14472 6.18896 4.10565C6.22803 4.06658 6.24998 4.01359 6.24998 3.95833V2.70833C6.24998 2.65308 6.22803 2.60009 6.18896 2.56102C6.14989 2.52195 6.0969 2.5 6.04165 2.5H3.74998C3.30795 2.5 2.88403 2.67559 2.57147 2.98816C2.25891 3.30072 2.08331 3.72464 2.08331 4.16667V18.3333C2.08331 18.7754 2.25891 19.1993 2.57147 19.5118C2.88403 19.8244 3.30795 20 3.74998 20H16.25C16.692 20 17.1159 19.8244 17.4285 19.5118C17.7411 19.1993 17.9166 18.7754 17.9166 18.3333V4.16667C17.9166 3.72464 17.7411 3.30072 17.4285 2.98816C17.1159 2.67559 16.692 2.5 16.25 2.5Z" fill="#717171"/>
<path d="M6.25 13.333C6.08424 13.333 5.92527 13.3989 5.80806 13.5161C5.69085 13.6333 5.625 13.7922 5.625 13.958C5.625 14.1238 5.69085 14.2827 5.80806 14.4C5.92527 14.5172 6.08424 14.583 6.25 14.583H9.375C9.54076 14.583 9.69973 14.5172 9.81694 14.4C9.93415 14.2827 10 14.1238 10 13.958C10 13.7922 9.93415 13.6333 9.81694 13.5161C9.69973 13.3989 9.54076 13.333 9.375 13.333H6.25Z" fill="#717171"/>
</g>
<defs>
<clipPath id="clip0_482_83526">
<rect width="20" height="20" fill="white"/>
</clipPath>
</defs>
</svg>
