<svg width="16" height="16" viewBox="0 0 16 16" fill="none" xmlns="http://www.w3.org/2000/svg">
<path d="M15.4306 3.60034L13.5693 1.73367C13.5383 1.70263 13.5015 1.678 13.461 1.6612C13.4205 1.64439 13.3771 1.63574 13.3333 1.63574C13.2894 1.63574 13.246 1.64439 13.2055 1.6612C13.165 1.678 13.1282 1.70263 13.0973 1.73367L5.23594 9.60034C5.20498 9.63138 5.16819 9.65601 5.1277 9.67281C5.0872 9.68962 5.04379 9.69827 4.99994 9.69827C4.9561 9.69827 4.91268 9.68962 4.87219 9.67281C4.83169 9.65601 4.79491 9.63138 4.76394 9.60034L2.90261 7.73367C2.87164 7.70263 2.83486 7.678 2.79436 7.6612C2.75387 7.64439 2.71045 7.63574 2.66661 7.63574C2.62276 7.63574 2.57935 7.64439 2.53885 7.6612C2.49836 7.678 2.46157 7.70263 2.43061 7.73367L0.569275 9.60034C0.506785 9.66285 0.47168 9.74762 0.47168 9.836C0.47168 9.92439 0.506785 10.0092 0.569275 10.0717L4.76394 14.267C4.79491 14.298 4.83169 14.3227 4.87219 14.3395C4.91268 14.3563 4.9561 14.3649 4.99994 14.3649C5.04379 14.3649 5.0872 14.3563 5.1277 14.3395C5.16819 14.3227 5.20498 14.298 5.23594 14.267L15.4306 4.067C15.4917 4.00469 15.5259 3.92092 15.5259 3.83367C15.5259 3.74642 15.4917 3.66265 15.4306 3.60034Z" fill="#222222"/>
</svg>
