<svg width="16" height="16" viewBox="0 0 16 16" fill="none" xmlns="http://www.w3.org/2000/svg">
<g clip-path="url(#clip0_815_100999)">
<path d="M11.6666 7.3331C10.8095 7.3331 9.97173 7.58725 9.25911 8.0634C8.5465 8.53955 7.99109 9.21633 7.66311 10.0081C7.33513 10.8 7.24931 11.6712 7.41652 12.5118C7.58372 13.3524 7.99643 14.1245 8.60246 14.7306C9.20848 15.3366 9.98061 15.7493 10.8212 15.9165C11.6618 16.0837 12.5331 15.9979 13.3249 15.6699C14.1167 15.3419 14.7935 14.7865 15.2696 14.0739C15.7458 13.3613 15.9999 12.5235 15.9999 11.6664C15.9985 10.5176 15.5415 9.41621 14.7292 8.60386C13.9168 7.79151 12.8154 7.33451 11.6666 7.3331ZM13.6666 10.3838L11.7333 12.9664C11.6472 13.0811 11.5374 13.1759 11.4115 13.2444C11.2855 13.3129 11.1463 13.3535 11.0033 13.3635C10.8603 13.3735 10.7168 13.3526 10.5825 13.3023C10.4483 13.2519 10.3264 13.1733 10.2253 13.0718L9.22525 12.0718C9.17613 12.026 9.13673 11.9708 9.1094 11.9095C9.08207 11.8481 9.06738 11.7819 9.06619 11.7148C9.06501 11.6476 9.07736 11.581 9.1025 11.5187C9.12765 11.4564 9.16508 11.3999 9.21256 11.3524C9.26004 11.3049 9.3166 11.2675 9.37885 11.2424C9.44111 11.2172 9.5078 11.2049 9.57493 11.206C9.64207 11.2072 9.70828 11.2219 9.76961 11.2492C9.83094 11.2766 9.88614 11.316 9.93192 11.3651L10.7986 12.2318C10.8154 12.2488 10.8356 12.2619 10.858 12.2703C10.8803 12.2787 10.9042 12.2822 10.9281 12.2805C10.9519 12.2788 10.9751 12.2719 10.996 12.2604C11.0169 12.2489 11.0351 12.233 11.0493 12.2138L12.8706 9.7851C12.91 9.73257 12.9593 9.68832 13.0158 9.65486C13.0723 9.62141 13.1349 9.59941 13.1999 9.59013C13.2649 9.58084 13.3311 9.58445 13.3947 9.60074C13.4583 9.61704 13.5181 9.6457 13.5706 9.6851C13.6231 9.7245 13.6674 9.77385 13.7008 9.83035C13.7343 9.88685 13.7563 9.94939 13.7656 10.0144C13.7748 10.0794 13.7712 10.1456 13.7549 10.2092C13.7386 10.2728 13.71 10.3326 13.6706 10.3851L13.6666 10.3838ZM3.33325 6.83243H7.66659C7.79919 6.83243 7.92637 6.77976 8.02014 6.68599C8.11391 6.59222 8.16659 6.46504 8.16659 6.33243C8.16659 6.19983 8.11391 6.07265 8.02014 5.97888C7.92637 5.88511 7.79919 5.83243 7.66659 5.83243H3.33325C3.20064 5.83243 3.07347 5.88511 2.9797 5.97888C2.88593 6.07265 2.83325 6.19983 2.83325 6.33243C2.83325 6.46504 2.88593 6.59222 2.9797 6.68599C3.07347 6.77976 3.20064 6.83243 3.33325 6.83243ZM3.33325 9.16577H5.33325C5.46586 9.16577 5.59304 9.11309 5.68681 9.01932C5.78057 8.92555 5.83325 8.79838 5.83325 8.66577C5.83325 8.53316 5.78057 8.40598 5.68681 8.31221C5.59304 8.21844 5.46586 8.16577 5.33325 8.16577H3.33325C3.20064 8.16577 3.07347 8.21844 2.9797 8.31221C2.88593 8.40598 2.83325 8.53316 2.83325 8.66577C2.83325 8.79838 2.88593 8.92555 2.9797 9.01932C3.07347 9.11309 3.20064 9.16577 3.33325 9.16577ZM3.33325 11.4998H5.16659C5.29919 11.4998 5.42637 11.4471 5.52014 11.3533C5.61391 11.2596 5.66659 11.1324 5.66659 10.9998C5.66659 10.8672 5.61391 10.74 5.52014 10.6462C5.42637 10.5524 5.29919 10.4998 5.16659 10.4998H3.33325C3.20064 10.4998 3.07347 10.5524 2.9797 10.6462C2.88593 10.74 2.83325 10.8672 2.83325 10.9998C2.83325 11.1324 2.88593 11.2596 2.9797 11.3533C3.07347 11.4471 3.20064 11.4998 3.33325 11.4998ZM3.49992 4.16577H9.16659C9.21067 4.16577 9.25296 4.1483 9.2842 4.11719C9.31544 4.08608 9.33308 4.04385 9.33325 3.99977V1.99977C9.33308 1.95562 9.31546 1.91333 9.28424 1.88211C9.25302 1.85089 9.21073 1.83328 9.16659 1.8331H7.99992V1.66643C7.99911 1.40911 7.93894 1.15544 7.82409 0.925163C7.70925 0.694887 7.54282 0.494214 7.33776 0.338757C7.1327 0.1833 6.89453 0.0772517 6.6418 0.028863C6.38906 -0.0195258 6.12857 -0.0089501 5.88059 0.0597673C5.52443 0.16697 5.21307 0.387629 4.99391 0.688142C4.77476 0.988656 4.65981 1.35256 4.66659 1.72443V1.83243H3.49992C3.45565 1.83261 3.41326 1.85032 3.38203 1.88168C3.35079 1.91304 3.33325 1.9555 3.33325 1.99977V3.99977C3.33343 4.04385 3.35107 4.08608 3.3823 4.11719C3.41354 4.1483 3.45583 4.16577 3.49992 4.16577ZM6.33325 0.999767C6.43214 0.999767 6.52881 1.02909 6.61104 1.08403C6.69326 1.13897 6.75735 1.21706 6.79519 1.30843C6.83304 1.39979 6.84294 1.50032 6.82364 1.59731C6.80435 1.6943 6.75673 1.78339 6.68681 1.85332C6.61688 1.92325 6.52779 1.97087 6.4308 1.99016C6.33381 2.00945 6.23327 1.99955 6.14191 1.96171C6.05055 1.92386 5.97246 1.85978 5.91752 1.77755C5.86258 1.69533 5.83325 1.59866 5.83325 1.49977C5.83325 1.36716 5.88593 1.23998 5.9797 1.14621C6.07347 1.05245 6.20064 0.999767 6.33325 0.999767Z" fill="#484848"/>
<path d="M7.30667 14.7367C7.29153 14.7153 7.27158 14.6978 7.24842 14.6855C7.22526 14.6732 7.19954 14.6665 7.17333 14.666H1.66667C1.57826 14.666 1.49348 14.6309 1.43096 14.5684C1.36845 14.5059 1.33333 14.4211 1.33333 14.3327V3.49936C1.33333 3.41096 1.36845 3.32617 1.43096 3.26366C1.49348 3.20115 1.57826 3.16603 1.66667 3.16603H2.16667C2.21075 3.16603 2.25305 3.14856 2.28428 3.11745C2.31552 3.08634 2.33316 3.04412 2.33333 3.00003V2.00003C2.33316 1.95588 2.31554 1.91359 2.28432 1.88237C2.25311 1.85116 2.21082 1.83354 2.16667 1.83336H1.33333C0.979711 1.83336 0.640573 1.97384 0.390524 2.22389C0.140476 2.47394 0 2.81308 0 3.1667L0 14.6667C0 15.0203 0.140476 15.3595 0.390524 15.6095C0.640573 15.8596 0.979711 16 1.33333 16H8.08333C8.11738 16 8.15058 15.9895 8.17849 15.97C8.20639 15.9505 8.22765 15.9229 8.23942 15.8909C8.25118 15.859 8.25288 15.8242 8.24428 15.7913C8.23568 15.7583 8.21721 15.7288 8.19133 15.7067C7.85762 15.421 7.56048 15.0952 7.30667 14.7367ZM12.474 6.40003C12.4981 6.40372 12.5226 6.40211 12.546 6.39533C12.5694 6.38855 12.591 6.37674 12.6093 6.36075C12.6277 6.34476 12.6423 6.32495 12.6522 6.30272C12.6621 6.28049 12.667 6.25636 12.6667 6.23203V3.16536C12.6667 2.81174 12.5262 2.4726 12.2761 2.22256C12.0261 1.97251 11.687 1.83203 11.3333 1.83203H10.5C10.478 1.83212 10.4563 1.83653 10.436 1.84502C10.4157 1.85351 10.3973 1.86591 10.3819 1.88151C10.3664 1.89711 10.3541 1.91561 10.3458 1.93594C10.3375 1.95628 10.3332 1.97806 10.3333 2.00003V3.00003C10.3333 3.04423 10.3509 3.08663 10.3821 3.11788C10.4134 3.14914 10.4558 3.1667 10.5 3.1667H11C11.0884 3.1667 11.1732 3.20182 11.2357 3.26433C11.2982 3.32684 11.3333 3.41163 11.3333 3.50003V6.17136C11.3333 6.19406 11.3379 6.21652 11.3469 6.23738C11.3558 6.25823 11.3689 6.27704 11.3854 6.29264C11.4019 6.30825 11.4214 6.32032 11.4427 6.32813C11.464 6.33593 11.4867 6.3393 11.5093 6.33803C11.562 6.33803 11.614 6.3327 11.6667 6.3327C11.9371 6.33411 12.2071 6.35663 12.474 6.40003Z" fill="#484848"/>
</g>
<defs>
<clipPath id="clip0_815_100999">
<rect width="16" height="16" fill="white"/>
</clipPath>
</defs>
</svg>
