<svg
	width="16"
	height="16"
	viewBox="0 0 16 16"
	fill="none"
	xmlns="http://www.w3.org/2000/svg"
>
	<g clip-path="url(#clip0_581_90263)">
		<path
			d="M7.99992 15.6663C9.51624 15.6663 10.9985 15.2167 12.2593 14.3743C13.5201 13.5319 14.5027 12.3345 15.083 10.9336C15.6633 9.53268 15.8151 7.99117 15.5193 6.50398C15.2235 5.0168 14.4933 3.65073 13.4211 2.57853C12.3489 1.50632 10.9828 0.776144 9.49561 0.480324C8.00842 0.184504 6.46691 0.33633 5.06601 0.916601C3.66511 1.49687 2.46774 2.47953 1.62532 3.74031C0.782894 5.00108 0.333252 6.48335 0.333252 7.99968C0.335546 10.0323 1.14402 11.981 2.5813 13.4183C4.01858 14.8556 5.9673 15.6641 7.99992 15.6663ZM4.69992 5.64301C4.63625 5.58151 4.58546 5.50795 4.55052 5.42661C4.51558 5.34528 4.49719 5.2578 4.49642 5.16928C4.49565 5.08076 4.51252 4.99297 4.54604 4.91104C4.57956 4.82911 4.62906 4.75468 4.69166 4.69208C4.75425 4.62949 4.82869 4.57998 4.91062 4.54646C4.99255 4.51294 5.08033 4.49607 5.16885 4.49684C5.25737 4.49761 5.34485 4.516 5.42619 4.55094C5.50752 4.58588 5.58109 4.63667 5.64259 4.70034L7.88192 6.93968C7.91316 6.97082 7.95547 6.98831 7.99959 6.98831C8.0437 6.98831 8.08601 6.97082 8.11725 6.93968L10.3566 4.70034C10.4181 4.63667 10.4916 4.58588 10.573 4.55094C10.6543 4.516 10.7418 4.49761 10.8303 4.49684C10.9188 4.49607 11.0066 4.51294 11.0886 4.54646C11.1705 4.57998 11.2449 4.62949 11.3075 4.69208C11.3701 4.75468 11.4196 4.82911 11.4531 4.91104C11.4867 4.99297 11.5035 5.08076 11.5028 5.16928C11.502 5.2578 11.4836 5.34528 11.4487 5.42661C11.4137 5.50795 11.3629 5.58151 11.2993 5.64301L9.05992 7.88234C9.02878 7.91359 9.01129 7.9559 9.01129 8.00001C9.01129 8.04412 9.02878 8.08644 9.05992 8.11768L11.2993 10.357C11.3629 10.4185 11.4137 10.4921 11.4487 10.5734C11.4836 10.6547 11.502 10.7422 11.5028 10.8307C11.5035 10.9193 11.4867 11.007 11.4531 11.089C11.4196 11.1709 11.3701 11.2453 11.3075 11.3079C11.2449 11.3705 11.1705 11.42 11.0886 11.4536C11.0066 11.4871 10.9188 11.5039 10.8303 11.5032C10.7418 11.5024 10.6543 11.484 10.573 11.4491C10.4916 11.4141 10.4181 11.3634 10.3566 11.2997L8.11725 9.06034C8.08601 9.0292 8.0437 9.01171 7.99959 9.01171C7.95547 9.01171 7.91316 9.0292 7.88192 9.06034L5.64259 11.2997C5.51685 11.4211 5.34845 11.4883 5.17365 11.4868C4.99885 11.4853 4.83165 11.4152 4.70804 11.2916C4.58443 11.168 4.51432 11.0007 4.5128 10.8259C4.51128 10.6511 4.57848 10.4827 4.69992 10.357L6.93925 8.11768C6.9704 8.08644 6.98788 8.04412 6.98788 8.00001C6.98788 7.9559 6.9704 7.91359 6.93925 7.88234L4.69992 5.64301Z"
			fill="#717171"
		/>
	</g>
	<defs>
		<clipPath id="clip0_581_90263">
			<rect width="16" height="16" fill="white" />
		</clipPath>
	</defs>
</svg>
