<svg width="16" height="16" viewBox="0 0 16 16" fill="none" xmlns="http://www.w3.org/2000/svg">
<path d="M15.7409 0.149952C15.6346 0.0664033 15.5062 0.0156114 15.3715 0.0037733C15.2368 -0.00806475 15.1016 0.0195629 14.9823 0.0832855L0.551326 7.76395C0.377531 7.85487 0.233266 7.99346 0.13545 8.16347C0.0376346 8.33348 -0.0096741 8.52785 -0.000926723 8.7238C0.00782065 8.91975 0.0722613 9.10914 0.184836 9.26975C0.297412 9.43037 0.453453 9.55555 0.634657 9.63062L2.80393 10.5506C2.80392 10.6063 2.81363 10.6616 2.8326 10.714L4.49922 15.2113C4.58587 15.444 4.74195 15.6445 4.94634 15.7856C5.15072 15.9266 5.39352 16.0015 5.64185 16C5.94222 15.9973 6.23126 15.8849 6.4545 15.684C6.4805 15.6606 8.31445 13.632 8.7211 13.1813C8.74431 13.1556 8.77497 13.1378 8.80881 13.1304C8.84264 13.1229 8.87794 13.1263 8.90977 13.14L11.0144 14.0326C11.152 14.0908 11.3003 14.1193 11.4496 14.1162C11.599 14.1131 11.746 14.0785 11.881 14.0146C12.0151 13.9513 12.1341 13.8601 12.2301 13.747C12.3261 13.634 12.3969 13.5018 12.4377 13.3593L15.9736 0.866619C16.0103 0.737559 16.0078 0.600489 15.9664 0.472863C15.9249 0.345237 15.8464 0.232829 15.7409 0.149952ZM3.8919 10.6973L10.3531 5.32195C10.368 5.30683 10.3859 5.29503 10.4057 5.28732C10.4255 5.27962 10.4467 5.27619 10.4679 5.27726C10.4891 5.27833 10.5099 5.28388 10.5288 5.29353C10.5477 5.30319 10.5644 5.31674 10.5777 5.33329C10.5945 5.34606 10.6083 5.3623 10.6181 5.3809C10.628 5.3995 10.6337 5.42001 10.635 5.44104C10.6362 5.46207 10.6328 5.4831 10.6251 5.50271C10.6174 5.52231 10.6056 5.54002 10.5904 5.55462L5.76518 11.458C5.70996 11.5252 5.67381 11.606 5.66052 11.692L5.23853 14.3253L3.8919 10.6973Z" fill="url(#paint0_linear_2685_2393)"/>
<defs>
<linearGradient id="paint0_linear_2685_2393" x1="7.99872" y1="0.00109863" x2="7.99872" y2="16" gradientUnits="userSpaceOnUse">
<stop stop-color="white"/>
<stop offset="1" stop-color="white" stop-opacity="0.8"/>
</linearGradient>
</defs>
</svg>
