<svg width="16" height="16" viewBox="0 0 16 16" fill="none" xmlns="http://www.w3.org/2000/svg">
<g clip-path="url(#clip0_446_5332)">
<path d="M8.41261 5.60795C8.41243 5.47669 8.36017 5.35087 8.26729 5.25813C8.17442 5.16538 8.04853 5.11328 7.91728 5.11328H3.95861C3.83047 5.11798 3.70915 5.17219 3.62016 5.26451C3.53117 5.35683 3.48145 5.48006 3.48145 5.60828C3.48145 5.73651 3.53117 5.85973 3.62016 5.95205C3.70915 6.04437 3.83047 6.09858 3.95861 6.10328H7.91728C8.04865 6.10328 8.17464 6.05109 8.26753 5.9582C8.36042 5.86531 8.41261 5.73932 8.41261 5.60795Z" fill="url(#paint0_linear_446_5332)"/>
<path d="M6.39067 12.6665C6.38413 12.6294 6.36482 12.5958 6.33609 12.5714C6.30735 12.5471 6.271 12.5335 6.23333 12.5332H2.30933C2.22093 12.5332 2.13614 12.4981 2.07363 12.4355C2.01112 12.373 1.976 12.2883 1.976 12.1998V3.62851C1.97688 3.54068 2.01238 3.45675 2.0748 3.39496C2.13722 3.33317 2.2215 3.29851 2.30933 3.29851H9.56733C9.65447 3.29955 9.73773 3.33468 9.79929 3.39636C9.86085 3.45804 9.8958 3.54137 9.89667 3.62851V6.32118C9.89633 6.34562 9.9015 6.36982 9.9118 6.39198C9.92209 6.41414 9.93725 6.4337 9.95615 6.4492C9.97504 6.46471 9.99719 6.47575 10.0209 6.48152C10.0447 6.48728 10.0694 6.48762 10.0933 6.48251C10.6312 6.38114 11.1753 6.31654 11.722 6.28918C11.7639 6.28678 11.8033 6.26834 11.832 6.23768C11.8606 6.20702 11.8764 6.16649 11.876 6.12451V2.30918C11.8761 2.1792 11.8506 2.05048 11.8009 1.93037C11.7512 1.81026 11.6783 1.70112 11.5865 1.60918C11.4946 1.51724 11.3855 1.44431 11.2654 1.39455C11.1453 1.34479 11.0166 1.31918 10.8867 1.31918H8.24867C8.22094 1.31905 8.19373 1.31165 8.16975 1.29774C8.14578 1.28382 8.12586 1.26386 8.112 1.23984C7.88863 0.862143 7.5707 0.549164 7.18954 0.331752C6.80838 0.11434 6.37714 0 5.93833 0C5.49953 0 5.06829 0.11434 4.68713 0.331752C4.30597 0.549164 3.98804 0.862143 3.76467 1.23984C3.75075 1.26381 3.73083 1.28373 3.70686 1.29765C3.68289 1.31156 3.65571 1.31898 3.628 1.31918H0.99C0.727436 1.31918 0.475625 1.42348 0.289964 1.60914C0.104303 1.7948 0 2.04661 0 2.30918L0 13.5258C0.000176733 13.7883 0.104558 14.0399 0.2902 14.2255C0.475842 14.411 0.727551 14.5152 0.99 14.5152H6.888C6.91716 14.5152 6.94578 14.5074 6.97088 14.4925C6.99598 14.4777 7.01663 14.4564 7.03067 14.4308C7.04471 14.4053 7.05162 14.3764 7.05068 14.3473C7.04974 14.3181 7.04099 14.2898 7.02533 14.2652C6.72702 13.771 6.51257 13.2308 6.39067 12.6665V12.6665Z" fill="url(#paint1_linear_446_5332)"/>
<path d="M7.35678 8.34885C7.5473 8.0983 7.75945 7.86496 7.99078 7.65152C8.04744 7.59885 8.00944 7.42285 7.91744 7.42285H3.95878C3.83064 7.42755 3.70932 7.48177 3.62033 7.57408C3.53134 7.6664 3.48161 7.78963 3.48161 7.91785C3.48161 8.04608 3.53134 8.16931 3.62033 8.26162C3.70932 8.35394 3.83064 8.40815 3.95878 8.41285H7.23011C7.25474 8.41275 7.27901 8.40691 7.301 8.3958C7.32298 8.38469 7.34208 8.36862 7.35678 8.34885ZM3.95878 9.73352C3.82758 9.73352 3.70176 9.78563 3.609 9.8784C3.51623 9.97117 3.46411 10.097 3.46411 10.2282C3.46411 10.3594 3.51623 10.4852 3.609 10.578C3.70176 10.6707 3.82758 10.7229 3.95878 10.7229H6.20544C6.2431 10.7227 6.2795 10.7093 6.30818 10.6849C6.33686 10.6605 6.35597 10.6267 6.36211 10.5895C6.40301 10.3649 6.45891 10.1433 6.52944 9.92619C6.55078 9.85952 6.56611 9.73285 6.44344 9.73285L3.95878 9.73352Z" fill="url(#paint2_linear_446_5332)"/>
<path fill-rule="evenodd" clip-rule="evenodd" d="M14.0741 15.2699C13.3614 15.746 12.5236 16.0002 11.6666 16.0002C10.5177 15.9988 9.41632 15.5418 8.60396 14.7295C7.79159 13.9171 7.33461 12.8157 7.33325 11.6668C7.33325 10.8098 7.5874 9.97197 8.06355 9.25936C8.5397 8.54675 9.21648 7.99133 10.0083 7.66335C10.8001 7.33537 11.6714 7.24956 12.512 7.41676C13.3526 7.58396 14.1247 7.99667 14.7307 8.6027C15.3367 9.20873 15.7495 9.98086 15.9167 10.8214C16.0839 11.662 15.998 12.5333 15.6701 13.3251C15.3421 14.1169 14.7867 14.7937 14.0741 15.2699ZM13.721 12.1533H11.9374C11.7937 12.1533 11.656 12.0963 11.5544 11.9947C11.4528 11.8931 11.3957 11.7553 11.3957 11.6117V8.95876C11.3957 8.8151 11.4528 8.67733 11.5544 8.57575C11.656 8.47416 11.7937 8.4171 11.9374 8.4171C12.081 8.4171 12.2188 8.47416 12.3204 8.57575C12.422 8.67733 12.4791 8.8151 12.4791 8.95876V10.9617C12.4771 10.9755 12.4783 10.9896 12.4824 11.0029C12.4866 11.0163 12.4936 11.0286 12.503 11.0389C12.5124 11.0492 12.5239 11.0574 12.5368 11.0628C12.5497 11.0681 12.5637 11.0706 12.5776 11.07H13.721C13.8647 11.07 14.0025 11.1271 14.1041 11.2286C14.2056 11.3302 14.2627 11.468 14.2627 11.6117C14.2627 11.7553 14.2056 11.8931 14.1041 11.9947C14.0025 12.0963 13.8647 12.1533 13.721 12.1533Z" fill="url(#paint3_linear_446_5332)"/>
</g>
<defs>
<linearGradient id="paint0_linear_446_5332" x1="5.94703" y1="5.11328" x2="5.94703" y2="6.10328" gradientUnits="userSpaceOnUse">
<stop stop-color="white"/>
<stop offset="1" stop-color="white" stop-opacity="0.8"/>
</linearGradient>
<linearGradient id="paint1_linear_446_5332" x1="5.938" y1="0" x2="5.938" y2="14.5152" gradientUnits="userSpaceOnUse">
<stop stop-color="white"/>
<stop offset="1" stop-color="white" stop-opacity="0.8"/>
</linearGradient>
<linearGradient id="paint2_linear_446_5332" x1="5.74077" y1="7.42285" x2="5.74077" y2="10.7229" gradientUnits="userSpaceOnUse">
<stop stop-color="white"/>
<stop offset="1" stop-color="white" stop-opacity="0.8"/>
</linearGradient>
<linearGradient id="paint3_linear_446_5332" x1="11.6666" y1="7.3335" x2="11.6666" y2="16.0002" gradientUnits="userSpaceOnUse">
<stop stop-color="white"/>
<stop offset="1" stop-color="white" stop-opacity="0.8"/>
</linearGradient>
<clipPath id="clip0_446_5332">
<rect width="16" height="16" fill="white"/>
</clipPath>
</defs>
</svg>
