<svg width="16" height="16" viewBox="0 0 16 16" fill="none" xmlns="http://www.w3.org/2000/svg">
    <path d="M2.16067 4H13.8393C13.8919 3.99996 13.9438 3.98747 13.9907 3.96355C14.0375 3.93962 14.078 3.90495 14.1089 3.86236C14.1398 3.81977 14.1602 3.77047 14.1684 3.7185C14.1765 3.66652 14.1723 3.61335 14.156 3.56333C13.4667 1.46667 10.9387 0 8 0C5.06133 0 2.53333 1.46667 1.844 3.56333C1.82769 3.61335 1.82345 3.66652 1.83163 3.7185C1.83981 3.77047 1.86018 3.81977 1.89107 3.86236C1.92195 3.90495 1.96248 3.93962 2.00934 3.96355C2.0562 3.98747 2.10805 3.99996 2.16067 4ZM15.5 16C15.6326 16 15.7598 15.9473 15.8536 15.8536C15.9473 15.7598 16 15.6326 16 15.5C16 15.3674 15.9473 15.2402 15.8536 15.1464C15.7598 15.0527 15.6326 15 15.5 15H15.1773C15.1197 15 15.0631 14.9851 15.013 14.9567C14.9629 14.9283 14.9209 14.8874 14.8913 14.838L14.286 13.8287C14.2564 13.7793 14.2145 13.7384 14.1644 13.71C14.1142 13.6816 14.0576 13.6667 14 13.6667H2C1.94239 13.6667 1.88577 13.6816 1.83564 13.71C1.78552 13.7384 1.74361 13.7793 1.714 13.8287L1.10867 14.838C1.07906 14.8874 1.03715 14.9283 0.987023 14.9567C0.936899 14.9851 0.880273 15 0.822667 15H0.5C0.367392 15 0.240215 15.0527 0.146447 15.1464C0.0526784 15.2402 0 15.3674 0 15.5C0 15.6326 0.0526784 15.7598 0.146447 15.8536C0.240215 15.9473 0.367392 16 0.5 16H15.5Z" fill="url(#paint0_linear)"/>
    <path d="M3.66667 8H2.33333C2.14924 8 2 8.14924 2 8.33333V12.6667C2 12.8508 2.14924 13 2.33333 13H3.66667C3.85076 13 4 12.8508 4 12.6667V8.33333C4 8.14924 3.85076 8 3.66667 8Z" fill="url(#paint1_linear)"/>
    <path d="M7.00001 8H5.66668C5.48258 8 5.33334 8.14924 5.33334 8.33333V12.6667C5.33334 12.8508 5.48258 13 5.66668 13H7.00001C7.18411 13 7.33334 12.8508 7.33334 12.6667V8.33333C7.33334 8.14924 7.18411 8 7.00001 8Z" fill="url(#paint2_linear)"/>
    <path d="M10.3333 8H9.00001C8.81591 8 8.66667 8.14924 8.66667 8.33333V12.6667C8.66667 12.8508 8.81591 13 9.00001 13H10.3333C10.5174 13 10.6667 12.8508 10.6667 12.6667V8.33333C10.6667 8.14924 10.5174 8 10.3333 8Z" fill="url(#paint3_linear)"/>
    <path d="M13.6667 8H12.3333C12.1492 8 12 8.14924 12 8.33333V12.6667C12 12.8508 12.1492 13 12.3333 13H13.6667C13.8508 13 14 12.8508 14 12.6667V8.33333C14 8.14924 13.8508 8 13.6667 8Z" fill="url(#paint4_linear)"/>
    <path d="M1.27466 6.87801C1.31898 7.01058 1.40383 7.12587 1.51725 7.20758C1.63066 7.28928 1.76688 7.33328 1.90666 7.33334H14.0933C14.2333 7.33337 14.3697 7.28935 14.4833 7.2075C14.5969 7.12565 14.6818 7.01014 14.726 6.87734L15.17 5.54401C15.2034 5.44384 15.2125 5.33718 15.1965 5.23281C15.1806 5.12843 15.1401 5.02934 15.0784 4.94367C15.0167 4.85801 14.9355 4.78822 14.8416 4.74006C14.7476 4.69191 14.6436 4.66675 14.538 4.66667H1.462C1.35642 4.66675 1.25237 4.69191 1.15841 4.74006C1.06446 4.78822 0.983285 4.85801 0.921575 4.94367C0.859864 5.02934 0.819382 5.12843 0.803461 5.23281C0.78754 5.33718 0.796635 5.44384 0.829998 5.54401L1.27466 6.87801Z" fill="url(#paint5_linear)"/>
    <defs>
        <linearGradient id="paint0_linear" x1="8" y1="0" x2="8" y2="16" gradientUnits="userSpaceOnUse">
            <stop stop-color="white"/>
            <stop offset="1" stop-color="white" stop-opacity="0.8"/>
        </linearGradient>
        <linearGradient id="paint1_linear" x1="3" y1="8" x2="3" y2="13" gradientUnits="userSpaceOnUse">
            <stop stop-color="white"/>
            <stop offset="1" stop-color="white" stop-opacity="0.8"/>
        </linearGradient>
        <linearGradient id="paint2_linear" x1="6.33334" y1="8" x2="6.33334" y2="13" gradientUnits="userSpaceOnUse">
            <stop stop-color="white"/>
            <stop offset="1" stop-color="white" stop-opacity="0.8"/>
        </linearGradient>
        <linearGradient id="paint3_linear" x1="9.66667" y1="8" x2="9.66667" y2="13" gradientUnits="userSpaceOnUse">
            <stop stop-color="white"/>
            <stop offset="1" stop-color="white" stop-opacity="0.8"/>
        </linearGradient>
        <linearGradient id="paint4_linear" x1="13" y1="8" x2="13" y2="13" gradientUnits="userSpaceOnUse">
            <stop stop-color="white"/>
            <stop offset="1" stop-color="white" stop-opacity="0.8"/>
        </linearGradient>
        <linearGradient id="paint5_linear" x1="8" y1="4.66667" x2="8" y2="7.33334" gradientUnits="userSpaceOnUse">
            <stop stop-color="white"/>
            <stop offset="1" stop-color="white" stop-opacity="0.8"/>
        </linearGradient>
    </defs>
</svg>
