<svg width="16" height="16" viewBox="0 0 16 16" fill="none" xmlns="http://www.w3.org/2000/svg">
<path d="M13.3333 12.8333C13.3333 12.9218 13.3684 13.0065 13.4309 13.069C13.4934 13.1316 13.5782 13.1667 13.6666 13.1667H15.5473C15.6019 13.1666 15.6556 13.1532 15.7038 13.1275C15.752 13.1019 15.7931 13.0647 15.8236 13.0194C15.8541 12.9742 15.873 12.9221 15.8786 12.8678C15.8843 12.8135 15.8765 12.7586 15.8559 12.708C15.6581 12.2137 15.3309 11.7817 14.9087 11.4573C14.4864 11.133 13.9846 10.9283 13.4559 10.8647C13.4006 10.858 13.3446 10.8653 13.2928 10.8859C13.241 10.9065 13.1953 10.9397 13.1597 10.9825C13.1241 11.0254 13.0998 11.0764 13.089 11.1311C13.0782 11.1857 13.0813 11.2422 13.0979 11.2953C13.2539 11.7931 13.3333 12.3117 13.3333 12.8333ZM3.24461 11.2667C3.26066 11.2167 3.2647 11.1637 3.2564 11.1119C3.24809 11.0601 3.22768 11.011 3.19683 10.9686C3.16597 10.9262 3.12553 10.8916 3.07881 10.8678C3.03209 10.8439 2.9804 10.8315 2.92794 10.8313H2.91994C2.32275 10.8316 1.73929 11.0106 1.2446 11.3451C0.749908 11.6797 0.366593 12.1545 0.143942 12.7087C0.123533 12.7593 0.115861 12.8141 0.121599 12.8684C0.127338 12.9227 0.146311 12.9747 0.176853 13.0199C0.207395 13.0651 0.248572 13.1022 0.296768 13.1278C0.344964 13.1533 0.398706 13.1667 0.453275 13.1667H2.66661C2.75501 13.1667 2.8398 13.1316 2.90231 13.069C2.96482 13.0065 2.99994 12.9218 2.99994 12.8333C2.9997 12.3016 3.08224 11.773 3.24461 11.2667Z" fill="white"/>
<path d="M6.55333 8.70534C6.57928 8.72124 6.60037 8.74394 6.61433 8.77098C6.62829 8.79802 6.63458 8.82836 6.63252 8.85872C6.63046 8.88908 6.62013 8.9183 6.60265 8.9432C6.58516 8.96811 6.56119 8.98775 6.53333 9C5.78214 9.32075 5.14164 9.85498 4.69129 10.5364C4.24095 11.2179 4.00058 12.0165 4 12.8333C4 12.9217 4.03512 13.0065 4.09763 13.069C4.16014 13.1315 4.24493 13.1667 4.33333 13.1667H12C12.0884 13.1667 12.1732 13.1315 12.2357 13.069C12.2982 13.0065 12.3333 12.9217 12.3333 12.8333C12.332 12.0153 12.09 11.2157 11.6377 10.5342C11.1854 9.85257 10.5426 9.31905 9.78933 9C9.76117 8.98778 9.73691 8.96804 9.71921 8.94295C9.70152 8.91786 9.69107 8.88839 9.689 8.85776C9.68694 8.82713 9.69334 8.79652 9.70751 8.76928C9.72168 8.74204 9.74307 8.71923 9.76933 8.70333C10.3639 8.35015 10.826 7.8114 11.0846 7.16994C11.3431 6.52849 11.3837 5.81986 11.2001 5.15307C11.0166 4.48628 10.6191 3.89827 10.0687 3.47947C9.51834 3.06067 8.84562 2.83429 8.15403 2.83515C7.46244 2.83601 6.79029 3.06406 6.24097 3.48423C5.69165 3.90439 5.29558 4.4934 5.1137 5.16064C4.93182 5.82789 4.97419 6.53641 5.2343 7.17722C5.49441 7.81803 5.95785 8.35563 6.55333 8.70734V8.70534Z" fill="white"/>
<path d="M13.08 10.1667C13.4628 10.169 13.8368 10.0522 14.1502 9.83246C14.4637 9.6127 14.701 9.30087 14.8293 8.94021C14.9575 8.57954 14.9704 8.1879 14.8662 7.81958C14.7619 7.45125 14.5456 7.12449 14.2473 6.88458C13.949 6.64468 13.5835 6.50351 13.2014 6.48066C12.8193 6.45781 12.4395 6.5544 12.1147 6.75705C11.79 6.95969 11.5363 7.25835 11.3889 7.61163C11.2414 7.9649 11.2076 8.35529 11.292 8.72867C11.3855 9.13416 11.6127 9.49641 11.937 9.75721C12.2613 10.018 12.6638 10.1622 13.08 10.1667Z" fill="white"/>
<path d="M2.91988 10.1667C3.9324 10.1667 4.75321 9.34586 4.75321 8.33333C4.75321 7.32081 3.9324 6.5 2.91988 6.5C1.90736 6.5 1.08655 7.32081 1.08655 8.33333C1.08655 9.34586 1.90736 10.1667 2.91988 10.1667Z" fill="white"/>
</svg>
