<svg width="16" height="16" viewBox="0 0 16 16" fill="none" xmlns="http://www.w3.org/2000/svg">
    <path d="M1.90702 13.1695C1.93358 13.2008 1.94815 13.2406 1.94815 13.2817C1.94815 13.3228 1.93358 13.3626 1.90702 13.3939L1.59486 13.7644C1.53737 13.8308 1.49895 13.9116 1.4837 13.9981C1.46844 14.0847 1.47691 14.1737 1.50821 14.2558C1.53951 14.3379 1.59247 14.41 1.66146 14.4644C1.73045 14.5189 1.81291 14.5536 1.90006 14.565L3.89537 14.8492C3.97058 14.8815 4.05131 14.8989 4.13314 14.9006C4.15539 14.9006 4.17694 14.8951 4.20266 14.893L4.34518 14.9131C4.36824 14.9161 4.39146 14.9177 4.41471 14.918C4.49214 14.9186 4.5686 14.9008 4.63775 14.866C4.7069 14.8311 4.76674 14.7803 4.81229 14.7177C4.85784 14.6551 4.88779 14.5826 4.89966 14.5061C4.91152 14.4296 4.90496 14.3514 4.88051 14.2779L4.12062 11.9318C4.09473 11.8477 4.04654 11.7723 3.98119 11.7135C3.91583 11.6547 3.83576 11.6147 3.74947 11.5977C3.66318 11.5807 3.57391 11.5875 3.49114 11.6172C3.40837 11.6468 3.3352 11.6984 3.2794 11.7664L2.99227 12.1069C2.9755 12.1268 2.95453 12.1429 2.93085 12.1538C2.90718 12.1647 2.88138 12.1703 2.85531 12.1701C2.82917 12.1693 2.80356 12.1626 2.78034 12.1506C2.75712 12.1386 2.73689 12.1215 2.72113 12.1006C1.95005 11.1126 1.47234 9.92784 1.34251 8.68148C1.21269 7.43511 1.43597 6.17737 1.98689 5.05177C2.5378 3.92616 3.39416 2.97803 4.45825 2.31556C5.52233 1.65309 6.75128 1.30296 8.00487 1.30514C8.48085 1.30536 8.9555 1.35544 9.42105 1.45455C9.50591 1.47527 9.59408 1.47875 9.68031 1.46478C9.76655 1.45082 9.8491 1.41969 9.92309 1.37325C9.99707 1.32681 10.061 1.266 10.111 1.19442C10.1611 1.12284 10.1962 1.04195 10.2144 0.956541C10.2326 0.871129 10.2335 0.782936 10.217 0.697186C10.2004 0.611436 10.1669 0.529873 10.1182 0.45733C10.0696 0.384787 10.0069 0.322739 9.93382 0.274863C9.86076 0.226987 9.77883 0.194256 9.69288 0.178609C8.52534 -0.0721106 7.31649 -0.0587174 6.1548 0.217809C4.9931 0.494336 3.90795 1.027 2.97876 1.77682C2.04957 2.52664 1.29985 3.47464 0.784453 4.55146C0.26906 5.62828 0.00103968 6.80666 3.99479e-06 8.00037C-0.00189671 9.8957 0.674524 11.7292 1.90702 13.1695ZM14.093 2.83057C14.0664 2.7992 14.0518 2.75943 14.0518 2.71834C14.0518 2.67724 14.0664 2.63747 14.093 2.6061L14.4051 2.23569C14.4624 2.16922 14.5007 2.0885 14.5158 2.00207C14.531 1.91564 14.5225 1.82673 14.4912 1.74475C14.4599 1.66276 14.407 1.59076 14.3382 1.53637C14.2693 1.48198 14.187 1.44723 14.0999 1.43579L12.0733 1.14669C11.9961 1.11979 11.9145 1.108 11.8328 1.11194L11.6583 1.08762C11.5758 1.07497 11.4915 1.08372 11.4134 1.11304C11.3353 1.14236 11.266 1.19125 11.2123 1.25503C11.1585 1.31881 11.1221 1.39533 11.1065 1.47725C11.0908 1.55916 11.0965 1.64372 11.123 1.72281L11.8794 4.06899C11.9064 4.15211 11.9551 4.22652 12.0205 4.28454C12.0859 4.34257 12.1656 4.38211 12.2513 4.3991C12.2825 4.40518 12.3141 4.40821 12.3459 4.40813C12.4172 4.40818 12.4877 4.39266 12.5524 4.36265C12.6172 4.33264 12.6746 4.28887 12.7206 4.23439L13.0077 3.89386C13.0244 3.87403 13.0452 3.85819 13.0688 3.84749C13.0924 3.83679 13.1181 3.83152 13.1439 3.83205C13.1698 3.83258 13.1953 3.83891 13.2184 3.85057C13.2415 3.86223 13.2617 3.87892 13.2775 3.89942C14.0486 4.88686 14.5265 6.07107 14.6568 7.31696C14.787 8.56285 14.5643 9.82025 14.0141 10.9457C13.4638 12.0712 12.6082 13.0194 11.5449 13.6822C10.4815 14.345 9.25316 14.6956 8 14.6942C7.524 14.6943 7.04931 14.6443 6.58382 14.5448C6.49913 14.5247 6.41129 14.5218 6.32546 14.5361C6.23962 14.5505 6.15751 14.5818 6.08394 14.6283C6.01038 14.6748 5.94685 14.7355 5.89708 14.8069C5.8473 14.8782 5.81229 14.9588 5.79409 15.0439C5.7759 15.1289 5.77488 15.2168 5.79111 15.3023C5.80733 15.3877 5.84047 15.4691 5.88859 15.5416C5.9367 15.6141 5.99881 15.6763 6.07128 15.7244C6.14374 15.7726 6.22511 15.8058 6.31059 15.8221C7.47789 16.0723 8.68636 16.0584 9.84762 15.7816C11.0089 15.5048 12.0936 14.9721 13.0223 14.2223C13.9511 13.4725 14.7005 12.5248 15.2157 11.4482C15.7309 10.3717 15.9988 9.19372 16 8.00037C16.002 6.10481 15.3256 4.27107 14.093 2.83057Z" fill="url(#paint0_linear)"/>
    <defs>
        <linearGradient id="paint0_linear" x1="8" y1="0" x2="8" y2="16" gradientUnits="userSpaceOnUse">
            <stop stop-color="white"/>
            <stop offset="1" stop-color="white" stop-opacity="0.8"/>
        </linearGradient>
    </defs>
</svg>
