<svg width="14" height="15" viewBox="0 0 14 15" fill="none" xmlns="http://www.w3.org/2000/svg">
<g opacity="0.6">
<path d="M13.5625 4.29541C13.5625 4.00533 13.4473 3.72713 13.2421 3.52201C13.037 3.31689 12.7588 3.20166 12.4688 3.20166H9.1875C9.11498 3.20166 9.04543 3.23047 8.99415 3.28175C8.94287 3.33303 8.91406 3.40258 8.91406 3.4751V4.29541C8.91406 4.36793 8.88525 4.43748 8.83397 4.48876C8.78269 4.54004 8.71315 4.56885 8.64062 4.56885C8.5681 4.56885 8.49856 4.54004 8.44728 4.48876C8.396 4.43748 8.36719 4.36793 8.36719 4.29541V2.92822C8.36719 2.4931 8.19434 2.0758 7.88666 1.76813C7.57898 1.46045 7.16168 1.2876 6.72656 1.2876C6.29144 1.2876 5.87414 1.46045 5.56647 1.76813C5.25879 2.0758 5.08594 2.4931 5.08594 2.92822V4.29541C5.08594 4.36793 5.05713 4.43748 5.00585 4.48876C4.95457 4.54004 4.88502 4.56885 4.8125 4.56885C4.73998 4.56885 4.67043 4.54004 4.61915 4.48876C4.56787 4.43748 4.53906 4.36793 4.53906 4.29541V3.4751C4.53906 3.40258 4.51025 3.33303 4.45897 3.28175C4.4077 3.23047 4.33815 3.20166 4.26562 3.20166H1.53125C1.24117 3.20166 0.96297 3.31689 0.757852 3.52201C0.552734 3.72713 0.4375 4.00533 0.4375 4.29541L0.4375 12.4985C0.4375 12.7886 0.552734 13.0668 0.757852 13.2719C0.96297 13.477 1.24117 13.5923 1.53125 13.5923H12.4688C12.7588 13.5923 13.037 13.477 13.2421 13.2719C13.4473 13.0668 13.5625 12.7886 13.5625 12.4985V4.29541ZM6.17969 2.7915C6.17969 2.68334 6.21176 2.57761 6.27185 2.48768C6.33194 2.39774 6.41735 2.32765 6.51728 2.28626C6.61721 2.24487 6.72717 2.23404 6.83325 2.25514C6.93934 2.27624 7.03678 2.32832 7.11326 2.4048C7.18974 2.48129 7.24183 2.57873 7.26293 2.68481C7.28403 2.7909 7.2732 2.90086 7.23181 3.00078C7.19042 3.10071 7.12032 3.18612 7.03039 3.24621C6.94046 3.3063 6.83472 3.33838 6.72656 3.33838C6.58152 3.33838 6.44242 3.28076 6.33986 3.1782C6.2373 3.07564 6.17969 2.93654 6.17969 2.7915ZM1.80469 12.4985C1.73217 12.4985 1.66262 12.4697 1.61134 12.4184C1.56006 12.3672 1.53125 12.2976 1.53125 12.2251V6.48291C1.53125 6.41039 1.56006 6.34084 1.61134 6.28956C1.66262 6.23828 1.73217 6.20947 1.80469 6.20947H12.1953C12.2678 6.20947 12.3374 6.23828 12.3887 6.28956C12.4399 6.34084 12.4688 6.41039 12.4688 6.48291V12.2251C12.4688 12.2976 12.4399 12.3672 12.3887 12.4184C12.3374 12.4697 12.2678 12.4985 12.1953 12.4985H1.80469Z" fill="url(#paint0_linear_12376_2953)"/>
<path d="M10.9648 8.26025H8.36719C8.25841 8.26025 8.15408 8.30347 8.07716 8.38039C8.00024 8.45731 7.95703 8.56163 7.95703 8.67041C7.95703 8.77919 8.00024 8.88351 8.07716 8.96043C8.15408 9.03735 8.25841 9.08057 8.36719 9.08057H10.9648C11.0736 9.08057 11.1779 9.03735 11.2549 8.96043C11.3318 8.88351 11.375 8.77919 11.375 8.67041C11.375 8.56163 11.3318 8.45731 11.2549 8.38039C11.1779 8.30347 11.0736 8.26025 10.9648 8.26025ZM10.2812 9.90088H8.36719C8.25841 9.90088 8.15408 9.94409 8.07716 10.021C8.00024 10.0979 7.95703 10.2023 7.95703 10.311C7.95703 10.4198 8.00024 10.5241 8.07716 10.6011C8.15408 10.678 8.25841 10.7212 8.36719 10.7212H10.2812C10.39 10.7212 10.4944 10.678 10.5713 10.6011C10.6482 10.5241 10.6914 10.4198 10.6914 10.311C10.6914 10.2023 10.6482 10.0979 10.5713 10.021C10.4944 9.94409 10.39 9.90088 10.2812 9.90088Z" fill="url(#paint1_linear_12376_2953)"/>
<path fill-rule="evenodd" clip-rule="evenodd" d="M5.90373 8.39697C5.90373 9.00103 5.41404 9.49072 4.80998 9.49072C4.20592 9.49072 3.71623 9.00103 3.71623 8.39697C3.71623 7.79291 4.20592 7.30322 4.80998 7.30322C5.41404 7.30322 5.90373 7.79291 5.90373 8.39697ZM3.71589 10.3946C4.03751 10.1688 4.41931 10.0445 4.81216 10.0376C5.20418 10.0455 5.5849 10.1703 5.90555 10.3959C6.2262 10.6216 6.47216 10.9378 6.61193 11.3042C6.62845 11.3459 6.63444 11.3911 6.62938 11.4357C6.62432 11.4802 6.60835 11.5229 6.5829 11.5599C6.55744 11.5969 6.52328 11.627 6.48342 11.6476C6.44356 11.6683 6.39923 11.6788 6.35435 11.6782H3.26506C3.22017 11.6788 3.17585 11.6683 3.13599 11.6476C3.09613 11.627 3.06197 11.5969 3.03651 11.5599C3.01105 11.5229 2.99509 11.4802 2.99003 11.4357C2.98496 11.3911 2.99096 11.3459 3.00748 11.3042C3.14756 10.9371 3.39428 10.6203 3.71589 10.3946Z" fill="url(#paint2_linear_12376_2953)"/>
</g>
<defs>
<linearGradient id="paint0_linear_12376_2953" x1="7" y1="1.2876" x2="7" y2="13.5923" gradientUnits="userSpaceOnUse">
<stop stop-color="white"/>
<stop offset="1" stop-color="white" stop-opacity="0.8"/>
</linearGradient>
<linearGradient id="paint1_linear_12376_2953" x1="9.66602" y1="8.26025" x2="9.66602" y2="10.7212" gradientUnits="userSpaceOnUse">
<stop stop-color="white"/>
<stop offset="1" stop-color="white" stop-opacity="0.8"/>
</linearGradient>
<linearGradient id="paint2_linear_12376_2953" x1="4.8097" y1="7.30322" x2="4.8097" y2="11.6782" gradientUnits="userSpaceOnUse">
<stop stop-color="white"/>
<stop offset="1" stop-color="white" stop-opacity="0.8"/>
</linearGradient>
</defs>
</svg>
