<svg width="24" height="23" viewBox="0 0 24 23" fill="none" xmlns="http://www.w3.org/2000/svg">
<g opacity="0.6">
<g filter="url(#filter0_d_12055_1489)">
<path fill-rule="evenodd" clip-rule="evenodd" d="M19.9996 4.99984C19.9996 4.64621 19.8591 4.30708 19.6091 4.05703C19.359 3.80698 19.0199 3.6665 18.6663 3.6665H17.4996C17.4554 3.6665 17.413 3.64894 17.3818 3.61769C17.3505 3.58643 17.333 3.54404 17.333 3.49984V2.33317C17.333 2.15636 17.2627 1.98679 17.1377 1.86177C17.0127 1.73674 16.8431 1.6665 16.6663 1.6665H5.3333C4.97968 1.6665 4.64056 1.80698 4.39051 2.05703C4.14047 2.30708 4 2.64622 4 2.99984V10.9998C4 11.1766 4.07024 11.3462 4.19526 11.4712C4.32028 11.5963 4.48984 11.6665 4.66665 11.6665H5.83328C5.87749 11.6665 5.91988 11.6841 5.95113 11.7153C5.98239 11.7466 5.99995 11.789 5.99995 11.8332V12.9998C5.99995 13.3535 6.14042 13.6926 6.39046 13.9426C6.6405 14.1927 6.97963 14.3332 7.33324 14.3332H9.33319H11.6665H14.3331H16.6663H18.6663C19.0199 14.3332 19.359 14.1927 19.6091 13.9426C19.8591 13.6926 19.9996 13.3535 19.9996 12.9998V4.99984ZM18.5686 12.9022C18.6312 12.8397 18.6663 12.7549 18.6663 12.6665V5.33317C18.6663 5.24476 18.6312 5.15998 18.5686 5.09747C18.5061 5.03496 18.4214 4.99984 18.3329 4.99984H7.66657C7.57816 4.99984 7.49338 5.03496 7.43087 5.09747C7.36836 5.15998 7.33324 5.24476 7.33324 5.33317V12.6665C7.33324 12.7549 7.36836 12.8397 7.43087 12.9022C7.49338 12.9647 7.57816 12.9998 7.66657 12.9998H8.57788H12.4218H13.5777H17.4216H18.3329C18.4214 12.9998 18.5061 12.9647 18.5686 12.9022Z" fill="url(#paint0_linear_12055_1489)"/>
</g>
<g filter="url(#filter1_d_12055_1489)">
<path d="M13.834 7.7998C13.834 7.93241 13.8867 8.05959 13.9804 8.15336C14.0742 8.24713 14.2014 8.2998 14.334 8.2998H17.3339C17.4665 8.2998 17.5937 8.24713 17.6874 8.15336C17.7812 8.05959 17.8339 7.93241 17.8339 7.7998C17.8339 7.6672 17.7812 7.54002 17.6874 7.44625C17.5937 7.35248 17.4665 7.2998 17.3339 7.2998H14.334C14.2014 7.2998 14.0742 7.35248 13.9804 7.44625C13.8867 7.54002 13.834 7.6672 13.834 7.7998ZM16.0006 9.29981H14.334C14.2014 9.29981 14.0742 9.35248 13.9804 9.44625C13.8867 9.54002 13.834 9.6672 13.834 9.79981C13.834 9.93241 13.8867 10.0596 13.9804 10.1534C14.0742 10.2471 14.2014 10.2998 14.334 10.2998H16.0006C16.1332 10.2998 16.2604 10.2471 16.3541 10.1534C16.4479 10.0596 16.5006 9.93241 16.5006 9.79981C16.5006 9.6672 16.4479 9.54002 16.3541 9.44625C16.2604 9.35248 16.1332 9.29981 16.0006 9.29981Z" fill="url(#paint1_linear_12055_1489)"/>
</g>
<g filter="url(#filter2_d_12055_1489)">
<path d="M10.4466 9.06657C11.183 9.06657 11.7799 8.46962 11.7799 7.73324C11.7799 6.99686 11.183 6.3999 10.4466 6.3999C9.71023 6.3999 9.11328 6.99686 9.11328 7.73324C9.11328 8.46962 9.71023 9.06657 10.4466 9.06657Z" fill="url(#paint2_linear_12055_1489)"/>
</g>
<g filter="url(#filter3_d_12055_1489)">
<path d="M10.4466 9.6001C9.96825 9.6092 9.50356 9.76105 9.11216 10.0362C8.72076 10.3113 8.42051 10.6971 8.24996 11.1441C8.22982 11.195 8.22252 11.25 8.22869 11.3044C8.23486 11.3588 8.25432 11.4108 8.28535 11.4558C8.31639 11.5009 8.35803 11.5376 8.40662 11.5628C8.45521 11.588 8.50924 11.6008 8.56395 11.6001H12.3285C12.3832 11.6008 12.4373 11.588 12.4859 11.5628C12.5344 11.5376 12.5761 11.5009 12.6071 11.4558C12.6382 11.4108 12.6576 11.3588 12.6638 11.3044C12.67 11.25 12.6627 11.195 12.6425 11.1441C12.472 10.6972 12.1719 10.3115 11.7806 10.0364C11.3893 9.76125 10.9248 9.60933 10.4466 9.6001Z" fill="url(#paint3_linear_12055_1489)"/>
</g>
</g>
<defs>
<filter id="filter0_d_12055_1489" x="0" y="1.6665" width="24" height="20.6665" filterUnits="userSpaceOnUse" color-interpolation-filters="sRGB">
<feFlood flood-opacity="0" result="BackgroundImageFix"/>
<feColorMatrix in="SourceAlpha" type="matrix" values="0 0 0 0 0 0 0 0 0 0 0 0 0 0 0 0 0 0 127 0" result="hardAlpha"/>
<feOffset dy="4"/>
<feGaussianBlur stdDeviation="2"/>
<feColorMatrix type="matrix" values="0 0 0 0 0 0 0 0 0 0 0 0 0 0 0 0 0 0 0.05 0"/>
<feBlend mode="normal" in2="BackgroundImageFix" result="effect1_dropShadow_12055_1489"/>
<feBlend mode="normal" in="SourceGraphic" in2="effect1_dropShadow_12055_1489" result="shape"/>
</filter>
<filter id="filter1_d_12055_1489" x="9.83398" y="7.2998" width="12" height="11" filterUnits="userSpaceOnUse" color-interpolation-filters="sRGB">
<feFlood flood-opacity="0" result="BackgroundImageFix"/>
<feColorMatrix in="SourceAlpha" type="matrix" values="0 0 0 0 0 0 0 0 0 0 0 0 0 0 0 0 0 0 127 0" result="hardAlpha"/>
<feOffset dy="4"/>
<feGaussianBlur stdDeviation="2"/>
<feColorMatrix type="matrix" values="0 0 0 0 0 0 0 0 0 0 0 0 0 0 0 0 0 0 0.05 0"/>
<feBlend mode="normal" in2="BackgroundImageFix" result="effect1_dropShadow_12055_1489"/>
<feBlend mode="normal" in="SourceGraphic" in2="effect1_dropShadow_12055_1489" result="shape"/>
</filter>
<filter id="filter2_d_12055_1489" x="5.11328" y="6.3999" width="10.666" height="10.6665" filterUnits="userSpaceOnUse" color-interpolation-filters="sRGB">
<feFlood flood-opacity="0" result="BackgroundImageFix"/>
<feColorMatrix in="SourceAlpha" type="matrix" values="0 0 0 0 0 0 0 0 0 0 0 0 0 0 0 0 0 0 127 0" result="hardAlpha"/>
<feOffset dy="4"/>
<feGaussianBlur stdDeviation="2"/>
<feColorMatrix type="matrix" values="0 0 0 0 0 0 0 0 0 0 0 0 0 0 0 0 0 0 0.05 0"/>
<feBlend mode="normal" in2="BackgroundImageFix" result="effect1_dropShadow_12055_1489"/>
<feBlend mode="normal" in="SourceGraphic" in2="effect1_dropShadow_12055_1489" result="shape"/>
</filter>
<filter id="filter3_d_12055_1489" x="4.22656" y="9.6001" width="12.4395" height="10" filterUnits="userSpaceOnUse" color-interpolation-filters="sRGB">
<feFlood flood-opacity="0" result="BackgroundImageFix"/>
<feColorMatrix in="SourceAlpha" type="matrix" values="0 0 0 0 0 0 0 0 0 0 0 0 0 0 0 0 0 0 127 0" result="hardAlpha"/>
<feOffset dy="4"/>
<feGaussianBlur stdDeviation="2"/>
<feColorMatrix type="matrix" values="0 0 0 0 0 0 0 0 0 0 0 0 0 0 0 0 0 0 0.05 0"/>
<feBlend mode="normal" in2="BackgroundImageFix" result="effect1_dropShadow_12055_1489"/>
<feBlend mode="normal" in="SourceGraphic" in2="effect1_dropShadow_12055_1489" result="shape"/>
</filter>
<linearGradient id="paint0_linear_12055_1489" x1="11.9998" y1="1.6665" x2="11.9998" y2="14.3332" gradientUnits="userSpaceOnUse">
<stop stop-color="white"/>
<stop offset="1" stop-color="white" stop-opacity="0.8"/>
</linearGradient>
<linearGradient id="paint1_linear_12055_1489" x1="15.8339" y1="7.2998" x2="15.8339" y2="10.2998" gradientUnits="userSpaceOnUse">
<stop stop-color="white"/>
<stop offset="1" stop-color="white" stop-opacity="0.8"/>
</linearGradient>
<linearGradient id="paint2_linear_12055_1489" x1="10.4466" y1="6.3999" x2="10.4466" y2="9.06657" gradientUnits="userSpaceOnUse">
<stop stop-color="white"/>
<stop offset="1" stop-color="white" stop-opacity="0.8"/>
</linearGradient>
<linearGradient id="paint3_linear_12055_1489" x1="10.4462" y1="9.6001" x2="10.4462" y2="11.6001" gradientUnits="userSpaceOnUse">
<stop stop-color="white"/>
<stop offset="1" stop-color="white" stop-opacity="0.8"/>
</linearGradient>
</defs>
</svg>
