<svg width="16" height="16" viewBox="0 0 16 16" fill="none" xmlns="http://www.w3.org/2000/svg">
<g clip-path="url(#clip0_77_7801)">
<path d="M7.39535 12.3513C7.27494 12.4717 7.12579 12.5594 6.96202 12.606C6.93014 12.6149 6.90165 12.6331 6.88016 12.6583C6.85867 12.6835 6.84516 12.7145 6.84135 12.7473L6.69002 14.0413C6.67316 14.1831 6.70094 14.3267 6.76948 14.452C6.83803 14.5772 6.94393 14.678 7.07244 14.7403C7.20095 14.8026 7.34568 14.8232 7.48649 14.7994C7.62729 14.7756 7.75716 14.7084 7.85802 14.6073L9.63868 12.8267C10.1005 12.3576 10.4676 11.804 10.72 11.196C10.883 10.5403 10.9649 9.86702 10.964 9.19134C10.9653 9.15782 10.9565 9.12469 10.9386 9.09628C10.9208 9.06787 10.8948 9.04551 10.864 9.03211C10.8333 9.01872 10.7992 9.01491 10.7662 9.0212C10.7333 9.02748 10.703 9.04356 10.6793 9.06734L7.39535 12.3513ZM3.65602 8.61334L6.95735 5.304C6.98068 5.28029 6.99642 5.25016 7.00255 5.21745C7.00868 5.18475 7.00492 5.15097 6.99175 5.12041C6.97859 5.08986 6.95661 5.06392 6.92863 5.04592C6.90066 5.02792 6.86795 5.01866 6.83468 5.01934C6.14184 5.01427 5.4509 5.09239 4.77668 5.252C4.1744 5.51285 3.62783 5.88696 3.16668 6.354L1.39202 8.12867C1.29621 8.22475 1.23098 8.34704 1.20455 8.48012C1.17812 8.61321 1.19167 8.75114 1.2435 8.87654C1.29532 9.00194 1.38311 9.10919 1.49579 9.18479C1.60846 9.26038 1.741 9.30093 1.87668 9.30134C1.90002 9.30134 2.92468 9.178 3.27068 9.136C3.3026 9.1321 3.33271 9.11908 3.35742 9.09851C3.38213 9.07794 3.40039 9.05068 3.41002 9.02C3.45814 8.86665 3.54253 8.72715 3.65602 8.61334ZM4.02535 11.024C3.46202 10.4593 2.60868 10.5573 1.90335 11.2593C1.40402 11.7593 0.890683 13.37 0.548016 14.634C0.517253 14.7475 0.517033 14.867 0.547379 14.9806C0.577724 15.0941 0.637557 15.1977 0.720811 15.2806C0.804064 15.3636 0.907779 15.4231 1.02144 15.4531C1.1351 15.4831 1.25467 15.4825 1.36802 15.4513C2.62735 15.1047 4.23468 14.5847 4.73202 14.088C5.43668 13.3833 5.53202 12.53 4.96802 11.9667L4.02535 11.024ZM15.08 0.533335C14.248 0.701335 12.576 1.092 12.0573 1.61067C11.6253 2.03934 5.41668 8.26667 4.48135 9.2C4.45021 9.23124 4.43272 9.27356 4.43272 9.31767C4.43272 9.36178 4.45021 9.40409 4.48135 9.43534L6.57068 11.5267C6.60192 11.5578 6.64424 11.5753 6.68835 11.5753C6.73246 11.5753 6.77477 11.5578 6.80602 11.5267L14.3913 3.942C14.9107 3.42267 15.3013 1.75067 15.4687 0.919335C15.4789 0.866194 15.4759 0.811351 15.46 0.75964C15.444 0.707928 15.4156 0.660935 15.3772 0.6228C15.3388 0.584665 15.2916 0.556559 15.2398 0.540957C15.1879 0.525356 15.1331 0.522738 15.08 0.533335Z" fill="white"/>
</g>
<defs>
<clipPath id="clip0_77_7801">
<rect width="16" height="16" fill="white"/>
</clipPath>
</defs>
</svg>
