<svg width="16" height="16" viewBox="0 0 16 16" fill="none" xmlns="http://www.w3.org/2000/svg">
    <path d="M0.203821 0.203693C0.073355 0.334038 3.93989e-05 0.510836 0 0.695199V8.35281C0 8.53719 0.0732898 8.71402 0.203746 8.84439C0.334203 8.97477 0.51114 9.04801 0.695633 9.04801H6.2607C6.44519 9.04801 6.62213 8.97477 6.75259 8.84439C6.88304 8.71402 6.95633 8.53719 6.95633 8.35281V0.705627C6.95633 0.521249 6.88304 0.344422 6.75259 0.214047C6.62213 0.0836719 6.44519 0.010428 6.2607 0.010428L0.695633 0C0.511155 3.93743e-05 0.334247 0.0733092 0.203821 0.203693ZM15.3039 0L9.73887 0.0097328C9.55437 0.0097328 9.37744 0.0829767 9.24698 0.213352C9.11652 0.343727 9.04323 0.520553 9.04323 0.704931V4.18093C9.04323 4.3653 9.11652 4.54213 9.24698 4.6725C9.37744 4.80288 9.55437 4.87612 9.73887 4.87612H15.3039C15.4884 4.87612 15.6654 4.80288 15.7958 4.6725C15.9263 4.54213 15.9996 4.3653 15.9996 4.18093V0.695199C15.9996 0.510821 15.9263 0.333994 15.7958 0.203619C15.6654 0.0732439 15.4884 0 15.3039 0ZM6.75251 15.7956C6.88298 15.6653 6.95629 15.4885 6.95633 15.3041V11.8281C6.95633 11.6437 6.88304 11.4669 6.75259 11.3365C6.62213 11.2062 6.44519 11.1329 6.2607 11.1329H0.695633C0.51114 11.1329 0.334203 11.2062 0.203746 11.3365C0.0732898 11.4669 0 11.6437 0 11.8281V15.2937C0 15.4781 0.0732898 15.6549 0.203746 15.7853C0.334203 15.9156 0.51114 15.9889 0.695633 15.9889L6.2607 15.9986C6.44508 15.9988 6.62197 15.9257 6.75251 15.7956ZM15.3039 6.96242H9.73887C9.55437 6.96242 9.37744 7.03566 9.24698 7.16603C9.11652 7.29641 9.04323 7.47324 9.04323 7.65761V15.3048C9.04323 15.4892 9.11652 15.666 9.24698 15.7964C9.37744 15.9268 9.55437 16 9.73887 16L15.3039 15.9903C15.4884 15.9903 15.6654 15.917 15.7958 15.7866C15.9263 15.6563 15.9996 15.4794 15.9996 15.2951V7.65761C15.9996 7.47324 15.9263 7.29641 15.7958 7.16603C15.6654 7.03566 15.4884 6.96242 15.3039 6.96242Z" fill="url(#paint0_linear)"/>
    <defs>
        <linearGradient id="paint0_linear" x1="7.99978" y1="0" x2="7.99978" y2="16" gradientUnits="userSpaceOnUse">
            <stop stop-color="white"/>
            <stop offset="1" stop-color="white" stop-opacity="0.8"/>
        </linearGradient>
    </defs>
</svg>
