<svg width="20" height="23" viewBox="0 0 20 23" fill="none" xmlns="http://www.w3.org/2000/svg">
<g opacity="0.6">
<g filter="url(#filter0_d_12055_2451)">
<path d="M6.49935 12.4584C6.18993 12.4584 5.89318 12.3355 5.67439 12.1167C5.4556 11.8979 5.33268 11.6011 5.33268 11.2917V3.70837C5.33268 3.39895 5.4556 3.1022 5.67439 2.88341C5.89318 2.66462 6.18993 2.5417 6.49935 2.5417H9.56185C9.6392 2.5417 9.71339 2.57243 9.76809 2.62713C9.82279 2.68183 9.85352 2.75601 9.85352 2.83337V3.12503C9.85353 3.18275 9.87066 3.23916 9.90274 3.28714C9.93483 3.33511 9.98043 3.37249 10.0338 3.39453C10.0691 3.40898 10.107 3.41651 10.1452 3.4167C10.1835 3.41677 10.2215 3.40928 10.2569 3.39467C10.2923 3.38006 10.3245 3.3586 10.3517 3.33153L11.5183 2.16487C11.5455 2.13777 11.5671 2.10559 11.5818 2.07015C11.5965 2.03472 11.604 1.99673 11.604 1.95837C11.604 1.92 11.5965 1.88202 11.5818 1.84658C11.5671 1.81115 11.5455 1.77896 11.5183 1.75187L10.3517 0.5852C10.3109 0.544305 10.2589 0.516442 10.2022 0.505145C10.1456 0.493847 10.0869 0.499624 10.0335 0.521743C9.98014 0.543861 9.93455 0.581326 9.9025 0.629386C9.87046 0.677446 9.85341 0.733938 9.85352 0.7917V1.08337C9.85352 1.16072 9.82279 1.23491 9.76809 1.28961C9.71339 1.3443 9.6392 1.37503 9.56185 1.37503H6.49935C5.88051 1.37503 5.28702 1.62087 4.84943 2.05845C4.41185 2.49604 4.16602 3.08953 4.16602 3.70837V11.2917C4.16602 11.9105 4.41185 12.504 4.84943 12.9416C5.28702 13.3792 5.88051 13.625 6.49935 13.625C6.65406 13.625 6.80243 13.5636 6.91183 13.4542C7.02122 13.3448 7.08268 13.1964 7.08268 13.0417C7.08268 12.887 7.02122 12.7386 6.91183 12.6292C6.80243 12.5198 6.65406 12.4584 6.49935 12.4584ZM13.4993 1.37503C13.3446 1.37503 13.1963 1.43649 13.0869 1.54589C12.9775 1.65528 12.916 1.80366 12.916 1.95837C12.916 2.11308 12.9775 2.26145 13.0869 2.37085C13.1963 2.48024 13.3446 2.5417 13.4993 2.5417C13.8088 2.5417 14.1055 2.66462 14.3243 2.88341C14.5431 3.1022 14.666 3.39895 14.666 3.70837V11.2917C14.666 11.6011 14.5431 11.8979 14.3243 12.1167C14.1055 12.3355 13.8088 12.4584 13.4993 12.4584H10.4368C10.3595 12.4584 10.2853 12.4276 10.2306 12.3729C10.1759 12.3182 10.1452 12.2441 10.1452 12.1667V11.875C10.1452 11.8173 10.128 11.7609 10.096 11.7129C10.0639 11.665 10.0183 11.6276 9.96493 11.6055C9.92955 11.5911 9.89173 11.5836 9.85352 11.5834C9.81519 11.5833 9.77722 11.5908 9.74179 11.6054C9.70636 11.62 9.67415 11.6415 9.64702 11.6685L8.48035 12.8352C8.45319 12.8623 8.43164 12.8945 8.41693 12.9299C8.40223 12.9653 8.39466 13.0033 8.39466 13.0417C8.39466 13.0801 8.40223 13.1181 8.41693 13.1535C8.43164 13.1889 8.45319 13.2211 8.48035 13.2482L9.64702 14.4149C9.68781 14.4558 9.73982 14.4836 9.79647 14.4949C9.85312 14.5062 9.91184 14.5004 9.9652 14.4783C10.0186 14.4562 10.0642 14.4187 10.0962 14.3707C10.1282 14.3226 10.1453 14.2661 10.1452 14.2084V13.9167C10.1452 13.8393 10.1759 13.7652 10.2306 13.7105C10.2853 13.6558 10.3595 13.625 10.4368 13.625H13.4993C14.1182 13.625 14.7117 13.3792 15.1493 12.9416C15.5869 12.504 15.8327 11.9105 15.8327 11.2917V3.70837C15.8327 3.08953 15.5869 2.49604 15.1493 2.05845C14.7117 1.62087 14.1182 1.37503 13.4993 1.37503Z" fill="url(#paint0_linear_12055_2451)"/>
</g>
<g filter="url(#filter1_d_12055_2451)">
<path d="M10.0007 4.5835C9.42379 4.5835 8.85988 4.75456 8.38024 5.07504C7.9006 5.39553 7.52676 5.85105 7.306 6.384C7.08525 6.91695 7.02749 7.5034 7.14003 8.06918C7.25257 8.63495 7.53035 9.15465 7.93826 9.56256C8.34616 9.97046 8.86586 10.2482 9.43164 10.3608C9.99742 10.4733 10.5839 10.4156 11.1168 10.1948C11.6498 9.97405 12.1053 9.60022 12.4258 9.12058C12.7463 8.64093 12.9173 8.07702 12.9173 7.50016C12.9173 6.72661 12.61 5.98475 12.063 5.43777C11.5161 4.89079 10.7742 4.5835 10.0007 4.5835V4.5835ZM10.3565 9.10117C10.342 9.10332 10.3288 9.11059 10.3193 9.12165C10.3097 9.13272 10.3045 9.14684 10.3045 9.16145V9.34738C10.3045 9.42796 10.2725 9.50524 10.2155 9.56222C10.1585 9.61919 10.0812 9.6512 10.0007 9.6512C9.92007 9.6512 9.8428 9.61919 9.78582 9.56222C9.72884 9.50524 9.69683 9.42796 9.69683 9.34738V9.17603C9.69686 9.16804 9.69532 9.16013 9.69227 9.15274C9.68923 9.14535 9.68476 9.13864 9.67911 9.13299C9.67346 9.12734 9.66675 9.12287 9.65936 9.11983C9.65197 9.11678 9.64406 9.11523 9.63607 9.11527H9.35728C9.27671 9.11527 9.19943 9.08326 9.14245 9.02628C9.08547 8.9693 9.05346 8.89202 9.05346 8.81145C9.05346 8.73087 9.08547 8.65359 9.14245 8.59661C9.19943 8.53964 9.27671 8.50763 9.35728 8.50763H10.2294C10.2925 8.50761 10.3537 8.4856 10.4024 8.44539C10.451 8.40517 10.4842 8.34926 10.4961 8.28725C10.5081 8.22525 10.498 8.16102 10.4678 8.10561C10.4375 8.0502 10.3889 8.00706 10.3302 7.9836L9.44551 7.62947C9.26591 7.55824 9.11488 7.42965 9.01593 7.26369C8.91698 7.09774 8.87566 6.90373 8.89839 6.71185C8.92113 6.51998 9.00665 6.34101 9.14164 6.20277C9.27664 6.06454 9.45354 5.9748 9.64482 5.94752C9.65925 5.94542 9.67244 5.9382 9.68199 5.92718C9.69154 5.91616 9.69681 5.90207 9.69683 5.88749V5.70155C9.69683 5.62097 9.72884 5.5437 9.78582 5.48672C9.8428 5.42974 9.92007 5.39773 10.0007 5.39773C10.0812 5.39773 10.1585 5.42974 10.2155 5.48672C10.2725 5.5437 10.3045 5.62097 10.3045 5.70155V5.87315C10.3045 5.88926 10.3109 5.90472 10.3223 5.91612C10.3337 5.92751 10.3491 5.93391 10.3652 5.93391H10.644C10.7246 5.93391 10.8019 5.96592 10.8589 6.0229C10.9158 6.07988 10.9478 6.15715 10.9478 6.23773C10.9478 6.31831 10.9158 6.39559 10.8589 6.45256C10.8019 6.50954 10.7246 6.54155 10.644 6.54155H9.77194C9.70874 6.54142 9.64748 6.56333 9.59871 6.60352C9.54993 6.64371 9.51671 6.69965 9.50476 6.7617C9.49281 6.82376 9.50288 6.88804 9.53324 6.94347C9.5636 6.99889 9.61234 7.04199 9.67107 7.06534L10.5558 7.41947C10.7354 7.49069 10.8864 7.61929 10.9854 7.78525C11.0843 7.9512 11.1256 8.14521 11.1029 8.33708C11.0802 8.52895 10.9947 8.70793 10.8597 8.84616C10.7247 8.9844 10.5478 9.07413 10.3565 9.10141V9.10117Z" fill="url(#paint1_linear_12055_2451)"/>
</g>
</g>
<defs>
<filter id="filter0_d_12055_2451" x="0.166016" y="0.499512" width="19.666" height="22.001" filterUnits="userSpaceOnUse" color-interpolation-filters="sRGB">
<feFlood flood-opacity="0" result="BackgroundImageFix"/>
<feColorMatrix in="SourceAlpha" type="matrix" values="0 0 0 0 0 0 0 0 0 0 0 0 0 0 0 0 0 0 127 0" result="hardAlpha"/>
<feOffset dy="4"/>
<feGaussianBlur stdDeviation="2"/>
<feColorMatrix type="matrix" values="0 0 0 0 0 0 0 0 0 0 0 0 0 0 0 0 0 0 0.05 0"/>
<feBlend mode="normal" in2="BackgroundImageFix" result="effect1_dropShadow_12055_2451"/>
<feBlend mode="normal" in="SourceGraphic" in2="effect1_dropShadow_12055_2451" result="shape"/>
</filter>
<filter id="filter1_d_12055_2451" x="3.08398" y="4.5835" width="13.834" height="13.8335" filterUnits="userSpaceOnUse" color-interpolation-filters="sRGB">
<feFlood flood-opacity="0" result="BackgroundImageFix"/>
<feColorMatrix in="SourceAlpha" type="matrix" values="0 0 0 0 0 0 0 0 0 0 0 0 0 0 0 0 0 0 127 0" result="hardAlpha"/>
<feOffset dy="4"/>
<feGaussianBlur stdDeviation="2"/>
<feColorMatrix type="matrix" values="0 0 0 0 0 0 0 0 0 0 0 0 0 0 0 0 0 0 0.05 0"/>
<feBlend mode="normal" in2="BackgroundImageFix" result="effect1_dropShadow_12055_2451"/>
<feBlend mode="normal" in="SourceGraphic" in2="effect1_dropShadow_12055_2451" result="shape"/>
</filter>
<linearGradient id="paint0_linear_12055_2451" x1="9.99935" y1="0.499512" x2="9.99935" y2="14.5006" gradientUnits="userSpaceOnUse">
<stop stop-color="white"/>
<stop offset="1" stop-color="white" stop-opacity="0.8"/>
</linearGradient>
<linearGradient id="paint1_linear_12055_2451" x1="10.0007" y1="4.5835" x2="10.0007" y2="10.4168" gradientUnits="userSpaceOnUse">
<stop stop-color="white"/>
<stop offset="1" stop-color="white" stop-opacity="0.8"/>
</linearGradient>
</defs>
</svg>
