<svg width="16" height="16" viewBox="0 0 16 16" fill="none" xmlns="http://www.w3.org/2000/svg">
<path d="M7.19985 6.48334C6.36654 5.65 5.86655 3.81667 5.53323 2.81667C5.1999 1.81667 5.53323 0.816668 6.86653 1.15C8.19982 1.48334 10.0331 1.98334 10.5331 2.48334L12.251 4.20134C12.2744 4.2247 12.3041 4.24063 12.3364 4.24708C12.3688 4.25354 12.4024 4.25024 12.4329 4.2376C12.4634 4.22496 12.4894 4.20355 12.5077 4.17609C12.526 4.14862 12.5358 4.11634 12.5357 4.08334V1.81667C12.5357 1.59757 12.4925 1.38063 12.4086 1.17825C12.3247 0.975863 12.2017 0.792013 12.0466 0.637213C11.8916 0.482414 11.7075 0.359704 11.505 0.276103C11.3025 0.192502 11.0855 0.149651 10.8664 0.150002H2.86663C2.42462 0.150002 2.00071 0.325596 1.68815 0.638157C1.3756 0.950718 1.20001 1.37464 1.20001 1.81667V12.15C1.20001 12.3689 1.24312 12.5856 1.32688 12.7878C1.41063 12.99 1.53339 13.1737 1.68815 13.3285C1.84291 13.4833 2.02664 13.606 2.22885 13.6898C2.43105 13.7736 2.64777 13.8167 2.86663 13.8167H7.9925C8.03671 13.8167 8.07914 13.8342 8.11049 13.8653L9.96378 15.7193C9.99479 15.7503 10.0316 15.7748 10.0721 15.7915C10.1126 15.8082 10.156 15.8167 10.1998 15.8167C10.2435 15.8168 10.2868 15.8082 10.3271 15.7913C10.3881 15.7661 10.4402 15.7234 10.4768 15.6686C10.5135 15.6138 10.5331 15.5493 10.5331 15.4833V13.9833C10.5331 13.9391 10.5507 13.8967 10.5819 13.8655C10.6132 13.8342 10.6556 13.8167 10.6998 13.8167H10.8784C11.0973 13.8167 11.314 13.7736 11.5162 13.6898C11.7184 13.606 11.9021 13.4833 12.0569 13.3285C12.2117 13.1737 12.3344 12.99 12.4182 12.7878C12.5019 12.5856 12.545 12.3689 12.545 12.15V11.8993C12.5448 11.8554 12.5273 11.8132 12.4964 11.782L7.19985 6.48334ZM7.54717 9.81667C7.67978 9.81667 7.80695 9.86935 7.90072 9.96312C7.99448 10.0569 8.04716 10.1841 8.04716 10.3167C8.04716 10.4493 7.99448 10.5765 7.90072 10.6702C7.80695 10.764 7.67978 10.8167 7.54717 10.8167H3.53328C3.40068 10.8167 3.2735 10.764 3.17974 10.6702C3.08597 10.5765 3.0333 10.4493 3.0333 10.3167C3.0333 10.1841 3.08597 10.0569 3.17974 9.96312C3.2735 9.86935 3.40068 9.81667 3.53328 9.81667H7.54717ZM5.54723 6.98334C5.67983 6.98334 5.80701 7.03601 5.90077 7.12978C5.99454 7.22355 6.04721 7.35073 6.04721 7.48334C6.04721 7.61594 5.99454 7.74312 5.90077 7.83689C5.80701 7.93066 5.67983 7.98334 5.54723 7.98334H3.53328C3.40068 7.98334 3.2735 7.93066 3.17974 7.83689C3.08597 7.74312 3.0333 7.61594 3.0333 7.48334C3.0333 7.35073 3.08597 7.22355 3.17974 7.12978C3.2735 7.03601 3.40068 6.98334 3.53328 6.98334H5.54723Z" fill="url(#paint0_linear)"/>
<path d="M8.92584 2.65679C8.91123 2.60062 8.8822 2.54923 8.84163 2.50772C8.80105 2.46621 8.75034 2.43602 8.69452 2.42012L6.62791 1.82946C6.57076 1.81315 6.5103 1.81242 6.45278 1.82734C6.39526 1.84225 6.34277 1.87228 6.30075 1.9143C6.25873 1.95632 6.22871 2.00881 6.2138 2.06633C6.19888 2.12385 6.19961 2.18431 6.21592 2.24146L6.80657 4.30812C6.82256 4.36383 6.8528 4.4144 6.8943 4.45485C6.9358 4.4953 6.98713 4.52423 7.04323 4.53879C7.07039 4.5462 7.09841 4.55001 7.12656 4.55012C7.17041 4.55012 7.21382 4.54145 7.25432 4.52464C7.29482 4.50782 7.3316 4.48318 7.36255 4.45212L8.83918 2.97546C8.88006 2.93445 8.90955 2.88349 8.92475 2.82761C8.93994 2.77173 8.94032 2.71286 8.92584 2.65679ZM13.3831 6.99746C13.4455 6.93495 13.4806 6.85018 13.4806 6.76179C13.4806 6.6734 13.4455 6.58863 13.3831 6.52612L10.0425 3.18612C9.97997 3.12363 9.89521 3.08853 9.80682 3.08853C9.71843 3.08853 9.63367 3.12363 9.57116 3.18612L7.57121 5.18612C7.50873 5.24863 7.47362 5.3334 7.47362 5.42179C7.47362 5.51018 7.50873 5.59495 7.57121 5.65746L10.9118 8.99746C10.9743 9.05995 11.0591 9.09505 11.1475 9.09505C11.2358 9.09505 11.3206 9.05995 11.3831 8.99746L13.3831 6.99746ZM14.3244 7.46812C14.272 7.41633 14.204 7.38334 14.1309 7.37429C14.0578 7.36524 13.9838 7.38066 13.9204 7.41812C13.896 7.43223 13.8736 7.44949 13.8537 7.46946L11.8538 9.46946C11.7955 9.54199 11.7664 9.63367 11.7722 9.72653C11.778 9.81938 11.8183 9.90673 11.8851 9.97146C12.0469 10.1344 12.2395 10.2636 12.4517 10.3515C12.6639 10.4394 12.8914 10.4843 13.1211 10.4835C13.1604 10.4835 13.2004 10.4835 13.2397 10.4788C13.6613 10.4514 14.0584 10.271 14.3564 9.97146C14.52 9.80571 14.649 9.60913 14.736 9.39312C14.8231 9.17711 14.8664 8.94597 14.8634 8.7131C14.8604 8.48024 14.8112 8.25028 14.7187 8.03657C14.6262 7.82285 14.4921 7.62964 14.3244 7.46812Z" fill="url(#paint1_linear)"/>
<defs>
<linearGradient id="paint0_linear" x1="6.87253" y1="0.15" x2="6.87253" y2="15.8167" gradientUnits="userSpaceOnUse">
<stop stop-color="white"/>
<stop offset="1" stop-color="white" stop-opacity="0.8"/>
</linearGradient>
<linearGradient id="paint1_linear" x1="10.5333" y1="1.81667" x2="10.5333" y2="10.4835" gradientUnits="userSpaceOnUse">
<stop stop-color="white"/>
<stop offset="1" stop-color="white" stop-opacity="0.8"/>
</linearGradient>
</defs>
</svg>
