<svg width="16" height="16" viewBox="0 0 16 16" fill="none" xmlns="http://www.w3.org/2000/svg">
<path fill-rule="evenodd" clip-rule="evenodd" d="M14.5142 1.9281C14.6194 2.09432 14.6745 2.2873 14.673 2.48401V7.57534C14.6757 9.22735 14.1788 10.8416 13.2474 12.206C12.3161 13.5704 10.9939 14.6213 9.4545 15.2207L8.74319 15.4967C8.2692 15.68 7.74388 15.68 7.2699 15.4967L6.55858 15.2207C5.01917 14.6213 3.69699 13.5704 2.76565 12.206C1.83432 10.8416 1.33737 9.22735 1.34006 7.57534V2.48401C1.33855 2.2873 1.39369 2.09432 1.4989 1.9281C1.60411 1.76189 1.75494 1.62948 1.93337 1.54668C3.84674 0.706113 5.91678 0.281415 8.00654 0.300676C10.0963 0.281415 12.1663 0.706113 14.0797 1.54668C14.2581 1.62948 14.409 1.76189 14.5142 1.9281ZM13.6621 2.71633C13.7535 2.86086 13.8015 3.02867 13.8002 3.19971V7.62678C13.8025 9.06325 13.3704 10.4668 12.5606 11.6533C11.7508 12.8397 10.6011 13.7535 9.26251 14.2746L8.644 14.5146C8.23186 14.674 7.77507 14.674 7.36293 14.5146L6.74442 14.2746C5.40585 13.7535 4.25618 12.8397 3.44635 11.6533C2.63653 10.4668 2.20441 9.06325 2.20675 7.62678V3.19971C2.20544 3.02867 2.25339 2.86086 2.34487 2.71633C2.43636 2.57181 2.56751 2.45667 2.72266 2.38467C4.38639 1.65378 6.18635 1.28449 8.00346 1.30123C9.82058 1.28449 11.6205 1.65378 13.2843 2.38467C13.4394 2.45667 13.5706 2.57181 13.6621 2.71633Z" fill="url(#paint0_linear)"/>
<path d="M13.1559 3.73604C13.1571 3.58424 13.1145 3.43531 13.0333 3.30704C12.9521 3.17878 12.8357 3.07659 12.698 3.01269C11.2215 2.36402 9.624 2.03628 8.01131 2.05114C6.39862 2.03628 4.80116 2.36402 3.32459 3.01269C3.18689 3.07659 3.0705 3.17878 2.9893 3.30704C2.90811 3.43531 2.86556 3.58424 2.86672 3.73604V7.66507C2.86465 8.93994 3.24815 10.1856 3.96687 11.2386C4.68559 12.2915 5.70593 13.1025 6.89391 13.565L7.44284 13.778C7.80861 13.9195 8.21401 13.9195 8.57979 13.778L9.12872 13.565C10.3167 13.1025 11.337 12.2915 12.0558 11.2386C12.7745 10.1856 13.158 8.93994 13.1559 7.66507V3.73604Z" fill="url(#paint1_linear)"/>
<defs>
<linearGradient id="paint0_linear" x1="8.00654" y1="0.300049" x2="8.00654" y2="15.6342" gradientUnits="userSpaceOnUse">
<stop stop-color="white"/>
<stop offset="1" stop-color="white" stop-opacity="0.8"/>
</linearGradient>
<linearGradient id="paint1_linear" x1="8.01131" y1="2.05066" x2="8.01131" y2="13.8842" gradientUnits="userSpaceOnUse">
<stop stop-color="white"/>
<stop offset="1" stop-color="white" stop-opacity="0.8"/>
</linearGradient>
</defs>
</svg>
