<svg width="16" height="16" viewBox="0 0 16 16" fill="none" xmlns="http://www.w3.org/2000/svg">
<g opacity="0.6">
<path d="M7.99981 1C6.61538 1 5.26204 1.41054 4.11093 2.17971C2.95981 2.94888 2.06263 4.04213 1.53283 5.32122C1.00303 6.6003 0.864413 8.00776 1.1345 9.36563C1.40459 10.7235 2.07126 11.9708 3.0502 12.9497C4.02914 13.9287 5.27639 14.5954 6.63422 14.8655C7.99205 15.1356 9.39948 14.997 10.6785 14.4672C11.9576 13.9373 13.0508 13.0401 13.8199 11.889C14.5891 10.7378 14.9996 9.38447 14.9996 8C14.9976 6.1441 14.2595 4.36479 12.9472 3.05247C11.6349 1.74015 9.85566 1.00201 7.99981 1V1ZM6.20553 8.05483C6.30598 8.10186 6.39095 8.17656 6.45046 8.27017C6.50997 8.36378 6.54156 8.47241 6.54152 8.58333V9.3125C6.54152 9.35118 6.55688 9.38827 6.58423 9.41562C6.61158 9.44297 6.64867 9.45833 6.68735 9.45833H8.87479C9.0295 9.45833 9.17786 9.51979 9.28726 9.62919C9.39665 9.73858 9.45811 9.88696 9.45811 10.0417C9.45811 10.1964 9.39665 10.3447 9.28726 10.4541C9.17786 10.5635 9.0295 10.625 8.87479 10.625H6.68735C6.64867 10.625 6.61158 10.6404 6.58423 10.6677C6.55688 10.6951 6.54152 10.7322 6.54152 10.7708V11.5C6.54148 11.6108 6.50986 11.7194 6.45036 11.8129C6.39087 11.9064 6.30596 11.981 6.20558 12.0281C6.10521 12.0751 5.99351 12.0925 5.88359 12.0783C5.77366 12.0641 5.67004 12.0189 5.58488 11.948L3.83493 10.4897C3.76918 10.4349 3.71627 10.3664 3.67997 10.2889C3.64366 10.2114 3.62484 10.1269 3.62484 10.0414C3.62484 9.95582 3.64366 9.87131 3.67997 9.79383C3.71627 9.71636 3.76918 9.64783 3.83493 9.59308L5.58488 8.13475C5.67005 8.06384 5.77366 8.01867 5.88358 8.00452C5.9935 7.99036 6.10517 8.00782 6.20553 8.05483ZM10.0414 8C9.88672 8 9.73835 7.93854 9.62896 7.82914C9.51956 7.71975 9.45811 7.57138 9.45811 7.41667V6.6875C9.45811 6.64882 9.44274 6.61173 9.41539 6.58438C9.38805 6.55703 9.35095 6.54167 9.31228 6.54167H7.12484C6.97013 6.54167 6.82176 6.48021 6.71237 6.37081C6.60298 6.26142 6.54152 6.11304 6.54152 5.95833C6.54152 5.80362 6.60298 5.65525 6.71237 5.54585C6.82176 5.43646 6.97013 5.375 7.12484 5.375H9.31228C9.35095 5.375 9.38805 5.35963 9.41539 5.33229C9.44274 5.30494 9.45811 5.26784 9.45811 5.22917V4.5C9.45804 4.38911 9.48958 4.28049 9.54903 4.18689C9.60848 4.09328 9.69338 4.01856 9.79378 3.97148C9.89418 3.9244 10.0059 3.90692 10.1159 3.92108C10.2259 3.93523 10.3295 3.98045 10.4147 4.05142L12.1647 5.50975C12.2304 5.56449 12.2834 5.63303 12.3197 5.7105C12.356 5.78797 12.3748 5.87248 12.3748 5.95804C12.3748 6.0436 12.356 6.12811 12.3197 6.20558C12.2834 6.28305 12.2304 6.35159 12.1647 6.40633L10.4147 7.86467C10.31 7.95205 10.1779 7.99994 10.0414 8Z" fill="url(#paint0_linear)"/>
</g>
<defs>
<linearGradient id="paint0_linear" x1="7.99981" y1="1" x2="7.99981" y2="15" gradientUnits="userSpaceOnUse">
<stop stop-color="white"/>
<stop offset="1" stop-color="white" stop-opacity="0.8"/>
</linearGradient>
</defs>
</svg>