<svg width="22" height="23" viewBox="0 0 22 23" fill="none" xmlns="http://www.w3.org/2000/svg">
<g opacity="0.6">
<g filter="url(#filter0_d)">
<path d="M7.43516 9.88136C6.96404 9.17656 6.71259 8.34794 6.71259 7.50029C6.71387 6.36402 7.166 5.27465 7.96978 4.47118C8.77356 3.66772 9.86335 3.21577 11.0001 3.21448C11.848 3.21448 12.677 3.46584 13.3821 3.93677C14.0871 4.4077 14.6367 5.07705 14.9612 5.86018C15.2857 6.64331 15.3706 7.50504 15.2052 8.33641C15.0397 9.16778 14.6314 9.93144 14.0318 10.5308C13.4322 11.1302 12.6682 11.5384 11.8365 11.7038C11.0048 11.8691 10.1427 11.7842 9.35931 11.4599C8.57588 11.1355 7.90627 10.5862 7.43516 9.88136Z" fill="url(#paint0_linear)"/>
<path d="M5.66864 12.0233C5.69188 12.0507 5.70463 12.0855 5.70463 12.1215C5.70463 12.1575 5.69188 12.1923 5.66864 12.2197L5.3955 12.5438C5.3452 12.602 5.31158 12.6727 5.29824 12.7484C5.28489 12.8241 5.2923 12.902 5.31968 12.9738C5.34707 13.0457 5.39341 13.1087 5.45378 13.1564C5.51415 13.204 5.58629 13.2344 5.66256 13.2443L7.40845 13.493C7.47426 13.5213 7.5449 13.5366 7.6165 13.538C7.63596 13.538 7.65482 13.5332 7.67733 13.5314L7.80204 13.549C7.82221 13.5516 7.84252 13.553 7.86287 13.5532C7.93062 13.5538 7.99753 13.5382 8.05803 13.5077C8.11854 13.4772 8.17089 13.4328 8.21075 13.378C8.25061 13.3232 8.27682 13.2598 8.2872 13.1928C8.29758 13.1259 8.29184 13.0575 8.27045 12.9932L7.60555 10.9403C7.58288 10.8668 7.54072 10.8008 7.48354 10.7493C7.42635 10.6978 7.35629 10.6628 7.28079 10.648C7.20529 10.6331 7.12717 10.639 7.05475 10.665C6.98232 10.691 6.9183 10.7361 6.86947 10.7956L6.61823 11.0935C6.60356 11.111 6.58521 11.125 6.5645 11.1346C6.54378 11.1441 6.52121 11.149 6.49839 11.1489C6.47553 11.1481 6.45311 11.1423 6.4328 11.1318C6.41248 11.1212 6.39478 11.1063 6.38099 11.0881C5.70629 10.2235 5.2883 9.18686 5.1747 8.09629C5.0611 7.00573 5.25648 5.9052 5.73853 4.92029C6.22058 3.93539 6.96989 3.10577 7.90097 2.52611C8.83204 1.94645 9.90737 1.64009 11.0043 1.642C11.4207 1.64219 11.8361 1.68601 12.2434 1.77273C12.3177 1.79086 12.3948 1.79391 12.4703 1.78169C12.5457 1.76947 12.618 1.74223 12.6827 1.7016C12.7474 1.66096 12.8034 1.60775 12.8471 1.54512C12.8909 1.48249 12.9217 1.41171 12.9376 1.33697C12.9535 1.26224 12.9543 1.18507 12.9398 1.11004C12.9254 1.03501 12.896 0.963639 12.8534 0.900164C12.8109 0.836689 12.756 0.782397 12.6921 0.740505C12.6282 0.698613 12.5565 0.669974 12.4813 0.656283C11.4597 0.436903 10.4019 0.448622 9.38545 0.690583C8.36896 0.932544 7.41946 1.39862 6.60642 2.05472C5.79337 2.71081 5.13736 3.54031 4.6864 4.48253C4.23543 5.42474 4.00091 6.45582 4 7.50033C3.99834 9.15874 4.59021 10.763 5.66864 12.0233ZM16.3314 2.97675C16.3081 2.9493 16.2954 2.91451 16.2954 2.87854C16.2954 2.84258 16.3081 2.80779 16.3314 2.78034L16.6045 2.45623C16.6546 2.39807 16.6881 2.32744 16.7014 2.25181C16.7146 2.17619 16.7072 2.09839 16.6798 2.02665C16.6524 1.95492 16.6062 1.89192 16.5459 1.84433C16.4856 1.79674 16.4136 1.76633 16.3374 1.75632L14.5642 1.50335C14.4966 1.47982 14.4252 1.4695 14.3537 1.47295L14.201 1.45166C14.1289 1.4406 14.0551 1.44826 13.9867 1.47391C13.9184 1.49956 13.8578 1.54235 13.8108 1.59815C13.7637 1.65396 13.7318 1.72091 13.7181 1.79259C13.7045 1.86427 13.7094 1.93826 13.7326 2.00746L14.3945 4.06037C14.4181 4.13309 14.4607 4.1982 14.5179 4.24898C14.5751 4.29975 14.6449 4.33435 14.7199 4.34921C14.7472 4.35453 14.7749 4.35718 14.8026 4.35711C14.8651 4.35716 14.9268 4.34357 14.9834 4.31732C15.04 4.29106 15.0902 4.25276 15.1305 4.20509L15.3818 3.90713C15.3963 3.88978 15.4146 3.87591 15.4352 3.86655C15.4558 3.85719 15.4783 3.85258 15.5009 3.85304C15.5236 3.85351 15.5458 3.85905 15.5661 3.86925C15.5863 3.87945 15.604 3.89406 15.6178 3.91199C16.2925 4.776 16.7107 5.81219 16.8247 6.90234C16.9386 7.99249 16.7438 9.09271 16.2623 10.0775C15.7809 11.0623 15.0322 11.892 14.1018 12.4719C13.1713 13.0518 12.0965 13.3587 11 13.3574C10.5835 13.3576 10.1681 13.3137 9.76084 13.2267C9.68674 13.2092 9.60988 13.2066 9.53477 13.2191C9.45966 13.2317 9.38782 13.2591 9.32345 13.2998C9.25908 13.3404 9.20349 13.3936 9.15994 13.456C9.11639 13.5184 9.08575 13.589 9.06983 13.6634C9.05391 13.7378 9.05302 13.8147 9.06722 13.8895C9.08142 13.9643 9.11042 14.0355 9.15251 14.0989C9.19461 14.1623 9.24896 14.2167 9.31237 14.2589C9.37578 14.301 9.44697 14.3301 9.52177 14.3444C10.5432 14.5632 11.6006 14.5511 12.6167 14.3089C13.6328 14.0667 14.5819 13.6005 15.3945 12.9445C16.2072 12.2885 16.8629 11.4592 17.3137 10.5172C17.7645 9.57527 17.999 8.54451 18 7.50033C18.0018 5.84171 17.4099 4.23719 16.3314 2.97675Z" fill="url(#paint1_linear)"/>
</g>
</g>
<defs>
<filter id="filter0_d" x="0" y="0.5" width="22" height="22" filterUnits="userSpaceOnUse" color-interpolation-filters="sRGB">
<feFlood flood-opacity="0" result="BackgroundImageFix"/>
<feColorMatrix in="SourceAlpha" type="matrix" values="0 0 0 0 0 0 0 0 0 0 0 0 0 0 0 0 0 0 127 0" result="hardAlpha"/>
<feOffset dy="4"/>
<feGaussianBlur stdDeviation="2"/>
<feColorMatrix type="matrix" values="0 0 0 0 0 0 0 0 0 0 0 0 0 0 0 0 0 0 0.05 0"/>
<feBlend mode="normal" in2="BackgroundImageFix" result="effect1_dropShadow"/>
<feBlend mode="normal" in="SourceGraphic" in2="effect1_dropShadow" result="shape"/>
</filter>
<linearGradient id="paint0_linear" x1="11.0001" y1="3.21448" x2="11.0001" y2="11.7861" gradientUnits="userSpaceOnUse">
<stop stop-color="white"/>
<stop offset="1" stop-color="white" stop-opacity="0.8"/>
</linearGradient>
<linearGradient id="paint1_linear" x1="11" y1="0.5" x2="11" y2="14.5" gradientUnits="userSpaceOnUse">
<stop stop-color="white"/>
<stop offset="1" stop-color="white" stop-opacity="0.8"/>
</linearGradient>
</defs>
</svg>