<svg width="16" height="16" viewBox="0 0 16 16" fill="none" xmlns="http://www.w3.org/2000/svg">
    <path d="M13.1368 12.3794C12.4668 12.3794 11.8242 12.1132 11.3504 11.6395C10.8767 11.1657 10.6105 10.5231 10.6105 9.85309C10.6105 9.18307 10.8767 8.5405 11.3504 8.06672C11.8242 7.59295 12.4668 7.32678 13.1368 7.32678H14.6526C14.6972 7.32678 14.7401 7.30904 14.7717 7.27746C14.8033 7.24587 14.821 7.20303 14.821 7.15836V5.47416C14.821 5.02748 14.6436 4.5991 14.3277 4.28325C14.0119 3.9674 13.5835 3.78996 13.1368 3.78996H1.6842C1.23753 3.78996 0.809142 3.9674 0.493292 4.28325C0.177442 4.5991 0 5.02748 0 5.47416V14.232C0 14.6787 0.177442 15.1071 0.493292 15.4229C0.809142 15.7388 1.23753 15.9162 1.6842 15.9162H13.1368C13.5835 15.9162 14.0119 15.7388 14.3277 15.4229C14.6436 15.1071 14.821 14.6787 14.821 14.232V12.5478C14.821 12.5031 14.8033 12.4603 14.7717 12.4287C14.7401 12.3971 14.6972 12.3794 14.6526 12.3794H13.1368Z" fill="url(#paint0_linear)"/>
    <path d="M15.1578 8.33736H13.1368C12.7348 8.33736 12.3492 8.49706 12.065 8.78132C11.7807 9.06559 11.621 9.45113 11.621 9.85314C11.621 10.2552 11.7807 10.6407 12.065 10.925C12.3492 11.2092 12.7348 11.3689 13.1368 11.3689H15.1578C15.3954 11.328 15.6105 11.2038 15.7648 11.0186C15.9191 10.8335 16.0025 10.5994 15.9999 10.3584V9.34788C16.0025 9.10687 15.9191 8.87282 15.7648 8.68766C15.6105 8.5025 15.3954 8.37832 15.1578 8.33736ZM13.2628 0.70859C13.2364 0.602614 13.1892 0.502951 13.1239 0.415423C13.0586 0.327896 12.9765 0.254259 12.8825 0.198814C12.7884 0.14337 12.6842 0.10723 12.576 0.0925049C12.4678 0.0777803 12.3577 0.0847665 12.2522 0.113056L3.58062 2.44736C3.54141 2.45817 3.50744 2.48281 3.48498 2.51671C3.46252 2.55062 3.45309 2.59151 3.45843 2.63183C3.46376 2.67214 3.48351 2.70917 3.51402 2.73606C3.54453 2.76296 3.58374 2.7779 3.62441 2.77814L13.5679 2.79296C13.5936 2.79315 13.619 2.78744 13.6422 2.77626C13.6653 2.76509 13.6856 2.74874 13.7014 2.7285C13.7172 2.70826 13.7281 2.68465 13.7334 2.6595C13.7386 2.63435 13.7381 2.60833 13.7317 2.58345L13.2628 0.70859Z" fill="url(#paint1_linear)"/>
    <defs>
        <linearGradient id="paint0_linear" x1="7.4105" y1="3.78996" x2="7.4105" y2="15.9162" gradientUnits="userSpaceOnUse">
            <stop stop-color="white"/>
            <stop offset="1" stop-color="white" stop-opacity="0.8"/>
        </linearGradient>
        <linearGradient id="paint1_linear" x1="9.72848" y1="0.0849991" x2="9.72848" y2="11.3689" gradientUnits="userSpaceOnUse">
            <stop stop-color="white"/>
            <stop offset="1" stop-color="white" stop-opacity="0.8"/>
        </linearGradient>
    </defs>
</svg>
