<svg width="16" height="16" viewBox="0 0 16 16" fill="none" xmlns="http://www.w3.org/2000/svg">
    <path d="M10.5735 6.98307C10.6258 6.96052 10.6713 6.92497 10.7059 6.87981C10.7405 6.83465 10.7629 6.78139 10.771 6.7251C10.7792 6.66881 10.7728 6.61137 10.7524 6.55826C10.7321 6.50515 10.6985 6.45814 10.6548 6.42172C10.3627 6.17825 10.0382 5.97656 9.69056 5.82241C9.66297 5.81049 9.63913 5.79129 9.6216 5.76687C9.60407 5.74245 9.59351 5.71373 9.59105 5.68377C9.58859 5.65381 9.59431 5.62375 9.60762 5.59679C9.62093 5.56984 9.64131 5.54701 9.66659 5.53074C10.2107 5.17753 10.626 4.65787 10.8506 4.04929C11.0752 3.44071 11.0971 2.77583 10.9129 2.15383C10.7287 1.53182 10.3484 0.986033 9.82859 0.597877C9.30883 0.209721 8.67751 0 8.02881 0C7.38011 0 6.74879 0.209721 6.22903 0.597877C5.70927 0.986033 5.32893 1.53182 5.14474 2.15383C4.96055 2.77583 4.98239 3.44071 5.20699 4.04929C5.43159 4.65787 5.84693 5.17753 6.39104 5.53074C6.41614 5.54709 6.43637 5.56991 6.44959 5.5968C6.46281 5.62369 6.46852 5.65364 6.46614 5.68351C6.46375 5.71337 6.45335 5.74204 6.43603 5.76649C6.41871 5.79093 6.39511 5.81025 6.36773 5.82241C6.01167 5.97967 5.67983 6.18685 5.3822 6.4377C5.3391 6.47411 5.30596 6.52088 5.2859 6.57361C5.26583 6.62634 5.2595 6.68331 5.26749 6.73916C5.27547 6.79502 5.29752 6.84792 5.33157 6.89292C5.36561 6.93791 5.41053 6.97351 5.46211 6.99639C6.07791 7.2717 6.61464 7.69737 7.02297 8.23429C7.05399 8.27564 7.0942 8.30921 7.14043 8.33232C7.18666 8.35544 7.23764 8.36747 7.28933 8.36747H8.71036C8.76205 8.36747 8.81303 8.35544 8.85926 8.33232C8.90549 8.30921 8.94571 8.27564 8.97672 8.23429C9.39338 7.68767 9.94313 7.2569 10.5735 6.98307ZM6.44963 2.48226C6.45812 2.45859 6.47186 2.43714 6.48981 2.41954C6.50777 2.40194 6.52949 2.38863 6.55332 2.38062C6.57716 2.37261 6.6025 2.37011 6.62745 2.37329C6.65239 2.37648 6.67629 2.38528 6.69735 2.39902C7.32551 2.80901 8.05946 3.02721 8.80958 3.02697C9.04109 3.02585 9.272 3.00357 9.49945 2.96038C9.52413 2.95583 9.54952 2.95692 9.57373 2.96357C9.59793 2.97022 9.62031 2.98226 9.6392 2.99878C9.6581 3.01531 9.67301 3.03589 9.68283 3.05899C9.69264 3.08209 9.69711 3.10711 9.69589 3.13218C9.67152 3.56825 9.47756 3.9775 9.15546 4.27246C8.83336 4.56743 8.40867 4.72472 7.97214 4.71072C7.53561 4.69672 7.12187 4.51254 6.81933 4.19754C6.51679 3.88254 6.34946 3.46171 6.35308 3.02497C6.35372 2.83985 6.38639 2.65624 6.44963 2.48226ZM6.84451 10.6582C6.84728 10.1361 6.71414 9.62239 6.45819 9.16741C6.20223 8.71244 5.83227 8.33192 5.38468 8.06326C4.9371 7.79459 4.42729 7.64705 3.9054 7.63512C3.38351 7.6232 2.8675 7.7473 2.40811 7.99524C1.94872 8.24318 1.56176 8.60641 1.28529 9.04922C1.00882 9.49202 0.852356 9.99916 0.83128 10.5208C0.810204 11.0424 0.925243 11.5605 1.16508 12.0241C1.40493 12.4878 1.76131 12.8811 2.1992 13.1653C2.22412 13.1818 2.24416 13.2046 2.25724 13.2315C2.27032 13.2583 2.27597 13.2882 2.27359 13.318C2.27121 13.3478 2.26089 13.3764 2.24371 13.4008C2.22653 13.4252 2.20311 13.4446 2.1759 13.4569C1.92099 13.5694 1.67842 13.708 1.45207 13.8705C0.9387 14.2349 0.516428 14.713 0.218157 15.2675C0.177856 15.3435 0.157883 15.4286 0.160177 15.5145C0.162471 15.6005 0.186954 15.6844 0.231248 15.7581C0.275542 15.8318 0.338143 15.8929 0.412973 15.9352C0.487803 15.9776 0.572319 15.9999 0.658315 16H7.01498C7.10098 15.9999 7.18549 15.9776 7.26032 15.9352C7.33515 15.8929 7.39776 15.8318 7.44205 15.7581C7.48634 15.6844 7.51083 15.6005 7.51312 15.5145C7.51541 15.4286 7.49544 15.3435 7.45514 15.2675C7.15704 14.7126 6.73475 14.234 6.22123 13.8691C5.99488 13.7067 5.75231 13.5681 5.4974 13.4556C5.47002 13.4434 5.44642 13.4241 5.4291 13.3997C5.41178 13.3752 5.40138 13.3466 5.39899 13.3167C5.3966 13.2868 5.40232 13.2569 5.41554 13.23C5.42876 13.2031 5.44899 13.1803 5.47409 13.1639C5.89338 12.8937 6.23841 12.5229 6.47776 12.0852C6.71712 11.6476 6.84319 11.157 6.84451 10.6582ZM2.25714 10.1135C2.26562 10.0898 2.27936 10.0683 2.29732 10.0507C2.31528 10.0331 2.33699 10.0198 2.36083 10.0118C2.38466 10.0038 2.41001 10.0013 2.43495 10.0045C2.4599 10.0077 2.48379 10.0165 2.50485 10.0302C3.13301 10.4402 3.86696 10.6584 4.61708 10.6582C4.84859 10.6571 5.07951 10.6348 5.30695 10.5916C5.33167 10.5873 5.35703 10.5885 5.3812 10.5952C5.40538 10.6019 5.42778 10.6138 5.44679 10.6302C5.46564 10.6467 5.48052 10.6673 5.49032 10.6903C5.50012 10.7134 5.50459 10.7383 5.50339 10.7634C5.47902 11.1994 5.28506 11.6087 4.96296 11.9037C4.64086 12.1986 4.21617 12.3559 3.77964 12.3419C3.34311 12.3279 2.92937 12.1437 2.62683 11.8287C2.3243 11.5137 2.15696 11.0929 2.16058 10.6562C2.16123 10.471 2.19389 10.2874 2.25714 10.1135ZM14.545 13.8691C14.3186 13.7067 14.076 13.5681 13.8211 13.4556C13.7937 13.4434 13.7702 13.4241 13.7528 13.3997C13.7355 13.3752 13.7251 13.3466 13.7227 13.3167C13.7203 13.2868 13.7261 13.2569 13.7393 13.23C13.7525 13.2031 13.7727 13.1803 13.7978 13.1639C14.342 12.8108 14.7574 12.2911 14.9821 11.6825C15.2068 11.074 15.2287 10.409 15.0445 9.78699C14.8603 9.16495 14.48 8.61911 13.9602 8.23091C13.4405 7.84272 12.8091 7.63298 12.1604 7.63298C11.5116 7.63298 10.8803 7.84272 10.3605 8.23091C9.84075 8.61911 9.46041 9.16495 9.27625 9.78699C9.0921 10.409 9.11399 11.074 9.33866 11.6825C9.56334 12.2911 9.97875 12.8108 10.5229 13.1639C10.5478 13.1804 10.5679 13.2033 10.581 13.2301C10.5941 13.257 10.5997 13.2869 10.5973 13.3166C10.5949 13.3464 10.5846 13.375 10.5674 13.3995C10.5503 13.4239 10.5268 13.4433 10.4996 13.4556C10.2447 13.5681 10.0021 13.7067 9.7758 13.8691C9.26227 14.234 8.83999 14.7126 8.54189 15.2675C8.50159 15.3435 8.48161 15.4286 8.48391 15.5145C8.4862 15.6005 8.51068 15.6844 8.55498 15.7581C8.59927 15.8318 8.66187 15.8929 8.7367 15.9352C8.81153 15.9776 8.89605 15.9999 8.98205 16H15.3387C15.4247 15.9999 15.5092 15.9776 15.5841 15.9352C15.6589 15.8929 15.7215 15.8318 15.7658 15.7581C15.8101 15.6844 15.8346 15.6005 15.8369 15.5145C15.8391 15.4286 15.8192 15.3435 15.7789 15.2675C15.4808 14.7126 15.0585 14.234 14.545 13.8691ZM10.5809 10.1135C10.5894 10.0898 10.6031 10.0683 10.621 10.0507C10.639 10.0331 10.6607 10.0198 10.6846 10.0118C10.7084 10.0038 10.7337 10.0013 10.7587 10.0045C10.7836 10.0077 10.8075 10.0165 10.8286 10.0302C11.4567 10.4402 12.1907 10.6584 12.9408 10.6582C13.1723 10.6571 13.4032 10.6348 13.6307 10.5916C13.6554 10.5873 13.6808 10.5885 13.7049 10.5952C13.7291 10.6019 13.7515 10.6138 13.7705 10.6302C13.7894 10.6467 13.8042 10.6673 13.814 10.6903C13.8239 10.7134 13.8283 10.7383 13.8271 10.7634C13.8028 11.1994 13.6088 11.6087 13.2867 11.9037C12.9646 12.1986 12.5399 12.3559 12.1034 12.3419C11.6668 12.3279 11.2531 12.1437 10.9506 11.8287C10.648 11.5137 10.4807 11.0929 10.4843 10.6562C10.485 10.471 10.5176 10.2874 10.5809 10.1135Z" fill="url(#paint0_linear)"/>
    <defs>
        <linearGradient id="paint0_linear" x1="7.99851" y1="0" x2="7.99851" y2="16" gradientUnits="userSpaceOnUse">
            <stop stop-color="white"/>
            <stop offset="1" stop-color="white" stop-opacity="0.8"/>
        </linearGradient>
    </defs>
</svg>
