<svg width="22" height="21" viewBox="0 0 22 21" fill="none" xmlns="http://www.w3.org/2000/svg">
<g opacity="0.6">
<g filter="url(#filter0_d_12055_2780)">
<path fill-rule="evenodd" clip-rule="evenodd" d="M14.3167 6.00569C14.3167 6.03204 14.3085 6.05775 14.2932 6.07919C14.1332 6.34331 13.9149 6.56729 13.655 6.73398C13.395 6.90066 13.1004 7.00562 12.7936 7.04081C12.5269 7.07078 12.2569 7.03147 12.0098 6.92669C11.7626 6.8219 11.5467 6.65518 11.3828 6.44261V2.02955C11.383 1.99574 11.3964 1.96334 11.4201 1.9392C11.4441 1.91534 11.4766 1.90194 11.5104 1.90194H13.3106C13.3374 1.90196 13.3635 1.9104 13.3852 1.92607C13.4069 1.94173 13.4232 1.96383 13.4316 1.98923L14.31 4.62195C14.3146 4.63491 14.3168 4.64855 14.3167 4.66228V6.00569ZM10.6172 2.02751V6.44057C10.455 6.65325 10.2404 6.82023 9.99438 6.92517C9.74835 7.03011 9.47931 7.06943 9.21354 7.03928C8.90482 7.00568 8.60802 6.90129 8.34624 6.73424C8.08445 6.56718 7.86475 6.34197 7.70424 6.07613C7.68928 6.05453 7.68127 6.02889 7.68127 6.00263V4.66228C7.68115 4.64855 7.68339 4.63491 7.6879 4.62195L8.56633 1.98718C8.57479 1.96178 8.59102 1.93969 8.61273 1.92403C8.63444 1.90836 8.66053 1.89992 8.6873 1.8999H10.4896C10.5234 1.8999 10.5559 1.91335 10.5798 1.93728C10.6037 1.96121 10.6172 1.99366 10.6172 2.02751ZM6.91667 4.57959V6.11084C6.77195 6.28262 6.57435 6.40157 6.3548 6.44904C6.13526 6.49652 5.90617 6.46984 5.70341 6.37319C5.45972 6.26658 5.25196 6.09195 5.10503 5.87024C4.9581 5.64853 4.87823 5.38914 4.875 5.12318V4.64033C4.87551 4.62478 4.87862 4.60943 4.88419 4.5949L5.8453 2.07395C5.88767 1.96217 5.95861 1.90194 6.00353 1.90194H7.61389C7.6337 1.90194 7.65324 1.90656 7.67096 1.91542C7.68868 1.92427 7.70409 1.93714 7.71598 1.95299C7.72783 1.96935 7.73558 1.98832 7.7386 2.0083C7.74162 2.02828 7.73981 2.04869 7.73333 2.06783L6.93606 4.45862C6.9233 4.49768 6.91675 4.5385 6.91667 4.57959ZM14.6913 6.87639C14.7213 6.87256 14.7517 6.87946 14.7771 6.89586C15.1282 7.132 15.5463 7.24821 15.9689 7.22712C15.9863 7.22615 16.0037 7.22873 16.02 7.2347C16.0363 7.24067 16.0513 7.2499 16.064 7.26184C16.0766 7.27378 16.0867 7.28818 16.0936 7.30414C16.1005 7.32011 16.1041 7.33732 16.1042 7.35472V12.2343C16.1042 12.4374 16.0235 12.6321 15.8799 12.7757C15.7363 12.9193 15.5416 12.9999 15.3385 12.9999H6.66146C6.4584 12.9999 6.26366 12.9193 6.12008 12.7757C5.9765 12.6321 5.89583 12.4374 5.89583 12.2343V7.3486C5.89603 7.3316 5.89961 7.31481 5.90636 7.2992C5.91311 7.2836 5.9229 7.2695 5.93516 7.25771C5.94741 7.24593 5.96189 7.23671 5.97775 7.23058C5.99361 7.22445 6.01053 7.22154 6.02752 7.22201C6.44894 7.24074 6.86545 7.12549 7.2173 6.89279C7.24268 6.87669 7.27293 6.87006 7.30271 6.87408C7.3325 6.87809 7.35992 6.89249 7.38012 6.91474C7.83417 7.42591 8.467 7.74343 9.14821 7.80185C9.21762 7.80746 9.28551 7.81052 9.35237 7.81052C9.92396 7.80959 10.4777 7.61125 10.9199 7.24907C10.9424 7.23114 10.9704 7.22138 10.9992 7.22138C11.0281 7.22138 11.056 7.23114 11.0786 7.24907C11.578 7.65258 12.2126 7.85029 12.8528 7.80185C13.5311 7.74252 14.161 7.42584 14.6132 6.91678C14.6337 6.89453 14.6613 6.88022 14.6913 6.87639ZM12.5953 8.96813C12.5571 9.00266 12.534 9.05093 12.5312 9.10239V11.7999C12.5312 11.8676 12.5581 11.9325 12.606 11.9804C12.6539 12.0283 12.7188 12.0551 12.7865 12.0551H14.3177C14.3854 12.0551 14.4503 12.0283 14.4982 11.9804C14.546 11.9325 14.5729 11.8676 14.5729 11.7999V9.10239C14.5701 9.05093 14.5471 9.00266 14.5088 8.96813C14.4706 8.9336 14.4202 8.91562 14.3687 8.91813H12.7354C12.6839 8.91562 12.6336 8.9336 12.5953 8.96813ZM7.74298 8.96369C7.70713 8.99552 7.68531 9.04024 7.68229 9.0881L7.68127 10.7898C7.68429 10.8377 7.70611 10.8824 7.74196 10.9142C7.77782 10.9461 7.8248 10.9624 7.87268 10.9598H10.5513C10.5992 10.9624 10.6462 10.9461 10.6821 10.9142C10.7179 10.8824 10.7397 10.8377 10.7427 10.7898V9.0881C10.7397 9.04024 10.7179 8.99552 10.6821 8.96369C10.6462 8.93185 10.5992 8.91547 10.5513 8.91813H7.8737C7.82582 8.91547 7.77884 8.93185 7.74298 8.96369ZM14.3871 1.8999H15.9965C16.0414 1.8999 16.1123 1.96013 16.1552 2.07191L17.1168 4.5949C17.122 4.60949 17.1248 4.62484 17.125 4.64033V5.12318C17.1219 5.38969 17.0421 5.64967 16.8951 5.87199C16.7481 6.09431 16.5401 6.26956 16.2961 6.37676C16.1055 6.45387 15.8979 6.47927 15.6944 6.45041C15.4909 6.42155 15.2985 6.33945 15.1369 6.21241C15.1201 6.20036 15.1064 6.18441 15.0971 6.16592C15.0877 6.14743 15.083 6.12695 15.0833 6.10624V4.57959C15.0829 4.53844 15.076 4.49762 15.0629 4.45862L14.2677 2.06579C14.2612 2.04665 14.2594 2.02624 14.2624 2.00626C14.2654 1.98628 14.2732 1.96731 14.285 1.95094C14.297 1.93515 14.3124 1.92233 14.3301 1.91348C14.3478 1.90463 14.3673 1.89998 14.3871 1.8999Z" fill="url(#paint0_linear_12055_2780)"/>
</g>
</g>
<defs>
<filter id="filter0_d_12055_2780" x="0.875" y="1.8999" width="20.25" height="19.1001" filterUnits="userSpaceOnUse" color-interpolation-filters="sRGB">
<feFlood flood-opacity="0" result="BackgroundImageFix"/>
<feColorMatrix in="SourceAlpha" type="matrix" values="0 0 0 0 0 0 0 0 0 0 0 0 0 0 0 0 0 0 127 0" result="hardAlpha"/>
<feOffset dy="4"/>
<feGaussianBlur stdDeviation="2"/>
<feColorMatrix type="matrix" values="0 0 0 0 0 0 0 0 0 0 0 0 0 0 0 0 0 0 0.05 0"/>
<feBlend mode="normal" in2="BackgroundImageFix" result="effect1_dropShadow_12055_2780"/>
<feBlend mode="normal" in="SourceGraphic" in2="effect1_dropShadow_12055_2780" result="shape"/>
</filter>
<linearGradient id="paint0_linear_12055_2780" x1="11" y1="1.8999" x2="11" y2="12.9999" gradientUnits="userSpaceOnUse">
<stop stop-color="white"/>
<stop offset="1" stop-color="white" stop-opacity="0.8"/>
</linearGradient>
</defs>
</svg>
