<svg width="4" height="10" viewBox="0 0 4 10" fill="none" xmlns="http://www.w3.org/2000/svg">
<path d="M3.375 1.76251C3.375 1.96029 3.31635 2.15363 3.20647 2.31808C3.09659 2.48253 2.94041 2.6107 2.75768 2.68639C2.57496 2.76208 2.37389 2.78188 2.17991 2.7433C1.98593 2.70471 1.80775 2.60947 1.66789 2.46962C1.52804 2.32977 1.4328 2.15158 1.39421 1.9576C1.35563 1.76362 1.37543 1.56255 1.45112 1.37983C1.52681 1.1971 1.65498 1.04092 1.81943 0.931043C1.98388 0.821161 2.17722 0.762512 2.375 0.762512C2.64022 0.762512 2.89457 0.867869 3.08211 1.05541C3.26964 1.24294 3.375 1.4973 3.375 1.76251ZM1.875 8.48751V5.50251C1.875 5.43621 1.84866 5.37262 1.80178 5.32574C1.75489 5.27885 1.6913 5.25251 1.625 5.25251H1.375C1.17609 5.25251 0.985322 5.17349 0.844669 5.03284C0.704017 4.89219 0.625 4.70143 0.625 4.50251C0.625 4.3036 0.704017 4.11283 0.844669 3.97218C0.985322 3.83153 1.17609 3.75251 1.375 3.75251H2.62C2.81891 3.75251 3.00968 3.83153 3.15033 3.97218C3.29098 4.11283 3.37 4.3036 3.37 4.50251V8.48751C3.37 8.68642 3.29098 8.87719 3.15033 9.01784C3.00968 9.15849 2.81891 9.23751 2.62 9.23751C2.42109 9.23751 2.23032 9.15849 2.08967 9.01784C1.94902 8.87719 1.87 8.68642 1.87 8.48751H1.875Z" fill="#A8A8A8"/>
</svg>
