

<svg width="14" height="14" viewBox="0 0 14 14" fill="none" xmlns="http://www.w3.org/2000/svg">
<path d="M11.9998 0H10.1665C10.1223 0 10.0799 0.0175595 10.0487 0.0488156C10.0174 0.0800716 9.99984 0.122464 9.99984 0.166667V1.16667C9.99984 1.21087 10.0174 1.25326 10.0487 1.28452C10.0799 1.31577 10.1223 1.33333 10.1665 1.33333H11.6665C11.7549 1.33333 11.8397 1.36845 11.9022 1.43096C11.9647 1.49348 11.9998 1.57826 11.9998 1.66667V10.1947C11.9999 10.2385 11.9914 10.2819 11.9747 10.3224C11.958 10.3628 11.9334 10.3997 11.9025 10.4307L9.76384 12.5687C9.70137 12.631 9.61674 12.666 9.5285 12.666H2.33317C2.24477 12.666 2.15998 12.6309 2.09747 12.5684C2.03496 12.5059 1.99984 12.4211 1.99984 12.3327V1.66667C1.99984 1.57826 2.03496 1.49348 2.09747 1.43096C2.15998 1.36845 2.24477 1.33333 2.33317 1.33333H3.83317C3.87737 1.33333 3.91977 1.31577 3.95102 1.28452C3.98228 1.25326 3.99984 1.21087 3.99984 1.16667V0.166667C3.99984 0.122464 3.98228 0.0800716 3.95102 0.0488156C3.91977 0.0175595 3.87737 0 3.83317 0H1.99984C1.64622 0 1.30708 0.140476 1.05703 0.390524C0.80698 0.640573 0.666504 0.979711 0.666504 1.33333V12.6667C0.666504 13.0203 0.80698 13.3594 1.05703 13.6095C1.30708 13.8595 1.64622 14 1.99984 14H11.9998C12.3535 14 12.6926 13.8595 12.9426 13.6095C13.1927 13.3594 13.3332 13.0203 13.3332 12.6667V1.33333C13.3332 0.979711 13.1927 0.640573 12.9426 0.390524C12.6926 0.140476 12.3535 0 11.9998 0Z" fill="#222222"/>
</svg>
