<svg width="12" height="14" viewBox="0 0 12 14" fill="none" xmlns="http://www.w3.org/2000/svg">
<path d="M11.6087 2L10 0.390667C9.87606 0.266688 9.72889 0.168367 9.5669 0.101332C9.40492 0.0342967 9.23131 -0.000137404 9.056 4.12054e-07H1.33333C0.979711 4.12054e-07 0.640573 0.140476 0.390524 0.390525C0.140476 0.640573 0 0.979712 0 1.33333V5.86133C0.000367606 5.90333 0.01645 5.94366 0.045078 5.97439C0.0737059 6.00511 0.112803 6.024 0.154667 6.02733C0.480583 6.04606 0.804249 6.09312 1.122 6.168C1.14672 6.17502 1.17273 6.1762 1.19798 6.17146C1.22324 6.16671 1.24705 6.15617 1.26753 6.14066C1.28802 6.12515 1.30463 6.10509 1.31605 6.08207C1.32746 6.05905 1.33338 6.0337 1.33333 6.008V1.66667C1.33333 1.57826 1.36845 1.49348 1.43096 1.43096C1.49348 1.36845 1.57826 1.33333 1.66667 1.33333H8.91867C9.007 1.33353 9.09164 1.36878 9.154 1.43133L10.568 2.84533C10.5991 2.87616 10.6238 2.91281 10.6407 2.95318C10.6577 2.99356 10.6665 3.03688 10.6667 3.08067V12C10.6667 12.0884 10.6315 12.1732 10.569 12.2357C10.5065 12.2982 10.4217 12.3333 10.3333 12.3333H5.50667C5.42497 12.3326 5.34598 12.3626 5.28533 12.4173C5.05 12.63 4.52733 13.0507 4.46667 13.1367C4.438 13.1767 4.46667 13.2207 4.484 13.2553C4.52467 13.35 4.58067 13.492 4.61733 13.5813C4.62916 13.6067 4.648 13.6281 4.67163 13.6431C4.69526 13.6581 4.72268 13.6661 4.75067 13.666H10.6667C11.0203 13.666 11.3594 13.5255 11.6095 13.2755C11.8595 13.0254 12 12.6863 12 12.3327V2.94333C12 2.76809 11.9654 2.59458 11.8982 2.43271C11.8311 2.27085 11.7327 2.12381 11.6087 2Z" fill="#222222"/>
</svg>
