
            <svg width="14" height="16" viewBox="0 0 14 16" fill="none" xmlns="http://www.w3.org/2000/svg">
                <path d="M13.0002 11.6667C12.7349 11.6667 12.4806 11.5613 12.2931 11.3738C12.1055 11.1862 12.0002 10.9319 12.0002 10.6667V7.42533C12.0387 6.15939 11.6229 4.92146 10.8282 3.93533C10.0334 2.94921 8.91205 2.27999 7.66683 2.04867V0.666667C7.66683 0.489856 7.59659 0.320286 7.47157 0.195262C7.34654 0.0702379 7.17697 0 7.00016 0C6.82335 0 6.65378 0.0702379 6.52876 0.195262C6.40373 0.320286 6.3335 0.489856 6.3335 0.666667V2.04867C5.08828 2.27999 3.96691 2.94921 3.17215 3.93533C2.37738 4.92146 1.96167 6.15939 2.00016 7.42533V10.6667C2.00016 10.9319 1.89481 11.1862 1.70727 11.3738C1.51973 11.5613 1.26538 11.6667 1.00016 11.6667C0.823352 11.6667 0.653782 11.7369 0.528758 11.8619C0.403734 11.987 0.333496 12.1565 0.333496 12.3333C0.333496 12.5101 0.403734 12.6797 0.528758 12.8047C0.653782 12.9298 0.823352 13 1.00016 13H13.0002C13.177 13 13.3465 12.9298 13.4716 12.8047C13.5966 12.6797 13.6668 12.5101 13.6668 12.3333C13.6668 12.1565 13.5966 11.987 13.4716 11.8619C13.3465 11.7369 13.177 11.6667 13.0002 11.6667ZM8.49083 14H5.5095C5.46857 14.0001 5.42911 14.0152 5.39862 14.0425C5.36813 14.0698 5.34875 14.1073 5.34416 14.148C5.3369 14.2095 5.33334 14.2714 5.3335 14.3333C5.3335 14.7754 5.50909 15.1993 5.82165 15.5118C6.13421 15.8244 6.55814 16 7.00016 16C7.44219 16 7.86611 15.8244 8.17867 15.5118C8.49123 15.1993 8.66683 14.7754 8.66683 14.3333C8.66699 14.2714 8.66343 14.2095 8.65616 14.148C8.65186 14.1072 8.63256 14.0695 8.60201 14.0421C8.57146 14.0148 8.53183 13.9998 8.49083 14Z" fill="#222222" />
            </svg>

       