

            <svg width="16" height="16" viewBox="0 0 16 16" fill="none" xmlns="http://www.w3.org/2000/svg">
                <path d="M15.6092 13.7273L12.5125 10.6306C13.4554 9.21922 13.8396 7.50753 13.5903 5.82854C13.341 4.14954 12.4762 2.62329 11.1639 1.54665C9.85167 0.470017 8.18586 -0.0800194 6.49052 0.00353402C4.79518 0.0870875 3.19153 0.798257 1.99151 1.99871C0.791479 3.19916 0.0808763 4.80306 -0.00207777 6.49843C-0.0850318 8.1938 0.465594 9.85941 1.54269 11.1713C2.61979 12.4832 4.14635 13.3475 5.82544 13.5961C7.50452 13.8448 9.21607 13.46 10.6272 12.5166L13.7238 15.6126C13.976 15.8586 14.3143 15.9963 14.6665 15.9963C15.0187 15.9963 15.357 15.8586 15.6092 15.6126C15.8591 15.3626 15.9995 15.0235 15.9995 14.67C15.9995 14.3164 15.8591 13.9773 15.6092 13.7273ZM6.83316 2.00331C7.7891 2.00331 8.72358 2.28678 9.51842 2.81787C10.3133 3.34897 10.9328 4.10383 11.2986 4.98701C11.6644 5.87018 11.7601 6.842 11.5736 7.77958C11.3871 8.71715 10.9268 9.57837 10.2508 10.2543C9.57489 10.9303 8.71367 11.3906 7.7761 11.5771C6.83852 11.7636 5.8667 11.6679 4.98352 11.3021C4.10035 10.9362 3.34548 10.3167 2.81439 9.5219C2.2833 8.72706 1.99983 7.79259 1.99983 6.83664C2.00124 5.5552 2.51091 4.32664 3.41703 3.42052C4.32315 2.5144 5.55171 2.00472 6.83316 2.00331Z" fill="#222222" />
            </svg>

    