<svg width="25" height="24" viewBox="0 0 25 24" fill="none" xmlns="http://www.w3.org/2000/svg">
<rect x="0.799805" width="24" height="24" rx="12" fill="white"/>
<path d="M12.8 9.00065C13.5215 9.00065 14.1063 8.4037 14.1063 7.66732C14.1063 6.93094 13.5215 6.33398 12.8 6.33398C12.0785 6.33398 11.4937 6.93094 11.4937 7.66732C11.4937 8.4037 12.0785 9.00065 12.8 9.00065Z" stroke="#484848" stroke-linecap="round" stroke-linejoin="round"/>
<path d="M14.105 7.66736H18.3656" stroke="#484848" stroke-linecap="round" stroke-linejoin="round"/>
<path d="M7.26172 7.66736H11.491" stroke="#484848" stroke-linecap="round" stroke-linejoin="round"/>
<path d="M10.1872 13.334C10.9087 13.334 11.4935 12.7371 11.4935 12.0007C11.4935 11.2643 10.9087 10.6674 10.1872 10.6674C9.46573 10.6674 8.88086 11.2643 8.88086 12.0007C8.88086 12.7371 9.46573 13.334 10.1872 13.334Z" stroke="#484848" stroke-linecap="round" stroke-linejoin="round"/>
<path d="M11.4912 12.0007H18.3658" stroke="#484848" stroke-linecap="round" stroke-linejoin="round"/>
<path d="M7.26172 12.0007H8.87832" stroke="#484848" stroke-linecap="round" stroke-linejoin="round"/>
<path d="M11.4938 17.6673C12.2153 17.6673 12.8002 17.0704 12.8002 16.334C12.8002 15.5976 12.2153 15.0007 11.4938 15.0007C10.7724 15.0007 10.1875 15.5976 10.1875 16.334C10.1875 17.0704 10.7724 17.6673 11.4938 17.6673Z" stroke="#484848" stroke-linecap="round" stroke-linejoin="round"/>
<path d="M12.7974 16.334H18.3656" stroke="#484848" stroke-linecap="round" stroke-linejoin="round"/>
<path d="M7.26172 16.334H10.1873" stroke="#484848" stroke-linecap="round" stroke-linejoin="round"/>
</svg>
