<svg width="12" height="8" viewBox="0 0 12 8" fill="none" xmlns="http://www.w3.org/2000/svg">
<path d="M3.50002 4.85299C3.81852 5.1547 4.2425 5.31972 4.68116 5.31271C5.11983 5.3057 5.53831 5.12722 5.84702 4.81549L6.91602 3.74699C6.96128 3.70186 7.0226 3.67652 7.08652 3.67652C7.15044 3.67652 7.21175 3.70186 7.25702 3.74699L9.04302 5.53299C9.05428 5.54414 9.06322 5.55742 9.06932 5.57205C9.07542 5.58669 9.07856 5.60238 9.07856 5.61824C9.07856 5.63409 9.07542 5.64979 9.06932 5.66442C9.06322 5.67905 9.05428 5.69233 9.04302 5.70349L8.19302 6.55349C8.12543 6.62081 8.07933 6.70668 8.06057 6.80021C8.04182 6.89375 8.05124 6.99075 8.08764 7.07893C8.12405 7.16711 8.18581 7.2425 8.26509 7.29556C8.34437 7.34862 8.43762 7.37696 8.53302 7.37699H11.426C11.5538 7.37685 11.6763 7.32603 11.7667 7.23567C11.8571 7.1453 11.9079 7.02278 11.908 6.89499V4.00999C11.9078 3.91477 11.8795 3.82173 11.8266 3.74259C11.7736 3.66345 11.6985 3.60173 11.6105 3.56522C11.5226 3.52871 11.4258 3.51903 11.3324 3.53741C11.239 3.55578 11.1531 3.60139 11.0855 3.66849L10.2385 4.51249C10.2274 4.52367 10.2141 4.53255 10.1995 4.53861C10.1849 4.54466 10.1693 4.54778 10.1535 4.54778C10.1377 4.54778 10.1221 4.54466 10.1075 4.53861C10.0929 4.53255 10.0797 4.52367 10.0685 4.51249L8.27802 2.72399C7.95656 2.41708 7.52921 2.24584 7.08477 2.24584C6.64033 2.24584 6.21298 2.41708 5.89152 2.72399L4.82302 3.79299C4.77877 3.83737 4.71895 3.86273 4.65628 3.86366C4.59362 3.86459 4.53307 3.84103 4.48752 3.79799L1.31202 0.820986C1.17211 0.68977 0.985818 0.619504 0.794109 0.625646C0.6024 0.631788 0.420982 0.713834 0.289766 0.853736C0.158551 0.993637 0.0882846 1.17993 0.0944265 1.37164C0.100568 1.56335 0.182615 1.74477 0.322516 1.87599L3.50002 4.85299Z" fill="#FE6955"/>
</svg>
