<svg width="12" height="8" viewBox="0 0 12 8" fill="none" xmlns="http://www.w3.org/2000/svg">
<path d="M0.816981 7.375C1.00073 7.37537 1.17766 7.30542 1.31148 7.1795L4.48798 4.2C4.53345 4.15699 4.59392 4.13344 4.6565 4.13438C4.71908 4.13531 4.77882 4.16065 4.82298 4.205L5.89148 5.274C6.21294 5.58091 6.64029 5.75215 7.08473 5.75215C7.52917 5.75215 7.95652 5.58091 8.27798 5.274L10.0665 3.4855C10.0776 3.47432 10.0909 3.46544 10.1055 3.45938C10.1201 3.45333 10.1357 3.45021 10.1515 3.45021C10.1673 3.45021 10.1829 3.45333 10.1975 3.45938C10.2121 3.46544 10.2253 3.47432 10.2365 3.4855L11.0835 4.3295C11.1739 4.41952 11.2964 4.47004 11.424 4.47C11.5518 4.46987 11.6744 4.41906 11.7648 4.32871C11.8553 4.23836 11.9062 4.11584 11.9065 3.988V1.107C11.9063 0.979123 11.8555 0.856526 11.765 0.766148C11.6745 0.675769 11.5519 0.625004 11.424 0.625004H8.53148C8.43573 0.624633 8.34204 0.65279 8.26235 0.705883C8.18267 0.758977 8.1206 0.834601 8.08407 0.923112C8.04754 1.01162 8.0382 1.10901 8.05724 1.20285C8.07628 1.29669 8.12284 1.38273 8.19098 1.45L9.04098 2.3C9.06363 2.3227 9.0764 2.35344 9.07648 2.3855C9.07654 2.40132 9.07343 2.417 9.06733 2.43159C9.06123 2.44619 9.05227 2.45942 9.04098 2.4705L7.25498 4.257C7.20959 4.30189 7.14832 4.32706 7.08448 4.32706C7.02064 4.32706 6.95938 4.30189 6.91398 4.257L5.84498 3.188C5.5367 2.87662 5.11893 2.69804 4.68082 2.69038C4.24271 2.68272 3.81896 2.84659 3.49998 3.147L0.322481 6.124C0.21713 6.2233 0.143989 6.35192 0.112518 6.49323C0.081046 6.63453 0.0926908 6.78203 0.145946 6.91665C0.199202 7.05127 0.291618 7.16682 0.411246 7.24835C0.530874 7.32989 0.672211 7.37366 0.816981 7.374V7.375Z" fill="#5FCF64"/>
</svg>
