<svg width="24" height="25" viewBox="0 0 24 25" fill="none" xmlns="http://www.w3.org/2000/svg">
<path d="M12 1.35715C14.2039 1.35715 16.3582 2.01066 18.1907 3.23506C20.0231 4.45945 21.4513 6.19973 22.2947 8.23582C23.1381 10.2719 23.3587 12.5124 22.9288 14.6739C22.4988 16.8354 21.4376 18.8208 19.8792 20.3792C18.3209 21.9376 16.3354 22.9988 14.1739 23.4288C12.0124 23.8587 9.77195 23.638 7.73586 22.7947C5.69976 21.9513 3.95949 20.5231 2.7351 18.6906C1.5107 16.8582 0.857185 14.7039 0.857185 12.5C0.853653 9.30796 2.08179 6.23762 4.28576 3.92858" stroke="#A8A8A8" stroke-width="1.4" stroke-linecap="round" stroke-linejoin="round"/>
<path d="M0.857178 4.78573L4.28575 3.92859L5.14289 7.35716" stroke="#A8A8A8" stroke-width="1.4" stroke-linecap="round" stroke-linejoin="round"/>
<path d="M12 6.5V13.3571L16.4571 15.5857" stroke="#A8A8A8" stroke-width="1.4" stroke-linecap="round" stroke-linejoin="round"/>
</svg>
