<svg width="58" height="53" viewBox="0 0 58 53" fill="none" xmlns="http://www.w3.org/2000/svg">
<rect x="0.25" y="0.25" width="57.5" height="52.5" rx="3.75" fill="white" stroke="#EBEBEB" stroke-width="0.5"/>
<path d="M17.54 28.94V24.18H18.36V28.94H17.54ZM15.66 26.94V26.18H20.24V26.94H15.66ZM23.4538 30L26.0838 22.7H27.7438L30.4538 30H29.4438L26.9938 23.34L27.4738 23.58H26.2938L26.8038 23.34L24.4338 30H23.4538ZM25.0238 27.82L25.3538 26.94H28.5038L28.8338 27.82H25.0238ZM33.8238 30.18C33.4438 30.18 33.0938 30.11 32.7738 29.97C32.4538 29.83 32.1738 29.6333 31.9338 29.38C31.7005 29.1267 31.5172 28.8333 31.3838 28.5C31.2572 28.1667 31.1938 27.8067 31.1938 27.42V27.24C31.1938 26.86 31.2572 26.5033 31.3838 26.17C31.5105 25.8367 31.6872 25.5433 31.9138 25.29C32.1472 25.0367 32.4205 24.84 32.7338 24.7C33.0538 24.5533 33.4072 24.48 33.7938 24.48C34.2005 24.48 34.5705 24.5667 34.9038 24.74C35.2372 24.9067 35.5105 25.17 35.7238 25.53C35.9372 25.89 36.0572 26.3567 36.0838 26.93L35.6838 26.29V22.7H36.6438V30H35.8838V27.63H36.1638C36.1372 28.2367 36.0105 28.73 35.7838 29.11C35.5572 29.4833 35.2705 29.7567 34.9238 29.93C34.5838 30.0967 34.2172 30.18 33.8238 30.18ZM33.9538 29.34C34.2805 29.34 34.5772 29.2667 34.8438 29.12C35.1105 28.9733 35.3238 28.7633 35.4838 28.49C35.6438 28.21 35.7238 27.8833 35.7238 27.51V27.05C35.7238 26.6833 35.6405 26.3733 35.4738 26.12C35.3138 25.86 35.0972 25.6633 34.8238 25.53C34.5572 25.39 34.2638 25.32 33.9438 25.32C33.5905 25.32 33.2772 25.4033 33.0038 25.57C32.7372 25.7367 32.5272 25.97 32.3738 26.27C32.2272 26.57 32.1538 26.9233 32.1538 27.33C32.1538 27.7367 32.2305 28.0933 32.3838 28.4C32.5372 28.7 32.7505 28.9333 33.0238 29.1C33.2972 29.26 33.6072 29.34 33.9538 29.34ZM40.7184 30.18C40.3384 30.18 39.9884 30.11 39.6684 29.97C39.3484 29.83 39.0684 29.6333 38.8284 29.38C38.595 29.1267 38.4117 28.8333 38.2784 28.5C38.1517 28.1667 38.0884 27.8067 38.0884 27.42V27.24C38.0884 26.86 38.1517 26.5033 38.2784 26.17C38.405 25.8367 38.5817 25.5433 38.8084 25.29C39.0417 25.0367 39.315 24.84 39.6284 24.7C39.9484 24.5533 40.3017 24.48 40.6884 24.48C41.095 24.48 41.465 24.5667 41.7984 24.74C42.1317 24.9067 42.405 25.17 42.6184 25.53C42.8317 25.89 42.9517 26.3567 42.9784 26.93L42.5784 26.29V22.7H43.5384V30H42.7784V27.63H43.0584C43.0317 28.2367 42.905 28.73 42.6784 29.11C42.4517 29.4833 42.165 29.7567 41.8184 29.93C41.4784 30.0967 41.1117 30.18 40.7184 30.18ZM40.8484 29.34C41.175 29.34 41.4717 29.2667 41.7384 29.12C42.005 28.9733 42.2184 28.7633 42.3784 28.49C42.5384 28.21 42.6184 27.8833 42.6184 27.51V27.05C42.6184 26.6833 42.535 26.3733 42.3684 26.12C42.2084 25.86 41.9917 25.6633 41.7184 25.53C41.4517 25.39 41.1584 25.32 40.8384 25.32C40.485 25.32 40.1717 25.4033 39.8984 25.57C39.6317 25.7367 39.4217 25.97 39.2684 26.27C39.1217 26.57 39.0484 26.9233 39.0484 27.33C39.0484 27.7367 39.125 28.0933 39.2784 28.4C39.4317 28.7 39.645 28.9333 39.9184 29.1C40.1917 29.26 40.5017 29.34 40.8484 29.34Z" fill="#717171"/>
</svg>
