<svg width="17" height="17" viewBox="0 0 17 17" fill="none" xmlns="http://www.w3.org/2000/svg">
<g clip-path="url(#clip0_12269_96197)">
<path d="M4.9895 7.08333C5.68998 7.08333 6.37472 6.87562 6.95715 6.48646C7.53957 6.09729 7.99351 5.54416 8.26157 4.89701C8.52964 4.24985 8.59977 3.53774 8.46312 2.85072C8.32646 2.16371 7.98915 1.53264 7.49384 1.03733C6.99853 0.542021 6.36746 0.20471 5.68045 0.0680537C4.99343 -0.0686023 4.28132 0.00153455 3.63416 0.269595C2.98701 0.537655 2.43388 0.9916 2.04471 1.57402C1.65555 2.15645 1.44784 2.84119 1.44784 3.54167C1.44896 4.48063 1.82246 5.38081 2.48641 6.04476C3.15036 6.70871 4.05054 7.08221 4.9895 7.08333ZM2.93534 3.01538C2.94944 2.96229 2.9757 2.91322 3.01204 2.87203C3.04838 2.83085 3.0938 2.79868 3.14471 2.77806C3.19562 2.75745 3.25063 2.74896 3.30539 2.75327C3.36014 2.75758 3.41315 2.77456 3.46021 2.80288C4.22971 3.27962 5.11564 3.53523 6.02083 3.54167C6.2411 3.54128 6.46104 3.5247 6.67888 3.49208C6.73348 3.4837 6.78928 3.4882 6.84183 3.50524C6.89438 3.52227 6.94222 3.55135 6.98152 3.59017C7.02082 3.62899 7.0505 3.67647 7.06818 3.7288C7.08585 3.78114 7.09105 3.83688 7.08333 3.89158C6.99277 4.41483 6.70959 4.88521 6.28954 5.21009C5.86949 5.53497 5.34303 5.69081 4.81382 5.64691C4.28461 5.60302 3.79101 5.36258 3.43023 4.97293C3.06945 4.58329 2.86762 4.07268 2.8645 3.54167C2.86441 3.36386 2.88824 3.18684 2.93534 3.01538ZM8.01621 8.77342C8.04873 8.73461 8.07256 8.68927 8.08607 8.64048C8.09959 8.59168 8.10248 8.54055 8.09456 8.49053C8.08664 8.44052 8.06809 8.39279 8.04015 8.35056C8.01222 8.30832 7.97555 8.27257 7.93263 8.24571C7.09437 7.71953 6.12513 7.43949 5.13542 7.4375C3.99287 7.4427 2.88207 7.81402 1.96608 8.49697C1.05009 9.17991 0.377153 10.1385 0.0460437 11.232C0.0302671 11.2849 0.0270558 11.3407 0.0366658 11.395C0.0462758 11.4494 0.0684413 11.5007 0.101396 11.5449C0.13435 11.5892 0.177183 11.6251 0.226479 11.6498C0.275775 11.6746 0.330172 11.6875 0.385335 11.6875H6.44584C6.52883 11.6875 6.60919 11.6583 6.67288 11.6051C6.73658 11.5519 6.77956 11.478 6.79433 11.3964C6.96652 10.4307 7.38768 9.52656 8.01621 8.77342ZM12.3647 7.79167C11.454 7.79167 10.5639 8.0617 9.80673 8.56761C9.04958 9.07352 8.45945 9.79259 8.11097 10.6339C7.76249 11.4752 7.67132 12.4009 7.84897 13.2941C8.02662 14.1872 8.46513 15.0076 9.10903 15.6515C9.75294 16.2954 10.5733 16.7339 11.4664 16.9115C12.3596 17.0892 13.2853 16.998 14.1266 16.6495C14.9679 16.3011 15.687 15.7109 16.1929 14.9538C16.6988 14.1966 16.9688 13.3065 16.9688 12.3958C16.9673 11.1752 16.4818 10.005 15.6186 9.14185C14.7555 8.27873 13.5853 7.79317 12.3647 7.79167ZM14.8438 13.1042H13.4272C13.3332 13.1042 13.2432 13.1415 13.1767 13.2079C13.1103 13.2743 13.073 13.3644 13.073 13.4583V14.875C13.073 15.0629 12.9984 15.243 12.8655 15.3759C12.7327 15.5087 12.5525 15.5833 12.3647 15.5833C12.1768 15.5833 11.9966 15.5087 11.8638 15.3759C11.731 15.243 11.6563 15.0629 11.6563 14.875V13.4583C11.6563 13.3644 11.619 13.2743 11.5526 13.2079C11.4862 13.1415 11.3961 13.1042 11.3022 13.1042H9.8855C9.69764 13.1042 9.51747 13.0295 9.38463 12.8967C9.2518 12.7639 9.17717 12.5837 9.17717 12.3958C9.17717 12.208 9.2518 12.0278 9.38463 11.895C9.51747 11.7621 9.69764 11.6875 9.8855 11.6875H11.3022C11.3961 11.6875 11.4862 11.6502 11.5526 11.5838C11.619 11.5173 11.6563 11.4273 11.6563 11.3333V9.91667C11.6563 9.72881 11.731 9.54864 11.8638 9.4158C11.9966 9.28296 12.1768 9.20833 12.3647 9.20833C12.5525 9.20833 12.7327 9.28296 12.8655 9.4158C12.9984 9.54864 13.073 9.72881 13.073 9.91667V11.3333C13.073 11.4273 13.1103 11.5173 13.1767 11.5838C13.2432 11.6502 13.3332 11.6875 13.4272 11.6875H14.8438C15.0317 11.6875 15.2119 11.7621 15.3447 11.895C15.4775 12.0278 15.5522 12.208 15.5522 12.3958C15.5522 12.5837 15.4775 12.7639 15.3447 12.8967C15.2119 13.0295 15.0317 13.1042 14.8438 13.1042Z" fill="url(#paint0_linear_12269_96197)"/>
</g>
<defs>
<linearGradient id="paint0_linear_12269_96197" x1="8.50004" y1="0" x2="8.50004" y2="17" gradientUnits="userSpaceOnUse">
<stop stop-color="#2257E2"/>
<stop offset="1" stop-color="#5AA6FF"/>
</linearGradient>
<clipPath id="clip0_12269_96197">
<rect width="17" height="17" fill="white"/>
</clipPath>
</defs>
</svg>
