<svg width="12" height="12" viewBox="0 0 12 12" fill="none" xmlns="http://www.w3.org/2000/svg">
<path d="M11 1.8875C11.0011 1.73997 10.9598 1.59523 10.8809 1.47057C10.8019 1.34591 10.6888 1.2466 10.555 1.1845C9.11993 0.554079 7.56736 0.235555 5.99999 0.250001C4.43263 0.235555 2.88006 0.554079 1.44499 1.1845C1.31116 1.2466 1.19804 1.34591 1.11913 1.47057C1.04022 1.59523 0.99886 1.73997 0.999992 1.8875V5.706C0.997974 6.94501 1.3707 8.15566 2.06922 9.17899C2.76774 10.2023 3.7594 10.9905 4.91399 11.44L5.44749 11.647C5.80299 11.7845 6.19699 11.7845 6.55249 11.647L7.08599 11.44C8.24058 10.9905 9.23225 10.2023 9.93077 9.17899C10.6293 8.15566 11.002 6.94501 11 5.706V1.8875ZM9.25399 4.1195L6.23649 8.2355C6.18321 8.30809 6.11488 8.36831 6.03618 8.41206C5.95748 8.45581 5.87027 8.48206 5.78049 8.489C5.76399 8.489 5.74799 8.489 5.73049 8.489C5.64837 8.48901 5.56705 8.4728 5.4912 8.44131C5.41535 8.40982 5.34647 8.36367 5.28849 8.3055L2.99999 6.018C2.88618 5.90009 2.82322 5.7422 2.82469 5.57833C2.82616 5.41445 2.89194 5.25771 3.00785 5.14187C3.12377 5.02602 3.28054 4.96033 3.44442 4.95895C3.60829 4.95758 3.76615 5.02062 3.88399 5.1345L5.55449 6.8055C5.56724 6.8183 5.58261 6.82818 5.59954 6.83447C5.61648 6.84075 5.63457 6.84329 5.65258 6.84191C5.67059 6.84054 5.68809 6.83527 5.70387 6.82648C5.71965 6.81769 5.73334 6.80559 5.74399 6.791L8.24399 3.3805C8.29201 3.31302 8.35296 3.25575 8.4233 3.21203C8.49364 3.16831 8.57197 3.139 8.65374 3.12581C8.73551 3.11263 8.81908 3.11583 8.8996 3.13522C8.98012 3.15462 9.05598 3.18982 9.12278 3.23879C9.18957 3.28776 9.24597 3.34952 9.28869 3.42048C9.33141 3.49143 9.3596 3.57017 9.37162 3.65212C9.38364 3.73406 9.37926 3.81758 9.35872 3.89782C9.33819 3.97805 9.30191 4.05341 9.25199 4.1195H9.25399Z" fill="#5FCF64"/>
</svg>
