<svg width="32" height="32" viewBox="0 0 32 32" fill="none" xmlns="http://www.w3.org/2000/svg">
<circle opacity="0.05" cx="16" cy="16" r="16" fill="#2266E2"/>
<path d="M12.84 21V18.9C12.84 18.4613 12.91 18.0787 13.05 17.752C13.1993 17.4253 13.4327 17.136 13.75 16.884C14.0673 16.6227 14.4873 16.38 15.01 16.156L16.662 15.442C17.082 15.2647 17.39 15.0453 17.586 14.784C17.7913 14.5227 17.894 14.1913 17.894 13.79C17.894 13.3793 17.768 13.0433 17.516 12.782C17.264 12.5207 16.8953 12.39 16.41 12.39C15.9247 12.39 15.556 12.5253 15.304 12.796C15.052 13.0667 14.926 13.4307 14.926 13.888H12.7C12.7 13.244 12.84 12.6653 13.12 12.152C13.4 11.6293 13.8153 11.2187 14.366 10.92C14.9167 10.6213 15.598 10.472 16.41 10.472C17.222 10.472 17.8987 10.6167 18.44 10.906C18.9907 11.1953 19.406 11.5827 19.686 12.068C19.9753 12.5533 20.12 13.0993 20.12 13.706V13.874C20.12 14.658 19.9053 15.3067 19.476 15.82C19.0467 16.324 18.384 16.772 17.488 17.164L15.85 17.878C15.57 17.9993 15.3693 18.1253 15.248 18.256C15.136 18.3867 15.08 18.564 15.08 18.788V19.488L14.534 19.026H20.134V21H12.84Z" fill="#2266E2"/>
</svg>
