<svg width="32" height="32" viewBox="0 0 32 32" fill="none" xmlns="http://www.w3.org/2000/svg">
<circle opacity="0.05" cx="16" cy="16" r="16" fill="#2266E2"/>
<path d="M16.34 21.266C15.5467 21.266 14.856 21.1213 14.268 20.832C13.6893 20.5333 13.246 20.132 12.938 19.628C12.63 19.124 12.476 18.5547 12.476 17.92H14.688C14.688 18.3493 14.8327 18.6993 15.122 18.97C15.4113 19.2313 15.8173 19.362 16.34 19.362C16.6853 19.362 16.9793 19.2967 17.222 19.166C17.4647 19.0353 17.6513 18.858 17.782 18.634C17.9127 18.4007 17.978 18.1393 17.978 17.85C17.978 17.402 17.8333 17.0333 17.544 16.744C17.264 16.4547 16.8627 16.31 16.34 16.31C16.06 16.31 15.8127 16.352 15.598 16.436C15.3927 16.52 15.2153 16.6227 15.066 16.744L14.03 14.994L17.124 12.978L16.998 12.74H12.896V10.78H19.784V12.908L16.214 15.176L15.094 14.868C15.2807 14.812 15.4767 14.77 15.682 14.742C15.8967 14.7047 16.1253 14.686 16.368 14.686C17.1613 14.686 17.8427 14.8167 18.412 15.078C18.9813 15.3393 19.42 15.708 19.728 16.184C20.0453 16.6507 20.204 17.1967 20.204 17.822V17.99C20.204 18.6153 20.0453 19.1753 19.728 19.67C19.42 20.1647 18.9767 20.5567 18.398 20.846C17.8287 21.126 17.1427 21.266 16.34 21.266Z" fill="#2266E2"/>
</svg>
