<svg width="38" height="38" viewBox="0 0 38 38" fill="none" xmlns="http://www.w3.org/2000/svg">
<circle opacity="0.2" cx="19" cy="19" r="19" fill="#FFA6D1"/>
<path d="M21.0566 13.6263C21.0255 13.595 20.9885 13.5701 20.9478 13.553C20.9071 13.536 20.8634 13.5272 20.8192 13.5271C20.7751 13.5271 20.7314 13.5358 20.6907 13.5527C20.65 13.5696 20.613 13.5944 20.5818 13.6257L13.2577 20.9518C13.1948 21.0147 13.1595 21.1 13.1595 21.1889C13.1595 21.2778 13.1948 21.3631 13.2577 21.4259L16.5757 24.744C16.6386 24.8069 16.7239 24.8422 16.8128 24.8422C16.9017 24.8422 16.987 24.8069 17.0498 24.744L24.3707 17.4232C24.4333 17.3604 24.4685 17.2752 24.4685 17.1865C24.4685 17.0977 24.4333 17.0126 24.3707 16.9498L21.0566 13.6263ZM12.5824 22.2193C12.5402 22.1772 12.4876 22.1472 12.43 22.1322C12.3723 22.1172 12.3118 22.1179 12.2545 22.1341C12.1971 22.1502 12.145 22.1813 12.1036 22.2242C12.0623 22.2671 12.0331 22.3203 12.0191 22.3782L11.0092 26.5875C10.9959 26.6432 10.9971 26.7015 11.0127 26.7567C11.0283 26.8119 11.0578 26.8621 11.0984 26.9026C11.1392 26.9427 11.1895 26.9719 11.2446 26.9873C11.2997 27.0028 11.3578 27.0041 11.4135 26.9912L15.6195 25.9853C15.6775 25.9714 15.7307 25.9423 15.7737 25.901C15.8167 25.8597 15.8479 25.8076 15.8641 25.7502C15.8803 25.6928 15.8809 25.6322 15.8658 25.5745C15.8508 25.5168 15.8206 25.4641 15.7784 25.422L12.5824 22.2193ZM26.5105 12.9142L25.0868 11.4898C24.7725 11.1762 24.3466 11 23.9026 11C23.4585 11 23.0326 11.1762 22.7183 11.4898L21.7674 12.4401C21.7046 12.5029 21.6693 12.5882 21.6693 12.6771C21.6693 12.766 21.7046 12.8513 21.7674 12.9142L25.0868 16.2329C25.1497 16.2958 25.235 16.3311 25.3239 16.3311C25.4128 16.3311 25.4981 16.2958 25.5609 16.2329L26.5105 15.2813C26.8238 14.9671 26.9997 14.5415 26.9997 14.0978C26.9997 13.654 26.8238 13.2284 26.5105 12.9142Z" fill="#FFA6D1"/>
</svg>
