<svg width="38" height="38" viewBox="0 0 38 38" fill="none" xmlns="http://www.w3.org/2000/svg">
<circle opacity="0.2" cx="19" cy="19" r="19" fill="#FF6767"/>
<path d="M26.8216 19.4009C26.7908 19.2092 26.7119 19.0283 26.5924 18.8752C26.4729 18.7221 26.3166 18.6017 26.1381 18.5253C25.9603 18.4478 25.766 18.416 25.5729 18.4327C25.3797 18.4493 25.1937 18.514 25.0318 18.6207C24.8863 18.7162 24.7372 18.8071 24.5859 18.8909C24.5436 18.914 24.4963 18.9263 24.4482 18.9267C24.4001 18.9271 24.3526 18.9156 24.31 18.8933C24.2673 18.8709 24.2309 18.8384 24.2038 18.7986C24.1768 18.7587 24.16 18.7129 24.155 18.665C23.9422 16.6829 23.1486 14.8079 21.8739 13.2753C20.5992 11.7426 18.9001 10.6207 16.99 10.0503C16.7812 9.98629 16.5585 9.98333 16.3481 10.0417C16.1376 10.1001 15.9483 10.2174 15.8023 10.3798C15.6547 10.5406 15.5553 10.7396 15.5153 10.9541C15.4754 11.1686 15.4965 11.3901 15.5764 11.5932C16.128 12.9975 16.2021 14.5443 15.7871 15.9949C15.7709 16.051 15.7382 16.1009 15.6932 16.1382C15.6483 16.1755 15.5931 16.1984 15.535 16.2039C15.4768 16.2094 15.4184 16.1973 15.3672 16.1692C15.316 16.141 15.2745 16.0982 15.248 16.0461C15.1769 15.9087 15.1117 15.7678 15.05 15.6257C14.9739 15.4477 14.8543 15.2917 14.7021 15.172C14.5498 15.0524 14.37 14.9729 14.179 14.941C13.9881 14.9069 13.7918 14.921 13.6078 14.982C13.4237 15.043 13.2578 15.149 13.1252 15.2904C12.2431 16.2414 11.6066 17.3935 11.2711 18.6465C10.9355 19.8995 10.9111 21.2155 11.1999 22.4801C11.4887 23.7447 12.082 24.9196 12.9282 25.9027C13.7744 26.8859 14.8479 27.6474 16.0554 28.1213C17.2629 28.5951 18.5679 28.7669 19.8569 28.6216C21.1459 28.4764 22.3799 28.0185 23.4517 27.2878C24.5234 26.5571 25.4005 25.5757 26.0067 24.4289C26.6129 23.2821 26.9298 22.0046 26.9299 20.7075C26.9303 20.2697 26.8941 19.8327 26.8216 19.4009ZM18.965 27.0992C18.5502 27.0975 18.1399 27.0131 17.758 26.8511C17.3762 26.689 17.0305 26.4525 16.741 26.1554C16.4516 25.8582 16.2242 25.5064 16.0723 25.1205C15.9203 24.7345 15.8467 24.3221 15.8558 23.9074C15.8697 22.8204 16.1844 21.7585 16.7651 20.8395C17.3458 19.9205 18.1697 19.1803 19.1455 18.7011C19.2019 18.6738 19.2657 18.6655 19.3273 18.6773C19.3888 18.6892 19.4449 18.7206 19.4872 18.767C19.5295 18.8133 19.5557 18.872 19.5618 18.9344C19.568 18.9968 19.5539 19.0596 19.5216 19.1133C19.2766 19.5392 19.1272 20.0134 19.0838 20.5028C19.0404 20.9922 19.1039 21.4852 19.2701 21.9476C19.2875 21.9925 19.3158 22.0324 19.3525 22.0637C19.3891 22.0949 19.4329 22.1166 19.48 22.1267C19.5271 22.1369 19.576 22.1352 19.6223 22.1218C19.6685 22.1085 19.7108 22.0838 19.7452 22.0501C19.934 21.8753 20.0819 21.661 20.1783 21.4225C20.1927 21.3835 20.2153 21.348 20.2446 21.3185C20.2738 21.289 20.309 21.2661 20.3478 21.2513C20.3867 21.2365 20.4282 21.2302 20.4697 21.2328C20.5111 21.2354 20.5516 21.2469 20.5882 21.2664C21.07 21.5327 21.4657 21.931 21.7288 22.4146C21.9918 22.8981 22.1112 23.4468 22.0729 23.9959C22.0805 24.4059 22.0053 24.8133 21.8517 25.1935C21.6982 25.5738 21.4695 25.9191 21.1793 26.2089C20.8891 26.4987 20.5434 26.7269 20.1629 26.8798C19.7824 27.0328 19.375 27.1075 18.965 27.0992Z" fill="#FF6767"/>
</svg>
