<svg width="43" height="19" viewBox="0 0 43 19" fill="none" xmlns="http://www.w3.org/2000/svg">
<rect x="0.5" y="0.5" width="42" height="18" rx="9" fill="url(#paint0_linear_13869_117858)" fill-opacity="0.1"/>
<rect x="5" y="3" width="13" height="13" rx="6.5" fill="url(#paint1_linear_13869_117858)"/>
<path d="M11.903 5.1759C11.8505 5.12244 11.7878 5.07998 11.7187 5.05099C11.6496 5.02201 11.5754 5.00708 11.5005 5.00708C11.4255 5.00708 11.3513 5.02201 11.2822 5.05099C11.2131 5.07998 11.1504 5.12244 11.0979 5.1759L8.78789 7.66253C8.73816 7.71601 8.70512 7.78285 8.69284 7.85484C8.68056 7.92683 8.68957 8.00085 8.71876 8.06779C8.74795 8.13474 8.79605 8.1917 8.85717 8.23169C8.91828 8.27168 8.98974 8.29295 9.06277 8.2929H10.2815C10.3064 8.2929 10.3302 8.30278 10.3478 8.32036C10.3654 8.33794 10.3753 8.36179 10.3753 8.38665V10.2433C10.3753 10.3427 10.4148 10.4381 10.4851 10.5084C10.5554 10.5788 10.6508 10.6183 10.7503 10.6183H12.2503C12.3497 10.6183 12.4451 10.5788 12.5154 10.5084C12.5858 10.4381 12.6253 10.3427 12.6253 10.2433V8.38665C12.6253 8.36179 12.6351 8.33794 12.6527 8.32036C12.6703 8.30278 12.6942 8.2929 12.719 8.2929H13.9378C14.0108 8.29295 14.0823 8.27168 14.1434 8.23169C14.2045 8.1917 14.2526 8.13474 14.2818 8.06779C14.311 8.00085 14.32 7.92683 14.3077 7.85484C14.2954 7.78285 14.2624 7.71601 14.2126 7.66253L11.903 5.1759Z" fill="white"/>
<path d="M12.25 11.1807H10.75C10.5429 11.1807 10.375 11.3486 10.375 11.5557V11.9307C10.375 12.1378 10.5429 12.3057 10.75 12.3057H12.25C12.4571 12.3057 12.625 12.1378 12.625 11.9307V11.5557C12.625 11.3486 12.4571 11.1807 12.25 11.1807Z" fill="white"/>
<path d="M12.25 12.8682H10.75C10.5429 12.8682 10.375 13.0361 10.375 13.2432V13.6182C10.375 13.8253 10.5429 13.9932 10.75 13.9932H12.25C12.4571 13.9932 12.625 13.8253 12.625 13.6182V13.2432C12.625 13.0361 12.4571 12.8682 12.25 12.8682Z" fill="white"/>
<path d="M22.27 12.07V7.04H23.69V12.07H22.27ZM20.5 10.21V8.91H25.47V10.21H20.5ZM27.717 13V6.78L28.157 7.12H26.287V5.7H29.347V13H27.717ZM34.0544 13.19C33.4744 13.19 32.9777 13.0967 32.5644 12.91C32.151 12.7167 31.8144 12.4567 31.5544 12.13C31.301 11.8033 31.111 11.4267 30.9844 11C30.8644 10.5667 30.8044 10.11 30.8044 9.63V9.06C30.8044 8.39333 30.921 7.79 31.1544 7.25C31.3877 6.71 31.7444 6.28 32.2244 5.96C32.7044 5.64 33.3144 5.48 34.0544 5.48C34.7944 5.48 35.401 5.64 35.8744 5.96C36.3544 6.28 36.711 6.71 36.9444 7.25C37.1777 7.79 37.2944 8.39333 37.2944 9.06V9.63C37.2944 10.11 37.231 10.5667 37.1044 11C36.9844 11.4267 36.7944 11.8033 36.5344 12.13C36.281 12.4567 35.9477 12.7167 35.5344 12.91C35.1277 13.0967 34.6344 13.19 34.0544 13.19ZM34.0544 11.68C34.5944 11.68 34.9944 11.4933 35.2544 11.12C35.521 10.74 35.6544 10.1533 35.6544 9.36C35.6544 8.52 35.5177 7.91667 35.2444 7.55C34.9777 7.17667 34.581 6.99 34.0544 6.99C33.5144 6.99 33.111 7.17667 32.8444 7.55C32.5777 7.91667 32.4444 8.51333 32.4444 9.34C32.4444 10.14 32.5744 10.73 32.8344 11.11C33.101 11.49 33.5077 11.68 34.0544 11.68Z" fill="#33DB79"/>
<rect x="0.5" y="0.5" width="42" height="18" rx="9" stroke="url(#paint2_linear_13869_117858)"/>
<defs>
<linearGradient id="paint0_linear_13869_117858" x1="3" y1="1.5" x2="40" y2="18.5" gradientUnits="userSpaceOnUse">
<stop stop-color="#78F2D5"/>
<stop offset="1" stop-color="#98F278"/>
</linearGradient>
<linearGradient id="paint1_linear_13869_117858" x1="5" y1="3.5" x2="17.5" y2="15.5" gradientUnits="userSpaceOnUse">
<stop stop-color="#78F2D5"/>
<stop offset="1" stop-color="#98F278"/>
</linearGradient>
<linearGradient id="paint2_linear_13869_117858" x1="4" y1="-4.76326e-07" x2="38" y2="20" gradientUnits="userSpaceOnUse">
<stop stop-color="#78F2D5"/>
<stop offset="1" stop-color="#98F278"/>
</linearGradient>
</defs>
</svg>
