<svg width="36" height="23" viewBox="0 0 36 23" fill="none" xmlns="http://www.w3.org/2000/svg">
<rect width="36" height="23" rx="4" fill="#EBEBEB" fill-opacity="0.5"/>
<g opacity="0.5">
<path d="M19.5937 7.3354C19.5696 7.3111 19.5409 7.29179 19.5094 7.27859C19.4778 7.26539 19.4439 7.25856 19.4097 7.25848C19.3755 7.25849 19.3417 7.26524 19.3101 7.27835C19.2785 7.29146 19.2499 7.31067 19.2257 7.33488L13.5495 13.0127C13.5008 13.0614 13.4734 13.1275 13.4734 13.1964C13.4734 13.2653 13.5008 13.3314 13.5495 13.3801L16.121 15.9516C16.1697 16.0003 16.2358 16.0277 16.3047 16.0277C16.3736 16.0277 16.4397 16.0003 16.4884 15.9516L22.1621 10.278C22.2106 10.2293 22.2379 10.1633 22.2379 10.0945C22.2379 10.0257 22.2106 9.95977 22.1621 9.91106L19.5937 7.3354ZM13.0261 13.9949C12.9935 13.9623 12.9527 13.939 12.908 13.9275C12.8634 13.9158 12.8164 13.9164 12.772 13.9289C12.7275 13.9414 12.6872 13.9655 12.6551 13.9987C12.6231 14.032 12.6004 14.0732 12.5896 14.1181L11.8069 17.3803C11.7966 17.4235 11.7975 17.4687 11.8096 17.5114C11.8217 17.5542 11.8446 17.5931 11.876 17.6245C11.9077 17.6556 11.9467 17.6782 11.9894 17.6902C12.0321 17.7022 12.0771 17.7032 12.1203 17.6931L15.3799 16.9136C15.4248 16.9028 15.4661 16.8803 15.4994 16.8483C15.5328 16.8162 15.557 16.7759 15.5695 16.7314C15.5821 16.6869 15.5825 16.6399 15.5708 16.5952C15.5592 16.5505 15.5358 16.5097 15.5031 16.477L13.0261 13.9949ZM23.8204 6.78347L22.7171 5.67962C22.4735 5.43652 22.1434 5.29999 21.7993 5.29999C21.4552 5.29999 21.1251 5.43652 20.8815 5.67962L20.1446 6.41604C20.0958 6.46477 20.0685 6.53085 20.0685 6.59976C20.0685 6.66866 20.0958 6.73474 20.1446 6.78347L22.7171 9.3555C22.7658 9.40421 22.8319 9.43158 22.9008 9.43158C22.9697 9.43158 23.0358 9.40421 23.0845 9.3555L23.8204 8.61803C24.0632 8.37449 24.1996 8.04464 24.1996 7.70075C24.1996 7.35687 24.0632 7.02701 23.8204 6.78347Z" fill="#717171"/>
</g>
</svg>
