<svg width="16" height="16" viewBox="0 0 16 16" fill="none" xmlns="http://www.w3.org/2000/svg">
<path d="M14.6667 2.51667C14.6682 2.31996 14.613 2.12697 14.5078 1.96076C14.4026 1.79455 14.2518 1.66213 14.0733 1.57933C12.1599 0.738771 10.0898 0.314072 7.99999 0.333333C5.91017 0.314072 3.84007 0.738771 1.92665 1.57933C1.74822 1.66213 1.59738 1.79455 1.49217 1.96076C1.38696 2.12697 1.33181 2.31996 1.33332 2.51667V7.608C1.33063 9.26001 1.82759 10.8742 2.75895 12.2387C3.69032 13.6031 5.01253 14.654 6.55199 15.2533L7.26332 15.5293C7.73732 15.7127 8.26265 15.7127 8.73665 15.5293L9.44799 15.2533C10.9874 14.654 12.3097 13.6031 13.241 12.2387C14.1724 10.8742 14.6693 9.26001 14.6667 7.608V2.51667Z" fill="#5FCF64"/>
<path d="M8.12167 7C8.95009 7 9.62167 6.32843 9.62167 5.5C9.62167 4.67157 8.95009 4 8.12167 4C7.29324 4 6.62167 4.67157 6.62167 5.5C6.62167 6.32843 7.29324 7 8.12167 7Z" stroke="white" stroke-linecap="round" stroke-linejoin="round"/>
<path d="M6 10V8.5C6.15511 8.06124 6.44243 7.68135 6.8224 7.41266C7.20237 7.14397 7.65629 6.99969 8.12167 6.99969C8.58704 6.99969 9.04097 7.14397 9.42094 7.41266C9.80091 7.68135 10.0882 8.06124 10.2433 8.5V10" stroke="white" stroke-linecap="round" stroke-linejoin="round"/>
</svg>
