<svg width="10" height="10" viewBox="0 0 10 10" fill="none" xmlns="http://www.w3.org/2000/svg">
<path d="M2.45362 6.70098C2.11711 6.19755 1.9375 5.60568 1.9375 5.00021C1.93842 4.18859 2.26137 3.41047 2.8355 2.83657C3.40962 2.26266 4.18804 1.93984 4.99998 1.93892C5.60568 1.93892 6.19778 2.11846 6.70141 2.45484C7.20503 2.79122 7.59756 3.26933 7.82935 3.82871C8.06114 4.38809 8.12179 5.00361 8.00362 5.59744C7.88545 6.19128 7.59378 6.73675 7.16549 7.16488C6.73719 7.59301 6.19151 7.88457 5.59744 8.00269C5.00338 8.12081 4.38762 8.06018 3.82802 7.82848C3.26843 7.59678 2.79013 7.20441 2.45362 6.70098Z" fill="url(#paint0_linear_19026_180221)"/>
<path d="M1.19189 8.23092C1.20848 8.25053 1.21759 8.27538 1.21759 8.30107C1.21759 8.32676 1.20848 8.35161 1.19189 8.37122L0.996786 8.60273C0.960854 8.64426 0.936846 8.69475 0.927311 8.74883C0.917776 8.80291 0.92307 8.85856 0.942632 8.90987C0.962194 8.96119 0.995292 9.00624 1.03841 9.04027C1.08153 9.07429 1.13307 9.096 1.18754 9.1031L2.43461 9.28075C2.48161 9.30092 2.53207 9.31183 2.58321 9.31289C2.59712 9.31289 2.61059 9.30941 2.62666 9.30811L2.71574 9.32071C2.73015 9.32257 2.74466 9.32358 2.75919 9.32375C2.80759 9.32415 2.85538 9.313 2.89859 9.29123C2.94181 9.26946 2.97921 9.23769 3.00768 9.19857C3.03615 9.15945 3.05487 9.11411 3.06229 9.0663C3.0697 9.0185 3.0656 8.96961 3.05032 8.92371L2.57539 7.45735C2.5592 7.40484 2.52909 7.3577 2.48824 7.32094C2.4474 7.28418 2.39735 7.25916 2.34342 7.24856C2.28949 7.23796 2.23369 7.24216 2.18196 7.26072C2.13023 7.27928 2.0845 7.31151 2.04962 7.35397L1.87017 7.5668C1.85969 7.57928 1.84658 7.58929 1.83178 7.59612C1.81699 7.60295 1.80087 7.60644 1.78457 7.60633C1.76823 7.6058 1.75222 7.60163 1.73771 7.59411C1.7232 7.5866 1.71056 7.57593 1.70071 7.56289C1.21878 6.94539 0.920213 6.2049 0.839072 5.42592C0.75793 4.64695 0.897482 3.86086 1.2418 3.15735C1.58613 2.45385 2.12135 1.86127 2.7864 1.44722C3.45146 1.03318 4.21955 0.814353 5.00304 0.815711C5.30053 0.815848 5.59719 0.847148 5.88815 0.909096C5.9412 0.922044 5.9963 0.924218 6.0502 0.91549C6.10409 0.906762 6.15569 0.887309 6.20193 0.858284C6.24817 0.829259 6.28811 0.791251 6.31939 0.746514C6.35066 0.701777 6.37264 0.65122 6.38401 0.597838C6.39538 0.544456 6.39592 0.489335 6.38559 0.435741C6.37527 0.382147 6.35428 0.331171 6.32389 0.285831C6.29349 0.240492 6.2543 0.201712 6.20864 0.171789C6.16297 0.141867 6.11177 0.12141 6.05805 0.111631C5.32834 -0.0450692 4.57281 -0.0366984 3.84675 0.136131C3.12069 0.30896 2.44247 0.641874 1.86173 1.11051C1.28098 1.57915 0.812404 2.17165 0.490283 2.84466C0.168163 3.51767 0.000649802 4.25416 2.49674e-06 5.00023C-0.00118545 6.18481 0.421577 7.33075 1.19189 8.23092ZM8.80812 1.76911C8.79152 1.7495 8.78241 1.72465 8.78241 1.69896C8.78241 1.67327 8.79152 1.64842 8.80812 1.62881L9.00321 1.39731C9.03903 1.35576 9.06294 1.30531 9.0724 1.25129C9.08187 1.19728 9.07655 1.14171 9.057 1.09047C9.03745 1.03923 9.0044 0.994228 8.96135 0.960234C8.9183 0.92624 8.86685 0.904518 8.81246 0.897369L7.54584 0.71668C7.49758 0.69987 7.44654 0.692497 7.3955 0.694962L7.28643 0.67976C7.23489 0.671855 7.18219 0.677326 7.13337 0.69565C7.08456 0.713973 7.04128 0.744532 7.00768 0.784394C6.97409 0.824256 6.95131 0.872081 6.94153 0.923279C6.93176 0.974476 6.93531 1.02733 6.95185 1.07676L7.42461 2.54312C7.4415 2.59507 7.47195 2.64157 7.51281 2.67784C7.55367 2.71411 7.60347 2.73882 7.65708 2.74943C7.67654 2.75324 7.69634 2.75513 7.71617 2.75508C7.76076 2.75511 7.80482 2.74541 7.84528 2.72666C7.88573 2.7079 7.9216 2.68054 7.95038 2.64649L8.12983 2.43366C8.14023 2.42127 8.15327 2.41137 8.16801 2.40468C8.18274 2.398 8.19878 2.3947 8.21496 2.39503C8.23114 2.39537 8.24703 2.39932 8.26148 2.40661C8.27592 2.4139 8.28855 2.42433 8.29842 2.43714C8.78036 3.05429 9.07907 3.79442 9.16047 4.5731C9.24187 5.35178 9.10269 6.13765 8.7588 6.84107C8.4149 7.54448 7.88015 8.13712 7.21554 8.55136C6.55093 8.9656 5.78322 9.18478 5 9.18389C4.7025 9.18397 4.40582 9.15267 4.11489 9.0905C4.06196 9.07797 4.00706 9.07613 3.95341 9.08509C3.89976 9.09405 3.84844 9.11363 3.80246 9.14268C3.75649 9.17174 3.71678 9.20968 3.68567 9.25428C3.65456 9.29889 3.63268 9.34925 3.62131 9.40242C3.60993 9.45559 3.6093 9.5105 3.61944 9.56392C3.62958 9.61734 3.6503 9.66819 3.68037 9.7135C3.71044 9.75881 3.74926 9.79766 3.79455 9.82777C3.83984 9.85787 3.89069 9.87864 3.94412 9.88883C4.67368 10.0452 5.42898 10.0365 6.15476 9.86351C6.88055 9.69051 7.55847 9.35753 8.13896 8.88894C8.71944 8.42034 9.18781 7.82797 9.50981 7.15515C9.8318 6.48233 9.99928 5.74608 10 5.00023C10.0013 3.81551 9.57849 2.66942 8.80812 1.76911Z" fill="url(#paint1_linear_19026_180221)"/>
<defs>
<linearGradient id="paint0_linear_19026_180221" x1="4.99998" y1="1.93892" x2="4.99998" y2="8.06151" gradientUnits="userSpaceOnUse">
<stop stop-color="#2257E2"/>
<stop offset="1" stop-color="#5AA6FF"/>
</linearGradient>
<linearGradient id="paint1_linear_19026_180221" x1="5" y1="0" x2="5" y2="10" gradientUnits="userSpaceOnUse">
<stop stop-color="#2257E2"/>
<stop offset="1" stop-color="#5AA6FF"/>
</linearGradient>
</defs>
</svg>
