<svg width="12" height="12" viewBox="0 0 12 12" fill="none" xmlns="http://www.w3.org/2000/svg">
<path d="M11.7423 5.89634C11.7254 4.38142 11.1134 2.93392 10.0384 1.86638C9.5063 1.33839 8.87321 0.92304 8.17699 0.645125C7.48077 0.36721 6.73569 0.232431 5.98622 0.248834C4.4505 0.274072 2.98638 0.902622 1.91033 1.99863C1.37212 2.53498 0.947542 3.17432 0.661967 3.87846C0.376393 4.58259 0.235681 5.33706 0.248239 6.09679C0.247414 6.8391 0.393084 7.57429 0.676901 8.2602C0.960719 8.94612 1.3771 9.56928 1.90219 10.094C2.42729 10.6187 3.05076 11.0346 3.73688 11.3179C4.42301 11.6012 5.1583 11.7464 5.90061 11.745H6.00432C7.54021 11.7285 9.00685 11.1034 10.0825 10.007C11.1582 8.91057 11.7551 7.43226 11.7423 5.89634ZM5.29925 3.21109C5.29925 3.0265 5.37258 2.84946 5.50311 2.71893C5.63364 2.5884 5.81068 2.51507 5.99527 2.51507C6.17987 2.51507 6.3569 2.5884 6.48743 2.71893C6.61796 2.84946 6.69129 3.0265 6.69129 3.21109V6.34318C6.69129 6.52778 6.61796 6.70481 6.48743 6.83534C6.3569 6.96587 6.17987 7.0392 5.99527 7.0392C5.81068 7.0392 5.63364 6.96587 5.50311 6.83534C5.37258 6.70481 5.29925 6.52778 5.29925 6.34318V3.21109ZM6.01058 9.49128H5.99527C5.76453 9.49321 5.54246 9.40341 5.37793 9.24162C5.2134 9.07983 5.11988 8.8593 5.11794 8.62856C5.116 8.39781 5.20581 8.17575 5.3676 8.01122C5.52939 7.84669 5.74991 7.75317 5.98066 7.75123H5.99527C6.22602 7.74938 6.44804 7.83927 6.61251 8.00113C6.77698 8.16299 6.87041 8.38355 6.87226 8.61429C6.8741 8.84504 6.78421 9.06706 6.62235 9.23153C6.4605 9.396 6.23994 9.48943 6.00919 9.49128H6.01058Z" fill="#757575"/>
</svg>
