<svg width="85" height="98" viewBox="0 0 85 98" fill="none" xmlns="http://www.w3.org/2000/svg">
<g opacity="0.3">
<path d="M84.9998 13.9576C85.0094 12.7005 84.6579 11.4671 83.9872 10.4048C83.3164 9.34259 82.3549 8.49633 81.2173 7.96716C69.0193 2.59515 55.8225 -0.11909 42.5 0.00400723C29.1775 -0.11909 15.9807 2.59515 3.78268 7.96716C2.64513 8.49633 1.68358 9.34259 1.01285 10.4048C0.34212 11.4671 -0.0094281 12.7005 0.000192292 13.9576V46.4962C-0.0169599 57.0541 3.15117 67.3704 9.08857 76.0905C15.026 84.8107 23.4551 91.5269 33.269 95.3573L37.8038 97.1212C40.8255 98.2929 44.1745 98.2929 47.1962 97.1212L51.731 95.3573C61.5449 91.5269 69.974 84.8107 75.9114 76.0905C81.8488 67.3704 85.017 57.0541 84.9998 46.4962V13.9576ZM70.1589 32.9771L44.5102 68.0508C44.0573 68.6693 43.4766 69.1825 42.8076 69.5553C42.1387 69.9281 41.3973 70.1518 40.6343 70.2109C40.494 70.2109 40.358 70.2109 40.2093 70.2109C39.5112 70.211 38.82 70.0729 38.1753 69.8045C37.5306 69.5362 36.9451 69.1429 36.4523 68.6473L17.0001 49.1548C16.0327 48.1501 15.4976 46.8046 15.5101 45.4082C15.5226 44.0118 16.0817 42.6762 17.0669 41.689C18.0522 40.7018 19.3848 40.1421 20.7777 40.1304C22.1706 40.1186 23.5124 40.6558 24.5141 41.6263L38.7133 55.8653C38.8216 55.9744 38.9523 56.0586 39.0962 56.1122C39.2401 56.1657 39.394 56.1874 39.547 56.1756C39.7001 56.1639 39.8489 56.119 39.983 56.0441C40.1171 55.9692 40.2335 55.8661 40.324 55.7418L61.5739 26.6799C61.9821 26.1049 62.5001 25.6169 63.098 25.2443C63.6959 24.8717 64.3617 24.622 65.0568 24.5097C65.7518 24.3973 66.4621 24.4246 67.1465 24.5898C67.831 24.7551 68.4758 25.0551 69.0436 25.4724C69.6113 25.8897 70.0907 26.4159 70.4538 27.0206C70.8169 27.6252 71.0565 28.2961 71.1587 28.9944C71.2609 29.6927 71.2236 30.4044 71.0491 31.0881C70.8745 31.7718 70.5661 32.414 70.1419 32.9771H70.1589Z" fill="white"/>
</g>
</svg>
