<svg width="20" height="14" viewBox="0 0 20 14" fill="none" xmlns="http://www.w3.org/2000/svg">
<path d="M16.7677 13.0877C16.7677 13.1999 16.8123 13.3075 16.8916 13.3868C16.971 13.4661 17.0785 13.5107 17.1907 13.5107H19.5773C19.6465 13.5106 19.7148 13.4936 19.7759 13.461C19.837 13.4284 19.8893 13.3813 19.9279 13.3239C19.9666 13.2664 19.9906 13.2003 19.9977 13.1314C20.0049 13.0625 19.995 12.9928 19.969 12.9287C19.718 12.3013 19.3027 11.7531 18.7669 11.3415C18.231 10.93 17.5942 10.6702 16.9234 10.5895C16.8532 10.581 16.7821 10.5903 16.7164 10.6164C16.6507 10.6425 16.5926 10.6847 16.5474 10.739C16.5023 10.7934 16.4714 10.8582 16.4577 10.9275C16.444 10.9969 16.448 11.0686 16.4691 11.136C16.6671 11.7677 16.7678 12.4257 16.7677 13.0877ZM3.96539 11.0996C3.98576 11.0362 3.99089 10.969 3.98035 10.9032C3.96981 10.8375 3.94391 10.7752 3.90476 10.7214C3.8656 10.6675 3.81429 10.6237 3.755 10.5934C3.69571 10.5632 3.63011 10.5473 3.56355 10.5472H3.55339C2.79556 10.5476 2.05517 10.7746 1.42741 11.1992C0.799658 11.6237 0.313238 12.2263 0.0306974 12.9295C0.00479914 12.9937 -0.00493646 13.0633 0.0023454 13.1322C0.00962725 13.201 0.0337039 13.2671 0.0724612 13.3244C0.111219 13.3818 0.163471 13.4288 0.224632 13.4613C0.285792 13.4938 0.35399 13.5107 0.423236 13.5107H3.23192C3.3441 13.5107 3.45169 13.4661 3.53102 13.3868C3.61035 13.3075 3.65491 13.1999 3.65491 13.0877C3.65461 12.4129 3.75935 11.7422 3.96539 11.0996Z" fill="#549DFC"/>
<path d="M8.16409 7.84917C8.19701 7.86935 8.22378 7.89816 8.2415 7.93247C8.25921 7.96678 8.26719 8.00529 8.26458 8.04382C8.26196 8.08234 8.24885 8.11942 8.22666 8.15103C8.20447 8.18263 8.17406 8.20755 8.13871 8.2231C7.18545 8.63012 6.37267 9.30805 5.80119 10.1728C5.22971 11.0375 4.92468 12.051 4.92395 13.0875C4.92395 13.1997 4.96852 13.3073 5.04784 13.3866C5.12717 13.466 5.23476 13.5105 5.34694 13.5105H15.0758C15.188 13.5105 15.2956 13.466 15.3749 13.3866C15.4542 13.3073 15.4988 13.1997 15.4988 13.0875C15.4971 12.0495 15.1901 11.0348 14.6161 10.1699C14.0421 9.30499 13.2264 8.62797 12.2705 8.2231C12.2348 8.20759 12.204 8.18254 12.1815 8.15071C12.1591 8.11887 12.1458 8.08147 12.1432 8.04259C12.1406 8.00372 12.1487 7.96488 12.1667 7.93032C12.1847 7.89575 12.2118 7.8668 12.2451 7.84663C12.9997 7.39845 13.5861 6.71478 13.9141 5.90078C14.2422 5.08679 14.2937 4.18756 14.0608 3.34141C13.8279 2.49527 13.3234 1.74908 12.625 1.21763C11.9266 0.686184 11.073 0.398911 10.1953 0.400003C9.31773 0.401094 8.46478 0.690491 7.7677 1.22368C7.07062 1.75686 6.56802 2.5043 6.33722 3.35102C6.10641 4.19774 6.16018 5.09684 6.49025 5.91002C6.82033 6.7232 7.40843 7.40541 8.16409 7.85171V7.84917ZM7.88491 4.40515C7.88493 4.24518 7.90281 4.08571 7.93821 3.92971C7.9529 3.86442 7.98288 3.80354 8.02567 3.75209C8.06847 3.70064 8.12286 3.66007 8.18438 3.63373C8.2459 3.60739 8.3128 3.59602 8.37957 3.60055C8.44634 3.60509 8.51108 3.62541 8.56847 3.65984C9.37933 4.148 10.308 4.40569 11.2545 4.40515C11.502 4.40492 11.7491 4.38654 11.9939 4.35016C12.06 4.34027 12.1275 4.34618 12.1908 4.3674C12.2542 4.38863 12.3117 4.42457 12.3585 4.47228C12.4053 4.51999 12.4401 4.57811 12.4601 4.64188C12.4801 4.70565 12.4847 4.77325 12.4736 4.83914C12.366 5.40558 12.051 5.91149 11.5901 6.25786C11.1292 6.60423 10.5556 6.76612 9.98159 6.71183C9.4076 6.65754 8.87454 6.39099 8.48674 5.96435C8.09894 5.53771 7.88433 4.9817 7.88491 4.40515Z" fill="url(#paint0_linear)"/>
<path d="M16.4464 9.70364C16.9322 9.70661 17.4068 9.55839 17.8046 9.27952C18.2023 9.00066 18.5034 8.60496 18.6662 8.14728C18.829 7.6896 18.8454 7.19261 18.7131 6.72521C18.5807 6.25781 18.3063 5.84316 17.9278 5.53872C17.5492 5.23428 17.0854 5.05515 16.6005 5.02615C16.1156 4.99715 15.6337 5.11973 15.2215 5.37688C14.8094 5.63403 14.4875 6.01303 14.3004 6.46133C14.1134 6.90963 14.0704 7.40502 14.1775 7.87884C14.2962 8.39339 14.5845 8.85309 14.996 9.18404C15.4075 9.515 15.9183 9.698 16.4464 9.70364Z" fill="#549DFC"/>
<path d="M3.55364 9.70339C4.83852 9.70339 5.88011 8.6618 5.88011 7.37693C5.88011 6.09205 4.83852 5.05046 3.55364 5.05046C2.26877 5.05046 1.22717 6.09205 1.22717 7.37693C1.22717 8.6618 2.26877 9.70339 3.55364 9.70339Z" fill="#549DFC"/>
<defs>
<linearGradient id="paint0_linear" x1="10.2114" y1="0.4" x2="10.2114" y2="13.5105" gradientUnits="userSpaceOnUse">
<stop stop-color="#2257E2"/>
<stop offset="1" stop-color="#5AA6FF"/>
</linearGradient>
</defs>
</svg>
