<svg width="17" height="15" viewBox="0 0 17 15" fill="none" xmlns="http://www.w3.org/2000/svg">
<path d="M3.6768 8.52274C3.71416 8.54582 3.74454 8.57878 3.76464 8.61804C3.78474 8.6573 3.7938 8.70135 3.79084 8.74543C3.78787 8.78951 3.77299 8.83193 3.74781 8.86809C3.72263 8.90425 3.68811 8.93277 3.648 8.95055C2.56628 9.41623 1.64395 10.1919 0.995458 11.1812C0.346962 12.1706 0.000828562 13.3301 0 14.516C0 14.6444 0.0505714 14.7675 0.140589 14.8583C0.230606 14.949 0.352696 15 0.48 15H11.52C11.6473 15 11.7694 14.949 11.8594 14.8583C11.9494 14.7675 12 14.6444 12 14.516C11.998 13.3284 11.6497 12.1675 10.9983 11.1779C10.3469 10.1884 9.42131 9.41377 8.33664 8.95055C8.29608 8.93281 8.26115 8.90415 8.23567 8.86773C8.21019 8.8313 8.19514 8.78851 8.19216 8.74403C8.18919 8.69956 8.19841 8.65512 8.21881 8.61557C8.23921 8.57603 8.27001 8.54291 8.30784 8.51983C9.16407 8.00706 9.8295 7.22486 10.2018 6.29355C10.574 5.36224 10.6325 4.33341 10.3682 3.36533C10.1039 2.39724 9.53146 1.54351 8.73893 0.93547C7.9464 0.327429 6.97769 -0.00124533 5.98181 3.54591e-06C4.98592 0.00125242 4.01802 0.332356 3.227 0.942383C2.43597 1.55241 1.86564 2.40757 1.60373 3.37632C1.34181 4.34507 1.40283 5.37374 1.77739 6.30411C2.15195 7.23448 2.8193 8.01501 3.6768 8.52564V8.52274ZM3.36 4.58237C3.36002 4.39934 3.38031 4.21689 3.42048 4.0384C3.43715 3.9637 3.47117 3.89406 3.51973 3.83519C3.56829 3.77632 3.63002 3.72991 3.69983 3.69977C3.76964 3.66963 3.84555 3.65662 3.92132 3.66181C3.99709 3.66701 4.07055 3.69025 4.13568 3.72964C5.05582 4.28816 6.10966 4.58299 7.18368 4.58237C7.46451 4.58211 7.74494 4.56108 8.02272 4.51945C8.09772 4.50813 8.17432 4.51489 8.24623 4.53918C8.31815 4.56347 8.38333 4.60459 8.43644 4.65917C8.48955 4.71376 8.52907 4.78025 8.55177 4.85321C8.57447 4.92617 8.57971 5.00352 8.56704 5.07891C8.44503 5.72698 8.08752 6.3058 7.5645 6.70209C7.04147 7.09838 6.39058 7.28359 5.73924 7.22148C5.0879 7.15937 4.483 6.8544 4.04294 6.36628C3.60288 5.87815 3.35934 5.24201 3.36 4.58237Z" fill="url(#paint0_linear)"/>
<path d="M13.7677 14.5013C13.7677 14.6134 13.8123 14.721 13.8916 14.8004C13.971 14.8797 14.0786 14.9242 14.1907 14.9242H16.5773C16.6466 14.9242 16.7148 14.9071 16.7759 14.8746C16.8371 14.842 16.8893 14.7949 16.9279 14.7374C16.9666 14.6799 16.9906 14.6138 16.9978 14.5449C17.0049 14.476 16.995 14.4064 16.969 14.3422C16.718 13.7149 16.3027 13.1667 15.7669 12.7551C15.231 12.3435 14.5943 12.0838 13.9234 12.003C13.8532 11.9946 13.7821 12.0038 13.7164 12.03C13.6507 12.0561 13.5926 12.0982 13.5474 12.1526C13.5023 12.2069 13.4714 12.2718 13.4577 12.3411C13.4441 12.4104 13.448 12.4821 13.4691 12.5496C13.6671 13.1812 13.7678 13.8393 13.7677 14.5013Z" fill="#549DFC"/>
<path d="M13.4464 10.7036C13.9321 10.7066 14.4068 10.5584 14.8045 10.2795C15.2023 10.0007 15.5034 9.60496 15.6662 9.14728C15.829 8.6896 15.8453 8.19261 15.713 7.72521C15.5807 7.25781 15.3063 6.84316 14.9277 6.53872C14.5492 6.23428 14.0853 6.05515 13.6004 6.02615C13.1155 5.99715 12.6336 6.11973 12.2215 6.37688C11.8094 6.63403 11.4875 7.01303 11.3004 7.46133C11.1133 7.90963 11.0703 8.40502 11.1774 8.87884C11.2962 9.39339 11.5845 9.85309 11.996 10.184C12.4075 10.515 12.9183 10.698 13.4464 10.7036Z" fill="#549DFC"/>
<defs>
<linearGradient id="paint0_linear" x1="6" y1="0" x2="6" y2="15" gradientUnits="userSpaceOnUse">
<stop stop-color="#2257E2"/>
<stop offset="1" stop-color="#5AA6FF"/>
</linearGradient>
</defs>
</svg>