<svg width="18" height="18" viewBox="0 0 18 18" fill="none" xmlns="http://www.w3.org/2000/svg">
<path d="M2.24998 11.2499C2.05107 11.2499 1.86031 11.1709 1.71966 11.0302C1.57901 10.8896 1.49999 10.6988 1.49999 10.4999V5.99995C1.49999 5.9005 1.5395 5.80512 1.60982 5.73479C1.68015 5.66447 1.77553 5.62496 1.87499 5.62496H14.6249C14.7243 5.62496 14.8197 5.66447 14.8901 5.73479C14.9604 5.80512 14.9999 5.9005 14.9999 5.99995V6.8632C14.9999 7.01107 15.0445 7.15549 15.1279 7.27764C15.2112 7.39978 15.3295 7.49398 15.4671 7.54794L15.4829 7.55394C15.5951 7.59956 15.7168 7.61689 15.8372 7.60442C15.9577 7.59194 16.0733 7.55003 16.1737 7.48239C16.2742 7.41475 16.3565 7.32344 16.4134 7.21651C16.4702 7.10958 16.4999 6.99031 16.4999 6.8692V2.24998C16.4999 1.65325 16.2628 1.08096 15.8409 0.659005C15.4189 0.237051 14.8466 0 14.2499 0L2.24998 0C1.65325 0 1.08096 0.237051 0.659005 0.659005C0.237051 1.08096 0 1.65325 0 2.24998L0 10.4999C0 11.0967 0.237051 11.6689 0.659005 12.0909C1.08096 12.5129 1.65325 12.7499 2.24998 12.7499H6.4102C6.56868 12.7458 6.72122 12.6888 6.84355 12.5879C6.96587 12.4871 7.05093 12.3482 7.0852 12.1934L7.09645 12.1499C7.12901 12.047 7.13701 11.9378 7.11982 11.8312C7.10263 11.7247 7.06071 11.6236 6.99743 11.5361C6.93416 11.4486 6.85127 11.3772 6.75542 11.3275C6.65957 11.2778 6.55341 11.2512 6.44545 11.2499H2.24998ZM1.49999 2.24998C1.49999 2.05107 1.57901 1.86031 1.71966 1.71966C1.86031 1.57901 2.05107 1.49999 2.24998 1.49999H14.2499C14.4488 1.49999 14.6396 1.57901 14.7802 1.71966C14.9209 1.86031 14.9999 2.05107 14.9999 2.24998V2.99998C14.9999 3.09943 14.9604 3.19481 14.8901 3.26514C14.8197 3.33547 14.7243 3.37497 14.6249 3.37497H1.87499C1.77553 3.37497 1.68015 3.33547 1.60982 3.26514C1.5395 3.19481 1.49999 3.09943 1.49999 2.99998V2.24998Z" fill="url(#paint0_linear)"/>
<path d="M5.99961 8.25015H3.74963C3.55072 8.25015 3.35995 8.32917 3.2193 8.46982C3.07865 8.61047 2.99963 8.80124 2.99963 9.00015C2.99963 9.19906 3.07865 9.38982 3.2193 9.53047C3.35995 9.67113 3.55072 9.75014 3.74963 9.75014H5.99961C6.19852 9.75014 6.38929 9.67113 6.52994 9.53047C6.67059 9.38982 6.7496 9.19906 6.7496 9.00015C6.7496 8.80124 6.67059 8.61047 6.52994 8.46982C6.38929 8.32917 6.19852 8.25015 5.99961 8.25015ZM13.1246 8.25015C12.1604 8.25015 11.2179 8.53607 10.4162 9.07173C9.61449 9.6074 8.98965 10.3688 8.62068 11.2596C8.2517 12.1503 8.15516 13.1305 8.34326 14.0762C8.53137 15.0218 8.99566 15.8905 9.67744 16.5722C10.3592 17.254 11.2278 17.7183 12.1735 17.9064C13.1191 18.0945 14.0993 17.998 14.9901 17.629C15.8809 17.26 16.6423 16.6352 17.1779 15.8335C17.7136 15.0318 17.9995 14.0893 17.9995 13.1251C17.9995 11.8322 17.4859 10.5922 16.5717 9.678C15.6574 8.76377 14.4175 8.25015 13.1246 8.25015ZM12.3116 12.2206L14.344 12.9819C14.638 13.1337 14.8761 13.3751 15.0238 13.6712C15.1715 13.9673 15.2212 14.3027 15.1657 14.6289C15.1101 14.9551 14.9523 15.2552 14.7149 15.4858C14.4775 15.7163 14.173 15.8653 13.8453 15.9113C13.8011 15.9182 13.7608 15.9406 13.7318 15.9746C13.7028 16.0086 13.6869 16.0519 13.6871 16.0966V16.5001C13.6871 16.6493 13.6278 16.7923 13.5223 16.8978C13.4168 17.0033 13.2737 17.0626 13.1246 17.0626C12.9754 17.0626 12.8323 17.0033 12.7268 16.8978C12.6213 16.7923 12.5621 16.6493 12.5621 16.5001V16.1251C12.5621 16.0754 12.5423 16.0277 12.5071 15.9925C12.472 15.9574 12.4243 15.9376 12.3746 15.9376H11.6246C11.4754 15.9376 11.3323 15.8783 11.2268 15.7728C11.1213 15.6674 11.0621 15.5243 11.0621 15.3751C11.0621 15.2259 11.1213 15.0828 11.2268 14.9774C11.3323 14.8719 11.4754 14.8126 11.6246 14.8126H13.4996C13.8745 14.8126 14.062 14.6829 14.062 14.4271C14.0733 14.2835 14.0287 14.1411 13.9375 14.0296L11.9051 13.2684C11.6362 13.1393 11.4123 12.9326 11.262 12.675C11.1118 12.4174 11.0421 12.1207 11.0621 11.8231C11.0739 11.4567 11.2158 11.1065 11.4623 10.8352C11.7089 10.5639 12.044 10.3893 12.4076 10.3426C12.4509 10.3349 12.4901 10.3122 12.5183 10.2784C12.5466 10.2447 12.562 10.2021 12.5621 10.1581V9.75014C12.5621 9.60096 12.6213 9.45789 12.7268 9.3524C12.8323 9.24691 12.9754 9.18765 13.1246 9.18765C13.2737 9.18765 13.4168 9.24691 13.5223 9.3524C13.6278 9.45789 13.6871 9.60096 13.6871 9.75014V10.1251C13.6871 10.1749 13.7068 10.2226 13.742 10.2577C13.7771 10.2929 13.8248 10.3126 13.8745 10.3126H14.6245C14.7737 10.3126 14.9168 10.3719 15.0223 10.4774C15.1278 10.5829 15.187 10.726 15.187 10.8751C15.187 11.0243 15.1278 11.1674 15.0223 11.2729C14.9168 11.3784 14.7737 11.4376 14.6245 11.4376H12.7496C12.4451 11.4376 12.1871 11.6139 12.1871 11.8231C12.1758 11.9667 12.2204 12.1091 12.3116 12.2206Z" fill="#549DFC"/>
<defs>
<linearGradient id="paint0_linear" x1="8.24994" y1="0" x2="8.24994" y2="12.7499" gradientUnits="userSpaceOnUse">
<stop stop-color="#2257E2"/>
<stop offset="1" stop-color="#5AA6FF"/>
</linearGradient>
</defs>
</svg>
