<svg width="12" height="12" viewBox="0 0 12 12" fill="none" xmlns="http://www.w3.org/2000/svg">
<path d="M6 11.75C7.13724 11.75 8.24895 11.4128 9.19453 10.781C10.1401 10.1491 10.8771 9.2511 11.3123 8.20043C11.7475 7.14975 11.8614 5.99362 11.6395 4.87823C11.4177 3.76284 10.87 2.73829 10.0659 1.93414C9.26171 1.12998 8.23716 0.582348 7.12177 0.360483C6.00638 0.138618 4.85025 0.252488 3.79957 0.687692C2.7489 1.1229 1.85087 1.85989 1.21905 2.80547C0.587232 3.75105 0.25 4.86276 0.25 6C0.25172 7.52447 0.858075 8.986 1.93604 10.064C3.014 11.1419 4.47553 11.7483 6 11.75ZM2.75 5.75C2.75 5.61739 2.80268 5.49021 2.89645 5.39645C2.99021 5.30268 3.11739 5.25 3.25 5.25H8.75C8.88261 5.25 9.00979 5.30268 9.10355 5.39645C9.19732 5.49021 9.25 5.61739 9.25 5.75V6.25C9.25 6.38261 9.19732 6.50978 9.10355 6.60355C9.00979 6.69732 8.88261 6.75 8.75 6.75H3.25C3.11739 6.75 2.99021 6.69732 2.89645 6.60355C2.80268 6.50978 2.75 6.38261 2.75 6.25V5.75Z" fill="#FE6955"/>
</svg>
