<svg width="13" height="13" viewBox="0 0 13 13" fill="none" xmlns="http://www.w3.org/2000/svg">
<path d="M8.12493 4.8918C8.12493 4.85589 8.1392 4.82144 8.16459 4.79605C8.18999 4.77065 8.22443 4.75638 8.26035 4.75638H10.0208C10.1263 4.75646 10.2295 4.72573 10.3177 4.66797C10.406 4.6102 10.4755 4.52792 10.5177 4.43122C10.5598 4.33452 10.5728 4.22762 10.5551 4.12363C10.5374 4.01964 10.4896 3.92309 10.4178 3.84584L7.08168 0.253509C7.00573 0.17642 6.91521 0.115204 6.81538 0.0734191C6.71556 0.0316346 6.60842 0.0101166 6.5002 0.0101166C6.39198 0.0101166 6.28485 0.0316346 6.18502 0.0734191C6.08519 0.115204 5.99467 0.17642 5.91872 0.253509L2.58206 3.84584C2.51022 3.92309 2.4625 4.01964 2.44476 4.12363C2.42702 4.22762 2.44003 4.33452 2.48219 4.43122C2.52436 4.52792 2.59384 4.6102 2.68212 4.66797C2.77039 4.72573 2.87361 4.75646 2.9791 4.75638H4.73951C4.77543 4.75638 4.80987 4.77065 4.83527 4.79605C4.86066 4.82144 4.87493 4.85589 4.87493 4.8918V7.57359C4.87493 7.71725 4.932 7.85503 5.03358 7.95661C5.13516 8.05819 5.27294 8.11526 5.4166 8.11526H7.58326C7.72692 8.11526 7.8647 8.05819 7.96628 7.95661C8.06786 7.85503 8.12493 7.71725 8.12493 7.57359V4.8918Z" fill="#5FCF64"/>
<path d="M7.58333 8.92769H5.41667C5.11751 8.92769 4.875 9.1702 4.875 9.46936V10.011C4.875 10.3102 5.11751 10.5527 5.41667 10.5527H7.58333C7.88249 10.5527 8.125 10.3102 8.125 10.011V9.46936C8.125 9.1702 7.88249 8.92769 7.58333 8.92769Z" fill="#5FCF64"/>
<path d="M7.58333 11.3652H5.41667C5.11751 11.3652 4.875 11.6077 4.875 11.9069V12.4485C4.875 12.7477 5.11751 12.9902 5.41667 12.9902H7.58333C7.88249 12.9902 8.125 12.7477 8.125 12.4485V11.9069C8.125 11.6077 7.88249 11.3652 7.58333 11.3652Z" fill="#5FCF64"/>
</svg>
