<svg width="20" height="20" viewBox="0 0 20 20" fill="none" xmlns="http://www.w3.org/2000/svg">
<circle cx="10" cy="10" r="10" fill="#6967E0"/>
<g clip-path="url(#clip0)">
<path d="M14.5473 8.46495H14.3473C14.3227 8.46509 14.2987 8.45683 14.2793 8.44153C14.2599 8.42623 14.2463 8.40479 14.2408 8.38074C14.012 7.48763 13.4543 6.7139 12.6794 6.21452C12.6596 6.20136 12.6446 6.18215 12.6367 6.15977C12.6288 6.13739 12.6284 6.11304 12.6355 6.09039C12.704 5.87941 12.8247 5.68916 12.9864 5.53732C13.0433 5.48351 13.0848 5.41542 13.1066 5.34014C13.1283 5.26485 13.1295 5.18512 13.11 5.10923C13.0904 5.03334 13.0509 4.96407 12.9956 4.90861C12.9402 4.85316 12.871 4.81355 12.7951 4.7939C12.4589 4.70633 12.1043 4.7207 11.7763 4.83519C11.4483 4.94968 11.1617 5.15912 10.953 5.43688C10.9408 5.45308 10.9244 5.46556 10.9055 5.47292C10.8865 5.48028 10.866 5.48223 10.846 5.47855C10.166 5.34821 9.46609 5.36349 8.79241 5.52339C8.11874 5.68328 7.4866 5.98416 6.93769 6.40618C6.29497 6.9012 5.83952 7.59992 5.64602 8.38776C5.64235 8.40473 5.64278 8.42234 5.64727 8.43911C5.65177 8.45588 5.66019 8.47134 5.67186 8.48421C5.68352 8.49707 5.69809 8.50697 5.71434 8.51308C5.7306 8.51919 5.74807 8.52134 5.76532 8.51934C6.17138 8.47758 6.57953 8.45942 6.98769 8.46495C7.76752 8.46495 9.83857 8.46495 9.83857 9.56145V12.7386C9.83857 12.7676 9.85006 12.7955 9.87053 12.816C9.891 12.8366 9.91877 12.8482 9.94778 12.8483C10.4304 12.85 10.9105 12.7796 11.3723 12.6395C11.3862 12.6354 11.4007 12.634 11.4151 12.6355C11.4295 12.637 11.4434 12.6414 11.4561 12.6483C11.4816 12.6624 11.5005 12.6861 11.5087 12.7141L11.7223 13.4527C11.762 13.5896 11.845 13.7099 11.9589 13.7956C12.0728 13.8812 12.2114 13.9276 12.3539 13.9277C12.416 13.9277 12.4777 13.9189 12.5373 13.9014C12.7047 13.8528 12.846 13.7397 12.9301 13.587C13.0143 13.4343 13.0343 13.2544 12.9859 13.0869L12.7017 12.1053C12.6953 12.0834 12.6959 12.0601 12.7034 12.0386C12.7108 12.017 12.7248 11.9983 12.7434 11.9851C13.222 11.6541 13.6197 11.2193 13.907 10.7132C13.9165 10.6961 13.9304 10.6818 13.9473 10.6719C13.9642 10.6619 13.9834 10.6566 14.003 10.6566H14.5473C14.7218 10.6566 14.8892 10.5873 15.0125 10.4639C15.1359 10.3405 15.2052 10.1732 15.2052 9.99873V9.12285C15.2052 8.94836 15.1359 8.78103 15.0125 8.65765C14.8892 8.53427 14.7218 8.46495 14.5473 8.46495ZM12.1351 8.46495C12.1351 8.37821 12.1608 8.29341 12.209 8.22128C12.2572 8.14916 12.3257 8.09294 12.4058 8.05974C12.486 8.02655 12.5741 8.01786 12.6592 8.03479C12.7443 8.05171 12.8225 8.09348 12.8838 8.15482C12.9451 8.21616 12.9869 8.29431 13.0038 8.37939C13.0207 8.46447 13.0121 8.55265 12.9789 8.6328C12.9457 8.71294 12.8895 8.78144 12.8173 8.82963C12.7452 8.87783 12.6604 8.90355 12.5737 8.90355C12.4573 8.90355 12.3458 8.85734 12.2635 8.77509C12.1813 8.69284 12.1351 8.58128 12.1351 8.46495ZM8.16576 7.63162C8.09598 7.6839 8.00832 7.70638 7.92199 7.69413C7.83566 7.68188 7.75772 7.6359 7.70523 7.56627C7.67922 7.53172 7.66028 7.49239 7.64949 7.45052C7.63869 7.40864 7.63626 7.36505 7.64233 7.32224C7.6484 7.27942 7.66285 7.23823 7.68486 7.201C7.70687 7.16378 7.736 7.13126 7.77059 7.10531C8.46254 6.58461 9.31892 6.33066 10.1829 6.38995C10.2261 6.39274 10.2684 6.40404 10.3072 6.4232C10.3461 6.44236 10.3807 6.46901 10.4093 6.50161C10.4378 6.53421 10.4596 6.57213 10.4734 6.61318C10.4873 6.65423 10.4929 6.69761 10.4899 6.74083C10.4825 6.82746 10.4418 6.90786 10.3764 6.96511C10.3109 7.02237 10.2259 7.05202 10.139 7.04785C9.43269 7.0009 8.73285 7.20794 8.16576 7.63162Z" fill="white"/>
<path d="M9.12275 11.6202C9.14033 11.6109 9.15505 11.5969 9.16532 11.5798C9.17559 11.5628 9.18104 11.5432 9.18108 11.5233V10.4825C9.1811 10.465 9.1769 10.4477 9.16885 10.4321C9.16081 10.4165 9.14914 10.4031 9.13483 10.393C9.12053 10.3828 9.104 10.3763 9.08663 10.3738C9.06927 10.3714 9.05157 10.3732 9.03503 10.379C8.37067 10.5745 7.68054 10.6683 6.9881 10.6571C6.29581 10.6682 5.60582 10.5745 4.94161 10.379C4.92504 10.3732 4.90733 10.3714 4.88994 10.3739C4.87256 10.3763 4.85601 10.3829 4.84168 10.393C4.82734 10.4031 4.81563 10.4165 4.80753 10.4321C4.79944 10.4477 4.79518 10.465 4.79512 10.4825V11.5237C4.79522 11.5438 4.80073 11.5634 4.81108 11.5805C4.82143 11.5977 4.83622 11.6117 4.85389 11.6211C5.5327 11.8869 6.25994 12.0064 6.9881 11.972C7.71654 12.0074 8.44419 11.8875 9.12275 11.6202ZM6.98766 14.1667C6.29537 14.1779 5.60538 14.0841 4.94117 13.8887C4.9246 13.8828 4.90689 13.8811 4.88951 13.8835C4.87212 13.886 4.85557 13.8925 4.84124 13.9026C4.8269 13.9128 4.8152 13.9262 4.8071 13.9418C4.799 13.9573 4.79474 13.9746 4.79468 13.9922V14.8246C4.79468 15.0676 5.7767 15.2632 6.98766 15.2632C8.19863 15.2632 9.18064 15.0676 9.18064 14.8246V13.9913C9.18066 13.9737 9.17646 13.9565 9.16842 13.9409C9.16037 13.9253 9.1487 13.9119 9.1344 13.9017C9.12009 13.8916 9.10356 13.885 9.08619 13.8826C9.06883 13.8802 9.05113 13.882 9.03459 13.8878C8.37028 14.0836 7.68014 14.1776 6.98766 14.1667ZM4.79468 9.56146V9.77023C4.79478 9.79025 4.80029 9.80988 4.81064 9.82702C4.82099 9.84416 4.83578 9.85818 4.85345 9.8676C5.53226 10.1334 6.2595 10.2529 6.98766 10.2185C7.71631 10.2537 8.44412 10.1335 9.12275 9.86585C9.14033 9.85648 9.15505 9.84252 9.16532 9.82545C9.17559 9.80838 9.18104 9.78884 9.18108 9.76892V9.56146C9.18108 9.31979 8.1995 9.12286 6.9881 9.12286C5.7767 9.12286 4.79468 9.31979 4.79468 9.56146ZM9.18064 12.2369C9.18066 12.2194 9.17646 12.2021 9.16842 12.1865C9.16037 12.1709 9.1487 12.1575 9.1344 12.1474C9.12009 12.1372 9.10356 12.1307 9.08619 12.1282C9.06883 12.1258 9.05113 12.1276 9.03459 12.1334C8.37023 12.3289 7.6801 12.4226 6.98766 12.4115C6.29537 12.4226 5.60538 12.3289 4.94117 12.1334C4.9246 12.1276 4.90689 12.1258 4.88951 12.1283C4.87212 12.1307 4.85557 12.1372 4.84124 12.1474C4.8269 12.1575 4.8152 12.1709 4.8071 12.1865C4.799 12.2021 4.79474 12.2193 4.79468 12.2369V13.2781C4.79478 13.2981 4.80029 13.3178 4.81064 13.3349C4.82099 13.3521 4.83578 13.3661 4.85345 13.3755C5.53226 13.6413 6.2595 13.7608 6.98766 13.7264C7.71625 13.7619 8.44406 13.642 9.12275 13.3746C9.14033 13.3653 9.15505 13.3513 9.16532 13.3342C9.17559 13.3171 9.18104 13.2976 9.18108 13.2777L9.18064 12.2369Z" fill="white"/>
</g>
<defs>
<clipPath id="clip0">
<rect width="10.5263" height="10.5263" fill="white" transform="translate(4.73682 4.73691)"/>
</clipPath>
</defs>
</svg>
