<svg width="13" height="13" viewBox="0 0 13 13" fill="none" xmlns="http://www.w3.org/2000/svg">
<path d="M6.5 13C5.21442 13 3.95772 12.6188 2.8888 11.9046C1.81988 11.1903 0.986755 10.1752 0.494786 8.98744C0.00281636 7.79972 -0.125905 6.49279 0.124899 5.23191C0.375702 3.97104 0.994767 2.81285 1.90381 1.90381C2.81285 0.994767 3.97104 0.375702 5.23191 0.124899C6.49279 -0.125905 7.79972 0.0028162 8.98744 0.494785C10.1752 0.986755 11.1903 1.81988 11.9046 2.88879C12.6188 3.95771 13 5.21442 13 6.5C12.9981 8.22334 12.3127 9.87555 11.0941 11.0941C9.87555 12.3127 8.22334 12.9981 6.5 13V13ZM9.51871 8.25933L6.73509 3.38867C6.71139 3.34725 6.67717 3.31282 6.63588 3.28887C6.5946 3.26493 6.54773 3.25232 6.5 3.25232C6.45228 3.25232 6.4054 3.26493 6.36412 3.28887C6.32284 3.31282 6.28862 3.34725 6.26492 3.38867L3.48129 8.25933C3.45721 8.30061 3.44447 8.34753 3.44438 8.39532C3.44429 8.44312 3.45684 8.49008 3.48077 8.53145C3.50471 8.57282 3.53916 8.60712 3.58063 8.63087C3.62211 8.65462 3.66913 8.66697 3.71692 8.66667H9.28308C9.33056 8.66675 9.37722 8.65435 9.41839 8.63071C9.45956 8.60707 9.4938 8.57303 9.51766 8.53199C9.54153 8.49095 9.55419 8.44436 9.55437 8.39688C9.55455 8.34941 9.54226 8.30272 9.51871 8.2615V8.25933Z" fill="#DDDDDD"/>
</svg>
