<svg width="16" height="16" viewBox="0 0 16 16" fill="none" xmlns="http://www.w3.org/2000/svg">
<path d="M14.6667 2.51667C14.6682 2.31996 14.613 2.12698 14.5078 1.96077C14.4026 1.79455 14.2518 1.66214 14.0733 1.57934C12.1599 0.738775 10.0898 0.314076 7.99999 0.333337C5.91017 0.314076 3.84007 0.738775 1.92665 1.57934C1.74822 1.66214 1.59738 1.79455 1.49217 1.96077C1.38696 2.12698 1.33181 2.31996 1.33332 2.51667V7.608C1.33063 9.26001 1.82759 10.8742 2.75895 12.2387C3.69032 13.6031 5.01253 14.654 6.55199 15.2533L7.26332 15.5293C7.73732 15.7127 8.26265 15.7127 8.73665 15.5293L9.44799 15.2533C10.9874 14.654 12.3097 13.6031 13.241 12.2387C14.1724 10.8742 14.6693 9.26001 14.6667 7.608C14.664 5.956 14.6667 2.51667 14.6667 2.51667Z" fill="#5FCF64"/>
<path d="M6.24765 7.6013C7.24212 7.6013 8.0483 6.79512 8.0483 5.80065C8.0483 4.80618 7.24212 4 6.24765 4C5.25318 4 4.447 4.80618 4.447 5.80065C4.447 6.79512 5.25318 7.6013 6.24765 7.6013Z" stroke="white" stroke-linecap="round" stroke-linejoin="round"/>
<path d="M9.18893 11.0271C9.1542 10.4395 8.94426 9.87585 8.58619 9.4087C8.22812 8.94155 7.73833 8.59237 7.17996 8.40617C6.6216 8.21997 6.02026 8.20529 5.45347 8.36402C4.88668 8.52276 4.38044 8.84763 4 9.29675" stroke="white" stroke-linecap="round" stroke-linejoin="round"/>
<path d="M10.34 7.92869C10.9729 7.92869 11.4859 7.41567 11.4859 6.78282C11.4859 6.14998 10.9729 5.63696 10.34 5.63696C9.70719 5.63696 9.19416 6.14998 9.19416 6.78282C9.19416 7.41567 9.70719 7.92869 10.34 7.92869Z" stroke="white" stroke-linecap="round" stroke-linejoin="round"/>
<path d="M11.9333 9.0715C11.7335 8.79433 11.4649 8.57408 11.1539 8.43248C10.843 8.29089 10.5005 8.23285 10.1602 8.2641C9.81996 8.29535 9.49375 8.41481 9.21379 8.61069C8.93383 8.80656 8.7098 9.07206 8.56383 9.38099" stroke="white" stroke-linecap="round" stroke-linejoin="round"/>
</svg>
