<svg width="14" height="16" viewBox="0 0 14 16" fill="none" xmlns="http://www.w3.org/2000/svg">
<path fill-rule="evenodd" clip-rule="evenodd" d="M13.5078 1.96076C13.613 2.12698 13.6682 2.31996 13.6667 2.51667V7.608C13.6694 9.26001 13.1724 10.8742 12.241 12.2387C11.3097 13.6031 9.98745 14.654 8.44799 15.2533L7.73666 15.5293C7.26266 15.7127 6.73733 15.7127 6.26333 15.5293L5.55199 15.2533C4.01254 14.654 2.69032 13.6031 1.75896 12.2387C0.827601 10.8742 0.330637 9.26001 0.333328 7.608V2.51667C0.331819 2.31996 0.386964 2.12698 0.492177 1.96076C0.597389 1.79455 0.748223 1.66214 0.926661 1.57934C2.84008 0.738775 4.91017 0.314076 6.99999 0.333337C9.08982 0.314076 11.1599 0.738775 13.0733 1.57934C13.2518 1.66214 13.4026 1.79455 13.5078 1.96076ZM2.86192 6.19526C2.73689 6.32029 2.66666 6.48985 2.66666 6.66667V7.33333C2.66666 7.51014 2.73689 7.67971 2.86192 7.80474C2.98694 7.92976 3.15651 8 3.33332 8H10.6667C10.8435 8 11.013 7.92976 11.1381 7.80474C11.2631 7.67971 11.3333 7.51014 11.3333 7.33333V6.66667C11.3333 6.48985 11.2631 6.32029 11.1381 6.19526C11.013 6.07024 10.8435 6 10.6667 6H3.33332C3.15651 6 2.98694 6.07024 2.86192 6.19526Z" fill="#5ABAFF"/>
</svg>
