<svg width="22" height="23" viewBox="0 0 22 23" fill="none" xmlns="http://www.w3.org/2000/svg">
<g opacity="0.5">
<g filter="url(#filter0_d_154_2568)">
<path d="M16.8333 4H14.6458C14.6072 4 14.5701 3.98464 14.5427 3.95729C14.5154 3.92994 14.5 3.89284 14.5 3.85417V1.66667C14.5 1.35725 14.3771 1.0605 14.1583 0.841709C13.9395 0.622916 13.6428 0.5 13.3333 0.5H5.16667C4.85725 0.5 4.5605 0.622916 4.34171 0.841709C4.12292 1.0605 4 1.35725 4 1.66667V9.83333C4 10.1428 4.12292 10.4395 4.34171 10.6583C4.5605 10.8771 4.85725 11 5.16667 11H7.35417C7.39284 11 7.42994 11.0154 7.45729 11.0427C7.48464 11.0701 7.5 11.1072 7.5 11.1458V13.3333C7.5 13.6428 7.62292 13.9395 7.84171 14.1583C8.0605 14.3771 8.35725 14.5 8.66667 14.5H16.8333C17.1428 14.5 17.4395 14.3771 17.6583 14.1583C17.8771 13.9395 18 13.6428 18 13.3333V5.16667C18 4.85725 17.8771 4.5605 17.6583 4.34171C17.4395 4.12292 17.1428 4 16.8333 4ZM5.16667 1.95833C5.16667 1.88098 5.1974 1.80679 5.25209 1.75209C5.30679 1.6974 5.38098 1.66667 5.45833 1.66667H13.0417C13.119 1.66667 13.1932 1.6974 13.2479 1.75209C13.3026 1.80679 13.3333 1.88098 13.3333 1.95833V9.54167C13.3333 9.61902 13.3026 9.69321 13.2479 9.74791C13.1932 9.8026 13.119 9.83333 13.0417 9.83333H5.45833C5.38098 9.83333 5.30679 9.8026 5.25209 9.74791C5.1974 9.69321 5.16667 9.61902 5.16667 9.54167V1.95833Z" fill="#717171"/>
</g>
</g>
<defs>
<filter id="filter0_d_154_2568" x="0" y="0.5" width="22" height="22" filterUnits="userSpaceOnUse" color-interpolation-filters="sRGB">
<feFlood flood-opacity="0" result="BackgroundImageFix"/>
<feColorMatrix in="SourceAlpha" type="matrix" values="0 0 0 0 0 0 0 0 0 0 0 0 0 0 0 0 0 0 127 0" result="hardAlpha"/>
<feOffset dy="4"/>
<feGaussianBlur stdDeviation="2"/>
<feColorMatrix type="matrix" values="0 0 0 0 0 0 0 0 0 0 0 0 0 0 0 0 0 0 0.05 0"/>
<feBlend mode="normal" in2="BackgroundImageFix" result="effect1_dropShadow_154_2568"/>
<feBlend mode="normal" in="SourceGraphic" in2="effect1_dropShadow_154_2568" result="shape"/>
</filter>
</defs>
</svg>
