<svg width="16" height="16" viewBox="0 0 16 16" fill="none" xmlns="http://www.w3.org/2000/svg">
<g clip-path="url(#clip0_1006_6293)">
<path d="M14.928 10.6667H14.0713C14.0271 10.6667 13.9847 10.6491 13.9535 10.6178C13.9222 10.5866 13.9046 10.5442 13.9046 10.5V7.66666C13.9045 7.59799 13.8832 7.53104 13.8436 7.47496C13.804 7.41888 13.748 7.3764 13.6833 7.35332C13.6185 7.33005 13.548 7.32742 13.4817 7.3458C13.4153 7.36419 13.3563 7.40268 13.3126 7.45599L9.79998 11.764C9.73221 11.8434 9.68856 11.9405 9.67417 12.0439C9.65978 12.1473 9.67526 12.2526 9.71878 12.3475C9.76229 12.4424 9.83203 12.5228 9.91977 12.5794C10.0075 12.6359 10.1096 12.6662 10.214 12.6667H11.0713C11.1155 12.6667 11.1579 12.6842 11.1892 12.7155C11.2204 12.7467 11.238 12.7891 11.238 12.8333V15.6667C11.238 15.7354 11.2592 15.8025 11.2989 15.8587C11.3385 15.915 11.3945 15.9575 11.4593 15.9807C11.4952 15.9936 11.5331 16.0002 11.5713 16C11.6208 16.0001 11.6697 15.9892 11.7144 15.9681C11.7591 15.947 11.7986 15.9162 11.83 15.878L15.3446 11.57C15.4125 11.4903 15.4561 11.393 15.4704 11.2893C15.4846 11.1857 15.4689 11.0801 15.4251 10.9851C15.3813 10.8901 15.3112 10.8097 15.2231 10.7532C15.135 10.6968 15.0326 10.6668 14.928 10.6667Z" fill="#717171"/>
<path d="M8.30067 12.8153C8.26393 12.6758 8.18156 12.5525 8.06667 12.4652C7.95178 12.3778 7.81098 12.3314 7.66667 12.3333H2C1.82319 12.3333 1.65362 12.2631 1.5286 12.1381C1.40357 12.013 1.33333 11.8435 1.33333 11.6667V3.50067C1.33325 3.47872 1.33749 3.45698 1.34583 3.43668C1.35416 3.41638 1.36643 3.39793 1.38191 3.38238C1.3974 3.36684 1.4158 3.3545 1.43607 3.34608C1.45633 3.33767 1.47806 3.33333 1.5 3.33333H14.5C14.5442 3.33333 14.5866 3.35089 14.6179 3.38215C14.6491 3.41341 14.6667 3.4558 14.6667 3.5V6.68733C14.6681 6.78757 14.692 6.8862 14.7368 6.97588C14.7816 7.06557 14.8461 7.14399 14.9253 7.20533L14.94 7.21733C15.0367 7.29361 15.1531 7.34105 15.2756 7.35418C15.398 7.36732 15.5218 7.34562 15.6325 7.29158C15.7432 7.23755 15.8364 7.15337 15.9014 7.04872C15.9664 6.94407 16.0006 6.8232 16 6.7V2C16 1.46957 15.7893 0.960859 15.4142 0.585786C15.0391 0.210714 14.5304 0 14 0L2 0C1.46957 0 0.960859 0.210714 0.585787 0.585786C0.210714 0.960859 0 1.46957 0 2L0 11.6667C0 12.1971 0.210714 12.7058 0.585787 13.0809C0.960859 13.456 1.46957 13.6667 2 13.6667H7.67067C7.77175 13.665 7.87111 13.6403 7.96125 13.5945C8.05139 13.5487 8.12993 13.4831 8.19095 13.4025C8.25196 13.3219 8.29385 13.2284 8.31343 13.1293C8.33302 13.0301 8.3298 12.9277 8.304 12.83L8.30067 12.8153ZM6.436 1.33333C6.49162 1.23243 6.57328 1.1483 6.67248 1.08971C6.77168 1.03111 6.88479 1.0002 7 1.0002C7.11521 1.0002 7.22832 1.03111 7.32752 1.08971C7.42672 1.1483 7.50839 1.23243 7.564 1.33333C7.62805 1.43297 7.66355 1.54826 7.66667 1.66667C7.66366 1.78509 7.62814 1.9004 7.564 2C7.50839 2.1009 7.42672 2.18503 7.32752 2.24363C7.22832 2.30222 7.11521 2.33313 7 2.33313C6.88479 2.33313 6.77168 2.30222 6.67248 2.24363C6.57328 2.18503 6.49162 2.1009 6.436 2C6.37186 1.9004 6.33635 1.78509 6.33333 1.66667C6.33645 1.54826 6.37196 1.43297 6.436 1.33333V1.33333ZM4.10267 1.33333C4.15828 1.23243 4.23995 1.1483 4.33915 1.08971C4.43835 1.03111 4.55145 1.0002 4.66667 1.0002C4.78188 1.0002 4.89498 1.03111 4.99419 1.08971C5.09339 1.1483 5.17505 1.23243 5.23067 1.33333C5.29471 1.43297 5.33022 1.54826 5.33333 1.66667C5.33032 1.78509 5.29481 1.9004 5.23067 2C5.17505 2.1009 5.09339 2.18503 4.99419 2.24363C4.89498 2.30222 4.78188 2.33313 4.66667 2.33313C4.55145 2.33313 4.43835 2.30222 4.33915 2.24363C4.23995 2.18503 4.15828 2.1009 4.10267 2C4.03853 1.9004 4.00301 1.78509 4 1.66667C4.00312 1.54826 4.03862 1.43297 4.10267 1.33333V1.33333ZM1.728 1.39467C1.78029 1.27766 1.8652 1.1782 1.97256 1.1082C2.07991 1.03821 2.20517 1.00064 2.33333 1C2.4483 1.00133 2.5609 1.03281 2.65987 1.09131C2.75885 1.1498 2.84073 1.23326 2.89733 1.33333C2.96138 1.43297 2.99689 1.54826 3 1.66667C2.99699 1.78509 2.96147 1.9004 2.89733 2C2.84172 2.1009 2.76005 2.18503 2.66085 2.24363C2.56165 2.30222 2.44855 2.33313 2.33333 2.33313C2.21812 2.33313 2.10502 2.30222 2.00582 2.24363C1.90661 2.18503 1.82495 2.1009 1.76933 2C1.7052 1.9004 1.66968 1.78509 1.66667 1.66667C1.66738 1.57287 1.68829 1.48032 1.728 1.39533V1.39467Z" fill="#717171"/>
</g>
<defs>
<clipPath id="clip0_1006_6293">
<rect width="16" height="16" fill="white"/>
</clipPath>
</defs>
</svg>
