<svg width="16" height="16" viewBox="0 0 16 16" fill="none" xmlns="http://www.w3.org/2000/svg">
<g clip-path="url(#clip0_1303_6344)">
<path d="M4.67425 1.36003C5.08608 1.76227 5.33096 2.30509 5.35997 2.88003L7.45139 0.800027C7.52322 0.719497 7.61126 0.655058 7.70974 0.610937C7.80822 0.566815 7.91491 0.544006 8.02282 0.544006C8.13073 0.544006 8.23743 0.566815 8.3359 0.610937C8.43438 0.655058 8.52242 0.719497 8.59425 0.800027L10.2857 2.56003C10.0454 2.67652 9.8255 2.83087 9.63425 3.01717C9.22719 3.46483 9.0081 4.05202 9.02246 4.65691C9.03681 5.2618 9.28351 5.83794 9.71135 6.26579C10.1392 6.69363 10.7153 6.94032 11.3202 6.95468C11.9251 6.96903 12.5123 6.74995 12.96 6.34288C13.1463 6.15164 13.3006 5.93169 13.4171 5.69146L15.2 7.45146C15.2805 7.52329 15.3449 7.61133 15.3891 7.7098C15.4332 7.80828 15.456 7.91497 15.456 8.02288C15.456 8.13079 15.4332 8.23749 15.3891 8.33596C15.3449 8.43444 15.2805 8.52248 15.2 8.59431L13.12 10.64C13.5705 10.6673 14.0035 10.8241 14.367 11.0915C14.7306 11.359 15.0091 11.7258 15.1692 12.1478C15.3292 12.5698 15.364 13.029 15.2692 13.4703C15.1745 13.9116 14.9543 14.3161 14.6352 14.6353C14.3161 14.9544 13.9115 15.1746 13.4703 15.2693C13.029 15.364 12.5697 15.3293 12.1477 15.1692C11.7257 15.0092 11.359 14.7306 11.0915 14.3671C10.824 14.0036 10.6672 13.5705 10.64 13.12L8.54854 15.2C8.47671 15.2806 8.38867 15.345 8.29019 15.3891C8.19171 15.4332 8.08502 15.456 7.97711 15.456C7.8692 15.456 7.76251 15.4332 7.66403 15.3891C7.56555 15.345 7.47751 15.2806 7.40568 15.2L5.71425 13.44C5.95449 13.3235 6.17443 13.1692 6.36568 12.9829C6.8067 12.5388 7.05325 11.9378 7.05111 11.3119C7.04897 10.6861 6.7983 10.0868 6.35425 9.64574C5.9102 9.20472 5.30915 8.95817 4.68331 8.96031C4.05748 8.96245 3.45813 9.21312 3.01711 9.65717C2.83081 9.84842 2.67646 10.0684 2.55997 10.3086L0.799966 8.5486C0.719436 8.47677 0.654997 8.38873 0.610876 8.29025C0.566754 8.19177 0.543945 8.08508 0.543945 7.97717C0.543945 7.86926 0.566754 7.76257 0.610876 7.66409C0.654997 7.56561 0.719436 7.47757 0.799966 7.40574L2.87997 5.36003C2.30503 5.33102 1.7622 5.08614 1.35997 4.67431C0.920464 4.23481 0.673555 3.63872 0.673555 3.01717C0.673555 2.39562 0.920464 1.79953 1.35997 1.36003C1.79947 0.920525 2.39556 0.673616 3.01711 0.673616C3.63866 0.673616 4.23475 0.920525 4.67425 1.36003Z" fill="#717171"/>
</g>
<defs>
<clipPath id="clip0_1303_6344">
<rect width="16" height="16" fill="white"/>
</clipPath>
</defs>
</svg>
