<svg width="16" height="16" viewBox="0 0 16 16" fill="none" xmlns="http://www.w3.org/2000/svg">
<path d="M15.5 4.33749C15.5 4.00597 15.3683 3.68803 15.1339 3.45361C14.8995 3.21919 14.5815 3.08749 14.25 3.08749H10.5C10.4171 3.08749 10.3376 3.12042 10.279 3.17902C10.2204 3.23763 10.1875 3.31711 10.1875 3.39999V4.33749C10.1875 4.42037 10.1546 4.49986 10.096 4.55846C10.0374 4.61707 9.95788 4.64999 9.875 4.64999C9.79212 4.64999 9.71263 4.61707 9.65403 4.55846C9.59542 4.49986 9.5625 4.42037 9.5625 4.33749V2.77499C9.5625 2.27771 9.36496 1.8008 9.01333 1.44917C8.66169 1.09754 8.18478 0.899994 7.6875 0.899994C7.19022 0.899994 6.71331 1.09754 6.36167 1.44917C6.01004 1.8008 5.8125 2.27771 5.8125 2.77499V4.33749C5.8125 4.42037 5.77958 4.49986 5.72097 4.55846C5.66237 4.61707 5.58288 4.64999 5.5 4.64999C5.41712 4.64999 5.33763 4.61707 5.27903 4.55846C5.22042 4.49986 5.1875 4.42037 5.1875 4.33749V3.39999C5.1875 3.31711 5.15458 3.23763 5.09597 3.17902C5.03737 3.12042 4.95788 3.08749 4.875 3.08749H1.75C1.41848 3.08749 1.10054 3.21919 0.866117 3.45361C0.631696 3.68803 0.5 4.00597 0.5 4.33749L0.5 13.7125C0.5 14.044 0.631696 14.362 0.866117 14.5964C1.10054 14.8308 1.41848 14.9625 1.75 14.9625H14.25C14.5815 14.9625 14.8995 14.8308 15.1339 14.5964C15.3683 14.362 15.5 14.044 15.5 13.7125V4.33749ZM7.0625 2.61874C7.0625 2.49513 7.09916 2.37429 7.16783 2.27151C7.23651 2.16873 7.33412 2.08862 7.44832 2.04132C7.56253 1.99401 7.68819 1.98164 7.80943 2.00575C7.93067 2.02987 8.04203 2.08939 8.12944 2.1768C8.21685 2.26421 8.27638 2.37557 8.30049 2.49681C8.32461 2.61805 8.31223 2.74372 8.26493 2.85792C8.21762 2.97212 8.13751 3.06974 8.03473 3.13841C7.93195 3.20709 7.81111 3.24374 7.6875 3.24374C7.52174 3.24374 7.36277 3.1779 7.24556 3.06069C7.12835 2.94348 7.0625 2.7845 7.0625 2.61874ZM2.0625 13.7125C1.97962 13.7125 1.90013 13.6796 1.84153 13.621C1.78292 13.5624 1.75 13.4829 1.75 13.4V6.83749C1.75 6.75461 1.78292 6.67513 1.84153 6.61652C1.90013 6.55792 1.97962 6.52499 2.0625 6.52499H13.9375C14.0204 6.52499 14.0999 6.55792 14.1585 6.61652C14.2171 6.67513 14.25 6.75461 14.25 6.83749V13.4C14.25 13.4829 14.2171 13.5624 14.1585 13.621C14.0999 13.6796 14.0204 13.7125 13.9375 13.7125H2.0625Z" fill="#717171"/>
<path d="M12.5312 8.86874H9.5625C9.43818 8.86874 9.31895 8.91813 9.23104 9.00604C9.14314 9.09395 9.09375 9.21317 9.09375 9.33749C9.09375 9.46181 9.14314 9.58104 9.23104 9.66895C9.31895 9.75686 9.43818 9.80624 9.5625 9.80624H12.5312C12.6556 9.80624 12.7748 9.75686 12.8627 9.66895C12.9506 9.58104 13 9.46181 13 9.33749C13 9.21317 12.9506 9.09395 12.8627 9.00604C12.7748 8.91813 12.6556 8.86874 12.5312 8.86874ZM11.75 10.7437H9.5625C9.43818 10.7437 9.31895 10.7931 9.23104 10.881C9.14314 10.9689 9.09375 11.0882 9.09375 11.2125C9.09375 11.3368 9.14314 11.456 9.23104 11.544C9.31895 11.6319 9.43818 11.6812 9.5625 11.6812H11.75C11.8743 11.6812 11.9935 11.6319 12.0815 11.544C12.1694 11.456 12.2187 11.3368 12.2187 11.2125C12.2187 11.0882 12.1694 10.9689 12.0815 10.881C11.9935 10.7931 11.8743 10.7437 11.75 10.7437Z" fill="#717171"/>
<path fill-rule="evenodd" clip-rule="evenodd" d="M6.74747 9.02499C6.74747 9.71535 6.18782 10.275 5.49747 10.275C4.80711 10.275 4.24747 9.71535 4.24747 9.02499C4.24747 8.33464 4.80711 7.77499 5.49747 7.77499C6.18782 7.77499 6.74747 8.33464 6.74747 9.02499ZM4.24708 11.3079C4.61465 11.05 5.05099 10.9079 5.49997 10.9C5.94798 10.909 6.38309 11.0516 6.74955 11.3095C7.116 11.5674 7.39711 11.9288 7.55684 12.3475C7.57572 12.3952 7.58257 12.4468 7.57678 12.4978C7.571 12.5487 7.55275 12.5975 7.52366 12.6397C7.49457 12.682 7.45552 12.7164 7.40997 12.74C7.36442 12.7636 7.31376 12.7756 7.26247 12.775H3.73184C3.68055 12.7756 3.62989 12.7636 3.58434 12.74C3.53878 12.7164 3.49974 12.682 3.47065 12.6397C3.44155 12.5975 3.42331 12.5487 3.41752 12.4978C3.41174 12.4468 3.41858 12.3952 3.43747 12.3475C3.59756 11.928 3.87952 11.5659 4.24708 11.3079Z" fill="#717171"/>
</svg>
