<svg width="16" height="16" viewBox="0 0 16 16" fill="none" xmlns="http://www.w3.org/2000/svg">
<g clip-path="url(#clip0_460_5122)">
<path d="M0.727333 4.83201C0.542548 4.82423 0.362218 4.89004 0.225877 5.01501C0.0895353 5.13998 0.00830745 5.31391 0 5.49868L0 10.1653C0.00830745 10.3501 0.0895353 10.524 0.225877 10.649C0.362218 10.774 0.542548 10.8398 0.727333 10.832H9.33333C9.51014 10.832 9.67971 10.7618 9.80474 10.6367C9.92976 10.5117 10 10.3422 10 10.1653V5.49868C10 5.32186 9.92976 5.15229 9.80474 5.02727C9.67971 4.90225 9.51014 4.83201 9.33333 4.83201H0.727333ZM15.2727 4.83201H14C13.8232 4.83201 13.6536 4.90225 13.5286 5.02727C13.4036 5.15229 13.3333 5.32186 13.3333 5.49868V10.1653C13.3333 10.3422 13.4036 10.5117 13.5286 10.6367C13.6536 10.7618 13.8232 10.832 14 10.832H15.2727C15.4575 10.8398 15.6378 10.774 15.7741 10.649C15.9105 10.524 15.9917 10.3501 16 10.1653V5.49868C15.9917 5.31391 15.9105 5.13998 15.7741 5.01501C15.6378 4.89004 15.4575 4.82423 15.2727 4.83201Z" fill="#717171"/>
<path d="M12.3335 4.83199C12.3409 4.30386 12.554 3.79945 12.9275 3.42597C13.301 3.0525 13.8054 2.8394 14.3335 2.83199C14.5103 2.83199 14.6799 2.76175 14.8049 2.63673C14.9299 2.5117 15.0002 2.34213 15.0002 2.16532C15.0002 1.98851 14.9299 1.81894 14.8049 1.69392C14.6799 1.5689 14.5103 1.49866 14.3335 1.49866C13.8501 1.49863 13.3725 1.60387 12.9338 1.80707C12.4952 2.01027 12.1061 2.30655 11.7935 2.67532C11.7779 2.69375 11.7585 2.70855 11.7367 2.71868C11.7148 2.72882 11.6909 2.73404 11.6668 2.73399C11.6426 2.73396 11.6187 2.7287 11.5968 2.71857C11.5748 2.70845 11.5552 2.6937 11.5395 2.67532C11.2271 2.30653 10.8381 2.01023 10.3996 1.80702C9.96103 1.60382 9.48349 1.49859 9.00016 1.49866C8.82335 1.49866 8.65378 1.5689 8.52876 1.69392C8.40373 1.81894 8.3335 1.98851 8.3335 2.16532C8.3335 2.34213 8.40373 2.5117 8.52876 2.63673C8.65378 2.76175 8.82335 2.83199 9.00016 2.83199C9.52829 2.8394 10.0327 3.0525 10.4062 3.42597C10.7797 3.79945 10.9928 4.30386 11.0002 4.83199V11.1653C10.9984 11.2772 10.987 11.3887 10.9662 11.4987C10.8876 11.9637 10.6472 12.3859 10.2874 12.6909C9.9277 12.9959 9.47177 13.1639 9.00016 13.1653C8.82335 13.1653 8.65378 13.2356 8.52876 13.3606C8.40373 13.4856 8.3335 13.6552 8.3335 13.832C8.3335 14.0088 8.40373 14.1784 8.52876 14.3034C8.65378 14.4284 8.82335 14.4987 9.00016 14.4987C9.48358 14.4987 9.9612 14.3934 10.3998 14.1902C10.8385 13.987 11.2276 13.6908 11.5402 13.322C11.5557 13.3036 11.5751 13.2888 11.597 13.2786C11.6189 13.2685 11.6427 13.2633 11.6668 13.2633C11.691 13.2635 11.7149 13.2688 11.7368 13.2789C11.7588 13.289 11.7783 13.3037 11.7942 13.322C12.1066 13.6908 12.4956 13.9871 12.9341 14.1903C13.3726 14.3935 13.8502 14.4987 14.3335 14.4987C14.5103 14.4987 14.6799 14.4284 14.8049 14.3034C14.9299 14.1784 15.0002 14.0088 15.0002 13.832C15.0002 13.6552 14.9299 13.4856 14.8049 13.3606C14.6799 13.2356 14.5103 13.1653 14.3335 13.1653C13.8619 13.1639 13.406 12.9959 13.0462 12.6909C12.6865 12.3859 12.4461 11.9637 12.3675 11.4987C12.3467 11.3887 12.3353 11.2772 12.3335 11.1653V4.83199Z" fill="#717171"/>
</g>
<defs>
<clipPath id="clip0_460_5122">
<rect width="16" height="16" fill="white"/>
</clipPath>
</defs>
</svg>
