<svg width="24" height="24" viewBox="0 0 24 24" fill="none" xmlns="http://www.w3.org/2000/svg">
<g filter="url(#filter0_d_453_5473)">
<path d="M7.92589 10.7216C7.38748 9.91608 7.1001 8.96908 7.1001 8.00034C7.10157 6.70174 7.61829 5.45675 8.53689 4.5385C9.4555 3.62025 10.701 3.10374 12.0001 3.10226C12.9692 3.10226 13.9166 3.38953 14.7223 3.92774C15.5281 4.46595 16.1562 5.23092 16.5271 6.12592C16.8979 7.02093 16.995 8.00577 16.8059 8.9559C16.6168 9.90604 16.1501 10.7788 15.4649 11.4638C14.7796 12.1488 13.9065 12.6153 12.956 12.8043C12.0055 12.9933 11.0203 12.8963 10.1249 12.5256C9.22958 12.1548 8.46431 11.527 7.92589 10.7216Z" fill="#717171"/>
<path d="M5.90702 13.1695C5.93358 13.2008 5.94815 13.2406 5.94815 13.2817C5.94815 13.3228 5.93358 13.3626 5.90702 13.3939L5.59486 13.7644C5.53737 13.8308 5.49895 13.9116 5.4837 13.9981C5.46844 14.0847 5.47691 14.1737 5.50821 14.2558C5.53951 14.3379 5.59247 14.41 5.66146 14.4644C5.73045 14.5189 5.81291 14.5536 5.90006 14.565L7.89537 14.8492C7.97058 14.8815 8.05131 14.8989 8.13314 14.9006C8.15539 14.9006 8.17694 14.8951 8.20266 14.893L8.34518 14.9131C8.36824 14.9161 8.39146 14.9177 8.41471 14.918C8.49214 14.9186 8.5686 14.9008 8.63775 14.866C8.7069 14.8311 8.76674 14.7803 8.81229 14.7177C8.85784 14.6551 8.88779 14.5826 8.89966 14.5061C8.91152 14.4296 8.90496 14.3514 8.88051 14.2779L8.12062 11.9318C8.09473 11.8477 8.04654 11.7723 7.98119 11.7135C7.91583 11.6547 7.83576 11.6147 7.74947 11.5977C7.66318 11.5807 7.57391 11.5875 7.49114 11.6172C7.40837 11.6468 7.3352 11.6984 7.2794 11.7664L6.99227 12.1069C6.9755 12.1268 6.95453 12.1429 6.93085 12.1538C6.90718 12.1647 6.88138 12.1703 6.85531 12.1701C6.82917 12.1693 6.80356 12.1626 6.78034 12.1506C6.75712 12.1386 6.73689 12.1215 6.72113 12.1006C5.95005 11.1126 5.47234 9.92784 5.34251 8.68148C5.21269 7.43511 5.43597 6.17737 5.98689 5.05177C6.5378 3.92616 7.39416 2.97803 8.45825 2.31556C9.52233 1.65309 10.7513 1.30296 12.0049 1.30514C12.4809 1.30536 12.9555 1.35544 13.421 1.45455C13.5059 1.47527 13.5941 1.47875 13.6803 1.46478C13.7665 1.45082 13.8491 1.41969 13.9231 1.37325C13.9971 1.32681 14.061 1.266 14.111 1.19442C14.1611 1.12284 14.1962 1.04195 14.2144 0.956541C14.2326 0.871129 14.2335 0.782936 14.217 0.697186C14.2004 0.611436 14.1669 0.529873 14.1182 0.45733C14.0696 0.384787 14.0069 0.322739 13.9338 0.274863C13.8608 0.226987 13.7788 0.194256 13.6929 0.178609C12.5253 -0.0721106 11.3165 -0.0587174 10.1548 0.217809C8.9931 0.494336 7.90795 1.027 6.97876 1.77682C6.04957 2.52664 5.29985 3.47464 4.78445 4.55146C4.26906 5.62828 4.00104 6.80666 4 8.00037C3.9981 9.8957 4.67452 11.7292 5.90702 13.1695ZM18.093 2.83057C18.0664 2.7992 18.0518 2.75943 18.0518 2.71834C18.0518 2.67724 18.0664 2.63747 18.093 2.6061L18.4051 2.23569C18.4624 2.16922 18.5007 2.0885 18.5158 2.00207C18.531 1.91564 18.5225 1.82673 18.4912 1.74475C18.4599 1.66276 18.407 1.59076 18.3382 1.53637C18.2693 1.48198 18.187 1.44723 18.0999 1.43579L16.0733 1.14669C15.9961 1.11979 15.9145 1.108 15.8328 1.11194L15.6583 1.08762C15.5758 1.07497 15.4915 1.08372 15.4134 1.11304C15.3353 1.14236 15.266 1.19125 15.2123 1.25503C15.1585 1.31881 15.1221 1.39533 15.1065 1.47725C15.0908 1.55916 15.0965 1.64372 15.123 1.72281L15.8794 4.06899C15.9064 4.15211 15.9551 4.22652 16.0205 4.28454C16.0859 4.34257 16.1656 4.38211 16.2513 4.3991C16.2825 4.40518 16.3141 4.40821 16.3459 4.40813C16.4172 4.40818 16.4877 4.39266 16.5524 4.36265C16.6172 4.33264 16.6746 4.28887 16.7206 4.23439L17.0077 3.89386C17.0244 3.87403 17.0452 3.85819 17.0688 3.84749C17.0924 3.83679 17.1181 3.83152 17.1439 3.83205C17.1698 3.83258 17.1953 3.83891 17.2184 3.85057C17.2415 3.86223 17.2617 3.87892 17.2775 3.89942C18.0486 4.88686 18.5265 6.07107 18.6568 7.31696C18.787 8.56285 18.5643 9.82025 18.0141 10.9457C17.4638 12.0712 16.6082 13.0194 15.5449 13.6822C14.4815 14.345 13.2532 14.6956 12 14.6942C11.524 14.6943 11.0493 14.6443 10.5838 14.5448C10.4991 14.5247 10.4113 14.5218 10.3255 14.5361C10.2396 14.5505 10.1575 14.5818 10.0839 14.6283C10.0104 14.6748 9.94685 14.7355 9.89708 14.8069C9.8473 14.8782 9.81229 14.9588 9.79409 15.0439C9.7759 15.1289 9.77488 15.2168 9.79111 15.3023C9.80733 15.3877 9.84047 15.4691 9.88859 15.5416C9.9367 15.6141 9.99881 15.6763 10.0713 15.7244C10.1437 15.7726 10.2251 15.8058 10.3106 15.8221C11.4779 16.0723 12.6864 16.0584 13.8476 15.7816C15.0089 15.5048 16.0936 14.9721 17.0223 14.2223C17.9511 13.4725 18.7005 12.5248 19.2157 11.4482C19.7309 10.3717 19.9988 9.19372 20 8.00037C20.002 6.10481 19.3256 4.27107 18.093 2.83057Z" fill="#717171"/>
</g>
<defs>
<filter id="filter0_d_453_5473" x="0" y="0" width="24" height="24" filterUnits="userSpaceOnUse" color-interpolation-filters="sRGB">
<feFlood flood-opacity="0" result="BackgroundImageFix"/>
<feColorMatrix in="SourceAlpha" type="matrix" values="0 0 0 0 0 0 0 0 0 0 0 0 0 0 0 0 0 0 127 0" result="hardAlpha"/>
<feOffset dy="4"/>
<feGaussianBlur stdDeviation="2"/>
<feColorMatrix type="matrix" values="0 0 0 0 0 0 0 0 0 0 0 0 0 0 0 0 0 0 0.05 0"/>
<feBlend mode="normal" in2="BackgroundImageFix" result="effect1_dropShadow_453_5473"/>
<feBlend mode="normal" in="SourceGraphic" in2="effect1_dropShadow_453_5473" result="shape"/>
</filter>
</defs>
</svg>
