<svg width="24" height="23" viewBox="0 0 24 23" fill="none" xmlns="http://www.w3.org/2000/svg">
<g filter="url(#filter0_d_461_5127)">
<path fill-rule="evenodd" clip-rule="evenodd" d="M20 5.00002C20 4.6464 19.8595 4.30726 19.6095 4.05721C19.3594 3.80716 19.0203 3.66669 18.6667 3.66669H17.5C17.4558 3.66669 17.4134 3.64913 17.3821 3.61787C17.3509 3.58662 17.3333 3.54422 17.3333 3.50002V2.33335C17.3333 2.15654 17.2631 1.98697 17.1381 1.86195C17.013 1.73692 16.8435 1.66669 16.6667 1.66669H5.33333C4.97971 1.66669 4.64057 1.80716 4.39052 2.05721C4.14048 2.30726 4 2.6464 4 3.00002V11C4 11.1768 4.07024 11.3464 4.19526 11.4714C4.32029 11.5964 4.48986 11.6667 4.66667 11.6667H5.83333C5.87754 11.6667 5.91993 11.6842 5.95118 11.7155C5.98244 11.7468 6 11.7892 6 11.8334V13C6 13.3536 6.14048 13.6928 6.39052 13.9428C6.64057 14.1929 6.97971 14.3334 7.33333 14.3334H9.33333H11.6667H14.3333H16.6667H18.6667C19.0203 14.3334 19.3594 14.1929 19.6095 13.9428C19.8595 13.6928 20 13.3536 20 13V5.00002ZM18.569 12.9024C18.6315 12.8399 18.6667 12.7551 18.6667 12.6667V5.33335C18.6667 5.24495 18.6315 5.16016 18.569 5.09765C18.5065 5.03514 18.4217 5.00002 18.3333 5.00002H7.66667C7.57826 5.00002 7.49348 5.03514 7.43096 5.09765C7.36845 5.16016 7.33333 5.24495 7.33333 5.33335V12.6667C7.33333 12.7551 7.36845 12.8399 7.43096 12.9024C7.49348 12.9649 7.57826 13 7.66667 13H8.578H12.422H13.578H17.422H18.3333C18.4217 13 18.5065 12.9649 18.569 12.9024Z" fill="#717171"/>
</g>
<g filter="url(#filter1_d_461_5127)">
<path d="M13.8335 7.79999C13.8335 7.9326 13.8862 8.05977 13.9799 8.15354C14.0737 8.24731 14.2009 8.29999 14.3335 8.29999H17.3335C17.4661 8.29999 17.5933 8.24731 17.687 8.15354C17.7808 8.05977 17.8335 7.9326 17.8335 7.79999C17.8335 7.66738 17.7808 7.5402 17.687 7.44643C17.5933 7.35267 17.4661 7.29999 17.3335 7.29999H14.3335C14.2009 7.29999 14.0737 7.35267 13.9799 7.44643C13.8862 7.5402 13.8335 7.66738 13.8335 7.79999ZM16.0002 9.29999H14.3335C14.2009 9.29999 14.0737 9.35267 13.9799 9.44643C13.8862 9.5402 13.8335 9.66738 13.8335 9.79999C13.8335 9.9326 13.8862 10.0598 13.9799 10.1535C14.0737 10.2473 14.2009 10.3 14.3335 10.3H16.0002C16.1328 10.3 16.2599 10.2473 16.3537 10.1535C16.4475 10.0598 16.5002 9.9326 16.5002 9.79999C16.5002 9.66738 16.4475 9.5402 16.3537 9.44643C16.2599 9.35267 16.1328 9.29999 16.0002 9.29999Z" fill="#717171"/>
</g>
<g filter="url(#filter2_d_461_5127)">
<path d="M10.4466 9.06666C11.183 9.06666 11.7799 8.46971 11.7799 7.73333C11.7799 6.99695 11.183 6.39999 10.4466 6.39999C9.71023 6.39999 9.11328 6.99695 9.11328 7.73333C9.11328 8.46971 9.71023 9.06666 10.4466 9.06666Z" fill="#717171"/>
</g>
<g filter="url(#filter3_d_461_5127)">
<path d="M10.4466 9.60001C9.96829 9.60911 9.50359 9.76096 9.11218 10.0361C8.72077 10.3112 8.42052 10.697 8.24996 11.144C8.22982 11.1949 8.22252 11.2499 8.22869 11.3043C8.23486 11.3587 8.25432 11.4107 8.28536 11.4557C8.31639 11.5008 8.35804 11.5375 8.40663 11.5627C8.45522 11.5879 8.50925 11.6007 8.56396 11.6H12.3286C12.3833 11.6007 12.4374 11.5879 12.486 11.5627C12.5346 11.5375 12.5762 11.5008 12.6072 11.4557C12.6383 11.4107 12.6577 11.3587 12.6639 11.3043C12.6701 11.2499 12.6628 11.1949 12.6426 11.144C12.4721 10.6971 12.172 10.3114 11.7807 10.0363C11.3894 9.76116 10.9249 9.60924 10.4466 9.60001Z" fill="#717171"/>
</g>
<defs>
<filter id="filter0_d_461_5127" x="0" y="1.66669" width="24" height="20.6667" filterUnits="userSpaceOnUse" color-interpolation-filters="sRGB">
<feFlood flood-opacity="0" result="BackgroundImageFix"/>
<feColorMatrix in="SourceAlpha" type="matrix" values="0 0 0 0 0 0 0 0 0 0 0 0 0 0 0 0 0 0 127 0" result="hardAlpha"/>
<feOffset dy="4"/>
<feGaussianBlur stdDeviation="2"/>
<feColorMatrix type="matrix" values="0 0 0 0 0 0 0 0 0 0 0 0 0 0 0 0 0 0 0.05 0"/>
<feBlend mode="normal" in2="BackgroundImageFix" result="effect1_dropShadow_461_5127"/>
<feBlend mode="normal" in="SourceGraphic" in2="effect1_dropShadow_461_5127" result="shape"/>
</filter>
<filter id="filter1_d_461_5127" x="9.8335" y="7.29999" width="12" height="11" filterUnits="userSpaceOnUse" color-interpolation-filters="sRGB">
<feFlood flood-opacity="0" result="BackgroundImageFix"/>
<feColorMatrix in="SourceAlpha" type="matrix" values="0 0 0 0 0 0 0 0 0 0 0 0 0 0 0 0 0 0 127 0" result="hardAlpha"/>
<feOffset dy="4"/>
<feGaussianBlur stdDeviation="2"/>
<feColorMatrix type="matrix" values="0 0 0 0 0 0 0 0 0 0 0 0 0 0 0 0 0 0 0.05 0"/>
<feBlend mode="normal" in2="BackgroundImageFix" result="effect1_dropShadow_461_5127"/>
<feBlend mode="normal" in="SourceGraphic" in2="effect1_dropShadow_461_5127" result="shape"/>
</filter>
<filter id="filter2_d_461_5127" x="5.11328" y="6.39999" width="10.6665" height="10.6667" filterUnits="userSpaceOnUse" color-interpolation-filters="sRGB">
<feFlood flood-opacity="0" result="BackgroundImageFix"/>
<feColorMatrix in="SourceAlpha" type="matrix" values="0 0 0 0 0 0 0 0 0 0 0 0 0 0 0 0 0 0 127 0" result="hardAlpha"/>
<feOffset dy="4"/>
<feGaussianBlur stdDeviation="2"/>
<feColorMatrix type="matrix" values="0 0 0 0 0 0 0 0 0 0 0 0 0 0 0 0 0 0 0.05 0"/>
<feBlend mode="normal" in2="BackgroundImageFix" result="effect1_dropShadow_461_5127"/>
<feBlend mode="normal" in="SourceGraphic" in2="effect1_dropShadow_461_5127" result="shape"/>
</filter>
<filter id="filter3_d_461_5127" x="4.22656" y="9.60001" width="12.4395" height="10" filterUnits="userSpaceOnUse" color-interpolation-filters="sRGB">
<feFlood flood-opacity="0" result="BackgroundImageFix"/>
<feColorMatrix in="SourceAlpha" type="matrix" values="0 0 0 0 0 0 0 0 0 0 0 0 0 0 0 0 0 0 127 0" result="hardAlpha"/>
<feOffset dy="4"/>
<feGaussianBlur stdDeviation="2"/>
<feColorMatrix type="matrix" values="0 0 0 0 0 0 0 0 0 0 0 0 0 0 0 0 0 0 0.05 0"/>
<feBlend mode="normal" in2="BackgroundImageFix" result="effect1_dropShadow_461_5127"/>
<feBlend mode="normal" in="SourceGraphic" in2="effect1_dropShadow_461_5127" result="shape"/>
</filter>
</defs>
</svg>
