<svg width="16" height="16" viewBox="0 0 16 16" fill="none" xmlns="http://www.w3.org/2000/svg">
<g clip-path="url(#clip0_458_5116)">
<path d="M12.9025 9.33335C12.5194 9.35435 12.1381 9.26762 11.8018 9.08297C11.4655 8.89833 11.1877 8.62317 10.9998 8.28868C10.9826 8.2625 10.9584 8.24175 10.9299 8.22882C10.9013 8.21589 10.8697 8.21133 10.8387 8.21566C10.8077 8.21999 10.7786 8.23304 10.7547 8.25328C10.7308 8.27352 10.7132 8.30013 10.7038 8.33001L9.65315 11.6727C9.57875 11.8713 9.44459 12.042 9.26913 12.1612C9.09368 12.2804 8.88558 12.3422 8.67351 12.3382C8.46144 12.3342 8.25584 12.2645 8.08503 12.1387C7.91423 12.013 7.78663 11.8373 7.71982 11.636L6.17048 5.86668C6.16087 5.83078 6.13954 5.79911 6.10987 5.77673C6.0802 5.75434 6.0439 5.74251 6.00673 5.74313C5.96957 5.74374 5.93368 5.75676 5.90477 5.78011C5.87585 5.80346 5.85557 5.83581 5.84715 5.87201C5.69477 6.73854 5.42565 7.58043 5.04715 8.37468C4.87199 8.691 4.60901 8.94984 4.28995 9.11996C3.97089 9.29007 3.60941 9.36419 3.24915 9.33335H0.111816C0.427041 11.1973 1.39218 12.8895 2.83608 14.1097C4.27999 15.3299 6.10936 15.9994 7.99982 15.9994C9.89027 15.9994 11.7196 15.3299 13.1636 14.1097C14.6075 12.8895 15.5726 11.1973 15.8878 9.33335H12.9025Z" fill="#717171"/>
<path d="M3.24933 7.99999C3.87267 7.99999 3.924 7.99999 4.52467 5.62333C4.662 5.08133 4.82333 4.44266 5.028 3.69333C5.09191 3.48737 5.22157 3.30804 5.39713 3.18281C5.57269 3.05759 5.78446 2.99337 6 2.99999C6.21576 2.99392 6.42753 3.05895 6.60269 3.18508C6.77785 3.31121 6.90668 3.49144 6.96933 3.69799L8.56933 9.64999C8.57846 9.68495 8.59875 9.71597 8.62711 9.73835C8.65547 9.76073 8.69036 9.77325 8.72648 9.77401C8.7626 9.77476 8.79798 9.76371 8.82725 9.74253C8.85652 9.72135 8.87809 9.6912 8.88867 9.65666L9.786 6.79999C9.8518 6.61227 9.97284 6.44883 10.1332 6.33116C10.2936 6.21349 10.4858 6.14708 10.6847 6.14066C10.8775 6.1259 11.0705 6.16656 11.2409 6.25787C11.4114 6.34918 11.5521 6.48731 11.6467 6.65599C11.7133 6.78533 11.78 6.91133 11.8367 7.03266C12.224 7.81333 12.3367 7.99799 12.9033 7.99799H16C15.9997 5.87626 15.1566 3.84153 13.6561 2.34143C12.1557 0.841328 10.1207 -0.00127223 7.999 -0.00100702C5.87727 -0.000741801 3.84254 0.842367 2.34244 2.34285C0.842335 3.84332 -0.000265154 5.87826 6.25906e-08 7.99999H3.24933Z" fill="#717171"/>
</g>
<defs>
<clipPath id="clip0_458_5116">
<rect width="16" height="16" fill="white"/>
</clipPath>
</defs>
</svg>
