<svg width="16" height="16" viewBox="0 0 16 16" fill="none" xmlns="http://www.w3.org/2000/svg">
<g clip-path="url(#clip0_458_5110)">
<path d="M13.3333 1.33333C13.3333 0.979711 13.1929 0.640573 12.9428 0.390524C12.6928 0.140476 12.3536 0 12 0L1.33333 0C0.979711 0 0.640573 0.140476 0.390524 0.390524C0.140476 0.640573 0 0.979711 0 1.33333L0 2C0 2.0442 0.0175595 2.0866 0.0488155 2.11785C0.0800716 2.14911 0.122464 2.16667 0.166667 2.16667H13.1667C13.2109 2.16667 13.2533 2.14911 13.2845 2.11785C13.3158 2.0866 13.3333 2.0442 13.3333 2V1.33333ZM11.6667 6.33333C12.1587 6.33371 12.6482 6.40236 13.1213 6.53733C13.1461 6.54433 13.1721 6.5455 13.1974 6.54076C13.2227 6.53601 13.2465 6.52548 13.2671 6.50998C13.2876 6.49449 13.3043 6.47445 13.3158 6.45143C13.3273 6.42842 13.3333 6.40306 13.3333 6.37733V3.33333C13.3333 3.28913 13.3158 3.24674 13.2845 3.21548C13.2533 3.18423 13.2109 3.16667 13.1667 3.16667H0.166667C0.122464 3.16667 0.0800716 3.18423 0.0488155 3.21548C0.0175595 3.24674 0 3.28913 0 3.33333L0 8.66667C0 9.02029 0.140476 9.35943 0.390524 9.60948C0.640573 9.85952 0.979711 10 1.33333 10H6.48333C6.51786 10 6.55154 9.98933 6.57973 9.96938C6.60791 9.94944 6.6292 9.92124 6.64067 9.88867C7.00821 8.84925 7.68883 7.94928 8.58888 7.3126C9.48894 6.67591 10.5642 6.3338 11.6667 6.33333ZM2 4.83333H6.33333C6.46594 4.83333 6.59312 4.88601 6.68689 4.97978C6.78065 5.07355 6.83333 5.20073 6.83333 5.33333C6.83333 5.46594 6.78065 5.59312 6.68689 5.68689C6.59312 5.78065 6.46594 5.83333 6.33333 5.83333H2C1.86739 5.83333 1.74021 5.78065 1.64645 5.68689C1.55268 5.59312 1.5 5.46594 1.5 5.33333C1.5 5.20073 1.55268 5.07355 1.64645 4.97978C1.74021 4.88601 1.86739 4.83333 2 4.83333ZM4 8.16667H2C1.86739 8.16667 1.74021 8.11399 1.64645 8.02022C1.55268 7.92645 1.5 7.79927 1.5 7.66667C1.5 7.53406 1.55268 7.40688 1.64645 7.31311C1.74021 7.21935 1.86739 7.16667 2 7.16667H4C4.13261 7.16667 4.25979 7.21935 4.35355 7.31311C4.44732 7.40688 4.5 7.53406 4.5 7.66667C4.5 7.79927 4.44732 7.92645 4.35355 8.02022C4.25979 8.11399 4.13261 8.16667 4 8.16667Z" fill="#717171"/>
<path d="M11.6668 7.33334C10.8098 7.33334 9.97197 7.58749 9.25936 8.06364C8.54675 8.53979 7.99133 9.21657 7.66335 10.0084C7.33537 10.8002 7.24956 11.6715 7.41676 12.5121C7.58396 13.3527 7.99667 14.1248 8.6027 14.7308C9.20873 15.3368 9.98086 15.7495 10.8214 15.9167C11.662 16.084 12.5333 15.9981 13.3251 15.6702C14.1169 15.3422 14.7937 14.7868 15.2699 14.0741C15.746 13.3615 16.0002 12.5237 16.0002 11.6667C16.0002 10.5174 15.5436 9.41521 14.731 8.60255C13.9183 7.78989 12.8161 7.33334 11.6668 7.33334ZM10.9442 10.8627L12.7508 11.5393C13.0122 11.6743 13.2238 11.8889 13.3551 12.1521C13.4864 12.4153 13.5305 12.7135 13.4812 13.0034C13.4318 13.2934 13.2915 13.5601 13.0805 13.765C12.8695 13.97 12.5988 14.1025 12.3075 14.1433C12.2682 14.1494 12.2324 14.1694 12.2066 14.1996C12.1808 14.2298 12.1667 14.2683 12.1668 14.308V14.6667C12.1668 14.7993 12.1142 14.9265 12.0204 15.0202C11.9266 15.114 11.7994 15.1667 11.6668 15.1667C11.5342 15.1667 11.407 15.114 11.3133 15.0202C11.2195 14.9265 11.1668 14.7993 11.1668 14.6667V14.3333C11.1668 14.2891 11.1493 14.2467 11.118 14.2155C11.0868 14.1842 11.0444 14.1667 11.0002 14.1667H10.3335C10.2009 14.1667 10.0737 14.114 9.97994 14.0202C9.88618 13.9265 9.8335 13.7993 9.8335 13.6667C9.8335 13.5341 9.88618 13.4069 9.97994 13.3131C10.0737 13.2194 10.2009 13.1667 10.3335 13.1667H12.0002C12.3335 13.1667 12.5002 13.0513 12.5002 12.824C12.5102 12.6964 12.4705 12.5698 12.3895 12.4707L10.5828 11.794C10.3439 11.6792 10.1448 11.4955 10.0112 11.2666C9.87766 11.0376 9.81576 10.7738 9.8335 10.5093C9.84399 10.1837 9.97012 9.87235 10.1893 9.63121C10.4084 9.39006 10.7063 9.23484 11.0295 9.19334C11.068 9.18646 11.1028 9.16626 11.1279 9.13628C11.1531 9.1063 11.1668 9.06845 11.1668 9.02934V8.66668C11.1668 8.53407 11.2195 8.40689 11.3133 8.31312C11.407 8.21936 11.5342 8.16668 11.6668 8.16668C11.7994 8.16668 11.9266 8.21936 12.0204 8.31312C12.1142 8.40689 12.1668 8.53407 12.1668 8.66668V9.00001C12.1668 9.04421 12.1844 9.08661 12.2156 9.11786C12.2469 9.14912 12.2893 9.16668 12.3335 9.16668H13.0002C13.1328 9.16668 13.26 9.21936 13.3537 9.31312C13.4475 9.40689 13.5002 9.53407 13.5002 9.66668C13.5002 9.79929 13.4475 9.92646 13.3537 10.0202C13.26 10.114 13.1328 10.1667 13.0002 10.1667H11.3335C11.0628 10.1667 10.8335 10.3233 10.8335 10.5093C10.8235 10.637 10.8631 10.7636 10.9442 10.8627Z" fill="#717171"/>
</g>
<defs>
<clipPath id="clip0_458_5110">
<rect width="16" height="16" fill="white"/>
</clipPath>
</defs>
</svg>
