<svg width="16" height="16" viewBox="0 0 16 16" fill="none" xmlns="http://www.w3.org/2000/svg">
<g clip-path="url(#clip0_1302_6327)">
<path d="M15.7413 0.150013C15.635 0.0664643 15.5066 0.0156724 15.3719 0.00383434C15.2372 -0.00800371 15.102 0.0196239 14.9827 0.0833465L0.55134 7.76401C0.377542 7.85493 0.233272 7.99352 0.135454 8.16353C0.0376356 8.33354 -0.00967431 8.52792 -0.000926696 8.72386C0.00782091 8.91981 0.0722633 9.1092 0.184841 9.26981C0.29742 9.43043 0.453465 9.55561 0.634674 9.63068L2.80401 10.5507C2.804 10.6064 2.8137 10.6616 2.83267 10.714L4.49934 15.2113C4.58599 15.4441 4.74208 15.6446 4.94647 15.7856C5.15086 15.9267 5.39367 16.0015 5.64201 16C5.94238 15.9974 6.23143 15.885 6.45467 15.684C6.48067 15.6607 8.31467 13.632 8.72134 13.1813C8.74454 13.1556 8.77521 13.1378 8.80904 13.1304C8.84287 13.123 8.87818 13.1264 8.91001 13.14L11.0147 14.0327C11.1523 14.0909 11.3006 14.1194 11.4499 14.1163C11.5993 14.1132 11.7463 14.0785 11.8813 14.0147C12.0154 13.9513 12.1344 13.8601 12.2304 13.7471C12.3264 13.6341 12.3972 13.5019 12.438 13.3593L15.974 0.86668C16.0107 0.73762 16.0082 0.60055 15.9668 0.472924C15.9253 0.345298 15.8469 0.23289 15.7413 0.150013ZM3.89201 10.6973L10.3533 5.32201C10.3683 5.30689 10.3862 5.29509 10.406 5.28738C10.4258 5.27968 10.447 5.27626 10.4682 5.27733C10.4894 5.2784 10.5102 5.28394 10.5291 5.29359C10.548 5.30325 10.5647 5.3168 10.578 5.33335C10.5948 5.34612 10.6085 5.36236 10.6184 5.38096C10.6283 5.39956 10.634 5.42007 10.6352 5.4411C10.6364 5.46213 10.6331 5.48316 10.6254 5.50277C10.6177 5.52237 10.6059 5.54008 10.5907 5.55468L5.76534 11.458C5.71011 11.5252 5.67396 11.606 5.66067 11.692L5.23867 14.3253L3.89201 10.6973Z" fill="#717171"/>
</g>
<defs>
<clipPath id="clip0_1302_6327">
<rect width="16" height="16" fill="white"/>
</clipPath>
</defs>
</svg>
