<svg width="24" height="24" viewBox="0 0 24 24" fill="none" xmlns="http://www.w3.org/2000/svg">
<g filter="url(#filter0_d_453_5477)">
<path d="M19 6.33333H17.7587C17.6353 5.9068 17.4646 5.49537 17.25 5.10667L18.128 4.22933C18.2209 4.13647 18.2946 4.0262 18.3449 3.90483C18.3952 3.78346 18.4211 3.65338 18.4211 3.522C18.4211 3.39062 18.3952 3.26054 18.3449 3.13917C18.2946 3.0178 18.2209 2.90753 18.128 2.81467L17.1847 1.87267C16.9971 1.6852 16.7428 1.57988 16.4777 1.57988C16.2125 1.57988 15.9582 1.6852 15.7707 1.87267L14.892 2.75067C14.5038 2.53587 14.0928 2.36525 13.6667 2.242V1C13.6667 0.734784 13.5613 0.48043 13.3738 0.292893C13.1862 0.105357 12.9319 0 12.6667 0L11.3333 0C11.0681 0 10.8138 0.105357 10.6262 0.292893C10.4387 0.48043 10.3333 0.734784 10.3333 1V2.242C9.90705 2.36553 9.49586 2.53614 9.10733 2.75067L8.22867 1.87267C8.04114 1.6852 7.78683 1.57988 7.52167 1.57988C7.2565 1.57988 7.00219 1.6852 6.81467 1.87267L5.87133 2.81533C5.77841 2.9082 5.70469 3.01847 5.6544 3.13984C5.6041 3.2612 5.57821 3.39129 5.57821 3.52267C5.57821 3.65404 5.6041 3.78413 5.6544 3.9055C5.70469 4.02687 5.77841 4.13713 5.87133 4.23L6.75 5.108C6.53506 5.49609 6.36443 5.90712 6.24133 6.33333H5C4.73478 6.33333 4.48043 6.43869 4.29289 6.62623C4.10536 6.81376 4 7.06812 4 7.33333V8.66667C4 8.93188 4.10536 9.18624 4.29289 9.37377C4.48043 9.56131 4.73478 9.66667 5 9.66667H6.24133C6.36438 10.0931 6.53501 10.5044 6.75 10.8927L5.87067 11.772C5.6832 11.9595 5.57788 12.2138 5.57788 12.479C5.57788 12.7442 5.6832 12.9985 5.87067 13.186L6.81333 14.1287C7.00454 14.3093 7.25762 14.4099 7.52067 14.4099C7.78371 14.4099 8.03679 14.3093 8.228 14.1287L9.10667 13.2507C9.49539 13.4654 9.90681 13.6363 10.3333 13.76V15C10.3333 15.2652 10.4387 15.5196 10.6262 15.7071C10.8138 15.8946 11.0681 16 11.3333 16H12.6667C12.9319 16 13.1862 15.8946 13.3738 15.7071C13.5613 15.5196 13.6667 15.2652 13.6667 15V13.76C14.093 13.6365 14.5042 13.4659 14.8927 13.2513L15.7713 14.1293C15.9589 14.3168 16.2132 14.4221 16.4783 14.4221C16.7435 14.4221 16.9978 14.3168 17.1853 14.1293L18.128 13.1867C18.3155 12.9991 18.4208 12.7448 18.4208 12.4797C18.4208 12.2145 18.3155 11.9602 18.128 11.7727L17.25 10.8947C17.4649 10.5061 17.6355 10.0946 17.7587 9.668H19C19.1314 9.668 19.2616 9.64209 19.383 9.59175C19.5044 9.54141 19.6147 9.46764 19.7076 9.37464C19.8005 9.28164 19.8741 9.17124 19.9243 9.04976C19.9744 8.92828 20.0002 8.7981 20 8.66667V7.33333C20 7.06812 19.8946 6.81376 19.7071 6.62623C19.5196 6.43869 19.2652 6.33333 19 6.33333ZM12 11.3333C11.3407 11.3333 10.6963 11.1378 10.1481 10.7716C9.59994 10.4053 9.17269 9.8847 8.9204 9.27561C8.66811 8.66652 8.6021 7.9963 8.73072 7.3497C8.85933 6.7031 9.1768 6.10915 9.64298 5.64298C10.1092 5.1768 10.7031 4.85933 11.3497 4.73072C11.9963 4.6021 12.6665 4.66811 13.2756 4.9204C13.8847 5.17269 14.4053 5.59994 14.7716 6.1481C15.1378 6.69626 15.3333 7.34073 15.3333 8C15.3323 8.88373 14.9807 9.73096 14.3559 10.3559C13.731 10.9807 12.8837 11.3323 12 11.3333Z" fill="#717171"/>
</g>
<defs>
<filter id="filter0_d_453_5477" x="0" y="0" width="24" height="24" filterUnits="userSpaceOnUse" color-interpolation-filters="sRGB">
<feFlood flood-opacity="0" result="BackgroundImageFix"/>
<feColorMatrix in="SourceAlpha" type="matrix" values="0 0 0 0 0 0 0 0 0 0 0 0 0 0 0 0 0 0 127 0" result="hardAlpha"/>
<feOffset dy="4"/>
<feGaussianBlur stdDeviation="2"/>
<feColorMatrix type="matrix" values="0 0 0 0 0 0 0 0 0 0 0 0 0 0 0 0 0 0 0.05 0"/>
<feBlend mode="normal" in2="BackgroundImageFix" result="effect1_dropShadow_453_5477"/>
<feBlend mode="normal" in="SourceGraphic" in2="effect1_dropShadow_453_5477" result="shape"/>
</filter>
</defs>
</svg>
