<svg width="22" height="23" viewBox="0 0 22 23" fill="none" xmlns="http://www.w3.org/2000/svg">
<g opacity="0.5">
<g filter="url(#filter0_d_358_17314)">
<path d="M15.4947 11.332C14.9084 11.332 14.3462 11.0991 13.9316 10.6845C13.5171 10.27 13.2842 9.70773 13.2842 9.12147C13.2842 8.5352 13.5171 7.97295 13.9316 7.55839C14.3462 7.14384 14.9084 6.91095 15.4947 6.91095H16.821C16.8601 6.91095 16.8976 6.89542 16.9252 6.86779C16.9528 6.84015 16.9684 6.80267 16.9684 6.76358V5.2899C16.9684 4.89906 16.8131 4.52422 16.5367 4.24785C16.2604 3.97149 15.8855 3.81622 15.4947 3.81622H5.47368C5.08283 3.81622 4.708 3.97149 4.43163 4.24785C4.15526 4.52422 4 4.89906 4 5.2899V12.953C4 13.3439 4.15526 13.7187 4.43163 13.9951C4.708 14.2714 5.08283 14.4267 5.47368 14.4267H15.4947C15.8855 14.4267 16.2604 14.2714 16.5367 13.9951C16.8131 13.7187 16.9684 13.3439 16.9684 12.953V11.4794C16.9684 11.4403 16.9528 11.4028 16.9252 11.3751C16.8976 11.3475 16.8601 11.332 16.821 11.332H15.4947Z" fill="#717171"/>
<path d="M17.2632 7.79522H15.4947C15.143 7.79522 14.8056 7.93495 14.5569 8.18369C14.3082 8.43242 14.1684 8.76977 14.1684 9.12153C14.1684 9.47329 14.3082 9.81064 14.5569 10.0594C14.8056 10.3081 15.143 10.4478 15.4947 10.4478H17.2632C17.471 10.412 17.6593 10.3033 17.7943 10.1413C17.9293 9.97931 18.0022 9.77452 18 9.56363V8.67943C18.0022 8.46854 17.9293 8.26375 17.7943 8.10173C17.6593 7.93971 17.471 7.83106 17.2632 7.79522ZM15.605 1.12004C15.5819 1.02731 15.5406 0.94011 15.4835 0.863523C15.4263 0.786936 15.3545 0.722504 15.2722 0.67399C15.1899 0.625476 15.0987 0.593853 15.004 0.580969C14.9094 0.568085 14.8131 0.574198 14.7208 0.598951L7.13309 2.64147C7.09879 2.65093 7.06906 2.67248 7.04941 2.70215C7.02976 2.73182 7.02151 2.7676 7.02618 2.80288C7.03085 2.83815 7.04813 2.87055 7.07482 2.89408C7.10152 2.91761 7.13582 2.93069 7.17141 2.9309L15.872 2.94387C15.8945 2.94404 15.9167 2.93904 15.9369 2.92926C15.9572 2.91948 15.9749 2.90518 15.9888 2.88746C16.0026 2.86975 16.0122 2.84909 16.0168 2.82709C16.0214 2.80508 16.0208 2.78232 16.0153 2.76054L15.605 1.12004Z" fill="#717171"/>
</g>
</g>
<defs>
<filter id="filter0_d_358_17314" x="0" y="0.574402" width="22" height="21.8523" filterUnits="userSpaceOnUse" color-interpolation-filters="sRGB">
<feFlood flood-opacity="0" result="BackgroundImageFix"/>
<feColorMatrix in="SourceAlpha" type="matrix" values="0 0 0 0 0 0 0 0 0 0 0 0 0 0 0 0 0 0 127 0" result="hardAlpha"/>
<feOffset dy="4"/>
<feGaussianBlur stdDeviation="2"/>
<feColorMatrix type="matrix" values="0 0 0 0 0 0 0 0 0 0 0 0 0 0 0 0 0 0 0.05 0"/>
<feBlend mode="normal" in2="BackgroundImageFix" result="effect1_dropShadow_358_17314"/>
<feBlend mode="normal" in="SourceGraphic" in2="effect1_dropShadow_358_17314" result="shape"/>
</filter>
</defs>
</svg>
