<svg width="16" height="16" viewBox="0 0 16 16" fill="none" xmlns="http://www.w3.org/2000/svg">
<g clip-path="url(#clip0_465_5114)">
<path d="M12.4433 12.2513C13.7835 12.2513 14.8699 11.1649 14.8699 9.82468C14.8699 8.48447 13.7835 7.39801 12.4433 7.39801C11.1031 7.39801 10.0166 8.48447 10.0166 9.82468C10.0166 11.1649 11.1031 12.2513 12.4433 12.2513Z" fill="#717171"/>
<path d="M12.3501 12.7253C11.4983 12.7222 10.6711 13.0105 10.0058 13.5422C9.3404 14.0739 8.87686 14.8172 8.69206 15.6487C8.68096 15.6975 8.68097 15.7481 8.69211 15.7969C8.70325 15.8457 8.72523 15.8913 8.75642 15.9304C8.7876 15.9696 8.82719 16.0012 8.87226 16.0229C8.91732 16.0446 8.9667 16.056 9.01673 16.056H15.6834C15.7334 16.056 15.7828 16.0446 15.8279 16.0229C15.8729 16.0012 15.9125 15.9696 15.9437 15.9304C15.9749 15.8913 15.9969 15.8457 16.008 15.7969C16.0192 15.7481 16.0192 15.6975 16.0081 15.6487C15.8233 14.8172 15.3597 14.0739 14.6944 13.5422C14.029 13.0105 13.2018 12.7222 12.3501 12.7253ZM7.9834 12.278H1.9834C1.80659 12.278 1.63702 12.2078 1.51199 12.0827C1.38697 11.9577 1.31673 11.7881 1.31673 11.6113V3.44467C1.31673 3.40047 1.33429 3.35808 1.36555 3.32682C1.3968 3.29556 1.4392 3.27801 1.4834 3.27801H14.4834C14.5276 3.27801 14.57 3.29556 14.6012 3.32682C14.6325 3.35808 14.6501 3.40047 14.6501 3.44467V5.94467C14.6501 6.12148 14.7203 6.29105 14.8453 6.41608C14.9703 6.5411 15.1399 6.61134 15.3167 6.61134C15.4935 6.61134 15.6631 6.5411 15.7881 6.41608C15.9132 6.29105 15.9834 6.12148 15.9834 5.94467V1.94467C15.9834 1.41424 15.7727 0.905531 15.3976 0.530458C15.0225 0.155385 14.5138 -0.0553284 13.9834 -0.0553284H1.9834C1.45297 -0.0553284 0.944258 0.155385 0.569185 0.530458C0.194112 0.905531 -0.0166016 1.41424 -0.0166016 1.94467V11.6113C-0.0166016 12.1418 0.194112 12.6505 0.569185 13.0256C0.944258 13.4006 1.45297 13.6113 1.9834 13.6113H7.9834C8.16021 13.6113 8.32978 13.5411 8.4548 13.4161C8.57983 13.2911 8.65006 13.1215 8.65006 12.9447C8.65006 12.8571 8.63282 12.7704 8.59932 12.6896C8.56581 12.6087 8.51671 12.5352 8.4548 12.4733C8.3929 12.4114 8.3194 12.3623 8.23852 12.3288C8.15764 12.2952 8.07095 12.278 7.9834 12.278ZM6.4194 1.27801C6.47511 1.17712 6.55685 1.09302 6.6561 1.03445C6.75535 0.975877 6.86849 0.944984 6.98373 0.944984C7.09898 0.944984 7.21211 0.975877 7.31136 1.03445C7.41062 1.09302 7.49235 1.17712 7.54806 1.27801C7.61163 1.37783 7.64688 1.49304 7.65006 1.61134C7.64708 1.72967 7.61181 1.84493 7.54806 1.94467C7.49235 2.04556 7.41062 2.12966 7.31136 2.18823C7.21211 2.2468 7.09898 2.27769 6.98373 2.27769C6.86849 2.27769 6.75535 2.2468 6.6561 2.18823C6.55685 2.12966 6.47511 2.04556 6.4194 1.94467C6.35517 1.84512 6.31964 1.72978 6.31673 1.61134C6.31985 1.49293 6.35535 1.37764 6.4194 1.27801ZM4.08606 1.27801C4.14178 1.17712 4.22351 1.09302 4.32276 1.03445C4.42202 0.975877 4.53515 0.944984 4.6504 0.944984C4.76564 0.944984 4.87878 0.975877 4.97803 1.03445C5.07728 1.09302 5.15902 1.17712 5.21473 1.27801C5.27829 1.37783 5.31355 1.49304 5.31673 1.61134C5.31375 1.72967 5.27848 1.84493 5.21473 1.94467C5.15902 2.04556 5.07728 2.12966 4.97803 2.18823C4.87878 2.2468 4.76564 2.27769 4.6504 2.27769C4.53515 2.27769 4.42202 2.2468 4.32276 2.18823C4.22351 2.12966 4.14178 2.04556 4.08606 1.94467C4.02183 1.84512 3.98631 1.72978 3.9834 1.61134C3.98651 1.49293 4.02202 1.37764 4.08606 1.27801ZM1.7114 1.33934C1.76369 1.22233 1.84859 1.12287 1.95595 1.05287C2.06331 0.982878 2.18857 0.945311 2.31673 0.944672C2.43177 0.946082 2.54442 0.977597 2.64349 1.03608C2.74256 1.09456 2.82458 1.17797 2.8814 1.27801C2.94496 1.37783 2.98021 1.49304 2.9834 1.61134C2.98042 1.72967 2.94515 1.84493 2.8814 1.94467C2.82569 2.04556 2.74395 2.12966 2.6447 2.18823C2.54545 2.2468 2.43231 2.27769 2.31707 2.27769C2.20182 2.27769 2.08868 2.2468 1.98943 2.18823C1.89018 2.12966 1.80844 2.04556 1.75273 1.94467C1.6885 1.84512 1.65297 1.72978 1.65006 1.61134C1.65076 1.51732 1.67168 1.42456 1.7114 1.33934Z" fill="#717171"/>
</g>
<defs>
<clipPath id="clip0_465_5114">
<rect width="16" height="16" fill="white"/>
</clipPath>
</defs>
</svg>
