<svg width="22" height="21" viewBox="0 0 22 21" fill="none" xmlns="http://www.w3.org/2000/svg">
<g opacity="0.5">
<g filter="url(#filter0_d_154_3966)">
<path d="M15.7374 11.7614C15.7374 11.8399 15.7686 11.9152 15.8241 11.9708C15.8797 12.0263 15.955 12.0575 16.0335 12.0575H17.7041C17.7526 12.0575 17.8003 12.0455 17.8431 12.0227C17.8859 11.9999 17.9225 11.9669 17.9496 11.9267C17.9766 11.8865 17.9934 11.8402 17.9984 11.792C18.0034 11.7437 17.9965 11.695 17.9783 11.6501C17.8026 11.2109 17.5119 10.8272 17.1368 10.5391C16.7617 10.251 16.316 10.0691 15.8464 10.0126C15.7973 10.0067 15.7474 10.0132 15.7015 10.0315C15.6555 10.0498 15.6148 10.0793 15.5832 10.1173C15.5516 10.1554 15.53 10.2007 15.5204 10.2493C15.5108 10.2978 15.5136 10.348 15.5284 10.3952C15.6669 10.8374 15.7374 11.298 15.7374 11.7614ZM6.77577 10.3697C6.79003 10.3254 6.79362 10.2783 6.78624 10.2323C6.77887 10.1863 6.76074 10.1426 6.73333 10.105C6.70592 10.0673 6.67 10.0366 6.6285 10.0154C6.587 9.99422 6.54108 9.98313 6.49448 9.98303H6.48738C5.95689 9.9833 5.43862 10.1422 4.99919 10.4394C4.55976 10.7366 4.21927 11.1584 4.02149 11.6506C4.00336 11.6956 3.99654 11.7443 4.00164 11.7925C4.00674 11.8407 4.02359 11.8869 4.05072 11.9271C4.07785 11.9673 4.11443 12.0002 4.15724 12.0229C4.20005 12.0456 4.24779 12.0575 4.29627 12.0575H6.26234C6.34087 12.0575 6.41619 12.0263 6.47171 11.9708C6.52724 11.9152 6.55844 11.8399 6.55844 11.7614C6.55822 11.289 6.63155 10.8195 6.77577 10.3697Z" fill="#717171"/>
</g>
<g filter="url(#filter1_d_154_3966)">
<path d="M9.71487 8.09443C9.73792 8.10855 9.75666 8.12872 9.76906 8.15274C9.78146 8.17675 9.78705 8.20371 9.78522 8.23068C9.78339 8.25765 9.77421 8.2836 9.75868 8.30572C9.74314 8.32785 9.72185 8.34529 9.69711 8.35618C9.02983 8.64109 8.46088 9.11564 8.06084 9.72096C7.66081 10.3263 7.44729 11.0357 7.44678 11.7613C7.44678 11.8398 7.47797 11.9151 7.5335 11.9707C7.58903 12.0262 7.66434 12.0574 7.74287 12.0574H14.5531C14.6316 12.0574 14.7069 12.0262 14.7625 11.9707C14.818 11.9151 14.8492 11.8398 14.8492 11.7613C14.848 11.0346 14.6331 10.3244 14.2313 9.71895C13.8295 9.1135 13.2585 8.63958 12.5894 8.35618C12.5644 8.34532 12.5428 8.32779 12.5271 8.3055C12.5114 8.28321 12.5021 8.25703 12.5003 8.22982C12.4984 8.20261 12.5041 8.17542 12.5167 8.15123C12.5293 8.12703 12.5483 8.10677 12.5716 8.09265C13.0998 7.77892 13.5103 7.30035 13.7399 6.73055C13.9695 6.16076 14.0056 5.5313 13.8426 4.93899C13.6795 4.34669 13.3264 3.82436 12.8375 3.45235C12.3487 3.08033 11.7511 2.87924 11.1368 2.88001C10.5224 2.88077 9.92536 3.08335 9.4374 3.45658C8.94945 3.82981 8.59763 4.35301 8.43606 4.94572C8.2745 5.53842 8.31214 6.16779 8.54319 6.73702C8.77424 7.30624 9.18591 7.78379 9.71487 8.0962V8.09443ZM9.51945 5.68361C9.51946 5.57163 9.53198 5.46 9.55676 5.3508C9.56704 5.3051 9.58803 5.26248 9.61798 5.22647C9.64794 5.19045 9.68601 5.16205 9.72908 5.14362C9.77215 5.12517 9.81897 5.11722 9.86571 5.12039C9.91245 5.12357 9.95777 5.13779 9.99794 5.16189C10.5655 5.50361 11.2156 5.68399 11.8782 5.68361C12.0514 5.68345 12.2244 5.67059 12.3957 5.64512C12.442 5.63819 12.4892 5.64233 12.5336 5.65719C12.578 5.67205 12.6182 5.69721 12.6509 5.7306C12.6837 5.764 12.7081 5.80468 12.7221 5.84932C12.7361 5.89396 12.7393 5.94128 12.7315 5.98741C12.6562 6.38391 12.4357 6.73805 12.1131 6.98051C11.7904 7.22297 11.3889 7.33629 10.9871 7.29829C10.5853 7.26028 10.2122 7.0737 9.94073 6.77505C9.66927 6.4764 9.51904 6.0872 9.51945 5.68361Z" fill="#717171"/>
</g>
<g filter="url(#filter2_d_154_3966)">
<path d="M15.5124 9.39252C15.8524 9.3946 16.1846 9.29085 16.4631 9.09564C16.7415 8.90043 16.9523 8.62344 17.0662 8.30307C17.1802 7.98269 17.1916 7.6348 17.099 7.30762C17.0064 6.98044 16.8143 6.69018 16.5493 6.47708C16.2843 6.26397 15.9596 6.13858 15.6202 6.11828C15.2808 6.09798 14.9434 6.18378 14.655 6.36379C14.3665 6.5438 14.1411 6.80909 14.0102 7.1229C13.8792 7.43671 13.8491 7.78349 13.9241 8.11516C14.0072 8.47535 14.209 8.79713 14.4971 9.0288C14.7851 9.26047 15.1427 9.38857 15.5124 9.39252Z" fill="#717171"/>
</g>
<g filter="url(#filter3_d_154_3966)">
<path d="M6.48742 9.39237C7.38683 9.39237 8.11594 8.66325 8.11594 7.76384C8.11594 6.86443 7.38683 6.13531 6.48742 6.13531C5.588 6.13531 4.85889 6.86443 4.85889 7.76384C4.85889 8.66325 5.588 9.39237 6.48742 9.39237Z" fill="#717171"/>
</g>
</g>
<defs>
<filter id="filter0_d_154_3966" x="0" y="9.98303" width="22" height="10.0745" filterUnits="userSpaceOnUse" color-interpolation-filters="sRGB">
<feFlood flood-opacity="0" result="BackgroundImageFix"/>
<feColorMatrix in="SourceAlpha" type="matrix" values="0 0 0 0 0 0 0 0 0 0 0 0 0 0 0 0 0 0 127 0" result="hardAlpha"/>
<feOffset dy="4"/>
<feGaussianBlur stdDeviation="2"/>
<feColorMatrix type="matrix" values="0 0 0 0 0 0 0 0 0 0 0 0 0 0 0 0 0 0 0.05 0"/>
<feBlend mode="normal" in2="BackgroundImageFix" result="effect1_dropShadow_154_3966"/>
<feBlend mode="normal" in="SourceGraphic" in2="effect1_dropShadow_154_3966" result="shape"/>
</filter>
<filter id="filter1_d_154_3966" x="3.44678" y="2.88" width="15.4023" height="17.1774" filterUnits="userSpaceOnUse" color-interpolation-filters="sRGB">
<feFlood flood-opacity="0" result="BackgroundImageFix"/>
<feColorMatrix in="SourceAlpha" type="matrix" values="0 0 0 0 0 0 0 0 0 0 0 0 0 0 0 0 0 0 127 0" result="hardAlpha"/>
<feOffset dy="4"/>
<feGaussianBlur stdDeviation="2"/>
<feColorMatrix type="matrix" values="0 0 0 0 0 0 0 0 0 0 0 0 0 0 0 0 0 0 0.05 0"/>
<feBlend mode="normal" in2="BackgroundImageFix" result="effect1_dropShadow_154_3966"/>
<feBlend mode="normal" in="SourceGraphic" in2="effect1_dropShadow_154_3966" result="shape"/>
</filter>
<filter id="filter2_d_154_3966" x="9.88379" y="6.11536" width="11.2773" height="11.2772" filterUnits="userSpaceOnUse" color-interpolation-filters="sRGB">
<feFlood flood-opacity="0" result="BackgroundImageFix"/>
<feColorMatrix in="SourceAlpha" type="matrix" values="0 0 0 0 0 0 0 0 0 0 0 0 0 0 0 0 0 0 127 0" result="hardAlpha"/>
<feOffset dy="4"/>
<feGaussianBlur stdDeviation="2"/>
<feColorMatrix type="matrix" values="0 0 0 0 0 0 0 0 0 0 0 0 0 0 0 0 0 0 0.05 0"/>
<feBlend mode="normal" in2="BackgroundImageFix" result="effect1_dropShadow_154_3966"/>
<feBlend mode="normal" in="SourceGraphic" in2="effect1_dropShadow_154_3966" result="shape"/>
</filter>
<filter id="filter3_d_154_3966" x="0.858887" y="6.13531" width="11.2568" height="11.2571" filterUnits="userSpaceOnUse" color-interpolation-filters="sRGB">
<feFlood flood-opacity="0" result="BackgroundImageFix"/>
<feColorMatrix in="SourceAlpha" type="matrix" values="0 0 0 0 0 0 0 0 0 0 0 0 0 0 0 0 0 0 127 0" result="hardAlpha"/>
<feOffset dy="4"/>
<feGaussianBlur stdDeviation="2"/>
<feColorMatrix type="matrix" values="0 0 0 0 0 0 0 0 0 0 0 0 0 0 0 0 0 0 0.05 0"/>
<feBlend mode="normal" in2="BackgroundImageFix" result="effect1_dropShadow_154_3966"/>
<feBlend mode="normal" in="SourceGraphic" in2="effect1_dropShadow_154_3966" result="shape"/>
</filter>
</defs>
</svg>
