<svg width="22" height="23" viewBox="0 0 22 23" fill="none" xmlns="http://www.w3.org/2000/svg">
<g filter="url(#filter0_d_453_5457)">
<path fill-rule="evenodd" clip-rule="evenodd" d="M14.7905 6.29234C14.7905 6.32245 14.7812 6.35183 14.7637 6.37634C14.5808 6.67818 14.3313 6.93417 14.0342 7.12466C13.7372 7.31516 13.4004 7.43511 13.0498 7.47534C12.745 7.50958 12.4364 7.46466 12.154 7.3449C11.8716 7.22515 11.6248 7.03461 11.4375 6.79167V1.74817C11.4377 1.70953 11.453 1.6725 11.4801 1.64492C11.5075 1.61764 11.5446 1.60233 11.5833 1.60234H13.6407C13.6713 1.60236 13.7012 1.61201 13.726 1.62991C13.7508 1.64781 13.7693 1.67306 13.779 1.70209L14.7829 4.71092C14.7881 4.72573 14.7906 4.74132 14.7905 4.757V6.29234ZM10.5625 1.74584V6.78934C10.3771 7.03241 10.1319 7.22324 9.85072 7.34317C9.56954 7.4631 9.26206 7.50804 8.95833 7.47359C8.60551 7.43518 8.2663 7.31588 7.96713 7.12496C7.66795 6.93404 7.41686 6.67665 7.23341 6.37284C7.21633 6.34816 7.20717 6.31885 7.20716 6.28884V4.757C7.20703 4.74132 7.20959 4.72573 7.21475 4.71092L8.21866 1.69976C8.22833 1.67073 8.24688 1.64548 8.27169 1.62758C8.29651 1.60967 8.32632 1.60003 8.35691 1.60001H10.4167C10.4553 1.60001 10.4924 1.61537 10.5198 1.64272C10.5471 1.67007 10.5625 1.70716 10.5625 1.74584ZM6.33333 4.6625V6.4125C6.16794 6.60883 5.94211 6.74477 5.6912 6.79902C5.4403 6.85328 5.17848 6.82279 4.94675 6.71234C4.66826 6.5905 4.43081 6.39092 4.26289 6.13754C4.09497 5.88415 4.00369 5.58771 4 5.28375V4.73192C4.00059 4.71415 4.00414 4.69661 4.0105 4.68L5.10892 1.79892C5.15733 1.67117 5.23842 1.60234 5.28975 1.60234H7.13016C7.1528 1.60234 7.17513 1.60761 7.19538 1.61774C7.21563 1.62786 7.23325 1.64256 7.24683 1.66067C7.26037 1.67938 7.26924 1.70105 7.27269 1.72389C7.27614 1.74672 7.27407 1.77005 7.26666 1.79192L6.3555 4.52425C6.34091 4.56889 6.33343 4.61554 6.33333 4.6625ZM15.2187 7.28742C15.2529 7.28305 15.2876 7.29093 15.3167 7.30967C15.7179 7.57955 16.1958 7.71235 16.6787 7.68825C16.6986 7.68714 16.7185 7.69009 16.7371 7.69691C16.7558 7.70374 16.7729 7.71429 16.7874 7.72794C16.8018 7.74158 16.8134 7.75803 16.8213 7.77628C16.8292 7.79453 16.8333 7.8142 16.8333 7.83409V13.4107C16.8333 13.6428 16.7411 13.8654 16.577 14.0295C16.4129 14.1936 16.1904 14.2857 15.9583 14.2857H6.04167C5.8096 14.2857 5.58704 14.1936 5.42295 14.0295C5.25885 13.8654 5.16667 13.6428 5.16667 13.4107V7.82709C5.16689 7.80766 5.17098 7.78847 5.1787 7.77064C5.18641 7.7528 5.1976 7.73668 5.21161 7.72322C5.22561 7.70976 5.24216 7.69921 5.26029 7.69221C5.27841 7.6852 5.29774 7.68188 5.31717 7.68242C5.79878 7.70382 6.2748 7.5721 6.67692 7.30617C6.70592 7.28777 6.74049 7.28019 6.77453 7.28478C6.80857 7.28937 6.8399 7.30583 6.863 7.33125C7.3819 7.91545 8.10515 8.27832 8.88366 8.34509C8.963 8.3515 9.04058 8.355 9.117 8.355C9.77024 8.35393 10.4031 8.12726 10.9084 7.71334C10.9342 7.69285 10.9662 7.68169 10.9991 7.68169C11.0321 7.68169 11.064 7.69285 11.0898 7.71334C11.6606 8.17449 12.3858 8.40045 13.1175 8.34509C13.8927 8.27728 14.6126 7.91536 15.1294 7.33359C15.1528 7.30815 15.1844 7.2918 15.2187 7.28742ZM12.8232 9.67798C12.7795 9.71744 12.7532 9.77261 12.75 9.83142V12.9143C12.75 12.9917 12.7807 13.0659 12.8354 13.1206C12.8901 13.1753 12.9643 13.206 13.0417 13.206H14.7917C14.869 13.206 14.9432 13.1753 14.9979 13.1206C15.0526 13.0659 15.0833 12.9917 15.0833 12.9143V9.83142C15.0802 9.77261 15.0538 9.71744 15.0101 9.67798C14.9664 9.63852 14.9088 9.61797 14.85 9.62083H12.9833C12.9245 9.61797 12.8669 9.63852 12.8232 9.67798ZM7.2777 9.6729C7.23672 9.70929 7.21179 9.7604 7.20833 9.81508L7.20717 11.7599C7.21062 11.8146 7.23555 11.8657 7.27653 11.9021C7.3175 11.9385 7.3712 11.9572 7.42592 11.9542H10.4872C10.542 11.9572 10.5957 11.9385 10.6366 11.9021C10.6776 11.8657 10.7025 11.8146 10.706 11.7599V9.81508C10.7025 9.7604 10.6776 9.70929 10.6366 9.6729C10.5957 9.63652 10.542 9.6178 10.4872 9.62083H7.42708C7.37237 9.6178 7.31867 9.63652 7.2777 9.6729ZM14.871 1.60001H16.7102C16.7616 1.60001 16.8427 1.66884 16.8917 1.79659L17.9907 4.68C17.9966 4.69667 17.9998 4.71422 18 4.73192V5.28375C17.9965 5.58834 17.9052 5.88545 17.7372 6.13954C17.5692 6.39362 17.3315 6.5939 17.0527 6.71642C16.8349 6.80454 16.5977 6.83357 16.365 6.80059C16.1324 6.76761 15.9126 6.67377 15.7279 6.52859C15.7087 6.51482 15.693 6.49659 15.6824 6.47546C15.6717 6.45433 15.6663 6.43092 15.6667 6.40725V4.6625C15.6662 4.61548 15.6583 4.56883 15.6433 4.52425L14.7345 1.78959C14.7271 1.76772 14.725 1.74439 14.7285 1.72156C14.7319 1.69872 14.7408 1.67705 14.7543 1.65834C14.768 1.64029 14.7856 1.62564 14.8058 1.61552C14.8261 1.60541 14.8484 1.6001 14.871 1.60001Z" fill="#717171"/>
</g>
<defs>
<filter id="filter0_d_453_5457" x="0" y="1.60001" width="22" height="20.6857" filterUnits="userSpaceOnUse" color-interpolation-filters="sRGB">
<feFlood flood-opacity="0" result="BackgroundImageFix"/>
<feColorMatrix in="SourceAlpha" type="matrix" values="0 0 0 0 0 0 0 0 0 0 0 0 0 0 0 0 0 0 127 0" result="hardAlpha"/>
<feOffset dy="4"/>
<feGaussianBlur stdDeviation="2"/>
<feColorMatrix type="matrix" values="0 0 0 0 0 0 0 0 0 0 0 0 0 0 0 0 0 0 0.05 0"/>
<feBlend mode="normal" in2="BackgroundImageFix" result="effect1_dropShadow_453_5457"/>
<feBlend mode="normal" in="SourceGraphic" in2="effect1_dropShadow_453_5457" result="shape"/>
</filter>
</defs>
</svg>
