<svg width="16" height="16" viewBox="0 0 16 16" fill="none" xmlns="http://www.w3.org/2000/svg">
<g clip-path="url(#clip0_1104_6333)">
<path d="M8 4C9.10457 4 10 3.10457 10 2C10 0.895431 9.10457 0 8 0C6.89543 0 6 0.895431 6 2C6 3.10457 6.89543 4 8 4Z" fill="#717171"/>
<path d="M8 16C9.10457 16 10 15.1046 10 14C10 12.8954 9.10457 12 8 12C6.89543 12 6 12.8954 6 14C6 15.1046 6.89543 16 8 16Z" fill="#717171"/>
<path d="M14 10C15.1046 10 16 9.10457 16 8C16 6.89543 15.1046 6 14 6C12.8954 6 12 6.89543 12 8C12 9.10457 12.8954 10 14 10Z" fill="#717171"/>
<path d="M2 10C3.10457 10 4 9.10457 4 8C4 6.89543 3.10457 6 2 6C0.895431 6 0 6.89543 0 8C0 9.10457 0.895431 10 2 10Z" fill="#717171"/>
<path d="M10.8045 12.5373C10.7677 12.5603 10.7412 12.5965 10.7307 12.6386C10.7201 12.6806 10.7262 12.7251 10.7478 12.7627L11.2491 13.6293C11.2603 13.6486 11.2752 13.6653 11.293 13.6787C11.3107 13.6921 11.3309 13.7019 11.3525 13.7073C11.374 13.7129 11.3965 13.714 11.4184 13.7107C11.4404 13.7074 11.4615 13.6997 11.4805 13.688C12.3792 13.1366 13.1351 12.3808 13.6865 11.482C13.6981 11.4631 13.7059 11.442 13.7092 11.42C13.7125 11.398 13.7114 11.3755 13.7058 11.354C13.7003 11.3325 13.6906 11.3122 13.6772 11.2945C13.6638 11.2768 13.647 11.2619 13.6278 11.2507L12.7611 10.7493C12.7236 10.7278 12.6791 10.7216 12.637 10.7322C12.595 10.7428 12.5587 10.7692 12.5358 10.806C12.0999 11.5089 11.5074 12.1015 10.8045 12.5373ZM12.5365 5.19534C12.5594 5.23213 12.5957 5.25859 12.6377 5.26916C12.6797 5.27973 12.7242 5.27358 12.7618 5.25201L13.6285 4.75068C13.6477 4.7395 13.6645 4.7246 13.6779 4.70686C13.6913 4.68912 13.701 4.66888 13.7065 4.64734C13.712 4.6258 13.7132 4.60337 13.7099 4.58137C13.7065 4.55938 13.6988 4.53828 13.6871 4.51934C13.1355 3.62052 12.3795 2.86467 11.4805 2.31334C11.4615 2.30168 11.4404 2.29395 11.4184 2.29063C11.3965 2.28731 11.374 2.28846 11.3525 2.29401C11.3309 2.2995 11.3107 2.30922 11.293 2.32261C11.2752 2.336 11.2603 2.3528 11.2491 2.37201L10.7478 3.23868C10.7262 3.27626 10.7201 3.32075 10.7307 3.36278C10.7412 3.40481 10.7677 3.4411 10.8045 3.46401C11.5076 3.89981 12.1004 4.49237 12.5365 5.19534ZM2.31314 4.51934C2.30148 4.53828 2.29375 4.55938 2.29043 4.58137C2.28711 4.60337 2.28826 4.6258 2.29381 4.64734C2.2993 4.66888 2.30902 4.68912 2.32241 4.70686C2.3358 4.7246 2.3526 4.7395 2.37181 4.75068L3.23848 5.25201C3.27631 5.27441 3.32143 5.28102 3.36409 5.27042C3.40676 5.25981 3.44354 5.23285 3.46648 5.19534C3.90268 4.49149 4.49596 3.89821 5.19981 3.46201C5.2366 3.4391 5.26306 3.40281 5.27363 3.36078C5.2842 3.31875 5.27805 3.27426 5.25648 3.23668L4.75514 2.37001C4.74396 2.3508 4.72907 2.334 4.71133 2.32061C4.69358 2.30722 4.67335 2.2975 4.65181 2.29201C4.63027 2.28646 4.60783 2.28531 4.58584 2.28863C4.56385 2.29195 4.54275 2.29968 4.52381 2.31134C3.62313 2.86274 2.86562 3.61933 2.31314 4.51934ZM3.46648 10.8047C3.44357 10.7679 3.40728 10.7414 3.36525 10.7309C3.32322 10.7203 3.27873 10.7264 3.24114 10.748L2.37448 11.2493C2.35526 11.2605 2.33847 11.2754 2.32508 11.2932C2.31169 11.3109 2.30196 11.3311 2.29648 11.3527C2.29092 11.3742 2.28977 11.3967 2.2931 11.4186C2.29642 11.4406 2.30414 11.4617 2.31581 11.4807C2.86646 12.3791 3.62136 13.1349 4.51914 13.6867C4.53808 13.6983 4.55918 13.7061 4.58117 13.7094C4.60317 13.7127 4.6256 13.7116 4.64714 13.706C4.66868 13.7005 4.68892 13.6908 4.70666 13.6774C4.7244 13.664 4.7393 13.6472 4.75048 13.628L5.25181 12.7613C5.27338 12.7238 5.27953 12.6793 5.26896 12.6372C5.25839 12.5952 5.23193 12.5589 5.19514 12.536C4.49321 12.0998 3.9016 11.5073 3.46648 10.8047Z" fill="#717171"/>
</g>
<defs>
<clipPath id="clip0_1104_6333">
<rect width="16" height="16" fill="white"/>
</clipPath>
</defs>
</svg>
