<svg width="10" height="10" viewBox="0 0 10 10" fill="none" xmlns="http://www.w3.org/2000/svg">
<path d="M8.8356 1.99708L6.9606 0.122083C6.88248 0.0439378 6.77651 2.35989e-05 6.66602 0L1.87435 0C1.65334 0 1.44137 0.0877974 1.28509 0.244078C1.12881 0.400358 1.04102 0.61232 1.04102 0.833333V9.16667C1.04102 9.38768 1.12881 9.59964 1.28509 9.75592C1.44137 9.9122 1.65334 10 1.87435 10H8.12435C8.34536 10 8.55732 9.9122 8.7136 9.75592C8.86988 9.59964 8.95768 9.38768 8.95768 9.16667V2.29167C8.95766 2.18117 8.91374 2.07521 8.8356 1.99708ZM7.70768 9.16667H2.29102C2.18051 9.16667 2.07453 9.12277 1.99639 9.04463C1.91825 8.96649 1.87435 8.86051 1.87435 8.75V1.25C1.87435 1.13949 1.91825 1.03351 1.99639 0.955372C2.07453 0.877232 2.18051 0.833333 2.29102 0.833333H6.32102C6.43151 0.833357 6.53748 0.877271 6.6156 0.955417L8.00227 2.34208C8.08041 2.42021 8.12433 2.52617 8.12435 2.63667V8.75C8.12435 8.86051 8.08045 8.96649 8.00231 9.04463C7.92417 9.12277 7.81819 9.16667 7.70768 9.16667Z" fill="#76A4F6"/>
<path d="M5.14333 4.12833C5.144 3.93313 5.08579 3.74227 4.9763 3.58067C4.86681 3.41907 4.71112 3.29424 4.52958 3.2225L3.67 2.87875C3.6394 2.86636 3.61404 2.84372 3.59828 2.81472C3.58251 2.78571 3.57731 2.75212 3.58355 2.7197C3.5898 2.68728 3.60711 2.65803 3.63253 2.63696C3.65795 2.61589 3.6899 2.6043 3.72292 2.60417H4.57042C4.68092 2.60417 4.7869 2.56027 4.86504 2.48213C4.94318 2.40399 4.98708 2.29801 4.98708 2.1875C4.98708 2.07699 4.94318 1.97101 4.86504 1.89287C4.7869 1.81473 4.68092 1.77083 4.57042 1.77083H4.46625C4.43862 1.77083 4.41213 1.75986 4.39259 1.74032C4.37306 1.72079 4.36208 1.69429 4.36208 1.66667C4.36208 1.55616 4.31818 1.45018 4.24004 1.37204C4.1619 1.2939 4.05592 1.25 3.94542 1.25C3.83491 1.25 3.72893 1.2939 3.65079 1.37204C3.57265 1.45018 3.52875 1.55616 3.52875 1.66667V1.70833C3.52866 1.73091 3.52126 1.75285 3.50767 1.77087C3.49407 1.7889 3.47501 1.80204 3.45333 1.80833C3.25789 1.86455 3.0849 1.98042 2.95853 2.13975C2.83215 2.29909 2.75872 2.49392 2.74848 2.69703C2.73825 2.90014 2.79172 3.10137 2.90144 3.2726C3.01115 3.44383 3.17162 3.5765 3.36042 3.65208L4.22042 3.99583C4.25136 4.00808 4.27704 4.03076 4.29301 4.05996C4.30898 4.08915 4.31423 4.12302 4.30785 4.15567C4.30146 4.18833 4.28385 4.21773 4.25806 4.23876C4.23228 4.2598 4.19994 4.27114 4.16667 4.27083H3.32042C3.20991 4.27083 3.10393 4.31473 3.02579 4.39287C2.94765 4.47101 2.90375 4.57699 2.90375 4.6875C2.90375 4.79801 2.94765 4.90399 3.02579 4.98213C3.10393 5.06027 3.20991 5.10417 3.32042 5.10417H3.42458C3.45221 5.10417 3.47871 5.11514 3.49824 5.13468C3.51778 5.15421 3.52875 5.18071 3.52875 5.20833C3.52875 5.31884 3.57265 5.42482 3.65079 5.50296C3.72893 5.5811 3.83491 5.625 3.94542 5.625C4.05592 5.625 4.1619 5.5811 4.24004 5.50296C4.31818 5.42482 4.36208 5.31884 4.36208 5.20833V5.16667C4.36199 5.14406 4.36926 5.12203 4.38279 5.10392C4.39632 5.0858 4.41538 5.07258 4.43708 5.06625C4.64057 5.00762 4.81949 4.88443 4.94688 4.71526C5.07426 4.54609 5.14321 4.3401 5.14333 4.12833ZM2.5 6.45833V6.875C2.5 6.93025 2.52195 6.98324 2.56102 7.02231C2.60009 7.06138 2.65308 7.08333 2.70833 7.08333H4.0625C4.09013 7.08333 4.11662 7.07236 4.13616 7.05282C4.15569 7.03329 4.16667 7.00679 4.16667 6.97917V6.35417C4.16667 6.32654 4.15569 6.30004 4.13616 6.28051C4.11662 6.26097 4.09013 6.25 4.0625 6.25H2.70833C2.65308 6.25 2.60009 6.27195 2.56102 6.31102C2.52195 6.35009 2.5 6.40308 2.5 6.45833ZM2.5 7.70833V8.125C2.5 8.18025 2.52195 8.23324 2.56102 8.27231C2.60009 8.31138 2.65308 8.33333 2.70833 8.33333H4.0625C4.09013 8.33333 4.11662 8.32236 4.13616 8.30282C4.15569 8.28329 4.16667 8.25679 4.16667 8.22917V7.60417C4.16667 7.57654 4.15569 7.55004 4.13616 7.53051C4.11662 7.51097 4.09013 7.5 4.0625 7.5H2.70833C2.65308 7.5 2.60009 7.52195 2.56102 7.56102C2.52195 7.60009 2.5 7.65308 2.5 7.70833ZM4.58333 6.97917C4.58333 7.00679 4.59431 7.03329 4.61384 7.05282C4.63338 7.07236 4.65987 7.08333 4.6875 7.08333H7.08333C7.13859 7.08333 7.19158 7.06138 7.23065 7.02231C7.26972 6.98324 7.29167 6.93025 7.29167 6.875V6.45833C7.29167 6.40308 7.26972 6.35009 7.23065 6.31102C7.19158 6.27195 7.13859 6.25 7.08333 6.25H4.6875C4.65987 6.25 4.63338 6.26097 4.61384 6.28051C4.59431 6.30004 4.58333 6.32654 4.58333 6.35417V6.97917ZM7.08333 7.5H4.6875C4.65987 7.5 4.63338 7.51097 4.61384 7.53051C4.59431 7.55004 4.58333 7.57654 4.58333 7.60417V8.22917C4.58333 8.25679 4.59431 8.28329 4.61384 8.30282C4.63338 8.32236 4.65987 8.33333 4.6875 8.33333H7.08333C7.13859 8.33333 7.19158 8.31138 7.23065 8.27231C7.26972 8.23324 7.29167 8.18025 7.29167 8.125V7.70833C7.29167 7.65308 7.26972 7.60009 7.23065 7.56102C7.19158 7.52195 7.13859 7.5 7.08333 7.5Z" fill="#76A4F6"/>
</svg>
