<svg width="10" height="10" viewBox="0 0 10 10" fill="none" xmlns="http://www.w3.org/2000/svg">
<g clip-path="url(#clip0_18931_131280)">
<path d="M1.87412 3.12492C1.94799 3.12462 2.02049 3.10495 2.08439 3.06789C2.14829 3.03082 2.20135 2.97765 2.23828 2.91367C2.43992 2.54722 2.74072 2.24498 3.1062 2.04159C3.154 2.01494 3.19607 1.97914 3.23003 1.93623C3.26399 1.89332 3.28917 1.84414 3.30412 1.7915C3.31908 1.73886 3.32352 1.68379 3.31719 1.62944C3.31086 1.57508 3.29389 1.52251 3.26724 1.47471C3.24059 1.42692 3.20479 1.38484 3.16188 1.35088C3.11897 1.31692 3.0698 1.29174 3.01716 1.27679C2.96452 1.26183 2.90945 1.25739 2.85509 1.26372C2.80074 1.27005 2.74816 1.28702 2.70037 1.31367C2.20014 1.5919 1.78789 2.00473 1.51037 2.50534C1.48358 2.5531 1.46646 2.60567 1.46 2.66005C1.45355 2.71443 1.45787 2.76955 1.47273 2.82225C1.48759 2.87496 1.51269 2.92422 1.54661 2.96722C1.58052 3.01022 1.62257 3.04611 1.67037 3.07284C1.73264 3.10753 1.80284 3.12547 1.87412 3.12492ZM2.67912 0.296588C2.64715 0.190853 2.57451 0.102139 2.47715 0.0499462C2.3798 -0.00224642 2.26571 -0.0136456 2.15995 0.0182545C1.65031 0.164342 1.18622 0.437685 0.811344 0.812564C0.436464 1.18744 0.163121 1.65154 0.0170338 2.16117C-0.000369792 2.21397 -0.00702976 2.26973 -0.00255371 2.32514C0.00192233 2.38056 0.0174439 2.43452 0.0430965 2.48385C0.0687491 2.53317 0.104014 2.57687 0.146814 2.61235C0.189613 2.64784 0.239082 2.6744 0.292306 2.69048C0.34553 2.70655 0.401432 2.71181 0.456719 2.70594C0.512006 2.70008 0.565561 2.6832 0.614227 2.65632C0.662894 2.62944 0.705688 2.59309 0.740089 2.54941C0.77449 2.50573 0.799802 2.45561 0.814534 2.402C0.923454 2.02517 1.12467 1.68145 1.39995 1.402C1.67963 1.12694 2.02325 0.925633 2.39995 0.816171C2.45243 0.800432 2.50128 0.774499 2.54373 0.739855C2.58617 0.705211 2.62136 0.662538 2.64729 0.614277C2.67322 0.566016 2.68938 0.513115 2.69484 0.458602C2.7003 0.404088 2.69496 0.349034 2.67912 0.296588ZM7.97662 1.82742C7.77501 1.6263 7.54661 1.45398 7.29787 1.31534C7.25001 1.28485 7.19644 1.26446 7.14042 1.25542C7.08441 1.24637 7.02714 1.24886 6.97212 1.26273C6.91711 1.2766 6.8655 1.30157 6.82047 1.33609C6.77545 1.37061 6.73794 1.41397 6.71027 1.4635C6.68259 1.51303 6.66532 1.56769 6.65951 1.62413C6.65371 1.68057 6.6595 1.73761 6.67651 1.79173C6.69353 1.84586 6.72143 1.89594 6.75849 1.9389C6.79555 1.98187 6.84099 2.01681 6.89203 2.04159C7.25709 2.24456 7.55792 2.54583 7.76037 2.91117C7.81574 3.00623 7.90589 3.07605 8.01177 3.1059C8.11765 3.13575 8.23099 3.1233 8.32787 3.07117C8.37566 3.04444 8.41772 3.00855 8.45163 2.96555C8.48554 2.92255 8.51064 2.87329 8.5255 2.82059C8.54036 2.76788 8.54469 2.71276 8.53823 2.65838C8.53177 2.604 8.51466 2.55143 8.48787 2.50367C8.34925 2.25589 8.17722 2.02834 7.97662 1.82742ZM9.9812 2.16117C9.83511 1.65154 9.56177 1.18744 9.18689 0.812564C8.81201 0.437685 8.34792 0.164342 7.83828 0.0182545C7.78548 0.00085091 7.72973 -0.00580905 7.67431 -0.00133301C7.61889 0.00314304 7.56493 0.0186646 7.5156 0.0443172C7.46628 0.0699698 7.42259 0.105235 7.3871 0.148034C7.35161 0.190834 7.32505 0.240303 7.30898 0.293527C7.29291 0.34675 7.28765 0.402652 7.29351 0.45794C7.29938 0.513227 7.31625 0.566782 7.34313 0.615448C7.37002 0.664114 7.40637 0.706909 7.45004 0.74131C7.49372 0.775711 7.54384 0.801023 7.59745 0.815755C7.97564 0.922029 8.32016 1.12374 8.59794 1.40152C8.87572 1.67929 9.07743 2.02381 9.1837 2.402C9.21679 2.50698 9.28962 2.59485 9.38662 2.64686C9.48363 2.69887 9.59712 2.71088 9.70287 2.68034C9.8086 2.64837 9.89732 2.57573 9.94951 2.47837C10.0017 2.38102 10.0131 2.26693 9.9812 2.16117ZM5.62412 8.95825H4.37412C4.31886 8.95825 4.26587 8.9802 4.2268 9.01927C4.18773 9.05834 4.16578 9.11133 4.16578 9.16659C4.16578 9.3876 4.25358 9.59956 4.40986 9.75584C4.56614 9.91212 4.7781 9.99992 4.99912 9.99992C5.22013 9.99992 5.43209 9.91212 5.58837 9.75584C5.74465 9.59956 5.83245 9.3876 5.83245 9.16659C5.83245 9.11133 5.8105 9.05834 5.77143 9.01927C5.73236 8.9802 5.67937 8.95825 5.62412 8.95825ZM7.91578 7.70825C7.80528 7.70825 7.6993 7.66436 7.62115 7.58622C7.54301 7.50808 7.49912 7.40209 7.49912 7.29159V5.41659C7.49912 3.97867 6.5962 2.7845 5.41578 2.55242V1.87492C5.41578 1.76441 5.37188 1.65843 5.29374 1.58029C5.2156 1.50215 5.10962 1.45825 4.99912 1.45825C4.88861 1.45825 4.78263 1.50215 4.70449 1.58029C4.62635 1.65843 4.58245 1.76441 4.58245 1.87492V2.55284C3.40203 2.78492 2.49912 3.97909 2.49912 5.41659V7.29159C2.49912 7.40209 2.45522 7.50808 2.37708 7.58622C2.29894 7.66436 2.19296 7.70825 2.08245 7.70825C1.97194 7.70825 1.86596 7.75215 1.78782 7.83029C1.70968 7.90843 1.66578 8.01441 1.66578 8.12492C1.66578 8.23543 1.70968 8.34141 1.78782 8.41955C1.86596 8.49769 1.97194 8.54159 2.08245 8.54159H7.91578C8.02629 8.54159 8.13227 8.49769 8.21041 8.41955C8.28855 8.34141 8.33245 8.23543 8.33245 8.12492C8.33245 8.01441 8.28855 7.90843 8.21041 7.83029C8.13227 7.75215 8.02629 7.70825 7.91578 7.70825Z" fill="#76A4F6"/>
</g>
<defs>
<clipPath id="clip0_18931_131280">
<rect width="10" height="10" fill="white"/>
</clipPath>
</defs>
</svg>
