<svg width="10" height="10" viewBox="0 0 10 10" fill="none" xmlns="http://www.w3.org/2000/svg">
<g clip-path="url(#clip0_18931_131339)">
<path d="M0.520833 8.74992H1.97917C1.99286 8.74997 2.00643 8.74732 2.01909 8.7421C2.03176 8.73689 2.04326 8.72922 2.05295 8.71953C2.06263 8.70985 2.0703 8.69834 2.07552 8.68568C2.08073 8.67302 2.08339 8.65945 2.08333 8.64575V7.81242C2.08333 7.70191 2.03943 7.59593 1.96129 7.51779C1.88315 7.43965 1.77717 7.39575 1.66667 7.39575H0.833333C0.722826 7.39575 0.616846 7.43965 0.538705 7.51779C0.460565 7.59593 0.416667 7.70191 0.416667 7.81242V8.64575C0.416612 8.65945 0.419268 8.67302 0.424484 8.68568C0.429699 8.69834 0.43737 8.70985 0.447053 8.71953C0.456737 8.72922 0.468242 8.73689 0.480905 8.7421C0.493568 8.74732 0.507139 8.74997 0.520833 8.74992ZM3.33333 5.31242C3.22283 5.31242 3.11685 5.35632 3.03871 5.43446C2.96057 5.5126 2.91667 5.61858 2.91667 5.72908V8.64575C2.91661 8.65945 2.91927 8.67302 2.92448 8.68568C2.9297 8.69834 2.93737 8.70985 2.94705 8.71953C2.95674 8.72922 2.96824 8.73689 2.98091 8.7421C2.99357 8.74732 3.00714 8.74997 3.02083 8.74992H4.47917C4.49286 8.74997 4.50643 8.74732 4.51909 8.7421C4.53176 8.73689 4.54326 8.72922 4.55295 8.71953C4.56263 8.70985 4.5703 8.69834 4.57552 8.68568C4.58073 8.67302 4.58339 8.65945 4.58333 8.64575V5.72908C4.58333 5.61858 4.53943 5.5126 4.46129 5.43446C4.38315 5.35632 4.27717 5.31242 4.16667 5.31242H3.33333ZM5.83333 6.14575C5.72283 6.14575 5.61685 6.18965 5.53871 6.26779C5.46057 6.34593 5.41667 6.45191 5.41667 6.56242V8.64575C5.41661 8.65945 5.41927 8.67302 5.42448 8.68568C5.4297 8.69834 5.43737 8.70985 5.44705 8.71953C5.45674 8.72922 5.46824 8.73689 5.48091 8.7421C5.49357 8.74732 5.50714 8.74997 5.52083 8.74992H6.97917C6.99286 8.74997 7.00643 8.74732 7.01909 8.7421C7.03176 8.73689 7.04326 8.72922 7.05295 8.71953C7.06263 8.70985 7.0703 8.69834 7.07552 8.68568C7.08073 8.67302 7.08339 8.65945 7.08333 8.64575V6.56242C7.08333 6.45191 7.03943 6.34593 6.96129 6.26779C6.88315 6.18965 6.77717 6.14575 6.66667 6.14575H5.83333ZM8.33333 3.22909C8.22283 3.22909 8.11685 3.27298 8.0387 3.35112C7.96056 3.42926 7.91667 3.53524 7.91667 3.64575V8.64575C7.91661 8.65945 7.91927 8.67302 7.92448 8.68568C7.9297 8.69834 7.93737 8.70985 7.94705 8.71953C7.95674 8.72922 7.96824 8.73689 7.98091 8.7421C7.99357 8.74732 8.00714 8.74997 8.02083 8.74992H9.47917C9.49286 8.74997 9.50643 8.74732 9.51909 8.7421C9.53176 8.73689 9.54326 8.72922 9.55295 8.71953C9.56263 8.70985 9.5703 8.69834 9.57552 8.68568C9.58073 8.67302 9.58339 8.65945 9.58333 8.64575V3.64575C9.58333 3.53524 9.53943 3.42926 9.46129 3.35112C9.38315 3.27298 9.27717 3.22909 9.16667 3.22909H8.33333ZM8.75 -0.104248C8.62428 -0.104224 8.5002 -0.0757556 8.38704 -0.0209748C8.27388 0.0338061 8.17459 0.113479 8.09659 0.212078C8.0186 0.310676 7.96392 0.425644 7.93666 0.548372C7.90939 0.671099 7.91025 0.798404 7.93917 0.920752C7.94283 0.936793 7.94271 0.953469 7.9388 0.969453C7.9349 0.985438 7.92732 1.00029 7.91667 1.01284L6.55917 2.59617C6.54644 2.61087 6.5299 2.62176 6.51137 2.62764C6.49284 2.63353 6.47304 2.63417 6.45417 2.6295C6.38748 2.61235 6.31886 2.6038 6.25 2.60409C6.14022 2.60422 6.03154 2.62604 5.93022 2.6683C5.8289 2.71056 5.73692 2.77242 5.65958 2.85034C5.64596 2.86412 5.62872 2.87379 5.60985 2.87821C5.59098 2.88263 5.57125 2.88164 5.55292 2.87534L4.64542 2.57325C4.62717 2.56715 4.61095 2.55614 4.59854 2.54145C4.58612 2.52675 4.57798 2.50893 4.575 2.48992C4.54531 2.28149 4.43784 2.09203 4.27417 1.9596C4.11051 1.82718 3.90279 1.7616 3.69276 1.77606C3.48273 1.79052 3.28595 1.88394 3.14198 2.03755C2.99801 2.19115 2.91751 2.39356 2.91667 2.60409C2.91661 2.66921 2.92431 2.73411 2.93958 2.79742C2.94404 2.81632 2.94312 2.83609 2.93694 2.85449C2.93075 2.8729 2.91955 2.88921 2.90458 2.90159L1.69625 3.90992C1.68121 3.92223 1.66307 3.93018 1.64382 3.93289C1.62457 3.93561 1.60495 3.933 1.58708 3.92533C1.42281 3.85268 1.23945 3.83504 1.06434 3.87506C0.88923 3.91508 0.731737 4.01061 0.615331 4.14741C0.498925 4.28422 0.429839 4.45497 0.418368 4.63423C0.406896 4.81349 0.453654 4.99166 0.551672 5.14218C0.649691 5.29271 0.793723 5.40753 0.962305 5.46955C1.13089 5.53156 1.31499 5.53744 1.48719 5.48632C1.65939 5.43519 1.81045 5.32979 1.91788 5.18583C2.02531 5.04186 2.08334 4.86704 2.08333 4.68742C2.08329 4.62246 2.07574 4.55773 2.06083 4.4945C2.05633 4.47564 2.05718 4.4559 2.06329 4.43749C2.0694 4.41909 2.08053 4.40276 2.09542 4.39034L3.30375 3.382C3.31864 3.36956 3.33671 3.36152 3.35593 3.3588C3.37514 3.35607 3.39474 3.35877 3.4125 3.36659C3.5666 3.43437 3.73762 3.45389 3.90304 3.42258C4.06845 3.39127 4.2205 3.31059 4.33917 3.19117C4.35291 3.17743 4.37022 3.16781 4.38914 3.16339C4.40806 3.15897 4.42785 3.15993 4.44625 3.16617L5.35333 3.46784C5.37148 3.47404 5.38758 3.48509 5.39992 3.49977C5.41225 3.51445 5.42035 3.53222 5.42333 3.55117C5.45009 3.76217 5.55651 3.95496 5.7208 4.09004C5.8851 4.22512 6.09482 4.29227 6.30702 4.27773C6.51921 4.26319 6.71782 4.16806 6.86215 4.01183C7.00648 3.8556 7.08561 3.6501 7.08333 3.43742C7.08345 3.32554 7.06077 3.21482 7.01667 3.112C7.00912 3.09408 7.00672 3.07441 7.00974 3.0552C7.01276 3.03599 7.02107 3.018 7.03375 3.00325L8.30208 1.52325C8.31652 1.50644 8.33593 1.49467 8.35751 1.48965C8.37909 1.48463 8.40171 1.48662 8.42208 1.49534C8.53574 1.54392 8.65877 1.56662 8.78228 1.56178C8.90579 1.55694 9.02667 1.52469 9.13618 1.46736C9.24568 1.41003 9.34106 1.32906 9.4154 1.23031C9.48974 1.13157 9.54119 1.01752 9.56601 0.896439C9.59084 0.775355 9.58841 0.650265 9.55892 0.530234C9.52942 0.410202 9.4736 0.298234 9.39548 0.202443C9.31737 0.106652 9.21893 0.0294372 9.10729 -0.0236073C8.99565 -0.0766518 8.8736 -0.104197 8.75 -0.104248ZM0.416667 10.1041H9.58333C9.69384 10.1041 9.79982 10.0602 9.87796 9.98205C9.9561 9.90391 10 9.79792 10 9.68742C10 9.57691 9.9561 9.47093 9.87796 9.39279C9.79982 9.31465 9.69384 9.27075 9.58333 9.27075H0.416667C0.30616 9.27075 0.200179 9.31465 0.122039 9.39279C0.0438987 9.47093 0 9.57691 0 9.68742C0 9.79792 0.0438987 9.90391 0.122039 9.98205C0.200179 10.0602 0.30616 10.1041 0.416667 10.1041Z" fill="#76A4F6"/>
</g>
<defs>
<clipPath id="clip0_18931_131339">
<rect width="10" height="10" fill="white"/>
</clipPath>
</defs>
</svg>
