<svg width="10" height="10" viewBox="0 0 10 10" fill="none" xmlns="http://www.w3.org/2000/svg">
<g filter="url(#filter0_d_18931_131269)">
<path d="M13.1667 2.5H11.6042C11.5765 2.5 11.55 2.48903 11.5305 2.46949C11.511 2.44996 11.5 2.42346 11.5 2.39583V0.833333C11.5 0.61232 11.4122 0.400358 11.2559 0.244078C11.0996 0.0877974 10.8877 0 10.6667 0L4.83333 0C4.61232 0 4.40036 0.0877974 4.24408 0.244078C4.0878 0.400358 4 0.61232 4 0.833333V6.66667C4 6.88768 4.0878 7.09964 4.24408 7.25592C4.40036 7.4122 4.61232 7.5 4.83333 7.5H6.39583C6.42346 7.5 6.44996 7.51097 6.46949 7.53051C6.48903 7.55004 6.5 7.57654 6.5 7.60417V9.16667C6.5 9.38768 6.5878 9.59964 6.74408 9.75592C6.90036 9.9122 7.11232 10 7.33333 10H13.1667C13.3877 10 13.5996 9.9122 13.7559 9.75592C13.9122 9.59964 14 9.38768 14 9.16667V3.33333C14 3.11232 13.9122 2.90036 13.7559 2.74408C13.5996 2.5878 13.3877 2.5 13.1667 2.5ZM4.83333 1.04167C4.83333 0.986413 4.85528 0.933423 4.89435 0.894353C4.93342 0.855283 4.98641 0.833333 5.04167 0.833333H10.4583C10.5136 0.833333 10.5666 0.855283 10.6056 0.894353C10.6447 0.933423 10.6667 0.986413 10.6667 1.04167V6.45833C10.6667 6.51359 10.6447 6.56658 10.6056 6.60565C10.5666 6.64472 10.5136 6.66667 10.4583 6.66667H5.04167C4.98641 6.66667 4.93342 6.64472 4.89435 6.60565C4.85528 6.56658 4.83333 6.51359 4.83333 6.45833V1.04167Z" fill="#76A4F6"/>
</g>
<defs>
<filter id="filter0_d_18931_131269" x="0" y="0" width="18" height="18" filterUnits="userSpaceOnUse" color-interpolation-filters="sRGB">
<feFlood flood-opacity="0" result="BackgroundImageFix"/>
<feColorMatrix in="SourceAlpha" type="matrix" values="0 0 0 0 0 0 0 0 0 0 0 0 0 0 0 0 0 0 127 0" result="hardAlpha"/>
<feOffset dy="4"/>
<feGaussianBlur stdDeviation="2"/>
<feColorMatrix type="matrix" values="0 0 0 0 0 0 0 0 0 0 0 0 0 0 0 0 0 0 0.05 0"/>
<feBlend mode="normal" in2="BackgroundImageFix" result="effect1_dropShadow_18931_131269"/>
<feBlend mode="normal" in="SourceGraphic" in2="effect1_dropShadow_18931_131269" result="shape"/>
</filter>
</defs>
</svg>
