<svg width="10" height="10" viewBox="0 0 10 10" fill="none" xmlns="http://www.w3.org/2000/svg">
<path d="M9.72398 8.30587L8.20304 6.78535C8.18671 6.76889 8.17633 6.74745 8.17354 6.72442C8.17076 6.7014 8.17573 6.67811 8.18767 6.65822C8.53856 6.07892 8.72392 5.4145 8.72359 4.73721C8.72316 3.84231 8.40178 2.97724 7.81781 2.29913C7.23384 1.62102 6.42603 1.17485 5.54109 1.04165C4.65616 0.90846 3.7528 1.09708 2.9951 1.57326C2.2374 2.04943 1.67562 2.78157 1.41179 3.6367C1.40215 3.66756 1.39985 3.70024 1.40506 3.73214C1.41028 3.76404 1.42287 3.79428 1.44183 3.82046C1.46079 3.84664 1.48559 3.86804 1.51428 3.88294C1.54296 3.89785 1.57473 3.90586 1.60705 3.90633H2.04534C2.08858 3.90662 2.13084 3.8934 2.16621 3.86853C2.20159 3.84366 2.22832 3.80836 2.24267 3.76757C2.46767 3.12748 2.90901 2.58599 3.49055 2.23651C4.07209 1.88702 4.75738 1.75145 5.42818 1.85319C6.09899 1.95492 6.71326 2.28758 7.16503 2.79379C7.61679 3.29999 7.87773 3.94799 7.90282 4.626C7.92791 5.30402 7.71559 5.96953 7.30247 6.50774C6.88936 7.04595 6.30136 7.4231 5.6399 7.57414C4.97845 7.72518 4.28503 7.64064 3.67924 7.33509C3.07346 7.02955 2.5933 6.52216 2.32161 5.90045C2.30542 5.86336 2.27875 5.83181 2.24487 5.80967C2.211 5.78753 2.17139 5.77576 2.13092 5.77582H1.68183C1.6482 5.7758 1.61506 5.78394 1.58527 5.79954C1.55548 5.81515 1.52992 5.83776 1.5108 5.86542C1.49168 5.89309 1.47956 5.92498 1.47548 5.95837C1.4714 5.99175 1.47549 6.02562 1.4874 6.05708C1.75601 6.76753 2.23441 7.37945 2.85907 7.81155C3.48373 8.24364 4.22506 8.47546 4.9846 8.4762C5.66054 8.47747 6.32376 8.29247 6.90146 7.94153C6.9214 7.92956 6.94477 7.92457 6.96786 7.92735C6.99096 7.93013 7.01247 7.94053 7.029 7.9569L8.55367 9.48158C8.6294 9.56485 8.72125 9.63187 8.82366 9.67856C8.92607 9.72526 9.0369 9.75067 9.14943 9.75324C9.26195 9.75581 9.37383 9.73549 9.47826 9.69351C9.58269 9.65154 9.67751 9.58878 9.75696 9.50905C9.8364 9.42932 9.89883 9.33428 9.94043 9.2297C9.98204 9.12512 10.002 9.01317 9.99899 8.90066C9.99602 8.78814 9.97023 8.6774 9.92317 8.57516C9.87611 8.47292 9.80876 8.3813 9.72522 8.30587H9.72398Z" fill="#76A4F6"/>
<path d="M3.39085 4.90704L3.64967 4.42222C3.65944 4.40396 3.67444 4.38905 3.69276 4.37938C3.71107 4.36971 3.73185 4.36574 3.75244 4.36797C3.77302 4.37021 3.79247 4.37854 3.80829 4.39191C3.8241 4.40528 3.83556 4.42307 3.84119 4.44299L4.25414 5.91699C4.28785 6.04539 4.36006 6.16039 4.46107 6.24654C4.56207 6.3327 4.68703 6.38586 4.81914 6.3989C4.83791 6.40078 4.85678 6.40161 4.87564 6.40139C5.00029 6.40006 5.12194 6.36304 5.22619 6.29471C5.33045 6.22639 5.41295 6.12962 5.46391 6.01586L5.96493 4.91535C5.97278 4.89819 5.98514 4.88349 6.00071 4.87283C6.01628 4.86216 6.03445 4.85594 6.05329 4.85483C6.07213 4.85372 6.09091 4.85776 6.10762 4.86652C6.12433 4.87528 6.13834 4.88843 6.14814 4.90455L6.39367 5.30919C6.42199 5.35584 6.45921 5.39645 6.50322 5.42871C6.54723 5.46097 6.59717 5.48425 6.65017 5.49721C6.70318 5.51017 6.75822 5.51256 6.81215 5.50426C6.86608 5.49595 6.91784 5.4771 6.96449 5.44878C7.01114 5.42047 7.05175 5.38324 7.08401 5.33923C7.11627 5.29522 7.13954 5.24529 7.15251 5.19228C7.16547 5.13928 7.16786 5.08424 7.15955 5.03031C7.15125 4.97637 7.1324 4.92461 7.10408 4.87796L6.57231 4.00179C6.51239 3.90027 6.42555 3.81731 6.3214 3.76208C6.21726 3.70686 6.09986 3.68152 5.98221 3.68887C5.86455 3.69623 5.75123 3.73599 5.65477 3.80375C5.55831 3.87151 5.48247 3.96464 5.43566 4.07283L5.036 4.95108C5.02708 4.97039 5.01247 4.98651 4.99413 4.99727C4.97579 5.00804 4.9546 5.01294 4.93339 5.01132C4.91215 5.00975 4.89191 5.00164 4.87547 4.9881C4.85903 4.97456 4.84719 4.95626 4.84158 4.93571L4.44732 3.52902C4.41397 3.40428 4.34445 3.29221 4.24754 3.2069C4.15062 3.12159 4.03063 3.06686 3.90267 3.0496C3.77229 3.0333 3.64006 3.05773 3.52411 3.11953C3.40815 3.18134 3.31415 3.2775 3.255 3.39483L2.70537 4.42596H0.415443C0.305261 4.42596 0.199591 4.46973 0.121681 4.54764C0.0437698 4.62555 0 4.73122 0 4.8414C0 4.95159 0.0437698 5.05726 0.121681 5.13517C0.199591 5.21308 0.305261 5.25685 0.415443 5.25685H2.82086C2.93875 5.25614 3.0542 5.22317 3.15468 5.1615C3.25516 5.09984 3.33683 5.01184 3.39085 4.90704Z" fill="#76A4F6"/>
</svg>
