<svg width="6" height="12" viewBox="0 0 6 12" fill="none" xmlns="http://www.w3.org/2000/svg">
<path d="M0.153016 6.40416C0.104509 6.35111 0.0660267 6.28811 0.0397706 6.21876C0.013515 6.14941 4.76837e-07 6.07507 4.76837e-07 6C4.76837e-07 5.92493 0.013515 5.85059 0.0397706 5.78124C0.0660267 5.71189 0.104509 5.64889 0.153016 5.59584L5.10947 0.167583C5.18241 0.0875874 5.27538 0.0330954 5.37661 0.0110083C5.47784 -0.0110788 5.58278 0.000232697 5.67814 0.0435104C5.7735 0.0867872 5.85499 0.160084 5.91228 0.254117C5.96958 0.34815 6.00011 0.45869 6 0.571737V1.42845C6.00007 1.50348 5.98664 1.57779 5.96048 1.64714C5.93432 1.71649 5.89594 1.77951 5.84753 1.8326L2.23736 5.78582C2.21163 5.81392 2.19123 5.84731 2.1773 5.88406C2.16338 5.92081 2.15621 5.96021 2.15621 6C2.15621 6.03979 2.16338 6.07919 2.1773 6.11594C2.19123 6.15269 2.21163 6.18608 2.23736 6.21418L5.84753 10.1674C5.89594 10.2205 5.93432 10.2835 5.96048 10.3529C5.98664 10.4222 6.00007 10.4965 6 10.5716V11.4283C6.00011 11.5413 5.96958 11.6519 5.91228 11.7459C5.85499 11.8399 5.7735 11.9132 5.67814 11.9565C5.58278 11.9998 5.47784 12.0111 5.37661 11.989C5.27538 11.9669 5.18241 11.9124 5.10947 11.8324L0.153016 6.40416Z" fill="#2266E2"/>
</svg>
