<svg width="10" height="10" viewBox="0 0 10 10" fill="none" xmlns="http://www.w3.org/2000/svg">
<path d="M7.44415 2.4042C7.52515 2.4042 7.60284 2.37202 7.66011 2.31474C7.71739 2.25747 7.74957 2.17978 7.74957 2.09878C7.74957 2.01778 7.71739 1.9401 7.66011 1.88282C7.60284 1.82554 7.52515 1.79337 7.44415 1.79337H7.2429C7.21528 1.79337 7.18878 1.78239 7.16925 1.76286C7.14971 1.74332 7.13874 1.71683 7.13874 1.6892V1.64087C7.13874 1.60076 7.13084 1.56104 7.11549 1.52399C7.10014 1.48693 7.07764 1.45326 7.04928 1.4249C7.02092 1.39654 6.98725 1.37405 6.9502 1.3587C6.91314 1.34335 6.87343 1.33545 6.83332 1.33545C6.79321 1.33545 6.7535 1.34335 6.71644 1.3587C6.67939 1.37405 6.64572 1.39654 6.61736 1.4249C6.589 1.45326 6.5665 1.48693 6.55115 1.52399C6.5358 1.56104 6.5279 1.60076 6.5279 1.64087V1.70587C6.52798 1.72871 6.51945 1.75075 6.504 1.76758C6.48856 1.78442 6.46734 1.79481 6.44457 1.7967C6.36902 1.79893 6.29476 1.81681 6.22647 1.8492C6.15818 1.88159 6.09735 1.92778 6.04782 1.98487C5.99828 2.04196 5.96113 2.1087 5.9387 2.18087C5.91626 2.25305 5.90904 2.32909 5.91748 2.4042C5.91748 2.76628 6.27957 3.01003 6.6629 3.26795C6.73332 3.31545 6.82373 3.37628 6.90665 3.43795C6.92432 3.45101 6.9374 3.46933 6.94403 3.49027C6.95065 3.51122 6.95049 3.53373 6.94356 3.55458C6.93662 3.57542 6.92327 3.59354 6.90542 3.60635C6.88757 3.61915 6.86612 3.62598 6.84415 3.62587H6.22248C6.14148 3.62587 6.0638 3.65804 6.00652 3.71532C5.94925 3.7726 5.91707 3.85028 5.91707 3.93128C5.91707 4.01228 5.94925 4.08997 6.00652 4.14724C6.0638 4.20452 6.14148 4.2367 6.22248 4.2367H6.42374C6.45136 4.2367 6.47786 4.24767 6.49739 4.26721C6.51693 4.28674 6.5279 4.31324 6.5279 4.34087V4.3892C6.5279 4.4702 6.56008 4.54788 6.61736 4.60516C6.67463 4.66244 6.75232 4.69462 6.83332 4.69462C6.91432 4.69462 6.992 4.66244 7.04928 4.60516C7.10656 4.54788 7.13874 4.4702 7.13874 4.3892V4.31128C7.13867 4.29177 7.14597 4.27295 7.15918 4.25858C7.17239 4.24421 7.19053 4.23536 7.20999 4.23378C7.28617 4.23141 7.36107 4.21351 7.4301 4.1812C7.49913 4.14889 7.56085 4.10283 7.61147 4.04585C7.66209 3.98887 7.70056 3.92216 7.72452 3.84981C7.74848 3.77745 7.75743 3.70097 7.75082 3.62503C7.75082 3.26253 7.38832 3.01878 7.00499 2.76045C6.93415 2.71295 6.84332 2.6517 6.75957 2.59378C6.74155 2.58102 6.72805 2.56285 6.72102 2.54191C6.714 2.52097 6.71381 2.49834 6.72049 2.47729C6.72717 2.45624 6.74036 2.43785 6.75817 2.42479C6.77598 2.41173 6.79748 2.40466 6.81957 2.40462L7.44415 2.4042Z" fill="#76A4F6"/>
<path d="M8.25829 6.11991C8.96663 6.11991 9.47996 5.69158 9.47996 5.10158V1.02991C9.49273 0.893033 9.47518 0.755019 9.42855 0.625694C9.38192 0.496368 9.30735 0.378911 9.21017 0.281681C9.11297 0.184451 8.99555 0.109839 8.86624 0.0631546C8.73693 0.0164702 8.59893 -0.00113878 8.46204 0.0115809H1.53954C1.40266 -0.00113878 1.26465 0.0164702 1.13534 0.0631546C1.00604 0.109839 0.88861 0.184451 0.79142 0.281681C0.69423 0.378911 0.619666 0.496368 0.573034 0.625694C0.526403 0.755019 0.50885 0.893033 0.521626 1.02991V5.10158C0.521626 5.69158 1.03538 6.11991 1.74329 6.11991H4.28496C4.29865 6.11986 4.31222 6.12252 4.32489 6.12773C4.33755 6.13295 4.34905 6.14062 4.35874 6.1503C4.36842 6.15999 4.37609 6.17149 4.38131 6.18415C4.38652 6.19682 4.38918 6.21039 4.38913 6.22408V6.81158C4.38913 6.83921 4.37815 6.8657 4.35862 6.88524C4.33908 6.90477 4.31259 6.91575 4.28496 6.91575H2.04246C1.98646 6.91507 1.93096 6.92627 1.87961 6.9486C1.82826 6.97094 1.78222 7.00391 1.74454 7.04533L1.73871 7.05158L0.822043 7.96491L0.814126 7.97325C0.791407 8.0014 0.772881 8.0327 0.759126 8.06616C0.752466 8.08199 0.749818 8.09921 0.75142 8.1163C0.753022 8.13339 0.758823 8.14982 0.768307 8.16413C0.777791 8.17844 0.790664 8.19018 0.805782 8.19832C0.8209 8.20645 0.837793 8.21072 0.854959 8.21075H9.14496C9.16212 8.21072 9.17902 8.20645 9.19414 8.19832C9.20925 8.19018 9.22213 8.17844 9.23161 8.16413C9.2411 8.14982 9.2469 8.13339 9.2485 8.1163C9.2501 8.09921 9.24745 8.08199 9.24079 8.06616C9.22619 8.03069 9.20624 7.99767 9.18163 7.96825C9.17788 7.96367 9.17371 7.9595 9.16954 7.95533L8.27621 7.06575L8.27079 7.05991C8.23235 7.01485 8.18456 6.97868 8.13074 6.95393C8.07692 6.92918 8.01836 6.91644 7.95913 6.91658H5.71579C5.68817 6.91658 5.66167 6.90561 5.64214 6.88607C5.6226 6.86654 5.61163 6.84004 5.61163 6.81241V6.22491C5.61157 6.21122 5.61423 6.19765 5.61944 6.18499C5.62466 6.17232 5.63233 6.16082 5.64201 6.15113C5.6517 6.14145 5.6632 6.13378 5.67586 6.12856C5.68853 6.12335 5.7021 6.12069 5.71579 6.12075L8.25829 6.11991ZM1.33621 5.10158V1.02991C1.33621 0.845331 1.35496 0.826164 1.53954 0.826164H8.46204C8.64662 0.826164 8.66537 0.845331 8.66537 1.02991V5.10158C8.66537 5.24991 8.41538 5.30533 8.25829 5.30533H1.74329C1.58413 5.30533 1.33621 5.24991 1.33621 5.10158ZM0.829543 8.61783C0.801916 8.61783 0.775421 8.62881 0.755886 8.64834C0.736351 8.66788 0.725376 8.69437 0.725376 8.722V9.58075C0.725486 9.68872 0.768397 9.79224 0.844704 9.86863C0.921012 9.94501 1.02449 9.98803 1.13246 9.98825H8.86913C8.97709 9.98803 9.08057 9.94501 9.15688 9.86863C9.23319 9.79224 9.2761 9.68872 9.27621 9.58075V8.722C9.27621 8.69437 9.26523 8.66788 9.2457 8.64834C9.22616 8.62881 9.19967 8.61783 9.17204 8.61783H0.829543Z" fill="#76A4F6"/>
<path d="M3.37143 1.64087H2.55727C2.44474 1.64087 2.35352 1.73209 2.35352 1.84462V2.65879C2.35352 2.77131 2.44474 2.86254 2.55727 2.86254H3.37143C3.48396 2.86254 3.57518 2.77131 3.57518 2.65879V1.84462C3.57518 1.73209 3.48396 1.64087 3.37143 1.64087Z" fill="#76A4F6"/>
<path d="M5.00034 1.64087H4.18617C4.07364 1.64087 3.98242 1.73209 3.98242 1.84462V2.65879C3.98242 2.77131 4.07364 2.86254 4.18617 2.86254H5.00034C5.11287 2.86254 5.20409 2.77131 5.20409 2.65879V1.84462C5.20409 1.73209 5.11287 1.64087 5.00034 1.64087Z" fill="#76A4F6"/>
<path d="M3.37143 3.26953H2.55727C2.44474 3.26953 2.35352 3.36075 2.35352 3.47328V4.28745C2.35352 4.39998 2.44474 4.4912 2.55727 4.4912H3.37143C3.48396 4.4912 3.57518 4.39998 3.57518 4.28745V3.47328C3.57518 3.36075 3.48396 3.26953 3.37143 3.26953Z" fill="#76A4F6"/>
<path d="M5.00034 3.26953H4.18617C4.07364 3.26953 3.98242 3.36075 3.98242 3.47328V4.28745C3.98242 4.39998 4.07364 4.4912 4.18617 4.4912H5.00034C5.11287 4.4912 5.20409 4.39998 5.20409 4.28745V3.47328C5.20409 3.36075 5.11287 3.26953 5.00034 3.26953Z" fill="#76A4F6"/>
</svg>
