<svg width="10" height="10" viewBox="0 0 10 10" fill="none" xmlns="http://www.w3.org/2000/svg">
<path d="M5.00065 10C5.98955 9.99987 6.95621 9.7065 7.77839 9.15699C8.60056 8.60748 9.24132 7.8265 9.61964 6.91282C9.99796 5.99914 10.0968 4.99379 9.9038 4.02392C9.71075 3.05404 9.23443 2.16318 8.53507 1.46401C7.83572 0.764839 6.94475 0.28875 5.97482 0.0959496C5.00489 -0.0968509 3.99957 0.00229585 3.08598 0.380852C2.1724 0.759408 1.39159 1.40037 0.842292 2.22269C0.292992 3.04501 -0.000127897 4.01174 4.18638e-08 5.00065C0.00154157 6.32631 0.52893 7.59721 1.46644 8.53448C2.40394 9.47174 3.67498 9.9988 5.00065 10ZM4.15966 7.37547C4.14921 7.35083 4.14501 7.324 4.14744 7.29735C4.14986 7.2707 4.15884 7.24506 4.17356 7.22272C4.18829 7.20038 4.20831 7.18202 4.23184 7.16928C4.25537 7.15654 4.28169 7.14981 4.30845 7.1497H5.69284C5.7196 7.14981 5.74592 7.15654 5.76945 7.16928C5.79298 7.18202 5.813 7.20038 5.82773 7.22272C5.84245 7.24506 5.85143 7.2707 5.85385 7.29735C5.85628 7.324 5.85208 7.35083 5.84163 7.37547C5.66384 7.79866 5.42114 8.19153 5.12227 8.53991C5.10714 8.55733 5.08846 8.57129 5.06748 8.58086C5.0465 8.59042 5.02371 8.59538 5.00065 8.59538C4.97759 8.59538 4.95479 8.59042 4.93381 8.58086C4.91283 8.57129 4.89415 8.55733 4.87903 8.53991C4.57995 8.19168 4.33722 7.79877 4.15966 7.37547ZM1.1321 5.00065C1.13285 4.69939 1.16933 4.39928 1.24078 4.10661C1.24934 4.07138 1.26949 4.04004 1.298 4.01763C1.32651 3.99522 1.36172 3.98304 1.39798 3.98305H2.43304C2.45603 3.98305 2.47876 3.98794 2.49971 3.99741C2.52066 4.00689 2.53934 4.02071 2.55453 4.03798C2.56971 4.05524 2.58104 4.07554 2.58775 4.09753C2.59447 4.11952 2.59642 4.14268 2.59348 4.16548C2.55584 4.44232 2.53574 4.72127 2.53332 5.00065C2.53595 5.28004 2.55626 5.55899 2.59413 5.83581C2.59759 5.85891 2.5959 5.88248 2.58919 5.90485C2.58248 5.92721 2.57091 5.94782 2.55531 5.9652C2.54012 5.98249 2.52141 5.99634 2.50044 6.00582C2.47946 6.0153 2.45671 6.0202 2.43369 6.02018H1.39863C1.36237 6.02019 1.32715 6.00802 1.29865 5.98561C1.27014 5.9632 1.24999 5.93186 1.24143 5.89662C1.16956 5.60336 1.13286 5.30259 1.1321 5.00065ZM3.66606 5.00065C3.66763 4.70553 3.69185 4.41096 3.73852 4.11955C3.7444 4.08144 3.76376 4.0467 3.79309 4.02166C3.82241 3.99661 3.85974 3.98291 3.8983 3.98305H6.1004C6.13896 3.98291 6.1763 3.99661 6.20562 4.02166C6.23494 4.0467 6.2543 4.08144 6.26019 4.11955C6.30665 4.41098 6.33066 4.70554 6.332 5.00065C6.33064 5.29554 6.30664 5.58989 6.26019 5.8811C6.2543 5.91921 6.23494 5.95395 6.20562 5.97899C6.1763 6.00404 6.13896 6.01774 6.1004 6.0176H3.90089C3.86233 6.01774 3.82499 6.00404 3.79567 5.97899C3.76635 5.95395 3.74699 5.91921 3.7411 5.8811C3.6936 5.58997 3.66851 5.29562 3.66606 5.00065ZM4.87903 1.45879C4.89424 1.44153 4.91296 1.42771 4.93393 1.41823C4.95489 1.40875 4.97764 1.40383 5.00065 1.40381C5.02373 1.40374 5.04656 1.40868 5.06756 1.41829C5.08855 1.42789 5.10722 1.44193 5.12227 1.45944C5.42134 1.80768 5.66407 2.20058 5.84163 2.62389C5.85208 2.64852 5.85628 2.67536 5.85385 2.70201C5.85143 2.72866 5.84245 2.75429 5.82773 2.77664C5.813 2.79898 5.79298 2.81734 5.76945 2.83008C5.74592 2.84282 5.7196 2.84954 5.69284 2.84966H4.30845C4.28169 2.84954 4.25537 2.84282 4.23184 2.83008C4.20831 2.81734 4.18829 2.79898 4.17356 2.77664C4.15884 2.75429 4.14986 2.72866 4.14744 2.70201C4.14501 2.67536 4.14921 2.64852 4.15966 2.62389C4.33739 2.20047 4.5801 1.80738 4.87903 1.45879ZM8.86854 5.00065C8.86801 5.30167 8.83174 5.60156 8.76051 5.89404C8.75195 5.92927 8.7318 5.96061 8.70329 5.98302C8.67478 6.00543 8.63957 6.01761 8.60331 6.0176H7.56825C7.54527 6.01768 7.52253 6.01287 7.50155 6.00348C7.48058 5.99408 7.46184 5.98033 7.4466 5.96313C7.43136 5.94593 7.41996 5.92568 7.41316 5.90372C7.40636 5.88177 7.40432 5.85862 7.40717 5.83581C7.44458 5.55917 7.46446 5.28044 7.46668 5.00129C7.46448 4.72193 7.4446 4.44298 7.40717 4.16613C7.40371 4.14303 7.40539 4.11946 7.4121 4.0971C7.41881 4.07473 7.43038 4.05412 7.44598 4.03675C7.46117 4.01945 7.47988 4.0056 7.50085 3.99612C7.52183 3.98664 7.54458 3.98174 7.5676 3.98176H8.60266C8.63892 3.98175 8.67414 3.99393 8.70265 4.01633C8.73115 4.03874 8.75131 4.07008 8.75986 4.10532C8.83141 4.39841 8.8679 4.69895 8.86854 5.00065ZM6.96015 8.33355C6.93005 8.35111 6.8951 8.35852 6.86046 8.35469C6.82583 8.35085 6.79334 8.33598 6.76781 8.31226C6.74228 8.28854 6.72505 8.25724 6.71868 8.22298C6.71231 8.18872 6.71714 8.15332 6.73244 8.12201C6.87084 7.84353 6.98931 7.55557 7.08694 7.26032C7.09767 7.22813 7.11824 7.20012 7.14576 7.18027C7.17327 7.16042 7.20633 7.14972 7.24026 7.1497H7.89559C7.92629 7.14912 7.95653 7.1573 7.98276 7.17328C8.00898 7.18926 8.03012 7.21238 8.04369 7.23993C8.05727 7.26748 8.06271 7.29832 8.0594 7.32886C8.05608 7.35939 8.04414 7.38835 8.02497 7.41234C7.72894 7.78155 7.3681 8.09371 6.96015 8.33355ZM8.02109 2.58766C8.04046 2.61164 8.05256 2.64067 8.05599 2.6713C8.05941 2.70194 8.05401 2.73292 8.04041 2.76059C8.02681 2.78826 8.00559 2.81147 7.97925 2.82747C7.9529 2.84348 7.92253 2.85163 7.8917 2.85095H7.24026C7.20623 2.85098 7.17306 2.84023 7.14552 2.82024C7.11797 2.80025 7.09747 2.77205 7.08694 2.73968C6.9892 2.44468 6.87073 2.15695 6.73244 1.87864C6.71714 1.84733 6.71231 1.81193 6.71868 1.77767C6.72505 1.74341 6.74228 1.71211 6.76781 1.68839C6.79334 1.66467 6.82583 1.64979 6.86046 1.64596C6.8951 1.64213 6.93005 1.64954 6.96015 1.6671C7.36657 1.90724 7.72605 2.21915 8.02109 2.58766ZM3.03985 1.6671C3.06991 1.64929 3.10492 1.64169 3.13966 1.64544C3.17439 1.64919 3.20698 1.66408 3.23255 1.6879C3.25811 1.71171 3.27527 1.74317 3.28147 1.77755C3.28766 1.81193 3.28256 1.8474 3.26692 1.87864C3.12911 2.15709 3.01086 2.4448 2.91305 2.73968C2.90253 2.77205 2.88203 2.80025 2.85448 2.82024C2.82694 2.84023 2.79377 2.85098 2.75974 2.85095H2.10635C2.07581 2.85101 2.04587 2.84241 2.02 2.82615C1.99414 2.8099 1.97341 2.78665 1.96021 2.7591C1.94701 2.73156 1.94188 2.70083 1.94542 2.67049C1.94896 2.64015 1.96102 2.61143 1.9802 2.58766C2.27509 2.219 2.63459 1.90707 3.04114 1.6671H3.03985ZM1.97956 7.41234C1.96039 7.38835 1.94845 7.35939 1.94513 7.32886C1.94181 7.29832 1.94726 7.26748 1.96083 7.23993C1.9744 7.21238 1.99554 7.18926 2.02177 7.17328C2.048 7.1573 2.07823 7.14912 2.10894 7.1497H2.76103C2.79506 7.14967 2.82823 7.16042 2.85577 7.18041C2.88332 7.2004 2.90382 7.2286 2.91435 7.26097C3.01209 7.55597 3.13056 7.8437 3.26886 8.12201C3.28416 8.15332 3.28898 8.18872 3.28261 8.22298C3.27624 8.25724 3.25901 8.28854 3.23348 8.31226C3.20795 8.33598 3.17547 8.35085 3.14083 8.35469C3.10619 8.35852 3.07124 8.35111 3.04114 8.33355C2.63435 8.0934 2.27463 7.78125 1.97956 7.41234Z" fill="#76A4F7"/>
</svg>
