<svg width="10" height="10" viewBox="0 0 10 10" fill="none" xmlns="http://www.w3.org/2000/svg">
<g clip-path="url(#clip0_18931_131292)">
<path d="M3.12435 4.375H2.70768C2.59718 4.375 2.49119 4.4189 2.41305 4.49704C2.33491 4.57518 2.29102 4.68116 2.29102 4.79167C2.29102 4.90217 2.33491 5.00815 2.41305 5.08629C2.49119 5.16443 2.59718 5.20833 2.70768 5.20833H3.12435C3.23486 5.20833 3.34084 5.16443 3.41898 5.08629C3.49712 5.00815 3.54102 4.90217 3.54102 4.79167C3.54102 4.68116 3.49712 4.57518 3.41898 4.49704C3.34084 4.4189 3.23486 4.375 3.12435 4.375ZM5.20768 4.375H4.79102C4.68051 4.375 4.57453 4.4189 4.49639 4.49704C4.41825 4.57518 4.37435 4.68116 4.37435 4.79167C4.37435 4.90217 4.41825 5.00815 4.49639 5.08629C4.57453 5.16443 4.68051 5.20833 4.79102 5.20833H5.20768C5.31819 5.20833 5.42417 5.16443 5.50231 5.08629C5.58045 5.00815 5.62435 4.90217 5.62435 4.79167C5.62435 4.68116 5.58045 4.57518 5.50231 4.49704C5.42417 4.4189 5.31819 4.375 5.20768 4.375ZM7.29102 4.375H6.87435C6.76384 4.375 6.65786 4.4189 6.57972 4.49704C6.50158 4.57518 6.45768 4.68116 6.45768 4.79167C6.45768 4.90217 6.50158 5.00815 6.57972 5.08629C6.65786 5.16443 6.76384 5.20833 6.87435 5.20833H7.29102C7.40152 5.20833 7.5075 5.16443 7.58564 5.08629C7.66378 5.00815 7.70768 4.90217 7.70768 4.79167C7.70768 4.68116 7.66378 4.57518 7.58564 4.49704C7.5075 4.4189 7.40152 4.375 7.29102 4.375ZM3.12435 6.04167H2.70768C2.59718 6.04167 2.49119 6.08557 2.41305 6.16371C2.33491 6.24185 2.29102 6.34783 2.29102 6.45833C2.29102 6.56884 2.33491 6.67482 2.41305 6.75296C2.49119 6.8311 2.59718 6.875 2.70768 6.875H3.12435C3.23486 6.875 3.34084 6.8311 3.41898 6.75296C3.49712 6.67482 3.54102 6.56884 3.54102 6.45833C3.54102 6.34783 3.49712 6.24185 3.41898 6.16371C3.34084 6.08557 3.23486 6.04167 3.12435 6.04167ZM5.20768 6.04167H4.79102C4.68051 6.04167 4.57453 6.08557 4.49639 6.16371C4.41825 6.24185 4.37435 6.34783 4.37435 6.45833C4.37435 6.56884 4.41825 6.67482 4.49639 6.75296C4.57453 6.8311 4.68051 6.875 4.79102 6.875H5.20768C5.31819 6.875 5.42417 6.8311 5.50231 6.75296C5.58045 6.67482 5.62435 6.56884 5.62435 6.45833C5.62435 6.34783 5.58045 6.24185 5.50231 6.16371C5.42417 6.08557 5.31819 6.04167 5.20768 6.04167ZM7.29102 6.04167H6.87435C6.76384 6.04167 6.65786 6.08557 6.57972 6.16371C6.50158 6.24185 6.45768 6.34783 6.45768 6.45833C6.45768 6.56884 6.50158 6.67482 6.57972 6.75296C6.65786 6.8311 6.76384 6.875 6.87435 6.875H7.29102C7.40152 6.875 7.5075 6.8311 7.58564 6.75296C7.66378 6.67482 7.70768 6.56884 7.70768 6.45833C7.70768 6.34783 7.66378 6.24185 7.58564 6.16371C7.5075 6.08557 7.40152 6.04167 7.29102 6.04167ZM3.12435 7.70833H2.70768C2.59718 7.70833 2.49119 7.75223 2.41305 7.83037C2.33491 7.90851 2.29102 8.01449 2.29102 8.125C2.29102 8.23551 2.33491 8.34149 2.41305 8.41963C2.49119 8.49777 2.59718 8.54167 2.70768 8.54167H3.12435C3.23486 8.54167 3.34084 8.49777 3.41898 8.41963C3.49712 8.34149 3.54102 8.23551 3.54102 8.125C3.54102 8.01449 3.49712 7.90851 3.41898 7.83037C3.34084 7.75223 3.23486 7.70833 3.12435 7.70833ZM5.20768 7.70833H4.79102C4.68051 7.70833 4.57453 7.75223 4.49639 7.83037C4.41825 7.90851 4.37435 8.01449 4.37435 8.125C4.37435 8.23551 4.41825 8.34149 4.49639 8.41963C4.57453 8.49777 4.68051 8.54167 4.79102 8.54167H5.20768C5.31819 8.54167 5.42417 8.49777 5.50231 8.41963C5.58045 8.34149 5.62435 8.23551 5.62435 8.125C5.62435 8.01449 5.58045 7.90851 5.50231 7.83037C5.42417 7.75223 5.31819 7.70833 5.20768 7.70833ZM7.29102 7.70833H6.87435C6.76384 7.70833 6.65786 7.75223 6.57972 7.83037C6.50158 7.90851 6.45768 8.01449 6.45768 8.125C6.45768 8.23551 6.50158 8.34149 6.57972 8.41963C6.65786 8.49777 6.76384 8.54167 6.87435 8.54167H7.29102C7.40152 8.54167 7.5075 8.49777 7.58564 8.41963C7.66378 8.34149 7.70768 8.23551 7.70768 8.125C7.70768 8.01449 7.66378 7.90851 7.58564 7.83037C7.5075 7.75223 7.40152 7.70833 7.29102 7.70833Z" fill="#76A4F6"/>
<path d="M8.95898 1.25H7.81315C7.78552 1.25 7.75903 1.23903 7.73949 1.21949C7.71996 1.19996 7.70898 1.17346 7.70898 1.14583V0.416667C7.70898 0.30616 7.66509 0.200179 7.58695 0.122039C7.50881 0.0438987 7.40282 0 7.29232 0C7.18181 0 7.07583 0.0438987 6.99769 0.122039C6.91955 0.200179 6.87565 0.30616 6.87565 0.416667V2.39583C6.87565 2.47871 6.84273 2.5582 6.78412 2.6168C6.72552 2.67541 6.64603 2.70833 6.56315 2.70833C6.48027 2.70833 6.40079 2.67541 6.34218 2.6168C6.28358 2.5582 6.25065 2.47871 6.25065 2.39583V1.45833C6.25065 1.40308 6.2287 1.35009 6.18963 1.31102C6.15056 1.27195 6.09757 1.25 6.04232 1.25H3.43815C3.4106 1.25 3.38416 1.23908 3.36464 1.21964C3.34512 1.20019 3.33409 1.1738 3.33398 1.14625V0.416667C3.33398 0.30616 3.29009 0.200179 3.21195 0.122039C3.13381 0.0438987 3.02782 0 2.91732 0C2.80681 0 2.70083 0.0438987 2.62269 0.122039C2.54455 0.200179 2.50065 0.30616 2.50065 0.416667V2.39583C2.50065 2.47871 2.46773 2.5582 2.40912 2.6168C2.35052 2.67541 2.27103 2.70833 2.18815 2.70833C2.10527 2.70833 2.02579 2.67541 1.96718 2.6168C1.90858 2.5582 1.87565 2.47871 1.87565 2.39583V1.45833C1.87565 1.40308 1.8537 1.35009 1.81463 1.31102C1.77556 1.27195 1.72257 1.25 1.66732 1.25H1.04232C0.821304 1.25 0.609342 1.3378 0.453062 1.49408C0.296782 1.65036 0.208984 1.86232 0.208984 2.08333V9.16667C0.208984 9.38768 0.296782 9.59964 0.453062 9.75592C0.609342 9.9122 0.821304 10 1.04232 10H8.95898C9.18 10 9.39196 9.9122 9.54824 9.75592C9.70452 9.59964 9.79232 9.38768 9.79232 9.16667V2.08333C9.79232 1.86232 9.70452 1.65036 9.54824 1.49408C9.39196 1.3378 9.18 1.25 8.95898 1.25ZM8.95898 8.95833C8.95898 9.01359 8.93704 9.06658 8.89797 9.10565C8.8589 9.14472 8.80591 9.16667 8.75065 9.16667H1.25065C1.1954 9.16667 1.14241 9.14472 1.10334 9.10565C1.06427 9.06658 1.04232 9.01359 1.04232 8.95833V3.95833C1.04232 3.90308 1.06427 3.85009 1.10334 3.81102C1.14241 3.77195 1.1954 3.75 1.25065 3.75H8.75065C8.80591 3.75 8.8589 3.77195 8.89797 3.81102C8.93704 3.85009 8.95898 3.90308 8.95898 3.95833V8.95833Z" fill="#76A4F6"/>
</g>
<defs>
<clipPath id="clip0_18931_131292">
<rect width="10" height="10" fill="white"/>
</clipPath>
</defs>
</svg>
