<svg width="13" height="12" viewBox="0 0 13 12" fill="none" xmlns="http://www.w3.org/2000/svg">
<path d="M6.5 0C5.31331 0 4.15328 0.351894 3.16658 1.01118C2.17989 1.67047 1.41085 2.60754 0.956726 3.7039C0.5026 4.80026 0.38378 6.00666 0.615291 7.17054C0.846802 8.33443 1.41825 9.40353 2.25736 10.2426C3.09648 11.0818 4.16558 11.6532 5.32946 11.8847C6.49335 12.1162 7.69975 11.9974 8.7961 11.5433C9.89246 11.0892 10.8295 10.3201 11.4888 9.33342C12.1481 8.34673 12.5 7.18669 12.5 6C12.4983 4.40923 11.8656 2.88411 10.7407 1.75926C9.6159 0.634414 8.09077 0.00172054 6.5 0V0ZM9.656 6.361L6.9 9.272C6.85531 9.31968 6.80145 9.35786 6.74166 9.38425C6.68187 9.41064 6.61737 9.42469 6.55202 9.42558C6.48667 9.42647 6.42182 9.41417 6.36133 9.38941C6.30085 9.36465 6.24598 9.32795 6.2 9.2815L6.0525 9.1315C5.95852 9.03521 5.90418 8.9071 5.90029 8.7726C5.8964 8.6381 5.94324 8.50706 6.0315 8.4055L7.1815 7.119C7.3645 6.914 7.2895 6.746 7.0145 6.746H3.7645C3.63189 6.746 3.50472 6.69332 3.41095 6.59955C3.31718 6.50579 3.2645 6.37861 3.2645 6.246V5.746C3.2645 5.61339 3.31718 5.48621 3.41095 5.39245C3.50472 5.29868 3.63189 5.246 3.7645 5.246H7.007C7.282 5.246 7.357 5.08 7.169 4.8775L5.9835 3.5885C5.89406 3.48865 5.84599 3.3585 5.84906 3.22449C5.85212 3.09047 5.90609 2.96266 6 2.867L6.15 2.717C6.19616 2.67101 6.251 2.63467 6.31135 2.61009C6.37169 2.58552 6.43632 2.57319 6.50147 2.57385C6.56662 2.5745 6.63099 2.58811 6.69083 2.61389C6.75067 2.63967 6.80478 2.6771 6.85 2.724L9.655 5.6365C9.74709 5.73458 9.79844 5.86401 9.79862 5.99855C9.79881 6.13309 9.74782 6.26267 9.656 6.361Z" fill="white"/>
</svg>
