<svg width="10" height="10" viewBox="0 0 10 10" fill="none" xmlns="http://www.w3.org/2000/svg">
<path d="M4.66667 9.65517C4.66667 9.74662 4.63155 9.83433 4.56904 9.899C4.50652 9.96367 4.42174 10 4.33333 10H3.33333C3.24493 10 3.16014 9.96367 3.09763 9.899C3.03512 9.83433 3 9.74662 3 9.65517V8.96551C3 8.87405 2.96488 8.78634 2.90237 8.72167C2.83986 8.65701 2.75507 8.62068 2.66667 8.62068H2C1.91159 8.62068 1.82681 8.65701 1.7643 8.72167C1.70179 8.78634 1.66667 8.87405 1.66667 8.96551V9.65517C1.66667 9.74662 1.63155 9.83433 1.56904 9.899C1.50652 9.96367 1.42174 10 1.33333 10H0.333333C0.244928 10 0.160143 9.96367 0.0976311 9.899C0.035119 9.83433 0 9.74662 0 9.65517V4.48271C2.07556e-06 4.41872 0.0172136 4.356 0.049709 4.30155C0.0822044 4.24711 0.128702 4.20309 0.184 4.17443L2.184 3.13993C2.23035 3.11591 2.28149 3.10339 2.33333 3.10339C2.38518 3.10339 2.43631 3.11591 2.48267 3.13993L4.48267 4.17443C4.53796 4.20309 4.58446 4.24711 4.61696 4.30155C4.64945 4.356 4.66666 4.41872 4.66667 4.48271V9.65517ZM10 9.65517C10 9.74662 9.96488 9.83433 9.90237 9.899C9.83986 9.96367 9.75507 10 9.66667 10H6C5.91159 10 5.82681 9.96367 5.7643 9.899C5.70179 9.83433 5.66667 9.74662 5.66667 9.65517V0.344736C5.66668 0.287039 5.68069 0.23027 5.70741 0.179626C5.73413 0.128982 5.77271 0.0860839 5.81961 0.05486C5.86651 0.0236361 5.92023 0.00508498 5.97586 0.000905858C6.03148 -0.00327326 6.08723 0.00705331 6.138 0.0309395L9.80467 1.75509C9.8629 1.78249 9.91228 1.82665 9.94692 1.88229C9.98156 1.93793 9.99998 2.00271 10 2.06889V9.65517Z" fill="#76A4F6"/>
<path d="M3.33398 4.65503H1.33398C1.20138 4.65503 1.0742 4.70953 0.980431 4.80653C0.886663 4.90353 0.833984 5.03509 0.833984 5.17228C0.833984 5.30946 0.886663 5.44102 0.980431 5.53802C1.0742 5.63503 1.20138 5.68952 1.33398 5.68952H3.33398C3.46659 5.68952 3.59377 5.63503 3.68754 5.53802C3.78131 5.44102 3.83398 5.30946 3.83398 5.17228C3.83398 5.03509 3.78131 4.90353 3.68754 4.80653C3.59377 4.70953 3.46659 4.65503 3.33398 4.65503ZM3.33398 6.37918H1.33398C1.20138 6.37918 1.0742 6.43368 0.980431 6.53068C0.886663 6.62768 0.833984 6.75925 0.833984 6.89643C0.833984 7.03361 0.886663 7.16518 0.980431 7.26218C1.0742 7.35918 1.20138 7.41368 1.33398 7.41368H3.33398C3.46659 7.41368 3.59377 7.35918 3.68754 7.26218C3.78131 7.16518 3.83398 7.03361 3.83398 6.89643C3.83398 6.75925 3.78131 6.62768 3.68754 6.53068C3.59377 6.43368 3.46659 6.37918 3.33398 6.37918Z" fill="white"/>
<path d="M8.66667 4.65506H7C6.86739 4.65506 6.74022 4.70956 6.64645 4.80656C6.55268 4.90356 6.5 5.03513 6.5 5.17231C6.5 5.30949 6.55268 5.44105 6.64645 5.53806C6.74022 5.63506 6.86739 5.68955 7 5.68955H8.66667C8.79928 5.68955 8.92645 5.63506 9.02022 5.53806C9.11399 5.44105 9.16667 5.30949 9.16667 5.17231C9.16667 5.03513 9.11399 4.90356 9.02022 4.80656C8.92645 4.70956 8.79928 4.65506 8.66667 4.65506ZM8.66667 2.93091H7C6.86739 2.93091 6.74022 2.9854 6.64645 3.08241C6.55268 3.17941 6.5 3.31097 6.5 3.44815C6.5 3.58534 6.55268 3.7169 6.64645 3.8139C6.74022 3.9109 6.86739 3.9654 7 3.9654H8.66667C8.79928 3.9654 8.92645 3.9109 9.02022 3.8139C9.11399 3.7169 9.16667 3.58534 9.16667 3.44815C9.16667 3.31097 9.11399 3.17941 9.02022 3.08241C8.92645 2.9854 8.79928 2.93091 8.66667 2.93091ZM8.66667 6.37922H7C6.86739 6.37922 6.74022 6.43371 6.64645 6.53071C6.55268 6.62772 6.5 6.75928 6.5 6.89646C6.5 7.03364 6.55268 7.16521 6.64645 7.26221C6.74022 7.35921 6.86739 7.41371 7 7.41371H8.66667C8.79928 7.41371 8.92645 7.35921 9.02022 7.26221C9.11399 7.16521 9.16667 7.03364 9.16667 6.89646C9.16667 6.75928 9.11399 6.62772 9.02022 6.53071C8.92645 6.43371 8.79928 6.37922 8.66667 6.37922Z" fill="white"/>
</svg>
