<svg width="10" height="10" viewBox="0 0 10 10" fill="none" xmlns="http://www.w3.org/2000/svg">
<g clip-path="url(#clip0_18931_131336)">
<path d="M9.81224 5.40317C9.87176 5.34369 9.91898 5.27306 9.9512 5.19532C9.98342 5.11758 10 5.03425 10 4.9501C10 4.86595 9.98342 4.78262 9.9512 4.70488C9.91898 4.62714 9.87176 4.55651 9.81224 4.49703L7.76098 2.44578C7.70187 2.38454 7.63115 2.33568 7.55295 2.30207C7.47476 2.26845 7.39065 2.25074 7.30553 2.24998C7.22042 2.24921 7.13601 2.26541 7.05722 2.29762C6.97843 2.32983 6.90685 2.3774 6.84665 2.43757C6.78644 2.49774 6.73882 2.5693 6.70657 2.64807C6.67432 2.72684 6.65808 2.81124 6.65879 2.89636C6.65951 2.98147 6.67717 3.06559 6.71074 3.14381C6.74431 3.22202 6.79312 3.29277 6.85433 3.35192L8.26918 4.76882C8.31725 4.8169 8.34425 4.88211 8.34425 4.9501C8.34425 5.01809 8.31725 5.08329 8.26918 5.13138L6.85433 6.54828C6.7376 6.66921 6.67303 6.83115 6.67454 6.99922C6.67605 7.16729 6.74351 7.32805 6.86239 7.44687C6.98128 7.56568 7.14207 7.63305 7.31014 7.63446C7.47822 7.63588 7.64012 7.57122 7.76098 7.45442L9.81224 5.40317ZM3.14567 2.44578C3.08618 2.38617 3.01552 2.33889 2.93773 2.30662C2.85994 2.27436 2.77656 2.25776 2.69234 2.25776C2.60813 2.25776 2.52474 2.27436 2.44696 2.30662C2.36917 2.33889 2.29851 2.38617 2.23902 2.44578L0.187765 4.49703C0.128239 4.55651 0.0810179 4.62714 0.0488002 4.70488C0.0165826 4.78262 0 4.86595 0 4.9501C0 5.03425 0.0165826 5.11758 0.0488002 5.19532C0.0810179 5.27306 0.128239 5.34369 0.187765 5.40317L2.23902 7.45442C2.29813 7.51566 2.36885 7.56451 2.44705 7.59813C2.52524 7.63175 2.60935 7.64945 2.69447 7.65022C2.77958 7.65098 2.86399 7.63479 2.94278 7.60258C3.02157 7.57037 3.09315 7.52279 3.15335 7.46262C3.21356 7.40245 3.26118 7.33089 3.29343 7.25213C3.32568 7.17336 3.34193 7.08895 3.34121 7.00384C3.34049 6.91872 3.32283 6.83461 3.28926 6.75639C3.25569 6.67817 3.20688 6.60743 3.14567 6.54828L1.72877 5.13138C1.6807 5.08329 1.6537 5.01809 1.6537 4.9501C1.6537 4.88211 1.6807 4.8169 1.72877 4.76882L3.14567 3.35192C3.2052 3.29243 3.25242 3.22181 3.28463 3.14407C3.31685 3.06633 3.33343 2.983 3.33343 2.89885C3.33343 2.8147 3.31685 2.73137 3.28463 2.65363C3.25242 2.57589 3.2052 2.50526 3.14567 2.44578ZM4.34822 7.88364C4.39404 7.89363 4.4408 7.89862 4.4877 7.89851C4.63342 7.89832 4.77474 7.84857 4.88843 7.75742C5.00213 7.66628 5.08144 7.53917 5.11333 7.39698L6.13896 2.78167C6.17588 2.61533 6.14522 2.44114 6.05371 2.29741C5.96221 2.15369 5.81735 2.0522 5.65102 2.01527C5.48468 1.97834 5.31049 2.00901 5.16676 2.10051C5.02303 2.19202 4.92154 2.33688 4.88462 2.50321L3.85899 7.11853C3.84086 7.20089 3.83913 7.28602 3.85391 7.36905C3.86868 7.45208 3.89967 7.53138 3.9451 7.60243C3.99053 7.67348 4.04952 7.73489 4.11868 7.78314C4.18785 7.83139 4.26585 7.86554 4.34822 7.88364Z" fill="#76A4F6"/>
</g>
<defs>
<clipPath id="clip0_18931_131336">
<rect width="10" height="10" fill="white"/>
</clipPath>
</defs>
</svg>
