<svg width="10" height="10" viewBox="0 0 10 10" fill="none" xmlns="http://www.w3.org/2000/svg">
<g clip-path="url(#clip0_18931_131342)">
<path d="M5.20898 3.95833C4.68815 3.4375 4.37565 2.29167 4.16732 1.66667C3.95898 1.04167 4.16732 0.416668 5.00065 0.625001C5.83398 0.833335 6.97982 1.14583 7.29232 1.45833L8.36607 2.53209C8.38064 2.54669 8.39921 2.55664 8.41945 2.56068C8.43968 2.56471 8.46065 2.56265 8.47971 2.55475C8.49876 2.54685 8.51505 2.53347 8.52649 2.5163C8.53793 2.49914 8.54402 2.47896 8.54398 2.45834V1.04167C8.54398 0.904734 8.51699 0.769144 8.46453 0.642654C8.41208 0.516165 8.3352 0.401258 8.2383 0.304509C8.14139 0.207759 8.02637 0.131065 7.89979 0.0788146C7.77322 0.0265641 7.63759 -0.000217761 7.50065 1.33345e-06H2.50065C2.22438 1.33345e-06 1.95943 0.109748 1.76408 0.305098C1.56873 0.500449 1.45898 0.765401 1.45898 1.04167V7.5C1.45898 7.6368 1.48593 7.77225 1.53828 7.89863C1.59063 8.02501 1.66735 8.13984 1.76408 8.23657C1.86081 8.3333 1.97564 8.41003 2.10202 8.46238C2.2284 8.51473 2.36386 8.54167 2.50065 8.54167H5.7044C5.73204 8.54167 5.75855 8.5526 5.77815 8.57209L6.93648 9.73084C6.95587 9.75017 6.97887 9.76549 7.00418 9.77593C7.02949 9.78637 7.05661 9.79172 7.08398 9.79167C7.11131 9.79178 7.13837 9.7864 7.16357 9.77584C7.20167 9.76009 7.23424 9.73339 7.25716 9.69912C7.28007 9.66486 7.29231 9.62456 7.29232 9.58334V8.64584C7.29232 8.61821 7.30329 8.59171 7.32283 8.57218C7.34236 8.55264 7.36886 8.54167 7.39648 8.54167H7.50815C7.64494 8.54167 7.7804 8.51473 7.90678 8.46238C8.03316 8.41003 8.14799 8.3333 8.24472 8.23657C8.34145 8.13984 8.41818 8.02501 8.47053 7.89863C8.52287 7.77225 8.54982 7.6368 8.54982 7.5V7.34334C8.54967 7.31585 8.53875 7.28952 8.5194 7.27L5.20898 3.95833ZM5.42607 6.04167C5.50895 6.04167 5.58843 6.07459 5.64704 6.1332C5.70564 6.1918 5.73857 6.27129 5.73857 6.35417C5.73857 6.43705 5.70564 6.51653 5.64704 6.57514C5.58843 6.63374 5.50895 6.66667 5.42607 6.66667H2.91732C2.83444 6.66667 2.75495 6.63374 2.69635 6.57514C2.63774 6.51653 2.60482 6.43705 2.60482 6.35417C2.60482 6.27129 2.63774 6.1918 2.69635 6.1332C2.75495 6.07459 2.83444 6.04167 2.91732 6.04167H5.42607ZM4.17607 4.27083C4.25895 4.27083 4.33843 4.30376 4.39704 4.36236C4.45564 4.42097 4.48857 4.50045 4.48857 4.58333C4.48857 4.66622 4.45564 4.7457 4.39704 4.80431C4.33843 4.86291 4.25895 4.89583 4.17607 4.89583H2.91732C2.83444 4.89583 2.75495 4.86291 2.69635 4.80431C2.63774 4.7457 2.60482 4.66622 2.60482 4.58333C2.60482 4.50045 2.63774 4.42097 2.69635 4.36236C2.75495 4.30376 2.83444 4.27083 2.91732 4.27083H4.17607Z" fill="#76A4F6"/>
<path d="M4.58333 9.16658H1.25C1.13949 9.16658 1.03351 9.12268 0.955372 9.04454C0.877232 8.9664 0.833333 8.86042 0.833333 8.74992V2.08325C0.833333 1.97274 0.789435 1.86676 0.711295 1.78862C0.633154 1.71048 0.527174 1.66658 0.416667 1.66658C0.30616 1.66658 0.200179 1.71048 0.122039 1.78862C0.0438987 1.86676 0 1.97274 0 2.08325L0 8.74992C0 9.08144 0.131696 9.39938 0.366117 9.6338C0.600537 9.86822 0.918479 9.99992 1.25 9.99992H4.58333C4.69384 9.99992 4.79982 9.95602 4.87796 9.87788C4.9561 9.79974 5 9.69376 5 9.58325C5 9.47274 4.9561 9.36676 4.87796 9.28862C4.79982 9.21048 4.69384 9.16658 4.58333 9.16658ZM6.28708 1.56658C6.27795 1.53147 6.2598 1.49936 6.23445 1.47341C6.20909 1.44747 6.17739 1.4286 6.1425 1.41867L4.85083 1.0495C4.81512 1.03931 4.77733 1.03885 4.74138 1.04817C4.70543 1.0575 4.67262 1.07626 4.64636 1.10252C4.6201 1.12879 4.60133 1.16159 4.59201 1.19754C4.58269 1.23349 4.58314 1.27128 4.59333 1.307L4.9625 2.59867C4.9725 2.63348 4.99139 2.66509 5.01733 2.69037C5.04327 2.71565 5.07536 2.73373 5.11042 2.74283C5.12739 2.74746 5.1449 2.74984 5.1625 2.74992C5.18991 2.74991 5.21704 2.7445 5.24235 2.73399C5.26766 2.72348 5.29065 2.70808 5.31 2.68867L6.23292 1.76575C6.25847 1.74012 6.2769 1.70827 6.2864 1.67335C6.2959 1.63842 6.29613 1.60163 6.28708 1.56658ZM9.07292 4.2795C9.11197 4.24043 9.13391 4.18745 9.13391 4.13221C9.13391 4.07697 9.11197 4.02398 9.07292 3.98492L6.985 1.89742C6.94593 1.85836 6.89295 1.83642 6.83771 1.83642C6.78247 1.83642 6.72949 1.85836 6.69042 1.89742L5.44042 3.14742C5.40136 3.18648 5.37942 3.23946 5.37942 3.29471C5.37942 3.34995 5.40136 3.40293 5.44042 3.442L7.52833 5.5295C7.5674 5.56856 7.62038 5.5905 7.67562 5.5905C7.73087 5.5905 7.78385 5.56856 7.82292 5.5295L9.07292 4.2795ZM9.66125 4.57367C9.62853 4.5413 9.58601 4.52067 9.54032 4.51502C9.49464 4.50937 9.44838 4.519 9.40875 4.54242C9.39351 4.55123 9.3795 4.56202 9.36708 4.5745L8.11708 5.8245C8.08067 5.86983 8.06249 5.92713 8.06611 5.98517C8.06973 6.0432 8.09489 6.0978 8.13667 6.13825C8.23781 6.24011 8.35818 6.32085 8.4908 6.37578C8.62341 6.43072 8.76562 6.45875 8.90917 6.45825C8.93375 6.45825 8.95875 6.45825 8.98333 6.45533C9.24684 6.43823 9.49503 6.32547 9.68125 6.13825C9.7835 6.03466 9.86416 5.91179 9.91856 5.77679C9.97295 5.64178 10 5.49732 9.99815 5.35178C9.99629 5.20624 9.96555 5.06251 9.90772 4.92894C9.84989 4.79537 9.76611 4.67461 9.66125 4.57367Z" fill="#76A4F6"/>
</g>
<defs>
<clipPath id="clip0_18931_131342">
<rect width="10" height="10" fill="white"/>
</clipPath>
</defs>
</svg>
