<svg width="10" height="10" viewBox="0 0 10 10" fill="none" xmlns="http://www.w3.org/2000/svg">
<path d="M8.95769 7.09756C8.95771 7.07785 8.95213 7.05853 8.94161 7.04186C8.93109 7.02519 8.91605 7.01185 8.89825 7.00338C8.88045 6.99492 8.86061 6.99168 8.84103 6.99404C8.82146 6.9964 8.80296 7.00427 8.78769 7.01673C7.9806 7.67381 6.45769 8.02089 4.99935 8.02089C3.54102 8.02089 2.01768 7.67381 1.2106 7.01673C1.19537 7.00422 1.17689 6.99631 1.15732 6.99393C1.13776 6.99154 1.11792 6.99478 1.10012 7.00326C1.08233 7.01174 1.06732 7.02511 1.05686 7.04181C1.04639 7.05851 1.04089 7.07785 1.04102 7.09756V7.81256C1.04102 8.73339 2.81352 9.47923 4.99935 9.47923C7.18519 9.47923 8.95769 8.73339 8.95769 7.81256V7.09756Z" fill="#76A4F6"/>
<path d="M1.04102 5.93756C1.04102 6.85839 2.81352 7.60423 4.99935 7.60423C7.18519 7.60423 8.95769 6.85839 8.95769 5.93756V5.22256C8.95771 5.20285 8.95213 5.18353 8.94161 5.16686C8.93109 5.15019 8.91605 5.13685 8.89825 5.12838C8.88045 5.11991 8.86061 5.11668 8.84103 5.11904C8.82146 5.1214 8.80296 5.12927 8.78769 5.14173C7.9806 5.79881 6.45769 6.14589 4.99935 6.14589C3.54102 6.14589 2.01768 5.79881 1.2106 5.14173C1.19537 5.12922 1.17689 5.12131 1.15732 5.11893C1.13776 5.11654 1.11792 5.11978 1.10012 5.12826C1.08233 5.13674 1.06732 5.15011 1.05686 5.16681C1.04639 5.18351 1.04089 5.20285 1.04102 5.22256V5.93756Z" fill="#76A4F6"/>
<path d="M4.99935 4.27082C3.54102 4.27082 2.01768 3.92374 1.2106 3.26624C1.19537 3.25373 1.17689 3.24582 1.15732 3.24344C1.13776 3.24105 1.11792 3.24429 1.10012 3.25277C1.08233 3.26125 1.06732 3.27463 1.05686 3.29133C1.04639 3.30803 1.04089 3.32736 1.04102 3.34707V4.06249C1.04102 4.98332 2.81352 5.72916 4.99935 5.72916C7.18519 5.72916 8.95769 4.98332 8.95769 4.06249V3.34749C8.95763 3.32781 8.952 3.30855 8.94144 3.29194C8.93089 3.27533 8.91585 3.26205 8.89806 3.25364C8.88027 3.24522 8.86047 3.24202 8.84093 3.2444C8.8214 3.24677 8.80294 3.25464 8.78769 3.26707C7.98019 3.92416 6.45769 4.27082 4.99935 4.27082Z" fill="#76A4F6"/>
<path d="M4.99935 3.85409C7.18548 3.85409 8.95768 3.10789 8.95768 2.18742C8.95768 1.26694 7.18548 0.520752 4.99935 0.520752C2.81322 0.520752 1.04102 1.26694 1.04102 2.18742C1.04102 3.10789 2.81322 3.85409 4.99935 3.85409Z" fill="#76A4F6"/>
</svg>
