<svg width="5" height="5" viewBox="0 0 5 5" fill="none" xmlns="http://www.w3.org/2000/svg">
<path d="M4.89579 2.1875C4.89579 2.13224 4.87384 2.07925 4.83477 2.04018C4.7957 2.00111 4.74271 1.97916 4.68746 1.97916H3.49225C3.48312 1.97914 3.47415 1.97672 3.46625 1.97214C3.45834 1.96757 3.45178 1.96099 3.44722 1.95307C3.44267 1.94516 3.44027 1.93619 3.44027 1.92705C3.44028 1.91792 3.44268 1.90895 3.44725 1.90104L4.04475 0.866037C4.07238 0.818187 4.07986 0.761323 4.06556 0.707954C4.05126 0.654584 4.01635 0.609081 3.9685 0.581453L3.42683 0.268953C3.37898 0.241328 3.32212 0.233842 3.26875 0.248141C3.21538 0.262441 3.16988 0.297355 3.14225 0.345203L2.54517 1.37958C2.54057 1.38749 2.53397 1.39406 2.52604 1.39862C2.5181 1.40319 2.50911 1.40559 2.49996 1.40559C2.49081 1.40559 2.48181 1.40319 2.47388 1.39862C2.46595 1.39406 2.45935 1.38749 2.45475 1.37958L1.85725 0.344578C1.82962 0.29673 1.78412 0.261816 1.73075 0.247516C1.67738 0.233217 1.62052 0.240703 1.57267 0.268328L1.031 0.580828C0.983152 0.608456 0.948238 0.653959 0.933939 0.707329C0.919639 0.760698 0.927126 0.817562 0.954751 0.865412L1.55267 1.90041C1.55723 1.90832 1.55964 1.91729 1.55965 1.92643C1.55965 1.93556 1.55725 1.94454 1.55269 1.95245C1.54814 1.96036 1.54158 1.96694 1.53367 1.97152C1.52577 1.9761 1.5168 1.97852 1.50767 1.97854H0.312459C0.257206 1.97854 0.204215 2.00049 0.165145 2.03956C0.126075 2.07863 0.104126 2.13162 0.104126 2.18687V2.81187C0.104126 2.86712 0.126075 2.92011 0.165145 2.95918C0.204215 2.99825 0.257206 3.0202 0.312459 3.0202H1.50767C1.5168 3.02022 1.52577 3.02264 1.53367 3.02722C1.54158 3.0318 1.54814 3.03838 1.55269 3.04629C1.55725 3.05421 1.55965 3.06318 1.55965 3.07231C1.55964 3.08145 1.55723 3.09042 1.55267 3.09833L0.955168 4.13333C0.927542 4.18118 0.920056 4.23804 0.934355 4.29141C0.948655 4.34478 0.983569 4.39028 1.03142 4.41791L1.57308 4.73041C1.62093 4.75804 1.6778 4.76552 1.73117 4.75122C1.78454 4.73692 1.83004 4.70201 1.85767 4.65416L2.45517 3.61916C2.45977 3.61125 2.46636 3.60468 2.4743 3.60012C2.48223 3.59555 2.49122 3.59315 2.50038 3.59315C2.50953 3.59315 2.51852 3.59555 2.52645 3.60012C2.53439 3.60468 2.54098 3.61125 2.54558 3.61916L3.14308 4.65416C3.17071 4.70201 3.21622 4.73692 3.26958 4.75122C3.32295 4.76552 3.37982 4.75804 3.42767 4.73041L3.96933 4.41791C4.01718 4.39028 4.0521 4.34478 4.0664 4.29141C4.0807 4.23804 4.07321 4.18118 4.04558 4.13333L3.44808 3.09833C3.44352 3.09042 3.44111 3.08145 3.44111 3.07231C3.4411 3.06318 3.4435 3.05421 3.44806 3.04629C3.45262 3.03838 3.45918 3.0318 3.46708 3.02722C3.47498 3.02264 3.48395 3.02022 3.49308 3.0202H4.68746C4.74271 3.0202 4.7957 2.99825 4.83477 2.95918C4.87384 2.92011 4.89579 2.86712 4.89579 2.81187V2.1875Z" fill="#FF6767"/>
</svg>
