<svg width="8" height="5" viewBox="0 0 8 5" fill="none" xmlns="http://www.w3.org/2000/svg">
<path d="M3.73056 4.87249C3.76593 4.91291 3.80793 4.94498 3.85416 4.96686C3.90039 4.98874 3.94995 5 4 5C4.05005 5 4.09961 4.98874 4.14584 4.96686C4.19207 4.94498 4.23407 4.91291 4.26944 4.87249L7.88828 0.742106C7.94161 0.681327 7.97794 0.603851 7.99266 0.51949C8.00739 0.43513 7.99984 0.34768 7.97099 0.268214C7.94214 0.188749 7.89328 0.120843 7.83059 0.0730963C7.7679 0.0253499 7.69421 -8.93609e-05 7.61884 2.35856e-07H7.0477C6.99768 -5.91699e-05 6.94814 0.0111316 6.90191 0.0329332C6.85568 0.0547347 6.81366 0.0867197 6.77826 0.127061L4.14279 3.13554C4.12405 3.15697 4.1018 3.17398 4.07729 3.18558C4.05279 3.19719 4.02653 3.20316 4 3.20316C3.97347 3.20316 3.94721 3.19719 3.9227 3.18558C3.8982 3.17398 3.87595 3.15697 3.85721 3.13554L1.22174 0.127061C1.18634 0.0867197 1.14432 0.0547347 1.09809 0.0329332C1.05186 0.0111316 1.00232 -5.91699e-05 0.952299 2.35856e-07H0.381158C0.305793 -8.93609e-05 0.232099 0.0253499 0.169411 0.0730963C0.106722 0.120843 0.0578576 0.188749 0.029006 0.268214C0.000154442 0.34768 -0.00738647 0.43513 0.00733813 0.51949C0.0220627 0.603851 0.0583905 0.681327 0.111721 0.742106L3.73056 4.87249Z" fill="#2266E2"/>
</svg>
