<svg width="10" height="10" viewBox="0 0 10 10" fill="none" xmlns="http://www.w3.org/2000/svg">
<g clip-path="url(#clip0_18931_131312)">
<path d="M9.95333 2.43002C9.93941 2.4241 9.92403 2.42249 9.90918 2.42539C9.89433 2.42828 9.88068 2.43555 9.87 2.44627L5.80875 6.50668C5.59388 6.72143 5.30253 6.84206 4.99875 6.84206C4.69497 6.84206 4.40362 6.72143 4.18875 6.50668L0.129167 2.44627C0.118546 2.43546 0.104898 2.42812 0.0900216 2.42521C0.0751456 2.42231 0.0597397 2.42399 0.0458341 2.43002C0.0321703 2.4359 0.0205394 2.44568 0.0123898 2.45812C0.00424008 2.47057 -6.83782e-05 2.48514 8.20649e-07 2.50002V7.50002C8.20649e-07 7.72103 0.0877982 7.93299 0.244078 8.08927C0.400359 8.24555 0.61232 8.33335 0.833334 8.33335H9.16667C9.38768 8.33335 9.59964 8.24555 9.75592 8.08927C9.9122 7.93299 10 7.72103 10 7.50002V2.50002C10.0001 2.48503 9.99565 2.47037 9.98733 2.45791C9.97902 2.44544 9.96719 2.43573 9.95333 2.43002Z" fill="#76A4F6"/>
<path d="M4.63159 6.06508C4.72938 6.16258 4.86183 6.21733 4.99992 6.21733C5.13801 6.21733 5.27047 6.16258 5.36826 6.06508L9.40409 2.02925C9.43141 2.00192 9.45059 1.96754 9.4595 1.92994C9.4684 1.89234 9.46667 1.85301 9.4545 1.81633C9.40867 1.67925 9.28117 1.66675 9.167 1.66675H0.833672C0.719089 1.66675 0.590756 1.67925 0.545756 1.81633C0.533588 1.85301 0.531859 1.89234 0.540762 1.92994C0.549666 1.96754 0.56885 2.00192 0.596172 2.02925L4.63159 6.06508Z" fill="#76A4F6"/>
</g>
<defs>
<clipPath id="clip0_18931_131312">
<rect width="10" height="10" fill="white"/>
</clipPath>
</defs>
</svg>
