<svg width="10" height="10" viewBox="0 0 10 10" fill="none" xmlns="http://www.w3.org/2000/svg">
<g clip-path="url(#clip0_18931_131310)">
<path d="M5 0C4.0111 0 3.0444 0.293245 2.22215 0.842652C1.39991 1.39206 0.759043 2.17295 0.380605 3.08658C0.00216643 4.00021 -0.0968503 5.00555 0.0960758 5.97545C0.289002 6.94536 0.765206 7.83627 1.46447 8.53553C2.16373 9.2348 3.05465 9.711 4.02455 9.90392C4.99446 10.0969 5.99979 9.99783 6.91342 9.6194C7.82705 9.24096 8.60794 8.6001 9.15735 7.77785C9.70676 6.95561 10 5.98891 10 5C9.99857 3.67436 9.47132 2.40342 8.53395 1.46605C7.59658 0.528678 6.32564 0.00143378 5 0V0ZM3.125 2.91667C3.39559 2.92319 3.65773 3.01225 3.8763 3.17191C4.09486 3.33157 4.25942 3.55421 4.34792 3.81C4.3674 3.86116 4.37661 3.91566 4.37503 3.97038C4.37345 4.0251 4.3611 4.07897 4.3387 4.12892C4.3163 4.17887 4.28428 4.22392 4.24446 4.2615C4.20465 4.29907 4.15783 4.32844 4.10667 4.34792C4.05551 4.3674 4.00101 4.37661 3.94629 4.37503C3.89157 4.37344 3.8377 4.3611 3.78775 4.3387C3.7378 4.3163 3.69275 4.28427 3.65517 4.24446C3.6176 4.20465 3.58823 4.15783 3.56875 4.10667C3.53949 4.00934 3.48142 3.92317 3.40221 3.8595C3.32299 3.79583 3.22634 3.75765 3.125 3.75C3.02366 3.75765 2.92701 3.79583 2.8478 3.8595C2.76858 3.92317 2.71052 4.00934 2.68125 4.10667C2.64191 4.20999 2.56314 4.29345 2.46226 4.3387C2.36138 4.38394 2.24666 4.38726 2.14334 4.34792C2.04001 4.30858 1.95655 4.2298 1.9113 4.12892C1.86606 4.02804 1.86275 3.91332 1.90209 3.81C1.99059 3.55421 2.15514 3.33157 2.37371 3.17191C2.59227 3.01225 2.85441 2.92319 3.125 2.91667ZM3.10584 6.24708C3.15166 6.21718 3.20293 6.19659 3.25671 6.1865C3.31049 6.17641 3.36573 6.17701 3.41928 6.18827C3.47283 6.19953 3.52364 6.22123 3.5688 6.25212C3.61397 6.28302 3.6526 6.32251 3.6825 6.36833C3.82515 6.58785 4.02039 6.76824 4.25048 6.89312C4.48056 7.018 4.73821 7.08342 5 7.08342C5.2618 7.08342 5.51944 7.018 5.74953 6.89312C5.97961 6.76824 6.17485 6.58785 6.3175 6.36833C6.37789 6.27573 6.4726 6.21091 6.58078 6.18813C6.68897 6.16535 6.80177 6.18648 6.89438 6.24687C6.98698 6.30727 7.0518 6.40197 7.07458 6.51016C7.09736 6.61834 7.07623 6.73114 7.01584 6.82375C6.79736 7.15933 6.49856 7.43505 6.14654 7.62592C5.79453 7.81678 5.40043 7.91675 5 7.91675C4.59957 7.91675 4.20548 7.81678 3.85346 7.62592C3.50145 7.43505 3.20265 7.15933 2.98417 6.82375C2.95428 6.7779 2.93372 6.72661 2.92366 6.67281C2.9136 6.61901 2.91424 6.56376 2.92554 6.51021C2.93684 6.45666 2.95858 6.40586 2.98951 6.36071C3.02045 6.31556 3.05997 6.27695 3.10584 6.24708ZM7.52709 4.10667C7.49782 4.00934 7.43975 3.92317 7.36054 3.8595C7.28132 3.79583 7.18468 3.75765 7.08334 3.75C6.98199 3.75765 6.88535 3.79583 6.80613 3.8595C6.72692 3.92317 6.66885 4.00934 6.63959 4.10667C6.62011 4.15783 6.59074 4.20465 6.55317 4.24446C6.51559 4.28427 6.47054 4.3163 6.42059 4.3387C6.37064 4.3611 6.31677 4.37344 6.26205 4.37503C6.20733 4.37661 6.15283 4.3674 6.10167 4.34792C6.05051 4.32844 6.00368 4.29907 5.96387 4.2615C5.92406 4.22392 5.89204 4.17887 5.86964 4.12892C5.84724 4.07897 5.83489 4.0251 5.83331 3.97038C5.83173 3.91566 5.84094 3.86116 5.86042 3.81C5.94322 3.55068 6.10631 3.3244 6.32613 3.16384C6.54595 3.00328 6.81112 2.91675 7.08334 2.91675C7.35555 2.91675 7.62072 3.00328 7.84054 3.16384C8.06036 3.3244 8.22345 3.55068 8.30625 3.81C8.34559 3.91332 8.34228 4.02804 8.29703 4.12892C8.25179 4.2298 8.16833 4.30858 8.065 4.34792C7.96168 4.38726 7.84696 4.38394 7.74608 4.3387C7.6452 4.29345 7.56643 4.20999 7.52709 4.10667Z" fill="#76A4F6"/>
</g>
<defs>
<clipPath id="clip0_18931_131310">
<rect width="10" height="10" fill="white"/>
</clipPath>
</defs>
</svg>
