<svg width="10" height="10" viewBox="0 0 10 10" fill="none" xmlns="http://www.w3.org/2000/svg">
<g clip-path="url(#clip0_18931_131289)">
<path d="M8.95898 1.25H7.81315C7.78552 1.25 7.75903 1.23903 7.73949 1.21949C7.71996 1.19996 7.70898 1.17346 7.70898 1.14583V0.416667C7.70898 0.30616 7.66509 0.200179 7.58695 0.122039C7.50881 0.0438987 7.40282 0 7.29232 0C7.18181 0 7.07583 0.0438987 6.99769 0.122039C6.91955 0.200179 6.87565 0.30616 6.87565 0.416667V2.39583C6.87565 2.47871 6.84273 2.5582 6.78412 2.6168C6.72552 2.67541 6.64603 2.70833 6.56315 2.70833C6.48027 2.70833 6.40079 2.67541 6.34218 2.6168C6.28358 2.5582 6.25065 2.47871 6.25065 2.39583V1.45833C6.25065 1.40308 6.2287 1.35009 6.18963 1.31102C6.15056 1.27195 6.09757 1.25 6.04232 1.25H3.43815C3.4106 1.25 3.38416 1.23908 3.36464 1.21964C3.34512 1.20019 3.33409 1.1738 3.33398 1.14625V0.416667C3.33398 0.30616 3.29009 0.200179 3.21195 0.122039C3.13381 0.0438987 3.02782 0 2.91732 0C2.80681 0 2.70083 0.0438987 2.62269 0.122039C2.54455 0.200179 2.50065 0.30616 2.50065 0.416667V2.39583C2.50065 2.47871 2.46773 2.5582 2.40912 2.6168C2.35052 2.67541 2.27103 2.70833 2.18815 2.70833C2.10527 2.70833 2.02579 2.67541 1.96718 2.6168C1.90858 2.5582 1.87565 2.47871 1.87565 2.39583V1.45833C1.87565 1.40308 1.8537 1.35009 1.81463 1.31102C1.77556 1.27195 1.72257 1.25 1.66732 1.25H1.04232C0.821304 1.25 0.609342 1.3378 0.453062 1.49408C0.296782 1.65036 0.208984 1.86232 0.208984 2.08333V9.16667C0.208984 9.38768 0.296782 9.59964 0.453062 9.75592C0.609342 9.9122 0.821304 10 1.04232 10H8.95898C9.18 10 9.39196 9.9122 9.54824 9.75592C9.70452 9.59964 9.79232 9.38768 9.79232 9.16667V2.08333C9.79232 1.86232 9.70452 1.65036 9.54824 1.49408C9.39196 1.3378 9.18 1.25 8.95898 1.25ZM8.75065 9.16667H1.25065C1.1954 9.16667 1.14241 9.14472 1.10334 9.10565C1.06427 9.06658 1.04232 9.01359 1.04232 8.95833V3.95833C1.04232 3.90308 1.06427 3.85009 1.10334 3.81102C1.14241 3.77195 1.1954 3.75 1.25065 3.75H8.75065C8.80591 3.75 8.8589 3.77195 8.89797 3.81102C8.93704 3.85009 8.95898 3.90308 8.95898 3.95833V8.95833C8.95898 9.01359 8.93704 9.06658 8.89797 9.10565C8.8589 9.14472 8.80591 9.16667 8.75065 9.16667Z" fill="#76A4F6"/>
</g>
<defs>
<clipPath id="clip0_18931_131289">
<rect width="10" height="10" fill="white"/>
</clipPath>
</defs>
</svg>
