<svg width="10" height="10" viewBox="0 0 10 10" fill="none" xmlns="http://www.w3.org/2000/svg">
<path d="M5.83203 3.10606C5.83203 3.20653 5.87194 3.30287 5.94298 3.37391C6.01401 3.44494 6.11036 3.48485 6.21082 3.48485H8.029C8.06136 3.48486 8.09318 3.47658 8.12143 3.4608C8.14968 3.44502 8.17341 3.42226 8.19037 3.3947C8.20745 3.36732 8.21719 3.33599 8.21865 3.30375C8.22011 3.2715 8.21324 3.23943 8.1987 3.21061C8.10574 3.01567 7.9825 2.83669 7.83355 2.68031L6.63582 1.47879C6.47917 1.33038 6.30023 1.20742 6.10552 1.1144C6.07672 1.0999 6.04469 1.09302 6.01248 1.09442C5.98027 1.09581 5.94896 1.10545 5.92153 1.12239C5.8941 1.13933 5.87147 1.16302 5.85581 1.1912C5.84014 1.21938 5.83195 1.2511 5.83203 1.28334V3.10606Z" fill="#76A4F6"/>
<path d="M6.21147 4.24234C5.91009 4.24234 5.62105 4.12262 5.40794 3.90951C5.19483 3.6964 5.07511 3.40736 5.07511 3.10598V1.02189C5.07491 0.971789 5.05486 0.923811 5.01937 0.888456C4.98387 0.853101 4.93581 0.833252 4.88571 0.833252H2.80238C2.501 0.833252 2.21196 0.952976 1.99885 1.16609C1.78574 1.37919 1.66602 1.66823 1.66602 1.96962V8.03022C1.66602 8.3316 1.78574 8.62064 1.99885 8.83375C2.21196 9.04686 2.501 9.16659 2.80238 9.16659H7.34783C7.64922 9.16659 7.93825 9.04686 8.15136 8.83375C8.36447 8.62064 8.4842 8.3316 8.4842 8.03022V4.24234H6.21147Z" fill="#76A4F6"/>
</svg>
