<svg width="18" height="17" viewBox="0 0 18 17" fill="none" xmlns="http://www.w3.org/2000/svg">
<g filter="url(#filter0_d_18931_131229)">
<path d="M12.3839 8.04393C12.3839 8.10003 12.4062 8.15382 12.4458 8.19349C12.4855 8.23315 12.5393 8.25543 12.5954 8.25543H13.7886C13.8233 8.25541 13.8574 8.24688 13.888 8.23059C13.9185 8.2143 13.9446 8.19075 13.964 8.16202C13.9833 8.13328 13.9953 8.10023 13.9989 8.06577C14.0024 8.03132 13.9975 7.99651 13.9845 7.96441C13.859 7.65075 13.6514 7.37664 13.3834 7.17086C13.1155 6.96507 12.7971 6.83519 12.4617 6.79483C12.4266 6.7906 12.391 6.79522 12.3582 6.80828C12.3254 6.82135 12.2963 6.84243 12.2737 6.86961C12.2511 6.89678 12.2357 6.92919 12.2289 6.96386C12.222 6.99853 12.224 7.03436 12.2346 7.06809C12.3335 7.38391 12.3839 7.71296 12.3839 8.04393ZM5.9827 7.0499C5.99288 7.01821 5.99544 6.98457 5.99017 6.9517C5.98491 6.91884 5.97196 6.88768 5.95238 6.86077C5.9328 6.83385 5.90714 6.81194 5.8775 6.7968C5.84785 6.78167 5.81506 6.77375 5.78177 6.77368H5.7767C5.39778 6.77387 5.02759 6.8874 4.71371 7.09967C4.39983 7.31194 4.15662 7.61324 4.01535 7.96483C4.0024 7.99694 3.99753 8.03174 4.00117 8.06617C4.00481 8.10061 4.01685 8.13362 4.03623 8.16231C4.05561 8.191 4.08174 8.2145 4.11232 8.23073C4.1429 8.24697 4.17699 8.25545 4.21162 8.25543H5.61596C5.67205 8.25543 5.72585 8.23315 5.76551 8.19349C5.80517 8.15382 5.82746 8.10003 5.82746 8.04393C5.8273 7.70654 5.87968 7.37118 5.9827 7.0499Z" fill="#76A4F6"/>
</g>
<g filter="url(#filter1_d_18931_131229)">
<path d="M8.08296 5.42454C8.09942 5.43463 8.11281 5.44903 8.12166 5.46619C8.13052 5.48334 8.13451 5.5026 8.13321 5.52186C8.1319 5.54112 8.12534 5.55966 8.11425 5.57546C8.10315 5.59127 8.08794 5.60373 8.07027 5.6115C7.59364 5.81501 7.18725 6.15398 6.90151 6.58635C6.61577 7.01871 6.46326 7.52546 6.46289 8.04372C6.46289 8.09981 6.48517 8.15361 6.52484 8.19327C6.5645 8.23293 6.6183 8.25522 6.67439 8.25522H11.5388C11.5949 8.25522 11.6487 8.23293 11.6884 8.19327C11.728 8.15361 11.7503 8.09981 11.7503 8.04372C11.7494 7.52469 11.596 7.01737 11.3089 6.58491C11.0219 6.15245 10.6141 5.81394 10.1362 5.6115C10.1183 5.60375 10.1029 5.59122 10.0917 5.5753C10.0805 5.55939 10.0738 5.54068 10.0725 5.52125C10.0712 5.50181 10.0753 5.48239 10.0843 5.46511C10.0932 5.44783 10.1068 5.43335 10.1235 5.42327C10.5008 5.19918 10.794 4.85734 10.958 4.45034C11.122 4.04335 11.1478 3.59373 11.0313 3.17066C10.9149 2.74759 10.6626 2.37449 10.3134 2.10877C9.96423 1.84304 9.5374 1.69941 9.09859 1.69995C8.65978 1.7005 8.23331 1.8452 7.88477 2.11179C7.53623 2.37838 7.28493 2.7521 7.16952 3.17546C7.05412 3.59882 7.081 4.04837 7.24604 4.45496C7.41108 4.86155 7.70513 5.20265 8.08296 5.42581V5.42454ZM7.94337 3.70253C7.94338 3.62254 7.95232 3.54281 7.97002 3.4648C7.97737 3.43216 7.99235 3.40172 8.01375 3.376C8.03515 3.35027 8.06235 3.32999 8.09311 3.31682C8.12387 3.30364 8.15731 3.29796 8.1907 3.30023C8.22408 3.3025 8.25645 3.31266 8.28515 3.32987C8.69058 3.57395 9.15492 3.7028 9.62816 3.70253C9.7519 3.70241 9.87546 3.69322 9.99785 3.67503C10.0309 3.67009 10.0647 3.67304 10.0963 3.68365C10.128 3.69427 10.1567 3.71224 10.1801 3.73609C10.2035 3.75995 10.221 3.78901 10.231 3.82089C10.241 3.85278 10.2433 3.88658 10.2377 3.91952C10.1839 4.20274 10.0264 4.4557 9.79595 4.62888C9.5655 4.80207 9.2787 4.88301 8.99171 4.85587C8.70472 4.82872 8.43819 4.69545 8.24429 4.48213C8.05039 4.26881 7.94308 3.9908 7.94337 3.70253Z" fill="#76A4F6"/>
</g>
<g filter="url(#filter2_d_18931_131229)">
<path d="M12.2238 6.35182C12.4667 6.3533 12.704 6.27919 12.9029 6.13976C13.1018 6.00033 13.2523 5.80248 13.3337 5.57364C13.4151 5.3448 13.4233 5.0963 13.3571 4.8626C13.291 4.62891 13.1538 4.42158 12.9645 4.26936C12.7752 4.11714 12.5433 4.02757 12.3008 4.01307C12.0584 3.99858 11.8174 4.05986 11.6114 4.18844C11.4053 4.31702 11.2444 4.50651 11.1508 4.73066C11.0573 4.95481 11.0358 5.20251 11.0893 5.43942C11.1487 5.6967 11.2929 5.92654 11.4986 6.09202C11.7044 6.2575 11.9598 6.349 12.2238 6.35182Z" fill="#76A4F6"/>
</g>
<g filter="url(#filter3_d_18931_131229)">
<path d="M5.77652 6.35161C6.41895 6.35161 6.93975 5.83082 6.93975 5.18838C6.93975 4.54594 6.41895 4.02515 5.77652 4.02515C5.13408 4.02515 4.61328 4.54594 4.61328 5.18838C4.61328 5.83082 5.13408 6.35161 5.77652 6.35161Z" fill="#76A4F6"/>
</g>
<defs>
<filter id="filter0_d_18931_131229" x="0" y="6.77368" width="18" height="9.48169" filterUnits="userSpaceOnUse" color-interpolation-filters="sRGB">
<feFlood flood-opacity="0" result="BackgroundImageFix"/>
<feColorMatrix in="SourceAlpha" type="matrix" values="0 0 0 0 0 0 0 0 0 0 0 0 0 0 0 0 0 0 127 0" result="hardAlpha"/>
<feOffset dy="4"/>
<feGaussianBlur stdDeviation="2"/>
<feColorMatrix type="matrix" values="0 0 0 0 0 0 0 0 0 0 0 0 0 0 0 0 0 0 0.05 0"/>
<feBlend mode="normal" in2="BackgroundImageFix" result="effect1_dropShadow_18931_131229"/>
<feBlend mode="normal" in="SourceGraphic" in2="effect1_dropShadow_18931_131229" result="shape"/>
</filter>
<filter id="filter1_d_18931_131229" x="2.46289" y="1.69995" width="13.2871" height="14.5552" filterUnits="userSpaceOnUse" color-interpolation-filters="sRGB">
<feFlood flood-opacity="0" result="BackgroundImageFix"/>
<feColorMatrix in="SourceAlpha" type="matrix" values="0 0 0 0 0 0 0 0 0 0 0 0 0 0 0 0 0 0 127 0" result="hardAlpha"/>
<feOffset dy="4"/>
<feGaussianBlur stdDeviation="2"/>
<feColorMatrix type="matrix" values="0 0 0 0 0 0 0 0 0 0 0 0 0 0 0 0 0 0 0.05 0"/>
<feBlend mode="normal" in2="BackgroundImageFix" result="effect1_dropShadow_18931_131229"/>
<feBlend mode="normal" in="SourceGraphic" in2="effect1_dropShadow_18931_131229" result="shape"/>
</filter>
<filter id="filter2_d_18931_131229" x="7.06055" y="4.01099" width="10.3418" height="10.3408" filterUnits="userSpaceOnUse" color-interpolation-filters="sRGB">
<feFlood flood-opacity="0" result="BackgroundImageFix"/>
<feColorMatrix in="SourceAlpha" type="matrix" values="0 0 0 0 0 0 0 0 0 0 0 0 0 0 0 0 0 0 127 0" result="hardAlpha"/>
<feOffset dy="4"/>
<feGaussianBlur stdDeviation="2"/>
<feColorMatrix type="matrix" values="0 0 0 0 0 0 0 0 0 0 0 0 0 0 0 0 0 0 0.05 0"/>
<feBlend mode="normal" in2="BackgroundImageFix" result="effect1_dropShadow_18931_131229"/>
<feBlend mode="normal" in="SourceGraphic" in2="effect1_dropShadow_18931_131229" result="shape"/>
</filter>
<filter id="filter3_d_18931_131229" x="0.613281" y="4.02515" width="10.3262" height="10.3264" filterUnits="userSpaceOnUse" color-interpolation-filters="sRGB">
<feFlood flood-opacity="0" result="BackgroundImageFix"/>
<feColorMatrix in="SourceAlpha" type="matrix" values="0 0 0 0 0 0 0 0 0 0 0 0 0 0 0 0 0 0 127 0" result="hardAlpha"/>
<feOffset dy="4"/>
<feGaussianBlur stdDeviation="2"/>
<feColorMatrix type="matrix" values="0 0 0 0 0 0 0 0 0 0 0 0 0 0 0 0 0 0 0.05 0"/>
<feBlend mode="normal" in2="BackgroundImageFix" result="effect1_dropShadow_18931_131229"/>
<feBlend mode="normal" in="SourceGraphic" in2="effect1_dropShadow_18931_131229" result="shape"/>
</filter>
</defs>
</svg>
