<svg width="10" height="10" viewBox="0 0 10 10" fill="none" xmlns="http://www.w3.org/2000/svg">
<path d="M9.37435 3.08636H7.39227C7.377 3.08637 7.36191 3.08302 7.34808 3.07654C7.33425 3.07007 7.32201 3.06064 7.31223 3.04891C7.30245 3.03718 7.29537 3.02345 7.29149 3.00868C7.2876 2.99391 7.28702 2.97847 7.28977 2.96345L7.69893 0.717614C7.71122 0.650366 7.71013 0.581358 7.69575 0.514528C7.68136 0.447698 7.65396 0.384356 7.61509 0.328119C7.57623 0.271881 7.52666 0.22385 7.46924 0.186766C7.41181 0.149682 7.34764 0.124273 7.28039 0.111989C7.21314 0.099705 7.14413 0.100787 7.0773 0.115172C7.01047 0.129558 6.94713 0.156966 6.89089 0.195831C6.83466 0.234696 6.78663 0.284257 6.74954 0.341685C6.71246 0.399113 6.68705 0.463283 6.67477 0.530531L6.22435 3.00011C6.21997 3.02414 6.20733 3.04587 6.1886 3.06155C6.16988 3.07722 6.14627 3.08586 6.12185 3.08595H4.6081C4.59283 3.08595 4.57774 3.0826 4.56391 3.07613C4.55008 3.06965 4.53784 3.06022 4.52806 3.04849C4.51828 3.03677 4.5112 3.02303 4.50732 3.00826C4.50344 2.99349 4.50285 2.97805 4.5056 2.96303L4.91518 0.717197C4.93749 0.582393 4.90594 0.44422 4.82732 0.332467C4.7487 0.220714 4.62931 0.144332 4.49489 0.119788C4.36048 0.0952448 4.2218 0.124506 4.10876 0.201262C3.99572 0.278019 3.91737 0.396124 3.8906 0.530114L3.44018 3.00011C3.4358 3.02414 3.42316 3.04587 3.40444 3.06155C3.38572 3.07722 3.3621 3.08586 3.33768 3.08595H1.42102C1.28288 3.08595 1.15041 3.14082 1.05273 3.2385C0.955056 3.33617 0.900182 3.46865 0.900182 3.60678C0.900182 3.74491 0.955056 3.87739 1.05273 3.97507C1.15041 4.07274 1.28288 4.12761 1.42102 4.12761H3.10977C3.12516 4.12788 3.1403 4.13153 3.15412 4.13829C3.16795 4.14506 3.18012 4.15479 3.18977 4.16678C3.19965 4.17844 3.2068 4.19216 3.21069 4.20694C3.21458 4.22172 3.21512 4.23718 3.21227 4.2522L2.93268 5.7847C2.92829 5.80868 2.91563 5.83036 2.8969 5.84597C2.87817 5.86158 2.85456 5.87012 2.83018 5.87011H0.624349C0.486215 5.87011 0.353739 5.92499 0.256064 6.02266C0.158389 6.12034 0.103516 6.25281 0.103516 6.39095C0.103516 6.52908 0.158389 6.66156 0.256064 6.75923C0.353739 6.85691 0.486215 6.91178 0.624349 6.91178H2.60227C2.61754 6.91176 2.63263 6.91511 2.64646 6.92159C2.66029 6.92807 2.67251 6.93753 2.68227 6.94928C2.69185 6.9607 2.69883 6.97407 2.70272 6.98846C2.7066 7.00286 2.7073 7.01792 2.70477 7.03261L2.2956 9.27845C2.27329 9.41325 2.30484 9.55142 2.38346 9.66318C2.46208 9.77493 2.58147 9.85131 2.71589 9.87586C2.8503 9.9004 2.98898 9.87114 3.10202 9.79438C3.21506 9.71762 3.29341 9.59952 3.32018 9.46553L3.77018 6.99511C3.77514 6.97159 3.78803 6.95048 3.80669 6.93531C3.82534 6.92014 3.84864 6.91183 3.87268 6.91178H5.38643C5.4017 6.91177 5.41679 6.91513 5.43062 6.9216C5.44445 6.92807 5.45669 6.93751 5.46647 6.94923C5.47625 6.96096 5.48333 6.9747 5.48721 6.98947C5.49109 7.00423 5.49168 7.01968 5.48893 7.0347L5.07935 9.28053C5.05704 9.41533 5.08859 9.55351 5.16721 9.66526C5.24583 9.77701 5.36522 9.85339 5.49964 9.87794C5.63405 9.90248 5.77273 9.87322 5.88577 9.79646C5.99881 9.71971 6.07716 9.6016 6.10393 9.46761L6.55435 6.9972C6.55924 6.97363 6.5721 6.95248 6.59078 6.9373C6.60945 6.92212 6.63278 6.91384 6.65685 6.91386H8.57893C8.71707 6.91386 8.84954 6.85899 8.94722 6.76131C9.04489 6.66364 9.09976 6.53116 9.09976 6.39303C9.09976 6.2549 9.04489 6.12242 8.94722 6.02475C8.84954 5.92707 8.71707 5.8722 8.57893 5.8722H6.88477C6.86949 5.8722 6.85441 5.86885 6.84058 5.86238C6.82675 5.8559 6.81451 5.84647 6.80473 5.83474C6.79495 5.82301 6.78787 5.80928 6.78399 5.79451C6.7801 5.77974 6.77952 5.7643 6.78227 5.74928L7.06185 4.21553C7.06624 4.19155 7.0789 4.16987 7.09763 4.15426C7.11636 4.13865 7.13997 4.13011 7.16435 4.13011H9.37268C9.51082 4.13011 9.64329 4.07524 9.74097 3.97757C9.83864 3.87989 9.89352 3.74741 9.89352 3.60928C9.89352 3.47115 9.83864 3.33867 9.74097 3.241C9.64329 3.14332 9.51082 3.08845 9.37268 3.08845L9.37435 3.08636ZM5.71685 5.7847C5.71246 5.80868 5.6998 5.83036 5.68107 5.84597C5.66234 5.86158 5.63873 5.87012 5.61435 5.87011H4.1006C4.08533 5.87012 4.07024 5.86677 4.05641 5.86029C4.04258 5.85382 4.03034 5.84439 4.02056 5.83266C4.01078 5.82093 4.0037 5.8072 3.99982 5.79243C3.99594 5.77766 3.99535 5.76222 3.9981 5.7472L4.27768 4.21345C4.28215 4.1895 4.29483 4.16786 4.31354 4.15227C4.33225 4.13668 4.35582 4.1281 4.38018 4.12803H5.89393C5.90918 4.12796 5.92426 4.13126 5.9381 4.13768C5.95193 4.14411 5.96417 4.1535 5.97396 4.1652C5.98375 4.1769 5.99084 4.19061 5.99472 4.20536C5.9986 4.22011 5.99919 4.23553 5.99643 4.25053L5.71685 5.7847Z" fill="#76A4F6"/>
</svg>
