<svg width="11" height="11" viewBox="0 0 11 11" fill="none" xmlns="http://www.w3.org/2000/svg">
<path d="M10.9998 5.40441C10.9837 3.95505 10.398 2.57018 9.36933 1.54884C8.86009 1.04369 8.25427 0.646311 7.58803 0.380422C6.92179 0.114533 6.2088 -0.0144147 5.49161 0.0012782C4.02202 0.0254242 2.62096 0.626777 1.59125 1.67536C1.07622 2.1885 0.669926 2.80018 0.39665 3.47385C0.123374 4.14751 -0.0112782 4.86933 0.000739019 5.59619C-5.08888e-05 6.30639 0.139346 7.00976 0.41094 7.66599C0.682535 8.32223 1.08099 8.91843 1.58347 9.42043C2.08594 9.92243 2.68257 10.3204 3.33914 10.5914C3.99572 10.8625 4.69934 11.0013 5.40969 11H5.50893C6.97868 10.9842 8.38215 10.3862 9.41151 9.3372C10.4409 8.28822 11.0121 6.87388 10.9998 5.40441ZM4.83423 2.83536C4.83423 2.65875 4.9044 2.48938 5.02931 2.3645C5.15422 2.23961 5.32363 2.16946 5.50027 2.16946C5.67692 2.16946 5.84633 2.23961 5.97124 2.3645C6.09614 2.48938 6.16632 2.65875 6.16632 2.83536V5.83192C6.16632 6.00853 6.09614 6.1779 5.97124 6.30278C5.84633 6.42767 5.67692 6.49782 5.50027 6.49782C5.32363 6.49782 5.15422 6.42767 5.02931 6.30278C4.9044 6.1779 4.83423 6.00853 4.83423 5.83192V2.83536ZM5.51493 8.8438H5.50027C5.27946 8.84565 5.06696 8.75973 4.90952 8.60494C4.75207 8.45015 4.66258 8.23917 4.66072 8.01841C4.65887 7.79765 4.7448 7.5852 4.89963 7.42778C5.05445 7.27037 5.26548 7.1809 5.48629 7.17904H5.50027C5.72108 7.17727 5.93355 7.26328 6.09093 7.41813C6.24831 7.57298 6.33772 7.784 6.33949 8.00476C6.34126 8.22552 6.25523 8.43794 6.10035 8.59529C5.94546 8.75264 5.7344 8.84203 5.51359 8.8438H5.51493Z" fill="#717171"/>
</svg>
