<svg width="10" height="10" viewBox="0 0 10 10" fill="none" xmlns="http://www.w3.org/2000/svg">
<path d="M9.6875 2.71094C9.6875 2.50374 9.60519 2.30502 9.45868 2.15851C9.31216 2.012 9.11345 1.92969 8.90625 1.92969H6.5625C6.5107 1.92969 6.46102 1.95027 6.42439 1.98689C6.38776 2.02352 6.36719 2.0732 6.36719 2.125V2.71094C6.36719 2.76274 6.34661 2.81242 6.30998 2.84904C6.27335 2.88567 6.22368 2.90625 6.17188 2.90625C6.12007 2.90625 6.0704 2.88567 6.03377 2.84904C5.99714 2.81242 5.97656 2.76274 5.97656 2.71094V1.73438C5.97656 1.42357 5.8531 1.1255 5.63333 0.905734C5.41356 0.685965 5.11549 0.5625 4.80469 0.5625C4.49389 0.5625 4.19582 0.685965 3.97605 0.905734C3.75628 1.1255 3.63281 1.42357 3.63281 1.73438V2.71094C3.63281 2.76274 3.61224 2.81242 3.57561 2.84904C3.53898 2.88567 3.4893 2.90625 3.4375 2.90625C3.3857 2.90625 3.33602 2.88567 3.29939 2.84904C3.26276 2.81242 3.24219 2.76274 3.24219 2.71094V2.125C3.24219 2.0732 3.22161 2.02352 3.18498 1.98689C3.14835 1.95027 3.09868 1.92969 3.04688 1.92969H1.09375C0.88655 1.92969 0.687836 2.012 0.541323 2.15851C0.39481 2.30502 0.3125 2.50374 0.3125 2.71094L0.3125 8.57031C0.3125 8.77751 0.39481 8.97623 0.541323 9.12274C0.687836 9.26925 0.88655 9.35156 1.09375 9.35156H8.90625C9.11345 9.35156 9.31216 9.26925 9.45868 9.12274C9.60519 8.97623 9.6875 8.77751 9.6875 8.57031V2.71094ZM4.41406 1.63672C4.41406 1.55946 4.43697 1.48394 4.47989 1.4197C4.52282 1.35546 4.58382 1.30539 4.6552 1.27583C4.72658 1.24626 4.80512 1.23853 4.88089 1.2536C4.95667 1.26867 5.02627 1.30588 5.0809 1.36051C5.13553 1.41514 5.17273 1.48474 5.18781 1.56051C5.20288 1.63629 5.19514 1.71483 5.16558 1.7862C5.13601 1.85758 5.08595 1.91859 5.02171 1.96151C4.95747 2.00443 4.88195 2.02734 4.80469 2.02734C4.70109 2.02734 4.60173 1.98619 4.52847 1.91293C4.45522 1.83968 4.41406 1.74032 4.41406 1.63672ZM1.28906 8.57031C1.23726 8.57031 1.18758 8.54974 1.15096 8.51311C1.11433 8.47648 1.09375 8.4268 1.09375 8.375V4.27344C1.09375 4.22164 1.11433 4.17196 1.15096 4.13533C1.18758 4.0987 1.23726 4.07812 1.28906 4.07812H8.71094C8.76274 4.07812 8.81242 4.0987 8.84904 4.13533C8.88567 4.17196 8.90625 4.22164 8.90625 4.27344V8.375C8.90625 8.4268 8.88567 8.47648 8.84904 8.51311C8.81242 8.54974 8.76274 8.57031 8.71094 8.57031H1.28906Z" fill="#76A4F6"/>
<path d="M7.83203 5.54297H5.97656C5.89886 5.54297 5.82434 5.57384 5.7694 5.62878C5.71446 5.68372 5.68359 5.75824 5.68359 5.83594C5.68359 5.91364 5.71446 5.98816 5.7694 6.0431C5.82434 6.09804 5.89886 6.12891 5.97656 6.12891H7.83203C7.90973 6.12891 7.98425 6.09804 8.03919 6.0431C8.09413 5.98816 8.125 5.91364 8.125 5.83594C8.125 5.75824 8.09413 5.68372 8.03919 5.62878C7.98425 5.57384 7.90973 5.54297 7.83203 5.54297ZM7.34375 6.71484H5.97656C5.89886 6.71484 5.82434 6.74571 5.7694 6.80065C5.71446 6.85559 5.68359 6.93011 5.68359 7.00781C5.68359 7.08551 5.71446 7.16003 5.7694 7.21497C5.82434 7.26992 5.89886 7.30078 5.97656 7.30078H7.34375C7.42145 7.30078 7.49597 7.26992 7.55091 7.21497C7.60585 7.16003 7.63672 7.08551 7.63672 7.00781C7.63672 6.93011 7.60585 6.85559 7.55091 6.80065C7.49597 6.74571 7.42145 6.71484 7.34375 6.71484Z" fill="#76A4F6"/>
<path fill-rule="evenodd" clip-rule="evenodd" d="M4.21723 5.64062C4.21723 6.0721 3.86745 6.42188 3.43598 6.42188C3.00451 6.42188 2.65473 6.0721 2.65473 5.64062C2.65473 5.20915 3.00451 4.85938 3.43598 4.85938C3.86745 4.85938 4.21723 5.20915 4.21723 5.64062ZM2.65449 7.06747C2.88421 6.90625 3.15693 6.81745 3.43754 6.8125C3.71755 6.81814 3.98949 6.90726 4.21853 7.06844C4.44756 7.22962 4.62325 7.45552 4.72309 7.71719C4.73489 7.747 4.73917 7.77925 4.73555 7.81111C4.73193 7.84297 4.72053 7.87344 4.70235 7.89985C4.68417 7.92625 4.65976 7.94778 4.63129 7.96252C4.60282 7.97726 4.57116 7.98477 4.5391 7.98438H2.33246C2.3004 7.98477 2.26874 7.97726 2.24027 7.96252C2.2118 7.94778 2.1874 7.92625 2.16921 7.89985C2.15103 7.87344 2.13963 7.84297 2.13601 7.81111C2.1324 7.77925 2.13668 7.747 2.14848 7.71719C2.24853 7.45497 2.42476 7.2287 2.65449 7.06747Z" fill="#76A4F6"/>
</svg>
