<svg width="14" height="16" viewBox="0 0 14 16" fill="none" xmlns="http://www.w3.org/2000/svg">
<path d="M11.9998 6.33333H11.4998V4.5C11.4998 3.30653 11.0257 2.16193 10.1818 1.31802C9.3379 0.474106 8.19331 0 6.99984 0C5.80636 0 4.66177 0.474106 3.81786 1.31802C2.97394 2.16193 2.49984 3.30653 2.49984 4.5V6.33333H1.99984C1.64622 6.33333 1.30708 6.47381 1.05703 6.72386C0.80698 6.97391 0.666504 7.31305 0.666504 7.66667V14.6667C0.666504 15.0203 0.80698 15.3594 1.05703 15.6095C1.30708 15.8595 1.64622 16 1.99984 16H11.9998C12.3535 16 12.6926 15.8595 12.9426 15.6095C13.1927 15.3594 13.3332 15.0203 13.3332 14.6667V7.66667C13.3332 7.31305 13.1927 6.97391 12.9426 6.72386C12.6926 6.47381 12.3535 6.33333 11.9998 6.33333ZM5.6665 10.3333C5.66544 10.099 5.72615 9.86859 5.84249 9.66521C5.95884 9.46184 6.12673 9.29272 6.32924 9.17488C6.53176 9.05704 6.76175 8.99464 6.99605 8.99398C7.23035 8.99332 7.46069 9.05441 7.66387 9.1711C7.86705 9.28779 8.03589 9.45596 8.15339 9.65868C8.27088 9.86139 8.33289 10.0915 8.33316 10.3258C8.33342 10.5601 8.27194 10.7903 8.15491 10.9933C8.03787 11.1963 7.86941 11.3648 7.6665 11.482V13C7.6665 13.1768 7.59627 13.3464 7.47124 13.4714C7.34622 13.5964 7.17665 13.6667 6.99984 13.6667C6.82303 13.6667 6.65346 13.5964 6.52843 13.4714C6.40341 13.3464 6.33317 13.1768 6.33317 13V11.482C6.13109 11.3658 5.96312 11.1985 5.84611 10.9969C5.7291 10.7953 5.66716 10.5664 5.6665 10.3333ZM4.1665 4.5C4.1665 3.74855 4.46501 3.02788 4.99637 2.49653C5.52772 1.96518 6.24839 1.66667 6.99984 1.66667C7.75128 1.66667 8.47195 1.96518 9.00331 2.49653C9.53466 3.02788 9.83317 3.74855 9.83317 4.5V6C9.83317 6.08841 9.79805 6.17319 9.73554 6.2357C9.67303 6.29821 9.58824 6.33333 9.49984 6.33333H4.49984C4.41143 6.33333 4.32665 6.29821 4.26413 6.2357C4.20162 6.17319 4.1665 6.08841 4.1665 6V4.5Z" fill="white"/>
</svg>
