<svg width="10" height="10" viewBox="0 0 10 10" fill="none" xmlns="http://www.w3.org/2000/svg">
<path d="M9.16732 0.625H0.833984C0.668224 0.625 0.509253 0.690848 0.392043 0.808058C0.274832 0.925269 0.208984 1.08424 0.208984 1.25V6.89667C0.209562 6.97757 0.226284 7.05755 0.258169 7.13191C0.290055 7.20626 0.336462 7.27351 0.394672 7.3297C0.452881 7.38589 0.521722 7.4299 0.597158 7.45914C0.672595 7.48839 0.75311 7.50228 0.833984 7.5H2.08398V9.16667C2.08397 9.20471 2.09437 9.24203 2.11406 9.27458C2.13376 9.30713 2.16198 9.33366 2.19568 9.35131C2.22939 9.36895 2.26728 9.37703 2.30525 9.37467C2.34321 9.37231 2.37981 9.3596 2.41107 9.33792L5.06565 7.5H9.16732C9.33308 7.5 9.49205 7.43415 9.60926 7.31694C9.72647 7.19973 9.79232 7.04076 9.79232 6.875V1.25C9.79232 1.08424 9.72647 0.925269 9.60926 0.808058C9.49205 0.690848 9.33308 0.625 9.16732 0.625ZM2.18815 5C2.18815 4.91712 2.22108 4.83763 2.27968 4.77903C2.33829 4.72042 2.41777 4.6875 2.50065 4.6875H7.50065C7.58353 4.6875 7.66302 4.72042 7.72162 4.77903C7.78023 4.83763 7.81315 4.91712 7.81315 5C7.81315 5.08288 7.78023 5.16237 7.72162 5.22097C7.66302 5.27958 7.58353 5.3125 7.50065 5.3125H2.50065C2.41777 5.3125 2.33829 5.27958 2.27968 5.22097C2.22108 5.16237 2.18815 5.08288 2.18815 5ZM7.50065 3.4375H2.50065C2.41777 3.4375 2.33829 3.40458 2.27968 3.34597C2.22108 3.28737 2.18815 3.20788 2.18815 3.125C2.18815 3.04212 2.22108 2.96263 2.27968 2.90403C2.33829 2.84542 2.41777 2.8125 2.50065 2.8125H7.50065C7.58353 2.8125 7.66302 2.84542 7.72162 2.90403C7.78023 2.96263 7.81315 3.04212 7.81315 3.125C7.81315 3.20788 7.78023 3.28737 7.72162 3.34597C7.66302 3.40458 7.58353 3.4375 7.50065 3.4375Z" fill="#76A4F6"/>
</svg>
