<svg width="46" height="46" viewBox="0 0 46 46" fill="none" xmlns="http://www.w3.org/2000/svg">
<path d="M23 0.0830078C18.4676 0.0830078 14.0369 1.42705 10.2682 3.94516C6.49961 6.46328 3.56232 10.0424 1.82781 14.2298C0.0933035 18.4173 -0.360523 23.0251 0.523722 27.4705C1.40797 31.9159 3.59056 35.9992 6.79552 39.2042C10.0005 42.4091 14.0838 44.5917 18.5292 45.476C22.9746 46.3602 27.5824 45.9064 31.7699 44.1719C35.9573 42.4374 39.5364 39.5001 42.0546 35.7315C44.5727 31.9629 45.9167 27.5322 45.9167 22.9997C45.9092 16.9241 43.4924 11.0995 39.1963 6.80339C34.9002 2.5073 29.0756 0.0904717 23 0.0830078ZM7.91031 21.1311L14.9616 14.0798C15.2037 13.82 15.4956 13.6116 15.8199 13.4671C16.1443 13.3226 16.4944 13.2449 16.8495 13.2386C17.2045 13.2323 17.5572 13.2977 17.8864 13.4306C18.2157 13.5636 18.5148 13.7616 18.7659 14.0127C19.017 14.2638 19.2149 14.5629 19.3479 14.8921C19.4809 15.2214 19.5462 15.574 19.54 15.9291C19.5337 16.2841 19.456 16.6343 19.3115 16.9586C19.1669 17.283 18.9586 17.5749 18.6988 17.817L13.5196 22.9997L18.6988 28.1824C18.9444 28.4276 19.1392 28.7189 19.2722 29.0395C19.4051 29.3602 19.4735 29.7039 19.4735 30.0509C19.4735 30.398 19.4051 30.7417 19.2722 31.0624C19.1392 31.383 18.9444 31.6743 18.6988 31.9195C18.1956 32.4006 17.5263 32.669 16.8302 32.669C16.1341 32.669 15.4648 32.4006 14.9616 31.9195L7.91031 24.8683C7.66469 24.623 7.46984 24.3317 7.3369 24.0111C7.20396 23.6905 7.13553 23.3468 7.13553 22.9997C7.13553 22.6526 7.20396 22.3089 7.3369 21.9882C7.46984 21.6676 7.66469 21.3763 7.91031 21.1311ZM31.0385 31.9195C30.5378 32.4054 29.8676 32.6772 29.1699 32.6772C28.4722 32.6772 27.802 32.4054 27.3013 31.9195C27.0557 31.6743 26.8609 31.383 26.7279 31.0624C26.595 30.7417 26.5266 30.398 26.5266 30.0509C26.5266 29.7039 26.595 29.3602 26.7279 29.0395C26.8609 28.7189 27.0557 28.4276 27.3013 28.1824L32.4805 22.9997L27.3013 17.817C26.8342 17.3157 26.58 16.6527 26.5921 15.9677C26.6041 15.2827 26.8817 14.6291 27.3661 14.1446C27.8506 13.6601 28.5042 13.3826 29.1892 13.3705C29.8743 13.3584 30.5373 13.6127 31.0385 14.0798L38.0898 21.1311C38.3354 21.3763 38.5302 21.6676 38.6632 21.9882C38.7961 22.3089 38.8646 22.6526 38.8646 22.9997C38.8646 23.3468 38.7961 23.6905 38.6632 24.0111C38.5302 24.3317 38.3354 24.623 38.0898 24.8683L31.0385 31.9195Z" fill="#EEEEEE"/>
</svg>
