<svg width="10" height="10" viewBox="0 0 10 10" fill="none" xmlns="http://www.w3.org/2000/svg">
<path d="M8.6 7.29167C8.44087 7.29167 8.28826 7.22582 8.17574 7.10861C8.06321 6.9914 8 6.83243 8 6.66667V4.64083C8.0231 3.84962 7.77367 3.07591 7.29681 2.45958C6.81995 1.84326 6.14713 1.425 5.4 1.28042V0.416667C5.4 0.30616 5.35786 0.200179 5.28284 0.122039C5.20783 0.0438987 5.10609 0 5 0C4.89391 0 4.79217 0.0438987 4.71716 0.122039C4.64214 0.200179 4.6 0.30616 4.6 0.416667V1.28042C3.85287 1.425 3.18005 1.84326 2.70319 2.45958C2.22633 3.07591 1.9769 3.84962 2 4.64083V6.66667C2 6.83243 1.93679 6.9914 1.82426 7.10861C1.71174 7.22582 1.55913 7.29167 1.4 7.29167C1.29391 7.29167 1.19217 7.33557 1.11716 7.4137C1.04214 7.49185 1 7.59783 1 7.70833C1 7.81884 1.04214 7.92482 1.11716 8.00296C1.19217 8.0811 1.29391 8.125 1.4 8.125H8.6C8.70609 8.125 8.80783 8.0811 8.88284 8.00296C8.95786 7.92482 9 7.81884 9 7.70833C9 7.59783 8.95786 7.49185 8.88284 7.4137C8.80783 7.33557 8.70609 7.29167 8.6 7.29167ZM5.8944 8.75H4.1056C4.08105 8.75004 4.05737 8.75949 4.03907 8.77655C4.02078 8.79361 4.00915 8.81709 4.0064 8.8425C4.00204 8.88094 3.9999 8.91962 4 8.95833C4 9.2346 4.10536 9.49955 4.29289 9.6949C4.48043 9.89025 4.73478 10 5 10C5.26522 10 5.51957 9.89025 5.70711 9.6949C5.89464 9.49955 6 9.2346 6 8.95833C6.0001 8.91962 5.99796 8.88094 5.9936 8.8425C5.99102 8.81701 5.97944 8.79343 5.96111 8.77634C5.94278 8.75925 5.919 8.74986 5.8944 8.75Z" fill="#76A4F7"/>
</svg>
