<svg width="10" height="10" viewBox="0 0 10 10" fill="none" xmlns="http://www.w3.org/2000/svg">
<g clip-path="url(#clip0_18931_131226)">
<path d="M2.9694 2.5H6.30273C6.34646 2.5 6.38908 2.48624 6.42455 2.46068C6.46002 2.43511 6.48655 2.39903 6.50038 2.35755C6.5142 2.31607 6.51463 2.27129 6.50159 2.22955C6.48855 2.18781 6.46272 2.15124 6.42773 2.125L5.13607 1.15625C5.11019 1.13684 5.08919 1.11168 5.07473 1.08275C5.06027 1.05382 5.05273 1.02193 5.05273 0.989583V0.416667C5.05273 0.30616 5.00884 0.200179 4.9307 0.122039C4.85256 0.0438987 4.74657 0 4.63607 0C4.52556 0 4.41958 0.0438987 4.34144 0.122039C4.2633 0.200179 4.2194 0.30616 4.2194 0.416667V0.989583C4.2194 1.02193 4.21187 1.05382 4.19741 1.08275C4.18294 1.11168 4.16194 1.13684 4.13607 1.15625L2.8444 2.125C2.80942 2.15124 2.78358 2.18781 2.77054 2.22955C2.75751 2.27129 2.75793 2.31607 2.77176 2.35755C2.78559 2.39903 2.81211 2.43511 2.84759 2.46068C2.88306 2.48624 2.92568 2.5 2.9694 2.5ZM6.30273 3.125H2.9694C2.91415 3.125 2.86116 3.14695 2.82209 3.18602C2.78302 3.22509 2.76107 3.27808 2.76107 3.33333V9.79167C2.76107 9.84692 2.78302 9.89991 2.82209 9.93898C2.86116 9.97805 2.91415 10 2.9694 10H6.30273C6.35799 10 6.41098 9.97805 6.45005 9.93898C6.48912 9.89991 6.51107 9.84692 6.51107 9.79167V3.33333C6.51107 3.27808 6.48912 3.22509 6.45005 3.18602C6.41098 3.14695 6.35799 3.125 6.30273 3.125ZM4.2194 8.54167C4.2194 8.62455 4.18648 8.70403 4.12787 8.76264C4.06927 8.82124 3.98978 8.85417 3.9069 8.85417C3.82402 8.85417 3.74454 8.82124 3.68593 8.76264C3.62733 8.70403 3.5944 8.62455 3.5944 8.54167V4.375C3.5944 4.29212 3.62733 4.21263 3.68593 4.15403C3.74454 4.09542 3.82402 4.0625 3.9069 4.0625C3.98978 4.0625 4.06927 4.09542 4.12787 4.15403C4.18648 4.21263 4.2194 4.29212 4.2194 4.375V8.54167ZM5.67773 8.54167C5.67773 8.62455 5.64481 8.70403 5.58621 8.76264C5.5276 8.82124 5.44811 8.85417 5.36523 8.85417C5.28235 8.85417 5.20287 8.82124 5.14426 8.76264C5.08566 8.70403 5.05273 8.62455 5.05273 8.54167V4.375C5.05273 4.29212 5.08566 4.21263 5.14426 4.15403C5.20287 4.09542 5.28235 4.0625 5.36523 4.0625C5.44811 4.0625 5.5276 4.09542 5.58621 4.15403C5.64481 4.21263 5.67773 4.29212 5.67773 4.375V8.54167ZM1.92773 5.41667H0.261068C0.205814 5.41667 0.152824 5.43862 0.113754 5.47769C0.0746837 5.51676 0.0527344 5.56975 0.0527344 5.625V9.79167C0.0527344 9.84692 0.0746837 9.89991 0.113754 9.93898C0.152824 9.97805 0.205814 10 0.261068 10H1.92773C1.98299 10 2.03598 9.97805 2.07505 9.93898C2.11412 9.89991 2.13607 9.84692 2.13607 9.79167V5.625C2.13607 5.56975 2.11412 5.51676 2.07505 5.47769C2.03598 5.43862 1.98299 5.41667 1.92773 5.41667ZM1.4069 8.75C1.4069 8.83288 1.37398 8.91237 1.31537 8.97097C1.25677 9.02958 1.17728 9.0625 1.0944 9.0625C1.01152 9.0625 0.932035 9.02958 0.87343 8.97097C0.814825 8.91237 0.781901 8.83288 0.781901 8.75V8.33333C0.781901 8.25045 0.814825 8.17097 0.87343 8.11236C0.932035 8.05376 1.01152 8.02083 1.0944 8.02083C1.17728 8.02083 1.25677 8.05376 1.31537 8.11236C1.37398 8.17097 1.4069 8.25045 1.4069 8.33333V8.75ZM1.4069 7.08333C1.4069 7.16621 1.37398 7.2457 1.31537 7.3043C1.25677 7.36291 1.17728 7.39583 1.0944 7.39583C1.01152 7.39583 0.932035 7.36291 0.87343 7.3043C0.814825 7.2457 0.781901 7.16621 0.781901 7.08333V6.66667C0.781901 6.58379 0.814825 6.5043 0.87343 6.4457C0.932035 6.38709 1.01152 6.35417 1.0944 6.35417C1.17728 6.35417 1.25677 6.38709 1.31537 6.4457C1.37398 6.5043 1.4069 6.58379 1.4069 6.66667V7.08333ZM9.75898 5.33792L7.57148 4.40042C7.52397 4.38009 7.47216 4.37186 7.42069 4.37647C7.36922 4.38108 7.31969 4.39839 7.27655 4.42683C7.23341 4.45528 7.19799 4.49398 7.17348 4.53947C7.14896 4.58496 7.13611 4.63582 7.13607 4.6875V9.6875C7.13607 9.77038 7.16899 9.84987 7.2276 9.90847C7.2862 9.96708 7.36569 10 7.44857 10H9.63607C9.71895 10 9.79843 9.96708 9.85704 9.90847C9.91564 9.84987 9.94857 9.77038 9.94857 9.6875V5.625C9.94858 5.56384 9.93061 5.50402 9.89691 5.45298C9.8632 5.40194 9.81524 5.36193 9.75898 5.33792ZM8.2819 8.54167C8.2819 8.62455 8.24898 8.70403 8.19037 8.76264C8.13177 8.82124 8.05228 8.85417 7.9694 8.85417C7.88652 8.85417 7.80704 8.82124 7.74843 8.76264C7.68983 8.70403 7.6569 8.62455 7.6569 8.54167V8.125C7.6569 8.04212 7.68983 7.96263 7.74843 7.90403C7.80704 7.84542 7.88652 7.8125 7.9694 7.8125C8.05228 7.8125 8.13177 7.84542 8.19037 7.90403C8.24898 7.96263 8.2819 8.04212 8.2819 8.125V8.54167ZM8.2819 6.66667C8.2819 6.74955 8.24898 6.82903 8.19037 6.88764C8.13177 6.94624 8.05228 6.97917 7.9694 6.97917C7.88652 6.97917 7.80704 6.94624 7.74843 6.88764C7.68983 6.82903 7.6569 6.74955 7.6569 6.66667V6.25C7.6569 6.16712 7.68983 6.08763 7.74843 6.02903C7.80704 5.97042 7.88652 5.9375 7.9694 5.9375C8.05228 5.9375 8.13177 5.97042 8.19037 6.02903C8.24898 6.08763 8.2819 6.16712 8.2819 6.25V6.66667ZM9.32357 8.54167C9.32357 8.62455 9.29064 8.70403 9.23204 8.76264C9.17343 8.82124 9.09395 8.85417 9.01107 8.85417C8.92819 8.85417 8.8487 8.82124 8.7901 8.76264C8.73149 8.70403 8.69857 8.62455 8.69857 8.54167V8.125C8.69857 8.04212 8.73149 7.96263 8.7901 7.90403C8.8487 7.84542 8.92819 7.8125 9.01107 7.8125C9.09395 7.8125 9.17343 7.84542 9.23204 7.90403C9.29064 7.96263 9.32357 8.04212 9.32357 8.125V8.54167ZM9.32357 6.66667C9.32357 6.74955 9.29064 6.82903 9.23204 6.88764C9.17343 6.94624 9.09395 6.97917 9.01107 6.97917C8.92819 6.97917 8.8487 6.94624 8.7901 6.88764C8.73149 6.82903 8.69857 6.74955 8.69857 6.66667V6.25C8.69857 6.16712 8.73149 6.08763 8.7901 6.02903C8.8487 5.97042 8.92819 5.9375 9.01107 5.9375C9.09395 5.9375 9.17343 5.97042 9.23204 6.02903C9.29064 6.08763 9.32357 6.16712 9.32357 6.25V6.66667Z" fill="#76A4F6"/>
</g>
<defs>
<clipPath id="clip0_18931_131226">
<rect width="10" height="10" fill="white"/>
</clipPath>
</defs>
</svg>
