<svg width="9" height="9" viewBox="0 0 9 9" fill="none" xmlns="http://www.w3.org/2000/svg">
<path d="M1.875 3.75C2.91053 3.75 3.75 2.91053 3.75 1.875C3.75 0.839466 2.91053 0 1.875 0C0.839466 0 0 0.839466 0 1.875C0 2.91053 0.839466 3.75 1.875 3.75Z" fill="#5ABAFF"/>
<path d="M7.125 3.75C8.16053 3.75 9 2.91053 9 1.875C9 0.839466 8.16053 0 7.125 0C6.08947 0 5.25 0.839466 5.25 1.875C5.25 2.91053 6.08947 3.75 7.125 3.75Z" fill="#5ABAFF"/>
<path d="M1.875 9C2.91053 9 3.75 8.16053 3.75 7.125C3.75 6.08947 2.91053 5.25 1.875 5.25C0.839466 5.25 0 6.08947 0 7.125C0 8.16053 0.839466 9 1.875 9Z" fill="#5ABAFF"/>
<path d="M7.125 9C8.16053 9 9 8.16053 9 7.125C9 6.08947 8.16053 5.25 7.125 5.25C6.08947 5.25 5.25 6.08947 5.25 7.125C5.25 8.16053 6.08947 9 7.125 9Z" fill="#5ABAFF"/>
</svg>
