<svg width="10" height="10" viewBox="0 0 10 10" fill="none" xmlns="http://www.w3.org/2000/svg">
<g clip-path="url(#clip0_19031_131425)">
<path d="M7.81315 1.87378H3.64648C3.4739 1.87378 3.33398 2.01369 3.33398 2.18628V2.60295C3.33398 2.77554 3.4739 2.91545 3.64648 2.91545H7.81315C7.98574 2.91545 8.12565 2.77554 8.12565 2.60295V2.18628C8.12565 2.01369 7.98574 1.87378 7.81315 1.87378Z" fill="#76A4F6"/>
<path d="M7.81315 3.74878H3.64648C3.4739 3.74878 3.33398 3.88869 3.33398 4.06128V4.47795C3.33398 4.65054 3.4739 4.79045 3.64648 4.79045H7.81315C7.98574 4.79045 8.12565 4.65054 8.12565 4.47795V4.06128C8.12565 3.88869 7.98574 3.74878 7.81315 3.74878Z" fill="#76A4F6"/>
<path d="M5.72982 5.62378H3.64648C3.4739 5.62378 3.33398 5.76369 3.33398 5.93628V6.35295C3.33398 6.52553 3.4739 6.66545 3.64648 6.66545H5.72982C5.90241 6.66545 6.04232 6.52553 6.04232 6.35295V5.93628C6.04232 5.76369 5.90241 5.62378 5.72982 5.62378Z" fill="#76A4F6"/>
<path d="M9.16732 0H2.29232C2.0713 0 1.85934 0.0877974 1.70306 0.244078C1.54678 0.400358 1.45898 0.61232 1.45898 0.833333V7.70833C1.45898 7.92935 1.54678 8.14131 1.70306 8.29759C1.85934 8.45387 2.0713 8.54167 2.29232 8.54167H9.16732C9.38833 8.54167 9.60029 8.45387 9.75657 8.29759C9.91285 8.14131 10.0007 7.92935 10.0007 7.70833V0.833333C10.0007 0.61232 9.91285 0.400358 9.75657 0.244078C9.60029 0.0877974 9.38833 0 9.16732 0V0ZM9.1069 7.6475C9.08752 7.66683 9.06451 7.68216 9.03921 7.6926C9.0139 7.70303 8.98678 7.70838 8.9594 7.70833H2.50065C2.4454 7.70833 2.39241 7.68638 2.35334 7.64731C2.31427 7.60824 2.29232 7.55525 2.29232 7.5V1.04167C2.29232 0.986413 2.31427 0.933423 2.35334 0.894353C2.39241 0.855283 2.4454 0.833333 2.50065 0.833333H8.95898C9.01424 0.833333 9.06723 0.855283 9.1063 0.894353C9.14537 0.933423 9.16732 0.986413 9.16732 1.04167V7.5C9.1672 7.5548 9.14549 7.60734 9.1069 7.64625V7.6475Z" fill="#76A4F6"/>
<path d="M8.125 9.16659H1.04167C0.986413 9.16659 0.933423 9.14464 0.894353 9.10557C0.855283 9.0665 0.833333 9.01351 0.833333 8.95825V1.87492C0.833333 1.76441 0.789435 1.65843 0.711295 1.58029C0.633154 1.50215 0.527174 1.45825 0.416667 1.45825C0.30616 1.45825 0.200179 1.50215 0.122039 1.58029C0.0438987 1.65843 0 1.76441 0 1.87492L0 9.16659C0 9.3876 0.0877974 9.59956 0.244078 9.75584C0.400358 9.91212 0.61232 9.99992 0.833333 9.99992H8.125C8.23551 9.99992 8.34149 9.95602 8.41963 9.87788C8.49777 9.79974 8.54167 9.69376 8.54167 9.58325C8.54167 9.47275 8.49777 9.36676 8.41963 9.28862C8.34149 9.21048 8.23551 9.16659 8.125 9.16659Z" fill="#76A4F6"/>
</g>
<defs>
<clipPath id="clip0_19031_131425">
<rect width="10" height="10" fill="white"/>
</clipPath>
</defs>
</svg>
