<svg width="10" height="10" viewBox="0 0 10 10" fill="none" xmlns="http://www.w3.org/2000/svg">
<path d="M9.448 7.08706L8.42633 6.06498C8.31754 5.95599 8.18833 5.86952 8.04608 5.81053C7.90384 5.75153 7.75136 5.72116 7.59737 5.72116C7.44338 5.72116 7.2909 5.75153 7.14866 5.81053C7.00641 5.86952 6.8772 5.95599 6.76841 6.06498L6.56008 6.27331C5.5333 5.413 4.58486 4.4633 3.72591 3.43539L3.93424 3.22706C4.15362 3.00704 4.27681 2.70901 4.27681 2.39831C4.27681 2.08761 4.15362 1.78958 3.93424 1.56956L2.91049 0.548725C2.687 0.335211 2.3898 0.216064 2.0807 0.216064C1.77161 0.216064 1.47441 0.335211 1.25091 0.548725L0.692577 1.10956C0.424279 1.37979 0.257128 1.7341 0.219192 2.11301C0.181256 2.49191 0.274845 2.87233 0.484244 3.19039C2.14887 5.69865 4.2984 7.84861 6.80633 9.51373C7.12548 9.72121 7.50584 9.81364 7.88462 9.77576C8.26339 9.73788 8.61792 9.57196 8.88966 9.30539L9.45008 8.74456C9.55904 8.63584 9.64549 8.5067 9.70447 8.36453C9.76346 8.22235 9.79382 8.06994 9.79382 7.91602C9.79382 7.76209 9.76346 7.60968 9.70447 7.46751C9.64549 7.32534 9.55904 7.19619 9.45008 7.08748L9.448 7.08706Z" fill="#76A4F6"/>
</svg>
