<svg width="10" height="10" viewBox="0 0 10 10" fill="none" xmlns="http://www.w3.org/2000/svg">
<g clip-path="url(#clip0_19031_131417)">
<path d="M8.95833 0H1.04167C0.765399 0 0.500448 0.109747 0.305097 0.305097C0.109747 0.500448 0 0.765399 0 1.04167L0 8.95833C0 9.09513 0.0269435 9.23058 0.0792921 9.35696C0.131641 9.48334 0.208369 9.59818 0.305097 9.6949C0.401825 9.79163 0.516657 9.86836 0.643038 9.92071C0.769419 9.97306 0.904873 10 1.04167 10H8.95833C9.09513 10 9.23058 9.97306 9.35696 9.92071C9.48334 9.86836 9.59818 9.79163 9.6949 9.6949C9.79163 9.59818 9.86836 9.48334 9.92071 9.35696C9.97306 9.23058 10 9.09513 10 8.95833V1.04167C10 0.904873 9.97306 0.769419 9.92071 0.643038C9.86836 0.516657 9.79163 0.401825 9.6949 0.305097C9.59818 0.208369 9.48334 0.131641 9.35696 0.0792921C9.23058 0.0269435 9.09513 0 8.95833 0V0ZM7.70833 3.95833H5.83333C5.72283 3.95833 5.61685 3.91443 5.53871 3.83629C5.46057 3.75815 5.41667 3.65217 5.41667 3.54167C5.41667 3.43116 5.46057 3.32518 5.53871 3.24704C5.61685 3.1689 5.72283 3.125 5.83333 3.125H7.70833C7.81884 3.125 7.92482 3.1689 8.00296 3.24704C8.0811 3.32518 8.125 3.43116 8.125 3.54167C8.125 3.65217 8.0811 3.75815 8.00296 3.83629C7.92482 3.91443 7.81884 3.95833 7.70833 3.95833ZM8.125 7.29167C8.125 7.40217 8.0811 7.50815 8.00296 7.58629C7.92482 7.66443 7.81884 7.70833 7.70833 7.70833H5.83333C5.72283 7.70833 5.61685 7.66443 5.53871 7.58629C5.46057 7.50815 5.41667 7.40217 5.41667 7.29167C5.41667 7.18116 5.46057 7.07518 5.53871 6.99704C5.61685 6.9189 5.72283 6.875 5.83333 6.875H7.70833C7.81884 6.875 7.92482 6.9189 8.00296 6.99704C8.0811 7.07518 8.125 7.18116 8.125 7.29167ZM4.70833 2.33333L3.45833 4C3.42262 4.04795 3.37701 4.08764 3.3246 4.1164C3.27219 4.14516 3.21421 4.1623 3.15458 4.16667H3.125C3.0145 4.16664 2.90854 4.12273 2.83042 4.04458L2.20542 3.41958C2.12723 3.34145 2.08329 3.23547 2.08325 3.12494C2.08321 3.01441 2.12708 2.90839 2.20521 2.83021C2.28334 2.75202 2.38932 2.70808 2.49985 2.70804C2.61038 2.708 2.7164 2.75187 2.79458 2.83L3.08 3.11542L4.04167 1.83333C4.10797 1.74493 4.20668 1.68648 4.31607 1.67085C4.42547 1.65523 4.53659 1.6837 4.625 1.75C4.71341 1.8163 4.77185 1.91501 4.78748 2.02441C4.80311 2.1338 4.77464 2.24493 4.70833 2.33333ZM4.70833 6.5L3.45833 8.16667C3.42178 8.21339 3.37584 8.25193 3.32346 8.2798C3.27109 8.30766 3.21345 8.32423 3.15428 8.32843C3.0951 8.33263 3.0357 8.32438 2.97992 8.30419C2.92413 8.28401 2.8732 8.25234 2.83042 8.21125L2.20542 7.58625C2.12952 7.50767 2.08752 7.40241 2.08847 7.29317C2.08942 7.18392 2.13324 7.07941 2.21049 7.00216C2.28775 6.92491 2.39225 6.88108 2.5015 6.88014C2.61075 6.87919 2.716 6.92118 2.79458 6.99708L3.08 7.2825L4.04167 6C4.10797 5.91159 4.20668 5.85315 4.31607 5.83752C4.42547 5.82189 4.53659 5.85036 4.625 5.91667C4.71341 5.98297 4.77185 6.08168 4.78748 6.19107C4.80311 6.30047 4.77464 6.41159 4.70833 6.5Z" fill="#76A4F6"/>
</g>
<defs>
<clipPath id="clip0_19031_131417">
<rect width="10" height="10" fill="white"/>
</clipPath>
</defs>
</svg>
