<svg width="10" height="10" viewBox="0 0 10 10" fill="none" xmlns="http://www.w3.org/2000/svg">
<path d="M2.6129 0.645162C2.6129 0.474054 2.68088 0.309955 2.80187 0.188964C2.92286 0.0679726 3.08696 5.14513e-07 3.25806 5.14513e-07H5.51613C5.55852 -7.51933e-05 5.60051 0.00820481 5.6397 0.0243672C5.67889 0.0405296 5.7145 0.0642573 5.74452 0.094194L7.03484 1.38452C7.06478 1.41453 7.0885 1.45015 7.10467 1.48934C7.12083 1.52852 7.12911 1.57051 7.12903 1.6129V1.93548C7.12903 2.02104 7.09505 2.10309 7.03455 2.16358C6.97406 2.22408 6.89201 2.25806 6.80645 2.25806H2.93548C2.84993 2.25806 2.76788 2.22408 2.70738 2.16358C2.64689 2.10309 2.6129 2.02104 2.6129 1.93548V0.645162ZM6.80645 9.67742C6.80645 9.76297 6.77247 9.84502 6.71197 9.90552C6.65147 9.96601 6.56943 10 6.48387 10H3.25806C3.17251 10 3.09046 9.96601 3.02997 9.90552C2.96947 9.84502 2.93548 9.76297 2.93548 9.67742V6.45161C2.93548 6.36606 2.96947 6.28401 3.02997 6.22351C3.09046 6.16302 3.17251 6.12903 3.25806 6.12903H6.48387C6.56943 6.12903 6.65147 6.16302 6.71197 6.22351C6.77247 6.28401 6.80645 6.36606 6.80645 6.45161V9.67742ZM8.74194 6.12903C8.74194 6.30014 8.67396 6.46424 8.55297 6.58523C8.43198 6.70622 8.26788 6.77419 8.09677 6.77419C8.01122 6.77419 7.92917 6.74021 7.86868 6.67971C7.80818 6.61922 7.77419 6.53717 7.77419 6.45161V5.80645C7.77419 5.63534 7.70622 5.47125 7.58523 5.35025C7.46424 5.22926 7.30014 5.16129 7.12903 5.16129H2.6129C2.4418 5.16129 2.2777 5.22926 2.15671 5.35025C2.03571 5.47125 1.96774 5.63534 1.96774 5.80645V6.45161C1.96774 6.53717 1.93376 6.61922 1.87326 6.67971C1.81276 6.74021 1.73072 6.77419 1.64516 6.77419C1.47405 6.77419 1.30995 6.70622 1.18896 6.58523C1.06797 6.46424 1 6.30014 1 6.12903V3.54839C1 3.37728 1.06797 3.21318 1.18896 3.09219C1.30995 2.9712 1.47405 2.90323 1.64516 2.90323H8.09677C8.26788 2.90323 8.43198 2.9712 8.55297 3.09219C8.67396 3.21318 8.74194 3.37728 8.74194 3.54839V6.12903Z" fill="#76A4F6"/>
<path d="M2.1284 4.51608C2.39564 4.51608 2.61227 4.29945 2.61227 4.03221C2.61227 3.76498 2.39564 3.54834 2.1284 3.54834C1.86117 3.54834 1.64453 3.76498 1.64453 4.03221C1.64453 4.29945 1.86117 4.51608 2.1284 4.51608Z" fill="white"/>
<path d="M5.51525 7.09668H4.22492C4.13937 7.09668 4.05732 7.13067 3.99683 7.19116C3.93633 7.25166 3.90234 7.33371 3.90234 7.41926C3.90234 7.50481 3.93633 7.58686 3.99683 7.64736C4.05732 7.70786 4.13937 7.74184 4.22492 7.74184H5.51525C5.6008 7.74184 5.68285 7.70786 5.74335 7.64736C5.80384 7.58686 5.83783 7.50481 5.83783 7.41926C5.83783 7.33371 5.80384 7.25166 5.74335 7.19116C5.68285 7.13067 5.6008 7.09668 5.51525 7.09668ZM5.51525 8.387H4.22492C4.13937 8.387 4.05732 8.42099 3.99683 8.48148C3.93633 8.54198 3.90234 8.62403 3.90234 8.70958C3.90234 8.79514 3.93633 8.87719 3.99683 8.93768C4.05732 8.99818 4.13937 9.03216 4.22492 9.03216H5.51525C5.6008 9.03216 5.68285 8.99818 5.74335 8.93768C5.80384 8.87719 5.83783 8.79514 5.83783 8.70958C5.83783 8.62403 5.80384 8.54198 5.74335 8.48148C5.68285 8.42099 5.6008 8.387 5.51525 8.387Z" fill="white"/>
</svg>
