<svg width="32" height="32" viewBox="0 0 32 32" fill="none" xmlns="http://www.w3.org/2000/svg">
<rect width="32" height="32" rx="8" fill="#FE6955"/>
<path d="M14.8795 11.2908C15.7305 11.0886 16.6204 11.1215 17.4541 11.3859C18.2878 11.6504 19.034 12.1364 19.6128 12.7921C19.7593 12.9576 19.9656 13.0581 20.1862 13.0715C20.4068 13.085 20.6237 13.0102 20.7892 12.8638C20.9547 12.7173 21.0552 12.511 21.0686 12.2904C21.0821 12.0698 21.0073 11.8529 20.8608 11.6874C20.0825 10.8055 19.0791 10.1516 17.958 9.79572C16.8368 9.43981 15.64 9.39524 14.4955 9.66676C13.334 9.95837 12.2693 10.5496 11.4078 11.3813C10.5462 12.2131 9.91786 13.2563 9.58551 14.4068C9.57453 14.4449 9.55028 14.4778 9.51714 14.4995C9.484 14.5213 9.44417 14.5305 9.40484 14.5254L8.71618 14.4388C8.65511 14.4309 8.59306 14.4404 8.53716 14.4663C8.48126 14.4921 8.43379 14.5332 8.40018 14.5848C8.36567 14.6362 8.3462 14.6963 8.34397 14.7583C8.34173 14.8202 8.35681 14.8816 8.38751 14.9354L10.0382 17.8301C10.0639 17.8751 10.0998 17.9135 10.143 17.9422C10.1861 17.9709 10.2354 17.9891 10.2868 17.9954C10.3006 17.9964 10.3144 17.9964 10.3282 17.9954C10.3728 17.9954 10.417 17.9864 10.4581 17.969C10.4992 17.9516 10.5364 17.9261 10.5675 17.8941L12.8855 15.4988C12.9287 15.4541 12.9585 15.3983 12.9716 15.3377C12.9848 15.277 12.9807 15.2139 12.96 15.1554C12.9392 15.0969 12.9025 15.0454 12.854 15.0067C12.8055 14.9679 12.7471 14.9435 12.6855 14.9361L11.4335 14.7814C11.4089 14.778 11.3854 14.769 11.3648 14.7553C11.3441 14.7416 11.3267 14.7235 11.3139 14.7022C11.3012 14.6809 11.2933 14.6571 11.2909 14.6324C11.2885 14.6077 11.2917 14.5827 11.3002 14.5594C11.5814 13.7619 12.0553 13.0462 12.6797 12.476C13.3042 11.9058 14.0598 11.4986 14.8795 11.2908ZM23.6042 17.4001C23.6383 17.3483 23.6573 17.2881 23.659 17.2262C23.6608 17.1642 23.6453 17.103 23.6142 17.0494L21.9475 14.1634C21.9214 14.1186 21.8852 14.0805 21.8418 14.0522C21.7984 14.0238 21.749 14.006 21.6975 14.0001C21.6461 13.9933 21.5938 13.9989 21.545 14.0165C21.4962 14.034 21.4522 14.0629 21.4168 14.1008L19.1128 16.5101C19.0701 16.5548 19.0406 16.6104 19.0277 16.6709C19.0147 16.7314 19.0189 16.7942 19.0396 16.8525C19.0604 16.9107 19.0969 16.962 19.1452 17.0007C19.1934 17.0394 19.2515 17.0639 19.3128 17.0714L20.5448 17.2188C20.5697 17.2217 20.5937 17.2302 20.6148 17.2438C20.6359 17.2573 20.6537 17.2754 20.6668 17.2968C20.6799 17.3181 20.6881 17.3421 20.6908 17.367C20.6934 17.3919 20.6905 17.4171 20.6822 17.4408C20.4013 18.2382 19.9275 18.9539 19.303 19.5238C18.6784 20.0938 17.9226 20.5004 17.1028 20.7074C16.2518 20.9092 15.362 20.8761 14.5283 20.6115C13.6946 20.347 12.9485 19.861 12.3695 19.2054C12.2979 19.1206 12.21 19.0509 12.111 19.0005C12.0121 18.9501 11.9041 18.92 11.7933 18.912C11.6826 18.9039 11.5713 18.9181 11.4661 18.9536C11.3609 18.9892 11.2639 19.0454 11.1807 19.119C11.0975 19.1925 11.0299 19.282 10.9818 19.3821C10.9337 19.4821 10.9061 19.5908 10.9006 19.7017C10.895 19.8126 10.9117 19.9235 10.9497 20.0279C10.9876 20.1322 11.0461 20.228 11.1215 20.3094C11.9001 21.1912 12.9037 21.8449 14.0249 22.2006C15.1461 22.5564 16.3429 22.6009 17.4875 22.3294C18.6505 22.0381 19.7165 21.4463 20.5788 20.6132C21.441 19.7801 22.0691 18.7351 22.4002 17.5828C22.4113 17.5448 22.4354 17.512 22.4683 17.4902C22.5013 17.4683 22.5409 17.4588 22.5802 17.4634L23.2855 17.5481C23.2988 17.549 23.3122 17.549 23.3255 17.5481C23.3806 17.5484 23.4348 17.535 23.4835 17.5091C23.5321 17.4833 23.5736 17.4459 23.6042 17.4001Z" fill="white"/>
</svg>
