<svg width="32" height="32" viewBox="0 0 32 32" fill="none" xmlns="http://www.w3.org/2000/svg">
<rect width="32" height="32" rx="8" fill="white"/>
<path d="M20.7501 19.9999C20.7501 20.1988 20.671 20.3896 20.5304 20.5302C20.3897 20.6709 20.199 20.7499 20.0001 20.7499C19.8012 20.7499 19.6104 20.6709 19.4697 20.5302C19.3291 20.3896 19.2501 20.1988 19.2501 19.9999V14.1199C19.25 14.0952 19.2426 14.0711 19.2289 14.0505C19.2151 14.03 19.1955 14.014 19.1727 14.0046C19.1499 13.9952 19.1247 13.9928 19.1005 13.9976C19.0763 14.0025 19.054 14.0144 19.0366 14.0319L12.5301 20.5314C12.3893 20.672 12.1985 20.7509 11.9995 20.7507C11.8006 20.7506 11.6099 20.6714 11.4693 20.5307C11.3287 20.3899 11.2499 20.1991 11.25 20.0001C11.2501 19.8012 11.3293 19.6105 11.4701 19.4699L17.9846 12.9624C18.0021 12.9449 18.014 12.9226 18.0189 12.8984C18.0237 12.8741 18.0212 12.8489 18.0118 12.8261C18.0023 12.8032 17.9862 12.7836 17.9656 12.7699C17.945 12.7562 17.9208 12.7489 17.8961 12.7489H12.0001C11.8012 12.7489 11.6104 12.6699 11.4697 12.5292C11.3291 12.3886 11.2501 12.1978 11.2501 11.9989C11.2501 11.8 11.3291 11.6092 11.4697 11.4686C11.6104 11.3279 11.8012 11.2489 12.0001 11.2489H19.5001C19.6643 11.2489 19.8269 11.2813 19.9786 11.3442C20.1304 11.407 20.2682 11.4992 20.3843 11.6154C20.5004 11.7316 20.5924 11.8695 20.6552 12.0213C20.718 12.173 20.7502 12.3357 20.7501 12.4999V19.9999Z" fill="#222222"/>
</svg>
