<svg width="10" height="10" viewBox="0 0 10 10" fill="none" xmlns="http://www.w3.org/2000/svg">
<g clip-path="url(#clip0_18931_131244)">
<path d="M10 2.50004C10 2.33428 9.93415 2.17531 9.81694 2.0581C9.69973 1.94089 9.54076 1.87504 9.375 1.87504H0.625C0.45924 1.87504 0.300269 1.94089 0.183058 2.0581C0.065848 2.17531 0 2.33428 0 2.50004L0 3.5417C0 3.70747 0.065848 3.86644 0.183058 3.98365C0.300269 4.10086 0.45924 4.16671 0.625 4.16671H9.375C9.54076 4.16671 9.69973 4.10086 9.81694 3.98365C9.93415 3.86644 10 3.70747 10 3.5417V2.50004ZM1.35417 3.02004C1.35433 2.91706 1.38502 2.81645 1.44235 2.73091C1.49968 2.64537 1.58108 2.57874 1.67626 2.53945C1.77145 2.50015 1.87614 2.48996 1.97712 2.51015C2.0781 2.53034 2.17082 2.58001 2.24358 2.65288C2.31633 2.72575 2.36586 2.81856 2.38589 2.91957C2.40591 3.02058 2.39555 3.12526 2.35611 3.22038C2.31666 3.3155 2.24991 3.39679 2.16427 3.45399C2.07864 3.51118 1.97798 3.5417 1.875 3.5417C1.80655 3.54165 1.73878 3.52811 1.67556 3.50187C1.61234 3.47562 1.55491 3.43718 1.50654 3.38874C1.45818 3.3403 1.41983 3.28281 1.39368 3.21954C1.36754 3.15628 1.35411 3.08849 1.35417 3.02004ZM3.54167 3.5417C3.43866 3.5417 3.33796 3.51116 3.25231 3.45393C3.16666 3.3967 3.0999 3.31536 3.06048 3.22019C3.02106 3.12502 3.01074 3.02029 3.03084 2.91926C3.05094 2.81823 3.10054 2.72543 3.17338 2.65259C3.24622 2.57975 3.33903 2.53014 3.44006 2.51005C3.54109 2.48995 3.64581 2.50026 3.74098 2.53968C3.83615 2.57911 3.91749 2.64586 3.97472 2.73151C4.03195 2.81716 4.0625 2.91786 4.0625 3.02087C4.06228 3.15894 4.00734 3.29129 3.90971 3.38891C3.81208 3.48654 3.67973 3.54148 3.54167 3.5417ZM9.47292 0.855871L7.85042 0.0446215C7.79239 0.0165096 7.72864 0.00224654 7.66417 0.00295483H2.34583C2.28107 0.00293624 2.21718 0.0179105 2.15917 0.0467048L0.536667 0.855871C0.494953 0.877009 0.461565 0.911567 0.441874 0.953982C0.422183 0.996398 0.417335 1.0442 0.42811 1.08971C0.438885 1.13521 0.464656 1.17577 0.501277 1.20485C0.537897 1.23393 0.583237 1.24985 0.63 1.25004H9.38C9.42703 1.25013 9.47271 1.23431 9.5096 1.20514C9.54649 1.17598 9.57244 1.13519 9.5832 1.08941C9.59397 1.04363 9.58893 0.995554 9.56891 0.953001C9.54889 0.910448 9.51505 0.875921 9.47292 0.855038V0.855871ZM10 5.41671C10 5.25094 9.93415 5.09197 9.81694 4.97476C9.69973 4.85755 9.54076 4.79171 9.375 4.79171H0.625C0.45924 4.79171 0.300269 4.85755 0.183058 4.97476C0.065848 5.09197 0 5.25094 0 5.41671L0 6.45837C0 6.62413 0.065848 6.7831 0.183058 6.90031C0.300269 7.01752 0.45924 7.08337 0.625 7.08337H4.47917C4.50679 7.08337 4.53329 7.09435 4.55282 7.11388C4.57236 7.13342 4.58333 7.15991 4.58333 7.18754V9.06254C4.58333 9.09017 4.57236 9.11666 4.55282 9.1362C4.53329 9.15573 4.50679 9.16671 4.47917 9.16671H2.29167C2.18116 9.16671 2.07518 9.2106 1.99704 9.28874C1.9189 9.36688 1.875 9.47287 1.875 9.58337C1.875 9.69388 1.9189 9.79986 1.99704 9.878C2.07518 9.95614 2.18116 10 2.29167 10H7.70833C7.81884 10 7.92482 9.95614 8.00296 9.878C8.0811 9.79986 8.125 9.69388 8.125 9.58337C8.125 9.47287 8.0811 9.36688 8.00296 9.28874C7.92482 9.2106 7.81884 9.16671 7.70833 9.16671H5.52083C5.49321 9.16671 5.46671 9.15573 5.44718 9.1362C5.42764 9.11666 5.41667 9.09017 5.41667 9.06254V7.18754C5.41667 7.15991 5.42764 7.13342 5.44718 7.11388C5.46671 7.09435 5.49321 7.08337 5.52083 7.08337H9.375C9.54076 7.08337 9.69973 7.01752 9.81694 6.90031C9.93415 6.7831 10 6.62413 10 6.45837V5.41671ZM1.35417 5.93671C1.35433 5.83373 1.38502 5.73311 1.44235 5.64757C1.49968 5.56203 1.58108 5.49541 1.67626 5.45611C1.77145 5.41682 1.87614 5.40662 1.97712 5.42681C2.0781 5.447 2.17082 5.49668 2.24358 5.56955C2.31633 5.64242 2.36586 5.73523 2.38589 5.83624C2.40591 5.93724 2.39555 6.04192 2.35611 6.13704C2.31666 6.23217 2.24991 6.31346 2.16427 6.37065C2.07864 6.42785 1.97798 6.45837 1.875 6.45837C1.80655 6.45832 1.73878 6.44478 1.67556 6.41853C1.61234 6.39229 1.55491 6.35385 1.50654 6.30541C1.45818 6.25697 1.41983 6.19947 1.39368 6.13621C1.36754 6.07295 1.35411 6.00516 1.35417 5.93671ZM3.54167 6.45837C3.43866 6.45837 3.33796 6.42783 3.25231 6.3706C3.16666 6.31337 3.0999 6.23202 3.06048 6.13685C3.02106 6.04168 3.01074 5.93696 3.03084 5.83593C3.05094 5.7349 3.10054 5.64209 3.17338 5.56925C3.24622 5.49641 3.33903 5.44681 3.44006 5.42671C3.54109 5.40662 3.64581 5.41693 3.74098 5.45635C3.83615 5.49577 3.91749 5.56253 3.97472 5.64818C4.03195 5.73383 4.0625 5.83453 4.0625 5.93754C4.06228 6.0756 4.00734 6.20795 3.90971 6.30558C3.81208 6.40321 3.67973 6.45815 3.54167 6.45837ZM9.58333 10C9.69384 10 9.79982 9.95614 9.87796 9.878C9.9561 9.79986 10 9.69388 10 9.58337C10 9.47287 9.9561 9.36688 9.87796 9.28874C9.79982 9.2106 9.69384 9.16671 9.58333 9.16671H9.16667C9.05616 9.16671 8.95018 9.2106 8.87204 9.28874C8.7939 9.36688 8.75 9.47287 8.75 9.58337C8.75 9.69388 8.7939 9.79986 8.87204 9.878C8.95018 9.95614 9.05616 10 9.16667 10H9.58333ZM0.416667 10H0.833333C0.94384 10 1.04982 9.95614 1.12796 9.878C1.2061 9.79986 1.25 9.69388 1.25 9.58337C1.25 9.47287 1.2061 9.36688 1.12796 9.28874C1.04982 9.2106 0.94384 9.16671 0.833333 9.16671H0.416667C0.30616 9.16671 0.200179 9.2106 0.122039 9.28874C0.0438987 9.36688 0 9.47287 0 9.58337C0 9.69388 0.0438987 9.79986 0.122039 9.878C0.200179 9.95614 0.30616 10 0.416667 10Z" fill="#76A4F6"/>
</g>
<defs>
<clipPath id="clip0_18931_131244">
<rect width="10" height="10" fill="white"/>
</clipPath>
</defs>
</svg>
