<svg width="10" height="10" viewBox="0 0 10 10" fill="none" xmlns="http://www.w3.org/2000/svg">
<g clip-path="url(#clip0_18931_131297)">
<path d="M9.83761 0.0937659C9.77114 0.0415478 9.69092 0.00980287 9.60672 0.00240409C9.52252 -0.00499469 9.43799 0.0122726 9.36344 0.0520992L0.343855 4.85252C0.235231 4.90934 0.145062 4.99596 0.0839262 5.10221C0.0227899 5.20847 -0.00677886 5.32996 -0.00131161 5.45242C0.00415565 5.57489 0.0444322 5.69326 0.114794 5.79364C0.185155 5.89403 0.282683 5.97227 0.395939 6.01918L1.75177 6.59418C1.75177 6.62899 1.75783 6.66354 1.76969 6.69627L2.81136 9.5071C2.86551 9.65256 2.96307 9.77786 3.09081 9.86603C3.21855 9.9542 3.37031 10.001 3.52552 10C3.71326 9.99838 3.89391 9.92813 4.03344 9.80252C4.04969 9.78793 5.19594 8.52002 5.45011 8.23835C5.46461 8.22228 5.48378 8.21115 5.50492 8.20652C5.52606 8.20189 5.54813 8.20398 5.56802 8.21252L6.88344 8.77043C6.96943 8.80681 7.06213 8.82461 7.15547 8.82267C7.24882 8.82073 7.3407 8.7991 7.42511 8.75918C7.5089 8.7196 7.58328 8.66258 7.64328 8.59195C7.70328 8.52132 7.74751 8.43869 7.77302 8.3496L9.98302 0.541683C10.006 0.46102 10.0044 0.375351 9.97851 0.295585C9.95261 0.215819 9.90356 0.145564 9.83761 0.0937659ZM2.43177 6.68585L6.47011 3.32627C6.47943 3.31681 6.49064 3.30944 6.50302 3.30462C6.51539 3.29981 6.52864 3.29767 6.5419 3.29834C6.55516 3.299 6.56813 3.30247 6.57996 3.3085C6.59178 3.31454 6.6022 3.32301 6.61052 3.33335C6.62099 3.34133 6.6296 3.35148 6.63578 3.36311C6.64195 3.37473 6.64554 3.38755 6.64629 3.4007C6.64704 3.41384 6.64494 3.42699 6.64014 3.43924C6.63533 3.45149 6.62793 3.46256 6.61844 3.47168L3.60261 7.16127C3.56809 7.20327 3.54549 7.25378 3.53719 7.30752L3.27344 8.95335L2.43177 6.68585Z" fill="#76A4F6"/>
</g>
<defs>
<clipPath id="clip0_18931_131297">
<rect width="10" height="10" fill="white"/>
</clipPath>
</defs>
</svg>
