<svg width="10" height="10" viewBox="0 0 10 10" fill="none" xmlns="http://www.w3.org/2000/svg">
<g clip-path="url(#clip0_18931_131320)">
<path d="M7.29232 4.58325C6.75666 4.58325 6.23303 4.74209 5.78765 5.03969C5.34227 5.33728 4.99513 5.76027 4.79015 6.25515C4.58516 6.75003 4.53152 7.29459 4.63603 7.81995C4.74053 8.34532 4.99847 8.8279 5.37724 9.20666C5.75601 9.58543 6.23858 9.84338 6.76395 9.94788C7.28931 10.0524 7.83387 9.99874 8.32875 9.79376C8.82364 9.58877 9.24662 9.24164 9.54422 8.79625C9.84181 8.35087 10.0007 7.82724 10.0007 7.29158C9.99977 6.57356 9.71415 5.8852 9.20643 5.37748C8.69871 4.86976 8.01034 4.58413 7.29232 4.58325ZM7.29232 9.16658C6.92148 9.16658 6.55897 9.05662 6.25062 8.85059C5.94228 8.64456 5.70196 8.35173 5.56004 8.00912C5.41813 7.6665 5.381 7.2895 5.45335 6.92579C5.52569 6.56208 5.70427 6.22798 5.96649 5.96576C6.22872 5.70354 6.56281 5.52496 6.92652 5.45261C7.29024 5.38027 7.66724 5.4174 8.00985 5.55931C8.35246 5.70123 8.6453 5.94155 8.85132 6.24989C9.05735 6.55823 9.16732 6.92074 9.16732 7.29158C9.16677 7.7887 8.96905 8.26529 8.61754 8.6168C8.26602 8.96831 7.78943 9.16603 7.29232 9.16658Z" fill="#76A4F6"/>
<path d="M8.54092 7.29167C8.54092 7.18116 8.49702 7.07518 8.41888 6.99704C8.34074 6.9189 8.23476 6.875 8.12425 6.875H7.81175C7.78412 6.875 7.75763 6.86403 7.73809 6.84449C7.71856 6.82496 7.70758 6.79846 7.70758 6.77083V6.35417C7.70758 6.24366 7.66369 6.13768 7.58555 6.05954C7.50741 5.9814 7.40142 5.9375 7.29092 5.9375C7.18041 5.9375 7.07443 5.9814 6.99629 6.05954C6.91815 6.13768 6.87425 6.24366 6.87425 6.35417V7.29167C6.87425 7.40217 6.91815 7.50815 6.99629 7.58629C7.07443 7.66443 7.18041 7.70833 7.29092 7.70833H8.12425C8.23476 7.70833 8.34074 7.66443 8.41888 7.58629C8.49702 7.50815 8.54092 7.40217 8.54092 7.29167ZM2.91592 4.16667C3.32796 4.16667 3.73075 4.04448 4.07335 3.81556C4.41596 3.58664 4.68298 3.26127 4.84067 2.88059C4.99835 2.49991 5.03961 2.08102 4.95922 1.6769C4.87883 1.27277 4.68042 0.901554 4.38906 0.610195C4.0977 0.318836 3.72648 0.120417 3.32236 0.0400316C2.91823 -0.0403543 2.49934 0.000902675 2.11866 0.158585C1.73798 0.316268 1.41261 0.583294 1.18369 0.925896C0.954769 1.2685 0.832583 1.67129 0.832583 2.08333C0.833245 2.63567 1.05295 3.16518 1.44351 3.55574C1.83407 3.9463 2.36359 4.16601 2.91592 4.16667ZM1.70758 1.77417C1.71588 1.74294 1.73133 1.71408 1.75271 1.68985C1.77408 1.66562 1.8008 1.6467 1.83075 1.63457C1.86069 1.62245 1.89305 1.61745 1.92526 1.61999C1.95747 1.62252 1.98865 1.63251 2.01633 1.64917C2.46951 1.92973 2.99126 2.07995 3.52425 2.08333C3.65382 2.08309 3.78319 2.07334 3.91133 2.05417C3.94332 2.04942 3.97597 2.05217 4.00671 2.06223C4.03745 2.07228 4.06542 2.08935 4.08842 2.11208C4.11152 2.13489 4.12898 2.16277 4.1394 2.19352C4.14982 2.22426 4.1529 2.25702 4.14842 2.28917C4.0962 2.59798 3.92995 2.87593 3.68259 3.06803C3.43522 3.26012 3.12475 3.35236 2.81263 3.32648C2.5005 3.3006 2.20947 3.15849 1.99711 2.92828C1.78476 2.69807 1.66656 2.39653 1.66592 2.08333C1.66604 1.97889 1.68005 1.87492 1.70758 1.77417ZM4.76717 5.00875C4.76253 4.97965 4.75178 4.95187 4.73562 4.92724C4.71946 4.9026 4.69826 4.88167 4.67342 4.86583C4.2665 4.60528 3.80454 4.44298 3.32408 4.39176C2.84361 4.34054 2.35782 4.40181 1.90512 4.57073C1.45242 4.73964 1.04523 5.01156 0.715748 5.36499C0.386268 5.71842 0.143536 6.14366 0.00675009 6.60708C-0.00256112 6.63828 -0.00443221 6.67122 0.00128688 6.70327C0.00700598 6.73532 0.0201561 6.76558 0.0396825 6.79163C0.0592088 6.81768 0.084568 6.83879 0.113726 6.85327C0.142884 6.86774 0.175029 6.87519 0.207583 6.875H3.80758C3.8564 6.875 3.90367 6.85785 3.94114 6.82655C3.97861 6.79525 4.00389 6.75179 4.01258 6.70375C4.1131 6.14154 4.35708 5.61482 4.72092 5.17458C4.74 5.15183 4.754 5.12527 4.76197 5.09667C4.76995 5.06807 4.77172 5.03809 4.76717 5.00875Z" fill="#76A4F6"/>
</g>
<defs>
<clipPath id="clip0_18931_131320">
<rect width="10" height="10" fill="white"/>
</clipPath>
</defs>
</svg>
