<svg width="26" height="27" viewBox="0 0 26 27" fill="none" xmlns="http://www.w3.org/2000/svg">
<rect width="26" height="26" rx="4" fill="#EBEBEB" fill-opacity="0.5"/>
<g filter="url(#filter0_d_14381_115726)">
<path d="M18.25 11.75H17.319C17.2264 11.4301 17.0985 11.1215 16.9375 10.83L17.596 10.172C17.6657 10.1023 17.721 10.0196 17.7587 9.92862C17.7964 9.8376 17.8158 9.74003 17.8158 9.6415C17.8158 9.54297 17.7964 9.4454 17.7587 9.35438C17.721 9.26335 17.6657 9.18065 17.596 9.111L16.8885 8.4045C16.7479 8.2639 16.5571 8.18491 16.3582 8.18491C16.1594 8.18491 15.9686 8.2639 15.828 8.4045L15.169 9.063C14.8779 8.9019 14.5696 8.77393 14.25 8.6815V7.75C14.25 7.55109 14.171 7.36032 14.0303 7.21967C13.8897 7.07902 13.6989 7 13.5 7H12.5C12.3011 7 12.1103 7.07902 11.9697 7.21967C11.829 7.36032 11.75 7.55109 11.75 7.75V8.6815C11.4303 8.77415 11.1219 8.9021 10.8305 9.063L10.1715 8.4045C10.0309 8.2639 9.84012 8.18491 9.64125 8.18491C9.44238 8.18491 9.25165 8.2639 9.111 8.4045L8.4035 9.1115C8.3338 9.18115 8.27852 9.26385 8.2408 9.35488C8.20308 9.4459 8.18366 9.54347 8.18366 9.642C8.18366 9.74053 8.20308 9.8381 8.2408 9.92912C8.27852 10.0201 8.3338 10.1028 8.4035 10.1725L9.0625 10.831C8.90129 11.1221 8.77332 11.4303 8.681 11.75H7.75C7.55109 11.75 7.36032 11.829 7.21967 11.9697C7.07902 12.1103 7 12.3011 7 12.5V13.5C7 13.6989 7.07902 13.8897 7.21967 14.0303C7.36032 14.171 7.55109 14.25 7.75 14.25H8.681C8.77329 14.5698 8.90126 14.8783 9.0625 15.1695L8.403 15.829C8.2624 15.9696 8.18341 16.1604 8.18341 16.3593C8.18341 16.5581 8.2624 16.7489 8.403 16.8895L9.11 17.5965C9.25341 17.732 9.44322 17.8075 9.6405 17.8075C9.83778 17.8075 10.0276 17.732 10.171 17.5965L10.83 16.938C11.1215 17.0991 11.4301 17.2272 11.75 17.32V18.25C11.75 18.4489 11.829 18.6397 11.9697 18.7803C12.1103 18.921 12.3011 19 12.5 19H13.5C13.6989 19 13.8897 18.921 14.0303 18.7803C14.171 18.6397 14.25 18.4489 14.25 18.25V17.32C14.5697 17.2274 14.8781 17.0994 15.1695 16.9385L15.8285 17.597C15.9691 17.7376 16.1599 17.8166 16.3587 17.8166C16.5576 17.8166 16.7484 17.7376 16.889 17.597L17.596 16.89C17.7366 16.7494 17.8156 16.5586 17.8156 16.3597C17.8156 16.1609 17.7366 15.9701 17.596 15.8295L16.9375 15.171C17.0987 14.8796 17.2266 14.571 17.319 14.251H18.25C18.3486 14.251 18.4462 14.2316 18.5372 14.1938C18.6283 14.1561 18.711 14.1007 18.7807 14.031C18.8503 13.9612 18.9056 13.8784 18.9432 13.7873C18.9808 13.6962 19.0001 13.5986 19 13.5V12.5C19 12.3011 18.921 12.1103 18.7803 11.9697C18.6397 11.829 18.4489 11.75 18.25 11.75ZM13 15.5C12.5055 15.5 12.0222 15.3534 11.6111 15.0787C11.2 14.804 10.8795 14.4135 10.6903 13.9567C10.5011 13.4999 10.4516 12.9972 10.548 12.5123C10.6445 12.0273 10.8826 11.5819 11.2322 11.2322C11.5819 10.8826 12.0273 10.6445 12.5123 10.548C12.9972 10.4516 13.4999 10.5011 13.9567 10.6903C14.4135 10.8795 14.804 11.2 15.0787 11.6111C15.3534 12.0222 15.5 12.5055 15.5 13C15.4992 13.6628 15.2356 14.2982 14.7669 14.7669C14.2982 15.2356 13.6628 15.4992 13 15.5Z" fill="#717171"/>
</g>
<defs>
<filter id="filter0_d_14381_115726" x="3" y="7" width="20" height="20" filterUnits="userSpaceOnUse" color-interpolation-filters="sRGB">
<feFlood flood-opacity="0" result="BackgroundImageFix"/>
<feColorMatrix in="SourceAlpha" type="matrix" values="0 0 0 0 0 0 0 0 0 0 0 0 0 0 0 0 0 0 127 0" result="hardAlpha"/>
<feOffset dy="4"/>
<feGaussianBlur stdDeviation="2"/>
<feColorMatrix type="matrix" values="0 0 0 0 0 0 0 0 0 0 0 0 0 0 0 0 0 0 0.05 0"/>
<feBlend mode="normal" in2="BackgroundImageFix" result="effect1_dropShadow_14381_115726"/>
<feBlend mode="normal" in="SourceGraphic" in2="effect1_dropShadow_14381_115726" result="shape"/>
</filter>
</defs>
</svg>
