<svg width="10" height="10" viewBox="0 0 10 10" fill="none" xmlns="http://www.w3.org/2000/svg">
<g clip-path="url(#clip0_18931_131257)">
<path d="M7.08333 8.75C7.08333 8.86051 7.03943 8.96649 6.96129 9.04463C6.88315 9.12277 6.77717 9.16667 6.66667 9.16667H1.25C1.13949 9.16667 1.03351 9.12277 0.955372 9.04463C0.877232 8.96649 0.833333 8.86051 0.833333 8.75V1.25C0.833333 1.13949 0.877232 1.03351 0.955372 0.955372C1.03351 0.877232 1.13949 0.833333 1.25 0.833333H1.97917C2.00679 0.833333 2.03329 0.844308 2.05282 0.863843C2.07236 0.883378 2.08333 0.909873 2.08333 0.9375V1.45833C2.08333 1.62409 2.14918 1.78306 2.26639 1.90028C2.3836 2.01749 2.54257 2.08333 2.70833 2.08333H5.20833C5.37409 2.08333 5.53306 2.01749 5.65028 1.90028C5.76749 1.78306 5.83333 1.62409 5.83333 1.45833V0.937083C5.83344 0.909529 5.84447 0.883141 5.86399 0.863696C5.88351 0.844251 5.90995 0.833333 5.9375 0.833333H6.66667C6.77717 0.833333 6.88315 0.877232 6.96129 0.955372C7.03943 1.03351 7.08333 1.13949 7.08333 1.25V3.46417C7.0833 3.4848 7.08939 3.50497 7.10083 3.52214C7.11227 3.5393 7.12855 3.55268 7.14761 3.56058C7.16667 3.56848 7.18764 3.57054 7.20787 3.56651C7.2281 3.56247 7.24668 3.55252 7.26125 3.53792L7.88625 2.91292C7.89594 2.90324 7.90361 2.89174 7.90883 2.87908C7.91405 2.86642 7.91671 2.85286 7.91667 2.83917V1.25C7.91667 0.918479 7.78497 0.600537 7.55055 0.366116C7.31613 0.131696 6.99819 0 6.66667 0L1.25 0C0.918479 0 0.600537 0.131696 0.366116 0.366116C0.131696 0.600537 0 0.918479 0 1.25L0 8.75C0 9.08152 0.131696 9.39946 0.366116 9.63388C0.600537 9.8683 0.918479 10 1.25 10H6.66667C6.99819 10 7.31613 9.8683 7.55055 9.63388C7.78497 9.39946 7.91667 9.08152 7.91667 8.75V6.56833C7.9167 6.5477 7.91061 6.52753 7.89917 6.51036C7.88773 6.4932 7.87145 6.47982 7.85239 6.47192C7.83333 6.46402 7.81236 6.46196 7.79213 6.46599C7.7719 6.47003 7.75332 6.47998 7.73875 6.49458L7.11375 7.11958C7.10406 7.12926 7.09639 7.14076 7.09117 7.15342C7.08595 7.16608 7.08329 7.17964 7.08333 7.19333V8.75Z" fill="#76A4F6"/>
<path d="M3.529 2.7762C3.46413 2.72457 3.38144 2.70076 3.29905 2.70998C3.21666 2.71919 3.14127 2.76069 3.08941 2.82537L2.54775 3.50329C2.53867 3.51479 2.52725 3.52423 2.51425 3.53098C2.50125 3.53773 2.48696 3.54164 2.47233 3.54245C2.45767 3.54325 2.44301 3.54096 2.4293 3.53572C2.41559 3.53047 2.40314 3.52241 2.39275 3.51204L2.09691 3.2162C2.06789 3.18715 2.03342 3.16409 1.99548 3.14836C1.95755 3.13262 1.91688 3.12452 1.87581 3.1245C1.83474 3.12448 1.79407 3.13255 1.75612 3.14825C1.71817 3.16395 1.68368 3.18697 1.65462 3.21599C1.62557 3.24502 1.60251 3.27949 1.58678 3.31742C1.57104 3.35536 1.56294 3.39603 1.56292 3.4371C1.5629 3.47817 1.57097 3.51884 1.58667 3.55679C1.60237 3.59474 1.62539 3.62923 1.65441 3.65829L2.27941 4.28329C2.31075 4.31385 2.34809 4.33758 2.38907 4.35297C2.43006 4.36835 2.47379 4.37506 2.51749 4.37267C2.5612 4.37029 2.60394 4.35885 2.643 4.33909C2.68206 4.31932 2.7166 4.29167 2.74441 4.25787L3.57775 3.2162C3.60345 3.18412 3.62258 3.14728 3.63404 3.1078C3.64551 3.06832 3.64907 3.02696 3.64455 2.9861C3.64002 2.94524 3.62748 2.90567 3.60766 2.86965C3.58783 2.83364 3.5611 2.80188 3.529 2.7762ZM3.529 5.06787C3.46413 5.01624 3.38144 4.99243 3.29905 5.00164C3.21666 5.01086 3.14127 5.05235 3.08941 5.11704L2.54775 5.79495C2.5385 5.8064 2.52692 5.81575 2.51377 5.82236C2.50062 5.82897 2.4862 5.8327 2.4715 5.83329C2.45684 5.83408 2.44218 5.83179 2.42847 5.82655C2.41476 5.82131 2.4023 5.81324 2.39191 5.80287L2.09608 5.50704C2.067 5.47804 2.03249 5.45505 1.99452 5.43938C1.95656 5.42372 1.91588 5.41569 1.87481 5.41575C1.83374 5.4158 1.79308 5.42395 1.75516 5.43972C1.71723 5.45549 1.68279 5.47858 1.65379 5.50766C1.62479 5.53674 1.6018 5.57125 1.58614 5.60922C1.57047 5.64719 1.56244 5.68787 1.5625 5.72894C1.56256 5.77001 1.57071 5.81066 1.58648 5.84859C1.60225 5.88651 1.62533 5.92095 1.65441 5.94995L2.27941 6.57495C2.31075 6.60552 2.34809 6.62925 2.38907 6.64463C2.43006 6.66002 2.47379 6.66673 2.51749 6.66434C2.5612 6.66195 2.60394 6.65051 2.643 6.63075C2.68206 6.61099 2.7166 6.58333 2.74441 6.54954L3.57775 5.50787C3.60345 5.47578 3.62258 5.43895 3.63404 5.39946C3.64551 5.35998 3.64907 5.31863 3.64455 5.27777C3.64002 5.23691 3.62748 5.19734 3.60766 5.16132C3.58783 5.12531 3.5611 5.09355 3.529 5.06787ZM5.93775 3.54162H4.47941C4.39653 3.54162 4.31705 3.57454 4.25844 3.63315C4.19984 3.69175 4.16691 3.77124 4.16691 3.85412C4.16691 3.937 4.19984 4.01648 4.25844 4.07509C4.31705 4.13369 4.39653 4.16662 4.47941 4.16662H5.93775C6.02063 4.16662 6.10011 4.13369 6.15872 4.07509C6.21732 4.01648 6.25025 3.937 6.25025 3.85412C6.25025 3.77124 6.21732 3.69175 6.15872 3.63315C6.10011 3.57454 6.02063 3.54162 5.93775 3.54162ZM9.82775 3.52204C9.88247 3.46732 9.92587 3.40236 9.95548 3.33087C9.9851 3.25938 10.0003 3.18275 10.0003 3.10537C10.0003 3.02799 9.9851 2.95136 9.95548 2.87987C9.92587 2.80838 9.88247 2.74342 9.82775 2.6887C9.77303 2.63398 9.70807 2.59058 9.63658 2.56097C9.56509 2.53135 9.48846 2.51611 9.41108 2.51611C9.3337 2.51611 9.25707 2.53135 9.18558 2.56097C9.11409 2.59058 9.04913 2.63398 8.99442 2.6887L4.82233 6.86079C4.81075 6.87245 4.80217 6.88675 4.79733 6.90245L4.52025 7.73579C4.50808 7.77246 4.50635 7.81179 4.51526 7.84939C4.52416 7.88699 4.54335 7.92137 4.57067 7.9487C4.59799 7.97602 4.63237 7.9952 4.66997 8.00411C4.70757 8.01301 4.74691 8.01129 4.78358 7.99912L5.61691 7.72204C5.63262 7.71719 5.64692 7.70861 5.65858 7.69704L9.82775 3.52204Z" fill="#76A4F6"/>
</g>
<defs>
<clipPath id="clip0_18931_131257">
<rect width="10" height="10" fill="white"/>
</clipPath>
</defs>
</svg>
