<svg width="10" height="10" viewBox="0 0 10 10" fill="none" xmlns="http://www.w3.org/2000/svg">
<path d="M9.79232 3.75C9.79232 3.41848 9.66062 3.10054 9.4262 2.86612C9.19178 2.6317 8.87384 2.5 8.54232 2.5H8.43398C8.40772 2.50007 8.38241 2.49017 8.36315 2.47231C8.3439 2.45445 8.33213 2.42995 8.33023 2.40375C8.30599 2.08983 8.16418 1.79663 7.93313 1.58273C7.70209 1.36884 7.39884 1.25001 7.08398 1.25H6.97565C6.94939 1.25007 6.92407 1.24017 6.90482 1.22231C6.88556 1.20445 6.8738 1.17995 6.8719 1.15375C6.84766 0.839832 6.70584 0.546626 6.4748 0.332731C6.24376 0.118836 5.9405 9.78965e-06 5.62565 0L1.45898 0C1.12746 0 0.809521 0.131696 0.575101 0.366116C0.34068 0.600537 0.208984 0.918479 0.208984 1.25V6.25C0.208984 6.58152 0.34068 6.89946 0.575101 7.13388C0.809521 7.3683 1.12746 7.5 1.45898 7.5H1.56732C1.59355 7.50003 1.61881 7.50996 1.63805 7.5278C1.65728 7.54564 1.66907 7.57009 1.67107 7.59625C1.69531 7.91017 1.83713 8.20337 2.06817 8.41727C2.29921 8.63116 2.60247 8.74999 2.91732 8.75H3.02565C3.05186 8.75012 3.07706 8.76009 3.09628 8.77791C3.11549 8.79574 3.12731 8.82012 3.1294 8.84625C3.15364 9.16017 3.29546 9.45337 3.5265 9.66727C3.75755 9.88116 4.0608 9.99999 4.37565 10H8.54232C8.87384 10 9.19178 9.8683 9.4262 9.63388C9.66062 9.39946 9.79232 9.08152 9.79232 8.75V3.75ZM1.45898 6.66667C1.34848 6.66667 1.2425 6.62277 1.16436 6.54463C1.08622 6.46649 1.04232 6.36051 1.04232 6.25V1.25C1.04232 1.13949 1.08622 1.03351 1.16436 0.955372C1.2425 0.877232 1.34848 0.833333 1.45898 0.833333H5.62565C5.71185 0.833327 5.79592 0.860052 5.86629 0.909827C5.93666 0.959601 5.98987 1.02997 6.01857 1.11125C6.0241 1.12696 6.02578 1.14377 6.02347 1.16027C6.02116 1.17677 6.01493 1.19247 6.0053 1.20606C5.99566 1.21966 5.98291 1.23074 5.96811 1.23838C5.95331 1.24603 5.93689 1.25001 5.92023 1.25H2.91732C2.5858 1.25 2.26785 1.3817 2.03343 1.61612C1.79901 1.85054 1.66732 2.16848 1.66732 2.5V6.5625C1.66737 6.57619 1.66472 6.58977 1.6595 6.60243C1.65429 6.61509 1.64661 6.6266 1.63693 6.63628C1.62725 6.64596 1.61574 6.65363 1.60308 6.65885C1.59042 6.66406 1.57685 6.66672 1.56315 6.66667H1.45898ZM2.91732 7.91667C2.80681 7.91667 2.70083 7.87277 2.62269 7.79463C2.54455 7.71649 2.50065 7.61051 2.50065 7.5V2.5C2.50065 2.38949 2.54455 2.28351 2.62269 2.20537C2.70083 2.12723 2.80681 2.08333 2.91732 2.08333H7.08398C7.17018 2.08333 7.25425 2.11005 7.32463 2.15983C7.395 2.2096 7.4482 2.27997 7.4769 2.36125C7.48243 2.37696 7.48411 2.39377 7.4818 2.41027C7.4795 2.42677 7.47326 2.44247 7.46363 2.45606C7.454 2.46966 7.44125 2.48074 7.42645 2.48838C7.41164 2.49603 7.39523 2.50001 7.37857 2.5H4.37565C4.04413 2.5 3.72619 2.6317 3.49177 2.86612C3.25735 3.10054 3.12565 3.41848 3.12565 3.75V7.8125C3.12571 7.82619 3.12305 7.83976 3.11783 7.85243C3.11262 7.86509 3.10495 7.8766 3.09526 7.88628C3.08558 7.89596 3.07408 7.90363 3.06141 7.90885C3.04875 7.91406 3.03518 7.91672 3.02148 7.91667H2.91732ZM8.95898 8.75C8.95898 8.86051 8.91509 8.96649 8.83695 9.04463C8.75881 9.12277 8.65283 9.16667 8.54232 9.16667H4.37565C4.26514 9.16667 4.15916 9.12277 4.08102 9.04463C4.00288 8.96649 3.95898 8.86051 3.95898 8.75V3.75C3.95898 3.63949 4.00288 3.53351 4.08102 3.45537C4.15916 3.37723 4.26514 3.33333 4.37565 3.33333H8.54232C8.65283 3.33333 8.75881 3.37723 8.83695 3.45537C8.91509 3.53351 8.95898 3.63949 8.95898 3.75V8.75Z" fill="#76A4F6"/>
<path d="M8.02167 4.79175H4.90429C4.82141 4.79175 4.74193 4.82467 4.68332 4.88328C4.62472 4.94188 4.59179 5.02137 4.59179 5.10425C4.59179 5.18713 4.62472 5.26661 4.68332 5.32522C4.74193 5.38382 4.82141 5.41675 4.90429 5.41675H8.02167C8.10455 5.41675 8.18404 5.38382 8.24264 5.32522C8.30125 5.26661 8.33417 5.18713 8.33417 5.10425C8.33417 5.02137 8.30125 4.94188 8.24264 4.88328C8.18404 4.82467 8.10455 4.79175 8.02167 4.79175ZM8.33417 7.3955C8.33417 7.31262 8.30125 7.23313 8.24264 7.17453C8.18404 7.11592 8.10455 7.083 8.02167 7.083H4.90429C4.82141 7.083 4.74193 7.11592 4.68332 7.17453C4.62472 7.23313 4.59179 7.31262 4.59179 7.3955C4.59179 7.47838 4.62472 7.55786 4.68332 7.61647C4.74193 7.67507 4.82141 7.708 4.90429 7.708H8.02167C8.10455 7.708 8.18404 7.67507 8.24264 7.61647C8.30125 7.55786 8.33417 7.47838 8.33417 7.3955Z" fill="#76A4F6"/>
</svg>
