<svg width="10" height="10" viewBox="0 0 10 10" fill="none" xmlns="http://www.w3.org/2000/svg">
<g clip-path="url(#clip0_18931_131274)">
<path d="M8.54232 0.833249H6.45898C6.44139 0.833176 6.42412 0.82848 6.40891 0.819631C6.3937 0.810783 6.38108 0.798093 6.37232 0.782832C6.23127 0.544352 6.03052 0.346738 5.78985 0.209466C5.54917 0.0721935 5.27689 0 4.99982 0C4.72275 0 4.45046 0.0721935 4.20979 0.209466C3.96912 0.346738 3.76836 0.544352 3.62732 0.782832C3.6187 0.797852 3.60634 0.810387 3.59145 0.819221C3.57656 0.828055 3.55963 0.832888 3.54232 0.833249H1.45898C1.29322 0.833249 1.13425 0.899097 1.01704 1.01631C0.899832 1.13352 0.833984 1.29249 0.833984 1.45825V9.37492C0.833984 9.54068 0.899832 9.69965 1.01704 9.81686C1.13425 9.93407 1.29322 9.99992 1.45898 9.99992H8.54232C8.70808 9.99992 8.86705 9.93407 8.98426 9.81686C9.10147 9.69965 9.16732 9.54068 9.16732 9.37492V1.45825C9.16732 1.29249 9.10147 1.13352 8.98426 1.01631C8.86705 0.899097 8.70808 0.833249 8.54232 0.833249ZM7.91732 6.77492C7.91744 7.02333 7.82877 7.26362 7.66732 7.45242L6.86773 8.38575C6.76986 8.49994 6.64842 8.59158 6.51176 8.65437C6.3751 8.71716 6.22646 8.74961 6.07607 8.7495H2.29232C2.23706 8.7495 2.18407 8.72755 2.145 8.68848C2.10593 8.64941 2.08398 8.59642 2.08398 8.54117V2.29158C2.08398 2.23633 2.10593 2.18334 2.145 2.14427C2.18407 2.1052 2.23706 2.08325 2.29232 2.08325H7.70898C7.76424 2.08325 7.81723 2.1052 7.8563 2.14427C7.89537 2.18334 7.91732 2.23633 7.91732 2.29158V6.77492Z" fill="#76A4F6"/>
<path d="M6.14648 3.33325H3.64648C3.5636 3.33325 3.48412 3.36618 3.42551 3.42478C3.36691 3.48339 3.33398 3.56287 3.33398 3.64575C3.33398 3.72863 3.36691 3.80812 3.42551 3.86672C3.48412 3.92533 3.5636 3.95825 3.64648 3.95825H6.14648C6.22936 3.95825 6.30885 3.92533 6.36745 3.86672C6.42606 3.80812 6.45898 3.72863 6.45898 3.64575C6.45898 3.56287 6.42606 3.48339 6.36745 3.42478C6.30885 3.36618 6.22936 3.33325 6.14648 3.33325ZM6.14648 4.79159H3.64648C3.5636 4.79159 3.48412 4.82451 3.42551 4.88311C3.36691 4.94172 3.33398 5.02121 3.33398 5.10409C3.33398 5.18697 3.36691 5.26645 3.42551 5.32506C3.48412 5.38366 3.5636 5.41659 3.64648 5.41659H6.14648C6.22936 5.41659 6.30885 5.38366 6.36745 5.32506C6.42606 5.26645 6.45898 5.18697 6.45898 5.10409C6.45898 5.02121 6.42606 4.94172 6.36745 4.88311C6.30885 4.82451 6.22936 4.79159 6.14648 4.79159ZM5.31315 6.24992H3.64648C3.5636 6.24992 3.48412 6.28284 3.42551 6.34145C3.36691 6.40005 3.33398 6.47954 3.33398 6.56242C3.33398 6.6453 3.36691 6.72478 3.42551 6.78339C3.48412 6.84199 3.5636 6.87492 3.64648 6.87492H5.31315C5.39603 6.87492 5.47552 6.84199 5.53412 6.78339C5.59273 6.72478 5.62565 6.6453 5.62565 6.56242C5.62565 6.47954 5.59273 6.40005 5.53412 6.34145C5.47552 6.28284 5.39603 6.24992 5.31315 6.24992Z" fill="#76A4F6"/>
</g>
<defs>
<clipPath id="clip0_18931_131274">
<rect width="10" height="10" fill="white"/>
</clipPath>
</defs>
</svg>
