<svg width="18" height="18" viewBox="0 0 18 18" fill="none" xmlns="http://www.w3.org/2000/svg">
<g filter="url(#filter0_d_18931_131242)">
<path d="M10.6081 4.36442C10.6407 4.35032 10.6692 4.3281 10.6908 4.29988C10.7124 4.27166 10.7264 4.23837 10.7315 4.20319C10.7366 4.16801 10.7326 4.13211 10.7199 4.09891C10.7072 4.06572 10.6861 4.03634 10.6588 4.01357C10.4763 3.86141 10.2735 3.73535 10.0562 3.639C10.039 3.63156 10.0241 3.61956 10.0131 3.6043C10.0022 3.58903 9.99555 3.57108 9.99401 3.55236C9.99248 3.53363 9.99606 3.51484 10.0044 3.498C10.0127 3.48115 10.0254 3.46688 10.0412 3.45672C10.3813 3.23595 10.6409 2.91117 10.7813 2.53081C10.9216 2.15045 10.9353 1.73489 10.8202 1.34614C10.705 0.957389 10.4673 0.616271 10.1425 0.373673C9.81763 0.131075 9.42306 0 9.01762 0C8.61218 0 8.2176 0.131075 7.89275 0.373673C7.56791 0.616271 7.33019 0.957389 7.21507 1.34614C7.09995 1.73489 7.1136 2.15045 7.25398 2.53081C7.39436 2.91117 7.65394 3.23595 7.99401 3.45672C8.0097 3.46693 8.02234 3.4812 8.0306 3.498C8.03886 3.51481 8.04244 3.53353 8.04095 3.55219C8.03945 3.57086 8.03295 3.58878 8.02213 3.60405C8.0113 3.61933 7.99655 3.63141 7.97944 3.639C7.7569 3.7373 7.5495 3.86678 7.36348 4.02356C7.33655 4.04632 7.31584 4.07555 7.3033 4.10851C7.29075 4.14147 7.28679 4.17707 7.29179 4.21198C7.29678 4.24689 7.31056 4.27995 7.33184 4.30807C7.35312 4.33619 7.38119 4.35845 7.41343 4.37274C7.7983 4.54481 8.13376 4.81086 8.38897 5.14643C8.40835 5.17228 8.43349 5.19325 8.46238 5.2077C8.49127 5.22215 8.52314 5.22967 8.55544 5.22967H9.44358C9.47589 5.22967 9.50775 5.22215 9.53665 5.2077C9.56554 5.19325 9.59068 5.17228 9.61006 5.14643C9.87047 4.80479 10.2141 4.53556 10.6081 4.36442ZM8.03063 1.55141C8.03593 1.53662 8.04452 1.52322 8.05574 1.51221C8.06697 1.50121 8.08054 1.49289 8.09544 1.48789C8.11033 1.48288 8.12617 1.48132 8.14176 1.48331C8.15735 1.4853 8.17229 1.4908 8.18545 1.49939C8.57805 1.75563 9.03677 1.89201 9.5056 1.89185C9.65029 1.89116 9.79461 1.87723 9.93676 1.85024C9.95219 1.84739 9.96806 1.84808 9.98319 1.85223C9.99831 1.85639 10.0123 1.86391 10.0241 1.87424C10.0359 1.88457 10.0452 1.89743 10.0514 1.91187C10.0575 1.92631 10.0603 1.94194 10.0595 1.95761C10.0443 2.23016 9.92308 2.48594 9.72177 2.67029C9.52046 2.85464 9.25503 2.95295 8.9822 2.9442C8.70937 2.93545 8.45078 2.82034 8.26169 2.62346C8.07261 2.42659 7.96802 2.16357 7.97028 1.89061C7.97069 1.77491 7.9911 1.66015 8.03063 1.55141ZM8.27743 6.66135C8.27916 6.33509 8.19595 6.01399 8.03598 5.72963C7.876 5.44528 7.64478 5.20745 7.36504 5.03953C7.08529 4.87162 6.76667 4.7794 6.44049 4.77195C6.1143 4.7645 5.7918 4.84207 5.50468 4.99703C5.21756 5.15199 4.97571 5.37901 4.80292 5.65576C4.63012 5.93251 4.53233 6.24947 4.51916 6.57548C4.50599 6.90148 4.57789 7.2253 4.72779 7.51509C4.87769 7.80488 5.10043 8.05067 5.37411 8.22829C5.38968 8.2386 5.40221 8.25288 5.41039 8.26967C5.41856 8.28645 5.42209 8.30512 5.4206 8.32374C5.41912 8.34235 5.41267 8.36022 5.40193 8.37549C5.39119 8.39077 5.37656 8.40288 5.35955 8.41058C5.20023 8.48088 5.04862 8.5675 4.90715 8.66904C4.5863 8.89684 4.32238 9.19565 4.13596 9.54219C4.11077 9.58968 4.09829 9.64286 4.09972 9.69659C4.10115 9.75032 4.11646 9.80277 4.14414 9.84884C4.17182 9.89491 4.21095 9.93303 4.25772 9.95952C4.30449 9.98601 4.35731 9.99995 4.41106 10H8.38397C8.43772 9.99995 8.49054 9.98601 8.53731 9.95952C8.58408 9.93303 8.62321 9.89491 8.65089 9.84884C8.67857 9.80277 8.69388 9.75032 8.69531 9.69659C8.69674 9.64286 8.68426 9.58968 8.65907 9.54219C8.47276 9.19535 8.20883 8.89624 7.88788 8.6682C7.74641 8.56666 7.5948 8.48005 7.43548 8.40975C7.41837 8.40215 7.40362 8.39008 7.3928 8.3748C7.38197 8.35952 7.37547 8.34161 7.37398 8.32294C7.37249 8.30427 7.37606 8.28555 7.38432 8.26875C7.39258 8.25194 7.40523 8.23768 7.42092 8.22746C7.68297 8.05856 7.89861 7.82679 8.04821 7.55326C8.19781 7.27973 8.27661 6.97312 8.27743 6.66135ZM5.41032 6.32091C5.41562 6.30612 5.42421 6.29271 5.43543 6.28171C5.44666 6.27071 5.46023 6.26239 5.47513 6.25739C5.49002 6.25238 5.50586 6.25081 5.52145 6.25281C5.53704 6.2548 5.55198 6.2603 5.56514 6.26889C5.95774 6.52513 6.41646 6.6615 6.88529 6.66135C7.02998 6.66066 7.1743 6.64673 7.31645 6.61973C7.3319 6.61705 7.34775 6.61783 7.36286 6.622C7.37797 6.62617 7.39197 6.63364 7.40385 6.64387C7.41563 6.65419 7.42493 6.66703 7.43106 6.68145C7.43718 6.69586 7.43998 6.71147 7.43923 6.72711C7.424 6.99965 7.30277 7.25543 7.10146 7.43979C6.90015 7.62414 6.63472 7.72245 6.36189 7.7137C6.08905 7.70495 5.83047 7.58984 5.64138 7.39296C5.4523 7.19609 5.34771 6.93306 5.34997 6.6601C5.35038 6.5444 5.37079 6.42965 5.41032 6.32091ZM13.0902 8.6682C12.9487 8.56666 12.7971 8.48005 12.6378 8.40975C12.6207 8.40215 12.606 8.39008 12.5951 8.3748C12.5843 8.35952 12.5778 8.34161 12.5763 8.32294C12.5748 8.30427 12.5784 8.28555 12.5867 8.26875C12.5949 8.25194 12.6076 8.23768 12.6232 8.22746C12.9634 8.00673 13.223 7.68196 13.3634 7.30159C13.5038 6.92123 13.5175 6.50565 13.4024 6.11687C13.2873 5.72809 13.0496 5.38694 12.7248 5.14432C12.3999 4.9017 12.0053 4.77061 11.5998 4.77061C11.1944 4.77061 10.7998 4.9017 10.4749 5.14432C10.1501 5.38694 9.91237 5.72809 9.79727 6.11687C9.68217 6.50565 9.69585 6.92123 9.83627 7.30159C9.9767 7.68196 10.2363 8.00673 10.5764 8.22746C10.592 8.23776 10.6045 8.25205 10.6127 8.26884C10.6209 8.28562 10.6244 8.30429 10.6229 8.3229C10.6214 8.34152 10.615 8.35939 10.6043 8.37466C10.5935 8.38994 10.5789 8.40205 10.5619 8.40975C10.4026 8.48005 10.251 8.56666 10.1095 8.6682C9.78853 8.89624 9.5246 9.19535 9.33829 9.54219C9.3131 9.58968 9.30062 9.64286 9.30205 9.69659C9.30349 9.75032 9.31879 9.80277 9.34647 9.84884C9.37415 9.89491 9.41328 9.93303 9.46005 9.95952C9.50682 9.98601 9.55964 9.99995 9.61339 10H13.5863C13.6401 9.99995 13.6929 9.98601 13.7396 9.95952C13.7864 9.93303 13.8255 9.89491 13.8532 9.84884C13.8809 9.80277 13.8962 9.75032 13.8976 9.69659C13.8991 9.64286 13.8866 9.58968 13.8614 9.54219C13.6751 9.19535 13.4112 8.89624 13.0902 8.6682ZM10.6127 6.32091C10.618 6.30612 10.6265 6.29271 10.6378 6.28171C10.649 6.27071 10.6626 6.26239 10.6775 6.25739C10.6924 6.25238 10.7082 6.25081 10.7238 6.25281C10.7394 6.2548 10.7543 6.2603 10.7675 6.26889C11.1601 6.52513 11.6188 6.6615 12.0876 6.66135C12.2323 6.66066 12.3766 6.64673 12.5188 6.61973C12.5342 6.61705 12.5501 6.61783 12.5652 6.622C12.5803 6.62617 12.5943 6.63364 12.6062 6.64387C12.618 6.65419 12.6273 6.66703 12.6334 6.68145C12.6395 6.69586 12.6423 6.71147 12.6416 6.72711C12.6263 6.99965 12.5051 7.25543 12.3038 7.43979C12.1025 7.62414 11.837 7.72245 11.5642 7.7137C11.2914 7.70495 11.0328 7.58984 10.8437 7.39296C10.6546 7.19609 10.55 6.93306 10.5523 6.6601C10.5527 6.5444 10.5731 6.42965 10.6127 6.32091Z" fill="#76A4F6"/>
</g>
<defs>
<filter id="filter0_d_18931_131242" x="0.0996094" y="0" width="17.7988" height="18" filterUnits="userSpaceOnUse" color-interpolation-filters="sRGB">
<feFlood flood-opacity="0" result="BackgroundImageFix"/>
<feColorMatrix in="SourceAlpha" type="matrix" values="0 0 0 0 0 0 0 0 0 0 0 0 0 0 0 0 0 0 127 0" result="hardAlpha"/>
<feOffset dy="4"/>
<feGaussianBlur stdDeviation="2"/>
<feColorMatrix type="matrix" values="0 0 0 0 0 0 0 0 0 0 0 0 0 0 0 0 0 0 0.05 0"/>
<feBlend mode="normal" in2="BackgroundImageFix" result="effect1_dropShadow_18931_131242"/>
<feBlend mode="normal" in="SourceGraphic" in2="effect1_dropShadow_18931_131242" result="shape"/>
</filter>
</defs>
</svg>
