<svg width="7" height="9" viewBox="0 0 7 9" fill="none" xmlns="http://www.w3.org/2000/svg">
<path d="M6.18623 4.0172L0.857427 8.94463C0.823537 8.97445 0.77842 8.99352 0.729707 8.99862C0.680994 9.00373 0.631677 8.99455 0.590097 8.97264C0.548517 8.95073 0.517228 8.91744 0.501521 8.8784C0.485814 8.83935 0.486655 8.79695 0.5039 8.75836L2.16725 5.1789C2.17803 5.15536 2.18183 5.12997 2.17834 5.10492C2.17486 5.07988 2.16418 5.05591 2.14724 5.03509C2.13029 5.01427 2.10758 4.99721 2.08105 4.98538C2.05452 4.97355 2.02497 4.9673 1.99493 4.96717H0.424763C0.35045 4.96699 0.277486 4.95049 0.213117 4.91931C0.148748 4.88814 0.0952133 4.84337 0.0578292 4.78945C0.0204451 4.73553 0.00051225 4.67434 9.74212e-06 4.61195C-0.000492766 4.54957 0.0184527 4.48816 0.0549648 4.43382L2.95049 0.181302C2.98746 0.12628 3.04118 0.0804961 3.10616 0.0486386C3.17114 0.0167812 3.24504 -4.44182e-06 3.32029 8.40943e-07H5.45476C5.53026 -0.000136697 5.60443 0.0165991 5.66967 0.0484894C5.73491 0.0803797 5.78887 0.126275 5.82599 0.181461C5.86311 0.236647 5.88207 0.299133 5.88091 0.362503C5.87974 0.425873 5.85851 0.487842 5.81939 0.542043L4.04435 3.18334C4.02824 3.20689 4.0198 3.2336 4.01989 3.26076C4.01998 3.28793 4.0286 3.31459 4.04487 3.33807C4.06114 3.36155 4.0845 3.38102 4.11258 3.39451C4.14066 3.408 4.17249 3.41505 4.20484 3.41493H5.87412C5.9572 3.41495 6.03846 3.43536 6.10789 3.47366C6.17733 3.51195 6.23192 3.56646 6.26493 3.63046C6.29794 3.69447 6.30794 3.76518 6.29369 3.83389C6.27944 3.90261 6.24158 3.96632 6.18475 4.0172H6.18623Z" fill="#76A4F6" fill-opacity="0.8"/>
</svg>
