<svg width="12" height="11" viewBox="0 0 12 11" fill="none" xmlns="http://www.w3.org/2000/svg">
<g filter="url(#filter0_d_18931_131247)">
<path d="M8.75698 5.75039C8.54151 5.76221 8.32704 5.71342 8.13789 5.60957C7.94873 5.50571 7.79245 5.35093 7.68677 5.16279C7.67711 5.14807 7.66346 5.13639 7.64742 5.12912C7.63138 5.12185 7.61361 5.11928 7.59617 5.12172C7.57873 5.12415 7.56233 5.13149 7.5489 5.14288C7.53546 5.15427 7.52554 5.16923 7.52028 5.18604L6.9293 7.06622C6.88745 7.17795 6.81199 7.27395 6.7133 7.34099C6.61461 7.40803 6.49756 7.44282 6.37828 7.44056C6.25899 7.4383 6.14334 7.3991 6.04727 7.32836C5.95119 7.25762 5.87942 7.15883 5.84184 7.0456L4.97037 3.80047C4.96497 3.78027 4.95297 3.76246 4.93628 3.74987C4.91959 3.73728 4.89917 3.73062 4.87827 3.73097C4.85736 3.73131 4.83718 3.73864 4.82091 3.75177C4.80465 3.76491 4.79324 3.7831 4.78851 3.80347C4.70279 4.29087 4.55142 4.76441 4.33852 5.21116C4.24 5.38909 4.09207 5.53468 3.91261 5.63037C3.73315 5.72605 3.52982 5.76774 3.32718 5.75039H1.5625C1.73981 6.79885 2.28268 7.75064 3.09484 8.43699C3.90701 9.12334 4.93599 9.4999 5.99934 9.4999C7.06268 9.4999 8.09166 9.12334 8.90383 8.43699C9.716 7.75064 10.2589 6.79885 10.4362 5.75039H8.75698Z" fill="#76A4F6"/>
<path d="M3.32768 5.00039C3.67829 5.00039 3.70717 5.00039 4.04503 3.66357C4.12228 3.35871 4.21302 2.99947 4.32815 2.57799C4.36409 2.46214 4.43702 2.36127 4.53577 2.29083C4.63452 2.2204 4.75364 2.18427 4.87488 2.188C4.99624 2.18458 5.11535 2.22116 5.21388 2.29211C5.3124 2.36306 5.38487 2.46443 5.42011 2.58061L6.32007 5.92849C6.32521 5.94815 6.33662 5.9656 6.35257 5.97819C6.36852 5.99078 6.38815 5.99782 6.40846 5.99824C6.42878 5.99866 6.44868 5.99245 6.46515 5.98054C6.48161 5.96862 6.49374 5.95167 6.49969 5.93223L7.00442 4.32542C7.04143 4.21983 7.10952 4.1279 7.19973 4.06171C7.28995 3.99552 7.39807 3.95817 7.5099 3.95456C7.61835 3.94625 7.72691 3.96913 7.82278 4.02049C7.91865 4.07184 7.99784 4.14954 8.05101 4.24442C8.08851 4.31717 8.12601 4.38804 8.15788 4.45629C8.37575 4.8954 8.43912 4.99927 8.75786 4.99927H10.4997C10.4995 3.80584 10.0253 2.66135 9.1813 1.81757C8.33731 0.973796 7.1927 0.499851 5.99927 0.5C4.80584 0.500149 3.66135 0.97438 2.81757 1.81837C1.9738 2.66236 1.49985 3.80697 1.5 5.00039H3.32768Z" fill="#76A4F6"/>
</g>
<defs>
<filter id="filter0_d_18931_131247" x="0.157636" y="-0.421182" width="11.6847" height="11.6847" filterUnits="userSpaceOnUse" color-interpolation-filters="sRGB">
<feFlood flood-opacity="0" result="BackgroundImageFix"/>
<feColorMatrix in="SourceAlpha" type="matrix" values="0 0 0 0 0 0 0 0 0 0 0 0 0 0 0 0 0 0 127 0" result="hardAlpha"/>
<feOffset dy="0.421182"/>
<feGaussianBlur stdDeviation="0.421182"/>
<feColorMatrix type="matrix" values="0 0 0 0 0 0 0 0 0 0 0 0 0 0 0 0 0 0 0.15 0"/>
<feBlend mode="normal" in2="BackgroundImageFix" result="effect1_dropShadow_18931_131247"/>
<feBlend mode="normal" in="SourceGraphic" in2="effect1_dropShadow_18931_131247" result="shape"/>
</filter>
</defs>
</svg>
