<svg width="10" height="10" viewBox="0 0 10 10" fill="none" xmlns="http://www.w3.org/2000/svg">
<g filter="url(#filter0_d_18931_131232)">
<path d="M9.59329 2.5302C9.59561 2.09339 9.4842 1.66351 9.27003 1.28281C9.05586 0.902108 8.74629 0.583702 8.37177 0.358899C7.99725 0.134095 7.57067 0.0106352 7.13398 0.000656909C6.69728 -0.0093214 6.26551 0.0945261 5.88111 0.301988C5.49671 0.509451 5.17293 0.813384 4.94159 1.1839C4.71025 1.55443 4.57933 1.97877 4.5617 2.41523C4.54406 2.85168 4.64032 3.28521 4.84101 3.67319C5.0417 4.06116 5.33991 4.39023 5.70631 4.62803C5.72716 4.64182 5.74393 4.66095 5.75487 4.68342C5.76582 4.70589 5.77054 4.73089 5.76855 4.75581C5.76656 4.78072 5.75793 4.80465 5.74355 4.8251C5.72918 4.84555 5.70958 4.86177 5.68681 4.87208C5.47351 4.9662 5.27054 5.08215 5.08114 5.2181C4.65158 5.52308 4.29824 5.92314 4.04866 6.38709C4.01494 6.45065 3.99823 6.52186 4.00015 6.59379C4.00207 6.66573 4.02255 6.73594 4.05962 6.79762C4.09668 6.8593 4.14906 6.91035 4.21168 6.94581C4.27429 6.98127 4.34501 6.99994 4.41697 7H9.73593C9.80789 6.99994 9.87861 6.98127 9.94122 6.94581C10.0038 6.91035 10.0562 6.8593 10.0933 6.79762C10.1303 6.73594 10.1508 6.66573 10.1528 6.59379C10.1547 6.52186 10.138 6.45065 10.1042 6.38709C9.8548 5.92273 9.50145 5.52228 9.07176 5.21698C8.88236 5.08104 8.67938 4.96508 8.46609 4.87097C8.44318 4.8608 8.42343 4.84463 8.40894 4.82417C8.39445 4.80372 8.38574 4.77973 8.38374 4.75474C8.38175 4.72975 8.38653 4.70469 8.39759 4.68219C8.40865 4.65969 8.42558 4.64059 8.44659 4.62691C8.79743 4.40079 9.08613 4.0905 9.28641 3.72429C9.48669 3.35808 9.59219 2.94759 9.59329 2.5302ZM5.75479 2.07441C5.76189 2.0546 5.77338 2.03666 5.78841 2.02193C5.80343 2.0072 5.8216 1.99607 5.84155 1.98937C5.8615 1.98266 5.8827 1.98057 5.90357 1.98323C5.92445 1.9859 5.94444 1.99326 5.96206 2.00476C6.48768 2.34783 7.10182 2.5304 7.72948 2.5302C7.92319 2.52927 8.11642 2.51062 8.30673 2.47448C8.32741 2.47089 8.34863 2.47192 8.36886 2.47751C8.38909 2.4831 8.40784 2.4931 8.42374 2.5068C8.43951 2.52061 8.45196 2.5378 8.46017 2.5571C8.46837 2.57639 8.4721 2.59729 8.4711 2.61823C8.45071 2.98312 8.28842 3.32556 8.0189 3.57237C7.74938 3.81919 7.39402 3.9508 7.02875 3.93908C6.66348 3.92737 6.31728 3.77326 6.06413 3.50968C5.81098 3.2461 5.67096 2.89397 5.67399 2.52853C5.67453 2.37363 5.70187 2.21999 5.75479 2.07441Z" fill="#76A4F6"/>
</g>
<defs>
<filter id="filter0_d_18931_131232" x="0" y="0" width="14.1523" height="15" filterUnits="userSpaceOnUse" color-interpolation-filters="sRGB">
<feFlood flood-opacity="0" result="BackgroundImageFix"/>
<feColorMatrix in="SourceAlpha" type="matrix" values="0 0 0 0 0 0 0 0 0 0 0 0 0 0 0 0 0 0 127 0" result="hardAlpha"/>
<feOffset dy="4"/>
<feGaussianBlur stdDeviation="2"/>
<feColorMatrix type="matrix" values="0 0 0 0 0 0 0 0 0 0 0 0 0 0 0 0 0 0 0.05 0"/>
<feBlend mode="normal" in2="BackgroundImageFix" result="effect1_dropShadow_18931_131232"/>
<feBlend mode="normal" in="SourceGraphic" in2="effect1_dropShadow_18931_131232" result="shape"/>
</filter>
</defs>
</svg>
