<svg width="10" height="10" viewBox="0 0 10 10" fill="none" xmlns="http://www.w3.org/2000/svg">
<path d="M4.95778 3.95825C5.20501 3.95825 5.44669 4.03156 5.65225 4.16892C5.85781 4.30627 6.01803 4.50149 6.11263 4.7299C6.20724 4.95831 6.232 5.20964 6.18377 5.45212C6.13554 5.69459 6.01648 5.91732 5.84167 6.09214C5.66685 6.26695 5.44412 6.386 5.20165 6.43423C4.95917 6.48247 4.70784 6.45771 4.47943 6.3631C4.25102 6.26849 4.0558 6.10828 3.91845 5.90272C3.7811 5.69715 3.70778 5.45548 3.70778 5.20825C3.70778 4.87673 3.83948 4.55879 4.0739 4.32437C4.30832 4.08995 4.62626 3.95825 4.95778 3.95825ZM7.0132 8.23784C6.99492 8.26718 6.96943 8.29135 6.93916 8.30805C6.9089 8.32476 6.87486 8.33343 6.84029 8.33325H3.07445C3.03984 8.33339 3.00577 8.32465 2.9755 8.30787C2.94523 8.2911 2.91976 8.26684 2.90153 8.23742C2.88417 8.20839 2.875 8.1752 2.875 8.14138C2.875 8.10755 2.88417 8.07436 2.90153 8.04534C3.11349 7.68854 3.41459 7.39301 3.77527 7.18774C4.13596 6.98248 4.54382 6.87455 4.95883 6.87455C5.37383 6.87455 5.78169 6.98248 6.14238 7.18774C6.50306 7.39301 6.80417 7.68854 7.01612 8.04534C7.03335 8.0746 7.04219 8.10804 7.04167 8.142C7.04116 8.17595 7.03131 8.20911 7.0132 8.23784Z" fill="#76A4F6"/>
<path d="M4.95898 6.45825C5.64934 6.45825 6.20899 5.89861 6.20899 5.20825C6.20899 4.5179 5.64934 3.95825 4.95898 3.95825C4.26863 3.95825 3.70898 4.5179 3.70898 5.20825C3.70898 5.89861 4.26863 6.45825 4.95898 6.45825Z" fill="#76A4F6"/>
<path d="M4.95791 6.875C4.54276 6.87474 4.13469 6.98251 3.7738 7.18772C3.41292 7.39293 3.11164 7.68851 2.89958 8.04542C2.88222 8.07444 2.87305 8.10764 2.87305 8.14146C2.87305 8.17528 2.88222 8.20847 2.89958 8.2375C2.91799 8.26722 2.94379 8.29167 2.97446 8.30847C3.00513 8.32526 3.03962 8.33383 3.07458 8.33333H6.84042C6.87499 8.33351 6.90903 8.32484 6.93929 8.30814C6.96956 8.29143 6.99505 8.26726 7.01333 8.23792C7.03092 8.20897 7.04022 8.17575 7.04022 8.14188C7.04022 8.10801 7.03092 8.07478 7.01333 8.04583C6.80199 7.68891 6.50128 7.39322 6.14085 7.18791C5.78042 6.9826 5.37272 6.87475 4.95791 6.875Z" fill="#76A4F6"/>
<path d="M8.08334 1.25H7.04167C6.98642 1.25 6.93342 1.27195 6.89435 1.31102C6.85528 1.35009 6.83334 1.40308 6.83334 1.45833V1.875C6.83334 1.93025 6.85528 1.98324 6.89435 2.02231C6.93342 2.06138 6.98642 2.08333 7.04167 2.08333H7.875C7.93026 2.08333 7.98325 2.10528 8.02232 2.14435C8.06139 2.18342 8.08334 2.23641 8.08334 2.29167V8.95834C8.08334 9.01359 8.06139 9.06658 8.02232 9.10565C7.98325 9.14472 7.93026 9.16667 7.875 9.16667H2.04167C1.98641 9.16667 1.93342 9.14472 1.89435 9.10565C1.85528 9.06658 1.83333 9.01359 1.83333 8.95834V2.29167C1.83333 2.23641 1.85528 2.18342 1.89435 2.14435C1.93342 2.10528 1.98641 2.08333 2.04167 2.08333H2.875C2.93025 2.08333 2.98324 2.06138 3.02231 2.02231C3.06138 1.98324 3.08333 1.93025 3.08333 1.875V1.45833C3.08333 1.40308 3.06138 1.35009 3.02231 1.31102C2.98324 1.27195 2.93025 1.25 2.875 1.25H1.83333C1.61232 1.25 1.40036 1.3378 1.24408 1.49408C1.0878 1.65036 1 1.86232 1 2.08333V9.16667C1 9.38768 1.0878 9.59965 1.24408 9.75593C1.40036 9.91221 1.61232 10 1.83333 10H8.08334C8.30435 10 8.51631 9.91221 8.67259 9.75593C8.82887 9.59965 8.91667 9.38768 8.91667 9.16667V2.08333C8.91667 1.86232 8.82887 1.65036 8.67259 1.49408C8.51631 1.3378 8.30435 1.25 8.08334 1.25Z" fill="#76A4F6"/>
<path d="M3.70898 2.5C3.70898 2.66576 3.77483 2.82473 3.89204 2.94194C4.00925 3.05915 4.16822 3.125 4.33398 3.125H5.58399C5.74975 3.125 5.90872 3.05915 6.02593 2.94194C6.14314 2.82473 6.20899 2.66576 6.20899 2.5V1.25C6.20899 0.91848 6.07729 0.600537 5.84287 0.366117C5.60845 0.131696 5.29051 0 4.95898 0C4.62746 0 4.30952 0.131696 4.0751 0.366117C3.84068 0.600537 3.70898 0.91848 3.70898 1.25V2.5ZM4.54232 1.04167C4.54232 0.959258 4.56676 0.8787 4.61254 0.810179C4.65832 0.741659 4.7234 0.688254 4.79953 0.656717C4.87567 0.625181 4.95945 0.616929 5.04027 0.633006C5.1211 0.649084 5.19534 0.688767 5.25361 0.747039C5.31188 0.805311 5.35157 0.879554 5.36765 0.960379C5.38372 1.0412 5.37547 1.12498 5.34394 1.20112C5.3124 1.27725 5.25899 1.34233 5.19047 1.38811C5.12195 1.4339 5.04139 1.45833 4.95898 1.45833C4.84848 1.45833 4.7425 1.41444 4.66436 1.3363C4.58622 1.25815 4.54232 1.15217 4.54232 1.04167Z" fill="#76A4F6"/>
</svg>
