<svg width="10" height="10" viewBox="0 0 10 10" fill="none" xmlns="http://www.w3.org/2000/svg">
<path d="M9.79963 6.45251C9.78093 6.42227 9.7548 6.39732 9.72373 6.38004C9.69267 6.36275 9.65769 6.35371 9.62213 6.35376H0.712969C0.677442 6.35376 0.642506 6.36285 0.61148 6.38015C0.580455 6.39746 0.554371 6.42242 0.535707 6.45265C0.517043 6.48288 0.50642 6.51738 0.504847 6.55287C0.503274 6.58836 0.510803 6.62366 0.526719 6.65543L0.885885 7.37501C0.920465 7.44421 0.973626 7.50242 1.03942 7.54311C1.10521 7.58381 1.18103 7.60538 1.25839 7.60543H1.40547C1.4217 7.60545 1.4377 7.60927 1.45219 7.61658C1.46668 7.62388 1.47927 7.63448 1.48894 7.64751C1.49862 7.66054 1.50511 7.67565 1.50791 7.69164C1.5107 7.70763 1.50973 7.72405 1.50505 7.73959L1.0188 9.35918C1.00309 9.41159 0.997866 9.46659 1.00342 9.52103C1.00897 9.57547 1.02518 9.62829 1.05115 9.67646C1.07711 9.72463 1.11231 9.76722 1.15473 9.80178C1.19715 9.83635 1.24596 9.86222 1.29839 9.87793C1.33714 9.88978 1.37744 9.89581 1.41797 9.89584C1.50766 9.89582 1.59495 9.86686 1.66687 9.81326C1.73878 9.75966 1.79148 9.68429 1.81714 9.59834L2.39297 7.67793C2.39949 7.65648 2.41273 7.63769 2.43073 7.62434C2.44873 7.61099 2.47055 7.60377 2.49297 7.60376H7.84297C7.86531 7.60386 7.88704 7.61112 7.90496 7.62446C7.92288 7.63781 7.93605 7.65655 7.94255 7.67793L8.5188 9.59834C8.55052 9.70421 8.62299 9.79314 8.72027 9.84557C8.81756 9.898 8.93169 9.90964 9.03755 9.87793C9.14342 9.84621 9.23235 9.77374 9.28478 9.67645C9.33721 9.57917 9.34885 9.46504 9.31713 9.35918L8.83255 7.73793C8.82787 7.72235 8.82689 7.70589 8.82971 7.68987C8.83253 7.67385 8.83906 7.65872 8.84878 7.64567C8.85851 7.63263 8.87114 7.62205 8.88569 7.61477C8.90024 7.60749 8.91629 7.60372 8.93255 7.60376H9.0788C9.15623 7.6038 9.23214 7.58225 9.29801 7.54155C9.36388 7.50085 9.41711 7.44261 9.45172 7.37334L9.81047 6.65543C9.82614 6.62349 9.83337 6.58808 9.83147 6.55256C9.82957 6.51704 9.81861 6.48259 9.79963 6.45251ZM1.41797 5.10376H2.16214C2.17992 5.10372 2.19741 5.10824 2.21295 5.11688C2.22849 5.12552 2.24156 5.13799 2.25092 5.15311C2.26028 5.16823 2.26561 5.1855 2.2664 5.20326C2.2672 5.22102 2.26343 5.2387 2.25547 5.25459L2.06464 5.63584C2.0488 5.66762 2.04135 5.70292 2.04299 5.73839C2.04463 5.77385 2.05531 5.80831 2.07401 5.83849C2.09271 5.86867 2.11881 5.89357 2.14984 5.91083C2.18087 5.92809 2.2158 5.93713 2.2513 5.93709H4.33463C4.3701 5.93706 4.40498 5.92796 4.43595 5.91068C4.46692 5.89339 4.49297 5.86848 4.51162 5.83832C4.53027 5.80815 4.54091 5.77371 4.54254 5.73828C4.54416 5.70285 4.5367 5.66759 4.52088 5.63584L4.33047 5.25459C4.32252 5.23873 4.31875 5.22109 4.31953 5.20337C4.32031 5.18564 4.3256 5.1684 4.33491 5.15329C4.34421 5.13818 4.35723 5.1257 4.37271 5.11703C4.3882 5.10836 4.40564 5.1038 4.42339 5.10376H5.16797C5.49949 5.10376 5.81743 4.97206 6.05185 4.73764C6.28627 4.50322 6.41797 4.18528 6.41797 3.85376V1.35376C6.41797 1.02224 6.28627 0.704297 6.05185 0.469876C5.81743 0.235456 5.49949 0.10376 5.16797 0.10376H1.20964C0.933368 0.10376 0.668416 0.213506 0.473066 0.408857C0.277715 0.604207 0.167969 0.869159 0.167969 1.14543V3.85376C0.167969 4.18528 0.299665 4.50322 0.534085 4.73764C0.768506 4.97206 1.08645 5.10376 1.41797 5.10376ZM1.0013 1.14543C1.0013 1.09017 1.02325 1.03718 1.06232 0.998112C1.10139 0.959042 1.15438 0.937093 1.20964 0.937093H5.16797C5.27848 0.937093 5.38446 0.980992 5.4626 1.05913C5.54074 1.13727 5.58463 1.24325 5.58463 1.35376V3.22876C5.58463 3.28401 5.56269 3.337 5.52362 3.37607C5.48455 3.41514 5.43155 3.43709 5.3763 3.43709H1.20964C1.15438 3.43709 1.10139 3.41514 1.06232 3.37607C1.02325 3.337 1.0013 3.28401 1.0013 3.22876V1.14543ZM7.45963 5.93709H9.1263C9.18155 5.93709 9.23454 5.91514 9.27361 5.87607C9.31269 5.837 9.33463 5.78401 9.33463 5.72876V4.27043C9.33447 4.19026 9.31066 4.11192 9.2662 4.04522C9.22173 3.97852 9.15857 3.92641 9.08463 3.89543C9.06607 3.88732 9.05026 3.87398 9.03916 3.85703C9.02806 3.84009 9.02215 3.82027 9.02213 3.80001V3.22876C9.02213 3.14588 8.98921 3.06639 8.9306 3.00779C8.872 2.94918 8.79251 2.91626 8.70963 2.91626C8.62675 2.91626 8.54727 2.94918 8.48866 3.00779C8.43006 3.06639 8.39713 3.14588 8.39713 3.22876V3.81209C8.39708 3.82142 8.39389 3.83046 8.38809 3.83777C8.38228 3.84507 8.3742 3.85022 8.36512 3.85238C8.35604 3.85454 8.3465 3.85359 8.33803 3.84969C8.32956 3.84578 8.32264 3.83915 8.31838 3.83084L7.94755 3.08918C7.92919 3.05246 7.90378 3.01972 7.87277 2.99283C7.84176 2.96593 7.80576 2.94541 7.76682 2.93242C7.72787 2.91944 7.68675 2.91426 7.64581 2.91717C7.60486 2.92008 7.56489 2.93103 7.52818 2.94938C7.49146 2.96774 7.45872 2.99315 7.43183 3.02416C7.40493 3.05517 7.38441 3.09118 7.37142 3.13012C7.35844 3.16906 7.35326 3.21018 7.35617 3.25113C7.35908 3.29207 7.37003 3.33204 7.38838 3.36876L7.57547 3.74376C7.58175 3.75666 7.58533 3.77071 7.58597 3.78504C7.58662 3.79937 7.58432 3.81368 7.57922 3.82709C7.57392 3.84072 7.56579 3.85308 7.55538 3.86334C7.54497 3.87361 7.5325 3.88156 7.5188 3.88668C7.44044 3.91579 7.37283 3.96813 7.32503 4.03671C7.27722 4.10529 7.2515 4.18683 7.2513 4.27043V5.72876C7.2513 5.78401 7.27325 5.837 7.31232 5.87607C7.35139 5.91514 7.40438 5.93709 7.45963 5.93709Z" fill="#76A4F6"/>
</svg>
