<svg width="459" height="174" viewBox="0 0 459 174" fill="none" xmlns="http://www.w3.org/2000/svg">
<g clip-path="url(#clip0_6184:73010)">
<rect x="5.62231" y="-7.01196" width="3.41299" height="365.873" transform="rotate(45 5.62231 -7.01196)" fill="#F0F4F9"/>
<rect x="13.8137" y="-7.01196" width="3.41299" height="365.873" transform="rotate(45 13.8137 -7.01196)" fill="#F0F4F9"/>
<rect x="22.0047" y="-7.01196" width="3.41299" height="365.873" transform="rotate(45 22.0047 -7.01196)" fill="#F0F4F9"/>
<rect x="30.196" y="-7.01196" width="3.41299" height="365.873" transform="rotate(45 30.196 -7.01196)" fill="#F0F4F9"/>
<rect x="38.3871" y="-7.01196" width="3.41299" height="365.873" transform="rotate(45 38.3871 -7.01196)" fill="#F0F4F9"/>
<rect x="46.5784" y="-7.01196" width="3.41299" height="365.873" transform="rotate(45 46.5784 -7.01196)" fill="#F0F4F9"/>
<rect x="54.7694" y="-7.01196" width="3.41299" height="365.873" transform="rotate(45 54.7694 -7.01196)" fill="#F0F4F9"/>
<rect x="62.9608" y="-7.01196" width="3.41299" height="365.873" transform="rotate(45 62.9608 -7.01196)" fill="#F0F4F9"/>
<rect x="71.1518" y="-7.01196" width="3.41299" height="365.873" transform="rotate(45 71.1518 -7.01196)" fill="#F0F4F9"/>
<rect x="79.3431" y="-7.01196" width="3.41299" height="365.873" transform="rotate(45 79.3431 -7.01196)" fill="#F0F4F9"/>
<rect x="87.5342" y="-7.01196" width="3.41299" height="365.873" transform="rotate(45 87.5342 -7.01196)" fill="#F0F4F9"/>
<rect x="95.7255" y="-7.01196" width="3.41299" height="365.873" transform="rotate(45 95.7255 -7.01196)" fill="#F0F4F9"/>
<rect x="103.917" y="-7.01196" width="3.41299" height="365.873" transform="rotate(45 103.917 -7.01196)" fill="#F0F4F9"/>
<rect x="112.108" y="-7.01196" width="3.41299" height="365.873" transform="rotate(45 112.108 -7.01196)" fill="#F0F4F9"/>
<rect x="120.299" y="-7.01196" width="3.41299" height="365.873" transform="rotate(45 120.299 -7.01196)" fill="#F0F4F9"/>
<rect x="128.49" y="-7.01196" width="3.41299" height="365.873" transform="rotate(45 128.49 -7.01196)" fill="#F0F4F9"/>
<rect x="136.681" y="-7.01196" width="3.41299" height="365.873" transform="rotate(45 136.681 -7.01196)" fill="#F0F4F9"/>
<rect x="144.872" y="-7.01196" width="3.41299" height="365.873" transform="rotate(45 144.872 -7.01196)" fill="#F0F4F9"/>
<rect x="153.064" y="-7.01196" width="3.41299" height="365.873" transform="rotate(45 153.064 -7.01196)" fill="#F0F4F9"/>
<rect x="161.255" y="-7.01196" width="3.41299" height="365.873" transform="rotate(45 161.255 -7.01196)" fill="#F0F4F9"/>
<rect x="169.446" y="-7.01196" width="3.41299" height="365.873" transform="rotate(45 169.446 -7.01196)" fill="#F0F4F9"/>
<rect x="177.637" y="-7.01196" width="3.41299" height="365.873" transform="rotate(45 177.637 -7.01196)" fill="#F0F4F9"/>
<rect x="185.828" y="-7.01196" width="3.41299" height="365.873" transform="rotate(45 185.828 -7.01196)" fill="#F0F4F9"/>
<rect x="194.019" y="-7.01196" width="3.41299" height="365.873" transform="rotate(45 194.019 -7.01196)" fill="#F0F4F9"/>
<rect x="202.211" y="-7.01196" width="3.41299" height="365.873" transform="rotate(45 202.211 -7.01196)" fill="#F0F4F9"/>
<rect x="210.402" y="-7.01196" width="3.41299" height="365.873" transform="rotate(45 210.402 -7.01196)" fill="#F0F4F9"/>
<rect x="218.593" y="-7.01196" width="3.41299" height="365.873" transform="rotate(45 218.593 -7.01196)" fill="#F0F4F9"/>
<rect x="226.784" y="-7.01196" width="3.41299" height="365.873" transform="rotate(45 226.784 -7.01196)" fill="#F0F4F9"/>
<rect x="234.975" y="-7.01196" width="3.41299" height="365.873" transform="rotate(45 234.975 -7.01196)" fill="#F0F4F9"/>
<rect x="243.167" y="-7.01196" width="3.41299" height="365.873" transform="rotate(45 243.167 -7.01196)" fill="#F0F4F9"/>
<rect x="251.358" y="-7.01196" width="3.41299" height="365.873" transform="rotate(45 251.358 -7.01196)" fill="#F0F4F9"/>
<rect x="259.549" y="-7.01196" width="3.41299" height="365.873" transform="rotate(45 259.549 -7.01196)" fill="#F0F4F9"/>
<rect x="267.74" y="-7.01196" width="3.41299" height="365.873" transform="rotate(45 267.74 -7.01196)" fill="#F0F4F9"/>
<rect x="275.931" y="-7.01196" width="3.41299" height="365.873" transform="rotate(45 275.931 -7.01196)" fill="#F0F4F9"/>
<rect x="284.122" y="-7.01196" width="3.41299" height="365.873" transform="rotate(45 284.122 -7.01196)" fill="#F0F4F9"/>
<rect x="292.314" y="-7.01196" width="3.41299" height="365.873" transform="rotate(45 292.314 -7.01196)" fill="#F0F4F9"/>
<rect x="300.505" y="-7.01196" width="3.41299" height="365.873" transform="rotate(45 300.505 -7.01196)" fill="#F0F4F9"/>
<rect x="308.696" y="-7.01196" width="3.41299" height="365.873" transform="rotate(45 308.696 -7.01196)" fill="#F0F4F9"/>
<rect x="316.887" y="-7.01196" width="3.41299" height="365.873" transform="rotate(45 316.887 -7.01196)" fill="#F0F4F9"/>
<rect x="325.078" y="-7.01196" width="3.41299" height="365.873" transform="rotate(45 325.078 -7.01196)" fill="#F0F4F9"/>
<rect x="333.269" y="-7.01196" width="3.41299" height="365.873" transform="rotate(45 333.269 -7.01196)" fill="#F0F4F9"/>
<rect x="341.461" y="-7.01196" width="3.41299" height="365.873" transform="rotate(45 341.461 -7.01196)" fill="#F0F4F9"/>
<rect x="349.652" y="-7.01196" width="3.41299" height="365.873" transform="rotate(45 349.652 -7.01196)" fill="#F0F4F9"/>
<rect x="357.843" y="-7.01196" width="3.41299" height="365.873" transform="rotate(45 357.843 -7.01196)" fill="#F0F4F9"/>
<rect x="366.034" y="-7.01196" width="3.41299" height="365.873" transform="rotate(45 366.034 -7.01196)" fill="#F0F4F9"/>
<rect x="374.225" y="-7.01196" width="3.41299" height="365.873" transform="rotate(45 374.225 -7.01196)" fill="#F0F4F9"/>
<rect x="382.417" y="-7.01196" width="3.41299" height="365.873" transform="rotate(45 382.417 -7.01196)" fill="#F0F4F9"/>
<rect x="390.608" y="-7.01196" width="3.41299" height="365.873" transform="rotate(45 390.608 -7.01196)" fill="#F0F4F9"/>
<rect x="398.799" y="-7.01196" width="3.41299" height="365.873" transform="rotate(45 398.799 -7.01196)" fill="#F0F4F9"/>
<rect x="406.99" y="-7.01196" width="3.41299" height="365.873" transform="rotate(45 406.99 -7.01196)" fill="#F0F4F9"/>
<rect x="415.181" y="-7.01196" width="3.41299" height="365.873" transform="rotate(45 415.181 -7.01196)" fill="#F0F4F9"/>
<rect x="423.372" y="-7.01196" width="3.41299" height="365.873" transform="rotate(45 423.372 -7.01196)" fill="#F0F4F9"/>
<rect x="431.564" y="-7.01196" width="3.41299" height="365.873" transform="rotate(45 431.564 -7.01196)" fill="#F0F4F9"/>
<rect x="439.755" y="-7.01196" width="3.41299" height="365.873" transform="rotate(45 439.755 -7.01196)" fill="#F0F4F9"/>
<rect x="447.946" y="-7.01196" width="3.41299" height="365.873" transform="rotate(45 447.946 -7.01196)" fill="#F0F4F9"/>
<rect x="456.137" y="-7.01196" width="3.41299" height="365.873" transform="rotate(45 456.137 -7.01196)" fill="#F0F4F9"/>
<rect x="464.328" y="-7.01196" width="3.41299" height="365.873" transform="rotate(45 464.328 -7.01196)" fill="#F0F4F9"/>
<rect x="472.519" y="-7.01196" width="3.41299" height="365.873" transform="rotate(45 472.519 -7.01196)" fill="#F0F4F9"/>
<rect x="480.711" y="-7.01196" width="3.41299" height="365.873" transform="rotate(45 480.711 -7.01196)" fill="#F0F4F9"/>
<rect x="488.902" y="-7.01196" width="3.41299" height="365.873" transform="rotate(45 488.902 -7.01196)" fill="#F0F4F9"/>
<rect x="497.093" y="-7.01196" width="3.41299" height="365.873" transform="rotate(45 497.093 -7.01196)" fill="#F0F4F9"/>
<rect x="505.284" y="-7.01196" width="3.41299" height="365.873" transform="rotate(45 505.284 -7.01196)" fill="#F0F4F9"/>
<rect x="513.475" y="-7.01196" width="3.41299" height="365.873" transform="rotate(45 513.475 -7.01196)" fill="#F0F4F9"/>
<rect x="521.667" y="-7.01196" width="3.41299" height="365.873" transform="rotate(45 521.667 -7.01196)" fill="#F0F4F9"/>
<rect x="529.858" y="-7.01196" width="3.41299" height="365.873" transform="rotate(45 529.858 -7.01196)" fill="#F0F4F9"/>
<rect x="538.049" y="-7.01196" width="3.41299" height="365.873" transform="rotate(45 538.049 -7.01196)" fill="#F0F4F9"/>
<rect x="546.24" y="-7.01196" width="3.41299" height="365.873" transform="rotate(45 546.24 -7.01196)" fill="#F0F4F9"/>
<rect x="554.431" y="-7.01196" width="3.41299" height="365.873" transform="rotate(45 554.431 -7.01196)" fill="#F0F4F9"/>
<rect x="562.622" y="-7.01196" width="3.41299" height="365.873" transform="rotate(45 562.622 -7.01196)" fill="#F0F4F9"/>
<rect x="570.814" y="-7.01196" width="3.41299" height="365.873" transform="rotate(45 570.814 -7.01196)" fill="#F0F4F9"/>
<rect x="579.005" y="-7.01196" width="3.41299" height="365.873" transform="rotate(45 579.005 -7.01196)" fill="#F0F4F9"/>
<rect x="587.196" y="-7.01196" width="3.41299" height="365.873" transform="rotate(45 587.196 -7.01196)" fill="#F0F4F9"/>
<rect x="595.387" y="-7.01196" width="3.41299" height="365.873" transform="rotate(45 595.387 -7.01196)" fill="#F0F4F9"/>
<rect x="603.578" y="-7.01196" width="3.41299" height="365.873" transform="rotate(45 603.578 -7.01196)" fill="#F0F4F9"/>
<rect x="611.769" y="-7.01196" width="3.41299" height="365.873" transform="rotate(45 611.769 -7.01196)" fill="#F0F4F9"/>
<rect x="619.961" y="-7.01196" width="3.41299" height="365.873" transform="rotate(45 619.961 -7.01196)" fill="#F0F4F9"/>
<rect x="628.152" y="-7.01196" width="3.41299" height="365.873" transform="rotate(45 628.152 -7.01196)" fill="#F0F4F9"/>
<rect x="636.343" y="-7.01196" width="3.41299" height="365.873" transform="rotate(45 636.343 -7.01196)" fill="#F0F4F9"/>
<rect x="644.534" y="-7.01196" width="3.41299" height="365.873" transform="rotate(45 644.534 -7.01196)" fill="#F0F4F9"/>
<rect x="652.725" y="-7.01196" width="3.41299" height="365.873" transform="rotate(45 652.725 -7.01196)" fill="#F0F4F9"/>
<rect x="660.917" y="-7.01196" width="3.41299" height="365.873" transform="rotate(45 660.917 -7.01196)" fill="#F0F4F9"/>
<rect x="669.108" y="-7.01196" width="3.41299" height="365.873" transform="rotate(45 669.108 -7.01196)" fill="#F0F4F9"/>
<rect x="677.299" y="-7.01196" width="3.41299" height="365.873" transform="rotate(45 677.299 -7.01196)" fill="#F0F4F9"/>
<rect x="685.49" y="-7.01196" width="3.41299" height="365.873" transform="rotate(45 685.49 -7.01196)" fill="#F0F4F9"/>
<rect x="693.681" y="-7.01196" width="3.41299" height="365.873" transform="rotate(45 693.681 -7.01196)" fill="#F0F4F9"/>
<rect x="701.872" y="-7.01196" width="3.41299" height="365.873" transform="rotate(45 701.872 -7.01196)" fill="#F0F4F9"/>
<rect x="710.064" y="-7.01196" width="3.41299" height="365.873" transform="rotate(45 710.064 -7.01196)" fill="#F0F4F9"/>
</g>
<defs>
<clipPath id="clip0_6184:73010">
<rect width="459" height="174" fill="white"/>
</clipPath>
</defs>
</svg>
