<svg width="16" height="16" viewBox="0 0 16 16" fill="none" xmlns="http://www.w3.org/2000/svg">
<path d="M8.49316 1.526V2.45933C8.49321 2.54217 8.52411 2.62203 8.57983 2.68333L12.8018 7.326C12.9703 7.50962 13.0638 7.74978 13.0638 7.999C13.0638 8.24823 12.9703 8.48838 12.8018 8.672L8.57983 13.3153C8.52411 13.3766 8.49321 13.4565 8.49316 13.5393V14.4727C8.4939 14.607 8.5352 14.738 8.61166 14.8484C8.68812 14.9589 8.79616 15.0437 8.92163 15.0917C9.0471 15.1397 9.18414 15.1486 9.3148 15.1174C9.44545 15.0862 9.56363 15.0162 9.65383 14.9167L15.5292 8.45533C15.6455 8.33307 15.7104 8.17077 15.7105 8.002C15.71 7.83419 15.647 7.67258 15.5338 7.54867L9.65783 1.08667C9.56992 0.983538 9.45181 0.910667 9.3202 0.878364C9.1886 0.846061 9.05017 0.855962 8.9245 0.906666C8.79802 0.953583 8.68891 1.03806 8.61181 1.14876C8.53471 1.25946 8.49331 1.3911 8.49316 1.526Z" fill="#EBEBEB"/>
<path d="M11.3117 8.45533C11.4281 8.33307 11.493 8.17077 11.4931 8.002C11.4926 7.83419 11.4296 7.67258 11.3164 7.54867L5.44041 1.08667C5.3525 0.983538 5.23439 0.910667 5.10279 0.878364C4.97118 0.846061 4.83275 0.855962 4.70708 0.906666C4.58035 0.953366 4.47095 1.03775 4.3936 1.14847C4.31626 1.25919 4.27466 1.39094 4.27441 1.526V2.45933C4.27446 2.54217 4.30536 2.62203 4.36108 2.68333L8.58308 7.326C8.7516 7.50962 8.84509 7.74978 8.84509 7.999C8.84509 8.24823 8.7516 8.48838 8.58308 8.672L4.36241 13.3153C4.30669 13.3766 4.2758 13.4565 4.27575 13.5393V14.4727C4.27648 14.607 4.31779 14.738 4.39424 14.8484C4.4707 14.9589 4.57874 15.0437 4.70421 15.0917C4.82968 15.1397 4.96672 15.1486 5.09738 15.1174C5.22803 15.0862 5.34621 15.0162 5.43641 14.9167L11.3117 8.45533Z" fill="#EBEBEB"/>
<path d="M7.10144 8.44867C7.21293 8.32597 7.27471 8.16613 7.27471 8.00034C7.27471 7.83455 7.21293 7.6747 7.10144 7.552L1.21877 1.08067C1.12834 0.980874 1.0098 0.91081 0.878766 0.879701C0.747733 0.848592 0.610351 0.857898 0.484711 0.906394C0.35907 0.954889 0.251063 1.0403 0.174913 1.15138C0.0987622 1.26246 0.0580389 1.39399 0.0581056 1.52867V14.4707C0.0581872 14.6052 0.0989663 14.7366 0.175084 14.8475C0.251202 14.9584 0.359097 15.0437 0.484591 15.0922C0.610085 15.1406 0.747305 15.15 0.878221 15.119C1.00914 15.0881 1.12762 15.0182 1.21811 14.9187L7.10144 8.44867Z" fill="#EBEBEB"/>
</svg>
