<svg width="15" height="15" viewBox="0 0 15 15" fill="none" xmlns="http://www.w3.org/2000/svg">
<path d="M8.17944 1.43063V2.30563C8.17949 2.38329 8.20846 2.45815 8.26069 2.51563L12.2188 6.86813C12.3768 7.04027 12.4645 7.26541 12.4645 7.49906C12.4645 7.73271 12.3768 7.95786 12.2188 8.13L8.26069 12.4831C8.20846 12.5406 8.17949 12.6155 8.17944 12.6931V13.5681C8.18013 13.6941 8.21886 13.8169 8.29053 13.9204C8.36221 14.024 8.4635 14.1034 8.58113 14.1484C8.69876 14.1934 8.82723 14.2018 8.94972 14.1726C9.07221 14.1433 9.183 14.0777 9.26757 13.9844L14.7757 7.92688C14.8848 7.81225 14.9456 7.6601 14.9457 7.50188C14.9452 7.34455 14.8862 7.19304 14.7801 7.07688L9.27132 1.01875C9.1889 0.922068 9.07817 0.853751 8.95479 0.823467C8.83141 0.793183 8.70163 0.802465 8.58382 0.85C8.46524 0.893985 8.36295 0.973181 8.29067 1.07696C8.21839 1.18075 8.17958 1.30415 8.17944 1.43063Z" fill="#717171"/>
<path d="M10.7132 7.92688C10.8223 7.81225 10.8832 7.6601 10.8832 7.50188C10.8827 7.34455 10.8237 7.19304 10.7176 7.07688L5.20885 1.01875C5.12643 0.922068 5.0157 0.853751 4.89232 0.823467C4.76894 0.793183 4.63916 0.802465 4.52135 0.85C4.40254 0.893781 4.29998 0.97289 4.22746 1.07669C4.15495 1.18049 4.11595 1.304 4.11572 1.43063V2.30563C4.11577 2.38329 4.14474 2.45815 4.19697 2.51563L8.1551 6.86813C8.31308 7.04027 8.40073 7.26541 8.40073 7.49906C8.40073 7.73271 8.31308 7.95786 8.1551 8.13L4.19822 12.4831C4.14599 12.5406 4.11702 12.6155 4.11697 12.6931V13.5681C4.11766 13.6941 4.15639 13.8169 4.22806 13.9204C4.29974 14.024 4.40103 14.1034 4.51866 14.1484C4.63629 14.1934 4.76476 14.2018 4.88725 14.1726C5.00974 14.1433 5.12053 14.0777 5.2051 13.9844L10.7132 7.92688Z" fill="#717171"/>
<path d="M6.65757 7.92062C6.76209 7.80559 6.82001 7.65574 6.82001 7.50031C6.82001 7.34488 6.76209 7.19503 6.65757 7.08L1.14257 1.01312C1.05779 0.919565 0.946656 0.85388 0.823813 0.824715C0.70097 0.795551 0.572174 0.804275 0.454386 0.84974C0.336598 0.895204 0.235341 0.975277 0.16395 1.07941C0.092559 1.18355 0.0543809 1.30686 0.0544434 1.43312V13.5662C0.0545199 13.6924 0.0927504 13.8155 0.164111 13.9195C0.235471 14.0235 0.336623 14.1035 0.454273 14.1489C0.571924 14.1943 0.700568 14.2031 0.823301 14.1741C0.946035 14.1451 1.05711 14.0796 1.14194 13.9862L6.65757 7.92062Z" fill="#717171"/>
</svg>
