<svg width="75" height="68" viewBox="0 0 75 68" fill="none" xmlns="http://www.w3.org/2000/svg">
<path d="M51 9.5V0L74.5 34L51 68V58.5H0V9.5H51Z" fill="url(#paint0_linear_6184:72249)"/>
<path d="M21.608 33.544C20.8893 33.544 20.2917 33.4413 19.815 33.236C19.3383 33.0233 18.979 32.7263 18.737 32.345C18.495 31.9563 18.374 31.5017 18.374 30.981H19.991C19.991 31.1863 20.046 31.3807 20.156 31.564C20.266 31.74 20.442 31.883 20.684 31.993C20.926 32.0957 21.234 32.147 21.608 32.147C22.1067 32.147 22.488 32.059 22.752 31.883C23.0233 31.707 23.159 31.4723 23.159 31.179C23.159 30.9223 23.0453 30.7133 22.818 30.552C22.5907 30.3833 22.2277 30.2733 21.729 30.222L21.168 30.178C20.3833 30.1047 19.76 29.87 19.298 29.474C18.836 29.0707 18.605 28.5023 18.605 27.769C18.605 27.263 18.7187 26.8413 18.946 26.504C19.1733 26.1593 19.4997 25.9027 19.925 25.734C20.3503 25.558 20.86 25.47 21.454 25.47C22.092 25.47 22.6273 25.569 23.06 25.767C23.4927 25.965 23.819 26.251 24.039 26.625C24.2663 26.999 24.38 27.4537 24.38 27.989H22.763C22.763 27.7763 22.7117 27.5893 22.609 27.428C22.5137 27.2593 22.3707 27.1237 22.18 27.021C21.9893 26.9183 21.7473 26.867 21.454 26.867C21.1973 26.867 20.9773 26.9037 20.794 26.977C20.6107 27.0503 20.4713 27.1567 20.376 27.296C20.2807 27.428 20.233 27.5857 20.233 27.769C20.233 27.9963 20.3173 28.2017 20.486 28.385C20.6547 28.561 20.9333 28.671 21.322 28.715L21.883 28.759C22.763 28.8323 23.467 29.0707 23.995 29.474C24.523 29.8773 24.787 30.4457 24.787 31.179C24.787 31.685 24.6623 32.114 24.413 32.466C24.1637 32.818 23.8007 33.0857 23.324 33.269C22.8547 33.4523 22.2827 33.544 21.608 33.544ZM20.827 34.919V33.313H22.268V34.919H20.827ZM20.783 26.009V24.403H22.224V26.009H20.783ZM29.114 33.731C28.52 33.731 28.0104 33.6357 27.585 33.445C27.1597 33.247 26.8114 32.972 26.54 32.62C26.276 32.2607 26.078 31.85 25.946 31.388C25.8214 30.926 25.759 30.431 25.759 29.903V29.441C25.759 28.1063 26.1 27.1017 26.782 26.427C27.464 25.745 28.4687 25.404 29.796 25.404C30.0674 25.404 30.335 25.4113 30.599 25.426C30.863 25.4407 31.1197 25.4627 31.369 25.492V26.999C31.127 26.977 30.8667 26.9587 30.588 26.944C30.3094 26.922 30.0234 26.911 29.73 26.911C29.1434 26.911 28.6814 27.01 28.344 27.208C28.0067 27.3987 27.7684 27.6883 27.629 28.077C27.4897 28.4657 27.42 28.946 27.42 29.518V30.354L27.024 30.618C27.0314 30.068 27.1414 29.6097 27.354 29.243C27.574 28.869 27.8747 28.5903 28.256 28.407C28.6374 28.2237 29.0774 28.132 29.576 28.132C30.1407 28.132 30.6284 28.2457 31.039 28.473C31.4497 28.693 31.765 29.0047 31.985 29.408C32.205 29.8113 32.315 30.288 32.315 30.838C32.315 31.4173 32.183 31.927 31.919 32.367C31.655 32.7997 31.281 33.137 30.797 33.379C30.3204 33.6137 29.7594 33.731 29.114 33.731ZM29.059 32.235C29.3817 32.235 29.653 32.1763 29.873 32.059C30.1004 31.9417 30.2727 31.784 30.39 31.586C30.5147 31.3807 30.577 31.1423 30.577 30.871C30.577 30.5923 30.5184 30.354 30.401 30.156C30.2837 29.9507 30.115 29.793 29.895 29.683C29.6824 29.5657 29.4184 29.507 29.103 29.507C28.817 29.507 28.553 29.5583 28.311 29.661C28.0764 29.7563 27.8894 29.9067 27.75 30.112C27.6107 30.31 27.541 30.563 27.541 30.871C27.541 31.135 27.596 31.3697 27.706 31.575C27.8234 31.7803 27.9957 31.9417 28.223 32.059C28.4504 32.1763 28.729 32.235 29.059 32.235ZM33.3768 33.5V31.85C33.3768 31.5053 33.4318 31.2047 33.5418 30.948C33.6591 30.6913 33.8425 30.464 34.0918 30.266C34.3411 30.0607 34.6711 29.87 35.0818 29.694L36.3798 29.133C36.7098 28.9937 36.9518 28.8213 37.1058 28.616C37.2671 28.4107 37.3478 28.1503 37.3478 27.835C37.3478 27.5123 37.2488 27.2483 37.0508 27.043C36.8528 26.8377 36.5631 26.735 36.1818 26.735C35.8005 26.735 35.5108 26.8413 35.3128 27.054C35.1148 27.2667 35.0158 27.5527 35.0158 27.912H33.2668C33.2668 27.406 33.3768 26.9513 33.5968 26.548C33.8168 26.1373 34.1431 25.8147 34.5758 25.58C35.0085 25.3453 35.5438 25.228 36.1818 25.228C36.8198 25.228 37.3515 25.3417 37.7768 25.569C38.2095 25.7963 38.5358 26.1007 38.7558 26.482C38.9831 26.8633 39.0968 27.2923 39.0968 27.769V27.901C39.0968 28.517 38.9281 29.0267 38.5908 29.43C38.2535 29.826 37.7328 30.178 37.0288 30.486L35.7418 31.047C35.5218 31.1423 35.3641 31.2413 35.2688 31.344C35.1808 31.4467 35.1368 31.586 35.1368 31.762V32.312L34.7078 31.949H39.1078V33.5H33.3768ZM43.33 33.731C42.6847 33.731 42.12 33.6357 41.636 33.445C41.1593 33.2543 40.7853 32.9757 40.514 32.609C40.25 32.2423 40.118 31.795 40.118 31.267C40.118 30.9297 40.173 30.6327 40.283 30.376C40.393 30.112 40.547 29.8883 40.745 29.705C40.9503 29.5217 41.1887 29.3787 41.46 29.276V29.133C41.2547 29.045 41.0677 28.9277 40.899 28.781C40.7303 28.627 40.5983 28.44 40.503 28.22C40.4077 28 40.36 27.7433 40.36 27.45C40.36 26.9513 40.4883 26.5407 40.745 26.218C41.009 25.8953 41.3647 25.6533 41.812 25.492C42.2667 25.3233 42.7727 25.239 43.33 25.239C43.902 25.239 44.4117 25.3233 44.859 25.492C45.3063 25.6533 45.6583 25.8953 45.915 26.218C46.1717 26.5407 46.3 26.9513 46.3 27.45C46.3 27.7433 46.2523 28 46.157 28.22C46.069 28.44 45.9407 28.627 45.772 28.781C45.6033 28.9277 45.4127 29.045 45.2 29.133V29.276C45.4713 29.3787 45.7097 29.5217 45.915 29.705C46.1203 29.8883 46.278 30.112 46.388 30.376C46.498 30.6327 46.553 30.9297 46.553 31.267C46.553 31.795 46.4173 32.2423 46.146 32.609C45.882 32.9757 45.508 33.2543 45.024 33.445C44.5473 33.6357 43.9827 33.731 43.33 33.731ZM43.33 32.246C43.6307 32.246 43.891 32.202 44.111 32.114C44.331 32.026 44.5033 31.894 44.628 31.718C44.7527 31.5347 44.815 31.3147 44.815 31.058C44.815 30.8013 44.7527 30.5887 44.628 30.42C44.5107 30.244 44.3383 30.112 44.111 30.024C43.891 29.9287 43.6307 29.881 43.33 29.881C43.0367 29.881 42.7763 29.9287 42.549 30.024C42.329 30.112 42.1603 30.244 42.043 30.42C41.9257 30.5887 41.867 30.8013 41.867 31.058C41.867 31.3147 41.9257 31.5347 42.043 31.718C42.1603 31.894 42.329 32.026 42.549 32.114C42.7763 32.202 43.0367 32.246 43.33 32.246ZM43.33 28.55C43.7113 28.55 44.012 28.473 44.232 28.319C44.452 28.1577 44.562 27.9267 44.562 27.626C44.562 27.3253 44.452 27.098 44.232 26.944C44.012 26.79 43.7113 26.713 43.33 26.713C42.9487 26.713 42.648 26.7937 42.428 26.955C42.208 27.109 42.098 27.3327 42.098 27.626C42.098 27.9267 42.208 28.1577 42.428 28.319C42.6553 28.473 42.956 28.55 43.33 28.55ZM19.799 42.5L20.534 38.853H21.549L22.41 42.5H21.738L20.87 38.874H21.185L20.429 42.5H19.799ZM19.477 42.5V41.835H20.254V42.5H19.477ZM19.211 42.5L18.161 38.727H18.959L19.96 42.5H19.211ZM21.927 42.5V41.835H22.704V42.5H21.927ZM22.242 42.5L23.124 38.727H23.873L22.949 42.5H22.242ZM26.9541 42.5V41.373H26.8211V40.099C26.8211 39.8657 26.7605 39.6883 26.6391 39.567C26.5178 39.4457 26.3381 39.385 26.1001 39.385C25.9695 39.385 25.8248 39.3873 25.6661 39.392C25.5075 39.3967 25.3511 39.4037 25.1971 39.413C25.0478 39.4177 24.9148 39.4247 24.7981 39.434V38.727C24.9008 38.7177 25.0128 38.7107 25.1341 38.706C25.2601 38.6967 25.3885 38.6897 25.5191 38.685C25.6545 38.6803 25.7828 38.678 25.9041 38.678C26.2868 38.678 26.6041 38.727 26.8561 38.825C27.1081 38.923 27.2948 39.0793 27.4161 39.294C27.5421 39.504 27.6051 39.7863 27.6051 40.141V42.5H26.9541ZM25.7291 42.598C25.4538 42.598 25.2135 42.5513 25.0081 42.458C24.8028 42.36 24.6441 42.22 24.5321 42.038C24.4201 41.8513 24.3641 41.6297 24.3641 41.373C24.3641 41.1023 24.4271 40.8783 24.5531 40.701C24.6838 40.5237 24.8681 40.3907 25.1061 40.302C25.3441 40.2133 25.6288 40.169 25.9601 40.169H26.9051V40.708H25.9391C25.6918 40.708 25.5028 40.7687 25.3721 40.89C25.2415 41.0067 25.1761 41.1607 25.1761 41.352C25.1761 41.5433 25.2415 41.6973 25.3721 41.814C25.5028 41.926 25.6918 41.982 25.9391 41.982C26.0838 41.982 26.2215 41.9563 26.3521 41.905C26.4828 41.849 26.5901 41.758 26.6741 41.632C26.7628 41.506 26.8118 41.3287 26.8211 41.1L27.0311 41.373C27.0078 41.639 26.9425 41.863 26.8351 42.045C26.7325 42.2223 26.5878 42.36 26.4011 42.458C26.2191 42.5513 25.9951 42.598 25.7291 42.598ZM30.0485 42.612C29.5399 42.612 29.1432 42.5047 28.8585 42.29C28.5785 42.0753 28.4315 41.779 28.4175 41.401H29.1735C29.1829 41.541 29.2552 41.6693 29.3905 41.786C29.5259 41.9027 29.7475 41.961 30.0555 41.961C30.3169 41.961 30.5222 41.9097 30.6715 41.807C30.8209 41.7043 30.8955 41.576 30.8955 41.422C30.8955 41.282 30.8395 41.1723 30.7275 41.093C30.6202 41.009 30.4359 40.953 30.1745 40.925L29.8035 40.89C29.4162 40.848 29.1082 40.7337 28.8795 40.547C28.6555 40.3603 28.5435 40.1083 28.5435 39.791C28.5435 39.539 28.6065 39.3267 28.7325 39.154C28.8585 38.9813 29.0312 38.8483 29.2505 38.755C29.4745 38.6617 29.7312 38.615 30.0205 38.615C30.4685 38.615 30.8302 38.7153 31.1055 38.916C31.3809 39.112 31.5232 39.4013 31.5325 39.784H30.7835C30.7742 39.6393 30.7065 39.518 30.5805 39.42C30.4545 39.322 30.2679 39.273 30.0205 39.273C29.7872 39.273 29.6075 39.3197 29.4815 39.413C29.3602 39.5063 29.2995 39.6253 29.2995 39.77C29.2995 39.9007 29.3462 40.0033 29.4395 40.078C29.5329 40.1527 29.6845 40.2017 29.8945 40.225L30.2655 40.26C30.6902 40.3067 31.0262 40.4257 31.2735 40.617C31.5255 40.8037 31.6515 41.065 31.6515 41.401C31.6515 41.6437 31.5839 41.856 31.4485 42.038C31.3132 42.22 31.1242 42.3623 30.8815 42.465C30.6435 42.563 30.3659 42.612 30.0485 42.612ZM34.0943 42.542C33.7816 42.542 33.518 42.5 33.3033 42.416C33.0886 42.332 32.9253 42.1873 32.8133 41.982C32.706 41.7767 32.6523 41.499 32.6523 41.149V37.628H33.4293V41.219C33.4293 41.415 33.4806 41.5667 33.5833 41.674C33.6906 41.7767 33.84 41.828 34.0313 41.828H34.6613V42.542H34.0943ZM32.0293 39.336V38.727H34.6613V39.336H32.0293ZM37.8096 42.5V41.373H37.6766V40.099C37.6766 39.8657 37.616 39.6883 37.4946 39.567C37.3733 39.4457 37.1936 39.385 36.9556 39.385C36.825 39.385 36.6803 39.3873 36.5216 39.392C36.363 39.3967 36.2066 39.4037 36.0526 39.413C35.9033 39.4177 35.7703 39.4247 35.6536 39.434V38.727C35.7563 38.7177 35.8683 38.7107 35.9896 38.706C36.1156 38.6967 36.244 38.6897 36.3746 38.685C36.51 38.6803 36.6383 38.678 36.7596 38.678C37.1423 38.678 37.4596 38.727 37.7116 38.825C37.9636 38.923 38.1503 39.0793 38.2716 39.294C38.3976 39.504 38.4606 39.7863 38.4606 40.141V42.5H37.8096ZM36.5846 42.598C36.3093 42.598 36.069 42.5513 35.8636 42.458C35.6583 42.36 35.4996 42.22 35.3876 42.038C35.2756 41.8513 35.2196 41.6297 35.2196 41.373C35.2196 41.1023 35.2826 40.8783 35.4086 40.701C35.5393 40.5237 35.7236 40.3907 35.9616 40.302C36.1996 40.2133 36.4843 40.169 36.8156 40.169H37.7606V40.708H36.7946C36.5473 40.708 36.3583 40.7687 36.2276 40.89C36.097 41.0067 36.0316 41.1607 36.0316 41.352C36.0316 41.5433 36.097 41.6973 36.2276 41.814C36.3583 41.926 36.5473 41.982 36.7946 41.982C36.9393 41.982 37.077 41.9563 37.2076 41.905C37.3383 41.849 37.4456 41.758 37.5296 41.632C37.6183 41.506 37.6673 41.3287 37.6766 41.1L37.8866 41.373C37.8633 41.639 37.798 41.863 37.6906 42.045C37.588 42.2223 37.4433 42.36 37.2566 42.458C37.0746 42.5513 36.8506 42.598 36.5846 42.598ZM41.044 43.977C40.8667 43.977 40.687 43.97 40.505 43.956C40.323 43.942 40.1527 43.9233 39.994 43.9V43.207C40.162 43.2303 40.3393 43.249 40.526 43.263C40.7173 43.2817 40.8947 43.291 41.058 43.291C41.3847 43.291 41.646 43.249 41.842 43.165C42.0427 43.081 42.1873 42.9503 42.276 42.773C42.3693 42.6003 42.416 42.374 42.416 42.094V41.366L42.633 40.862C42.619 41.226 42.542 41.5317 42.402 41.779C42.2667 42.0263 42.0847 42.213 41.856 42.339C41.632 42.465 41.3753 42.528 41.086 42.528C40.8247 42.528 40.5867 42.479 40.372 42.381C40.1573 42.283 39.973 42.1453 39.819 41.968C39.665 41.7907 39.546 41.5877 39.462 41.359C39.378 41.1257 39.336 40.8783 39.336 40.617V40.484C39.336 40.218 39.378 39.9707 39.462 39.742C39.5507 39.5133 39.6743 39.315 39.833 39.147C39.9917 38.9743 40.1807 38.8413 40.4 38.748C40.624 38.6547 40.869 38.608 41.135 38.608C41.443 38.608 41.7137 38.6757 41.947 38.811C42.185 38.9417 42.3717 39.1353 42.507 39.392C42.6423 39.6487 42.7147 39.9613 42.724 40.33L42.542 40.351V38.727H43.193V42.052C43.193 42.5093 43.1183 42.878 42.969 43.158C42.8243 43.4427 42.5933 43.6503 42.276 43.781C41.9633 43.9117 41.5527 43.977 41.044 43.977ZM41.289 41.8C41.4943 41.8 41.681 41.7557 41.849 41.667C42.0217 41.5737 42.157 41.443 42.255 41.275C42.3577 41.1023 42.409 40.897 42.409 40.659V40.372C42.409 40.1387 42.3553 39.9427 42.248 39.784C42.1453 39.6207 42.01 39.497 41.842 39.413C41.674 39.329 41.492 39.287 41.296 39.287C41.072 39.287 40.8737 39.3407 40.701 39.448C40.5283 39.5507 40.393 39.6977 40.295 39.889C40.2017 40.0757 40.155 40.295 40.155 40.547C40.155 40.8037 40.204 41.0277 40.302 41.219C40.4 41.4057 40.533 41.5503 40.701 41.653C40.8737 41.751 41.0697 41.8 41.289 41.8ZM45.998 42.626C45.6713 42.626 45.3866 42.57 45.144 42.458C44.9013 42.346 44.703 42.199 44.549 42.017C44.395 41.8303 44.2783 41.6227 44.199 41.394C44.1243 41.1607 44.087 40.9227 44.087 40.68V40.547C44.087 40.2997 44.1243 40.0617 44.199 39.833C44.2783 39.5997 44.395 39.392 44.549 39.21C44.703 39.0233 44.8966 38.8763 45.13 38.769C45.368 38.657 45.6433 38.601 45.956 38.601C46.362 38.601 46.7003 38.6897 46.971 38.867C47.2416 39.0443 47.4446 39.2753 47.58 39.56C47.7153 39.84 47.783 40.1433 47.783 40.47V40.799H44.437V40.246H47.23L47.006 40.526C47.006 40.274 46.9663 40.057 46.887 39.875C46.8076 39.6883 46.691 39.546 46.537 39.448C46.383 39.3453 46.1893 39.294 45.956 39.294C45.7133 39.294 45.5103 39.35 45.347 39.462C45.1836 39.574 45.0623 39.728 44.983 39.924C44.9036 40.12 44.864 40.351 44.864 40.617C44.864 40.869 44.9036 41.0953 44.983 41.296C45.0623 41.492 45.186 41.6483 45.354 41.765C45.522 41.877 45.7366 41.933 45.998 41.933C46.2593 41.933 46.474 41.877 46.642 41.765C46.81 41.6483 46.9126 41.513 46.95 41.359H47.713C47.6616 41.6157 47.5566 41.8397 47.398 42.031C47.244 42.2223 47.048 42.3693 46.81 42.472C46.572 42.5747 46.3013 42.626 45.998 42.626Z" fill="#FF974A"/>
<defs>
<linearGradient id="paint0_linear_6184:72249" x1="64" y1="34.5" x2="-3" y2="36" gradientUnits="userSpaceOnUse">
<stop stop-color="#FFE4CD"/>
<stop offset="1" stop-color="#FFEFE1" stop-opacity="0"/>
</linearGradient>
</defs>
</svg>
