<svg width="42" height="38" viewBox="0 0 42 38" fill="none" xmlns="http://www.w3.org/2000/svg">
<path opacity="0.5" fill-rule="evenodd" clip-rule="evenodd" d="M30.1526 20.1479C30.4579 19.8271 30.6282 19.4012 30.6284 18.9584C30.627 18.518 30.4618 18.0939 30.1648 17.7688L14.746 0.812256C14.5153 0.541645 14.2053 0.350429 13.86 0.265664C13.5147 0.1809 13.1514 0.20688 12.8217 0.339929C12.4891 0.462471 12.2021 0.683895 11.9991 0.974429C11.7961 1.26496 11.687 1.61068 11.6863 1.96508V4.41419C11.6865 4.63157 11.7675 4.84111 11.9137 5.00197L22.9924 17.1845C23.4346 17.6663 23.68 18.2965 23.68 18.9505C23.68 19.6045 23.4346 20.2346 22.9924 20.7165L11.9172 32.9007C11.771 33.0616 11.69 33.2711 11.6898 33.4885V35.9376C11.6918 36.2901 11.8001 36.6338 12.0008 36.9237C12.2014 37.2135 12.4849 37.436 12.8141 37.5619C13.1434 37.6879 13.503 37.7114 13.8458 37.6295C14.1887 37.5475 14.4988 37.3639 14.7355 37.1027L30.1526 20.1479ZM23.0611 1.96508V4.41419C23.0613 4.63157 23.1423 4.84111 23.2885 5.00197L34.3672 17.1845C34.8094 17.6663 35.0548 18.2965 35.0548 18.9505C35.0548 19.6045 34.8094 20.2346 34.3672 20.7165L23.2885 32.9007C23.1423 33.0616 23.0613 33.2711 23.0611 33.4885V35.9376C23.0631 36.2901 23.1714 36.6338 23.3721 36.9237C23.5727 37.2135 23.8562 37.436 24.1854 37.5619C24.5147 37.6879 24.8743 37.7114 25.2171 37.6295C25.56 37.5475 25.8701 37.3639 26.1068 37.1027L41.5239 20.1479C41.8292 19.8271 41.9995 19.4012 41.9997 18.9584C41.9983 18.518 41.8331 18.0939 41.5361 17.7688L26.1173 0.812256C25.8866 0.541645 25.5766 0.350429 25.2313 0.265664C24.886 0.1809 24.5227 0.20688 24.193 0.339929C23.8611 0.463041 23.5748 0.68471 23.3725 0.975196C23.1701 1.26568 23.0615 1.61109 23.0611 1.96508ZM19.256 18.9528C19.256 19.3879 19.0939 19.8073 18.8013 20.1293L3.36322 37.1068C3.12579 37.368 2.81488 37.5513 2.47135 37.6325C2.12782 37.7138 1.76775 37.6892 1.43845 37.562C1.10915 37.4349 0.826029 37.211 0.626292 36.92C0.426556 36.6289 0.319551 36.2842 0.319336 35.9312V1.97093C0.319161 1.61754 0.426021 1.27238 0.625843 0.980904C0.825665 0.68943 1.10908 0.46531 1.43876 0.338056C1.76845 0.210803 2.12895 0.186383 2.47278 0.268013C2.81662 0.349644 3.12767 0.533496 3.36497 0.795359L18.8013 17.7764C19.0939 18.0984 19.256 18.5178 19.256 18.9528Z" fill="url(#paint0_linear_19883_139359)"/>
<defs>
<linearGradient id="paint0_linear_19883_139359" x1="36.1253" y1="19.2236" x2="-5.89777" y2="18.5147" gradientUnits="userSpaceOnUse">
<stop stop-color="#5FCF64"/>
<stop offset="1" stop-color="#C0FFC3" stop-opacity="0"/>
</linearGradient>
</defs>
</svg>
