<svg width="16" height="16" viewBox="0 0 16 16" fill="none" xmlns="http://www.w3.org/2000/svg">
<path d="M13.8461 13.923C13.8461 14.2087 13.7327 14.4826 13.5307 14.6845C13.3287 14.8865 13.0548 15 12.7692 15H3.07703C2.79142 15 2.5175 14.8865 2.31554 14.6845C2.11358 14.4826 2.00012 14.2087 2.00012 13.923V2.07689C2.00012 1.79127 2.11358 1.51736 2.31554 1.31539C2.5175 1.11343 2.79142 0.999969 3.07703 0.999969H8.46158L13.8461 6.38459V13.923Z" stroke="#717171" stroke-width="1.07692" stroke-linecap="round" stroke-linejoin="round"/>
<path d="M5.07574 12.8897C5.19614 12.8897 5.29437 12.8722 5.37041 12.8374C5.44962 12.7994 5.50983 12.7503 5.55102 12.6901C5.59537 12.6267 5.62548 12.5554 5.64132 12.4762C5.65716 12.3938 5.66508 12.3098 5.66508 12.2243V12.1387H6.29244V12.2243C6.29244 12.6203 6.18788 12.9261 5.97876 13.1416C5.77281 13.3539 5.4718 13.46 5.07574 13.46C4.69552 13.46 4.39451 13.3443 4.17272 13.113C3.95092 12.8817 3.84003 12.5443 3.84003 12.1007V11.3593C3.84003 11.147 3.86854 10.9569 3.92558 10.789C3.98261 10.6179 4.06499 10.4753 4.17272 10.3612C4.28045 10.244 4.41036 10.1553 4.56244 10.0951C4.71453 10.0317 4.88563 10 5.07574 10C5.27219 10 5.44646 10.0285 5.59854 10.0855C5.75063 10.1426 5.87737 10.225 5.97876 10.3327C6.08332 10.4404 6.16095 10.5703 6.21165 10.7224C6.26551 10.8745 6.29244 11.0456 6.29244 11.2357V11.3213H5.66508V11.2357C5.66508 11.1565 5.65558 11.0773 5.63657 10.9981C5.61755 10.9189 5.58587 10.8476 5.54151 10.7842C5.49715 10.7208 5.43695 10.6701 5.36091 10.6321C5.28486 10.5909 5.18981 10.5703 5.07574 10.5703C4.97118 10.5703 4.88088 10.5909 4.80483 10.6321C4.72879 10.6701 4.66542 10.724 4.61472 10.7937C4.56403 10.8602 4.52601 10.9395 4.50066 11.0313C4.47848 11.1201 4.46739 11.2135 4.46739 11.3118V12.1482C4.46739 12.256 4.47848 12.3558 4.50066 12.4477C4.52284 12.5364 4.55769 12.614 4.60522 12.6805C4.65275 12.7471 4.71453 12.7994 4.79058 12.8374C4.86979 12.8722 4.96484 12.8897 5.07574 12.8897Z" fill="#717171"/>
<path d="M8.54669 11.0836C8.54669 10.9505 8.49441 10.8349 8.38985 10.7367C8.28846 10.6385 8.1443 10.5893 7.95735 10.5893C7.79893 10.5893 7.67377 10.6226 7.58189 10.6891C7.49 10.7525 7.44406 10.8397 7.44406 10.9505C7.44406 11.0076 7.45515 11.0599 7.47733 11.1074C7.49951 11.1517 7.53753 11.1929 7.59139 11.231C7.64843 11.2658 7.7213 11.2975 7.81002 11.326C7.9019 11.3545 8.01756 11.3815 8.15697 11.4068C8.5055 11.4702 8.77166 11.5763 8.95543 11.7252C9.1392 11.8742 9.23109 12.0944 9.23109 12.3859V12.4429C9.23109 12.5982 9.20257 12.7392 9.14554 12.8659C9.09168 12.9895 9.01246 13.0956 8.9079 13.1843C8.80334 13.2731 8.6766 13.3412 8.52768 13.3887C8.37876 13.4362 8.21083 13.46 8.02389 13.46C7.80527 13.46 7.61199 13.4299 7.44406 13.3697C7.2793 13.3063 7.14147 13.2208 7.03057 13.113C6.91967 13.0022 6.83571 12.8738 6.77867 12.7281C6.72164 12.5792 6.69312 12.4176 6.69312 12.2433V12.1007H7.32049V12.2148C7.32049 12.4144 7.37752 12.5744 7.49158 12.6948C7.60882 12.812 7.78942 12.8707 8.0334 12.8707C8.22351 12.8707 8.36451 12.8295 8.45639 12.7471C8.54828 12.6647 8.59422 12.5665 8.59422 12.4524C8.59422 12.3986 8.58472 12.3479 8.56571 12.3003C8.54669 12.2496 8.51343 12.2053 8.4659 12.1673C8.41837 12.1261 8.35342 12.0896 8.27104 12.0579C8.18865 12.0263 8.08409 11.9993 7.95735 11.9771C7.78942 11.9486 7.63575 11.9122 7.49634 11.8678C7.35692 11.8203 7.23494 11.7585 7.13038 11.6825C7.02898 11.6064 6.94977 11.5114 6.89274 11.3973C6.83571 11.2832 6.80719 11.1438 6.80719 10.9791V10.9505C6.80719 10.8143 6.83412 10.6891 6.88799 10.5751C6.94502 10.4578 7.02265 10.3565 7.12087 10.2709C7.22226 10.1854 7.34267 10.1188 7.48208 10.0713C7.62466 10.0238 7.78309 10 7.95735 10C8.1538 10 8.32807 10.0285 8.48016 10.0855C8.63224 10.1394 8.75898 10.2139 8.86038 10.3089C8.96494 10.404 9.04256 10.5133 9.09326 10.6369C9.14712 10.7604 9.17406 10.8903 9.17406 11.0266V11.1977H8.54669V11.0836Z" fill="#717171"/>
<path d="M9.54622 10.0665H10.1926L10.8437 13.0798H10.9293L11.5804 10.0665H12.2268L11.4758 13.3935H10.2972L9.54622 10.0665Z" fill="#717171"/>
</svg>
