<svg width="16" height="16" viewBox="0 0 16 16" fill="none" xmlns="http://www.w3.org/2000/svg">
<path d="M13.8461 13.923C13.8461 14.2087 13.7327 14.4826 13.5307 14.6845C13.3287 14.8865 13.0548 15 12.7692 15H3.07703C2.79142 15 2.5175 14.8865 2.31554 14.6845C2.11358 14.4826 2.00012 14.2087 2.00012 13.923V2.07689C2.00012 1.79127 2.11358 1.51736 2.31554 1.31539C2.5175 1.11343 2.79142 0.999969 3.07703 0.999969H8.46158L13.8461 6.38459V13.923Z" stroke="#717171" stroke-width="1.07692" stroke-linecap="round" stroke-linejoin="round"/>
<path d="M4.47829 11.7225V13.0256H3.8399V9.57047H5.16504C5.33915 9.57047 5.49068 9.60008 5.61965 9.65931C5.74862 9.71525 5.85501 9.79094 5.93884 9.88636C6.0259 9.9785 6.09038 10.0854 6.13229 10.2072C6.17743 10.3257 6.2 10.4474 6.2 10.5725V10.6909C6.2 10.8192 6.17743 10.9459 6.13229 11.071C6.09038 11.1927 6.0259 11.303 5.93884 11.4017C5.85501 11.4971 5.74862 11.5744 5.61965 11.6337C5.49068 11.6929 5.33915 11.7225 5.16504 11.7225H4.47829ZM4.47829 11.1006H5.10217C5.24403 11.1006 5.35527 11.0611 5.43587 10.9821C5.5197 10.9032 5.56161 10.8011 5.56161 10.6761V10.6169C5.56161 10.4918 5.5197 10.3898 5.43587 10.3108C5.35527 10.2319 5.24403 10.1924 5.10217 10.1924H4.47829V11.1006Z" fill="#717171"/>
<path d="M6.67543 9.57047H7.90384C8.32298 9.57047 8.63411 9.67083 8.83724 9.87155C9.04036 10.069 9.14192 10.3767 9.14192 10.7946V11.8015C9.14192 12.2194 9.04036 12.5287 8.83724 12.7294C8.63411 12.9269 8.32298 13.0256 7.90384 13.0256H6.67543V12.3987H6.99462V10.1924H6.67543V9.57047ZM7.90384 12.4037C8.12631 12.4037 8.28107 12.351 8.36812 12.2457C8.4584 12.1371 8.50353 11.9693 8.50353 11.7423V10.7946C8.50353 10.5971 8.4584 10.4474 8.36812 10.3454C8.28107 10.2434 8.12631 10.1924 7.90384 10.1924H7.63301V12.4037H7.90384Z" fill="#717171"/>
<path d="M9.83982 9.57047H12.0065V10.1924H10.4782V10.9821H11.9774V11.6041H10.4782V13.0256H9.83982V9.57047Z" fill="#717171"/>
</svg>
