<svg width="43" height="38" viewBox="0 0 43 38" fill="none" xmlns="http://www.w3.org/2000/svg">
<path opacity="0.5" fill-rule="evenodd" clip-rule="evenodd" d="M30.4573 20.2212C30.7607 19.9024 30.9299 19.4793 30.9301 19.0393C30.9288 18.6018 30.7646 18.1804 30.4695 17.8573L15.1496 1.00961C14.9204 0.740733 14.6125 0.550743 14.2693 0.466522C13.9262 0.382302 13.5653 0.408116 13.2376 0.540311C12.9072 0.662067 12.622 0.88207 12.4204 1.17074C12.2187 1.45941 12.1102 1.8029 12.1096 2.15504V4.58843C12.1097 4.80441 12.1903 5.01261 12.3356 5.17244L23.3432 17.2768C23.7825 17.7555 24.0263 18.3817 24.0263 19.0315C24.0263 19.6812 23.7825 20.3074 23.3432 20.7861L12.339 32.8922C12.1938 33.052 12.1132 33.2602 12.1131 33.4762V35.9096C12.115 36.2598 12.2227 36.6013 12.422 36.8893C12.6214 37.1773 12.903 37.3983 13.2302 37.5235C13.5573 37.6486 13.9146 37.672 14.2552 37.5906C14.5959 37.5092 14.904 37.3267 15.1392 37.0672L30.4573 20.2212ZM23.4109 2.15504V4.58843C23.4111 4.80441 23.4916 5.01261 23.6369 5.17244L34.6445 17.2768C35.0839 17.7555 35.3276 18.3817 35.3276 19.0315C35.3276 19.6812 35.0839 20.3074 34.6445 20.7861L23.6369 32.8922C23.4916 33.052 23.4111 33.2602 23.4109 33.4762V35.9096C23.4129 36.2598 23.5205 36.6013 23.7199 36.8893C23.9192 37.1773 24.2009 37.3983 24.528 37.5235C24.8552 37.6486 25.2125 37.672 25.5531 37.5906C25.8937 37.5092 26.2018 37.3267 26.437 37.0672L41.7552 20.2212C42.0586 19.9024 42.2278 19.4793 42.228 19.0393C42.2266 18.6018 42.0624 18.1804 41.7674 17.8573L26.4475 1.00961C26.2183 0.740733 25.9103 0.550743 25.5672 0.466522C25.2241 0.382302 24.8632 0.408116 24.5355 0.540311C24.2057 0.662633 23.9213 0.88288 23.7203 1.1715C23.5193 1.46012 23.4113 1.80332 23.4109 2.15504ZM19.6306 19.0338C19.6306 19.4661 19.4695 19.8828 19.1788 20.2027L3.83978 37.0713C3.60387 37.3308 3.29496 37.513 2.95364 37.5937C2.61231 37.6744 2.25455 37.65 1.92736 37.5236C1.60018 37.3973 1.31887 37.1749 1.12042 36.8857C0.921962 36.5965 0.815643 36.254 0.81543 35.9033V2.16087C0.815256 1.80975 0.92143 1.4668 1.11997 1.1772C1.31851 0.887594 1.60011 0.664912 1.92768 0.538475C2.25525 0.412038 2.61343 0.387775 2.95506 0.468882C3.29669 0.549988 3.60574 0.732661 3.84152 0.992844L19.1788 17.8649C19.4695 18.1848 19.6306 18.6016 19.6306 19.0338Z" fill="url(#paint0_linear_19883_139353)"/>
<defs>
<linearGradient id="paint0_linear_19883_139353" x1="36.3913" y1="19.3029" x2="-5.36173" y2="18.5985" gradientUnits="userSpaceOnUse">
<stop stop-color="#FFC295"/>
<stop offset="1" stop-color="#FFEFE1" stop-opacity="0"/>
</linearGradient>
</defs>
</svg>
