<svg width="18" height="18" viewBox="0 0 18 18" fill="none" xmlns="http://www.w3.org/2000/svg">
<path d="M14.5152 10.5008C14.0843 10.5245 13.6554 10.4269 13.2771 10.2192C12.8987 10.0115 12.5862 9.70193 12.3748 9.32564C12.3555 9.2962 12.3282 9.27285 12.2961 9.2583C12.264 9.24376 12.2285 9.23863 12.1936 9.2435C12.1587 9.24837 12.1259 9.26305 12.0991 9.28582C12.0722 9.30859 12.0524 9.33853 12.0418 9.37214L10.8599 13.1325C10.7762 13.356 10.6253 13.548 10.4279 13.682C10.2305 13.8161 9.9964 13.8857 9.75783 13.8812C9.51926 13.8767 9.28797 13.7983 9.09582 13.6568C8.90367 13.5153 8.76012 13.3177 8.68496 13.0913L6.94203 6.60099C6.93122 6.5606 6.90722 6.52498 6.87384 6.4998C6.84046 6.47462 6.79962 6.46131 6.75782 6.462C6.71601 6.46269 6.67564 6.47734 6.64311 6.50361C6.61058 6.52988 6.58776 6.56627 6.57829 6.60699C6.40687 7.5818 6.10412 8.52889 5.67833 9.42239C5.48128 9.77823 5.18543 10.0694 4.82651 10.2608C4.46758 10.4522 4.06093 10.5355 3.65565 10.5008H0.126282C0.480896 12.5978 1.56663 14.5013 3.19097 15.874C4.8153 17.2467 6.87327 17.9999 8.99995 17.9999C11.1266 17.9999 13.1846 17.2467 14.8089 15.874C16.4333 14.5013 17.519 12.5978 17.8736 10.5008H14.5152Z" fill="url(#paint0_linear)"/>
<path d="M3.65537 9.00079C4.35659 9.00079 4.41434 9.00079 5.09006 6.32714C5.24456 5.71741 5.42605 4.99894 5.65629 4.15597C5.72818 3.92428 5.87405 3.72254 6.07155 3.58167C6.26904 3.44079 6.50727 3.36855 6.74975 3.376C6.99247 3.36917 7.23071 3.44233 7.42776 3.58422C7.6248 3.72611 7.76973 3.92886 7.84021 4.16122L9.64014 10.857C9.65042 10.8963 9.67323 10.9312 9.70514 10.9564C9.73705 10.9816 9.77629 10.9956 9.81693 10.9965C9.85756 10.9973 9.89736 10.9849 9.93029 10.9611C9.96322 10.9372 9.98748 10.9033 9.99938 10.8645L11.0088 7.65084C11.0829 7.43966 11.219 7.2558 11.3995 7.12342C11.5799 6.99105 11.7961 6.91634 12.0198 6.90912C12.2367 6.89251 12.4538 6.93826 12.6456 7.04097C12.8373 7.14369 12.9957 7.29909 13.102 7.48885C13.177 7.63434 13.252 7.77609 13.3158 7.91258C13.7515 8.7908 13.8782 8.99854 14.5157 8.99854H17.9993C17.999 6.61168 17.0506 4.3227 15.3626 2.63515C13.6746 0.947592 11.3854 -0.000298287 8.99854 7.04118e-08C6.61168 0.000298428 4.3227 0.948761 2.63515 2.63674C0.947592 4.32471 -0.000298287 6.61393 7.04118e-08 9.00079H3.65537Z" fill="url(#paint1_linear)"/>
<defs>
<linearGradient id="paint0_linear" x1="8.99995" y1="6.46198" x2="8.99995" y2="17.9999" gradientUnits="userSpaceOnUse">
<stop stop-color="#2257E2"/>
<stop offset="1" stop-color="#5AA6FF"/>
</linearGradient>
<linearGradient id="paint1_linear" x1="8.99967" y1="0" x2="8.99967" y2="10.9965" gradientUnits="userSpaceOnUse">
<stop stop-color="#2257E2"/>
<stop offset="1" stop-color="#5AA6FF"/>
</linearGradient>
</defs>
</svg>
