<svg width="18" height="18" viewBox="0 0 18 18" fill="none" xmlns="http://www.w3.org/2000/svg">
<path d="M8.91447 8.53594C8.95177 7.96313 9.18936 7.4217 9.58566 7.00644C9.98196 6.59118 10.5117 6.32855 11.0821 6.26454H11.943C11.9932 6.26454 12.0413 6.2446 12.0768 6.2091C12.1123 6.1736 12.1323 6.12546 12.1323 6.07526C12.1343 4.75354 11.7045 3.46735 10.9084 2.4123C10.1123 1.35725 8.99338 0.591081 7.72185 0.230329C6.45032 -0.130422 5.09576 -0.0660146 3.8642 0.413755C2.63264 0.893524 1.59146 1.7624 0.899048 2.88823C0.206632 4.01405 -0.0991382 5.33522 0.028246 6.65078C0.15563 7.96635 0.709197 9.20431 1.60475 10.1764C2.5003 11.1484 3.68883 11.8014 4.98956 12.036C6.2903 12.2706 7.63205 12.0739 8.81075 11.4759C8.84195 11.4601 8.86816 11.4359 8.88647 11.4061C8.90478 11.3763 8.91447 11.342 8.91447 11.307V8.53594ZM4.84489 8.9145C4.69428 8.9145 4.54985 8.85468 4.44336 8.74818C4.33687 8.64169 4.27704 8.49726 4.27704 8.34665C4.27704 8.19605 4.33687 8.05162 4.44336 7.94512C4.54985 7.83863 4.69428 7.7788 4.84489 7.7788H6.38414C6.48809 7.77854 6.58872 7.74215 6.66881 7.67587C6.74889 7.60958 6.80344 7.51752 6.82312 7.41544C6.8428 7.31337 6.82639 7.20762 6.77669 7.11632C6.727 7.02501 6.64711 6.95381 6.55071 6.91492L4.98874 6.29028C4.67223 6.16481 4.40479 5.94033 4.22637 5.65035C4.04794 5.36037 3.9681 5.02046 3.99877 4.68137C4.02943 4.34227 4.16895 4.0222 4.3965 3.76893C4.62406 3.51567 4.92742 3.3428 5.26131 3.27614C5.30413 3.26755 5.34264 3.24435 5.37026 3.21052C5.39787 3.17669 5.41289 3.13432 5.41274 3.09064V2.85745C5.41274 2.70684 5.47256 2.56241 5.57906 2.45592C5.68555 2.34942 5.82998 2.2896 5.98059 2.2896C6.13119 2.2896 6.27562 2.34942 6.38212 2.45592C6.48861 2.56241 6.54843 2.70684 6.54843 2.85745V3.04673C6.54843 3.09693 6.56838 3.14508 6.60387 3.18057C6.63937 3.21607 6.68752 3.23601 6.73772 3.23601H7.11628C7.26689 3.23601 7.41132 3.29584 7.51781 3.40233C7.62431 3.50882 7.68413 3.65326 7.68413 3.80386C7.68413 3.95446 7.62431 4.0989 7.51781 4.20539C7.41132 4.31188 7.26689 4.37171 7.11628 4.37171H5.57703C5.47308 4.37197 5.37245 4.40836 5.29237 4.47465C5.21228 4.54094 5.15773 4.633 5.13805 4.73507C5.11837 4.83715 5.13478 4.94289 5.18448 5.0342C5.23417 5.12551 5.31406 5.1967 5.41047 5.2356L6.97243 5.86023C7.28894 5.9857 7.55638 6.21019 7.7348 6.50017C7.91323 6.79015 7.99307 7.13006 7.96241 7.46915C7.93174 7.80824 7.79222 8.12832 7.56467 8.38158C7.33712 8.63485 7.03375 8.80772 6.69986 8.87437C6.65704 8.88297 6.61853 8.90616 6.59092 8.93999C6.5633 8.97383 6.54828 9.0162 6.54843 9.05987V9.29307C6.54843 9.44367 6.48861 9.58811 6.38212 9.6946C6.27562 9.80109 6.13119 9.86092 5.98059 9.86092C5.82998 9.86092 5.68555 9.80109 5.57906 9.6946C5.47256 9.58811 5.41274 9.44367 5.41274 9.29307V9.10379C5.41274 9.05358 5.39279 9.00544 5.3573 8.96994C5.3218 8.93444 5.27365 8.9145 5.22345 8.9145H4.84489Z" fill="url(#paint0_linear)"/>
<path d="M16.968 7.40015H11.0821C10.5809 7.40015 10.0501 8.13911 10.0501 8.53584V16.8643C10.0501 17.261 10.5801 18 11.0821 18H16.968C17.4692 18 18 17.261 18 16.8643V8.53584C18 8.13911 17.4692 7.40015 16.968 7.40015ZM15.9179 16.1147C15.8056 16.1147 15.6958 16.0814 15.6024 16.019C15.509 15.9566 15.4362 15.868 15.3933 15.7642C15.3503 15.6604 15.339 15.5463 15.3609 15.4361C15.3829 15.326 15.4369 15.2248 15.5164 15.1454C15.5958 15.0659 15.697 15.0119 15.8071 14.9899C15.9173 14.968 16.0314 14.9793 16.1352 15.0223C16.239 15.0652 16.3276 15.138 16.39 15.2314C16.4524 15.3248 16.4857 15.4346 16.4857 15.5469C16.4857 15.6215 16.471 15.6953 16.4425 15.7642C16.414 15.8331 16.3721 15.8957 16.3194 15.9484C16.2667 16.0011 16.2041 16.043 16.1352 16.0715C16.0663 16.1 15.9925 16.1147 15.9179 16.1147ZM11.5644 15.5469C11.5644 15.4346 11.5977 15.3248 11.6601 15.2314C11.7225 15.138 11.8112 15.0652 11.9149 15.0223C12.0187 14.9793 12.1329 14.968 12.243 14.9899C12.3532 15.0119 12.4543 15.0659 12.5338 15.1454C12.6132 15.2248 12.6673 15.326 12.6892 15.4361C12.7111 15.5463 12.6998 15.6604 12.6569 15.7642C12.6139 15.868 12.5411 15.9566 12.4477 16.019C12.3543 16.0814 12.2445 16.1147 12.1322 16.1147C11.9816 16.1147 11.8372 16.0549 11.7307 15.9484C11.6242 15.8419 11.5644 15.6975 11.5644 15.5469ZM11.5644 13.6465C11.5644 13.5342 11.5977 13.4244 11.6601 13.331C11.7225 13.2376 11.8112 13.1648 11.9149 13.1219C12.0187 13.0789 12.1329 13.0676 12.243 13.0895C12.3532 13.1115 12.4543 13.1655 12.5338 13.245C12.6132 13.3244 12.6673 13.4256 12.6892 13.5357C12.7111 13.6459 12.6998 13.76 12.6569 13.8638C12.6139 13.9676 12.5411 14.0562 12.4477 14.1186C12.3543 14.181 12.2445 14.2143 12.1322 14.2143C11.9816 14.2143 11.8372 14.1545 11.7307 14.048C11.6242 13.9415 11.5644 13.7971 11.5644 13.6465ZM13.4572 15.5469C13.4572 15.4346 13.4905 15.3248 13.5529 15.2314C13.6153 15.138 13.704 15.0652 13.8078 15.0223C13.9115 14.9793 14.0257 14.968 14.1358 14.9899C14.246 15.0119 14.3472 15.0659 14.4266 15.1454C14.506 15.2248 14.5601 15.326 14.582 15.4361C14.6039 15.5463 14.5927 15.6604 14.5497 15.7642C14.5067 15.868 14.4339 15.9566 14.3405 16.019C14.2472 16.0814 14.1374 16.1147 14.0251 16.1147C13.8745 16.1147 13.73 16.0549 13.6235 15.9484C13.517 15.8419 13.4572 15.6975 13.4572 15.5469ZM13.4572 13.6465C13.4572 13.5342 13.4905 13.4244 13.5529 13.331C13.6153 13.2376 13.704 13.1648 13.8078 13.1219C13.9115 13.0789 14.0257 13.0676 14.1358 13.0895C14.246 13.1115 14.3472 13.1655 14.4266 13.245C14.506 13.3244 14.5601 13.4256 14.582 13.5357C14.6039 13.6459 14.5927 13.76 14.5497 13.8638C14.5067 13.9676 14.4339 14.0562 14.3405 14.1186C14.2472 14.181 14.1374 14.2143 14.0251 14.2143C13.8745 14.2143 13.73 14.1545 13.6235 14.048C13.517 13.9415 13.4572 13.7971 13.4572 13.6465ZM15.9179 14.2143C15.8056 14.2143 15.6958 14.181 15.6024 14.1186C15.509 14.0562 15.4362 13.9676 15.3933 13.8638C15.3503 13.76 15.339 13.6459 15.3609 13.5357C15.3829 13.4256 15.4369 13.3244 15.5164 13.245C15.5958 13.1655 15.697 13.1115 15.8071 13.0895C15.9173 13.0676 16.0314 13.0789 16.1352 13.1219C16.239 13.1648 16.3276 13.2376 16.39 13.331C16.4524 13.4244 16.4857 13.5342 16.4857 13.6465C16.4857 13.7971 16.4259 13.9415 16.3194 14.048C16.2129 14.1545 16.0685 14.2143 15.9179 14.2143ZM16.1072 11.5644H11.9429C11.74 11.5644 11.5386 11.3986 11.5386 11.042V9.29298C11.5386 8.93561 11.7415 8.78797 11.9445 8.78797H16.1087C16.3116 8.78797 16.5145 8.9394 16.5145 9.29298V11.0594C16.513 11.4167 16.3101 11.5644 16.1072 11.5644Z" fill="#549DFC"/>
<defs>
<linearGradient id="paint0_linear" x1="6.06615" y1="0" x2="6.06615" y2="12.1323" gradientUnits="userSpaceOnUse">
<stop stop-color="#2257E2"/>
<stop offset="1" stop-color="#5AA6FF"/>
</linearGradient>
</defs>
</svg>
