<svg width="18" height="18" viewBox="0 0 18 18" fill="none" xmlns="http://www.w3.org/2000/svg">
<path d="M12.2769 12.2173C15.2625 12.2173 17.6834 10.049 17.6834 7.37249C17.6834 5.28765 15.7211 2.99982 13.858 2.09161C13.8346 2.08012 13.8138 2.0639 13.797 2.04398C13.7802 2.02405 13.7676 2.00085 13.7602 1.97584C13.7528 1.95083 13.7507 1.92455 13.7539 1.89867C13.7572 1.87279 13.7657 1.84786 13.7791 1.82546L14.4918 0.638312C14.5301 0.574377 14.5507 0.501453 14.5516 0.426958C14.5526 0.352462 14.5337 0.279054 14.4971 0.2142C14.4604 0.149346 14.4072 0.0953617 14.3429 0.0577381C14.2786 0.0201145 14.2055 0.000194489 14.131 4.43156e-06H10.5635C10.4888 -0.000338208 10.4153 0.019194 10.3505 0.056601C10.2858 0.0940079 10.2322 0.147945 10.1952 0.21289C10.1581 0.277834 10.139 0.351452 10.1398 0.426205C10.1406 0.500957 10.1612 0.574158 10.1996 0.638312L10.9086 1.81944C10.9219 1.84198 10.9304 1.86704 10.9334 1.89302C10.9365 1.91901 10.9342 1.94535 10.9266 1.97038C10.9189 1.99541 10.9062 2.01858 10.8891 2.03841C10.872 2.05825 10.851 2.07431 10.8274 2.08559C8.92376 2.98779 6.86825 5.28314 6.86825 7.37249C6.8705 10.049 9.29066 12.2173 12.2769 12.2173ZM11.9619 7.33039C11.2056 6.82215 10.4913 6.34097 10.4913 5.64102C10.4739 5.48248 10.4924 5.32207 10.5453 5.17162C10.5982 5.02117 10.6842 4.88452 10.797 4.77179C10.9098 4.65905 11.0465 4.5731 11.197 4.52029C11.3475 4.46747 11.5079 4.44914 11.6665 4.46665C11.6789 4.46645 11.6907 4.46138 11.6995 4.45252C11.7082 4.44365 11.7131 4.43172 11.7131 4.41929V4.11404C11.7131 3.96449 11.7725 3.82107 11.8782 3.71532C11.984 3.60957 12.1274 3.55017 12.2769 3.55017C12.4265 3.55017 12.5699 3.60957 12.6757 3.71532C12.7814 3.82107 12.8408 3.96449 12.8408 4.11404V4.27869C12.8408 4.32854 12.8606 4.37635 12.8959 4.4116C12.9311 4.44685 12.9789 4.46665 13.0288 4.46665H13.4987C13.6482 4.46665 13.7916 4.52606 13.8974 4.63181C14.0031 4.73755 14.0625 4.88098 14.0625 5.03053C14.0625 5.18008 14.0031 5.3235 13.8974 5.42925C13.7916 5.53499 13.6482 5.5944 13.4987 5.5944H11.6424C11.6394 5.5944 11.6364 5.59501 11.6336 5.59619C11.6308 5.59737 11.6283 5.5991 11.6262 5.60127C11.6241 5.60345 11.6224 5.60602 11.6213 5.60885C11.6202 5.61167 11.6197 5.61468 11.6198 5.61771C11.6192 5.63663 11.625 5.65521 11.6364 5.67034C11.9299 5.94319 12.2501 6.18599 12.592 6.39511C13.3483 6.9041 14.0625 7.38527 14.0625 8.08448C14.0754 8.24198 14.0538 8.4004 13.9993 8.54874C13.9449 8.69708 13.8588 8.83181 13.7471 8.94359C13.6354 9.05537 13.5007 9.14152 13.3524 9.19609C13.2041 9.25065 13.0457 9.27232 12.8882 9.25959C12.8758 9.25959 12.8638 9.26448 12.855 9.2732C12.8461 9.28192 12.841 9.29378 12.8408 9.30621V9.6122C12.8408 9.76175 12.7814 9.90518 12.6757 10.0109C12.5699 10.1167 12.4265 10.1761 12.2769 10.1761C12.1274 10.1761 11.984 10.1167 11.8782 10.0109C11.7725 9.90518 11.7131 9.76175 11.7131 9.6122V9.44755C11.7131 9.3977 11.6933 9.34989 11.658 9.31465C11.6228 9.2794 11.575 9.25959 11.5251 9.25959H11.0552C10.9057 9.25959 10.7622 9.20019 10.6565 9.09444C10.5507 8.98869 10.4913 8.84527 10.4913 8.69572C10.4913 8.54617 10.5507 8.40275 10.6565 8.297C10.7622 8.19125 10.9057 8.13184 11.0552 8.13184H12.9115C12.9175 8.13185 12.9234 8.12949 12.9277 8.12528C12.9321 8.12107 12.9346 8.11534 12.9348 8.10929C12.9351 8.09066 12.9293 8.07245 12.9183 8.05741C12.6249 7.78267 12.3045 7.53833 11.9619 7.32813V7.33039ZM15.3429 13.5345L12.6957 14.4142C12.6701 14.423 12.6466 14.4372 12.6268 14.4557C12.6069 14.4742 12.5912 14.4967 12.5807 14.5217C12.4628 14.7866 12.2709 15.0118 12.028 15.1701C11.7851 15.3285 11.5015 15.4132 11.2116 15.4141H8.20426C8.10456 15.4141 8.00894 15.3745 7.93844 15.304C7.86794 15.2335 7.82834 15.1379 7.82834 15.0382C7.82834 14.9385 7.86794 14.8429 7.93844 14.7724C8.00894 14.7019 8.10456 14.6623 8.20426 14.6623H11.2116C11.411 14.6623 11.6022 14.5831 11.7432 14.4421C11.8842 14.3011 11.9634 14.1098 11.9634 13.9104C11.9634 13.711 11.8842 13.5198 11.7432 13.3788C11.6022 13.2378 11.411 13.1586 11.2116 13.1586H8.58017C8.34936 13.1586 7.4449 12.0309 5.57284 12.0309H4.02782C3.56086 12.031 3.10036 12.1399 2.68279 12.3489L0.413751 13.4811C0.382622 13.4969 0.35646 13.521 0.338151 13.5507C0.319843 13.5805 0.3101 13.6146 0.309998 13.6496V17.7049C0.309955 17.7386 0.318926 17.7716 0.335974 17.8005C0.353023 17.8295 0.377526 17.8534 0.406931 17.8696C0.436336 17.8859 0.469567 17.894 0.503163 17.8931C0.53676 17.8921 0.569492 17.8822 0.59795 17.8643L3.01585 16.3531C3.11132 16.2942 3.21857 16.2569 3.33003 16.2439C3.44149 16.2309 3.55445 16.2425 3.66092 16.278C11.153 18.8026 8.64408 18.8139 17.0924 14.5397C17.1501 14.5114 17.1998 14.4691 17.2369 14.4167C17.2739 14.3643 17.2973 14.3033 17.3048 14.2396C17.3123 14.1758 17.3036 14.1111 17.2797 14.0515C17.2557 13.9919 17.2172 13.9393 17.1676 13.8984C16.9217 13.6837 16.6239 13.5371 16.3038 13.4733C15.9836 13.4094 15.6524 13.4305 15.3429 13.5345Z" fill="url(#paint0_linear)"/>
<defs>
<linearGradient id="paint0_linear" x1="8.99669" y1="0" x2="8.99669" y2="18" gradientUnits="userSpaceOnUse">
<stop stop-color="#2257E2"/>
<stop offset="1" stop-color="#5AA6FF"/>
</linearGradient>
</defs>
</svg>
