<svg width="70" height="29" viewBox="0 0 70 29" fill="none" xmlns="http://www.w3.org/2000/svg">
<g clip-path="url(#clip0)">
<path fill-rule="evenodd" clip-rule="evenodd" d="M-0.643419 17.5682C-0.643419 17.5682 8.34626 22.9427 11.1782 18.3037C14.0102 13.6647 15.3949 8.29808 17.3797 10.6578C19.3646 13.0176 22.2533 21.3259 25.1316 19.0397C28.0099 16.7534 31.9607 9.24875 35.5967 11.0708C39.2327 12.8933 40.2978 17.9833 42.961 16.0964C45.6241 14.2095 47.279 -0.595428 51.2943 2.39826C55.3096 5.39194 57.0158 12.7537 60.0152 12.7855C63.0146 12.8169 61.8547 20.4971 64.8601 18.0915C67.8655 15.6859 70.6006 14.2413 72.2244 23.0864C73.8482 31.932 72.4182 47 72.4182 47L-2 43.6887L-0.643419 17.5682Z" fill="url(#paint0_linear)" stroke="#00AAFF" stroke-opacity="0.8" stroke-width="1.10256"/>
<path d="M51.5603 0.884428C52.3423 1.97924 51.5597 3.5 50.2143 3.5C48.8689 3.5 48.0863 1.97924 48.8683 0.884428C49.528 -0.0391531 50.9006 -0.0391531 51.5603 0.884428Z" fill="#FF8165"/>
</g>
<defs>
<linearGradient id="paint0_linear" x1="-85.7632" y1="-117.859" x2="-85.7632" y2="27.6564" gradientUnits="userSpaceOnUse">
<stop stop-color="#00ACFF"/>
<stop offset="1" stop-color="#00ACFF" stop-opacity="0.01"/>
</linearGradient>
<clipPath id="clip0">
<rect width="70" height="29" fill="white"/>
</clipPath>
</defs>
</svg>
