<svg width="20" height="20" viewBox="0 0 20 20" fill="none" xmlns="http://www.w3.org/2000/svg">
<g filter="url(#filter0_d)">
<path d="M16.6667 6H14.1667C14.1225 6 14.0801 5.98244 14.0488 5.95118C14.0176 5.91993 14 5.87754 14 5.83333V3.33333C14 2.97971 13.8595 2.64057 13.6095 2.39052C13.3594 2.14048 13.0203 2 12.6667 2H3.33333C2.97971 2 2.64057 2.14048 2.39052 2.39052C2.14048 2.64057 2 2.97971 2 3.33333L2 12.6667C2 13.0203 2.14048 13.3594 2.39052 13.6095C2.64057 13.8595 2.97971 14 3.33333 14H5.83333C5.87754 14 5.91993 14.0176 5.95118 14.0488C5.98244 14.0801 6 14.1225 6 14.1667V16.6667C6 17.0203 6.14048 17.3594 6.39052 17.6095C6.64057 17.8595 6.97971 18 7.33333 18H16.6667C17.0203 18 17.3594 17.8595 17.6095 17.6095C17.8595 17.3594 18 17.0203 18 16.6667V7.33333C18 6.97971 17.8595 6.64057 17.6095 6.39052C17.3594 6.14048 17.0203 6 16.6667 6ZM3.33333 3.66667C3.33333 3.57826 3.36845 3.49348 3.43096 3.43096C3.49348 3.36845 3.57826 3.33333 3.66667 3.33333H12.3333C12.4217 3.33333 12.5065 3.36845 12.569 3.43096C12.6315 3.49348 12.6667 3.57826 12.6667 3.66667V12.3333C12.6667 12.4217 12.6315 12.5065 12.569 12.569C12.5065 12.6315 12.4217 12.6667 12.3333 12.6667H3.66667C3.57826 12.6667 3.49348 12.6315 3.43096 12.569C3.36845 12.5065 3.33333 12.4217 3.33333 12.3333V3.66667Z" fill="url(#paint0_linear)"/>
</g>
<defs>
<filter id="filter0_d" x="-1" y="-0.5" width="22" height="22" filterUnits="userSpaceOnUse" color-interpolation-filters="sRGB">
<feFlood flood-opacity="0" result="BackgroundImageFix"/>
<feColorMatrix in="SourceAlpha" type="matrix" values="0 0 0 0 0 0 0 0 0 0 0 0 0 0 0 0 0 0 127 0"/>
<feOffset dy="0.5"/>
<feGaussianBlur stdDeviation="0.5"/>
<feColorMatrix type="matrix" values="0 0 0 0 0 0 0 0 0 0 0 0 0 0 0 0 0 0 0.15 0"/>
<feBlend mode="normal" in2="BackgroundImageFix" result="effect1_dropShadow"/>
<feBlend mode="normal" in="SourceGraphic" in2="effect1_dropShadow" result="shape"/>
</filter>
<linearGradient id="paint0_linear" x1="10" y1="2" x2="10" y2="18" gradientUnits="userSpaceOnUse">
<stop stop-color="#2257E2"/>
<stop offset="1" stop-color="#5AA6FF"/>
</linearGradient>
</defs>
</svg>
