<svg width="18" height="20" viewBox="0 0 18 20" fill="none" xmlns="http://www.w3.org/2000/svg">
<path d="M4.00008 17.0833C3.55805 17.0833 3.13413 16.9078 2.82157 16.5952C2.50901 16.2826 2.33341 15.8587 2.33341 15.4167V4.58335C2.33341 4.14132 2.50901 3.7174 2.82157 3.40484C3.13413 3.09227 3.55805 2.91668 4.00008 2.91668H8.37508C8.48559 2.91668 8.59157 2.96058 8.66971 3.03872C8.74785 3.11686 8.79175 3.22284 8.79175 3.33335V3.75001C8.79176 3.83246 8.81624 3.91306 8.86207 3.98159C8.90791 4.05012 8.97305 4.10352 9.04925 4.13501C9.09979 4.15565 9.15382 4.1664 9.20842 4.16668C9.26317 4.16678 9.31741 4.15608 9.36802 4.13521C9.41864 4.11433 9.46465 4.08368 9.50342 4.04501L11.1701 2.37835C11.2089 2.33964 11.2397 2.29366 11.2607 2.24304C11.2817 2.19242 11.2925 2.13815 11.2925 2.08335C11.2925 2.02854 11.2817 1.97427 11.2607 1.92365C11.2397 1.87303 11.2089 1.82705 11.1701 1.78835L9.50342 0.12168C9.44514 0.0632575 9.37083 0.0234538 9.28991 0.00731479C9.20898 -0.0088242 9.12509 -0.00057161 9.04886 0.0310263C8.97263 0.0626243 8.90751 0.116145 8.86173 0.184802C8.81596 0.25346 8.7916 0.334163 8.79175 0.41668V0.833347C8.79175 0.943853 8.74785 1.04983 8.66971 1.12797C8.59157 1.20611 8.48559 1.25001 8.37508 1.25001H4.00008C3.11603 1.25001 2.26818 1.6012 1.64306 2.22632C1.01794 2.85145 0.666748 3.69929 0.666748 4.58335V15.4167C0.666748 16.3007 1.01794 17.1486 1.64306 17.7737C2.26818 18.3988 3.11603 18.75 4.00008 18.75C4.2211 18.75 4.43306 18.6622 4.58934 18.5059C4.74562 18.3497 4.83342 18.1377 4.83342 17.9167C4.83342 17.6957 4.74562 17.4837 4.58934 17.3274C4.43306 17.1711 4.2211 17.0833 4.00008 17.0833ZM14.0001 1.25001C13.7791 1.25001 13.5671 1.33781 13.4108 1.49409C13.2545 1.65037 13.1667 1.86233 13.1667 2.08335C13.1667 2.30436 13.2545 2.51632 13.4108 2.6726C13.5671 2.82888 13.7791 2.91668 14.0001 2.91668C14.4421 2.91668 14.866 3.09227 15.1786 3.40484C15.4912 3.7174 15.6667 4.14132 15.6667 4.58335V15.4167C15.6667 15.8587 15.4912 16.2826 15.1786 16.5952C14.866 16.9078 14.4421 17.0833 14.0001 17.0833H9.62508C9.51458 17.0833 9.40859 17.0394 9.33045 16.9613C9.25231 16.8832 9.20842 16.7772 9.20842 16.6667V16.25C9.2084 16.1676 9.18393 16.087 9.13809 16.0184C9.09225 15.9499 9.02711 15.8965 8.95092 15.865C8.90037 15.8444 8.84634 15.8336 8.79175 15.8333C8.73699 15.8332 8.68276 15.8439 8.63214 15.8648C8.58152 15.8857 8.53551 15.9163 8.49675 15.955L6.83008 17.6217C6.79128 17.6604 6.76049 17.7064 6.73949 17.757C6.71848 17.8076 6.70767 17.8619 6.70767 17.9167C6.70767 17.9715 6.71848 18.0258 6.73949 18.0764C6.76049 18.127 6.79128 18.173 6.83008 18.2117L8.49675 19.8783C8.55502 19.9368 8.62933 19.9766 8.71026 19.9927C8.79118 20.0089 8.87507 20.0006 8.9513 19.969C9.02753 19.9374 9.09266 19.8839 9.13843 19.8152C9.18421 19.7466 9.20856 19.6659 9.20842 19.5833V19.1667C9.20842 19.0562 9.25231 18.9502 9.33045 18.8721C9.40859 18.7939 9.51458 18.75 9.62508 18.75H14.0001C14.8841 18.75 15.732 18.3988 16.3571 17.7737C16.9822 17.1486 17.3334 16.3007 17.3334 15.4167V4.58335C17.3334 3.69929 16.9822 2.85145 16.3571 2.22632C15.732 1.6012 14.8841 1.25001 14.0001 1.25001Z" fill="#549DFC"/>
<path d="M8.99992 5.83325C8.17583 5.83325 7.37025 6.07762 6.68504 6.53546C5.99984 6.9933 5.46579 7.64405 5.15042 8.4054C4.83506 9.16676 4.75254 10.0045 4.91332 10.8128C5.07409 11.621 5.47092 12.3635 6.05364 12.9462C6.63636 13.5289 7.37879 13.9257 8.18704 14.0865C8.9953 14.2473 9.83307 14.1648 10.5944 13.8494C11.3558 13.534 12.0065 13 12.4644 12.3148C12.9222 11.6296 13.1666 10.824 13.1666 9.99992C13.1666 8.89485 12.7276 7.83504 11.9462 7.05364C11.1648 6.27224 10.105 5.83325 8.99992 5.83325V5.83325ZM9.50825 12.2871C9.48761 12.2901 9.46875 12.3005 9.45512 12.3163C9.44148 12.3321 9.43397 12.3523 9.43395 12.3732V12.6388C9.43395 12.7539 9.38822 12.8643 9.30682 12.9457C9.22543 13.0271 9.11503 13.0728 8.99992 13.0728C8.88481 13.0728 8.77441 13.0271 8.69302 12.9457C8.61162 12.8643 8.56589 12.7539 8.56589 12.6388V12.394C8.56594 12.3826 8.56372 12.3713 8.55938 12.3607C8.55503 12.3502 8.54864 12.3406 8.54057 12.3325C8.5325 12.3245 8.52291 12.3181 8.51236 12.3137C8.50181 12.3094 8.4905 12.3072 8.47909 12.3072H8.08082C7.96571 12.3072 7.85531 12.2615 7.77392 12.1801C7.69252 12.0987 7.64679 11.9883 7.64679 11.8732C7.64679 11.7581 7.69252 11.6477 7.77392 11.5663C7.85531 11.4849 7.96571 11.4392 8.08082 11.4392H9.32666C9.41686 11.4391 9.50424 11.4077 9.57379 11.3502C9.64333 11.2928 9.6907 11.2129 9.70775 11.1243C9.7248 11.0358 9.71047 10.944 9.66722 10.8648C9.62397 10.7857 9.5545 10.7241 9.47075 10.6905L8.20686 10.1846C7.95028 10.0829 7.73453 9.89918 7.59317 9.6621C7.45182 9.42502 7.39278 9.14787 7.42527 8.87376C7.45775 8.59966 7.57992 8.34398 7.77277 8.1465C7.96562 7.94903 8.21833 7.82083 8.49159 7.78186C8.5122 7.77886 8.53105 7.76855 8.54469 7.7528C8.55833 7.73706 8.56586 7.71693 8.56589 7.6961V7.43047C8.56589 7.31536 8.61162 7.20497 8.69302 7.12357C8.77441 7.04217 8.88481 6.99645 8.99992 6.99645C9.11503 6.99645 9.22543 7.04217 9.30682 7.12357C9.38822 7.20497 9.43395 7.31536 9.43395 7.43047V7.67561C9.43395 7.69863 9.44309 7.72071 9.45937 7.73699C9.47565 7.75327 9.49773 7.76242 9.52075 7.76242H9.91902C10.0341 7.76242 10.1445 7.80815 10.2259 7.88954C10.3073 7.97094 10.353 8.08133 10.353 8.19645C10.353 8.31156 10.3073 8.42195 10.2259 8.50335C10.1445 8.58475 10.0341 8.63047 9.91902 8.63047H8.67318C8.5829 8.63028 8.49538 8.66159 8.42571 8.719C8.35604 8.77641 8.30857 8.85633 8.2915 8.94498C8.27443 9.03363 8.28882 9.12546 8.33219 9.20464C8.37556 9.28382 8.44519 9.34539 8.52909 9.37874L9.79297 9.88464C10.0496 9.98639 10.2653 10.1701 10.4067 10.4072C10.548 10.6443 10.6071 10.9214 10.5746 11.1955C10.5421 11.4696 10.4199 11.7253 10.2271 11.9228C10.0342 12.1203 9.78151 12.2484 9.50825 12.2874V12.2871Z" fill="url(#paint0_linear)"/>
<defs>
<linearGradient id="paint0_linear" x1="8.99992" y1="5.83325" x2="8.99992" y2="14.1666" gradientUnits="userSpaceOnUse">
<stop stop-color="#2257E2"/>
<stop offset="1" stop-color="#5AA6FF"/>
</linearGradient>
</defs>
</svg>
