<svg width="21" height="22" viewBox="0 0 21 22" fill="none" xmlns="http://www.w3.org/2000/svg">
<path d="M15.375 11.625C18.1364 11.625 20.375 9.38642 20.375 6.625C20.375 3.86358 18.1364 1.625 15.375 1.625C12.6136 1.625 10.375 3.86358 10.375 6.625C10.375 9.38642 12.6136 11.625 15.375 11.625Z" fill="#FF6767"/>
<path d="M15.5875 14.2183C15.7561 15.0859 16.11 15.9068 16.625 16.625H1.625C1.625 16.625 2.875 14.6842 2.875 9.75C2.875 8.0924 3.53348 6.50269 4.70558 5.33058C5.87768 4.15848 7.4674 3.5 9.125 3.5V1.625M7.45667 19.125C7.56251 19.4856 7.7823 19.8022 8.08313 20.0274C8.38395 20.2526 8.74963 20.3743 9.12542 20.3743C9.5012 20.3743 9.86688 20.2526 10.1677 20.0274C10.4685 19.8022 10.6883 19.4856 10.7942 19.125" stroke="#717171" stroke-width="1.5" stroke-linecap="round" stroke-linejoin="round"/>
</svg>
