<svg width="20" height="14" viewBox="0 0 20 14" fill="none" xmlns="http://www.w3.org/2000/svg">
<path d="M16.7677 13.0876C16.7677 13.1998 16.8123 13.3074 16.8916 13.3867C16.971 13.466 17.0785 13.5106 17.1907 13.5106H19.5773C19.6465 13.5105 19.7148 13.4935 19.7759 13.4609C19.837 13.4283 19.8893 13.3812 19.9279 13.3238C19.9666 13.2663 19.9906 13.2002 19.9977 13.1313C20.0049 13.0624 19.995 12.9927 19.969 12.9285C19.718 12.3012 19.3027 11.753 18.7669 11.3414C18.231 10.9299 17.5942 10.6701 16.9234 10.5894C16.8532 10.5809 16.7821 10.5902 16.7164 10.6163C16.6507 10.6424 16.5926 10.6846 16.5474 10.7389C16.5023 10.7933 16.4714 10.8581 16.4577 10.9274C16.444 10.9968 16.448 11.0685 16.4691 11.1359C16.6671 11.7675 16.7678 12.4256 16.7677 13.0876ZM3.96539 11.0995C3.98576 11.0361 3.99089 10.9689 3.98035 10.9031C3.96981 10.8374 3.94391 10.7751 3.90476 10.7213C3.8656 10.6674 3.81429 10.6236 3.755 10.5933C3.69571 10.5631 3.63011 10.5472 3.56355 10.5471H3.55339C2.79556 10.5475 2.05517 10.7745 1.42741 11.1991C0.799658 11.6236 0.313238 12.2262 0.0306974 12.9294C0.00479914 12.9936 -0.00493646 13.0632 0.0023454 13.1321C0.00962725 13.2009 0.0337039 13.267 0.0724612 13.3243C0.111219 13.3817 0.163471 13.4287 0.224632 13.4612C0.285792 13.4937 0.35399 13.5106 0.423236 13.5106H3.23192C3.3441 13.5106 3.45169 13.466 3.53102 13.3867C3.61035 13.3074 3.65491 13.1998 3.65491 13.0876C3.65461 12.4128 3.75935 11.7421 3.96539 11.0995Z" fill="#549DFC"/>
<path d="M8.16409 7.84908C8.19701 7.86925 8.22378 7.89806 8.2415 7.93237C8.25921 7.96669 8.26719 8.00519 8.26458 8.04372C8.26196 8.08225 8.24885 8.11932 8.22666 8.15093C8.20447 8.18253 8.17406 8.20746 8.13871 8.223C7.18545 8.63002 6.37267 9.30795 5.80119 10.1727C5.22971 11.0374 4.92468 12.0509 4.92395 13.0874C4.92395 13.1996 4.96852 13.3072 5.04784 13.3865C5.12717 13.4659 5.23476 13.5104 5.34694 13.5104H15.0758C15.188 13.5104 15.2956 13.4659 15.3749 13.3865C15.4542 13.3072 15.4988 13.1996 15.4988 13.0874C15.4971 12.0494 15.1901 11.0347 14.6161 10.1698C14.0421 9.3049 13.2264 8.62787 12.2705 8.223C12.2348 8.20749 12.204 8.18245 12.1815 8.15061C12.1591 8.11877 12.1458 8.08137 12.1432 8.0425C12.1406 8.00363 12.1487 7.96478 12.1667 7.93022C12.1847 7.89566 12.2118 7.86671 12.2451 7.84654C12.9997 7.39835 13.5861 6.71468 13.9141 5.90069C14.2422 5.08669 14.2937 4.18746 14.0608 3.34132C13.8279 2.49517 13.3234 1.74899 12.625 1.21754C11.9266 0.686087 11.073 0.398814 10.1953 0.399905C9.31773 0.400997 8.46478 0.690393 7.7677 1.22358C7.07062 1.75676 6.56802 2.5042 6.33722 3.35092C6.10641 4.19764 6.16018 5.09674 6.49025 5.90992C6.82033 6.7231 7.40843 7.40531 8.16409 7.85161V7.84908ZM7.88491 4.40506C7.88493 4.24508 7.90281 4.08561 7.93821 3.92961C7.9529 3.86432 7.98288 3.80344 8.02567 3.75199C8.06847 3.70054 8.12286 3.65997 8.18438 3.63363C8.2459 3.60729 8.3128 3.59592 8.37957 3.60046C8.44634 3.605 8.51108 3.62531 8.56847 3.65974C9.37933 4.1479 10.308 4.40559 11.2545 4.40506C11.502 4.40483 11.7491 4.38645 11.9939 4.35007C12.06 4.34017 12.1275 4.34608 12.1908 4.36731C12.2542 4.38853 12.3117 4.42447 12.3585 4.47218C12.4053 4.51989 12.4401 4.57801 12.4601 4.64178C12.4801 4.70555 12.4847 4.77315 12.4736 4.83905C12.366 5.40548 12.051 5.9114 11.5901 6.25777C11.1292 6.60414 10.5556 6.76602 9.98159 6.71173C9.4076 6.65744 8.87454 6.39089 8.48674 5.96425C8.09894 5.53761 7.88433 4.9816 7.88491 4.40506Z" fill="url(#paint0_linear)"/>
<path d="M16.4464 9.70354C16.9321 9.70651 17.4068 9.55829 17.8045 9.27943C18.2023 9.00056 18.5034 8.60486 18.6662 8.14718C18.829 7.6895 18.8453 7.19252 18.713 6.72512C18.5807 6.25772 18.3063 5.84306 17.9277 5.53862C17.5492 5.23419 17.0853 5.05505 16.6004 5.02606C16.1155 4.99706 15.6336 5.11963 15.2215 5.37679C14.8094 5.63394 14.4875 6.01293 14.3004 6.46123C14.1133 6.90953 14.0703 7.40493 14.1774 7.87874C14.2962 8.3933 14.5845 8.85299 14.996 9.18395C15.4075 9.5149 15.9183 9.6979 16.4464 9.70354Z" fill="#549DFC"/>
<path d="M3.55367 9.70329C4.83855 9.70329 5.88014 8.6617 5.88014 7.37682C5.88014 6.09195 4.83855 5.05035 3.55367 5.05035C2.2688 5.05035 1.2272 6.09195 1.2272 7.37682C1.2272 8.6617 2.2688 9.70329 3.55367 9.70329Z" fill="#549DFC"/>
<defs>
<linearGradient id="paint0_linear" x1="10.2114" y1="0.399902" x2="10.2114" y2="13.5104" gradientUnits="userSpaceOnUse">
<stop stop-color="#2257E2"/>
<stop offset="1" stop-color="#5AA6FF"/>
</linearGradient>
</defs>
</svg>
