<svg width="16" height="20" viewBox="0 0 16 20" fill="none" xmlns="http://www.w3.org/2000/svg">
<path d="M14.6824 0.489101C14.5276 0.424115 14.3569 0.406831 14.1923 0.439464C14.0276 0.472096 13.8764 0.55316 13.7581 0.672264L13.2358 1.19547C13.1958 1.23493 13.1418 1.25705 13.0857 1.25705C13.0295 1.25705 12.9756 1.23493 12.9356 1.19547L11.9892 0.248276C11.8302 0.0893049 11.6146 0 11.3897 0C11.1649 0 10.9492 0.0893049 10.7902 0.248276L9.84385 1.19547C9.80386 1.23493 9.74994 1.25705 9.69376 1.25705C9.63758 1.25705 9.58366 1.23493 9.54367 1.19547L8.59732 0.248276C8.43831 0.0893049 8.22266 0 7.99781 0C7.77295 0 7.55731 0.0893049 7.39829 0.248276L6.45195 1.19547C6.41196 1.23493 6.35803 1.25705 6.30185 1.25705C6.24567 1.25705 6.19175 1.23493 6.15176 1.19547L5.20542 0.248276C5.0464 0.0893049 4.83075 0 4.6059 0C4.38105 0 4.1654 0.0893049 4.00638 0.248276L3.06004 1.19462C3.04041 1.21446 3.01703 1.23021 2.99127 1.24097C2.9655 1.25172 2.93787 1.25725 2.90995 1.25725C2.88203 1.25725 2.85439 1.25172 2.82863 1.24097C2.80287 1.23021 2.77949 1.21446 2.75986 1.19462L2.23835 0.672264C2.11981 0.553418 1.96865 0.472429 1.80404 0.439557C1.63943 0.406685 1.46876 0.423409 1.31367 0.48761C1.15857 0.551811 1.02601 0.660601 0.932789 0.800198C0.839568 0.939796 0.789877 1.10392 0.790009 1.27178V18.7282C0.790045 18.8959 0.839797 19.0598 0.932976 19.1992C1.02616 19.3386 1.15858 19.4473 1.3135 19.5115C1.46843 19.5756 1.6389 19.5924 1.80337 19.5597C1.96783 19.527 2.11891 19.4463 2.2375 19.3277L2.75986 18.8054C2.79985 18.7659 2.85377 18.7438 2.90995 18.7438C2.96613 18.7438 3.02005 18.7659 3.06004 18.8054L4.00638 19.7517C4.1654 19.9107 4.38105 20 4.6059 20C4.83075 20 5.0464 19.9107 5.20542 19.7517L6.15176 18.8054C6.19175 18.7659 6.24567 18.7438 6.30185 18.7438C6.35803 18.7438 6.41196 18.7659 6.45195 18.8054L7.39829 19.7517C7.55731 19.9107 7.77295 20 7.99781 20C8.22266 20 8.43831 19.9107 8.59732 19.7517L9.54367 18.8054C9.58366 18.7659 9.63758 18.7438 9.69376 18.7438C9.74994 18.7438 9.80386 18.7659 9.84385 18.8054L10.7902 19.7517C10.9492 19.9107 11.1649 20 11.3897 20C11.6146 20 11.8302 19.9107 11.9892 19.7517L12.9356 18.8054C12.9756 18.7659 13.0295 18.7438 13.0857 18.7438C13.1418 18.7438 13.1958 18.7659 13.2358 18.8054L13.7581 19.3277C13.8767 19.4463 14.0278 19.527 14.1922 19.5597C14.3567 19.5924 14.5272 19.5756 14.6821 19.5115C14.837 19.4473 14.9695 19.3386 15.0626 19.1992C15.1558 19.0598 15.2056 18.8959 15.2056 18.7282V1.27178C15.2055 1.10423 15.1557 0.940463 15.0626 0.801164C14.9695 0.661865 14.8372 0.553275 14.6824 0.489101ZM12.2377 11.484H11.3897C11.221 11.484 11.0593 11.417 10.94 11.2977C10.8207 11.1784 10.7537 11.0167 10.7537 10.848C10.7537 10.6793 10.8207 10.5175 10.94 10.3983C11.0593 10.279 11.221 10.212 11.3897 10.212H12.2377C12.4064 10.212 12.5681 10.279 12.6874 10.3983C12.8067 10.5175 12.8737 10.6793 12.8737 10.848C12.8737 11.0167 12.8067 11.1784 12.6874 11.2977C12.5681 11.417 12.4064 11.484 12.2377 11.484ZM12.8737 14.2399C12.8737 14.4086 12.8067 14.5703 12.6874 14.6896C12.5681 14.8089 12.4064 14.8759 12.2377 14.8759H11.3897C11.221 14.8759 11.0593 14.8089 10.94 14.6896C10.8207 14.5703 10.7537 14.4086 10.7537 14.2399C10.7537 14.0712 10.8207 13.9094 10.94 13.7902C11.0593 13.6709 11.221 13.6039 11.3897 13.6039H12.2377C12.4064 13.6039 12.5681 13.6709 12.6874 13.7902C12.8067 13.9094 12.8737 14.0712 12.8737 14.2399ZM12.2377 8.09206H11.3897C11.221 8.09206 11.0593 8.02505 10.94 7.90578C10.8207 7.78651 10.7537 7.62475 10.7537 7.45607C10.7537 7.2874 10.8207 7.12564 10.94 7.00637C11.0593 6.8871 11.221 6.82009 11.3897 6.82009H12.2377C12.4064 6.82009 12.5681 6.8871 12.6874 7.00637C12.8067 7.12564 12.8737 7.2874 12.8737 7.45607C12.8737 7.62475 12.8067 7.78651 12.6874 7.90578C12.5681 8.02505 12.4064 8.09206 12.2377 8.09206ZM3.75793 11.484C3.58925 11.484 3.42749 11.417 3.30822 11.2977C3.18895 11.1784 3.12194 11.0167 3.12194 10.848C3.12194 10.6793 3.18895 10.5175 3.30822 10.3983C3.42749 10.279 3.58925 10.212 3.75793 10.212H7.99781C8.16648 10.212 8.32824 10.279 8.44751 10.3983C8.56678 10.5175 8.63379 10.6793 8.63379 10.848C8.63379 11.0167 8.56678 11.1784 8.44751 11.2977C8.32824 11.417 8.16648 11.484 7.99781 11.484H3.75793ZM6.93784 14.2399C6.93784 14.4086 6.87083 14.5703 6.75156 14.6896C6.63229 14.8089 6.47053 14.8759 6.30185 14.8759H3.75793C3.58925 14.8759 3.42749 14.8089 3.30822 14.6896C3.18895 14.5703 3.12194 14.4086 3.12194 14.2399C3.12194 14.0712 3.18895 13.9094 3.30822 13.7902C3.42749 13.6709 3.58925 13.6039 3.75793 13.6039H6.30185C6.47053 13.6039 6.63229 13.6709 6.75156 13.7902C6.87083 13.9094 6.93784 14.0712 6.93784 14.2399ZM3.12194 7.45607C3.12194 7.2874 3.18895 7.12564 3.30822 7.00637C3.42749 6.8871 3.58925 6.82009 3.75793 6.82009H7.14983C7.3185 6.82009 7.48027 6.8871 7.59954 7.00637C7.71881 7.12564 7.78581 7.2874 7.78581 7.45607C7.78581 7.62475 7.71881 7.78651 7.59954 7.90578C7.48027 8.02505 7.3185 8.09206 7.14983 8.09206H3.75793C3.58925 8.09206 3.42749 8.02505 3.30822 7.90578C3.18895 7.78651 3.12194 7.62475 3.12194 7.45607Z" fill="url(#paint0_linear)"/>
<defs>
<linearGradient id="paint0_linear" x1="7.99781" y1="0" x2="7.99781" y2="20" gradientUnits="userSpaceOnUse">
<stop stop-color="#2257E2"/>
<stop offset="1" stop-color="#5AA6FF"/>
</linearGradient>
</defs>
</svg>
