<svg width="14" height="15" viewBox="0 0 14 15" fill="none" xmlns="http://www.w3.org/2000/svg">
<circle cx="7" cy="7.5" r="7" fill="#5AB9FE"/>
<g clip-path="url(#clip0_11113_97919)">
<path d="M10.1832 6.42545H10.0432C10.0259 6.42555 10.0091 6.41977 9.99554 6.40905C9.98199 6.39834 9.97248 6.38334 9.96858 6.3665C9.80846 5.74132 9.41807 5.19971 8.87559 4.85014C8.86176 4.84094 8.85129 4.82749 8.84575 4.81182C8.84022 4.79615 8.83991 4.77911 8.84489 4.76326C8.89282 4.61557 8.97731 4.48239 9.0905 4.37611C9.13038 4.33844 9.15943 4.29078 9.17465 4.23808C9.18986 4.18538 9.19068 4.12956 9.17701 4.07644C9.16335 4.02332 9.1357 3.97483 9.09695 3.93601C9.05819 3.89719 9.00975 3.86946 8.95664 3.85571C8.72131 3.79441 8.47305 3.80447 8.24345 3.88462C8.01384 3.96476 7.81325 4.11137 7.66717 4.3058C7.65863 4.31714 7.64709 4.32587 7.63386 4.33103C7.62063 4.33618 7.60622 4.33754 7.59226 4.33497C7.11625 4.24373 6.62631 4.25443 6.15473 4.36635C5.68316 4.47828 5.24066 4.68889 4.85643 4.98431C4.40652 5.33082 4.08771 5.81992 3.95226 6.37141C3.94969 6.3833 3.94999 6.39562 3.95313 6.40736C3.95628 6.4191 3.96218 6.42992 3.97034 6.43893C3.97851 6.44793 3.9887 6.45486 4.00008 6.45914C4.01146 6.46342 4.02369 6.46492 4.03577 6.46352C4.32001 6.43429 4.60571 6.42158 4.89143 6.42545C5.4373 6.42545 6.88704 6.42545 6.88704 7.19299V9.41703C6.88704 9.43733 6.89508 9.45681 6.90941 9.47119C6.92374 9.48558 6.94318 9.4937 6.96349 9.49378C7.3013 9.49495 7.6374 9.4457 7.96068 9.34764C7.97038 9.34475 7.98055 9.3438 7.99061 9.34486C8.00068 9.34591 8.01043 9.34894 8.01932 9.35378C8.03718 9.36369 8.05041 9.38024 8.05616 9.39984L8.20568 9.91685C8.23341 10.0127 8.29152 10.0969 8.37125 10.1569C8.45098 10.2168 8.54802 10.2493 8.64779 10.2494C8.69123 10.2494 8.73444 10.2432 8.77612 10.2309C8.89333 10.1969 8.99225 10.1178 9.05114 10.0109C9.11003 9.90396 9.12408 9.77805 9.0902 9.6608L8.89125 8.9737C8.88676 8.95838 8.88716 8.94205 8.89239 8.92697C8.89762 8.9119 8.90741 8.89882 8.92042 8.88957C9.25544 8.65783 9.53385 8.35349 9.73493 7.99922C9.7416 7.98723 9.75135 7.97724 9.76317 7.97028C9.77499 7.96332 9.78845 7.95964 9.80217 7.95962H10.1832C10.3053 7.95962 10.4225 7.9111 10.5088 7.82473C10.5952 7.73837 10.6437 7.62123 10.6437 7.49909V6.88598C10.6437 6.76384 10.5952 6.6467 10.5088 6.56033C10.4225 6.47397 10.3053 6.42545 10.1832 6.42545ZM8.49458 6.42545C8.49458 6.36473 8.51259 6.30537 8.54633 6.25488C8.58006 6.20439 8.62801 6.16504 8.68411 6.1418C8.74021 6.11857 8.80194 6.11249 8.8615 6.12433C8.92105 6.13618 8.97576 6.16542 9.0187 6.20836C9.06163 6.25129 9.09087 6.306 9.10272 6.36555C9.11457 6.42511 9.10849 6.48684 9.08525 6.54294C9.06201 6.59904 9.02266 6.64699 8.97217 6.68073C8.92168 6.71446 8.86232 6.73247 8.8016 6.73247C8.72018 6.73247 8.64208 6.70012 8.58451 6.64254C8.52693 6.58497 8.49458 6.50688 8.49458 6.42545ZM5.71608 5.84212C5.66723 5.87871 5.60587 5.89445 5.54544 5.88587C5.48501 5.8773 5.43044 5.84511 5.39371 5.79637C5.3755 5.77219 5.36224 5.74465 5.35468 5.71534C5.34713 5.68603 5.34543 5.65552 5.34968 5.62555C5.35392 5.59558 5.36404 5.56674 5.37945 5.54068C5.39485 5.51463 5.41524 5.49186 5.43945 5.4737C5.92382 5.10921 6.52329 4.93144 7.12805 4.97295C7.15831 4.9749 7.18789 4.98281 7.21509 4.99622C7.24228 5.00963 7.26656 5.02829 7.28653 5.05111C7.3065 5.07393 7.32177 5.10047 7.33145 5.12921C7.34113 5.15794 7.34505 5.18831 7.34296 5.21856C7.33779 5.27921 7.3093 5.33548 7.2635 5.37556C7.2177 5.41564 7.15814 5.4364 7.09735 5.43348C6.60292 5.40061 6.11304 5.54554 5.71608 5.84212Z" fill="white"/>
<path d="M6.38597 8.63413C6.39828 8.62757 6.40858 8.6178 6.41577 8.60585C6.42296 8.5939 6.42678 8.58022 6.42681 8.56628V7.83773C6.42682 7.82545 6.42388 7.81335 6.41825 7.80245C6.41261 7.79154 6.40445 7.78215 6.39443 7.77505C6.38442 7.76795 6.37285 7.76336 6.36069 7.76166C6.34854 7.75996 6.33615 7.76119 6.32457 7.76527C5.85952 7.90212 5.37642 7.96775 4.89172 7.95992C4.40712 7.96773 3.92412 7.9021 3.45917 7.76527C3.44758 7.76121 3.43518 7.75997 3.42301 7.76168C3.41084 7.76338 3.39926 7.76797 3.38922 7.77506C3.37919 7.78215 3.37099 7.79154 3.36532 7.80244C3.35965 7.81334 3.35667 7.82544 3.35663 7.83773V8.56659C3.3567 8.5806 3.36056 8.59434 3.3678 8.60634C3.37505 8.61834 3.3854 8.62815 3.39777 8.63474C3.87294 8.82077 4.382 8.90447 4.89172 8.88036C5.40163 8.90517 5.91098 8.82123 6.38597 8.63413ZM4.89141 10.4167C4.40681 10.4245 3.92382 10.3589 3.45887 10.222C3.44727 10.218 3.43487 10.2167 3.4227 10.2184C3.41053 10.2201 3.39895 10.2247 3.38891 10.2318C3.37888 10.2389 3.37069 10.2483 3.36502 10.2592C3.35935 10.2701 3.35637 10.2822 3.35632 10.2945V10.8772C3.35632 11.0473 4.04374 11.1842 4.89141 11.1842C5.73909 11.1842 6.4265 11.0473 6.4265 10.8772V10.2939C6.42651 10.2816 6.42357 10.2695 6.41794 10.2586C6.41231 10.2477 6.40414 10.2383 6.39413 10.2312C6.38411 10.2241 6.37254 10.2195 6.36038 10.2178C6.34823 10.2161 6.33584 10.2173 6.32426 10.2214C5.85924 10.3585 5.37615 10.4243 4.89141 10.4167ZM3.35632 7.19299V7.33913C3.35639 7.35314 3.36025 7.36688 3.3675 7.37888C3.37474 7.39088 3.38509 7.40069 3.39746 7.40729C3.87263 7.59332 4.3817 7.67701 4.89141 7.6529C5.40147 7.67756 5.91093 7.59341 6.38597 7.40606C6.39828 7.3995 6.40858 7.38973 6.41577 7.37778C6.42296 7.36583 6.42678 7.35215 6.42681 7.33821V7.19299C6.42681 7.02382 5.7397 6.88597 4.89172 6.88597C4.04374 6.88597 3.35632 7.02382 3.35632 7.19299ZM6.4265 9.0658C6.42651 9.05352 6.42357 9.04142 6.41794 9.03052C6.41231 9.01961 6.40414 9.01022 6.39413 9.00312C6.38411 8.99602 6.37254 8.99143 6.36038 8.98973C6.34823 8.98803 6.33584 8.98926 6.32426 8.99334C5.85921 9.13019 5.37612 9.19582 4.89141 9.18799C4.40681 9.1958 3.92382 9.13017 3.45887 8.99334C3.44727 8.98928 3.43487 8.98805 3.4227 8.98975C3.41053 8.99145 3.39895 8.99604 3.38891 9.00313C3.37888 9.01022 3.37069 9.01961 3.36502 9.03051C3.35935 9.04141 3.35637 9.05351 3.35632 9.0658V9.79466C3.35639 9.80867 3.36025 9.82241 3.3675 9.83441C3.37474 9.84641 3.38509 9.85622 3.39746 9.86281C3.87263 10.0488 4.3817 10.1325 4.89141 10.1084C5.40142 10.1333 5.91089 10.0493 6.38597 9.8622C6.39828 9.85564 6.40858 9.84587 6.41577 9.83392C6.42296 9.82197 6.42678 9.80829 6.42681 9.79435L6.4265 9.0658Z" fill="white"/>
</g>
<defs>
<clipPath id="clip0_11113_97919">
<rect width="7.36842" height="7.36842" fill="white" transform="translate(3.3158 3.8158)"/>
</clipPath>
</defs>
</svg>
