<svg width="19" height="19" viewBox="0 0 19 19" fill="none" xmlns="http://www.w3.org/2000/svg">
<path d="M11.8746 7.14956C11.8746 7.09707 11.8954 7.04673 11.9326 7.00962C11.9697 6.9725 12.02 6.95165 12.0725 6.95165H14.6454C14.7996 6.95176 14.9505 6.90685 15.0795 6.82242C15.2085 6.738 15.31 6.61774 15.3717 6.47641C15.4333 6.33508 15.4523 6.17883 15.4264 6.02685C15.4005 5.87487 15.3307 5.73376 15.2257 5.62086L10.3498 0.370522C10.2388 0.257855 10.1065 0.168384 9.96064 0.107314C9.81474 0.0462448 9.65815 0.0147953 9.49999 0.0147953C9.34182 0.0147953 9.18524 0.0462448 9.03934 0.107314C8.89344 0.168384 8.76114 0.257855 8.65013 0.370522L3.77347 5.62086C3.66847 5.73376 3.59873 5.87487 3.5728 6.02685C3.54687 6.17883 3.56589 6.33508 3.62751 6.47641C3.68914 6.61774 3.79069 6.738 3.91971 6.82242C4.04872 6.90685 4.19958 6.95176 4.35376 6.95165H6.92667C6.97917 6.95165 7.02951 6.9725 7.06662 7.00962C7.10374 7.04673 7.12459 7.09707 7.12459 7.14956V11.0691C7.12459 11.2791 7.208 11.4804 7.35647 11.6289C7.50493 11.7774 7.7063 11.8608 7.91626 11.8608H11.0829C11.2929 11.8608 11.4943 11.7774 11.6427 11.6289C11.7912 11.4804 11.8746 11.2791 11.8746 11.0691V7.14956Z" fill="#5FCF64"/>
<path d="M11.0833 13.0482H7.91667C7.47944 13.0482 7.125 13.4026 7.125 13.8398V14.6315C7.125 15.0687 7.47944 15.4232 7.91667 15.4232H11.0833C11.5206 15.4232 11.875 15.0687 11.875 14.6315V13.8398C11.875 13.4026 11.5206 13.0482 11.0833 13.0482Z" fill="#5FCF64"/>
<path d="M11.0833 16.6107H7.91667C7.47944 16.6107 7.125 16.9651 7.125 17.4023V18.194C7.125 18.6312 7.47944 18.9857 7.91667 18.9857H11.0833C11.5206 18.9857 11.875 18.6312 11.875 18.194V17.4023C11.875 16.9651 11.5206 16.6107 11.0833 16.6107Z" fill="#5FCF64"/>
</svg>
