<svg width="14" height="14" viewBox="0 0 14 14" fill="none" xmlns="http://www.w3.org/2000/svg">
<path d="M8.89616 12.1042C8.89616 11.0571 8.04737 10.2083 7.00033 10.2083C5.95329 10.2083 5.10449 11.0571 5.10449 12.1042C5.10449 13.1512 5.95329 14 7.00033 14C8.04737 14 8.89616 13.1512 8.89616 12.1042Z" fill="#DDDDDD"/>
<path d="M8.89616 6.99999C8.89616 5.95295 8.04737 5.10416 7.00033 5.10416C5.95329 5.10416 5.10449 5.95295 5.10449 6.99999C5.10449 8.04703 5.95329 8.89583 7.00033 8.89583C8.04737 8.89583 8.89616 8.04703 8.89616 6.99999Z" fill="#DDDDDD"/>
<path d="M8.89616 1.89584C8.89616 0.848799 8.04737 5.72205e-06 7.00033 5.72205e-06C5.95329 5.72205e-06 5.10449 0.848799 5.10449 1.89584C5.10449 2.94288 5.95329 3.79167 7.00033 3.79167C8.04737 3.79167 8.89616 2.94288 8.89616 1.89584Z" fill="#DDDDDD"/>
</svg>
