<svg width="28" height="28" viewBox="0 0 28 28" fill="none" xmlns="http://www.w3.org/2000/svg">
<circle cx="14" cy="14" r="13.5" fill="#5ABAFF" fill-opacity="0.1" stroke="#5ABAFF"/>
<g clip-path="url(#clip0)">
<path d="M19.25 7H10.5C10.0359 7 9.59075 7.18437 9.26256 7.51256C8.93437 7.84075 8.75 8.28587 8.75 8.75V11.375C8.75 11.5297 8.81146 11.6781 8.92085 11.7875C9.03025 11.8969 9.17862 11.9583 9.33333 11.9583C9.48804 11.9583 9.63642 11.8969 9.74581 11.7875C9.85521 11.6781 9.91667 11.5297 9.91667 11.375V11.2292C9.91667 11.1905 9.93203 11.1534 9.95938 11.126C9.98673 11.0987 10.0238 11.0833 10.0625 11.0833H19.6875C19.7262 11.0833 19.7633 11.0987 19.7906 11.126C19.818 11.1534 19.8333 11.1905 19.8333 11.2292V14C19.8333 14.1063 19.8042 14.2106 19.7492 14.3016C19.6942 14.3926 19.6154 14.4668 19.5212 14.5163C19.436 14.5661 19.3657 14.638 19.318 14.7245C19.2702 14.8109 19.2467 14.9087 19.25 15.0074C19.2493 15.1074 19.2742 15.206 19.3225 15.2935C19.3708 15.3811 19.4408 15.4548 19.5258 15.5075C19.6108 15.5602 19.708 15.5902 19.8079 15.5946C19.9078 15.5989 20.0072 15.5775 20.0964 15.5324C20.3703 15.3811 20.5985 15.1591 20.7575 14.8896C20.9164 14.6201 21.0001 14.3129 21 14V8.75C21 8.28587 20.8156 7.84075 20.4874 7.51256C20.1592 7.18437 19.7141 7 19.25 7V7ZM10.0625 9.33333C10.0238 9.33333 9.98673 9.31797 9.95938 9.29062C9.93203 9.26327 9.91667 9.22618 9.91667 9.1875V8.75C9.91667 8.59529 9.97812 8.44692 10.0875 8.33752C10.1969 8.22812 10.3453 8.16667 10.5 8.16667H19.25C19.4047 8.16667 19.5531 8.22812 19.6625 8.33752C19.7719 8.44692 19.8333 8.59529 19.8333 8.75V9.1875C19.8333 9.22618 19.818 9.26327 19.7906 9.29062C19.7633 9.31797 19.7262 9.33333 19.6875 9.33333H10.0625Z" fill="#5ABAFF"/>
<path d="M16.9167 12.8334H8.16667C7.85725 12.8334 7.5605 12.9563 7.34171 13.1751C7.12292 13.3939 7 13.6906 7 14V19.8334C7 20.1428 7.12292 20.4395 7.34171 20.6583C7.5605 20.8771 7.85725 21 8.16667 21H16.9167C17.2261 21 17.5228 20.8771 17.7416 20.6583C17.9604 20.4395 18.0833 20.1428 18.0833 19.8334V14C18.0833 13.6906 17.9604 13.3939 17.7416 13.1751C17.5228 12.9563 17.2261 12.8334 16.9167 12.8334ZM10.5 16.0417C10.5 16.1191 10.4693 16.1932 10.4146 16.2479C10.3599 16.3026 10.2857 16.3334 10.2083 16.3334H9.04167C8.96431 16.3334 8.89013 16.3026 8.83543 16.2479C8.78073 16.1932 8.75 16.1191 8.75 16.0417V14.875C8.75 14.7977 8.78073 14.7235 8.83543 14.6688C8.89013 14.6141 8.96431 14.5834 9.04167 14.5834H10.2083C10.2857 14.5834 10.3599 14.6141 10.4146 14.6688C10.4693 14.7235 10.5 14.7977 10.5 14.875V16.0417ZM15.4583 19.25C15.1713 19.2503 14.8943 19.1443 14.6808 18.9525C14.6539 18.9286 14.6193 18.9154 14.5833 18.9154C14.5474 18.9154 14.5127 18.9286 14.4859 18.9525C14.3181 19.1028 14.1104 19.2013 13.8878 19.2361C13.6652 19.2708 13.4373 19.2404 13.2317 19.1485C13.026 19.0566 12.8513 18.9071 12.7288 18.7181C12.6062 18.5291 12.541 18.3086 12.541 18.0834C12.541 17.8581 12.6062 17.6377 12.7288 17.4486C12.8513 17.2596 13.026 17.1101 13.2317 17.0182C13.4373 16.9263 13.6652 16.8959 13.8878 16.9307C14.1104 16.9655 14.3181 17.0639 14.4859 17.2142C14.5127 17.2381 14.5474 17.2513 14.5833 17.2513C14.6193 17.2513 14.6539 17.2381 14.6808 17.2142C14.8217 17.088 14.9912 16.998 15.1746 16.9519C15.3581 16.9058 15.55 16.905 15.7339 16.9496C15.9177 16.9941 16.088 17.0827 16.2299 17.2077C16.3719 17.3327 16.4814 17.4904 16.5489 17.6671C16.6164 17.8438 16.6399 18.0343 16.6174 18.2221C16.5949 18.4099 16.5271 18.5895 16.4197 18.7453C16.3124 18.901 16.1688 19.0284 16.0013 19.1163C15.8339 19.2043 15.6475 19.2501 15.4583 19.25Z" fill="#5ABAFF"/>
</g>
<defs>
<clipPath id="clip0">
<rect width="14" height="14" fill="white" transform="translate(7 7)"/>
</clipPath>
</defs>
</svg>
