<svg width="28" height="28" viewBox="0 0 28 28" fill="none" xmlns="http://www.w3.org/2000/svg">
<circle cx="14" cy="14" r="13.5" fill="#5ABAFF" fill-opacity="0.1" stroke="#5ABAFF"/>
<path d="M13.9251 11.046C13.9479 11.0594 13.9739 11.0665 14.0003 11.0665C14.0268 11.0665 14.0528 11.0594 14.0756 11.046L16.7087 9.46574C16.7303 9.45281 16.7481 9.43452 16.7605 9.41264C16.7729 9.39076 16.7794 9.36604 16.7793 9.3409C16.7793 9.3157 16.7728 9.29093 16.7604 9.26897C16.7481 9.247 16.7303 9.22859 16.7087 9.21549L14.3007 7.77057C14.2101 7.71617 14.1063 7.68744 14.0006 7.68744C13.8949 7.68744 13.7912 7.71617 13.7005 7.77057L11.2919 9.21665C11.2704 9.22975 11.2526 9.24817 11.2402 9.27013C11.2279 9.2921 11.2214 9.31687 11.2213 9.34207C11.2213 9.36721 11.2278 9.39192 11.2401 9.4138C11.2525 9.43569 11.2703 9.45398 11.2919 9.4669L13.9251 11.046ZM14.292 11.7565V14.3331C14.2919 14.3589 14.2987 14.3844 14.3117 14.4067C14.3248 14.4291 14.3435 14.4476 14.3661 14.4602C14.3884 14.4731 14.4138 14.4799 14.4396 14.4799C14.4654 14.4799 14.4907 14.4731 14.5131 14.4602L17.1381 12.8852C17.1596 12.8721 17.1774 12.8537 17.1898 12.8318C17.2021 12.8098 17.2086 12.785 17.2087 12.7598V10.1815C17.2087 10.1557 17.2019 10.1304 17.1888 10.1081C17.1758 10.0859 17.1571 10.0675 17.1346 10.0549C17.1122 10.042 17.0869 10.0352 17.0611 10.0352C17.0353 10.0352 17.0099 10.042 16.9876 10.0549L14.3626 11.6299C14.3408 11.643 14.3228 11.6616 14.3104 11.6838C14.2981 11.706 14.2917 11.7311 14.292 11.7565ZM13.4876 14.4585C13.5099 14.4714 13.5353 14.4782 13.5611 14.4782C13.5869 14.4782 13.6122 14.4714 13.6346 14.4585C13.6571 14.4458 13.6759 14.4273 13.6889 14.405C13.7019 14.3826 13.7088 14.3572 13.7087 14.3313V11.7565C13.7086 11.7314 13.7021 11.7067 13.6898 11.6848C13.6774 11.6629 13.6596 11.6446 13.6381 11.6317L11.0131 10.0567C10.9907 10.0438 10.9654 10.037 10.9396 10.037C10.9138 10.037 10.8884 10.0438 10.8661 10.0567C10.8436 10.0692 10.8248 10.0876 10.8118 10.1099C10.7988 10.1321 10.7919 10.1574 10.792 10.1832V12.7581C10.792 12.7833 10.7985 12.808 10.8109 12.83C10.8232 12.852 10.841 12.8704 10.8626 12.8835L13.4876 14.4585ZM14.7213 15.1742C14.7213 15.1994 14.7278 15.2241 14.7401 15.246C14.7525 15.2679 14.7703 15.2861 14.7919 15.2991L17.4251 16.8793C17.4479 16.8928 17.4739 16.8999 17.5003 16.8999C17.5268 16.8999 17.5528 16.8928 17.5756 16.8793L20.2087 15.2991C20.2303 15.2861 20.2481 15.2679 20.2605 15.246C20.2729 15.2241 20.2794 15.1994 20.2793 15.1742C20.2793 15.149 20.2728 15.1243 20.2604 15.1023C20.2481 15.0803 20.2303 15.0619 20.2087 15.0488L17.5756 13.4692C17.5528 13.4557 17.5268 13.4486 17.5003 13.4486C17.4739 13.4486 17.4479 13.4557 17.4251 13.4692L14.7919 15.05C14.7705 15.063 14.7529 15.0812 14.7405 15.103C14.7282 15.1247 14.7216 15.1492 14.7213 15.1742ZM17.792 17.5898V20.1664C17.7919 20.1923 17.7987 20.2177 17.8117 20.2401C17.8248 20.2624 17.8435 20.2809 17.8661 20.2936C17.8884 20.3065 17.9138 20.3133 17.9396 20.3133C17.9654 20.3133 17.9907 20.3065 18.0131 20.2936L20.4257 18.8417C20.512 18.7898 20.5834 18.7165 20.633 18.6289C20.6826 18.5413 20.7086 18.4424 20.7087 18.3417V16.0148C20.7087 15.989 20.7019 15.9637 20.6888 15.9414C20.6758 15.9192 20.6571 15.9008 20.6346 15.8882C20.6122 15.8753 20.5869 15.8685 20.5611 15.8685C20.5353 15.8685 20.5099 15.8753 20.4876 15.8882L17.8626 17.4632C17.8408 17.4764 17.8228 17.4949 17.8104 17.5171C17.7981 17.5393 17.7917 17.5644 17.792 17.5898ZM14.3661 15.8882C14.3436 15.9008 14.3248 15.9192 14.3118 15.9414C14.2988 15.9637 14.2919 15.989 14.292 16.0148V18.5914C14.292 18.6166 14.2985 18.6414 14.3109 18.6633C14.3232 18.6853 14.341 18.7037 14.3626 18.7168L16.9876 20.2918C17.0099 20.3047 17.0353 20.3115 17.0611 20.3115C17.0869 20.3115 17.1122 20.3047 17.1346 20.2918C17.1571 20.2791 17.1759 20.2607 17.1889 20.2383C17.2019 20.216 17.2088 20.1905 17.2087 20.1647V17.5898C17.2086 17.5647 17.2021 17.54 17.1898 17.5181C17.1774 17.4963 17.1596 17.478 17.1381 17.465L14.5131 15.89C14.4909 15.8768 14.4656 15.8697 14.4398 15.8694C14.414 15.8691 14.3886 15.8756 14.3661 15.8882ZM10.4251 16.8793C10.4479 16.8928 10.4739 16.8999 10.5003 16.8999C10.5268 16.8999 10.5528 16.8928 10.5756 16.8793L13.2087 15.2991C13.2303 15.2861 13.2481 15.2679 13.2605 15.246C13.2729 15.2241 13.2794 15.1994 13.2793 15.1742C13.2793 15.149 13.2728 15.1243 13.2604 15.1023C13.2481 15.0803 13.2303 15.0619 13.2087 15.0488L10.5756 13.4692C10.5528 13.4557 10.5268 13.4486 10.5003 13.4486C10.4739 13.4486 10.4479 13.4557 10.4251 13.4692L7.79191 15.05C7.77038 15.0631 7.75258 15.0815 7.74022 15.1035C7.72786 15.1254 7.72135 15.1502 7.72133 15.1754C7.72128 15.2005 7.72777 15.2253 7.74014 15.2471C7.75251 15.269 7.77035 15.2873 7.79191 15.3002L10.4251 16.8793ZM13.6346 15.8882C13.6122 15.8753 13.5869 15.8685 13.5611 15.8685C13.5353 15.8685 13.5099 15.8753 13.4876 15.8882L10.8626 17.4632C10.8411 17.4762 10.8232 17.4945 10.8109 17.5164C10.7985 17.5382 10.792 17.5629 10.792 17.5881V20.1647C10.7919 20.1905 10.7987 20.216 10.8117 20.2383C10.8248 20.2607 10.8435 20.2791 10.8661 20.2918C10.8884 20.3047 10.9138 20.3115 10.9396 20.3115C10.9654 20.3115 10.9907 20.3047 11.0131 20.2918L13.6381 18.7168C13.6596 18.7037 13.6774 18.6853 13.6898 18.6633C13.7021 18.6414 13.7086 18.6166 13.7087 18.5914V16.0148C13.7087 15.989 13.7019 15.9637 13.6888 15.9414C13.6758 15.9192 13.6571 15.9008 13.6346 15.8882ZM7.57549 18.8417L9.98758 20.2895C10.0099 20.3024 10.0353 20.3092 10.0611 20.3092C10.0869 20.3092 10.1122 20.3024 10.1346 20.2895C10.1571 20.2768 10.1759 20.2583 10.1889 20.236C10.2019 20.2136 10.2088 20.1882 10.2087 20.1623V17.5898C10.2086 17.5647 10.2021 17.54 10.1898 17.5181C10.1774 17.4963 10.1596 17.478 10.1381 17.465L7.51308 15.89C7.49073 15.8771 7.46538 15.8703 7.43958 15.8703C7.41377 15.8703 7.38842 15.8771 7.36608 15.89C7.34357 15.9026 7.32483 15.9209 7.3118 15.9432C7.29878 15.9654 7.29194 15.9908 7.29199 16.0166V18.3458C7.29277 18.4458 7.31926 18.544 7.36891 18.6308C7.41855 18.7176 7.48969 18.7902 7.57549 18.8417Z" fill="#5ABAFF"/>
</svg>
