<svg width="28" height="28" viewBox="0 0 28 28" fill="none" xmlns="http://www.w3.org/2000/svg">
<circle cx="14" cy="14" r="13.5" fill="#5ABAFF" fill-opacity="0.1" stroke="#5ABAFF"/>
<path d="M19.25 7.875H17.7917C17.753 7.875 17.7159 7.89036 17.6885 7.91771C17.6612 7.94506 17.6458 7.98216 17.6458 8.02083V8.79142C17.6457 8.81407 17.651 8.83643 17.6611 8.8567C17.6712 8.87696 17.686 8.89456 17.7042 8.90808C17.8583 9.01445 17.9742 9.16746 18.0349 9.34461C18.0956 9.52176 18.0978 9.7137 18.0413 9.89223C17.9848 10.0708 17.8725 10.2265 17.721 10.3364C17.5694 10.4464 17.3866 10.5048 17.1993 10.5032C17.0121 10.5015 16.8303 10.4398 16.6807 10.3271C16.5311 10.2145 16.4216 10.0568 16.3683 9.87731C16.315 9.69781 16.3207 9.50593 16.3845 9.32989C16.4484 9.15385 16.567 9.00294 16.723 8.89933C16.7394 8.88724 16.7523 8.87108 16.7605 8.85246C16.7686 8.83384 16.7718 8.8134 16.7697 8.79317V8.02083C16.7697 7.98216 16.7543 7.94506 16.727 7.91771C16.6996 7.89036 16.6625 7.875 16.6238 7.875H14.5833C14.5447 7.875 14.5076 7.89036 14.4802 7.91771C14.4529 7.94506 14.4375 7.98216 14.4375 8.02083V8.78442C14.4367 8.81022 14.4426 8.83579 14.4545 8.85868C14.4665 8.88156 14.4841 8.90099 14.5057 8.91508C14.6572 9.02245 14.7706 9.17521 14.8295 9.35127C14.8884 9.52733 14.8898 9.71756 14.8334 9.89445C14.7771 10.0713 14.666 10.2257 14.5161 10.3353C14.3662 10.4449 14.1854 10.5039 13.9997 10.5039C13.8141 10.5039 13.6332 10.4449 13.4833 10.3353C13.3335 10.2257 13.2223 10.0713 13.166 9.89445C13.1096 9.71756 13.111 9.52733 13.1699 9.35127C13.2288 9.17521 13.3422 9.02245 13.4937 8.91508C13.5153 8.90225 13.5331 8.88385 13.5452 8.86179C13.5573 8.83972 13.5633 8.81482 13.5625 8.78967V8.02083C13.5625 7.98216 13.5471 7.94506 13.5198 7.91771C13.4924 7.89036 13.4553 7.875 13.4167 7.875H11.375C11.3363 7.875 11.2992 7.89036 11.2719 7.91771C11.2445 7.94506 11.2292 7.98216 11.2292 8.02083V8.78558C11.2282 8.81069 11.2338 8.83561 11.2452 8.85797C11.2566 8.88034 11.2736 8.8994 11.2945 8.91333C11.4471 9.01999 11.5616 9.17252 11.6215 9.34875C11.6815 9.52498 11.6836 9.71572 11.6277 9.89327C11.5718 10.0708 11.4607 10.2259 11.3106 10.336C11.1606 10.4461 10.9793 10.5054 10.7931 10.5054C10.607 10.5054 10.4257 10.4461 10.2756 10.336C10.1255 10.2259 10.0144 10.0708 9.95853 9.89327C9.90262 9.71572 9.90478 9.52498 9.96471 9.34875C10.0246 9.17252 10.1392 9.01999 10.2917 8.91333C10.311 8.90054 10.3267 8.88319 10.3376 8.86284C10.3485 8.84248 10.3542 8.81975 10.3542 8.79667V8.02083C10.3542 7.98216 10.3388 7.94506 10.3115 7.91771C10.2841 7.89036 10.247 7.875 10.2083 7.875H8.75C8.51794 7.875 8.29538 7.96719 8.13128 8.13128C7.96719 8.29538 7.875 8.51794 7.875 8.75V19.25C7.875 19.4821 7.96719 19.7046 8.13128 19.8687C8.29538 20.0328 8.51794 20.125 8.75 20.125H19.25C19.4821 20.125 19.7046 20.0328 19.8687 19.8687C20.0328 19.7046 20.125 19.4821 20.125 19.25V8.75C20.125 8.51794 20.0328 8.29538 19.8687 8.13128C19.7046 7.96719 19.4821 7.875 19.25 7.875ZM16.0417 17.9375H10.2083C10.0923 17.9375 9.98102 17.8914 9.89897 17.8094C9.81693 17.7273 9.77083 17.616 9.77083 17.5C9.77083 17.384 9.81693 17.2727 9.89897 17.1906C9.98102 17.1086 10.0923 17.0625 10.2083 17.0625H16.0417C16.1577 17.0625 16.269 17.1086 16.351 17.1906C16.4331 17.2727 16.4792 17.384 16.4792 17.5C16.4792 17.616 16.4331 17.7273 16.351 17.8094C16.269 17.8914 16.1577 17.9375 16.0417 17.9375ZM17.7917 15.6042H10.2083C10.0923 15.6042 9.98102 15.5581 9.89897 15.476C9.81693 15.394 9.77083 15.2827 9.77083 15.1667C9.77083 15.0506 9.81693 14.9394 9.89897 14.8573C9.98102 14.7753 10.0923 14.7292 10.2083 14.7292H17.7917C17.9077 14.7292 18.019 14.7753 18.101 14.8573C18.1831 14.9394 18.2292 15.0506 18.2292 15.1667C18.2292 15.2827 18.1831 15.394 18.101 15.476C18.019 15.5581 17.9077 15.6042 17.7917 15.6042ZM17.7917 13.2708H10.2083C10.0923 13.2708 9.98102 13.2247 9.89897 13.1427C9.81693 13.0606 9.77083 12.9494 9.77083 12.8333C9.77083 12.7173 9.81693 12.606 9.89897 12.524C9.98102 12.4419 10.0923 12.3958 10.2083 12.3958H17.7917C17.9077 12.3958 18.019 12.4419 18.101 12.524C18.1831 12.606 18.2292 12.7173 18.2292 12.8333C18.2292 12.9494 18.1831 13.0606 18.101 13.1427C18.019 13.2247 17.9077 13.2708 17.7917 13.2708Z" fill="#5ABAFF"/>
</svg>
