<svg width="28" height="28" viewBox="0 0 28 28" fill="none" xmlns="http://www.w3.org/2000/svg">
<circle cx="14" cy="14" r="13.5" fill="#5ABAFF" fill-opacity="0.1" stroke="#5ABAFF"/>
<g clip-path="url(#clip0)">
<path d="M13.5768 12.299C13.5768 12.1829 13.5307 12.0716 13.4487 11.9896C13.3666 11.9075 13.2554 11.8615 13.1393 11.8615H10.2227C10.1066 11.8615 9.99534 11.9075 9.9133 11.9896C9.83125 12.0716 9.78516 12.1829 9.78516 12.299C9.78516 12.415 9.83125 12.5263 9.9133 12.6083C9.99534 12.6904 10.1066 12.7364 10.2227 12.7364H13.1393C13.2554 12.7364 13.3666 12.6904 13.4487 12.6083C13.5307 12.5263 13.5768 12.415 13.5768 12.299ZM10.2227 14.4864C10.1066 14.4864 9.99534 14.5325 9.9133 14.6146C9.83125 14.6966 9.78516 14.8079 9.78516 14.9239C9.78516 15.04 9.83125 15.1513 9.9133 15.2333C9.99534 15.3154 10.1066 15.3614 10.2227 15.3614H11.9727C12.0887 15.3614 12.2 15.3154 12.282 15.2333C12.3641 15.1513 12.4102 15.04 12.4102 14.9239C12.4102 14.8079 12.3641 14.6966 12.282 14.6146C12.2 14.5325 12.0887 14.4864 11.9727 14.4864H10.2227Z" fill="#5ABAFF"/>
<path d="M17.888 17.7199C19.0607 17.7199 20.0113 16.7693 20.0113 15.5966C20.0113 14.4239 19.0607 13.4733 17.888 13.4733C16.7153 13.4733 15.7646 14.4239 15.7646 15.5966C15.7646 16.7693 16.7153 17.7199 17.888 17.7199Z" fill="#5ABAFF"/>
<path d="M17.8062 18.1346C17.0609 18.1319 16.3371 18.3841 15.7549 18.8494C15.1727 19.3147 14.7671 19.965 14.6054 20.6925C14.5957 20.7352 14.5957 20.7795 14.6055 20.8222C14.6152 20.8649 14.6345 20.9048 14.6617 20.9391C14.689 20.9733 14.7237 21.001 14.7631 21.02C14.8025 21.039 14.8457 21.0489 14.8895 21.049H20.7229C20.7666 21.0489 20.8098 21.039 20.8493 21.02C20.8887 21.001 20.9233 20.9733 20.9506 20.9391C20.9779 20.9048 20.9971 20.8649 21.0069 20.8222C21.0166 20.7795 21.0167 20.7352 21.0069 20.6925C20.8452 19.965 20.4396 19.3147 19.8574 18.8494C19.2752 18.3841 18.5515 18.1319 17.8062 18.1346ZM13.9854 17.7432H8.73535C8.58064 17.7432 8.43227 17.6817 8.32287 17.5724C8.21348 17.463 8.15202 17.3146 8.15202 17.1599V10.014C8.15202 9.97536 8.16738 9.93827 8.19473 9.91092C8.22208 9.88357 8.25917 9.8682 8.29785 9.8682H19.6729C19.7115 9.8682 19.7486 9.88357 19.776 9.91092C19.8033 9.93827 19.8187 9.97536 19.8187 10.014V12.2015C19.8187 12.3562 19.8801 12.5046 19.9895 12.614C20.0989 12.7234 20.2473 12.7849 20.402 12.7849C20.5567 12.7849 20.7051 12.7234 20.8145 12.614C20.9239 12.5046 20.9854 12.3562 20.9854 12.2015V8.70154C20.9854 8.23741 20.801 7.79229 20.4728 7.4641C20.1446 7.13591 19.6995 6.95154 19.2354 6.95154H8.73535C8.27122 6.95154 7.8261 7.13591 7.49791 7.4641C7.16973 7.79229 6.98535 8.23741 6.98535 8.70154V17.1599C6.98535 17.624 7.16973 18.0691 7.49791 18.3973C7.8261 18.7255 8.27122 18.9099 8.73535 18.9099H13.9854C14.1401 18.9099 14.2884 18.8484 14.3978 18.739C14.5072 18.6296 14.5687 18.4812 14.5687 18.3265C14.5687 18.2499 14.5536 18.1741 14.5243 18.1033C14.495 18.0325 14.452 17.9682 14.3978 17.9141C14.3437 17.8599 14.2794 17.8169 14.2086 17.7876C14.1378 17.7583 14.062 17.7432 13.9854 17.7432ZM12.6169 8.1182C12.6656 8.02993 12.7371 7.95634 12.824 7.90509C12.9108 7.85384 13.0098 7.82681 13.1106 7.82681C13.2115 7.82681 13.3105 7.85384 13.3973 7.90509C13.4842 7.95634 13.5557 8.02993 13.6044 8.1182C13.6601 8.20555 13.6909 8.30636 13.6937 8.40987C13.6911 8.51341 13.6602 8.61427 13.6044 8.70154C13.5557 8.78981 13.4842 8.8634 13.3973 8.91465C13.3105 8.9659 13.2115 8.99293 13.1106 8.99293C13.0098 8.99293 12.9108 8.9659 12.824 8.91465C12.7371 8.8634 12.6656 8.78981 12.6169 8.70154C12.5606 8.61443 12.5296 8.51351 12.527 8.40987C12.5297 8.30627 12.5608 8.20539 12.6169 8.1182ZM10.5752 8.1182C10.6239 8.02993 10.6955 7.95634 10.7823 7.90509C10.8691 7.85384 10.9681 7.82681 11.069 7.82681C11.1698 7.82681 11.2688 7.85384 11.3557 7.90509C11.4425 7.95634 11.514 8.02993 11.5628 8.1182C11.6184 8.20555 11.6492 8.30636 11.652 8.40987C11.6494 8.51341 11.6185 8.61427 11.5628 8.70154C11.514 8.78981 11.4425 8.8634 11.3557 8.91465C11.2688 8.9659 11.1698 8.99293 11.069 8.99293C10.9681 8.99293 10.8691 8.9659 10.7823 8.91465C10.6955 8.8634 10.6239 8.78981 10.5752 8.70154C10.519 8.61443 10.4879 8.51351 10.4854 8.40987C10.4881 8.30627 10.5191 8.20539 10.5752 8.1182ZM8.49735 8.17187C8.5431 8.06949 8.6174 7.98246 8.71134 7.92122C8.80528 7.85997 8.91488 7.8271 9.02702 7.82654C9.12767 7.82777 9.22625 7.85535 9.31293 7.90652C9.39962 7.95769 9.47139 8.03067 9.5211 8.1182C9.57672 8.20555 9.60757 8.30636 9.61035 8.40987C9.60774 8.51341 9.57688 8.61427 9.5211 8.70154C9.47235 8.78981 9.40083 8.8634 9.31399 8.91465C9.22714 8.9659 9.12815 8.99293 9.02731 8.99293C8.92647 8.99293 8.82748 8.9659 8.74063 8.91465C8.65379 8.8634 8.58227 8.78981 8.53352 8.70154C8.47732 8.61443 8.44623 8.51351 8.44368 8.40987C8.44429 8.32761 8.4626 8.24644 8.49735 8.17187Z" fill="#5ABAFF"/>
</g>
<defs>
<clipPath id="clip0">
<rect width="14" height="14" fill="white" transform="translate(7 7)"/>
</clipPath>
</defs>
</svg>
