<svg width="28" height="28" viewBox="0 0 28 28" fill="none" xmlns="http://www.w3.org/2000/svg">
<circle cx="14" cy="14" r="13.5" fill="#5ABAFF" fill-opacity="0.1" stroke="#5ABAFF"/>
<g clip-path="url(#clip0)">
<path d="M16.2562 13.1011C16.3019 13.0814 16.3418 13.0502 16.3721 13.0107C16.4024 12.9711 16.422 12.9244 16.4292 12.8751C16.4363 12.8258 16.4307 12.7755 16.4129 12.729C16.395 12.6825 16.3656 12.6413 16.3273 12.6094C16.0714 12.3961 15.7872 12.2194 15.4827 12.0844C15.4585 12.0739 15.4376 12.0571 15.4222 12.0357C15.4069 12.0143 15.3976 11.9892 15.3955 11.9629C15.3933 11.9367 15.3983 11.9103 15.41 11.8867C15.4216 11.8631 15.4395 11.8431 15.4617 11.8289C15.9383 11.5194 16.3021 11.0642 16.4989 10.5311C16.6956 9.99798 16.7148 9.41554 16.5534 8.87066C16.3921 8.32578 16.0589 7.84766 15.6036 7.50763C15.1483 7.1676 14.5952 6.98389 14.0269 6.98389C13.4587 6.98389 12.9056 7.1676 12.4503 7.50763C11.995 7.84766 11.6618 8.32578 11.5005 8.87066C11.3391 9.41554 11.3582 9.99798 11.555 10.5311C11.7518 11.0642 12.1156 11.5194 12.5922 11.8289C12.6142 11.8432 12.6319 11.8632 12.6435 11.8867C12.6551 11.9103 12.6601 11.9365 12.658 11.9627C12.6559 11.9889 12.6468 12.014 12.6316 12.0354C12.6165 12.0568 12.5958 12.0737 12.5718 12.0844C12.2599 12.2221 11.9692 12.4036 11.7085 12.6234C11.6707 12.6553 11.6417 12.6962 11.6241 12.7424C11.6065 12.7886 11.601 12.8385 11.608 12.8875C11.615 12.9364 11.6343 12.9827 11.6641 13.0221C11.694 13.0616 11.7333 13.0928 11.7785 13.1128C12.3179 13.354 12.7881 13.7269 13.1458 14.1972C13.173 14.2334 13.2082 14.2628 13.2487 14.2831C13.2892 14.3033 13.3339 14.3139 13.3792 14.3139H14.624C14.6693 14.3139 14.7139 14.3033 14.7544 14.2831C14.7949 14.2628 14.8302 14.2334 14.8573 14.1972C15.2223 13.7184 15.7039 13.341 16.2562 13.1011ZM12.6436 9.15837C12.651 9.13763 12.663 9.11885 12.6788 9.10343C12.6945 9.08801 12.7135 9.07635 12.7344 9.06933C12.7553 9.06232 12.7775 9.06012 12.7993 9.06291C12.8212 9.06571 12.8421 9.07341 12.8606 9.08545C13.4108 9.44461 14.0538 9.63575 14.7109 9.63554C14.9137 9.63456 15.116 9.61504 15.3152 9.5772C15.3369 9.57322 15.3591 9.57418 15.3803 9.58C15.4015 9.58583 15.4211 9.59638 15.4377 9.61085C15.4542 9.62532 15.4673 9.64335 15.4759 9.66359C15.4845 9.68383 15.4884 9.70574 15.4873 9.7277C15.466 10.1097 15.2961 10.4682 15.0139 10.7266C14.7317 10.985 14.3597 11.1228 13.9773 11.1105C13.5949 11.0983 13.2325 10.9369 12.9674 10.661C12.7024 10.385 12.5558 10.0164 12.559 9.63379C12.5595 9.47162 12.5882 9.31078 12.6436 9.15837ZM12.9895 16.3205C12.9919 15.8632 12.8753 15.4132 12.6511 15.0146C12.4268 14.6161 12.1028 14.2827 11.7107 14.0474C11.3186 13.812 10.872 13.6828 10.4148 13.6723C9.95761 13.6619 9.50558 13.7706 9.10315 13.9878C8.70072 14.205 8.36175 14.5232 8.11955 14.9111C7.87736 15.299 7.7403 15.7432 7.72184 16.2002C7.70337 16.6571 7.80415 17.111 8.01425 17.5171C8.22436 17.9233 8.53656 18.2678 8.92015 18.5168C8.94198 18.5312 8.95953 18.5513 8.97099 18.5748C8.98245 18.5983 8.9874 18.6245 8.98531 18.6506C8.98323 18.6766 8.97419 18.7017 8.95914 18.7231C8.94409 18.7445 8.92358 18.7615 8.89973 18.7723C8.67643 18.8708 8.46394 18.9922 8.26565 19.1345C7.81594 19.4538 7.44602 19.8727 7.18473 20.3584C7.14943 20.4249 7.13194 20.4995 7.13394 20.5748C7.13595 20.6501 7.1574 20.7236 7.1962 20.7882C7.23501 20.8527 7.28984 20.9062 7.3554 20.9433C7.42095 20.9804 7.49498 21 7.57032 21H13.1388C13.2142 21 13.2882 20.9804 13.3537 20.9433C13.4193 20.9062 13.4741 20.8527 13.5129 20.7882C13.5517 20.7236 13.5732 20.6501 13.5752 20.5748C13.5772 20.4995 13.5597 20.4249 13.5244 20.3584C13.2633 19.8722 12.8933 19.453 12.4435 19.1334C12.2452 18.991 12.0327 18.8697 11.8094 18.7711C11.7854 18.7605 11.7647 18.7435 11.7496 18.7221C11.7344 18.7007 11.7253 18.6756 11.7232 18.6494C11.7211 18.6233 11.7261 18.597 11.7377 18.5735C11.7493 18.5499 11.767 18.5299 11.789 18.5156C12.1563 18.2789 12.4585 17.954 12.6682 17.5707C12.8779 17.1873 12.9883 16.7575 12.9895 16.3205ZM8.9709 15.8434C8.97833 15.8226 8.99037 15.8038 9.0061 15.7884C9.02183 15.773 9.04085 15.7613 9.06173 15.7543C9.08262 15.7473 9.10482 15.7451 9.12667 15.7479C9.14852 15.7507 9.16945 15.7584 9.1879 15.7705C9.73817 16.1296 10.3811 16.3208 11.0382 16.3205C11.241 16.3196 11.4433 16.3 11.6426 16.2622C11.6642 16.2584 11.6864 16.2595 11.7076 16.2654C11.7288 16.2712 11.7484 16.2817 11.7651 16.296C11.7816 16.3105 11.7946 16.3285 11.8032 16.3487C11.8118 16.3689 11.8157 16.3908 11.8147 16.4127C11.7933 16.7947 11.6234 17.1532 11.3412 17.4116C11.0591 17.67 10.687 17.8078 10.3046 17.7955C9.92223 17.7833 9.55979 17.6219 9.29476 17.346C9.02973 17.07 8.88314 16.7014 8.88632 16.3188C8.88688 16.1566 8.9155 15.9958 8.9709 15.8434ZM19.7352 19.1334C19.5369 18.991 19.3244 18.8697 19.1011 18.7711C19.0771 18.7605 19.0564 18.7435 19.0412 18.7221C19.0261 18.7007 19.017 18.6756 19.0149 18.6494C19.0128 18.6233 19.0178 18.597 19.0294 18.5735C19.0409 18.5499 19.0587 18.5299 19.0807 18.5156C19.5574 18.2062 19.9213 17.751 20.1181 17.2179C20.3149 16.6848 20.3341 16.1023 20.1728 15.5574C20.0114 15.0125 19.6783 14.5343 19.2229 14.1942C18.7676 13.8542 18.2145 13.6704 17.6462 13.6704C17.0779 13.6704 16.5249 13.8542 16.0695 14.1942C15.6142 14.5343 15.281 15.0125 15.1197 15.5574C14.9584 16.1023 14.9776 16.6848 15.1744 17.2179C15.3712 17.751 15.7351 18.2062 16.2118 18.5156C16.2336 18.5301 16.2512 18.5501 16.2627 18.5736C16.2741 18.5971 16.2791 18.6233 16.277 18.6494C16.2749 18.6755 16.2659 18.7005 16.2508 18.7219C16.2358 18.7433 16.2152 18.7603 16.1914 18.7711C15.9681 18.8697 15.7556 18.991 15.5573 19.1334C15.1075 19.453 14.7375 19.8722 14.4764 20.3584C14.4411 20.4249 14.4236 20.4995 14.4256 20.5748C14.4276 20.6501 14.4491 20.7236 14.4879 20.7882C14.5267 20.8527 14.5815 20.9062 14.6471 20.9433C14.7126 20.9804 14.7867 21 14.862 21H20.4305C20.5058 21 20.5799 20.9804 20.6454 20.9433C20.711 20.9062 20.7658 20.8527 20.8046 20.7882C20.8434 20.7236 20.8648 20.6501 20.8669 20.5748C20.8689 20.4995 20.8514 20.4249 20.8161 20.3584C20.5549 19.8722 20.185 19.453 19.7352 19.1334ZM16.2626 15.8434C16.27 15.8226 16.282 15.8038 16.2978 15.7884C16.3135 15.773 16.3325 15.7613 16.3534 15.7543C16.3743 15.7473 16.3965 15.7451 16.4183 15.7479C16.4402 15.7507 16.4611 15.7584 16.4796 15.7705C17.0298 16.1296 17.6728 16.3208 18.3299 16.3205C18.5327 16.3196 18.735 16.3 18.9342 16.2622C18.9559 16.2584 18.9781 16.2595 18.9993 16.2654C19.0205 16.2712 19.0401 16.2817 19.0567 16.296C19.0732 16.3105 19.0863 16.3285 19.0949 16.3487C19.1035 16.3689 19.1074 16.3908 19.1063 16.4127C19.085 16.7947 18.9151 17.1532 18.6329 17.4116C18.3507 17.67 17.9787 17.8078 17.5963 17.7955C17.2139 17.7833 16.8515 17.6219 16.5864 17.346C16.3214 17.07 16.1748 16.7014 16.178 16.3188C16.1785 16.1566 16.2072 15.9958 16.2626 15.8434Z" fill="#5ABAFF"/>
</g>
<defs>
<clipPath id="clip0">
<rect width="14" height="14" fill="white" transform="translate(7 7)"/>
</clipPath>
</defs>
</svg>
