<svg width="28" height="28" viewBox="0 0 28 28" fill="none" xmlns="http://www.w3.org/2000/svg">
<circle cx="14" cy="14" r="13.5" fill="#5ABAFF" fill-opacity="0.1" stroke="#5ABAFF"/>
<g clip-path="url(#clip0)">
<path d="M16.1875 10.7917C16.1875 11.1784 16.0339 11.5494 15.7604 11.8229C15.4869 12.0964 15.1159 12.25 14.7292 12.25C14.6803 12.2486 14.6316 12.2439 14.5833 12.236C14.5652 12.2333 14.5466 12.2346 14.529 12.2397C14.5113 12.2448 14.495 12.2537 14.4811 12.2657C14.4672 12.2778 14.4561 12.2926 14.4484 12.3093C14.4408 12.326 14.4369 12.3442 14.4369 12.3626V14.2917C14.4369 14.369 14.4676 14.4432 14.5223 14.4979C14.577 14.5526 14.6512 14.5833 14.7286 14.5833C14.9404 14.5815 15.1517 14.562 15.3603 14.525C15.4283 14.5136 15.4901 14.4784 15.5346 14.4257C15.5791 14.3731 15.6036 14.3064 15.6036 14.2374V13.6722C15.6035 13.642 15.6128 13.6126 15.6301 13.588C15.6475 13.5633 15.672 13.5446 15.7004 13.5345C15.7957 13.5005 15.8892 13.4615 15.9804 13.4178C16.0076 13.4047 16.0382 13.4004 16.068 13.4054C16.0978 13.4104 16.1253 13.4245 16.1467 13.4458L16.548 13.8466C16.5968 13.8954 16.6613 13.9254 16.7301 13.9312C16.7988 13.937 16.8674 13.9181 16.9237 13.8781C17.2693 13.6323 17.5712 13.3302 17.8168 12.9844C17.8566 12.9282 17.8754 12.8598 17.8696 12.7911C17.8638 12.7225 17.834 12.6581 17.7853 12.6093L17.3833 12.2097C17.362 12.1883 17.3479 12.1609 17.3429 12.1311C17.3379 12.1013 17.3422 12.0707 17.3553 12.0435C17.3993 11.9517 17.4382 11.8584 17.472 11.7635C17.4822 11.7348 17.5011 11.71 17.5261 11.6926C17.5511 11.6752 17.581 11.6661 17.6114 11.6667H18.1767C18.2456 11.6667 18.3123 11.6422 18.365 11.5977C18.4176 11.5532 18.4528 11.4914 18.4643 11.4234C18.5397 11.0056 18.5397 10.5777 18.4643 10.1599C18.4528 10.0919 18.4176 10.0302 18.365 9.98564C18.3123 9.94111 18.2456 9.91668 18.1767 9.91667H17.6114C17.5814 9.91661 17.5521 9.90728 17.5275 9.88995C17.503 9.87261 17.4844 9.84813 17.4743 9.81983C17.4399 9.72475 17.4008 9.63083 17.3577 9.53925C17.3445 9.51205 17.3402 9.48145 17.3452 9.45167C17.3502 9.42189 17.3644 9.3944 17.3857 9.373L17.7864 8.97225C17.8353 8.92349 17.8652 8.85898 17.871 8.79019C17.8768 8.7214 17.858 8.6528 17.8179 8.59658C17.5723 8.25097 17.2705 7.94907 16.9248 7.7035C16.8687 7.66337 16.8001 7.64446 16.7313 7.65012C16.6626 7.65578 16.598 7.68565 16.5492 7.73442L16.1478 8.13517C16.127 8.15668 16.1 8.17125 16.0706 8.17689C16.0411 8.18252 16.0107 8.17895 15.9833 8.16667C15.8922 8.12272 15.7987 8.08377 15.7033 8.05C15.675 8.03991 15.6506 8.02132 15.6332 7.99678C15.6159 7.97225 15.6066 7.94296 15.6065 7.91292V7.34417C15.606 7.27517 15.581 7.2086 15.5361 7.15626C15.4911 7.10393 15.429 7.06923 15.3609 7.05833C15.1523 7.02134 14.941 7.00183 14.7292 7C14.6518 7 14.5776 7.03073 14.5229 7.08543C14.4682 7.14013 14.4375 7.21431 14.4375 7.29167V9.19742C14.4375 9.2182 14.4419 9.23875 14.4505 9.25769C14.4591 9.27662 14.4716 9.29351 14.4872 9.3072C14.5029 9.3209 14.5212 9.3311 14.5411 9.33712C14.561 9.34313 14.582 9.34483 14.6026 9.34208C14.6446 9.33654 14.6868 9.33361 14.7292 9.33333C15.1159 9.33333 15.4869 9.48698 15.7604 9.76047C16.0339 10.034 16.1875 10.4049 16.1875 10.7917ZM13.2708 7C12.2652 7 11.3008 7.39948 10.5897 8.11055C9.87864 8.82163 9.47917 9.78605 9.47917 10.7917C9.47917 11.7973 9.87864 12.7617 10.5897 13.4728C11.3008 14.1839 12.2652 14.5833 13.2708 14.5833C13.3482 14.5833 13.4224 14.5526 13.4771 14.4979C13.5318 14.4432 13.5625 14.369 13.5625 14.2917V7.29167C13.5625 7.21431 13.5318 7.14013 13.4771 7.08543C13.4224 7.03073 13.3482 7 13.2708 7V7ZM13.2708 14.875C11.7243 14.8767 10.2415 15.4918 9.14792 16.5854C8.05433 17.679 7.4392 19.1618 7.4375 20.7083C7.4375 20.7857 7.46823 20.8599 7.52293 20.9146C7.57763 20.9693 7.65181 21 7.72917 21H13.2708C13.3482 21 13.4224 20.9693 13.4771 20.9146C13.5318 20.8599 13.5625 20.7857 13.5625 20.7083V15.1667C13.5625 15.0893 13.5318 15.0151 13.4771 14.9604C13.4224 14.9057 13.3482 14.875 13.2708 14.875ZM20.4838 19.7884C20.4724 19.7199 20.4372 19.6576 20.3843 19.6124C20.3315 19.5673 20.2645 19.5422 20.195 19.5417H19.3597C19.328 19.5417 19.2971 19.5314 19.2718 19.5123C19.2464 19.4933 19.2279 19.4665 19.2191 19.4361C19.1661 19.2516 19.1016 19.0706 19.026 18.8942C19.0145 18.8674 19.0114 18.8377 19.017 18.8091C19.0227 18.7805 19.0368 18.7542 19.0575 18.7337L19.6992 18.0921C19.7441 18.0469 19.7731 17.9882 19.7815 17.9249C19.7899 17.8617 19.7774 17.7975 19.7458 17.7421C19.3229 17.0264 18.7514 16.4098 18.0699 15.9337C18.0138 15.8959 17.9463 15.8788 17.8789 15.8853C17.8115 15.8918 17.7485 15.9215 17.7007 15.9693L17.0969 16.5667C17.0749 16.5888 17.0463 16.6033 17.0154 16.6079C16.9845 16.6125 16.953 16.6071 16.9254 16.5923C16.7188 16.4824 16.5044 16.388 16.2838 16.31C16.2553 16.3 16.2306 16.2813 16.2131 16.2567C16.1957 16.232 16.1863 16.2025 16.1863 16.1723V15.2921C16.1865 15.2261 16.1642 15.162 16.1232 15.1103C16.0822 15.0586 16.0249 15.0223 15.9606 15.0074C15.5529 14.9193 15.1369 14.8749 14.7198 14.875C14.6439 14.8771 14.5718 14.9088 14.5189 14.9633C14.4659 15.0177 14.4363 15.0907 14.4363 15.1667V17.9667C14.4367 18.0022 14.4502 18.0363 14.4744 18.0623C14.4986 18.0883 14.5316 18.1043 14.567 18.1073C15.275 18.1786 15.9365 18.4924 16.4396 18.9955C16.9428 19.4987 17.2566 20.1602 17.3279 20.8682C17.3308 20.9036 17.3469 20.9366 17.3729 20.9608C17.3989 20.9849 17.433 20.9985 17.4685 20.9988H20.2685C20.3441 20.9989 20.4167 20.9696 20.4711 20.9172C20.5255 20.8647 20.5574 20.7932 20.5602 20.7177C20.5592 20.4064 20.5336 20.0957 20.4838 19.7884Z" fill="#5ABAFF"/>
</g>
<defs>
<clipPath id="clip0">
<rect width="14" height="14" fill="white" transform="translate(7 7)"/>
</clipPath>
</defs>
</svg>
