<svg width="28" height="28" viewBox="0 0 28 28" fill="none" xmlns="http://www.w3.org/2000/svg">
<circle cx="14" cy="14" r="13.5" fill="#5ABAFF" fill-opacity="0.1" stroke="#5ABAFF"/>
<g clip-path="url(#clip0)">
<path d="M10.208 18.375H7.87467C7.71359 18.375 7.58301 18.5056 7.58301 18.6667V20.7083C7.58301 20.8694 7.71359 21 7.87467 21H10.208C10.3691 21 10.4997 20.8694 10.4997 20.7083V18.6667C10.4997 18.5056 10.3691 18.375 10.208 18.375Z" fill="#5ABAFF"/>
<path d="M10.2084 15.4583H8.06988C7.95465 15.4582 7.84196 15.4922 7.74604 15.5561C7.65011 15.6199 7.57525 15.7107 7.53088 15.8171L7.04497 16.9837C7.00798 17.0724 6.99347 17.1688 7.0027 17.2644C7.01194 17.36 7.04465 17.4519 7.09792 17.5318C7.15119 17.6118 7.22337 17.6773 7.30806 17.7226C7.39275 17.768 7.48732 17.7917 7.58338 17.7917H10.2084C10.2857 17.7917 10.3599 17.7609 10.4146 17.7062C10.4693 17.6515 10.5 17.5774 10.5 17.5V15.75C10.5 15.6726 10.4693 15.5985 10.4146 15.5438C10.3599 15.4891 10.2857 15.4583 10.2084 15.4583ZM8.57797 11.5208H12.2874C12.3069 11.5209 12.3264 11.5198 12.3457 11.5173C12.7549 11.4699 13.1328 11.2748 13.4084 10.9686C13.684 10.6624 13.8384 10.2662 13.8426 9.85426C13.8468 9.44232 13.7006 9.04301 13.4313 8.73123C13.1621 8.41945 12.7883 8.21663 12.3801 8.16083C12.1813 7.85054 11.9079 7.59504 11.5849 7.41772C11.2618 7.2404 10.8995 7.14692 10.531 7.14583C10.0401 7.14655 9.56267 7.30599 9.16989 7.60036C8.77711 7.89474 8.49008 8.30825 8.35163 8.77917C8.01864 8.82096 7.71236 8.9829 7.49034 9.23457C7.26832 9.48623 7.14583 9.81031 7.14588 10.1459C7.14224 10.3324 7.17724 10.5176 7.24868 10.6898C7.32012 10.8621 7.42645 11.0177 7.56097 11.1468C7.6955 11.276 7.8553 11.3759 8.03033 11.4403C8.20536 11.5046 8.39182 11.5321 8.57797 11.5208ZM20.7084 7H16.625C16.5477 7 16.4735 7.03073 16.4188 7.08543C16.3641 7.14013 16.3334 7.21431 16.3334 7.29167V20.7083C16.3334 20.7857 16.3641 20.8599 16.4188 20.9146C16.4735 20.9693 16.5477 21 16.625 21H20.7084C20.7857 21 20.8599 20.9693 20.9146 20.9146C20.9693 20.8599 21 20.7857 21 20.7083V7.29167C21 7.21431 20.9693 7.14013 20.9146 7.08543C20.8599 7.03073 20.7857 7 20.7084 7V7ZM18.2292 17.2083C18.2292 17.3244 18.1831 17.4356 18.1011 17.5177C18.019 17.5997 17.9077 17.6458 17.7917 17.6458C17.6757 17.6458 17.5644 17.5997 17.4824 17.5177C17.4003 17.4356 17.3542 17.3244 17.3542 17.2083V16.625C17.3542 16.509 17.4003 16.3977 17.4824 16.3156C17.5644 16.2336 17.6757 16.1875 17.7917 16.1875C17.9077 16.1875 18.019 16.2336 18.1011 16.3156C18.1831 16.3977 18.2292 16.509 18.2292 16.625V17.2083ZM18.2292 14.5833C18.2292 14.6994 18.1831 14.8106 18.1011 14.8927C18.019 14.9747 17.9077 15.0208 17.7917 15.0208C17.6757 15.0208 17.5644 14.9747 17.4824 14.8927C17.4003 14.8106 17.3542 14.6994 17.3542 14.5833V14C17.3542 13.884 17.4003 13.7727 17.4824 13.6906C17.5644 13.6086 17.6757 13.5625 17.7917 13.5625C17.9077 13.5625 18.019 13.6086 18.1011 13.6906C18.1831 13.7727 18.2292 13.884 18.2292 14V14.5833ZM18.2292 11.9583C18.2292 12.0744 18.1831 12.1856 18.1011 12.2677C18.019 12.3497 17.9077 12.3958 17.7917 12.3958C17.6757 12.3958 17.5644 12.3497 17.4824 12.2677C17.4003 12.1856 17.3542 12.0744 17.3542 11.9583V11.375C17.3542 11.259 17.4003 11.1477 17.4824 11.0656C17.5644 10.9836 17.6757 10.9375 17.7917 10.9375C17.9077 10.9375 18.019 10.9836 18.1011 11.0656C18.1831 11.1477 18.2292 11.259 18.2292 11.375V11.9583ZM18.2292 9.33333C18.2292 9.44937 18.1831 9.56065 18.1011 9.64269C18.019 9.72474 17.9077 9.77083 17.7917 9.77083C17.6757 9.77083 17.5644 9.72474 17.4824 9.64269C17.4003 9.56065 17.3542 9.44937 17.3542 9.33333V8.75C17.3542 8.63397 17.4003 8.52269 17.4824 8.44064C17.5644 8.35859 17.6757 8.3125 17.7917 8.3125C17.9077 8.3125 18.019 8.35859 18.1011 8.44064C18.1831 8.52269 18.2292 8.63397 18.2292 8.75V9.33333ZM19.9792 17.2083C19.9792 17.3244 19.9331 17.4356 19.8511 17.5177C19.769 17.5997 19.6577 17.6458 19.5417 17.6458C19.4257 17.6458 19.3144 17.5997 19.2324 17.5177C19.1503 17.4356 19.1042 17.3244 19.1042 17.2083V16.625C19.1042 16.509 19.1503 16.3977 19.2324 16.3156C19.3144 16.2336 19.4257 16.1875 19.5417 16.1875C19.6577 16.1875 19.769 16.2336 19.8511 16.3156C19.9331 16.3977 19.9792 16.509 19.9792 16.625V17.2083ZM19.9792 14.5833C19.9792 14.6994 19.9331 14.8106 19.8511 14.8927C19.769 14.9747 19.6577 15.0208 19.5417 15.0208C19.4257 15.0208 19.3144 14.9747 19.2324 14.8927C19.1503 14.8106 19.1042 14.6994 19.1042 14.5833V14C19.1042 13.884 19.1503 13.7727 19.2324 13.6906C19.3144 13.6086 19.4257 13.5625 19.5417 13.5625C19.6577 13.5625 19.769 13.6086 19.8511 13.6906C19.9331 13.7727 19.9792 13.884 19.9792 14V14.5833ZM19.9792 11.9583C19.9792 12.0744 19.9331 12.1856 19.8511 12.2677C19.769 12.3497 19.6577 12.3958 19.5417 12.3958C19.4257 12.3958 19.3144 12.3497 19.2324 12.2677C19.1503 12.1856 19.1042 12.0744 19.1042 11.9583V11.375C19.1042 11.259 19.1503 11.1477 19.2324 11.0656C19.3144 10.9836 19.4257 10.9375 19.5417 10.9375C19.6577 10.9375 19.769 10.9836 19.8511 11.0656C19.9331 11.1477 19.9792 11.259 19.9792 11.375V11.9583ZM19.9792 9.33333C19.9792 9.44937 19.9331 9.56065 19.8511 9.64269C19.769 9.72474 19.6577 9.77083 19.5417 9.77083C19.4257 9.77083 19.3144 9.72474 19.2324 9.64269C19.1503 9.56065 19.1042 9.44937 19.1042 9.33333V8.75C19.1042 8.63397 19.1503 8.52269 19.2324 8.44064C19.3144 8.35859 19.4257 8.3125 19.5417 8.3125C19.6577 8.3125 19.769 8.35859 19.8511 8.44064C19.9331 8.52269 19.9792 8.63397 19.9792 8.75V9.33333ZM13.6232 12.9185C13.5685 12.8638 13.4943 12.8331 13.417 12.8331C13.3397 12.8331 13.2655 12.8638 13.2108 12.9185L11.1691 14.9602C11.142 14.9873 11.1204 15.0194 11.1057 15.0549C11.091 15.0903 11.0834 15.1283 11.0834 15.1667V20.7083C11.0834 20.7857 11.1141 20.8599 11.1688 20.9146C11.2235 20.9693 11.2977 21 11.375 21H15.4584C15.5357 21 15.6099 20.9693 15.6646 20.9146C15.7193 20.8599 15.75 20.7857 15.75 20.7083V15.1667C15.7501 15.1283 15.7426 15.0904 15.728 15.0549C15.7134 15.0195 15.6919 14.9873 15.6649 14.9602L13.6232 12.9185ZM12.9792 19.25C12.9792 19.366 12.9331 19.4773 12.8511 19.5594C12.769 19.6414 12.6577 19.6875 12.5417 19.6875C12.4257 19.6875 12.3144 19.6414 12.2324 19.5594C12.1503 19.4773 12.1042 19.366 12.1042 19.25V18.6667C12.1042 18.5506 12.1503 18.4394 12.2324 18.3573C12.3144 18.2753 12.4257 18.2292 12.5417 18.2292C12.6577 18.2292 12.769 18.2753 12.8511 18.3573C12.9331 18.4394 12.9792 18.5506 12.9792 18.6667V19.25ZM12.9792 16.625C12.9792 16.741 12.9331 16.8523 12.8511 16.9344C12.769 17.0164 12.6577 17.0625 12.5417 17.0625C12.4257 17.0625 12.3144 17.0164 12.2324 16.9344C12.1503 16.8523 12.1042 16.741 12.1042 16.625V16.0417C12.1042 15.9256 12.1503 15.8144 12.2324 15.7323C12.3144 15.6503 12.4257 15.6042 12.5417 15.6042C12.6577 15.6042 12.769 15.6503 12.8511 15.7323C12.9331 15.8144 12.9792 15.9256 12.9792 16.0417V16.625ZM14.7292 19.25C14.7292 19.366 14.6831 19.4773 14.6011 19.5594C14.519 19.6414 14.4077 19.6875 14.2917 19.6875C14.1757 19.6875 14.0644 19.6414 13.9824 19.5594C13.9003 19.4773 13.8542 19.366 13.8542 19.25V18.6667C13.8542 18.5506 13.9003 18.4394 13.9824 18.3573C14.0644 18.2753 14.1757 18.2292 14.2917 18.2292C14.4077 18.2292 14.519 18.2753 14.6011 18.3573C14.6831 18.4394 14.7292 18.5506 14.7292 18.6667V19.25ZM14.7292 16.625C14.7292 16.741 14.6831 16.8523 14.6011 16.9344C14.519 17.0164 14.4077 17.0625 14.2917 17.0625C14.1757 17.0625 14.0644 17.0164 13.9824 16.9344C13.9003 16.8523 13.8542 16.741 13.8542 16.625V16.0417C13.8542 15.9256 13.9003 15.8144 13.9824 15.7323C14.0644 15.6503 14.1757 15.6042 14.2917 15.6042C14.4077 15.6042 14.519 15.6503 14.6011 15.7323C14.6831 15.8144 14.7292 15.9256 14.7292 16.0417V16.625Z" fill="#5ABAFF"/>
</g>
<defs>
<clipPath id="clip0">
<rect width="14" height="14" fill="white" transform="translate(7 7)"/>
</clipPath>
</defs>
</svg>
