<svg width="28" height="28" viewBox="0 0 28 28" fill="none" xmlns="http://www.w3.org/2000/svg">
<circle cx="14" cy="14" r="13.5" fill="#5ABAFF" fill-opacity="0.1" stroke="#5ABAFF"/>
<path d="M9.40477 11.8417C9.43254 11.8439 9.45911 11.854 9.48131 11.8708C9.50352 11.8876 9.52044 11.9105 9.53007 11.9366C9.53971 11.9627 9.54165 11.9911 9.53568 12.0183C9.5297 12.0455 9.51605 12.0705 9.49635 12.0902L7.58769 14C7.53502 14.0526 7.49324 14.1151 7.46473 14.1838C7.43623 14.2526 7.42155 14.3263 7.42155 14.4007C7.42155 14.4752 7.43623 14.5489 7.46473 14.6177C7.49324 14.6864 7.53502 14.7489 7.58769 14.8015L8.62777 15.8422C8.65877 15.8731 8.69636 15.8967 8.73773 15.9112C8.77911 15.9256 8.82321 15.9306 8.86676 15.9257C8.91031 15.9207 8.95219 15.906 8.98928 15.8827C9.02637 15.8594 9.05773 15.828 9.08102 15.7908C9.16938 15.6503 9.27328 15.5202 9.39077 15.4029C9.81622 14.9775 10.3933 14.7384 10.9949 14.7384C11.5966 14.7384 12.1737 14.9775 12.5991 15.4029C13.0246 15.8284 13.2636 16.4054 13.2636 17.0071C13.2636 17.6088 13.0246 18.1858 12.5991 18.6112C12.4817 18.7286 12.3516 18.8324 12.2112 18.921C12.1741 18.9443 12.1427 18.9756 12.1193 19.0127C12.096 19.0498 12.0813 19.0917 12.0764 19.1353C12.0714 19.1788 12.0764 19.2229 12.0908 19.2643C12.1053 19.3057 12.1289 19.3432 12.1599 19.3742L13.2005 20.4149C13.3068 20.5211 13.451 20.5808 13.6013 20.5808C13.7516 20.5808 13.8957 20.5211 14.002 20.4149L15.9113 18.5057C15.931 18.486 15.9559 18.4723 15.9831 18.4663C16.0103 18.4604 16.0387 18.4623 16.0648 18.4719C16.091 18.4816 16.1138 18.4985 16.1306 18.5207C16.1475 18.5429 16.1576 18.5695 16.1598 18.5972C16.1893 18.9834 16.3177 19.3555 16.5325 19.6777C16.7474 19.9999 17.0415 20.2615 17.3866 20.4372C17.7317 20.613 18.1162 20.697 18.5031 20.6812C18.8901 20.6655 19.2665 20.5505 19.5962 20.3472C19.8882 20.1677 20.1358 19.9243 20.3204 19.6354C20.5049 19.3465 20.6216 19.0195 20.6618 18.679C20.7019 18.3385 20.6644 17.9934 20.5521 17.6695C20.4398 17.3456 20.2556 17.0513 20.0133 16.8087C19.6343 16.4297 19.1315 16.1998 18.5969 16.1612C18.5692 16.159 18.5426 16.1489 18.5204 16.1321C18.4982 16.1153 18.4813 16.0924 18.4716 16.0663C18.462 16.0402 18.4601 16.0118 18.466 15.9846C18.472 15.9574 18.4857 15.9324 18.5054 15.9127L20.4117 14C20.4644 13.9474 20.5061 13.8849 20.5346 13.8162C20.5631 13.7474 20.5778 13.6737 20.5778 13.5992C20.5778 13.5248 20.5631 13.4511 20.5346 13.3823C20.5061 13.3136 20.4644 13.2511 20.4117 13.1985L19.3716 12.1578C19.3406 12.1268 19.303 12.1033 19.2616 12.0888C19.2203 12.0743 19.1762 12.0694 19.1326 12.0743C19.0891 12.0793 19.0472 12.0939 19.0101 12.1173C18.973 12.1406 18.9416 12.172 18.9184 12.2092C18.83 12.3507 18.7259 12.4818 18.608 12.6C18.3974 12.8107 18.1473 12.9778 17.872 13.0918C17.5968 13.2058 17.3018 13.2645 17.0039 13.2645C16.4022 13.2645 15.8251 13.0254 15.3997 12.6C14.9742 12.1745 14.7352 11.5975 14.7352 10.9958C14.7352 10.6979 14.7939 10.4029 14.9079 10.1277C15.0219 9.85242 15.189 9.60232 15.3997 9.39166C15.5171 9.27435 15.6472 9.17046 15.7876 9.08191C15.8247 9.05862 15.8561 9.02727 15.8795 8.99017C15.9028 8.95308 15.9175 8.9112 15.9224 8.86765C15.9274 8.8241 15.9224 8.78 15.908 8.73862C15.8935 8.69725 15.8699 8.65966 15.8389 8.62866L14.8012 7.58741C14.6949 7.48119 14.5507 7.42152 14.4004 7.42152C14.2501 7.42152 14.106 7.48119 13.9997 7.58741L12.0904 9.49666C12.0708 9.51655 12.0458 9.53035 12.0185 9.53643C11.9912 9.54252 11.9627 9.54062 11.9364 9.53096C11.9102 9.52131 11.8873 9.50431 11.8704 9.48199C11.8535 9.45967 11.8435 9.43297 11.8414 9.40508C11.8118 9.01892 11.6835 8.64686 11.4686 8.32463C11.2538 8.00241 10.9597 7.74085 10.6146 7.56511C10.2694 7.38936 9.88494 7.30533 9.49798 7.32108C9.11102 7.33684 8.73461 7.45186 8.40494 7.65508C8.11294 7.83492 7.86548 8.07857 7.68113 8.36774C7.49678 8.65691 7.38033 8.98409 7.34054 9.32471C7.30074 9.66532 7.33862 10.0105 7.45134 10.3344C7.56406 10.6583 7.74868 10.9524 7.99135 11.1947C8.36963 11.573 8.87128 11.8026 9.40477 11.8417Z" fill="#5ABAFF"/>
</svg>
