<svg width="28" height="28" viewBox="0 0 28 28" fill="none" xmlns="http://www.w3.org/2000/svg">
<circle cx="14" cy="14" r="13.5" fill="#5ABAFF" fill-opacity="0.1" stroke="#5ABAFF"/>
<g clip-path="url(#clip0)">
<path d="M8.45833 16.625C8.38098 16.625 8.30679 16.5943 8.25209 16.5396C8.1974 16.4849 8.16667 16.4107 8.16667 16.3333V11.375C8.16667 11.2976 8.1974 11.2235 8.25209 11.1688C8.30679 11.1141 8.38098 11.0833 8.45833 11.0833H16.3333C16.4107 11.0833 16.4849 11.1141 16.5396 11.1688C16.5943 11.2235 16.625 11.2976 16.625 11.375V12.5825C17.012 12.5288 17.4046 12.5288 17.7917 12.5825V8.75C17.7917 8.59529 17.7302 8.44692 17.6208 8.33752C17.5114 8.22812 17.363 8.16667 17.2083 8.16667H15.75C15.7113 8.16667 15.6742 8.1513 15.6469 8.12395C15.6195 8.0966 15.6042 8.05951 15.6042 8.02083V7.4375C15.6042 7.32147 15.5581 7.21019 15.476 7.12814C15.394 7.04609 15.2827 7 15.1667 7C15.0506 7 14.9394 7.04609 14.8573 7.12814C14.7753 7.21019 14.7292 7.32147 14.7292 7.4375V9.625C14.7292 9.68245 14.7178 9.73934 14.6959 9.79242C14.6739 9.8455 14.6417 9.89373 14.601 9.93436C14.5604 9.97498 14.5122 10.0072 14.4591 10.0292C14.406 10.0512 14.3491 10.0625 14.2917 10.0625C14.2342 10.0625 14.1773 10.0512 14.1242 10.0292C14.0712 10.0072 14.0229 9.97498 13.9823 9.93436C13.9417 9.89373 13.9095 9.8455 13.8875 9.79242C13.8655 9.73934 13.8542 9.68245 13.8542 9.625V8.45833C13.8542 8.38098 13.8234 8.30679 13.7687 8.25209C13.714 8.1974 13.6399 8.16667 13.5625 8.16667H11.0833C11.0447 8.16667 11.0076 8.1513 10.9802 8.12395C10.9529 8.0966 10.9375 8.05951 10.9375 8.02083V7.4375C10.9375 7.32147 10.8914 7.21019 10.8094 7.12814C10.7273 7.04609 10.616 7 10.5 7C10.384 7 10.2727 7.04609 10.1906 7.12814C10.1086 7.21019 10.0625 7.32147 10.0625 7.4375V9.625C10.0625 9.74103 10.0164 9.85231 9.93436 9.93436C9.85231 10.0164 9.74103 10.0625 9.625 10.0625C9.50897 10.0625 9.39769 10.0164 9.31564 9.93436C9.23359 9.85231 9.1875 9.74103 9.1875 9.625V8.45833C9.1875 8.38098 9.15677 8.30679 9.10207 8.25209C9.04737 8.1974 8.97319 8.16667 8.89583 8.16667H7.58333C7.42862 8.16667 7.28025 8.22812 7.17085 8.33752C7.06146 8.44692 7 8.59529 7 8.75V16.625C7 16.9344 7.12292 17.2312 7.34171 17.45C7.5605 17.6687 7.85725 17.7917 8.16667 17.7917H12.5819C12.5283 17.4046 12.5283 17.012 12.5819 16.625H8.45833Z" fill="#5ABAFF"/>
<path d="M17.2087 13.4167C16.4587 13.4167 15.7257 13.6391 15.1021 14.0557C14.4786 14.4723 13.9926 15.0645 13.7056 15.7573C13.4186 16.4502 13.3435 17.2126 13.4898 17.9481C13.6362 18.6836 13.9973 19.3592 14.5275 19.8895C15.0578 20.4197 15.7334 20.7809 16.4689 20.9272C17.2045 21.0735 17.9668 20.9984 18.6597 20.7114C19.3525 20.4244 19.9447 19.9384 20.3613 19.3149C20.7779 18.6914 21.0003 17.9583 21.0003 17.2084C20.9991 16.2031 20.5992 15.2394 19.8884 14.5286C19.1776 13.8178 18.2139 13.4179 17.2087 13.4167ZM17.2087 19.8334C16.6895 19.8334 16.182 19.6794 15.7503 19.391C15.3186 19.1025 14.9822 18.6926 14.7835 18.2129C14.5848 17.7332 14.5328 17.2054 14.6341 16.6962C14.7354 16.187 14.9854 15.7193 15.3525 15.3522C15.7196 14.9851 16.1873 14.7351 16.6965 14.6338C17.2057 14.5325 17.7335 14.5845 18.2132 14.7832C18.6929 14.9818 19.1028 15.3183 19.3913 15.75C19.6797 16.1817 19.8337 16.6892 19.8337 17.2084C19.8329 17.9043 19.5561 18.5715 19.064 19.0637C18.5718 19.5558 17.9046 19.8326 17.2087 19.8334Z" fill="#5ABAFF"/>
<path d="M18.3747 16.7714H17.6455V15.75C17.6455 15.634 17.5994 15.5227 17.5174 15.4406C17.4353 15.3586 17.324 15.3125 17.208 15.3125C17.092 15.3125 16.9807 15.3586 16.8986 15.4406C16.8166 15.5227 16.7705 15.634 16.7705 15.75V17.2083C16.7705 17.3244 16.8166 17.4356 16.8986 17.5177C16.9807 17.5997 17.092 17.6458 17.208 17.6458H18.3747C18.4907 17.6458 18.602 17.5997 18.684 17.5177C18.7661 17.4356 18.8122 17.3244 18.8122 17.2083C18.8122 17.0923 18.7661 16.981 18.684 16.899C18.602 16.8169 18.4907 16.7708 18.3747 16.7708V16.7714Z" fill="#5ABAFF"/>
</g>
<defs>
<clipPath id="clip0">
<rect width="14" height="14" fill="white" transform="translate(7 7)"/>
</clipPath>
</defs>
</svg>
