<svg width="28" height="28" viewBox="0 0 28 28" fill="none" xmlns="http://www.w3.org/2000/svg">
<circle cx="14" cy="14" r="13.5" fill="#5ABAFF" fill-opacity="0.1" stroke="#5ABAFF"/>
<g clip-path="url(#clip0)">
<path d="M21 11.375C21 11.0656 20.8771 10.7688 20.6583 10.55C20.4395 10.3312 20.1428 10.2083 19.8333 10.2083H18.8125C18.7738 10.2083 18.7367 10.1929 18.7094 10.1656C18.682 10.1383 18.6667 10.1012 18.6667 10.0625V9.04165C18.6667 8.88694 18.6052 8.73856 18.4958 8.62917C18.3864 8.51977 18.238 8.45831 18.0833 8.45831H8.16667C7.85725 8.45831 7.5605 8.58123 7.34171 8.80002C7.12292 9.01881 7 9.31556 7 9.62498V16.625C7 16.7797 7.06146 16.9281 7.17085 17.0375C7.28025 17.1469 7.42862 17.2083 7.58333 17.2083H8.60417C8.64284 17.2083 8.67994 17.2237 8.70729 17.251C8.73464 17.2784 8.75 17.3155 8.75 17.3541V18.375C8.75 18.6844 8.87292 18.9811 9.09171 19.1999C9.3105 19.4187 9.60725 19.5416 9.91667 19.5416H11.6667C11.8214 19.5416 11.9697 19.4802 12.0791 19.3708C12.1885 19.2614 12.25 19.113 12.25 18.9583C12.25 18.8423 12.2961 18.731 12.3781 18.649C12.4602 18.5669 12.5715 18.5208 12.6875 18.5208C12.8035 18.5208 12.9148 18.5669 12.9969 18.649C13.0789 18.731 13.125 18.8423 13.125 18.9583C13.125 19.113 13.1865 19.2614 13.2959 19.3708C13.4053 19.4802 13.5536 19.5416 13.7083 19.5416H16.0417C16.1964 19.5416 16.3447 19.4802 16.4541 19.3708C16.5635 19.2614 16.625 19.113 16.625 18.9583C16.625 18.8423 16.6711 18.731 16.7531 18.649C16.8352 18.5669 16.9465 18.5208 17.0625 18.5208C17.1785 18.5208 17.2898 18.5669 17.3719 18.649C17.4539 18.731 17.5 18.8423 17.5 18.9583C17.5 19.113 17.5615 19.2614 17.6709 19.3708C17.7802 19.4802 17.9286 19.5416 18.0833 19.5416H19.8333C20.1428 19.5416 20.4395 19.4187 20.6583 19.1999C20.8771 18.9811 21 18.6844 21 18.375V11.375ZM19.8333 18.0833C19.8333 18.1607 19.8026 18.2349 19.7479 18.2896C19.6932 18.3443 19.619 18.375 19.5417 18.375H18.7442C18.6909 18.3749 18.6387 18.3603 18.5931 18.3326C18.5476 18.305 18.5105 18.2653 18.4858 18.2181C18.3504 17.9575 18.1461 17.7392 17.8951 17.5868C17.6441 17.4344 17.3561 17.3538 17.0625 17.3538C16.7689 17.3538 16.4809 17.4344 16.2299 17.5868C15.9789 17.7392 15.7746 17.9575 15.6392 18.2181C15.6145 18.2653 15.5774 18.305 15.5319 18.3326C15.4863 18.3603 15.434 18.3749 15.3807 18.375H14.3692C14.3159 18.3749 14.2637 18.3603 14.2181 18.3326C14.1726 18.305 14.1355 18.2653 14.1108 18.2181C13.9754 17.9575 13.7711 17.7392 13.5201 17.5868C13.2691 17.4344 12.9811 17.3538 12.6875 17.3538C12.3939 17.3538 12.1059 17.4344 11.8549 17.5868C11.6039 17.7392 11.3996 17.9575 11.2642 18.2181C11.2395 18.2653 11.2024 18.305 11.1569 18.3326C11.1113 18.3603 11.0591 18.3749 11.0057 18.375H10.2083C10.131 18.375 10.0568 18.3443 10.0021 18.2896C9.9474 18.2349 9.91667 18.1607 9.91667 18.0833V11.6666C9.91667 11.5893 9.9474 11.5151 10.0021 11.4604C10.0568 11.4057 10.131 11.375 10.2083 11.375H19.5417C19.619 11.375 19.6932 11.4057 19.7479 11.4604C19.8026 11.5151 19.8333 11.5893 19.8333 11.6666V18.0833Z" fill="#5ABAFF"/>
<path d="M15.6045 13.2708C15.6045 13.3868 15.6506 13.4981 15.7326 13.5802C15.8147 13.6622 15.926 13.7083 16.042 13.7083H18.667C18.783 13.7083 18.8943 13.6622 18.9764 13.5802C19.0584 13.4981 19.1045 13.3868 19.1045 13.2708C19.1045 13.1548 19.0584 13.0435 18.9764 12.9615C18.8943 12.8794 18.783 12.8333 18.667 12.8333H16.042C15.926 12.8333 15.8147 12.8794 15.7326 12.9615C15.6506 13.0435 15.6045 13.1548 15.6045 13.2708ZM17.5003 14.5833H16.042C15.926 14.5833 15.8147 14.6294 15.7326 14.7115C15.6506 14.7935 15.6045 14.9048 15.6045 15.0208C15.6045 15.1368 15.6506 15.2481 15.7326 15.3302C15.8147 15.4122 15.926 15.4583 16.042 15.4583H17.5003C17.6164 15.4583 17.7276 15.4122 17.8097 15.3302C17.8917 15.2481 17.9378 15.1368 17.9378 15.0208C17.9378 14.9048 17.8917 14.7935 17.8097 14.7115C17.7276 14.6294 17.6164 14.5833 17.5003 14.5833Z" fill="#5ABAFF"/>
<path d="M12.6413 14.2916C13.2856 14.2916 13.8079 13.7693 13.8079 13.125C13.8079 12.4806 13.2856 11.9583 12.6413 11.9583C11.9969 11.9583 11.4746 12.4806 11.4746 13.125C11.4746 13.7693 11.9969 14.2916 12.6413 14.2916Z" fill="#5ABAFF"/>
<path d="M12.6408 14.875C12.2223 14.883 11.8156 15.0158 11.4732 15.2566C11.1307 15.4973 10.868 15.8349 10.7187 16.226C10.7011 16.2705 10.6947 16.3187 10.7001 16.3663C10.7055 16.4138 10.7225 16.4593 10.7497 16.4988C10.7768 16.5382 10.8133 16.5703 10.8558 16.5924C10.8983 16.6144 10.9456 16.6256 10.9935 16.625H14.2876C14.3354 16.6256 14.3827 16.6144 14.4252 16.5924C14.4677 16.5703 14.5042 16.5382 14.5313 16.4988C14.5585 16.4593 14.5755 16.4138 14.5809 16.3663C14.5863 16.3187 14.5799 16.2705 14.5623 16.226C14.4131 15.835 14.1505 15.4974 13.8081 15.2567C13.4657 15.016 13.0592 14.8831 12.6408 14.875Z" fill="#5ABAFF"/>
</g>
<defs>
<clipPath id="clip0">
<rect width="14" height="14" fill="white" transform="translate(7 7)"/>
</clipPath>
</defs>
</svg>
