<svg width="28" height="28" viewBox="0 0 28 28" fill="none" xmlns="http://www.w3.org/2000/svg">
<circle cx="14" cy="14" r="13.5" fill="#5ABAFF" fill-opacity="0.1" stroke="#5ABAFF"/>
<g clip-path="url(#clip0)">
<path d="M7.63642 11.228C7.47473 11.2212 7.31694 11.2787 7.19764 11.3881C7.07834 11.4974 7.00727 11.6496 7 11.8113V15.8946C7.00727 16.0563 7.07834 16.2085 7.19764 16.3178C7.31694 16.4272 7.47473 16.4848 7.63642 16.478H15.1667C15.3214 16.478 15.4697 16.4165 15.5791 16.3071C15.6885 16.1977 15.75 16.0493 15.75 15.8946V11.8113C15.75 11.6566 15.6885 11.5082 15.5791 11.3988C15.4697 11.2894 15.3214 11.228 15.1667 11.228H7.63642ZM20.3636 11.228H19.25C19.0953 11.228 18.9469 11.2894 18.8375 11.3988C18.7281 11.5082 18.6667 11.6566 18.6667 11.8113V15.8946C18.6667 16.0493 18.7281 16.1977 18.8375 16.3071C18.9469 16.4165 19.0953 16.478 19.25 16.478H20.3636C20.5253 16.4848 20.6831 16.4272 20.8024 16.3178C20.9217 16.2085 20.9927 16.0563 21 15.8946V11.8113C20.9927 11.6496 20.9217 11.4974 20.8024 11.3881C20.6831 11.2787 20.5253 11.2212 20.3636 11.228Z" fill="#5ABAFF"/>
<path d="M17.792 11.2279C17.7985 10.7658 17.9849 10.3245 18.3117 9.99768C18.6385 9.67089 19.0799 9.48443 19.542 9.47795C19.6967 9.47795 19.8451 9.41649 19.9545 9.30709C20.0639 9.1977 20.1253 9.04932 20.1253 8.89461C20.1253 8.7399 20.0639 8.59153 19.9545 8.48213C19.8451 8.37274 19.6967 8.31128 19.542 8.31128C19.119 8.31125 18.7011 8.40334 18.3173 8.58114C17.9335 8.75894 17.593 9.01819 17.3195 9.34086C17.3059 9.35698 17.2889 9.36993 17.2698 9.3788C17.2506 9.38767 17.2298 9.39224 17.2087 9.3922C17.1875 9.39217 17.1666 9.38757 17.1473 9.37871C17.1281 9.36985 17.111 9.35694 17.0972 9.34086C16.8239 9.01817 16.4835 8.7589 16.0998 8.5811C15.7161 8.40329 15.2982 8.31122 14.8753 8.31128C14.7206 8.31128 14.5722 8.37274 14.4628 8.48213C14.3535 8.59153 14.292 8.7399 14.292 8.89461C14.292 9.04932 14.3535 9.1977 14.4628 9.30709C14.5722 9.41649 14.7206 9.47795 14.8753 9.47795C15.3374 9.48443 15.7788 9.67089 16.1056 9.99768C16.4324 10.3245 16.6188 10.7658 16.6253 11.2279V16.7696C16.6237 16.8675 16.6138 16.9651 16.5956 17.0613C16.5268 17.4682 16.3165 17.8377 16.0017 18.1045C15.6869 18.3713 15.288 18.5184 14.8753 18.5196C14.7206 18.5196 14.5722 18.5811 14.4628 18.6905C14.3535 18.7999 14.292 18.9482 14.292 19.1029C14.292 19.2577 14.3535 19.406 14.4628 19.5154C14.5722 19.6248 14.7206 19.6863 14.8753 19.6863C15.2983 19.6863 15.7162 19.5942 16.1 19.4164C16.4838 19.2386 16.8243 18.9794 17.0978 18.6567C17.1114 18.6406 17.1284 18.6276 17.1476 18.6188C17.1667 18.6099 17.1876 18.6053 17.2087 18.6054C17.2298 18.6055 17.2507 18.6102 17.2699 18.619C17.2891 18.6279 17.3062 18.6407 17.3201 18.6567C17.5934 18.9794 17.9338 19.2387 18.3175 19.4165C18.7012 19.5943 19.1191 19.6863 19.542 19.6863C19.6967 19.6863 19.8451 19.6248 19.9545 19.5154C20.0639 19.406 20.1253 19.2577 20.1253 19.1029C20.1253 18.9482 20.0639 18.7999 19.9545 18.6905C19.8451 18.5811 19.6967 18.5196 19.542 18.5196C19.1293 18.5184 18.7304 18.3713 18.4156 18.1045C18.1009 17.8377 17.8905 17.4682 17.8217 17.0613C17.8035 16.9651 17.7936 16.8675 17.792 16.7696V11.2279Z" fill="#5ABAFF"/>
</g>
<defs>
<clipPath id="clip0">
<rect width="14" height="14" fill="white" transform="translate(7 7)"/>
</clipPath>
</defs>
</svg>
