<svg width="28" height="28" viewBox="0 0 28 28" fill="none" xmlns="http://www.w3.org/2000/svg">
<circle cx="14" cy="14" r="13.5" fill="#5ABAFF" fill-opacity="0.1" stroke="#5ABAFF"/>
<g clip-path="url(#clip0)">
<path d="M19.5417 10.2083H17.3542C17.3155 10.2083 17.2784 10.1929 17.251 10.1656C17.2237 10.1383 17.2083 10.1012 17.2083 10.0625V9.91665C17.2083 9.29781 16.9625 8.70432 16.5249 8.26673C16.0873 7.82915 15.4938 7.58331 14.875 7.58331H13.125C12.5062 7.58331 11.9127 7.82915 11.4751 8.26673C11.0375 8.70432 10.7917 9.29781 10.7917 9.91665V10.0625C10.7917 10.1012 10.7763 10.1383 10.749 10.1656C10.7216 10.1929 10.6845 10.2083 10.6458 10.2083H8.45833C8.07156 10.2083 7.70063 10.362 7.42714 10.6354C7.15365 10.9089 7 11.2799 7 11.6666V14.2916C7 14.5237 7.09219 14.7463 7.25628 14.9104C7.42038 15.0745 7.64294 15.1666 7.875 15.1666H12.6583C12.681 15.1666 12.7033 15.1612 12.7235 15.1511C12.7437 15.141 12.7614 15.1264 12.775 15.1083C12.9062 14.9033 13.0868 14.7347 13.3003 14.6178C13.5137 14.501 13.7532 14.4398 13.9965 14.4398C14.2398 14.4398 14.4793 14.501 14.6927 14.6178C14.9062 14.7347 15.0868 14.9033 15.218 15.1083C15.2316 15.1264 15.2493 15.141 15.2695 15.1511C15.2897 15.1612 15.312 15.1666 15.3347 15.1666H20.118C20.2335 15.1676 20.348 15.1456 20.455 15.1021C20.562 15.0585 20.6593 14.9942 20.7412 14.9129C20.8232 14.8315 20.8883 14.7347 20.9327 14.6281C20.9771 14.5215 21 14.4071 21 14.2916V11.6666C21 11.4751 20.9623 11.2855 20.889 11.1086C20.8157 10.9316 20.7083 10.7709 20.5729 10.6354C20.4374 10.5 20.2767 10.3926 20.0997 10.3193C19.9228 10.246 19.7332 10.2083 19.5417 10.2083ZM13.125 8.74998H14.875C15.1556 8.7499 15.4268 8.85094 15.6389 9.03457C15.851 9.2182 15.9899 9.47213 16.03 9.74981C16.033 9.77055 16.0315 9.79169 16.0256 9.81181C16.0197 9.83192 16.0096 9.85052 15.9959 9.86635C15.9821 9.88219 15.9652 9.89487 15.9461 9.90355C15.927 9.91223 15.9063 9.9167 15.8853 9.91665H12.1147C12.0937 9.9167 12.073 9.91223 12.0539 9.90355C12.0348 9.89487 12.0179 9.88219 12.0041 9.86635C11.9904 9.85052 11.9802 9.83192 11.9744 9.81181C11.9685 9.79169 11.967 9.77055 11.97 9.74981C12.0101 9.47213 12.149 9.2182 12.3611 9.03457C12.5732 8.85094 12.8444 8.7499 13.125 8.74998ZM14 18.2291C13.5373 18.1868 13.1099 17.9643 12.8098 17.6097C12.5097 17.255 12.361 16.7966 12.3958 16.3333C12.3958 16.2872 12.3958 16.2417 12.3999 16.1962C12.4011 16.1764 12.3982 16.1564 12.3914 16.1377C12.3846 16.119 12.3741 16.1019 12.3604 16.0874C12.3468 16.0729 12.3303 16.0614 12.312 16.0535C12.2937 16.0457 12.274 16.0416 12.2541 16.0416H8.16667C8.09598 16.0409 8.02744 16.0659 7.97379 16.1119C7.92014 16.158 7.88503 16.2219 7.875 16.2919C7.83942 16.5398 7.79625 16.7918 7.75367 17.0432C7.553 18.2169 7.364 19.3258 7.8995 19.9599C8.04705 20.1188 8.22851 20.2423 8.43039 20.3214C8.63228 20.4005 8.84939 20.433 9.06558 20.4166H18.9344C19.15 20.4327 19.3665 20.4001 19.5679 20.3213C19.7692 20.2424 19.9502 20.1193 20.0976 19.9611C20.6337 19.3258 20.4441 18.2169 20.2434 17.0444C20.2008 16.793 20.1577 16.541 20.1221 16.2931C20.1124 16.2234 20.0778 16.1595 20.0247 16.1133C19.9717 16.0671 19.9037 16.0417 19.8333 16.0416H15.7459C15.726 16.0417 15.7064 16.0458 15.6881 16.0537C15.6699 16.0616 15.6534 16.0731 15.6398 16.0876C15.6261 16.1021 15.6156 16.1191 15.6087 16.1378C15.6019 16.1565 15.599 16.1764 15.6001 16.1962C15.6001 16.2417 15.6042 16.2872 15.6042 16.3333C15.639 16.7966 15.4903 17.255 15.1902 17.6097C14.8901 17.9643 14.4627 18.1868 14 18.2291Z" fill="#5ABAFF"/>
<path d="M13.9997 17.3542C14.4024 17.3542 14.7288 16.8971 14.7288 16.3333C14.7288 15.7695 14.4024 15.3125 13.9997 15.3125C13.597 15.3125 13.2705 15.7695 13.2705 16.3333C13.2705 16.8971 13.597 17.3542 13.9997 17.3542Z" fill="#5ABAFF"/>
</g>
<defs>
<clipPath id="clip0">
<rect width="14" height="14" fill="white" transform="translate(7 7)"/>
</clipPath>
</defs>
</svg>
