<svg width="28" height="28" viewBox="0 0 28 28" fill="none" xmlns="http://www.w3.org/2000/svg">
<circle cx="14" cy="14" r="13.5" fill="#5ABAFF" fill-opacity="0.1" stroke="#5ABAFF"/>
<path d="M18.5987 7.45737C18.4923 7.41266 18.3749 7.40077 18.2616 7.42322C18.1483 7.44567 18.0443 7.50144 17.9629 7.58337L17.6036 7.94329C17.5761 7.97043 17.539 7.98565 17.5003 7.98565C17.4617 7.98565 17.4246 7.97043 17.3971 7.94329L16.7461 7.2917C16.6367 7.18234 16.4883 7.12091 16.3337 7.12091C16.179 7.12091 16.0306 7.18234 15.9212 7.2917L15.2702 7.94329C15.2427 7.97043 15.2056 7.98565 15.167 7.98565C15.1283 7.98565 15.0913 7.97043 15.0637 7.94329L14.4127 7.2917C14.3034 7.18234 14.155 7.12091 14.0003 7.12091C13.8456 7.12091 13.6973 7.18234 13.5879 7.2917L12.9369 7.94329C12.9094 7.97043 12.8723 7.98565 12.8337 7.98565C12.795 7.98565 12.7579 7.97043 12.7304 7.94329L12.0794 7.2917C11.97 7.18234 11.8217 7.12091 11.667 7.12091C11.5123 7.12091 11.364 7.18234 11.2546 7.2917L10.6036 7.9427C10.5901 7.95635 10.574 7.96719 10.5563 7.97459C10.5385 7.98198 10.5195 7.98579 10.5003 7.98579C10.4811 7.98579 10.4621 7.98198 10.4444 7.97459C10.4267 7.96719 10.4106 7.95635 10.3971 7.9427L10.0383 7.58337C9.95678 7.50161 9.8528 7.4459 9.73956 7.42329C9.62632 7.40067 9.50892 7.41218 9.40222 7.45634C9.29553 7.50051 9.20434 7.57535 9.14021 7.67138C9.07608 7.76741 9.0419 7.88031 9.04199 7.99579V20.0043C9.04202 20.1196 9.07624 20.2324 9.14034 20.3283C9.20444 20.4242 9.29554 20.499 9.40211 20.5431C9.50869 20.5872 9.62596 20.5988 9.73909 20.5763C9.85223 20.5538 9.95616 20.4983 10.0377 20.4167L10.3971 20.0574C10.4246 20.0302 10.4617 20.015 10.5003 20.015C10.539 20.015 10.5761 20.0302 10.6036 20.0574L11.2546 20.7084C11.364 20.8177 11.5123 20.8792 11.667 20.8792C11.8217 20.8792 11.97 20.8177 12.0794 20.7084L12.7304 20.0574C12.7579 20.0302 12.795 20.015 12.8337 20.015C12.8723 20.015 12.9094 20.0302 12.9369 20.0574L13.5879 20.7084C13.6973 20.8177 13.8456 20.8792 14.0003 20.8792C14.155 20.8792 14.3034 20.8177 14.4127 20.7084L15.0637 20.0574C15.0913 20.0302 15.1283 20.015 15.167 20.015C15.2056 20.015 15.2427 20.0302 15.2702 20.0574L15.9212 20.7084C16.0306 20.8177 16.179 20.8792 16.3337 20.8792C16.4883 20.8792 16.6367 20.8177 16.7461 20.7084L17.3971 20.0574C17.4246 20.0302 17.4617 20.015 17.5003 20.015C17.539 20.015 17.5761 20.0302 17.6036 20.0574L17.9629 20.4167C18.0445 20.4983 18.1484 20.5538 18.2616 20.5763C18.3747 20.5988 18.492 20.5872 18.5985 20.5431C18.7051 20.499 18.7962 20.4242 18.8603 20.3283C18.9244 20.2324 18.9586 20.1196 18.9587 20.0043V7.99579C18.9586 7.88052 18.9243 7.76787 18.8603 7.67204C18.7962 7.57622 18.7052 7.50152 18.5987 7.45737ZM16.917 15.0209H16.3337C16.2176 15.0209 16.1063 14.9748 16.0243 14.8927C15.9423 14.8107 15.8962 14.6994 15.8962 14.5834C15.8962 14.4673 15.9423 14.3561 16.0243 14.274C16.1063 14.192 16.2176 14.1459 16.3337 14.1459H16.917C17.033 14.1459 17.1443 14.192 17.2264 14.274C17.3084 14.3561 17.3545 14.4673 17.3545 14.5834C17.3545 14.6994 17.3084 14.8107 17.2264 14.8927C17.1443 14.9748 17.033 15.0209 16.917 15.0209ZM17.3545 16.9167C17.3545 17.0327 17.3084 17.144 17.2264 17.2261C17.1443 17.3081 17.033 17.3542 16.917 17.3542H16.3337C16.2176 17.3542 16.1063 17.3081 16.0243 17.2261C15.9423 17.144 15.8962 17.0327 15.8962 16.9167C15.8962 16.8007 15.9423 16.6894 16.0243 16.6073C16.1063 16.5253 16.2176 16.4792 16.3337 16.4792H16.917C17.033 16.4792 17.1443 16.5253 17.2264 16.6073C17.3084 16.6894 17.3545 16.8007 17.3545 16.9167ZM16.917 12.6875H16.3337C16.2176 12.6875 16.1063 12.6414 16.0243 12.5594C15.9423 12.4773 15.8962 12.3661 15.8962 12.25C15.8962 12.134 15.9423 12.0227 16.0243 11.9407C16.1063 11.8586 16.2176 11.8125 16.3337 11.8125H16.917C17.033 11.8125 17.1443 11.8586 17.2264 11.9407C17.3084 12.0227 17.3545 12.134 17.3545 12.25C17.3545 12.3661 17.3084 12.4773 17.2264 12.5594C17.1443 12.6414 17.033 12.6875 16.917 12.6875ZM11.0837 15.0209C10.9676 15.0209 10.8563 14.9748 10.7743 14.8927C10.6923 14.8107 10.6462 14.6994 10.6462 14.5834C10.6462 14.4673 10.6923 14.3561 10.7743 14.274C10.8563 14.192 10.9676 14.1459 11.0837 14.1459H14.0003C14.1164 14.1459 14.2276 14.192 14.3097 14.274C14.3917 14.3561 14.4378 14.4673 14.4378 14.5834C14.4378 14.6994 14.3917 14.8107 14.3097 14.8927C14.2276 14.9748 14.1164 15.0209 14.0003 15.0209H11.0837ZM13.2712 16.9167C13.2712 17.0327 13.2251 17.144 13.143 17.2261C13.061 17.3081 12.9497 17.3542 12.8337 17.3542H11.0837C10.9676 17.3542 10.8563 17.3081 10.7743 17.2261C10.6923 17.144 10.6462 17.0327 10.6462 16.9167C10.6462 16.8007 10.6923 16.6894 10.7743 16.6073C10.8563 16.5253 10.9676 16.4792 11.0837 16.4792H12.8337C12.9497 16.4792 13.061 16.5253 13.143 16.6073C13.2251 16.6894 13.2712 16.8007 13.2712 16.9167ZM10.6462 12.25C10.6462 12.134 10.6923 12.0227 10.7743 11.9407C10.8563 11.8586 10.9676 11.8125 11.0837 11.8125H13.417C13.533 11.8125 13.6443 11.8586 13.7264 11.9407C13.8084 12.0227 13.8545 12.134 13.8545 12.25C13.8545 12.3661 13.8084 12.4773 13.7264 12.5594C13.6443 12.6414 13.533 12.6875 13.417 12.6875H11.0837C10.9676 12.6875 10.8563 12.6414 10.7743 12.5594C10.6923 12.4773 10.6462 12.3661 10.6462 12.25Z" fill="#5ABAFF"/>
</svg>
