<svg width="28" height="28" viewBox="0 0 28 28" fill="none" xmlns="http://www.w3.org/2000/svg">
<circle cx="14" cy="14" r="13.5" fill="#5ABAFF" fill-opacity="0.1" stroke="#5ABAFF"/>
<path d="M19.9842 14.8943H14.4811C14.2258 14.8946 13.9811 14.9962 13.8006 15.1767C13.6201 15.3573 13.5187 15.6021 13.5186 15.8574V19.7074C13.5187 19.9626 13.6201 20.2074 13.8006 20.388C13.9811 20.5686 14.2258 20.6701 14.4811 20.6705H19.9842C20.2396 20.6701 20.4843 20.5686 20.6649 20.388C20.8454 20.2075 20.947 19.9627 20.9473 19.7074V15.8574C20.947 15.602 20.8454 15.3573 20.6649 15.1767C20.4843 14.9962 20.2396 14.8946 19.9842 14.8943ZM19.9842 19.8474H14.4811C14.4446 19.8472 14.4098 19.8326 14.3841 19.8068C14.3584 19.781 14.344 19.7461 14.344 19.7097V18.0665C14.344 18.0278 14.3593 17.9907 14.3867 17.9633C14.414 17.936 14.4511 17.9206 14.4898 17.9206H19.9761C20.0147 17.9206 20.0518 17.936 20.0792 17.9633C20.1065 17.9907 20.1219 18.0278 20.1219 18.0665V19.7097C20.1219 19.7462 20.1074 19.7812 20.0816 19.807C20.0557 19.8329 20.0207 19.8474 19.9842 19.8474ZM14.4811 15.7197H19.9842C20.0207 15.7197 20.0557 15.7342 20.0816 15.76C20.1074 15.7858 20.1219 15.8209 20.1219 15.8574V16.3993C20.1219 16.438 20.1065 16.4751 20.0792 16.5024C20.0518 16.5298 20.0147 16.5451 19.9761 16.5451H14.4898C14.4511 16.5451 14.414 16.5298 14.3867 16.5024C14.3593 16.4751 14.344 16.438 14.344 16.3993V15.8574C14.344 15.821 14.3584 15.786 14.3841 15.7602C14.4098 15.7344 14.4446 15.7199 14.4811 15.7197Z" fill="#5ABAFF"/>
<path d="M19.2969 18.8843C19.2969 18.7748 19.2535 18.6699 19.1761 18.5924C19.0988 18.515 18.9939 18.4714 18.8845 18.4713H18.1962C18.0894 18.4753 17.9883 18.5205 17.9142 18.5975C17.8401 18.6744 17.7987 18.7771 17.7987 18.884C17.7987 18.9908 17.8401 19.0935 17.9142 19.1705C17.9883 19.2474 18.0894 19.2927 18.1962 19.2967H18.8845C18.9938 19.2965 19.0986 19.253 19.1759 19.1757C19.2532 19.0984 19.2967 18.9936 19.2969 18.8843ZM12.8307 16.4074C12.8307 16.2615 12.7727 16.1216 12.6695 16.0185C12.5664 15.9153 12.4265 15.8574 12.2806 15.8574H8.70357C8.63125 15.8574 8.55965 15.8431 8.49284 15.8154C8.42603 15.7878 8.36532 15.7472 8.31419 15.6961C8.26305 15.6449 8.22249 15.5842 8.19482 15.5174C8.16714 15.4506 8.1529 15.379 8.1529 15.3067V10.6622C8.1529 10.5075 8.21436 10.3591 8.32376 10.2497C8.43315 10.1403 8.58152 10.0789 8.73623 10.0789H17.4757C17.6304 10.0789 17.7788 10.1403 17.8882 10.2497C17.9976 10.3591 18.0591 10.5075 18.0591 10.6622V13.6559C18.0591 13.8017 18.117 13.9417 18.2202 14.0448C18.3233 14.148 18.4633 14.2059 18.6091 14.2059C18.755 14.2059 18.895 14.148 18.9981 14.0448C19.1013 13.9417 19.1592 13.8017 19.1592 13.6559V8.9781C19.1592 8.76131 19.1165 8.54665 19.0336 8.34636C18.9506 8.14607 18.829 7.96408 18.6757 7.81079C18.5224 7.65749 18.3404 7.53589 18.1401 7.45293C17.9399 7.36997 17.7252 7.32727 17.5084 7.32727H8.70357C8.26574 7.32727 7.84584 7.5012 7.53625 7.81079C7.22666 8.12038 7.05273 8.54028 7.05273 8.9781V15.3067C7.05273 15.7446 7.22664 16.1645 7.53622 16.4742C7.84579 16.7839 8.26569 16.9579 8.70357 16.9581H12.2806C12.4265 16.9579 12.5664 16.8999 12.6696 16.7966C12.7727 16.6934 12.8307 16.5534 12.8307 16.4074ZM10.3544 8.70335C10.3543 8.59439 10.3865 8.48785 10.447 8.3972C10.5074 8.30655 10.5934 8.23588 10.6941 8.19413C10.7947 8.15238 10.9055 8.14143 11.0124 8.16266C11.1192 8.18389 11.2174 8.23634 11.2944 8.31339C11.3715 8.39044 11.424 8.48861 11.4452 8.59548C11.4664 8.70236 11.4555 8.81313 11.4137 8.91377C11.372 9.01442 11.3013 9.10041 11.2106 9.16088C11.12 9.22134 11.0134 9.25355 10.9045 9.25344C10.7587 9.25313 10.619 9.19507 10.5159 9.09198C10.4128 8.98889 10.3547 8.84915 10.3544 8.70335ZM12.8307 9.25344C12.7217 9.25344 12.6152 9.22113 12.5247 9.16059C12.4341 9.10006 12.3635 9.01402 12.3218 8.91337C12.2802 8.81271 12.2693 8.70196 12.2906 8.59513C12.3119 8.48829 12.3644 8.39017 12.4415 8.31318C12.5185 8.2362 12.6167 8.1838 12.7236 8.16261C12.8304 8.14143 12.9412 8.15242 13.0418 8.19419C13.1424 8.23596 13.2284 8.30663 13.2888 8.39726C13.3492 8.48789 13.3814 8.59442 13.3813 8.70335C13.3812 8.8493 13.3231 8.98921 13.2198 9.09236C13.1166 9.1955 12.9766 9.25344 12.8307 9.25344ZM9.52898 8.70335C9.52898 8.81229 9.49667 8.91878 9.43614 9.00935C9.37561 9.09992 9.28957 9.1705 9.18891 9.21216C9.08826 9.25382 8.97751 9.26469 8.87067 9.2434C8.76384 9.2221 8.66572 9.1696 8.58873 9.09253C8.51174 9.01546 8.45934 8.91728 8.43816 8.81043C8.41698 8.70357 8.42797 8.59283 8.46974 8.49222C8.5115 8.39161 8.58217 8.30565 8.67281 8.24521C8.76344 8.18477 8.86996 8.15257 8.9789 8.15269C9.12485 8.15284 9.26476 8.21093 9.3679 8.31418C9.47105 8.41743 9.52898 8.55741 9.52898 8.70335Z" fill="#5ABAFF"/>
</svg>
