<svg width="28" height="28" viewBox="0 0 28 28" fill="none" xmlns="http://www.w3.org/2000/svg">
<circle cx="14" cy="14" r="13.5" fill="#5ABAFF" fill-opacity="0.1" stroke="#5ABAFF"/>
<path d="M15.0212 12.2257C15.0212 11.9549 14.9136 11.6953 14.7222 11.5038C14.5307 11.3124 14.2711 11.2048 14.0003 11.2048C13.7296 11.2048 13.4699 11.3124 13.2785 11.5038C13.087 11.6953 12.9795 11.9549 12.9795 12.2257V13.1007C12.9795 13.1393 12.9949 13.1764 13.0222 13.2038C13.0496 13.2311 13.0866 13.2465 13.1253 13.2465H14.8753C14.914 13.2465 14.9511 13.2311 14.9784 13.2038C15.0058 13.1764 15.0212 13.1393 15.0212 13.1007V12.2257Z" fill="#5ABAFF"/>
<path d="M21 9.13929C20.9982 8.83763 20.8771 8.54894 20.6632 8.33618C20.4494 8.12341 20.1601 8.00384 19.8584 8.00354H8.14275C7.84084 8.00524 7.55188 8.1264 7.33906 8.34054C7.12623 8.55468 7.00684 8.84438 7.007 9.14629L7 13.4285C7.01531 15.4273 7.70793 17.3617 8.96474 18.9159C10.2215 20.4701 11.9682 21.5522 13.9195 21.9855C13.9568 21.9929 13.9947 21.9966 14.0327 21.9965C14.0719 21.9964 14.111 21.9923 14.1493 21.9843C16.0967 21.5339 17.8337 20.4364 19.0768 18.8712C20.3198 17.3059 20.9953 15.3655 20.993 13.3667L21 9.13929ZM11.375 17.0382V13.8299C11.375 13.6752 11.4365 13.5268 11.5459 13.4174C11.6553 13.308 11.8036 13.2465 11.9583 13.2465H12.1042V12.2257C12.1042 11.7229 12.3039 11.2407 12.6594 10.8852C13.015 10.5296 13.4972 10.3299 14 10.3299C14.5028 10.3299 14.985 10.5296 15.3406 10.8852C15.6961 11.2407 15.8958 11.7229 15.8958 12.2257V13.2465H16.0417C16.1964 13.2465 16.3447 13.308 16.4541 13.4174C16.5635 13.5268 16.625 13.6752 16.625 13.8299V17.0382C16.625 17.1929 16.5635 17.3413 16.4541 17.4507C16.3447 17.5601 16.1964 17.6215 16.0417 17.6215H11.9583C11.8036 17.6215 11.6553 17.5601 11.5459 17.4507C11.4365 17.3413 11.375 17.1929 11.375 17.0382Z" fill="#5ABAFF"/>
<path d="M13.9997 16.4548C14.4024 16.4548 14.7288 16.1283 14.7288 15.7256C14.7288 15.3229 14.4024 14.9965 13.9997 14.9965C13.597 14.9965 13.2705 15.3229 13.2705 15.7256C13.2705 16.1283 13.597 16.4548 13.9997 16.4548Z" fill="#5ABAFF"/>
</svg>
