<svg width="28" height="28" viewBox="0 0 28 28" fill="none" xmlns="http://www.w3.org/2000/svg">
<circle cx="14" cy="14" r="13.5" fill="#5ABAFF" fill-opacity="0.1" stroke="#5ABAFF"/>
<path d="M14.3221 13.803L15.2012 14.328C15.3128 14.3957 15.444 14.4241 15.5737 14.4084C15.7034 14.3928 15.824 14.334 15.9163 14.2417C15.9389 14.2196 15.9594 14.1956 15.9776 14.1699L17.5456 11.9917C17.5903 11.9295 17.6224 11.8591 17.6399 11.7845C17.6574 11.71 17.6601 11.6326 17.6478 11.557C17.6354 11.4814 17.6083 11.409 17.5679 11.3438C17.5276 11.2787 17.4748 11.2221 17.4126 11.1774C17.3504 11.1327 17.28 11.1006 17.2054 11.0831C17.1308 11.0656 17.0535 11.0629 16.9779 11.0753C16.9023 11.0876 16.8298 11.1147 16.7647 11.1551C16.6996 11.1954 16.643 11.2482 16.5983 11.3104L15.4228 12.9437C15.4013 12.9732 15.3695 12.9937 15.3337 13.001C15.2979 13.0083 15.2606 13.0021 15.2292 12.9834L14.3414 12.4555C14.2153 12.3797 14.0652 12.3544 13.9212 12.3846C13.7772 12.4148 13.65 12.4982 13.5649 12.6182L12.218 14.5228C12.1317 14.6491 12.0984 14.8042 12.1253 14.9548C12.1523 15.1054 12.2373 15.2394 12.362 15.3279C12.4868 15.4164 12.6413 15.4523 12.7924 15.428C12.9434 15.4036 13.0788 15.321 13.1694 15.1977L14.1284 13.8438C14.1496 13.8138 14.1813 13.7929 14.2172 13.7853C14.2532 13.7777 14.2906 13.7841 14.3221 13.803Z" fill="#5ABAFF"/>
<path d="M14.1662 19.9916C14.1733 20.0239 14.1914 20.0528 14.2173 20.0733C14.2432 20.0938 14.2755 20.1047 14.3085 20.1042H18.8329C19.1423 20.1042 19.439 19.9813 19.6578 19.7625C19.8766 19.5437 19.9995 19.247 19.9995 18.9375V10.7207C19.9995 10.4113 19.8765 10.1146 19.6577 9.89587L18.2495 8.48771C18.1411 8.37923 18.0123 8.2932 17.8706 8.23454C17.7288 8.17588 17.5769 8.14575 17.4235 8.14587H10.6662C10.3568 8.14587 10.06 8.26879 9.84123 8.48758C9.62244 8.70638 9.49953 9.00312 9.49953 9.31254V14.3105C9.49899 14.3302 9.50244 14.3497 9.50966 14.3679C9.51687 14.3862 9.52772 14.4028 9.54152 14.4167L10.4165 15.2917C10.4371 15.3126 10.4634 15.3267 10.4921 15.3324C10.5208 15.3381 10.5505 15.335 10.5775 15.3236C10.6044 15.3121 10.6273 15.2928 10.6431 15.2682C10.6589 15.2436 10.667 15.2148 10.6662 15.1855V9.60421C10.6662 9.52685 10.6969 9.45267 10.7516 9.39797C10.8063 9.34327 10.8805 9.31254 10.9579 9.31254H17.3034C17.3806 9.31256 17.4546 9.34318 17.5093 9.39771L18.7471 10.6355C18.8018 10.6901 18.8327 10.7642 18.8329 10.8415V18.6459C18.8329 18.7232 18.8021 18.7974 18.7474 18.8521C18.6927 18.9068 18.6185 18.9375 18.5412 18.9375H14.1079C14.0862 18.9373 14.0647 18.942 14.0451 18.9512C14.0255 18.9604 14.0082 18.9739 13.9945 18.9907C13.9808 19.0075 13.9711 19.0272 13.9661 19.0483C13.9611 19.0694 13.9609 19.0914 13.9655 19.1125C14.025 19.3593 14.1195 19.788 14.1662 19.9916ZM10.5495 20.775L12.506 18.8191C12.5332 18.7916 12.5484 18.7545 12.5484 18.7159C12.5484 18.6772 12.5332 18.6401 12.506 18.6126L8.66769 14.7743C8.39819 14.4934 8.03453 14.3219 7.64639 14.2925C7.25825 14.2631 6.87291 14.378 6.56419 14.615C6.39877 14.7501 6.26347 14.9183 6.16698 15.1088C6.07049 15.2993 6.01497 15.5079 6.00398 15.7211C5.99299 15.9344 6.02678 16.1476 6.10317 16.347C6.17956 16.5464 6.29686 16.7276 6.44753 16.879L10.3419 20.775C10.3554 20.7888 10.3716 20.7997 10.3894 20.8072C10.4072 20.8146 10.4264 20.8185 10.4457 20.8185C10.465 20.8185 10.4841 20.8146 10.502 20.8072C10.5198 20.7997 10.536 20.7888 10.5495 20.775ZM11.4 21.4815L13.2334 21.8484C13.2526 21.8524 13.2722 21.8544 13.2918 21.8542C13.335 21.8542 13.3777 21.8446 13.4168 21.8261C13.4559 21.8075 13.4904 21.7805 13.5177 21.747C13.5451 21.7135 13.5647 21.6744 13.575 21.6324C13.5854 21.5904 13.5863 21.5466 13.5776 21.5042L13.2113 19.6714C13.2061 19.6455 13.194 19.6215 13.1763 19.6019C13.1586 19.5823 13.1358 19.5679 13.1106 19.5603C13.0853 19.5526 13.0584 19.5519 13.0328 19.5584C13.0072 19.5648 12.9838 19.578 12.9651 19.5967L11.3254 21.2353C11.3067 21.254 11.2934 21.2774 11.287 21.303C11.2806 21.3286 11.2812 21.3555 11.2889 21.3808C11.2966 21.406 11.311 21.4287 11.3305 21.4465C11.3501 21.4642 11.3741 21.4763 11.4 21.4815Z" fill="#5ABAFF"/>
</svg>
