<svg width="28" height="28" viewBox="0 0 28 28" fill="none" xmlns="http://www.w3.org/2000/svg">
<circle cx="14" cy="14" r="13.5" fill="#5ABAFF" fill-opacity="0.1" stroke="#5ABAFF"/>
<path d="M20.125 8.75H11.375C10.8918 8.75 10.5 9.14175 10.5 9.625V10.2083C10.5 10.6916 10.8918 11.0833 11.375 11.0833H20.125C20.6082 11.0833 21 10.6916 21 10.2083V9.625C21 9.14175 20.6082 8.75 20.125 8.75Z" fill="#5ABAFF"/>
<path d="M18.375 12.8334H9.625C9.14175 12.8334 8.75 13.2251 8.75 13.7084V14.2917C8.75 14.775 9.14175 15.1667 9.625 15.1667H18.375C18.8582 15.1667 19.25 14.775 19.25 14.2917V13.7084C19.25 13.2251 18.8582 12.8334 18.375 12.8334Z" fill="#5ABAFF"/>
<path d="M16.625 16.9166H7.875C7.39175 16.9166 7 17.3084 7 17.7916V18.375C7 18.8582 7.39175 19.25 7.875 19.25H16.625C17.1082 19.25 17.5 18.8582 17.5 18.375V17.7916C17.5 17.3084 17.1082 16.9166 16.625 16.9166Z" fill="#5ABAFF"/>
</svg>
