<svg width="13" height="13" viewBox="0 0 13 13" fill="none" xmlns="http://www.w3.org/2000/svg">
<g clip-path="url(#clip0)">
<path d="M5 0C4.0111 0 3.0444 0.293245 2.22215 0.842652C1.39991 1.39206 0.759043 2.17295 0.380605 3.08658C0.00216643 4.00021 -0.0968503 5.00555 0.0960758 5.97545C0.289002 6.94536 0.765206 7.83627 1.46447 8.53553C2.16373 9.2348 3.05465 9.711 4.02455 9.90392C4.99446 10.0969 5.99979 9.99783 6.91342 9.6194C7.82705 9.24096 8.60794 8.6001 9.15735 7.77785C9.70676 6.95561 10 5.98891 10 5C9.99857 3.67436 9.47132 2.40342 8.53395 1.46605C7.59658 0.528678 6.32564 0.00143378 5 0V0ZM5 7.91667C4.87639 7.91667 4.75555 7.88001 4.65277 7.81133C4.54999 7.74266 4.46988 7.64505 4.42258 7.53084C4.37527 7.41664 4.3629 7.29097 4.38701 7.16973C4.41113 7.0485 4.47065 6.93713 4.55806 6.84972C4.64547 6.76232 4.75683 6.70279 4.87807 6.67868C4.99931 6.65456 5.12498 6.66694 5.23918 6.71424C5.35338 6.76155 5.45099 6.84165 5.51967 6.94443C5.58835 7.04722 5.625 7.16805 5.625 7.29167C5.625 7.45743 5.55915 7.6164 5.44194 7.73361C5.32473 7.85082 5.16576 7.91667 5 7.91667ZM5.66667 5.38333C5.59233 5.41578 5.52908 5.46921 5.48467 5.53708C5.44026 5.60495 5.41663 5.68431 5.41667 5.76542C5.41667 5.87592 5.37277 5.9819 5.29463 6.06004C5.21649 6.13818 5.11051 6.18208 5 6.18208C4.8895 6.18208 4.78351 6.13818 4.70537 6.06004C4.62723 5.9819 4.58334 5.87592 4.58334 5.76542C4.5833 5.52216 4.65424 5.28418 4.78746 5.08065C4.92068 4.87712 5.11039 4.71688 5.33334 4.61958C5.47105 4.55948 5.58995 4.46326 5.67746 4.3411C5.76496 4.21895 5.8178 4.07541 5.8304 3.92568C5.843 3.77595 5.81488 3.6256 5.74901 3.49054C5.68315 3.35549 5.582 3.24075 5.45626 3.15849C5.33052 3.07622 5.18488 3.02948 5.03475 3.02321C4.88462 3.01695 4.73559 3.05139 4.60344 3.1229C4.47128 3.1944 4.36092 3.30031 4.28403 3.42941C4.20714 3.5585 4.16659 3.70599 4.16667 3.85625C4.16667 3.96676 4.12277 4.07274 4.04463 4.15088C3.96649 4.22902 3.86051 4.27292 3.75 4.27292C3.6395 4.27292 3.53351 4.22902 3.45537 4.15088C3.37723 4.07274 3.33334 3.96676 3.33334 3.85625C3.33333 3.55577 3.41456 3.26087 3.56843 3.00277C3.7223 2.74467 3.94309 2.53297 4.20742 2.39008C4.47175 2.24718 4.7698 2.17841 5.07002 2.19103C5.37024 2.20365 5.66146 2.2972 5.91286 2.46178C6.16427 2.62636 6.3665 2.85585 6.49816 3.12595C6.62982 3.39606 6.68601 3.69673 6.66078 3.99616C6.63556 4.29558 6.52985 4.58261 6.35485 4.82688C6.17985 5.07114 5.94207 5.26356 5.66667 5.38375V5.38333Z" fill="#5ABAFF"/>
</g>
<defs>
<clipPath id="clip0">
<rect width="13" height="13" fill="white"/>
</clipPath>
</defs>
</svg>
