<svg width="17" height="17" viewBox="0 0 17 17" fill="none" xmlns="http://www.w3.org/2000/svg">
<g clip-path="url(#clip0)">
<path d="M13.5481 6.81733H13.0433V4.96636C13.0433 3.76142 12.5647 2.60582 11.7126 1.75379C10.8606 0.90176 9.70502 0.423096 8.50007 0.423096C7.29512 0.423096 6.13952 0.90176 5.28749 1.75379C4.43546 2.60582 3.9568 3.76142 3.9568 4.96636V6.81733H3.45199C3.09497 6.81733 2.75257 6.95915 2.50011 7.21161C2.24766 7.46406 2.10583 7.80646 2.10583 8.16348V15.2308C2.10583 15.5878 2.24766 15.9302 2.50011 16.1827C2.75257 16.4351 3.09497 16.5769 3.45199 16.5769H13.5481C13.9052 16.5769 14.2476 16.4351 14.5 16.1827C14.7525 15.9302 14.8943 15.5878 14.8943 15.2308V8.16348C14.8943 7.80646 14.7525 7.46406 14.5 7.21161C14.2476 6.95915 13.9052 6.81733 13.5481 6.81733ZM8.50007 12.875C8.23382 12.875 7.97356 12.7961 7.75218 12.6482C7.53081 12.5002 7.35827 12.29 7.25638 12.044C7.15449 11.798 7.12784 11.5274 7.17978 11.2662C7.23172 11.0051 7.35993 10.7653 7.54819 10.577C7.73645 10.3887 7.97632 10.2605 8.23744 10.2086C8.49857 10.1566 8.76924 10.1833 9.01522 10.2852C9.26119 10.3871 9.47143 10.5596 9.61935 10.781C9.76727 11.0024 9.84622 11.2626 9.84622 11.5289C9.84622 11.8859 9.70439 12.2283 9.45194 12.4807C9.19949 12.7332 8.85709 12.875 8.50007 12.875ZM11.3606 6.48079C11.3606 6.57004 11.3252 6.65564 11.2621 6.71876C11.199 6.78187 11.1134 6.81733 11.0241 6.81733H5.97603C5.88677 6.81733 5.80117 6.78187 5.73806 6.71876C5.67495 6.65564 5.63949 6.57004 5.63949 6.48079V4.96636C5.63949 4.20769 5.94087 3.48009 6.47733 2.94363C7.01379 2.40717 7.74139 2.10579 8.50007 2.10579C9.25874 2.10579 9.98634 2.40717 10.5228 2.94363C11.0593 3.48009 11.3606 4.20769 11.3606 4.96636V6.48079Z" fill="#5ABAFF"/>
</g>
<defs>
<clipPath id="clip0">
<rect width="16.1538" height="16.1538" fill="white" transform="translate(0.423096 0.423096)"/>
</clipPath>
</defs>
</svg>
