<svg width="30" height="6" viewBox="0 0 30 6" fill="none" xmlns="http://www.w3.org/2000/svg">
<path opacity="0.5" d="M30 3L25 0.113246L25 5.88675L30 3ZM1.5 3.5C1.77614 3.5 2 3.27614 2 3C2 2.72386 1.77614 2.5 1.5 2.5L1.5 3.5ZM4.5 2.5C4.22386 2.5 4 2.72386 4 3C4 3.27614 4.22386 3.5 4.5 3.5L4.5 2.5ZM7.5 3.5C7.77614 3.5 8 3.27614 8 3C8 2.72386 7.77614 2.5 7.5 2.5L7.5 3.5ZM10.5 2.5C10.2239 2.5 10 2.72386 10 3C10 3.27614 10.2239 3.5 10.5 3.5L10.5 2.5ZM13.5 3.5C13.7761 3.5 14 3.27614 14 3C14 2.72386 13.7761 2.5 13.5 2.5L13.5 3.5ZM16.5 2.5C16.2239 2.5 16 2.72386 16 3C16 3.27614 16.2239 3.5 16.5 3.5L16.5 2.5ZM19.5 3.5C19.7761 3.5 20 3.27614 20 3C20 2.72386 19.7761 2.5 19.5 2.5L19.5 3.5ZM22.5 2.5C22.2239 2.5 22 2.72386 22 3C22 3.27614 22.2239 3.5 22.5 3.5L22.5 2.5ZM25.5 3.5C25.7761 3.5 26 3.27614 26 3C26 2.72386 25.7761 2.5 25.5 2.5L25.5 3.5ZM28.5 2.5C28.2239 2.5 28 2.72386 28 3C28 3.27614 28.2239 3.5 28.5 3.5L28.5 2.5ZM4.37114e-08 3.5L1.5 3.5L1.5 2.5L-4.37114e-08 2.5L4.37114e-08 3.5ZM4.5 3.5L7.5 3.5L7.5 2.5L4.5 2.5L4.5 3.5ZM10.5 3.5L13.5 3.5L13.5 2.5L10.5 2.5L10.5 3.5ZM16.5 3.5L19.5 3.5L19.5 2.5L16.5 2.5L16.5 3.5ZM22.5 3.5L25.5 3.5L25.5 2.5L22.5 2.5L22.5 3.5Z" fill="url(#paint0_linear_201_8533)"/>
<defs>
<linearGradient id="paint0_linear_201_8533" x1="27.2" y1="3.50051" x2="2.1" y2="3.50051" gradientUnits="userSpaceOnUse">
<stop stop-color="#717171"/>
<stop offset="1" stop-color="#717171" stop-opacity="0"/>
</linearGradient>
</defs>
</svg>
