<svg width="9" height="6" viewBox="0 0 9 6" fill="none" xmlns="http://www.w3.org/2000/svg">
<path d="M4.20017 5.11686C4.2405 5.16441 4.29071 5.20261 4.34729 5.22882C4.40387 5.25502 4.46548 5.26859 4.52784 5.26859C4.59019 5.26859 4.6518 5.25502 4.70838 5.22882C4.76496 5.20261 4.81517 5.16441 4.8555 5.11686L8.1795 0.886192C8.22783 0.824729 8.25787 0.750901 8.26619 0.673158C8.27451 0.595416 8.26077 0.516902 8.22654 0.446605C8.19232 0.376308 8.13899 0.31707 8.07266 0.275672C8.00633 0.234274 7.92969 0.21239 7.8515 0.212525L1.20417 0.212525C1.12601 0.212453 1.04941 0.234382 0.983132 0.275805C0.916853 0.317227 0.863574 0.37647 0.829388 0.446755C0.795202 0.51704 0.78149 0.595528 0.789822 0.673241C0.798153 0.750954 0.828193 0.824751 0.876502 0.886192L4.20017 5.11686Z" fill="#484848"/>
</svg>
