<svg width="32" height="28" viewBox="0 0 32 28" fill="none" xmlns="http://www.w3.org/2000/svg">
<path opacity="0.5" d="M32 0H3C1.34315 0 0 1.34315 0 3V25C0 26.6569 1.34315 28 3 28H32V0Z" fill="white"/>
<g opacity="0.4">
<path d="M19.0555 13.4445H12.9443C12.797 13.4445 12.6557 13.503 12.5515 13.6072C12.4473 13.7114 12.3888 13.8527 12.3888 14C12.3888 14.1473 12.4473 14.2887 12.5515 14.3928C12.6557 14.497 12.797 14.5556 12.9443 14.5556H19.0555C19.2028 14.5556 19.3441 14.497 19.4483 14.3928C19.5525 14.2887 19.611 14.1473 19.611 14C19.611 13.8527 19.5525 13.7114 19.4483 13.6072C19.3441 13.503 19.2028 13.4445 19.0555 13.4445ZM19.0555 15.6667H12.9443C12.797 15.6667 12.6557 15.7252 12.5515 15.8294C12.4473 15.9336 12.3888 16.0749 12.3888 16.2222C12.3888 16.3696 12.4473 16.5109 12.5515 16.6151C12.6557 16.7193 12.797 16.7778 12.9443 16.7778H19.0555C19.2028 16.7778 19.3441 16.7193 19.4483 16.6151C19.5525 16.5109 19.611 16.3696 19.611 16.2222C19.611 16.0749 19.5525 15.9336 19.4483 15.8294C19.3441 15.7252 19.2028 15.6667 19.0555 15.6667ZM19.0555 11.2222H12.9443C12.797 11.2222 12.6557 11.2808 12.5515 11.3849C12.4473 11.4891 12.3888 11.6304 12.3888 11.7778C12.3888 11.9251 12.4473 12.0664 12.5515 12.1706C12.6557 12.2748 12.797 12.3333 12.9443 12.3333H19.0555C19.2028 12.3333 19.3441 12.2748 19.4483 12.1706C19.5525 12.0664 19.611 11.9251 19.611 11.7778C19.611 11.6304 19.5525 11.4891 19.4483 11.3849C19.3441 11.2808 19.2028 11.2222 19.0555 11.2222Z" fill="#717171"/>
<path d="M21 7.33331H11C10.558 7.33331 10.1341 7.50891 9.82153 7.82147C9.50897 8.13403 9.33337 8.55795 9.33337 8.99998V19C9.33337 19.442 9.50897 19.8659 9.82153 20.1785C10.1341 20.4911 10.558 20.6666 11 20.6666H21C21.4421 20.6666 21.866 20.4911 22.1786 20.1785C22.4911 19.8659 22.6667 19.442 22.6667 19V8.99998C22.6667 8.55795 22.4911 8.13403 22.1786 7.82147C21.866 7.50891 21.4421 7.33331 21 7.33331V7.33331ZM21.5556 19C21.5556 19.1473 21.4971 19.2886 21.3929 19.3928C21.2887 19.497 21.1474 19.5555 21 19.5555H11C10.8527 19.5555 10.7114 19.497 10.6072 19.3928C10.503 19.2886 10.4445 19.1473 10.4445 19V8.99998C10.4445 8.85264 10.503 8.71133 10.6072 8.60714C10.7114 8.50296 10.8527 8.44442 11 8.44442H21C21.1474 8.44442 21.2887 8.50296 21.3929 8.60714C21.4971 8.71133 21.5556 8.85264 21.5556 8.99998V19Z" fill="#717171"/>
</g>
</svg>
