<svg width="13" height="13" viewBox="0 0 13 13" fill="none" xmlns="http://www.w3.org/2000/svg">
<path d="M11.6033 2H2.66999C2.4923 2 2.32189 2.07059 2.19624 2.19624C2.07059 2.32189 2 2.4923 2 2.66999V8.72317C2.00062 8.8099 2.01855 8.89563 2.05273 8.97534C2.08691 9.05505 2.13665 9.12714 2.19905 9.18738C2.26146 9.24761 2.33525 9.29479 2.41612 9.32614C2.49699 9.35749 2.5833 9.37238 2.66999 9.36994H4.00998V11.1566C4.00997 11.1974 4.02112 11.2374 4.04223 11.2723C4.06334 11.3072 4.0936 11.3356 4.12972 11.3545C4.16585 11.3734 4.20647 11.3821 4.24717 11.3796C4.28787 11.377 4.32711 11.3634 4.36061 11.3402L7.2063 9.36994H11.6033C11.7809 9.36994 11.9514 9.29935 12.077 9.1737C12.2027 9.04805 12.2732 8.87764 12.2732 8.69994V2.66999C12.2732 2.4923 12.2027 2.32189 12.077 2.19624C11.9514 2.07059 11.7809 2 11.6033 2ZM4.12165 6.68996C4.12165 6.60111 4.15694 6.51591 4.21977 6.45308C4.28259 6.39026 4.3678 6.35496 4.45665 6.35496H9.8166C9.90545 6.35496 9.99065 6.39026 10.0535 6.45308C10.1163 6.51591 10.1516 6.60111 10.1516 6.68996C10.1516 6.77881 10.1163 6.86402 10.0535 6.92684C9.99065 6.98966 9.90545 7.02496 9.8166 7.02496H4.45665C4.3678 7.02496 4.28259 6.98966 4.21977 6.92684C4.15694 6.86402 4.12165 6.77881 4.12165 6.68996ZM9.8166 5.01497H4.45665C4.3678 5.01497 4.28259 4.97968 4.21977 4.91686C4.15694 4.85403 4.12165 4.76882 4.12165 4.67998C4.12165 4.59113 4.15694 4.50592 4.21977 4.4431C4.28259 4.38027 4.3678 4.34498 4.45665 4.34498H9.8166C9.90545 4.34498 9.99065 4.38027 10.0535 4.4431C10.1163 4.50592 10.1516 4.59113 10.1516 4.67998C10.1516 4.76882 10.1163 4.85403 10.0535 4.91686C9.99065 4.97968 9.90545 5.01497 9.8166 5.01497Z" fill="#2266E2"/>
</svg>
