<svg width="6" height="8" viewBox="0 0 6 8" fill="none" xmlns="http://www.w3.org/2000/svg">
<path d="M4.90433 4.06839C4.95189 4.02805 4.99009 3.97785 5.01629 3.92127C5.04249 3.86468 5.05607 3.80307 5.05607 3.74072C5.05607 3.67836 5.04249 3.61676 5.01629 3.56017C4.99009 3.50359 4.95189 3.45339 4.90433 3.41305L0.673667 0.0890528C0.612205 0.0407262 0.538376 0.0106833 0.460634 0.00236384C0.382891 -0.00595564 0.304377 0.00778448 0.23408 0.0420111C0.163784 0.0762378 0.104545 0.129568 0.0631474 0.195895C0.0217496 0.262222 -0.000134454 0.338867 6.21537e-07 0.417053V7.06439C-7.17636e-05 7.14254 0.0218578 7.21914 0.0632804 7.28542C0.104703 7.3517 0.163946 7.40498 0.234231 7.43917C0.304515 7.47335 0.383004 7.48707 0.460717 7.47873C0.538429 7.4704 0.612227 7.44036 0.673667 7.39205L4.90433 4.06839Z" fill="#484848"/>
</svg>
