<svg width="32" height="28" viewBox="0 0 32 28" fill="none" xmlns="http://www.w3.org/2000/svg">
<path opacity="0.5" d="M0 0H29C30.6569 0 32 1.34315 32 3V25C32 26.6569 30.6569 28 29 28H0V0Z" fill="white"/>
<g opacity="0.4">
<path d="M21.5555 7.33331H10.4444C10.1497 7.33331 9.86706 7.45038 9.65869 7.65875C9.45032 7.86712 9.33325 8.14974 9.33325 8.44442V19.5555C9.33325 19.8502 9.45032 20.1328 9.65869 20.3412C9.86706 20.5496 10.1497 20.6666 10.4444 20.6666H21.5555C21.8502 20.6666 22.1328 20.5496 22.3411 20.3412C22.5495 20.1328 22.6666 19.8502 22.6666 19.5555V8.44442C22.6666 8.14974 22.5495 7.86712 22.3411 7.65875C22.1328 7.45038 21.8502 7.33331 21.5555 7.33331V7.33331ZM21.5555 8.7222V10.3889C21.5555 10.4625 21.5262 10.5332 21.4741 10.5853C21.422 10.6374 21.3514 10.6666 21.2777 10.6666H10.7221C10.6485 10.6666 10.5778 10.6374 10.5257 10.5853C10.4736 10.5332 10.4444 10.4625 10.4444 10.3889V8.7222C10.4444 8.64853 10.4736 8.57788 10.5257 8.52578C10.5778 8.47369 10.6485 8.44442 10.7221 8.44442H21.2777C21.3514 8.44442 21.422 8.47369 21.4741 8.52578C21.5262 8.57788 21.5555 8.64853 21.5555 8.7222ZM10.7221 11.7778H15.1666C15.2403 11.7778 15.3109 11.807 15.363 11.8591C15.4151 11.9112 15.4444 11.9819 15.4444 12.0555V19.2778C15.4444 19.3514 15.4151 19.4221 15.363 19.4742C15.3109 19.5263 15.2403 19.5555 15.1666 19.5555H10.7221C10.6485 19.5555 10.5778 19.5263 10.5257 19.4742C10.4736 19.4221 10.4444 19.3514 10.4444 19.2778V12.0555C10.4444 11.9819 10.4736 11.9112 10.5257 11.8591C10.5778 11.807 10.6485 11.7778 10.7221 11.7778ZM16.5555 19.2778V12.0555C16.5555 11.9819 16.5847 11.9112 16.6368 11.8591C16.6889 11.807 16.7596 11.7778 16.8333 11.7778H21.2777C21.3514 11.7778 21.422 11.807 21.4741 11.8591C21.5262 11.9112 21.5555 11.9819 21.5555 12.0555V19.2778C21.5555 19.3514 21.5262 19.4221 21.4741 19.4742C21.422 19.5263 21.3514 19.5555 21.2777 19.5555H16.8333C16.7596 19.5555 16.6889 19.5263 16.6368 19.4742C16.5847 19.4221 16.5555 19.3514 16.5555 19.2778Z" fill="#717171"/>
</g>
</svg>
