<svg width="68" height="68" viewBox="0 0 68 68" fill="none" xmlns="http://www.w3.org/2000/svg">
<g opacity="0.2">
<path d="M48.875 65.875C58.2638 65.875 65.875 58.2638 65.875 48.875C65.875 39.4862 58.2638 31.875 48.875 31.875C39.4862 31.875 31.875 39.4862 31.875 48.875C31.875 58.2638 39.4862 65.875 48.875 65.875Z" stroke="black" stroke-width="1.5" stroke-linecap="round" stroke-linejoin="round"/>
<path d="M48.875 40.375V57.375" stroke="black" stroke-width="1.5" stroke-linecap="round" stroke-linejoin="round"/>
<path d="M40.375 48.875H57.375" stroke="black" stroke-width="1.5" stroke-linecap="round" stroke-linejoin="round"/>
<path d="M23.375 57.375H6.375C5.24783 57.375 4.16683 56.9272 3.3698 56.1302C2.57277 55.3332 2.125 54.2522 2.125 53.125V6.375C2.125 5.24783 2.57277 4.16683 3.3698 3.3698C4.16683 2.57277 5.24783 2.125 6.375 2.125H36.4905C37.6169 2.12524 38.6971 2.57261 39.4938 3.36883L47.6312 11.5062C48.4274 12.3029 48.8748 13.3831 48.875 14.5095V23.375" stroke="black" stroke-width="1.5" stroke-linecap="round" stroke-linejoin="round"/>
</g>
</svg>
