<svg width="14" height="16" viewBox="0 0 14 16" fill="none" xmlns="http://www.w3.org/2000/svg">
<path d="M12.7826 2.43476H11.1087C11.0683 2.43476 11.0296 2.41873 11.0011 2.39019C10.9726 2.36165 10.9565 2.32295 10.9565 2.28259V1.21737C10.9565 1.05593 10.8924 0.901109 10.7782 0.786956C10.6641 0.672803 10.5093 0.608673 10.3478 0.608673C10.1864 0.608673 10.0316 0.672803 9.91741 0.786956C9.80326 0.901109 9.73913 1.05593 9.73913 1.21737V4.10867C9.73913 4.22975 9.69103 4.34587 9.60542 4.43148C9.5198 4.5171 9.40369 4.56519 9.28261 4.56519C9.16153 4.56519 9.04541 4.5171 8.9598 4.43148C8.87418 4.34587 8.82609 4.22975 8.82609 4.10867V2.73911C8.82609 2.65839 8.79402 2.58098 8.73695 2.5239C8.67987 2.46683 8.60246 2.43476 8.52174 2.43476H4.71739C4.67714 2.43476 4.63852 2.41881 4.61 2.3904C4.58148 2.362 4.56538 2.32345 4.56522 2.28319V1.21737C4.56522 1.05593 4.50109 0.901109 4.38693 0.786956C4.27278 0.672803 4.11796 0.608673 3.95652 0.608673C3.79509 0.608673 3.64026 0.672803 3.52611 0.786956C3.41196 0.901109 3.34783 1.05593 3.34783 1.21737V4.10867C3.34783 4.22975 3.29973 4.34587 3.21411 4.43148C3.1285 4.5171 3.01238 4.56519 2.8913 4.56519C2.77023 4.56519 2.65411 4.5171 2.56849 4.43148C2.48288 4.34587 2.43478 4.22975 2.43478 4.10867V2.73911C2.43478 2.65839 2.40272 2.58098 2.34564 2.5239C2.28856 2.46683 2.21115 2.43476 2.13043 2.43476H1.21739C0.894519 2.43476 0.584871 2.56302 0.356566 2.79133C0.128261 3.01963 0 3.32928 0 3.65215V14C0 14.3228 0.128261 14.6325 0.356566 14.8608C0.584871 15.0891 0.894519 15.2174 1.21739 15.2174H12.7826C13.1055 15.2174 13.4151 15.0891 13.6434 14.8608C13.8717 14.6325 14 14.3228 14 14V3.65215C14 3.32928 13.8717 3.01963 13.6434 2.79133C13.4151 2.56302 13.1055 2.43476 12.7826 2.43476ZM12.7826 13.6956C12.7826 13.7763 12.7505 13.8538 12.6935 13.9108C12.6364 13.9679 12.559 14 12.4783 14H1.52174C1.44102 14 1.36361 13.9679 1.30653 13.9108C1.24946 13.8538 1.21739 13.7763 1.21739 13.6956V6.39128C1.21739 6.31056 1.24946 6.23315 1.30653 6.17607C1.36361 6.119 1.44102 6.08693 1.52174 6.08693H12.4783C12.559 6.08693 12.6364 6.119 12.6935 6.17607C12.7505 6.23315 12.7826 6.31056 12.7826 6.39128V13.6956Z" fill="#DDDDDD"/>
</svg>
