<svg width="14" height="14" viewBox="0 0 14 14" fill="none" xmlns="http://www.w3.org/2000/svg">
<path d="M7 0C5.61553 0 4.26215 0.410543 3.11101 1.17971C1.95987 1.94888 1.06266 3.04213 0.532846 4.32122C0.003033 5.6003 -0.13559 7.00776 0.134506 8.36563C0.404603 9.7235 1.07129 10.9708 2.05026 11.9497C3.02922 12.9287 4.2765 13.5954 5.63437 13.8655C6.99224 14.1356 8.3997 13.997 9.67879 13.4672C10.9579 12.9373 12.0511 12.0401 12.8203 10.889C13.5895 9.73785 14 8.38447 14 7C13.9978 5.14415 13.2596 3.36493 11.9474 2.05264C10.6351 0.740353 8.85585 0.00216138 7 0V0ZM11.0408 4.78333L7.04783 10.2019C7.00069 10.2645 6.94157 10.317 6.8739 10.3564C6.80624 10.3959 6.7314 10.4215 6.65375 10.4317C6.57609 10.4419 6.49719 10.4365 6.42163 10.4159C6.34607 10.3953 6.27537 10.3598 6.21367 10.3116L3.36234 8.03192C3.30251 7.98404 3.2527 7.92485 3.21574 7.85772C3.17879 7.79059 3.15542 7.71684 3.14697 7.64068C3.12991 7.48687 3.17464 7.33258 3.27134 7.21175C3.36803 7.09092 3.50876 7.01345 3.66257 6.99639C3.81638 6.97932 3.97067 7.02406 4.0915 7.12075L6.46917 9.023L10.1016 4.09325C10.1453 4.02763 10.2019 3.97156 10.2679 3.92842C10.3339 3.88528 10.408 3.85598 10.4856 3.84228C10.5633 3.82857 10.6429 3.83076 10.7197 3.8487C10.7965 3.86664 10.8689 3.89996 10.9324 3.94666C10.996 3.99335 11.0494 4.05244 11.0894 4.12036C11.1295 4.18828 11.1554 4.26362 11.1655 4.34183C11.1756 4.42003 11.1698 4.49947 11.1484 4.57536C11.1269 4.65124 11.0903 4.72199 11.0408 4.78333Z" fill="#40E395"/>
</svg>
