<svg width="20" height="20" viewBox="0 0 20 20" fill="none" xmlns="http://www.w3.org/2000/svg">
<path d="M5.8701 8.33333C6.69419 8.33333 7.49977 8.08896 8.18498 7.63112C8.87018 7.17329 9.40424 6.52254 9.7196 5.76118C10.035 4.99982 10.1175 4.16205 9.95671 3.35379C9.79594 2.54554 9.3991 1.80311 8.81638 1.22039C8.23366 0.637671 7.49123 0.240835 6.68298 0.0800632C5.87473 -0.0807085 5.03695 0.00180535 4.27559 0.317171C3.51423 0.632536 2.86349 1.16659 2.40565 1.85179C1.94781 2.537 1.70344 3.34258 1.70344 4.16667C1.70476 5.27133 2.14417 6.33037 2.92529 7.11149C3.7064 7.8926 4.76544 8.33201 5.8701 8.33333ZM3.45344 3.5475C3.47003 3.48505 3.50093 3.42732 3.54368 3.37886C3.58643 3.33041 3.63987 3.29256 3.69976 3.26831C3.75966 3.24406 3.82437 3.23408 3.88879 3.23914C3.95321 3.24421 4.01557 3.26419 4.07094 3.2975C4.97623 3.85837 6.01851 4.15909 7.08344 4.16667C7.34257 4.16621 7.60132 4.14671 7.8576 4.10834C7.92184 4.09847 7.98749 4.10377 8.04932 4.12381C8.11114 4.14384 8.16742 4.17806 8.21365 4.22373C8.25989 4.2694 8.2948 4.32526 8.3156 4.38683C8.3364 4.4484 8.34251 4.51398 8.33344 4.57834C8.22689 5.19392 7.89373 5.7473 7.39956 6.12952C6.90538 6.51173 6.28601 6.69507 5.66342 6.64343C5.04082 6.59179 4.46012 6.30891 4.03566 5.85051C3.61121 5.39211 3.37377 4.79139 3.3701 4.16667C3.37 3.95748 3.39803 3.74922 3.45344 3.5475ZM9.43094 10.3217C9.4692 10.276 9.49723 10.2227 9.51313 10.1653C9.52903 10.1079 9.53243 10.0477 9.52311 9.98886C9.51379 9.93003 9.49197 9.87387 9.4591 9.82418C9.42624 9.7745 9.3831 9.73244 9.3326 9.70083C8.34642 9.0818 7.20614 8.75234 6.04177 8.75C4.69759 8.75612 3.39077 9.19297 2.31314 9.99643C1.2355 10.7999 0.44381 11.9277 0.0542696 13.2142C0.0357089 13.2764 0.0319309 13.342 0.0432368 13.4059C0.0545426 13.4698 0.0806197 13.5302 0.11939 13.5823C0.15816 13.6343 0.208551 13.6766 0.266546 13.7057C0.324542 13.7348 0.388539 13.75 0.453436 13.75H7.58344C7.68108 13.75 7.77562 13.7157 7.85055 13.6531C7.92549 13.5905 7.97606 13.5036 7.99344 13.4075C8.19601 12.2714 8.69149 11.2077 9.43094 10.3217ZM14.5468 9.16667C13.4755 9.16667 12.4282 9.48435 11.5374 10.0795C10.6467 10.6747 9.9524 11.5207 9.54242 12.5105C9.13245 13.5002 9.02518 14.5893 9.23418 15.6401C9.44319 16.6908 9.95907 17.656 10.7166 18.4135C11.4741 19.171 12.4393 19.6869 13.49 19.8959C14.5408 20.1049 15.6299 19.9977 16.6196 19.5877C17.6094 19.1777 18.4554 18.4834 19.0506 17.5927C19.6458 16.7019 19.9634 15.6546 19.9634 14.5833C19.9617 13.1473 19.3904 11.7706 18.375 10.7551C17.3595 9.73968 15.9828 9.16843 14.5468 9.16667ZM17.4634 15.4167H15.7968C15.6863 15.4167 15.5803 15.4606 15.5021 15.5387C15.424 15.6168 15.3801 15.7228 15.3801 15.8333V17.5C15.3801 17.721 15.2923 17.933 15.136 18.0893C14.9797 18.2455 14.7678 18.3333 14.5468 18.3333C14.3258 18.3333 14.1138 18.2455 13.9575 18.0893C13.8012 17.933 13.7134 17.721 13.7134 17.5V15.8333C13.7134 15.7228 13.6695 15.6168 13.5914 15.5387C13.5133 15.4606 13.4073 15.4167 13.2968 15.4167H11.6301C11.4091 15.4167 11.1971 15.3289 11.0408 15.1726C10.8846 15.0163 10.7968 14.8043 10.7968 14.5833C10.7968 14.3623 10.8846 14.1504 11.0408 13.9941C11.1971 13.8378 11.4091 13.75 11.6301 13.75H13.2968C13.4073 13.75 13.5133 13.7061 13.5914 13.628C13.6695 13.5498 13.7134 13.4438 13.7134 13.3333V11.6667C13.7134 11.4457 13.8012 11.2337 13.9575 11.0774C14.1138 10.9211 14.3258 10.8333 14.5468 10.8333C14.7678 10.8333 14.9797 10.9211 15.136 11.0774C15.2923 11.2337 15.3801 11.4457 15.3801 11.6667V13.3333C15.3801 13.4438 15.424 13.5498 15.5021 13.628C15.5803 13.7061 15.6863 13.75 15.7968 13.75H17.4634C17.6845 13.75 17.8964 13.8378 18.0527 13.9941C18.209 14.1504 18.2968 14.3623 18.2968 14.5833C18.2968 14.8043 18.209 15.0163 18.0527 15.1726C17.8964 15.3289 17.6845 15.4167 17.4634 15.4167Z" fill="#717171"/>
</svg>
