<svg width="12" height="13" viewBox="0 0 12 13" fill="none" xmlns="http://www.w3.org/2000/svg">
<g opacity="0.5">
<path d="M10.7501 10.5C10.7501 10.6989 10.671 10.8897 10.5304 11.0303C10.3897 11.171 10.199 11.25 10.0001 11.25C9.80115 11.25 9.61039 11.171 9.46973 11.0303C9.32908 10.8897 9.25006 10.6989 9.25006 10.5V4.61998C9.25001 4.59527 9.24263 4.57113 9.22886 4.5506C9.21509 4.53008 9.19555 4.51411 9.1727 4.50469C9.14985 4.49527 9.12472 4.49284 9.10049 4.49769C9.07626 4.50255 9.05402 4.51448 9.03656 4.53198L2.53006 11.0315C2.3893 11.172 2.19846 11.2509 1.99953 11.2508C1.8006 11.2507 1.60988 11.1715 1.46931 11.0307C1.32875 10.89 1.24986 10.6991 1.25 10.5002C1.25014 10.3013 1.3293 10.1105 1.47006 9.96998L7.98456 3.46248C8.00209 3.445 8.01403 3.42271 8.01887 3.39843C8.02372 3.37415 8.02124 3.34898 8.01176 3.32611C8.00228 3.30325 7.98622 3.28371 7.96563 3.26997C7.94503 3.25624 7.92082 3.24894 7.89606 3.24898H2.00006C1.80115 3.24898 1.61039 3.16996 1.46973 3.02931C1.32908 2.88866 1.25006 2.69789 1.25006 2.49898C1.25006 2.30007 1.32908 2.1093 1.46973 1.96865C1.61039 1.828 1.80115 1.74898 2.00006 1.74898H9.50006C9.6643 1.74898 9.82693 1.78135 9.97865 1.84423C10.1304 1.90711 10.2682 1.99927 10.3843 2.11545C10.5004 2.23163 10.5924 2.36955 10.6552 2.52132C10.718 2.67309 10.7502 2.83574 10.7501 2.99998V10.5Z" fill="#717171"/>
</g>
</svg>
