<svg width="8" height="8" viewBox="0 0 8 8" fill="none" xmlns="http://www.w3.org/2000/svg">
<path d="M7.16669 6.66666C7.16669 6.79927 7.11401 6.92645 7.02024 7.02022C6.92647 7.11398 6.7993 7.16666 6.66669 7.16666C6.53408 7.16666 6.4069 7.11398 6.31314 7.02022C6.21937 6.92645 6.16669 6.79927 6.16669 6.66666V2.74666C6.16665 2.73019 6.16173 2.71409 6.15255 2.70041C6.14337 2.68673 6.13034 2.67608 6.11511 2.6698C6.09988 2.66352 6.08313 2.6619 6.06698 2.66514C6.05082 2.66838 6.03599 2.67633 6.02436 2.688L1.68669 7.021C1.59285 7.11471 1.46562 7.1673 1.333 7.16721C1.20038 7.16711 1.07323 7.11434 0.979522 7.0205C0.885812 6.92665 0.833219 6.79943 0.833313 6.66681C0.833407 6.53419 0.88618 6.40704 0.980022 6.31333L5.32302 1.975C5.33471 1.96334 5.34267 1.94848 5.3459 1.9323C5.34912 1.91611 5.34747 1.89933 5.34115 1.88409C5.33483 1.86884 5.32413 1.85581 5.3104 1.84666C5.29667 1.8375 5.28053 1.83263 5.26402 1.83266H1.33336C1.20075 1.83266 1.07357 1.77998 0.979802 1.68622C0.886034 1.59245 0.833355 1.46527 0.833355 1.33266C0.833355 1.20005 0.886034 1.07288 0.979802 0.97911C1.07357 0.885342 1.20075 0.832663 1.33336 0.832663H6.33336C6.44285 0.832663 6.55126 0.85424 6.65241 0.896161C6.75356 0.938081 6.84546 0.999524 6.92285 1.07698C7.00024 1.15443 7.06161 1.24637 7.10345 1.34756C7.14529 1.44874 7.16678 1.55717 7.16669 1.66666V6.66666Z" fill="#2266E2"/>
</svg>
