<svg width="16" height="16" viewBox="0 0 16 16" fill="none" xmlns="http://www.w3.org/2000/svg">
<path d="M14.6664 2.51666C14.6679 2.31995 14.6127 2.12697 14.5075 1.96076C14.4023 1.79454 14.2515 1.66213 14.073 1.57933C12.1596 0.738767 10.0895 0.314069 7.9997 0.33333C5.90988 0.314069 3.83979 0.738767 1.92637 1.57933C1.74793 1.66213 1.5971 1.79454 1.49189 1.96076C1.38667 2.12697 1.33153 2.31995 1.33304 2.51666V7.608C1.33035 9.26 1.82731 10.8742 2.75867 12.2387C3.69003 13.6031 5.01225 14.654 6.5517 15.2533L7.26304 15.5293C7.73704 15.7127 8.26237 15.7127 8.73637 15.5293L9.4477 15.2533C10.9872 14.654 12.3094 13.6031 13.2407 12.2387C14.1721 10.8742 14.6691 9.26 14.6664 7.608V2.51666ZM12.3384 5.49266L8.31504 10.9807C8.24399 11.0774 8.15289 11.1577 8.04796 11.2161C7.94303 11.2744 7.82674 11.3094 7.70704 11.3187C7.68504 11.3187 7.6637 11.3187 7.64037 11.3187C7.53087 11.3187 7.42245 11.2971 7.32132 11.2551C7.22019 11.2131 7.12834 11.1516 7.05104 11.074L3.9997 8.024C3.84795 7.86679 3.76401 7.65626 3.76597 7.43776C3.76793 7.21926 3.85563 7.01028 4.01019 6.85582C4.16474 6.70135 4.37377 6.61377 4.59227 6.61193C4.81077 6.6101 5.02125 6.69415 5.17837 6.846L7.4057 9.074C7.4227 9.09106 7.4432 9.10423 7.46577 9.11262C7.48835 9.121 7.51248 9.12439 7.53649 9.12255C7.56051 9.12071 7.58384 9.11369 7.60488 9.10197C7.62592 9.09025 7.64417 9.07411 7.65837 9.05466L10.9917 4.50733C11.0557 4.41735 11.137 4.341 11.2308 4.2827C11.3246 4.2244 11.429 4.18533 11.538 4.16775C11.6471 4.15017 11.7585 4.15443 11.8658 4.18029C11.9732 4.20615 12.0744 4.25309 12.1634 4.31839C12.2525 4.38368 12.3277 4.46602 12.3846 4.56063C12.4416 4.65524 12.4792 4.76022 12.4952 4.86948C12.5112 4.97874 12.5054 5.0901 12.478 5.19708C12.4506 5.30407 12.4023 5.40454 12.3357 5.49266H12.3384Z" fill="#5FCF64"/>
</svg>
