<svg width="5" height="10" viewBox="0 0 5 10" fill="none" xmlns="http://www.w3.org/2000/svg">
<path d="M0.127513 5.3368C0.0870905 5.29259 0.0550218 5.24009 0.0331421 5.1823C0.0112619 5.12451 0 5.06256 0 5C0 4.93744 0.0112619 4.87549 0.0331421 4.8177C0.0550218 4.75991 0.0870905 4.70741 0.127513 4.6632L4.25789 0.139652C4.31867 0.0729895 4.39615 0.0275793 4.48051 0.00917339C4.56487 -0.00923252 4.65232 0.000193596 4.73179 0.0362587C4.81125 0.0723228 4.87916 0.133403 4.9269 0.211764C4.97465 0.290125 5.00009 0.382241 5 0.476448V1.19037C5.00006 1.2529 4.98887 1.31483 4.96707 1.37262C4.94527 1.43041 4.91328 1.48292 4.87294 1.52717L1.86446 4.82152C1.84303 4.84494 1.82602 4.87275 1.81442 4.90338C1.80281 4.93401 1.79684 4.96684 1.79684 5C1.79684 5.03316 1.80281 5.06599 1.81442 5.09662C1.82602 5.12725 1.84303 5.15506 1.86446 5.17848L4.87294 8.47283C4.91328 8.51708 4.94527 8.56959 4.96707 8.62738C4.98887 8.68517 5.00006 8.7471 5 8.80963V9.52355C5.00009 9.61776 4.97465 9.70988 4.9269 9.78824C4.87916 9.8666 4.81125 9.92768 4.73179 9.96374C4.65232 9.99981 4.56487 10.0092 4.48051 9.99083C4.39615 9.97242 4.31867 9.92701 4.25789 9.86035L0.127513 5.3368Z" fill="#2266E2"/>
</svg>
