<svg width="16" height="16" viewBox="0 0 16 16" fill="none" xmlns="http://www.w3.org/2000/svg">
    <path d="M15.032 7.0407H3.62462C3.59088 7.04038 3.55802 7.02986 3.53036 7.01053C3.5027 6.99119 3.48153 6.96395 3.46964 6.93237C3.45774 6.90079 3.45567 6.86635 3.4637 6.83357C3.47173 6.8008 3.48948 6.77121 3.51462 6.7487L9.27262 1.68204C9.45364 1.51137 9.56133 1.27708 9.573 1.02856C9.58466 0.780047 9.4994 0.536706 9.33516 0.349825C9.17093 0.162944 8.94056 0.047121 8.6926 0.0267651C8.44464 0.00640926 8.19847 0.0831107 8.00595 0.240705L0.551953 6.80004C0.381703 6.95018 0.24535 7.13484 0.151953 7.34174C0.0585566 7.54863 0.0102539 7.77304 0.0102539 8.00004C0.0102539 8.22704 0.0585566 8.45144 0.151953 8.65834C0.24535 8.86524 0.381703 9.04989 0.551953 9.20004L8.00462 15.758C8.19729 15.9137 8.44264 15.9888 8.68941 15.9677C8.93617 15.9467 9.16526 15.8311 9.32879 15.6451C9.49232 15.4591 9.57765 15.2171 9.56693 14.9697C9.55621 14.7222 9.45029 14.4885 9.27129 14.3174L3.51329 9.2507C3.48814 9.2282 3.47039 9.19861 3.46237 9.16584C3.45434 9.13306 3.45641 9.09862 3.46831 9.06704C3.4802 9.03546 3.50137 9.00822 3.52903 8.98888C3.55668 8.96955 3.58954 8.95903 3.62329 8.9587H15.032C15.2821 8.95211 15.5198 8.84811 15.6944 8.66886C15.869 8.4896 15.9667 8.24926 15.9667 7.99904C15.9667 7.74881 15.869 7.50847 15.6944 7.32922C15.5198 7.14996 15.2821 7.04596 15.032 7.03937V7.0407Z" fill="#484848"/>
</svg>
