<svg width="15" height="15" viewBox="0 0 15 15" fill="none" xmlns="http://www.w3.org/2000/svg">
<circle cx="7.5" cy="7.5" r="7.5" fill="#B5D1FD" fill-opacity="0.5"/>
<path d="M11.1 9.79167C10.9409 9.79167 10.7883 9.72582 10.6757 9.60861C10.5632 9.4914 10.5 9.33243 10.5 9.16667V7.14083C10.5231 6.34962 10.2737 5.57591 9.79681 4.95958C9.31995 4.34326 8.64713 3.925 7.9 3.78042V2.91667C7.9 2.80616 7.85786 2.70018 7.78284 2.62204C7.70783 2.5439 7.60609 2.5 7.5 2.5C7.39391 2.5 7.29217 2.5439 7.21716 2.62204C7.14214 2.70018 7.1 2.80616 7.1 2.91667V3.78042C6.35287 3.925 5.68005 4.34326 5.20319 4.95958C4.72633 5.57591 4.4769 6.34962 4.5 7.14083V9.16667C4.5 9.33243 4.43679 9.4914 4.32426 9.60861C4.21174 9.72582 4.05913 9.79167 3.9 9.79167C3.79391 9.79167 3.69217 9.83557 3.61716 9.9137C3.54214 9.99185 3.5 10.0978 3.5 10.2083C3.5 10.3188 3.54214 10.4248 3.61716 10.503C3.69217 10.5811 3.79391 10.625 3.9 10.625H11.1C11.2061 10.625 11.3078 10.5811 11.3828 10.503C11.4579 10.4248 11.5 10.3188 11.5 10.2083C11.5 10.0978 11.4579 9.99185 11.3828 9.9137C11.3078 9.83557 11.2061 9.79167 11.1 9.79167ZM8.3944 11.25H6.6056C6.58105 11.25 6.55737 11.2595 6.53907 11.2766C6.52078 11.2936 6.50915 11.3171 6.5064 11.3425C6.50204 11.3809 6.4999 11.4196 6.5 11.4583C6.5 11.7346 6.60536 11.9996 6.79289 12.1949C6.98043 12.3903 7.23478 12.5 7.5 12.5C7.76522 12.5 8.01957 12.3903 8.20711 12.1949C8.39464 11.9996 8.5 11.7346 8.5 11.4583C8.5001 11.4196 8.49796 11.3809 8.4936 11.3425C8.49102 11.317 8.47944 11.2934 8.46111 11.2763C8.44278 11.2592 8.419 11.2499 8.3944 11.25Z" fill="#76A4F7"/>
</svg>
