<svg width="20" height="20" viewBox="0 0 20 20" fill="none" xmlns="http://www.w3.org/2000/svg">
<path fill-rule="evenodd" clip-rule="evenodd" d="M20 10C20 15.5228 15.5228 20 10 20C4.47715 20 0 15.5228 0 10C0 4.47715 4.47715 0 10 0C15.5228 0 20 4.47715 20 10ZM16.5586 6.9733C16.5406 6.96624 16.521 6.96441 16.502 6.96803C16.4831 6.97165 16.4655 6.98057 16.4514 6.99376L10.5765 12.1497C10.2758 12.4181 9.88809 12.5685 9.48507 12.573C9.30358 12.5778 9.12329 12.5423 8.95715 12.4691C8.79101 12.3959 8.64314 12.2868 8.52415 12.1497L4.1993 6.99094C4.18687 6.97721 4.17037 6.96781 4.15222 6.96413C4.13407 6.96045 4.11521 6.96268 4.09841 6.97048C4.08028 6.9782 4.06435 6.9903 4.05204 7.00569C4.03972 7.02108 4.03142 7.03928 4.02786 7.05867L3.01897 13.4084C2.99147 13.5386 2.9939 13.6735 3.02608 13.8027C3.05825 13.9319 3.11934 14.0521 3.20473 14.1543C3.29011 14.2564 3.39758 14.3379 3.51902 14.3925C3.64046 14.4471 3.77271 14.4734 3.90581 14.4695H14.4653C14.7585 14.4602 15.0394 14.3497 15.2604 14.1568C15.4813 13.9639 15.6287 13.7004 15.6774 13.4112L16.6052 7.06149C16.6083 7.04371 16.6055 7.02537 16.597 7.0094C16.5886 6.99342 16.5751 6.98072 16.5586 6.9733ZM9.38317 11.7327C9.30313 11.6993 9.23049 11.6505 9.16943 11.5889L4.86998 6.46401C4.84101 6.42567 4.82368 6.37982 4.82005 6.3319C4.81642 6.28399 4.82665 6.23605 4.84952 6.19379C4.8892 6.12724 4.94748 6.07375 5.01718 6.0399C5.08688 6.00606 5.16495 5.99333 5.24179 6.0033H15.7061C15.7095 6.0033 15.7134 6.00327 15.7176 6.00323C15.797 6.00257 16.005 6.00083 16.0405 6.19379C16.0481 6.24363 16.0429 6.29459 16.0254 6.34186C16.0078 6.38914 15.9786 6.43117 15.9403 6.46401L10.1021 11.5889C10.0411 11.6505 9.96842 11.6993 9.88837 11.7327C9.80833 11.766 9.72248 11.7832 9.63577 11.7832C9.54907 11.7832 9.46321 11.766 9.38317 11.7327Z" fill="#5ABAFF"/>
</svg>
