<svg width="14" height="14" viewBox="0 0 14 14" fill="none" xmlns="http://www.w3.org/2000/svg">
<path d="M6.99927 0C5.6148 0 4.26142 0.410543 3.11028 1.17971C1.95913 1.94888 1.06193 3.04213 0.532114 4.32122C0.00230058 5.6003 -0.136323 7.00776 0.133774 8.36563C0.40387 9.7235 1.07056 10.9708 2.04952 11.9497C3.02849 12.9287 4.27577 13.5954 5.63364 13.8655C6.99151 14.1356 8.39897 13.997 9.67806 13.4672C10.9571 12.9373 12.0504 12.0401 12.8196 10.889C13.5887 9.73785 13.9993 8.38447 13.9993 7C13.9973 5.1441 13.2591 3.36479 11.9468 2.05247C10.6345 0.74015 8.85517 0.0020073 6.99927 0V0ZM6.99927 11.0833C6.82621 11.0833 6.65704 11.032 6.51315 10.9359C6.36925 10.8397 6.2571 10.7031 6.19088 10.5432C6.12465 10.3833 6.10732 10.2074 6.14108 10.0376C6.17485 9.8679 6.25818 9.71199 6.38055 9.58961C6.50292 9.46724 6.65883 9.38391 6.82857 9.35015C6.9983 9.31638 7.17423 9.33371 7.33412 9.39994C7.494 9.46617 7.63066 9.57832 7.72681 9.72221C7.82295 9.8661 7.87427 10.0353 7.87427 10.2083C7.87427 10.4404 7.78208 10.663 7.61799 10.8271C7.4539 10.9911 7.23134 11.0833 6.99927 11.0833ZM7.9326 7.53667C7.82853 7.58209 7.73998 7.65689 7.67781 7.75191C7.61564 7.84693 7.58255 7.95803 7.5826 8.07158C7.5826 8.22629 7.52115 8.37467 7.41175 8.48406C7.30235 8.59346 7.15398 8.65492 6.99927 8.65492C6.84456 8.65492 6.69619 8.59346 6.58679 8.48406C6.4774 8.37467 6.41594 8.22629 6.41594 8.07158C6.41589 7.73103 6.5152 7.39786 6.70171 7.11291C6.88822 6.82797 7.15381 6.60364 7.46594 6.46742C7.65874 6.38327 7.8252 6.24856 7.94771 6.07755C8.07021 5.90653 8.1442 5.70558 8.16183 5.49595C8.17947 5.28633 8.1401 5.07584 8.04789 4.88676C7.95568 4.69768 7.81406 4.53706 7.63803 4.42188C7.462 4.30671 7.2581 4.24127 7.04792 4.2325C6.83774 4.22373 6.62909 4.27195 6.44408 4.37205C6.25906 4.47216 6.10455 4.62043 5.99691 4.80117C5.88927 4.98191 5.8325 5.18839 5.8326 5.39875C5.8326 5.55346 5.77115 5.70183 5.66175 5.81123C5.55235 5.92062 5.40398 5.98208 5.24927 5.98208C5.09456 5.98208 4.94619 5.92062 4.83679 5.81123C4.7274 5.70183 4.66594 5.55346 4.66594 5.39875C4.66593 4.97807 4.77965 4.56522 4.99507 4.20388C5.21049 3.84254 5.51959 3.54616 5.88965 3.34611C6.25972 3.14605 6.67699 3.04977 7.09729 3.06744C7.5176 3.08511 7.92531 3.21609 8.27728 3.4465C8.62924 3.67691 8.91237 3.99819 9.0967 4.37634C9.28102 4.75448 9.35969 5.17543 9.32437 5.59462C9.28905 6.01381 9.14106 6.41566 8.89606 6.75763C8.65106 7.0996 8.31816 7.36898 7.9326 7.53725V7.53667Z" fill="#5ABAFF"/>
</svg>
