<svg width="15" height="15" viewBox="0 0 15 15" fill="none" xmlns="http://www.w3.org/2000/svg">
<circle cx="7.5" cy="7.5" r="7.5" fill="#B5D1FD" fill-opacity="0.5"/>
<path d="M7.50065 12.5C8.48955 12.4999 9.45621 12.2065 10.2784 11.657C11.1006 11.1075 11.7413 10.3265 12.1196 9.41282C12.498 8.49914 12.5968 7.49379 12.4038 6.52392C12.2107 5.55404 11.7344 4.66318 11.0351 3.96401C10.3357 3.26484 9.44475 2.78875 8.47482 2.59595C7.50489 2.40315 6.49957 2.5023 5.58598 2.88085C4.6724 3.25941 3.89159 3.90037 3.34229 4.72269C2.79299 5.54501 2.49987 6.51174 2.5 7.50065C2.50154 8.82631 3.02893 10.0972 3.96644 11.0345C4.90394 11.9717 6.17498 12.4988 7.50065 12.5ZM6.65966 9.87547C6.64921 9.85083 6.64501 9.824 6.64744 9.79735C6.64986 9.7707 6.65884 9.74506 6.67356 9.72272C6.68829 9.70038 6.70831 9.68202 6.73184 9.66928C6.75537 9.65654 6.78169 9.64981 6.80845 9.6497H8.19284C8.2196 9.64981 8.24592 9.65654 8.26945 9.66928C8.29298 9.68202 8.313 9.70038 8.32773 9.72272C8.34245 9.74506 8.35143 9.7707 8.35385 9.79735C8.35628 9.824 8.35208 9.85083 8.34163 9.87547C8.16384 10.2987 7.92114 10.6915 7.62227 11.0399C7.60714 11.0573 7.58846 11.0713 7.56748 11.0809C7.5465 11.0904 7.52371 11.0954 7.50065 11.0954C7.47759 11.0954 7.45479 11.0904 7.43381 11.0809C7.41283 11.0713 7.39415 11.0573 7.37903 11.0399C7.07995 10.6917 6.83722 10.2988 6.65966 9.87547ZM3.6321 7.50065C3.63285 7.19939 3.66933 6.89928 3.74078 6.60661C3.74934 6.57138 3.76949 6.54004 3.798 6.51763C3.82651 6.49522 3.86172 6.48304 3.89798 6.48305H4.93304C4.95603 6.48305 4.97876 6.48794 4.99971 6.49741C5.02066 6.50689 5.03934 6.52071 5.05453 6.53798C5.06971 6.55524 5.08104 6.57554 5.08775 6.59753C5.09447 6.61952 5.09642 6.64268 5.09348 6.66548C5.05584 6.94232 5.03574 7.22127 5.03332 7.50065C5.03595 7.78004 5.05626 8.05899 5.09413 8.33581C5.09759 8.35891 5.0959 8.38248 5.08919 8.40485C5.08248 8.42721 5.07091 8.44782 5.05531 8.4652C5.04012 8.48249 5.02141 8.49634 5.00044 8.50582C4.97946 8.5153 4.95671 8.5202 4.93369 8.52018H3.89863C3.86237 8.52019 3.82715 8.50802 3.79865 8.48561C3.77014 8.4632 3.74999 8.43186 3.74143 8.39662C3.66956 8.10336 3.63286 7.80259 3.6321 7.50065ZM6.16606 7.50065C6.16763 7.20553 6.19185 6.91096 6.23852 6.61955C6.2444 6.58144 6.26376 6.5467 6.29309 6.52166C6.32241 6.49661 6.35974 6.48291 6.3983 6.48305H8.6004C8.63896 6.48291 8.6763 6.49661 8.70562 6.52166C8.73494 6.5467 8.7543 6.58144 8.76019 6.61955C8.80665 6.91098 8.83066 7.20554 8.832 7.50065C8.83064 7.79554 8.80664 8.08989 8.76019 8.3811C8.7543 8.41921 8.73494 8.45395 8.70562 8.47899C8.6763 8.50404 8.63896 8.51774 8.6004 8.5176H6.40089C6.36233 8.51774 6.32499 8.50404 6.29567 8.47899C6.26635 8.45395 6.24699 8.41921 6.2411 8.3811C6.1936 8.08997 6.16851 7.79562 6.16606 7.50065ZM7.37903 3.95879C7.39424 3.94153 7.41296 3.92771 7.43393 3.91823C7.45489 3.90875 7.47764 3.90383 7.50065 3.90381C7.52373 3.90374 7.54656 3.90868 7.56756 3.91829C7.58855 3.92789 7.60722 3.94193 7.62227 3.95944C7.92134 4.30768 8.16407 4.70058 8.34163 5.12389C8.35208 5.14852 8.35628 5.17536 8.35385 5.20201C8.35143 5.22866 8.34245 5.25429 8.32773 5.27664C8.313 5.29898 8.29298 5.31734 8.26945 5.33008C8.24592 5.34282 8.2196 5.34954 8.19284 5.34966H6.80845C6.78169 5.34954 6.75537 5.34282 6.73184 5.33008C6.70831 5.31734 6.68829 5.29898 6.67356 5.27664C6.65884 5.25429 6.64986 5.22866 6.64744 5.20201C6.64501 5.17536 6.64921 5.14852 6.65966 5.12389C6.83739 4.70047 7.0801 4.30738 7.37903 3.95879ZM11.3685 7.50065C11.368 7.80167 11.3317 8.10156 11.2605 8.39404C11.252 8.42927 11.2318 8.46061 11.2033 8.48302C11.1748 8.50543 11.1396 8.51761 11.1033 8.5176H10.0682C10.0453 8.51768 10.0225 8.51287 10.0016 8.50348C9.98058 8.49408 9.96184 8.48033 9.9466 8.46313C9.93136 8.44593 9.91996 8.42568 9.91316 8.40372C9.90636 8.38177 9.90432 8.35862 9.90717 8.33581C9.94458 8.05917 9.96446 7.78044 9.96668 7.50129C9.96448 7.22193 9.9446 6.94298 9.90717 6.66613C9.90371 6.64303 9.90539 6.61946 9.9121 6.5971C9.91881 6.57473 9.93038 6.55412 9.94598 6.53675C9.96117 6.51945 9.97988 6.5056 10.0009 6.49612C10.0218 6.48664 10.0446 6.48174 10.0676 6.48176H11.1027C11.1389 6.48175 11.1741 6.49393 11.2026 6.51633C11.2312 6.53874 11.2513 6.57008 11.2599 6.60532C11.3314 6.89841 11.3679 7.19895 11.3685 7.50065ZM9.46015 10.8335C9.43005 10.8511 9.3951 10.8585 9.36046 10.8547C9.32583 10.8509 9.29334 10.836 9.26781 10.8123C9.24228 10.7885 9.22505 10.7572 9.21868 10.723C9.21231 10.6887 9.21714 10.6533 9.23244 10.622C9.37084 10.3435 9.48931 10.0556 9.58694 9.76032C9.59767 9.72813 9.61824 9.70012 9.64576 9.68027C9.67327 9.66042 9.70633 9.64972 9.74026 9.6497H10.3956C10.4263 9.64912 10.4565 9.6573 10.4828 9.67328C10.509 9.68926 10.5301 9.71238 10.5437 9.73993C10.5573 9.76748 10.5627 9.79832 10.5594 9.82886C10.5561 9.85939 10.5441 9.88835 10.525 9.91234C10.2289 10.2815 9.8681 10.5937 9.46015 10.8335ZM10.5211 5.08766C10.5405 5.11164 10.5526 5.14067 10.556 5.1713C10.5594 5.20194 10.554 5.23292 10.5404 5.26059C10.5268 5.28826 10.5056 5.31147 10.4792 5.32747C10.4529 5.34348 10.4225 5.35163 10.3917 5.35095H9.74026C9.70623 5.35098 9.67306 5.34023 9.64552 5.32024C9.61797 5.30025 9.59747 5.27205 9.58694 5.23968C9.4892 4.94468 9.37073 4.65695 9.23244 4.37864C9.21714 4.34733 9.21231 4.31193 9.21868 4.27767C9.22505 4.24341 9.24228 4.21211 9.26781 4.18839C9.29334 4.16467 9.32583 4.14979 9.36046 4.14596C9.3951 4.14213 9.43005 4.14954 9.46015 4.1671C9.86657 4.40724 10.226 4.71915 10.5211 5.08766ZM5.53985 4.1671C5.56991 4.14929 5.60492 4.14169 5.63966 4.14544C5.67439 4.14919 5.70698 4.16408 5.73255 4.1879C5.75811 4.21171 5.77527 4.24317 5.78147 4.27755C5.78766 4.31193 5.78256 4.3474 5.76692 4.37864C5.62911 4.65709 5.51086 4.9448 5.41305 5.23968C5.40253 5.27205 5.38203 5.30025 5.35448 5.32024C5.32694 5.34023 5.29377 5.35098 5.25974 5.35095H4.60635C4.57581 5.35101 4.54587 5.34241 4.52 5.32615C4.49414 5.3099 4.47341 5.28665 4.46021 5.2591C4.44701 5.23156 4.44188 5.20083 4.44542 5.17049C4.44896 5.14015 4.46102 5.11143 4.4802 5.08766C4.77509 4.719 5.13459 4.40707 5.54114 4.1671H5.53985ZM4.47956 9.91234C4.46039 9.88835 4.44845 9.85939 4.44513 9.82886C4.44181 9.79832 4.44726 9.76748 4.46083 9.73993C4.4744 9.71238 4.49554 9.68926 4.52177 9.67328C4.548 9.6573 4.57823 9.64912 4.60894 9.6497H5.26103C5.29506 9.64967 5.32823 9.66042 5.35577 9.68041C5.38332 9.7004 5.40382 9.7286 5.41435 9.76097C5.51209 10.056 5.63056 10.3437 5.76886 10.622C5.78416 10.6533 5.78898 10.6887 5.78261 10.723C5.77624 10.7572 5.75901 10.7885 5.73348 10.8123C5.70795 10.836 5.67547 10.8509 5.64083 10.8547C5.60619 10.8585 5.57124 10.8511 5.54114 10.8335C5.13435 10.5934 4.77463 10.2812 4.47956 9.91234Z" fill="#76A4F7"/>
</svg>
