<svg width="15" height="15" viewBox="0 0 15 15" fill="none" xmlns="http://www.w3.org/2000/svg">
<circle cx="7.5" cy="7.5" r="7.5" fill="#B5D1FD" fill-opacity="0.5"/>
<g clip-path="url(#clip0_14439_113563)">
<path d="M12.5 4.60417C12.5 4.38315 12.4122 4.17119 12.2559 4.01491C12.0996 3.85863 11.8877 3.77083 11.6667 3.77083H9.16667C9.11141 3.77083 9.05842 3.79278 9.01935 3.83185C8.98028 3.87092 8.95833 3.92391 8.95833 3.97917V4.60417C8.95833 4.65942 8.93638 4.71241 8.89731 4.75148C8.85824 4.79055 8.80525 4.8125 8.75 4.8125C8.69475 4.8125 8.64176 4.79055 8.60269 4.75148C8.56362 4.71241 8.54167 4.65942 8.54167 4.60417V3.5625C8.54167 3.23098 8.40997 2.91304 8.17555 2.67862C7.94113 2.4442 7.62319 2.3125 7.29167 2.3125C6.96015 2.3125 6.6422 2.4442 6.40778 2.67862C6.17336 2.91304 6.04167 3.23098 6.04167 3.5625V4.60417C6.04167 4.65942 6.01972 4.71241 5.98065 4.75148C5.94158 4.79055 5.88859 4.8125 5.83333 4.8125C5.77808 4.8125 5.72509 4.79055 5.68602 4.75148C5.64695 4.71241 5.625 4.65942 5.625 4.60417V3.97917C5.625 3.92391 5.60305 3.87092 5.56398 3.83185C5.52491 3.79278 5.47192 3.77083 5.41667 3.77083H3.33333C3.11232 3.77083 2.90036 3.85863 2.74408 4.01491C2.5878 4.17119 2.5 4.38315 2.5 4.60417V10.8542C2.5 11.0752 2.5878 11.2871 2.74408 11.4434C2.90036 11.5997 3.11232 11.6875 3.33333 11.6875H11.6667C11.8877 11.6875 12.0996 11.5997 12.2559 11.4434C12.4122 11.2871 12.5 11.0752 12.5 10.8542V4.60417ZM6.875 3.45833C6.875 3.37592 6.89944 3.29537 6.94522 3.22685C6.991 3.15833 7.05608 3.10492 7.13222 3.07338C7.20835 3.04185 7.29213 3.0336 7.37295 3.04967C7.45378 3.06575 7.52802 3.10543 7.58629 3.16371C7.64457 3.22198 7.68425 3.29622 7.70033 3.37705C7.7164 3.45787 7.70815 3.54165 7.67662 3.61778C7.64508 3.69392 7.59167 3.759 7.52315 3.80478C7.45463 3.85056 7.37408 3.875 7.29167 3.875C7.18116 3.875 7.07518 3.8311 6.99704 3.75296C6.9189 3.67482 6.875 3.56884 6.875 3.45833ZM3.54167 10.8542C3.48641 10.8542 3.43342 10.8322 3.39435 10.7931C3.35528 10.7541 3.33333 10.7011 3.33333 10.6458V6.27083C3.33333 6.21558 3.35528 6.16259 3.39435 6.12352C3.43342 6.08445 3.48641 6.0625 3.54167 6.0625H11.4583C11.5136 6.0625 11.5666 6.08445 11.6056 6.12352C11.6447 6.16259 11.6667 6.21558 11.6667 6.27083V10.6458C11.6667 10.7011 11.6447 10.7541 11.6056 10.7931C11.5666 10.8322 11.5136 10.8542 11.4583 10.8542H3.54167Z" fill="#76A4F7"/>
<path d="M10.5212 7.625H8.54199C8.45911 7.625 8.37963 7.65792 8.32102 7.71653C8.26242 7.77513 8.22949 7.85462 8.22949 7.9375C8.22949 8.02038 8.26242 8.09987 8.32102 8.15847C8.37963 8.21708 8.45911 8.25 8.54199 8.25H10.5212C10.604 8.25 10.6835 8.21708 10.7421 8.15847C10.8007 8.09987 10.8337 8.02038 10.8337 7.9375C10.8337 7.85462 10.8007 7.77513 10.7421 7.71653C10.6835 7.65792 10.604 7.625 10.5212 7.625ZM10.0003 8.875H8.54199C8.45911 8.875 8.37963 8.90792 8.32102 8.96653C8.26242 9.02513 8.22949 9.10462 8.22949 9.1875C8.22949 9.27038 8.26242 9.34987 8.32102 9.40847C8.37963 9.46708 8.45911 9.5 8.54199 9.5H10.0003C10.0832 9.5 10.1627 9.46708 10.2213 9.40847C10.2799 9.34987 10.3128 9.27038 10.3128 9.1875C10.3128 9.10462 10.2799 9.02513 10.2213 8.96653C10.1627 8.90792 10.0832 8.875 10.0003 8.875Z" fill="#76A4F7"/>
<path d="M5.83138 8.56242C6.29162 8.56242 6.66471 8.18932 6.66471 7.72909C6.66471 7.26885 6.29162 6.89575 5.83138 6.89575C5.37114 6.89575 4.99805 7.26885 4.99805 7.72909C4.99805 8.18932 5.37114 8.56242 5.83138 8.56242Z" fill="#76A4F7"/>
<path d="M5.83299 8.97925C5.53367 8.98452 5.24277 9.07924 4.99773 9.25122C4.75269 9.42319 4.56471 9.66455 4.45799 9.94425C4.4454 9.97604 4.44083 10.0105 4.44469 10.0444C4.44855 10.0784 4.46071 10.1109 4.48011 10.1391C4.4995 10.1672 4.52553 10.1902 4.5559 10.2059C4.58627 10.2217 4.62004 10.2297 4.65424 10.2292H7.00799C7.04218 10.2297 7.07595 10.2217 7.10632 10.2059C7.13669 10.1902 7.16272 10.1672 7.18212 10.1391C7.20151 10.1109 7.21367 10.0784 7.21753 10.0444C7.22139 10.0105 7.21682 9.97604 7.20424 9.94425C7.09775 9.66514 6.91034 9.42418 6.66604 9.25225C6.42174 9.08033 6.13166 8.98527 5.83299 8.97925Z" fill="#76A4F7"/>
</g>
<defs>
<clipPath id="clip0_14439_113563">
<rect width="10" height="10" fill="white" transform="translate(2.5 2)"/>
</clipPath>
</defs>
</svg>
