<svg width="17" height="17" viewBox="0 0 17 17" fill="none" xmlns="http://www.w3.org/2000/svg">
<path d="M5.91674 11.8169H1.98335C1.72255 11.8169 1.47243 11.7133 1.28802 11.5289C1.1036 11.3445 1 11.0943 1 10.8335V2.96675C1 2.70595 1.1036 2.45583 1.28802 2.27141C1.47243 2.087 1.72255 1.9834 1.98335 1.9834H10.8335C11.0943 1.9834 11.3444 2.087 11.5288 2.27141C11.7132 2.45583 11.8168 2.70595 11.8168 2.96675V5.91679" stroke="#717171" stroke-width="1.2" stroke-linecap="round" stroke-linejoin="round"/>
<path d="M1 4.93335H11.8168" stroke="#717171" stroke-width="1.2" stroke-linecap="round" stroke-linejoin="round"/>
<path d="M3.94946 2.9667V1" stroke="#717171" stroke-width="1.2" stroke-linecap="round" stroke-linejoin="round"/>
<path d="M8.86719 2.9667V1" stroke="#717171" stroke-width="1.2" stroke-linecap="round" stroke-linejoin="round"/>
<path d="M11.8165 15.7502C13.9888 15.7502 15.7498 13.9892 15.7498 11.8168C15.7498 9.64446 13.9888 7.88342 11.8165 7.88342C9.6441 7.88342 7.88306 9.64446 7.88306 11.8168C7.88306 13.9892 9.6441 15.7502 11.8165 15.7502Z" stroke="#717171" stroke-width="1.2" stroke-linecap="round" stroke-linejoin="round"/>
<path d="M13.5552 11.8169H11.8167V10.079" stroke="#717171" stroke-width="1.2" stroke-linecap="round" stroke-linejoin="round"/>
</svg>
