<svg width="20" height="20" viewBox="0 0 20 20" fill="none" xmlns="http://www.w3.org/2000/svg">
<path d="M7.26085 8.99997H6.65215C6.49072 8.99997 6.33589 9.0641 6.22174 9.17825C6.10759 9.2924 6.04346 9.44723 6.04346 9.60867C6.04346 9.7701 6.10759 9.92493 6.22174 10.0391C6.33589 10.1532 6.49072 10.2174 6.65215 10.2174H7.26085C7.42228 10.2174 7.57711 10.1532 7.69126 10.0391C7.80541 9.92493 7.86954 9.7701 7.86954 9.60867C7.86954 9.44723 7.80541 9.2924 7.69126 9.17825C7.57711 9.0641 7.42228 8.99997 7.26085 8.99997ZM10.3043 8.99997H9.69563C9.53419 8.99997 9.37937 9.0641 9.26522 9.17825C9.15107 9.2924 9.08693 9.44723 9.08693 9.60867C9.08693 9.7701 9.15107 9.92493 9.26522 10.0391C9.37937 10.1532 9.53419 10.2174 9.69563 10.2174H10.3043C10.4658 10.2174 10.6206 10.1532 10.7347 10.0391C10.8489 9.92493 10.913 9.7701 10.913 9.60867C10.913 9.44723 10.8489 9.2924 10.7347 9.17825C10.6206 9.0641 10.4658 8.99997 10.3043 8.99997ZM13.3478 8.99997H12.7391C12.5777 8.99997 12.4228 9.0641 12.3087 9.17825C12.1945 9.2924 12.1304 9.44723 12.1304 9.60867C12.1304 9.7701 12.1945 9.92493 12.3087 10.0391C12.4228 10.1532 12.5777 10.2174 12.7391 10.2174H13.3478C13.5092 10.2174 13.6641 10.1532 13.7782 10.0391C13.8924 9.92493 13.9565 9.7701 13.9565 9.60867C13.9565 9.44723 13.8924 9.2924 13.7782 9.17825C13.6641 9.0641 13.5092 8.99997 13.3478 8.99997ZM7.26085 11.4348H6.65215C6.49072 11.4348 6.33589 11.4989 6.22174 11.613C6.10759 11.7272 6.04346 11.882 6.04346 12.0434C6.04346 12.2049 6.10759 12.3597 6.22174 12.4739C6.33589 12.588 6.49072 12.6521 6.65215 12.6521H7.26085C7.42228 12.6521 7.57711 12.588 7.69126 12.4739C7.80541 12.3597 7.86954 12.2049 7.86954 12.0434C7.86954 11.882 7.80541 11.7272 7.69126 11.613C7.57711 11.4989 7.42228 11.4348 7.26085 11.4348ZM10.3043 11.4348H9.69563C9.53419 11.4348 9.37937 11.4989 9.26522 11.613C9.15107 11.7272 9.08693 11.882 9.08693 12.0434C9.08693 12.2049 9.15107 12.3597 9.26522 12.4739C9.37937 12.588 9.53419 12.6521 9.69563 12.6521H10.3043C10.4658 12.6521 10.6206 12.588 10.7347 12.4739C10.8489 12.3597 10.913 12.2049 10.913 12.0434C10.913 11.882 10.8489 11.7272 10.7347 11.613C10.6206 11.4989 10.4658 11.4348 10.3043 11.4348ZM13.3478 11.4348H12.7391C12.5777 11.4348 12.4228 11.4989 12.3087 11.613C12.1945 11.7272 12.1304 11.882 12.1304 12.0434C12.1304 12.2049 12.1945 12.3597 12.3087 12.4739C12.4228 12.588 12.5777 12.6521 12.7391 12.6521H13.3478C13.5092 12.6521 13.6641 12.588 13.7782 12.4739C13.8924 12.3597 13.9565 12.2049 13.9565 12.0434C13.9565 11.882 13.8924 11.7272 13.7782 11.613C13.6641 11.4989 13.5092 11.4348 13.3478 11.4348ZM7.26085 13.8695H6.65215C6.49072 13.8695 6.33589 13.9337 6.22174 14.0478C6.10759 14.162 6.04346 14.3168 6.04346 14.4782C6.04346 14.6397 6.10759 14.7945 6.22174 14.9086C6.33589 15.0228 6.49072 15.0869 6.65215 15.0869H7.26085C7.42228 15.0869 7.57711 15.0228 7.69126 14.9086C7.80541 14.7945 7.86954 14.6397 7.86954 14.4782C7.86954 14.3168 7.80541 14.162 7.69126 14.0478C7.57711 13.9337 7.42228 13.8695 7.26085 13.8695ZM10.3043 13.8695H9.69563C9.53419 13.8695 9.37937 13.9337 9.26522 14.0478C9.15107 14.162 9.08693 14.3168 9.08693 14.4782C9.08693 14.6397 9.15107 14.7945 9.26522 14.9086C9.37937 15.0228 9.53419 15.0869 9.69563 15.0869H10.3043C10.4658 15.0869 10.6206 15.0228 10.7347 14.9086C10.8489 14.7945 10.913 14.6397 10.913 14.4782C10.913 14.3168 10.8489 14.162 10.7347 14.0478C10.6206 13.9337 10.4658 13.8695 10.3043 13.8695ZM13.3478 13.8695H12.7391C12.5777 13.8695 12.4228 13.9337 12.3087 14.0478C12.1945 14.162 12.1304 14.3168 12.1304 14.4782C12.1304 14.6397 12.1945 14.7945 12.3087 14.9086C12.4228 15.0228 12.5777 15.0869 12.7391 15.0869H13.3478C13.5092 15.0869 13.6641 15.0228 13.7782 14.9086C13.8924 14.7945 13.9565 14.6397 13.9565 14.4782C13.9565 14.3168 13.8924 14.162 13.7782 14.0478C13.6641 13.9337 13.5092 13.8695 13.3478 13.8695Z" fill="#717171"/>
<path d="M15.7826 4.43476H14.1087C14.0683 4.43476 14.0296 4.41873 14.0011 4.39019C13.9726 4.36165 13.9565 4.32295 13.9565 4.28259V3.21737C13.9565 3.05593 13.8924 2.90111 13.7782 2.78696C13.6641 2.6728 13.5093 2.60867 13.3478 2.60867C13.1864 2.60867 13.0316 2.6728 12.9174 2.78696C12.8033 2.90111 12.7391 3.05593 12.7391 3.21737V6.10867C12.7391 6.22975 12.691 6.34587 12.6054 6.43148C12.5198 6.5171 12.4037 6.56519 12.2826 6.56519C12.1615 6.56519 12.0454 6.5171 11.9598 6.43148C11.8742 6.34587 11.8261 6.22975 11.8261 6.10867V4.73911C11.8261 4.65839 11.794 4.58098 11.7369 4.5239C11.6799 4.46683 11.6025 4.43476 11.5217 4.43476H7.71739C7.67714 4.43476 7.63852 4.41881 7.61 4.3904C7.58148 4.362 7.56538 4.32345 7.56522 4.28319V3.21737C7.56522 3.05593 7.50109 2.90111 7.38693 2.78696C7.27278 2.6728 7.11796 2.60867 6.95652 2.60867C6.79509 2.60867 6.64026 2.6728 6.52611 2.78696C6.41196 2.90111 6.34783 3.05593 6.34783 3.21737V6.10867C6.34783 6.22975 6.29973 6.34587 6.21411 6.43148C6.1285 6.5171 6.01238 6.56519 5.8913 6.56519C5.77023 6.56519 5.65411 6.5171 5.56849 6.43148C5.48288 6.34587 5.43478 6.22975 5.43478 6.10867V4.73911C5.43478 4.65839 5.40272 4.58098 5.34564 4.5239C5.28856 4.46683 5.21115 4.43476 5.13043 4.43476H4.21739C3.89452 4.43476 3.58487 4.56302 3.35657 4.79133C3.12826 5.01963 3 5.32928 3 5.65215V16C3 16.3228 3.12826 16.6325 3.35657 16.8608C3.58487 17.0891 3.89452 17.2174 4.21739 17.2174H15.7826C16.1055 17.2174 16.4151 17.0891 16.6434 16.8608C16.8717 16.6325 17 16.3228 17 16V5.65215C17 5.32928 16.8717 5.01963 16.6434 4.79133C16.4151 4.56302 16.1055 4.43476 15.7826 4.43476ZM15.7826 15.6956C15.7826 15.7763 15.7505 15.8538 15.6935 15.9108C15.6364 15.9679 15.559 16 15.4783 16H4.52174C4.44102 16 4.36361 15.9679 4.30653 15.9108C4.24946 15.8538 4.21739 15.7763 4.21739 15.6956V8.39128C4.21739 8.31056 4.24946 8.23315 4.30653 8.17607C4.36361 8.119 4.44102 8.08693 4.52174 8.08693H15.4783C15.559 8.08693 15.6364 8.119 15.6935 8.17607C15.7505 8.23315 15.7826 8.31056 15.7826 8.39128V15.6956Z" fill="#717171"/>
</svg>
