<svg width="38" height="38" viewBox="0 0 38 38" fill="none" xmlns="http://www.w3.org/2000/svg">
<circle opacity="0.2" cx="19" cy="19" r="19" fill="#FFB169"/>
<g clip-path="url(#clip0_13869_118534)">
<path d="M12.1248 14.8751C12.2873 14.8745 12.4468 14.8312 12.5874 14.7496C12.728 14.6681 12.8447 14.5511 12.926 14.4104C13.3696 13.6042 14.0313 12.9392 14.8354 12.4918C14.9405 12.4332 15.0331 12.3544 15.1078 12.26C15.1825 12.1656 15.2379 12.0574 15.2708 11.9416C15.3037 11.8258 15.3135 11.7046 15.2996 11.5851C15.2857 11.4655 15.2483 11.3498 15.1897 11.2447C15.1311 11.1395 15.0523 11.0469 14.9579 10.9722C14.8635 10.8975 14.7553 10.8421 14.6395 10.8092C14.5237 10.7763 14.4025 10.7666 14.283 10.7805C14.1634 10.7944 14.0477 10.8317 13.9426 10.8904C12.8421 11.5025 11.9351 12.4107 11.3246 13.512C11.2656 13.6171 11.228 13.7328 11.2138 13.8524C11.1996 13.972 11.2091 14.0933 11.2418 14.2093C11.2745 14.3252 11.3297 14.4336 11.4043 14.5282C11.4789 14.6228 11.5714 14.7017 11.6766 14.7605C11.8136 14.8369 11.968 14.8763 12.1248 14.8751ZM13.8958 8.65279C13.8255 8.42017 13.6657 8.225 13.4515 8.11017C13.2373 7.99535 12.9863 7.97027 12.7536 8.04045C11.6325 8.36184 10.6115 8.9632 9.78671 9.78794C8.96198 10.6127 8.36062 11.6337 8.03923 12.7549C8.00094 12.871 7.98629 12.9937 7.99614 13.1156C8.00599 13.2375 8.04013 13.3562 8.09657 13.4648C8.15301 13.5733 8.23059 13.6694 8.32475 13.7475C8.41891 13.8255 8.52774 13.884 8.64483 13.9193C8.76192 13.9547 8.88491 13.9663 9.00654 13.9534C9.12817 13.9405 9.24599 13.9033 9.35306 13.8442C9.46012 13.7851 9.55427 13.7051 9.62995 13.609C9.70564 13.5129 9.76132 13.4026 9.79373 13.2847C10.0334 12.4557 10.476 11.6995 11.0816 11.0847C11.6969 10.4796 12.4529 10.0367 13.2816 9.79587C13.3971 9.76124 13.5046 9.70419 13.598 9.62797C13.6913 9.55176 13.7688 9.45788 13.8258 9.3517C13.8828 9.24553 13.9184 9.12915 13.9304 9.00922C13.9424 8.88929 13.9307 8.76817 13.8958 8.65279ZM25.5503 12.0206C25.1068 11.5782 24.6043 11.1991 24.0571 10.894C23.9518 10.827 23.8339 10.7821 23.7107 10.7622C23.5875 10.7423 23.4615 10.7478 23.3404 10.7783C23.2194 10.8088 23.1059 10.8637 23.0068 10.9397C22.9077 11.0156 22.8252 11.111 22.7643 11.22C22.7035 11.329 22.6655 11.4492 22.6527 11.5734C22.6399 11.6976 22.6526 11.823 22.6901 11.9421C22.7275 12.0612 22.7889 12.1714 22.8704 12.2659C22.952 12.3604 23.0519 12.4373 23.1642 12.4918C23.9673 12.9383 24.6292 13.6011 25.0746 14.4049C25.1964 14.614 25.3947 14.7676 25.6277 14.8333C25.8606 14.8989 26.1099 14.8716 26.3231 14.7569C26.4282 14.6981 26.5207 14.6191 26.5953 14.5245C26.6699 14.4299 26.7252 14.3215 26.7579 14.2056C26.7906 14.0896 26.8001 13.9684 26.7859 13.8487C26.7717 13.7291 26.734 13.6134 26.6751 13.5084C26.3701 12.9632 25.9916 12.4626 25.5503 12.0206ZM29.9604 12.7549C29.639 11.6337 29.0377 10.6127 28.2129 9.78794C27.3882 8.9632 26.3672 8.36184 25.246 8.04045C25.1298 8.00216 25.0072 7.98751 24.8852 7.99736C24.7633 8.00721 24.6446 8.04135 24.5361 8.09779C24.4276 8.15423 24.3315 8.23181 24.2534 8.32597C24.1753 8.42013 24.1169 8.52896 24.0815 8.64605C24.0462 8.76314 24.0346 8.88613 24.0475 9.00776C24.0604 9.12939 24.0975 9.24721 24.1567 9.35428C24.2158 9.46134 24.2958 9.55549 24.3919 9.63117C24.4879 9.70686 24.5982 9.76254 24.7162 9.79495C25.5482 10.0288 26.3061 10.4725 26.9172 11.0836C27.5283 11.6947 27.9721 12.4527 28.2059 13.2847C28.2787 13.5156 28.4389 13.709 28.6523 13.8234C28.8657 13.9378 29.1154 13.9642 29.3481 13.897C29.5807 13.8267 29.7759 13.6669 29.8907 13.4527C30.0055 13.2385 30.0306 12.9875 29.9604 12.7549ZM20.3748 27.7085H17.6248C17.5033 27.7085 17.3867 27.7567 17.3007 27.8427C17.2148 27.9286 17.1665 28.0452 17.1665 28.1668C17.1665 28.653 17.3596 29.1193 17.7035 29.4631C18.0473 29.807 18.5136 30.0001 18.9998 30.0001C19.486 30.0001 19.9524 29.807 20.2962 29.4631C20.64 29.1193 20.8331 28.653 20.8331 28.1668C20.8331 28.0452 20.7849 27.9286 20.6989 27.8427C20.613 27.7567 20.4964 27.7085 20.3748 27.7085ZM25.4165 24.9585C25.1734 24.9585 24.9402 24.8619 24.7683 24.69C24.5964 24.5181 24.4998 24.2849 24.4998 24.0418V19.9168C24.4998 16.7534 22.5134 14.1262 19.9165 13.6156V12.1251C19.9165 11.882 19.8199 11.6488 19.648 11.4769C19.4761 11.305 19.2429 11.2085 18.9998 11.2085C18.7567 11.2085 18.5235 11.305 18.3516 11.4769C18.1797 11.6488 18.0831 11.882 18.0831 12.1251V13.6165C15.4862 14.1271 13.4998 16.7543 13.4998 19.9168V24.0418C13.4998 24.2849 13.4032 24.5181 13.2313 24.69C13.0594 24.8619 12.8263 24.9585 12.5831 24.9585C12.34 24.9585 12.1069 25.055 11.935 25.2269C11.7631 25.3988 11.6665 25.632 11.6665 25.8751C11.6665 26.1182 11.7631 26.3514 11.935 26.5233C12.1069 26.6952 12.34 26.7918 12.5831 26.7918H25.4165C25.6596 26.7918 25.8928 26.6952 26.0647 26.5233C26.2366 26.3514 26.3332 26.1182 26.3332 25.8751C26.3332 25.632 26.2366 25.3988 26.0647 25.2269C25.8928 25.055 25.6596 24.9585 25.4165 24.9585Z" fill="#FFB169"/>
</g>
<defs>
<clipPath id="clip0_13869_118534">
<rect width="22" height="22" fill="white" transform="translate(8 8)"/>
</clipPath>
</defs>
</svg>
