<svg width="38" height="38" viewBox="0 0 38 38" fill="none" xmlns="http://www.w3.org/2000/svg">
<circle opacity="0.2" cx="19" cy="19" r="19" fill="#F17A8F"/>
<path d="M13.9072 22.402C13.2342 21.3951 12.875 20.2114 12.875 19.0004C12.8768 17.3772 13.5227 15.8209 14.671 14.6731C15.8192 13.5253 17.3761 12.8797 19 12.8778C20.2114 12.8778 21.3956 13.2369 22.4028 13.9097C23.4101 14.5824 24.1951 15.5387 24.6587 16.6574C25.1223 17.7762 25.2436 19.0072 25.0072 20.1949C24.7709 21.3826 24.1876 22.4735 23.331 23.3298C22.4744 24.186 21.383 24.7691 20.1949 25.0054C19.0068 25.2416 17.7752 25.1204 16.656 24.657C15.5369 24.1936 14.5803 23.4088 13.9072 22.402Z" fill="#F17A8F"/>
<path d="M11.3838 25.4618C11.417 25.5011 11.4352 25.5508 11.4352 25.6021C11.4352 25.6535 11.417 25.7032 11.3838 25.7424L10.9936 26.2055C10.9217 26.2885 10.8737 26.3895 10.8546 26.4977C10.8356 26.6058 10.8461 26.7171 10.8853 26.8197C10.9244 26.9224 10.9906 27.0125 11.0768 27.0805C11.1631 27.1486 11.2661 27.192 11.3751 27.2062L13.8692 27.5615C13.9632 27.6018 14.0641 27.6237 14.1664 27.6258C14.1942 27.6258 14.2212 27.6188 14.2533 27.6162L14.4315 27.6414C14.4603 27.6451 14.4893 27.6472 14.5184 27.6475C14.6152 27.6483 14.7108 27.626 14.7972 27.5825C14.8836 27.5389 14.9584 27.4754 15.0154 27.3971C15.0723 27.3189 15.1097 27.2282 15.1246 27.1326C15.1394 27.037 15.1312 26.9392 15.1006 26.8474L14.1508 23.9147C14.1184 23.8097 14.0582 23.7154 13.9765 23.6419C13.8948 23.5684 13.7947 23.5183 13.6868 23.4971C13.579 23.4759 13.4674 23.4843 13.3639 23.5214C13.2605 23.5586 13.169 23.623 13.0992 23.7079L12.7403 24.1336C12.7194 24.1586 12.6932 24.1786 12.6636 24.1922C12.634 24.2059 12.6017 24.2129 12.5691 24.2127C12.5365 24.2116 12.5044 24.2033 12.4754 24.1882C12.4464 24.1732 12.4211 24.1519 12.4014 24.1258C11.4376 22.8908 10.8404 21.4098 10.6781 19.8518C10.5159 18.2939 10.795 16.7217 11.4836 15.3147C12.1723 13.9077 13.2427 12.7225 14.5728 11.8944C15.9029 11.0664 17.4391 10.6287 19.0061 10.6314C19.6011 10.6317 20.1944 10.6943 20.7763 10.8182C20.8824 10.8441 20.9926 10.8484 21.1004 10.831C21.2082 10.8135 21.3114 10.7746 21.4039 10.7166C21.4963 10.6585 21.5762 10.5825 21.6388 10.493C21.7013 10.4036 21.7453 10.3024 21.768 10.1957C21.7908 10.0889 21.7918 9.97867 21.7712 9.87148C21.7505 9.76429 21.7086 9.66234 21.6478 9.57166C21.587 9.48098 21.5086 9.40342 21.4173 9.34358C21.3259 9.28373 21.2235 9.24282 21.1161 9.22326C19.6567 8.90986 18.1456 8.9266 16.6935 9.27226C15.2414 9.61792 13.8849 10.2837 12.7235 11.221C11.562 12.1583 10.6248 13.3433 9.98057 14.6893C9.33633 16.0353 9.0013 17.5083 9 19.0005C8.99763 21.3696 9.84315 23.6615 11.3838 25.4618ZM26.6162 12.5382C26.583 12.499 26.5648 12.4493 26.5648 12.3979C26.5648 12.3465 26.583 12.2968 26.6162 12.2576L27.0064 11.7946C27.0781 11.7115 27.1259 11.6106 27.1448 11.5026C27.1637 11.3946 27.1531 11.2834 27.114 11.1809C27.0749 11.0785 27.0088 10.9885 26.9227 10.9205C26.8366 10.8525 26.7337 10.809 26.6249 10.7947L24.0917 10.4334C23.9952 10.3997 23.8931 10.385 23.791 10.3899L23.5729 10.3595C23.4698 10.3437 23.3644 10.3547 23.2667 10.3913C23.1691 10.4279 23.0826 10.4891 23.0154 10.5688C22.9482 10.6485 22.9026 10.7442 22.8831 10.8466C22.8635 10.949 22.8706 11.0547 22.9037 11.1535L23.8492 14.0862C23.883 14.1901 23.9439 14.2831 24.0256 14.3557C24.1073 14.4282 24.2069 14.4776 24.3142 14.4989C24.3531 14.5065 24.3927 14.5103 24.4323 14.5102C24.5215 14.5102 24.6096 14.4908 24.6906 14.4533C24.7715 14.4158 24.8432 14.3611 24.9008 14.293L25.2597 13.8673C25.2805 13.8425 25.3065 13.8227 25.336 13.8094C25.3655 13.796 25.3976 13.7894 25.4299 13.7901C25.4623 13.7907 25.4941 13.7986 25.523 13.8132C25.5518 13.8278 25.5771 13.8487 25.5968 13.8743C26.5607 15.1086 27.1581 16.5888 27.3209 18.1462C27.4837 19.7036 27.2054 21.2753 26.5176 22.6821C25.8298 24.089 24.7603 25.2742 23.4311 26.1027C22.1019 26.9312 20.5664 27.3696 19 27.3678C18.405 27.3679 17.8116 27.3053 17.2298 27.181C17.1239 27.1559 17.0141 27.1523 16.9068 27.1702C16.7995 27.1881 16.6969 27.2273 16.6049 27.2854C16.513 27.3435 16.4336 27.4194 16.3713 27.5086C16.3091 27.5978 16.2654 27.6985 16.2426 27.8048C16.2199 27.9112 16.2186 28.021 16.2389 28.1278C16.2592 28.2347 16.3006 28.3364 16.3607 28.427C16.4209 28.5176 16.4985 28.5953 16.5891 28.6555C16.6797 28.7157 16.7814 28.7573 16.8882 28.7777C18.3474 29.0903 19.858 29.073 21.3095 28.727C22.7611 28.381 24.1169 27.7151 25.2779 26.7779C26.4389 25.8407 27.3756 24.6559 28.0196 23.3103C28.6636 21.9647 28.9986 20.4922 29 19.0005C29.0025 16.631 28.157 14.3388 26.6162 12.5382Z" fill="#F17A8F"/>
</svg>
