<svg width="38" height="38" viewBox="0 0 38 38" fill="none" xmlns="http://www.w3.org/2000/svg">
<circle opacity="0.2" cx="19" cy="19" r="19" fill="#40E395"/>
<g clip-path="url(#clip0_17620_134390)">
<path d="M25.5 11.75C25.5 11.2859 25.3156 10.8408 24.9874 10.5126C24.6592 10.1844 24.2141 10 23.75 10H9.75C9.28587 10 8.84075 10.1844 8.51256 10.5126C8.18437 10.8408 8 11.2859 8 11.75V12.625C8 12.683 8.02305 12.7387 8.06407 12.7797C8.10509 12.8207 8.16073 12.8438 8.21875 12.8438H25.2812C25.3393 12.8438 25.3949 12.8207 25.4359 12.7797C25.477 12.7387 25.5 12.683 25.5 12.625V11.75ZM23.3125 18.3125C23.9582 18.313 24.6008 18.4031 25.2217 18.5802C25.2542 18.5894 25.2884 18.591 25.3216 18.5847C25.3548 18.5785 25.3861 18.5647 25.413 18.5444C25.44 18.524 25.4619 18.4977 25.4769 18.4675C25.492 18.4373 25.4999 18.404 25.5 18.3702V14.375C25.5 14.317 25.477 14.2613 25.4359 14.2203C25.3949 14.1793 25.3393 14.1562 25.2812 14.1562H8.21875C8.16073 14.1562 8.10509 14.1793 8.06407 14.2203C8.02305 14.2613 8 14.317 8 14.375V21.375C8 21.8391 8.18437 22.2842 8.51256 22.6124C8.84075 22.9406 9.28587 23.125 9.75 23.125H16.5094C16.5547 23.125 16.5989 23.111 16.6359 23.0848C16.6729 23.0586 16.7008 23.0216 16.7159 22.9789C17.1983 21.6146 18.0916 20.4334 19.2729 19.5978C20.4542 18.7621 21.8655 18.3131 23.3125 18.3125ZM10.625 16.3438H16.3125C16.4865 16.3438 16.6535 16.4129 16.7765 16.536C16.8996 16.659 16.9688 16.826 16.9688 17C16.9688 17.174 16.8996 17.341 16.7765 17.464C16.6535 17.5871 16.4865 17.6562 16.3125 17.6562H10.625C10.451 17.6562 10.284 17.5871 10.161 17.464C10.0379 17.341 9.96875 17.174 9.96875 17C9.96875 16.826 10.0379 16.659 10.161 16.536C10.284 16.4129 10.451 16.3438 10.625 16.3438ZM13.25 20.7188H10.625C10.451 20.7188 10.284 20.6496 10.161 20.5265C10.0379 20.4035 9.96875 20.2365 9.96875 20.0625C9.96875 19.8885 10.0379 19.7215 10.161 19.5985C10.284 19.4754 10.451 19.4062 10.625 19.4062H13.25C13.424 19.4062 13.591 19.4754 13.714 19.5985C13.8371 19.7215 13.9062 19.8885 13.9062 20.0625C13.9062 20.2365 13.8371 20.4035 13.714 20.5265C13.591 20.6496 13.424 20.7188 13.25 20.7188Z" fill="#40E395"/>
<path d="M23.3125 19.625C22.1876 19.625 21.088 19.9586 20.1527 20.5835C19.2174 21.2085 18.4884 22.0967 18.0579 23.136C17.6275 24.1752 17.5148 25.3188 17.7343 26.4221C17.9537 27.5253 18.4954 28.5388 19.2908 29.3342C20.0862 30.1296 21.0997 30.6713 22.2029 30.8907C23.3062 31.1102 24.4498 30.9975 25.489 30.5671C26.5283 30.1366 27.4165 29.4076 28.0415 28.4723C28.6664 27.537 29 26.4374 29 25.3125C29 23.8041 28.4008 22.3574 27.3342 21.2908C26.2676 20.2242 24.8209 19.625 23.3125 19.625ZM22.364 24.2573L24.7353 25.1454C25.0783 25.3225 25.356 25.6042 25.5283 25.9496C25.7006 26.2951 25.7586 26.6864 25.6938 27.067C25.629 27.4475 25.4448 27.7976 25.1679 28.0666C24.891 28.3356 24.5357 28.5095 24.1534 28.5631C24.1018 28.5711 24.0548 28.5973 24.021 28.6369C23.9871 28.6766 23.9686 28.7271 23.9688 28.7793V29.25C23.9688 29.424 23.8996 29.591 23.7765 29.714C23.6535 29.8371 23.4866 29.9063 23.3125 29.9063C23.1385 29.9063 22.9715 29.8371 22.8485 29.714C22.7254 29.591 22.6563 29.424 22.6563 29.25V28.8125C22.6563 28.7545 22.6332 28.6988 22.5922 28.6578C22.5512 28.6168 22.4955 28.5938 22.4375 28.5938H21.5625C21.3885 28.5938 21.2215 28.5246 21.0985 28.4015C20.9754 28.2785 20.9063 28.1115 20.9063 27.9375C20.9063 27.7635 20.9754 27.5965 21.0985 27.4735C21.2215 27.3504 21.3885 27.2813 21.5625 27.2813H23.75C24.1875 27.2813 24.4063 27.1299 24.4063 26.8315C24.4194 26.664 24.3674 26.4978 24.261 26.3678L21.8898 25.4796C21.5761 25.329 21.3148 25.0879 21.1395 24.7873C20.9642 24.4868 20.883 24.1406 20.9063 23.7935C20.92 23.366 21.0856 22.9575 21.3732 22.6409C21.6609 22.3244 22.0518 22.1207 22.476 22.0663C22.5265 22.0572 22.5723 22.0307 22.6052 21.9914C22.6382 21.952 22.6562 21.9023 22.6563 21.851V21.375C22.6563 21.201 22.7254 21.034 22.8485 20.911C22.9715 20.7879 23.1385 20.7188 23.3125 20.7188C23.4866 20.7188 23.6535 20.7879 23.7765 20.911C23.8996 21.034 23.9688 21.201 23.9688 21.375V21.8125C23.9688 21.8705 23.9918 21.9262 24.0328 21.9672C24.0738 22.0082 24.1295 22.0313 24.1875 22.0313H25.0625C25.2366 22.0313 25.4035 22.1004 25.5265 22.2235C25.6496 22.3465 25.7188 22.5135 25.7188 22.6875C25.7188 22.8615 25.6496 23.0285 25.5265 23.1515C25.4035 23.2746 25.2366 23.3438 25.0625 23.3438H22.875C22.5198 23.3438 22.2188 23.5494 22.2188 23.7935C22.2056 23.961 22.2576 24.1272 22.364 24.2573Z" fill="#40E395"/>
</g>
<defs>
<clipPath id="clip0_17620_134390">
<rect width="21" height="21" fill="white" transform="translate(8 10)"/>
</clipPath>
</defs>
</svg>
