<svg width="38" height="38" viewBox="0 0 38 38" fill="none" xmlns="http://www.w3.org/2000/svg">
<circle opacity="0.2" cx="19" cy="19" r="19" fill="#5AB9FE"/>
<path d="M27.3333 14H24.2083C24.1531 14 24.1001 13.9781 24.061 13.939C24.0219 13.8999 24 13.8469 24 13.7917V10.6667C24 10.2246 23.8244 9.80072 23.5118 9.48816C23.1993 9.17559 22.7754 9 22.3333 9H10.6667C10.2246 9 9.80072 9.17559 9.48816 9.48816C9.17559 9.80072 9 10.2246 9 10.6667V22.3333C9 22.7754 9.17559 23.1993 9.48816 23.5118C9.80072 23.8244 10.2246 24 10.6667 24H13.7917C13.8469 24 13.8999 24.0219 13.939 24.061C13.9781 24.1001 14 24.1531 14 24.2083V27.3333C14 27.7754 14.1756 28.1993 14.4882 28.5118C14.8007 28.8244 15.2246 29 15.6667 29H27.3333C27.7754 29 28.1993 28.8244 28.5118 28.5118C28.8244 28.1993 29 27.7754 29 27.3333V15.6667C29 15.2246 28.8244 14.8007 28.5118 14.4882C28.1993 14.1756 27.7754 14 27.3333 14ZM10.6667 11.0833C10.6667 10.9728 10.7106 10.8668 10.7887 10.7887C10.8668 10.7106 10.9728 10.6667 11.0833 10.6667H21.9167C22.0272 10.6667 22.1332 10.7106 22.2113 10.7887C22.2894 10.8668 22.3333 10.9728 22.3333 11.0833V21.9167C22.3333 22.0272 22.2894 22.1332 22.2113 22.2113C22.1332 22.2894 22.0272 22.3333 21.9167 22.3333H11.0833C10.9728 22.3333 10.8668 22.2894 10.7887 22.2113C10.7106 22.1332 10.6667 22.0272 10.6667 21.9167V11.0833Z" fill="#5AB9FE"/>
</svg>
