<svg width="38" height="38" viewBox="0 0 38 38" fill="none" xmlns="http://www.w3.org/2000/svg">
<circle opacity="0.2" cx="19" cy="19" r="19" fill="#C18AFF"/>
<g clip-path="url(#clip0_13869_118242)">
<path d="M26.9208 9.38501H18.6042C18.3832 9.38501 18.1712 9.47281 18.0149 9.62909C17.8586 9.78537 17.7708 9.99733 17.7708 10.2183C17.7708 10.4394 17.8586 10.6513 18.0149 10.8076C18.1712 10.9639 18.3832 11.0517 18.6042 11.0517H26.9208C27.2067 11.0517 27.3375 11.3642 27.3375 11.655V19.5967C27.3375 19.8875 27.2075 20.2 26.9208 20.2H20.2675C20.0465 20.2 19.8345 20.2878 19.6782 20.4441C19.522 20.6004 19.4342 20.8123 19.4342 21.0333C19.4342 21.2544 19.522 21.4663 19.6782 21.6226C19.8345 21.7789 20.0465 21.8667 20.2675 21.8667H20.475C20.5303 21.8667 20.5832 21.8886 20.6223 21.9277C20.6614 21.9668 20.6833 22.0198 20.6833 22.075V22.9083C20.6831 22.9635 20.6611 23.0164 20.6221 23.0554C20.583 23.0944 20.5302 23.1165 20.475 23.1167H18.6042C18.3832 23.1167 18.1712 23.2045 18.0149 23.3608C17.8586 23.517 17.7708 23.729 17.7708 23.95C17.7708 24.171 17.8586 24.383 18.0149 24.5393C18.1712 24.6955 18.3832 24.7833 18.6042 24.7833H24.4258C24.6468 24.7833 24.8588 24.6955 25.0151 24.5393C25.1714 24.383 25.2592 24.171 25.2592 23.95C25.2592 23.729 25.1714 23.517 25.0151 23.3608C24.8588 23.2045 24.6468 23.1167 24.4258 23.1167H22.555C22.4998 23.1165 22.4469 23.0944 22.4079 23.0554C22.3689 23.0164 22.3469 22.9635 22.3467 22.9083V22.075C22.3467 22.0198 22.3686 21.9668 22.4077 21.9277C22.4468 21.8886 22.4997 21.8667 22.555 21.8667H26.9208C27.2084 21.8609 27.4919 21.7969 27.7541 21.6785C28.0163 21.5602 28.2519 21.39 28.4465 21.1782C28.6412 20.9664 28.791 20.7174 28.8868 20.4462C28.9826 20.1749 29.0226 19.8871 29.0042 19.6V11.6517C29.0226 11.3646 28.9826 11.0768 28.8868 10.8055C28.791 10.5343 28.6412 10.2853 28.4465 10.0735C28.2519 9.86166 28.0163 9.69147 27.7541 9.57315C27.4919 9.45483 27.2084 9.39083 26.9208 9.38501ZM9.41667 22.6933H10.6292C10.6807 22.6933 10.7305 22.7123 10.7688 22.7468C10.8071 22.7813 10.8313 22.8287 10.8367 22.88L11.3725 28.2425C11.3831 28.3455 11.4316 28.4409 11.5086 28.51C11.5856 28.5792 11.6856 28.6172 11.7892 28.6167H14.1558C14.2594 28.6172 14.3594 28.5792 14.4364 28.51C14.5134 28.4409 14.5619 28.3455 14.5725 28.2425L15.1092 22.88C15.1143 22.8287 15.1385 22.7811 15.1768 22.7466C15.2152 22.7121 15.2651 22.6931 15.3167 22.6933H16.525C16.6355 22.6933 16.7415 22.6494 16.8196 22.5713C16.8978 22.4932 16.9417 22.3872 16.9417 22.2767V19.9058C16.941 19.194 16.7491 18.4955 16.3862 17.8832C16.0232 17.2708 15.5025 16.7673 14.8783 16.425C14.8464 16.4076 14.8195 16.3821 14.8005 16.351C14.7815 16.32 14.7711 16.2845 14.7701 16.2481C14.7692 16.2117 14.7779 16.1757 14.7953 16.1437C14.8126 16.1117 14.8381 16.0849 14.8692 16.0658C15.4967 15.6832 15.9831 15.1073 16.2552 14.4245C16.5273 13.7418 16.5705 12.9892 16.3782 12.2798C16.1859 11.5705 15.7686 10.9427 15.1889 10.4908C14.6092 10.039 13.8985 9.78752 13.1637 9.77423C12.4288 9.76093 11.7095 9.98651 11.1139 10.4171C10.5182 10.8476 10.0784 11.4599 9.86061 12.1619C9.64277 12.8638 9.65867 13.6175 9.90592 14.3096C10.1532 15.0018 10.6184 15.595 11.2317 16C11.2621 16.0204 11.2866 16.0483 11.3029 16.0811C11.3191 16.1139 11.3264 16.1504 11.3241 16.1869C11.3219 16.2234 11.3101 16.2587 11.2899 16.2892C11.2697 16.3197 11.2419 16.3444 11.2092 16.3608C10.5472 16.6872 9.98952 17.192 9.59917 17.8184C9.20882 18.4448 9.00129 19.1678 9 19.9058V22.2775C9 22.388 9.0439 22.494 9.12204 22.5721C9.20018 22.6503 9.30616 22.6942 9.41667 22.6942V22.6933ZM13.595 19.2325C13.595 19.3983 13.5292 19.5572 13.4119 19.6745C13.2947 19.7917 13.1358 19.8575 12.97 19.8575C12.8042 19.8575 12.6453 19.7917 12.5281 19.6745C12.4108 19.5572 12.345 19.3983 12.345 19.2325V17.8267C12.345 17.6609 12.4108 17.5019 12.5281 17.3847C12.6453 17.2675 12.8042 17.2017 12.97 17.2017C13.1358 17.2017 13.2947 17.2675 13.4119 17.3847C13.5292 17.5019 13.595 17.6609 13.595 17.8267V19.2325ZM11.4483 12.6925C11.4575 12.6622 11.4735 12.6344 11.4952 12.6112C11.5168 12.5881 11.5435 12.5702 11.5731 12.559C11.6028 12.5478 11.6346 12.5436 11.6661 12.5467C11.6977 12.5497 11.7281 12.56 11.755 12.5767C12.416 12.9783 13.1749 13.1902 13.9483 13.1892C14.2117 13.1893 14.4745 13.165 14.7333 13.1167C14.7441 13.1149 14.7552 13.1153 14.7658 13.118C14.7765 13.1208 14.7864 13.1257 14.795 13.1325C14.8033 13.1395 14.8099 13.1481 14.8145 13.1579C14.8191 13.1677 14.8216 13.1784 14.8217 13.1892C14.8267 13.419 14.7858 13.6474 14.7014 13.8612C14.6169 14.0749 14.4907 14.2697 14.3299 14.434C14.1692 14.5983 13.9773 14.7288 13.7654 14.8179C13.5536 14.907 13.3261 14.9529 13.0962 14.9529C12.8664 14.9529 12.6389 14.907 12.4271 14.8179C12.2152 14.7288 12.0233 14.5983 11.8626 14.434C11.7018 14.2697 11.5756 14.0749 11.4911 13.8612C11.4067 13.6474 11.3658 13.419 11.3708 13.1892C11.3708 13.0206 11.397 12.8531 11.4483 12.6925Z" fill="#C18AFF"/>
<path d="M21.4118 11.2566C21.3299 11.2565 21.2488 11.2725 21.173 11.3038C21.0973 11.3351 21.0285 11.381 20.9705 11.4389C20.9126 11.4968 20.8666 11.5655 20.8352 11.6412C20.8038 11.7169 20.7877 11.798 20.7877 11.8799V12.1358C20.7875 12.1837 20.7709 12.2302 20.7405 12.2674C20.7102 12.3046 20.668 12.3302 20.621 12.3399C20.2543 12.4131 19.9211 12.603 19.6712 12.8812C19.4213 13.1594 19.2681 13.511 19.2345 13.8834C19.201 14.2559 19.2888 14.6292 19.4849 14.9476C19.6811 15.266 19.9749 15.5124 20.3227 15.6499L22.0377 16.3366C22.1435 16.3793 22.2312 16.4575 22.2858 16.5578C22.3404 16.658 22.3584 16.7742 22.3369 16.8863C22.3153 16.9984 22.2555 17.0995 22.1676 17.1724C22.0798 17.2452 21.9693 17.2853 21.8552 17.2858H20.1668C20.0011 17.2858 19.8421 17.3516 19.7249 17.4688C19.6077 17.586 19.5418 17.745 19.5418 17.9108C19.5418 18.0765 19.6077 18.2355 19.7249 18.3527C19.8421 18.4699 20.0011 18.5358 20.1668 18.5358H20.5835C20.6387 18.536 20.6916 18.558 20.7306 18.597C20.7696 18.636 20.7916 18.6889 20.7918 18.7441V18.9516C20.7918 19.1174 20.8577 19.2763 20.9749 19.3935C21.0921 19.5107 21.2511 19.5766 21.4168 19.5766C21.5826 19.5766 21.7416 19.5107 21.8588 19.3935C21.976 19.2763 22.0418 19.1174 22.0418 18.9516V18.6966C22.0419 18.6487 22.0585 18.6022 22.0889 18.5652C22.1192 18.5281 22.1615 18.5027 22.2085 18.4933C22.5759 18.4196 22.9095 18.2289 23.1594 17.9498C23.4094 17.6707 23.5622 17.3182 23.5951 16.9449C23.6279 16.5717 23.539 16.1979 23.3416 15.8794C23.1442 15.5609 22.849 15.3149 22.5002 15.1783L20.7852 14.4924C20.6793 14.4497 20.5916 14.3715 20.537 14.2712C20.4824 14.171 20.4644 14.0549 20.4859 13.9428C20.5075 13.8307 20.5673 13.7295 20.6552 13.6567C20.7431 13.5838 20.8535 13.5437 20.9677 13.5433H22.6593C22.8251 13.5433 22.9841 13.4774 23.1013 13.3602C23.2185 13.243 23.2843 13.084 23.2843 12.9183C23.2843 12.7525 23.2185 12.5935 23.1013 12.4763C22.9841 12.3591 22.8251 12.2933 22.6593 12.2933H22.2427C22.1874 12.2933 22.1344 12.2713 22.0954 12.2322C22.0563 12.1932 22.0343 12.1402 22.0343 12.0849V11.8799C22.0343 11.7148 21.9688 11.5563 21.8521 11.4395C21.7353 11.3226 21.577 11.2568 21.4118 11.2566Z" fill="#C18AFF"/>
</g>
<defs>
<clipPath id="clip0_13869_118242">
<rect width="20" height="20" fill="white" transform="translate(9 9)"/>
</clipPath>
</defs>
</svg>
