<svg width="14" height="14" viewBox="0 0 14 14" fill="none" xmlns="http://www.w3.org/2000/svg">
<path d="M8.89567 12.1042C8.89567 11.0571 8.04688 10.2083 6.99984 10.2083C5.9528 10.2083 5.104 11.0571 5.104 12.1042C5.104 13.1512 5.9528 14 6.99984 14C8.04688 14 8.89567 13.1512 8.89567 12.1042Z" fill="#DDDDDD"/>
<path d="M8.89567 7.00001C8.89567 5.95297 8.04688 5.10418 6.99984 5.10418C5.9528 5.10418 5.104 5.95297 5.104 7.00001C5.104 8.04705 5.9528 8.89584 6.99984 8.89584C8.04688 8.89584 8.89567 8.04705 8.89567 7.00001Z" fill="#DDDDDD"/>
<path d="M8.89567 1.89582C8.89567 0.848784 8.04688 -9.53674e-06 6.99984 -9.53674e-06C5.9528 -9.53674e-06 5.104 0.848784 5.104 1.89582C5.104 2.94286 5.9528 3.79166 6.99984 3.79166C8.04688 3.79166 8.89567 2.94286 8.89567 1.89582Z" fill="#DDDDDD"/>
</svg>
