<svg width="14" height="12" viewBox="0 0 14 12" fill="none" xmlns="http://www.w3.org/2000/svg">
<path d="M3.69861 7.09839V9.29895H1.49805" stroke="#717171" stroke-width="1.5" stroke-linecap="round" stroke-linejoin="round"/>
<path d="M10.3003 4.89783V2.69727H12.5009" stroke="#717171" stroke-width="1.5" stroke-linecap="round" stroke-linejoin="round"/>
<path d="M10.438 2.69581C11.1968 3.48633 11.6602 4.51405 11.7502 5.60611C11.8403 6.69817 11.5516 7.78793 10.9326 8.69211C10.3136 9.59628 9.40207 10.2597 8.35139 10.5708C7.30071 10.8819 6.17495 10.8216 5.16347 10.4002M3.55999 9.30042C2.80284 8.5095 2.34089 7.48214 2.2517 6.39086C2.1625 5.29958 2.45151 4.21085 3.07018 3.30748C3.68885 2.4041 4.59951 1.7411 5.64924 1.42982C6.69898 1.11853 7.82385 1.1779 8.83498 1.59797" stroke="#717171" stroke-linecap="round" stroke-linejoin="round"/>
</svg>
