<svg width="38" height="38" viewBox="0 0 38 38" fill="none" xmlns="http://www.w3.org/2000/svg">
<circle opacity="0.2" cx="19" cy="19" r="19" fill="#C18AFF"/>
<g clip-path="url(#clip0_13869_118215)">
<path d="M23.79 24.4175C24.4804 24.4175 25.04 23.8579 25.04 23.1675C25.04 22.4772 24.4804 21.9175 23.79 21.9175C23.0997 21.9175 22.54 22.4772 22.54 23.1675C22.54 23.8579 23.0997 24.4175 23.79 24.4175Z" fill="#C18AFF"/>
<path d="M26.0003 19.8333C25.9073 19.8538 25.8099 19.8386 25.7276 19.7905C25.6453 19.7425 25.5841 19.6653 25.5562 19.5742L25.2062 18.4167C25.1152 18.1116 24.9281 17.8441 24.6729 17.6538C24.4177 17.4636 24.1078 17.3608 23.7895 17.3608C23.4712 17.3608 23.1613 17.4636 22.9061 17.6538C22.6508 17.8441 22.4638 18.1116 22.3728 18.4167L22.0195 19.5758C21.9912 19.6667 21.93 19.7437 21.8478 19.7917C21.7655 19.8397 21.6684 19.8551 21.5753 19.835L20.4003 19.5583C20.0907 19.4881 19.7666 19.5189 19.4758 19.6463C19.1849 19.7737 18.9425 19.9909 18.7841 20.2661C18.6257 20.5412 18.5596 20.8599 18.5955 21.1754C18.6314 21.4909 18.7674 21.7866 18.9837 22.0192L19.8078 22.9067C19.8731 22.9777 19.9093 23.0706 19.9093 23.1671C19.9093 23.2635 19.8731 23.3564 19.8078 23.4275L18.9853 24.3158C18.7691 24.5484 18.6331 24.844 18.5971 25.1595C18.5612 25.475 18.6273 25.7937 18.7857 26.0689C18.9442 26.3441 19.1866 26.5613 19.4774 26.6887C19.7683 26.816 20.0923 26.8469 20.402 26.7767L21.5778 26.5042C21.6708 26.4838 21.7679 26.499 21.8502 26.5469C21.9324 26.5947 21.9937 26.6716 22.022 26.7625L22.3753 27.9225C22.4663 28.2275 22.6533 28.4951 22.9086 28.6853C23.1638 28.8755 23.4737 28.9783 23.792 28.9783C24.1103 28.9783 24.4202 28.8755 24.6754 28.6853C24.9306 28.4951 25.1177 28.2275 25.2087 27.9225L25.562 26.7625C25.5897 26.6713 25.651 26.594 25.7333 26.5461C25.8157 26.4982 25.9132 26.4832 26.0062 26.5042L27.1828 26.7767C27.4925 26.8469 27.8165 26.816 28.1074 26.6887C28.3982 26.5613 28.6406 26.3441 28.7991 26.0689C28.9575 25.7937 29.0236 25.475 28.9877 25.1595C28.9517 24.844 28.8157 24.5484 28.5995 24.3158L27.7762 23.4275C27.7109 23.3564 27.6747 23.2635 27.6747 23.1671C27.6747 23.0706 27.7109 22.9777 27.7762 22.9067L28.5978 22.0192C28.8147 21.7868 28.9512 21.491 28.9875 21.1753C29.0237 20.8595 28.9577 20.5405 28.7991 20.2651C28.6406 19.9896 28.3978 19.7723 28.1066 19.6451C27.8153 19.5179 27.491 19.4875 27.1812 19.5583L26.0003 19.8333ZM23.787 25.6667C23.2925 25.6667 22.8092 25.52 22.3981 25.2453C21.9869 24.9706 21.6665 24.5802 21.4773 24.1234C21.2881 23.6665 21.2386 23.1639 21.335 22.6789C21.4315 22.194 21.6696 21.7485 22.0192 21.3989C22.3689 21.0493 22.8143 20.8112 23.2993 20.7147C23.7842 20.6182 24.2869 20.6677 24.7437 20.857C25.2005 21.0462 25.591 21.3666 25.8657 21.7777C26.1404 22.1888 26.287 22.6722 26.287 23.1667C26.287 23.8291 26.0241 24.4645 25.5559 24.9332C25.0878 25.402 24.4528 25.6658 23.7903 25.6667H23.787Z" fill="#C18AFF"/>
<path d="M26.5 9.02667H11.5C10.837 9.02667 10.2011 9.29006 9.73223 9.75891C9.26339 10.2277 9 10.8636 9 11.5267V23.61C9 24.273 9.26339 24.9089 9.73223 25.3778C10.2011 25.8466 10.837 26.11 11.5 26.11H16.0833C16.3043 26.11 16.5163 26.0222 16.6726 25.8659C16.8289 25.7097 16.9167 25.4977 16.9167 25.2767C16.9167 25.0557 16.8289 24.8437 16.6726 24.6874C16.5163 24.5311 16.3043 24.4433 16.0833 24.4433H11.5C11.279 24.4433 11.067 24.3555 10.9107 24.1993C10.7545 24.043 10.6667 23.831 10.6667 23.61V13.4017C10.6667 13.3464 10.6886 13.2934 10.7277 13.2544C10.7668 13.2153 10.8197 13.1933 10.875 13.1933H27.125C27.1803 13.1933 27.2332 13.2153 27.2723 13.2544C27.3114 13.2934 27.3333 13.3464 27.3333 13.4017V16.9433C27.3333 17.1644 27.4211 17.3763 27.5774 17.5326C27.7337 17.6889 27.9457 17.7767 28.1667 17.7767C28.3877 17.7767 28.5996 17.6889 28.7559 17.5326C28.9122 17.3763 29 17.1644 29 16.9433V11.5267C29 10.8636 28.7366 10.2277 28.2678 9.75891C27.7989 9.29006 27.163 9.02667 26.5 9.02667ZM12.6217 11.5267C12.5521 11.6528 12.4501 11.758 12.3261 11.8312C12.2021 11.9044 12.0607 11.9431 11.9167 11.9431C11.7727 11.9431 11.6313 11.9044 11.5073 11.8312C11.3833 11.758 11.2812 11.6528 11.2117 11.5267C11.1315 11.4022 11.0871 11.258 11.0833 11.11C11.0841 10.9925 11.1103 10.8765 11.16 10.77C11.2254 10.6237 11.3315 10.4994 11.4657 10.4119C11.5999 10.3244 11.7565 10.2775 11.9167 10.2767C12.0604 10.2783 12.2011 10.3177 12.3248 10.3908C12.4486 10.4639 12.5509 10.5682 12.6217 10.6933C12.7018 10.8178 12.7462 10.962 12.75 11.11C12.7462 11.258 12.7018 11.4022 12.6217 11.5267ZM15.5383 11.5267C15.4688 11.6528 15.3667 11.758 15.2427 11.8312C15.1187 11.9044 14.9773 11.9431 14.8333 11.9431C14.6893 11.9431 14.5479 11.9044 14.4239 11.8312C14.2999 11.758 14.1979 11.6528 14.1283 11.5267C14.0482 11.4022 14.0038 11.258 14 11.11C14.0038 10.962 14.0482 10.8178 14.1283 10.6933C14.1979 10.5672 14.2999 10.462 14.4239 10.3888C14.5479 10.3156 14.6893 10.2769 14.8333 10.2769C14.9773 10.2769 15.1187 10.3156 15.2427 10.3888C15.3667 10.462 15.4688 10.5672 15.5383 10.6933C15.6185 10.8178 15.6629 10.962 15.6667 11.11C15.6629 11.258 15.6185 11.4022 15.5383 11.5267ZM18.455 11.5267C18.3855 11.6528 18.2834 11.758 18.1594 11.8312C18.0354 11.9044 17.894 11.9431 17.75 11.9431C17.606 11.9431 17.4646 11.9044 17.3406 11.8312C17.2166 11.758 17.1145 11.6528 17.045 11.5267C16.9648 11.4022 16.9204 11.258 16.9167 11.11C16.9204 10.962 16.9648 10.8178 17.045 10.6933C17.1145 10.5672 17.2166 10.462 17.3406 10.3888C17.4646 10.3156 17.606 10.2769 17.75 10.2769C17.894 10.2769 18.0354 10.3156 18.1594 10.3888C18.2834 10.462 18.3855 10.5672 18.455 10.6933C18.5352 10.8178 18.5796 10.962 18.5833 11.11C18.5796 11.258 18.5352 11.4022 18.455 11.5267Z" fill="#C18AFF"/>
</g>
<defs>
<clipPath id="clip0_13869_118215">
<rect width="20" height="20" fill="white" transform="translate(9 9)"/>
</clipPath>
</defs>
</svg>
