<svg width="38" height="38" viewBox="0 0 38 38" fill="none" xmlns="http://www.w3.org/2000/svg">
<circle opacity="0.2" cx="19" cy="19" r="19" fill="#6967E0"/>
<path d="M26.9669 13.8783L22.4543 9.36583C22.2195 9.1325 21.9021 9.00107 21.571 9H11.916C11.5845 9 11.2666 9.1317 11.0321 9.36612C10.7977 9.60054 10.666 9.91848 10.666 10.25V27.75C10.666 28.0815 10.7977 28.3995 11.0321 28.6339C11.2666 28.8683 11.5845 29 11.916 29H26.916C27.0265 29 27.1325 28.9561 27.2106 28.878C27.2888 28.7998 27.3327 28.6938 27.3327 28.5833V14.7617C27.3331 14.5976 27.301 14.435 27.2382 14.2834C27.1754 14.1318 27.0832 13.9941 26.9669 13.8783ZM17.1802 18.3192L14.3718 17.2692C13.9882 17.0862 13.6683 16.7925 13.4533 16.4259C13.2384 16.0592 13.1383 15.6366 13.166 15.2125C13.1624 14.6857 13.3562 14.1766 13.7093 13.7856C14.0623 13.3946 14.5491 13.15 15.0735 13.1C15.1226 13.0924 15.1674 13.0675 15.1996 13.0297C15.2319 12.9919 15.2495 12.9438 15.2493 12.8942V12.3333C15.2493 12.1123 15.3371 11.9004 15.4934 11.7441C15.6497 11.5878 15.8617 11.5 16.0827 11.5C16.3037 11.5 16.5157 11.5878 16.6719 11.7441C16.8282 11.9004 16.916 12.1123 16.916 12.3333V12.8542C16.916 12.9094 16.938 12.9624 16.977 13.0015C17.0161 13.0406 17.0691 13.0625 17.1243 13.0625H18.166C18.387 13.0625 18.599 13.1503 18.7553 13.3066C18.9116 13.4629 18.9993 13.6748 18.9993 13.8958C18.9993 14.1168 18.9116 14.3288 18.7553 14.4851C18.599 14.6414 18.387 14.7292 18.166 14.7292H15.5618C14.8327 14.7292 14.8327 15.0925 14.8327 15.2125C14.8194 15.3954 14.8737 15.5769 14.9852 15.7225L17.7935 16.7725C18.1778 16.9557 18.4982 17.2501 18.7132 17.6175C18.9282 17.985 19.0279 18.4086 18.9993 18.8333C19.0019 19.3594 18.8076 19.8675 18.4547 20.2576C18.1017 20.6477 17.6156 20.8917 17.0918 20.9417C17.0428 20.9492 16.998 20.9742 16.9657 21.012C16.9335 21.0497 16.9158 21.0978 16.916 21.1475V21.7083C16.916 21.9293 16.8282 22.1413 16.6719 22.2976C16.5157 22.4539 16.3037 22.5417 16.0827 22.5417C15.8617 22.5417 15.6497 22.4539 15.4934 22.2976C15.3371 22.1413 15.2493 21.9293 15.2493 21.7083V21.1875C15.2493 21.1322 15.2274 21.0793 15.1883 21.0402C15.1493 21.0011 15.0963 20.9792 15.041 20.9792H13.9993C13.7783 20.9792 13.5664 20.8914 13.4101 20.7351C13.2538 20.5788 13.166 20.3668 13.166 20.1458C13.166 19.9248 13.2538 19.7129 13.4101 19.5566C13.5664 19.4003 13.7783 19.3125 13.9993 19.3125H16.6035C17.3327 19.3125 17.3327 18.9492 17.3327 18.8292C17.3459 18.6462 17.2917 18.4648 17.1802 18.3192ZM24.416 21.2917C24.5818 21.2917 24.7407 21.3575 24.858 21.4747C24.9752 21.5919 25.041 21.7509 25.041 21.9167C25.041 22.0824 24.9752 22.2414 24.858 22.3586C24.7407 22.4758 24.5818 22.5417 24.416 22.5417H20.2493C20.0836 22.5417 19.9246 22.4758 19.8074 22.3586C19.6902 22.2414 19.6243 22.0824 19.6243 21.9167C19.6243 21.7509 19.6902 21.5919 19.8074 21.4747C19.9246 21.3575 20.0836 21.2917 20.2493 21.2917H24.416ZM21.291 18.1667C21.291 18.0009 21.3569 17.8419 21.4741 17.7247C21.5913 17.6075 21.7503 17.5417 21.916 17.5417H24.416C24.5818 17.5417 24.7407 17.6075 24.858 17.7247C24.9752 17.8419 25.041 18.0009 25.041 18.1667C25.041 18.3324 24.9752 18.4914 24.858 18.6086C24.7407 18.7258 24.5818 18.7917 24.416 18.7917H21.916C21.7503 18.7917 21.5913 18.7258 21.4741 18.6086C21.3569 18.4914 21.291 18.3324 21.291 18.1667ZM24.416 25.0417C24.5818 25.0417 24.7407 25.1075 24.858 25.2247C24.9752 25.3419 25.041 25.5009 25.041 25.6667C25.041 25.8324 24.9752 25.9914 24.858 26.1086C24.7407 26.2258 24.5818 26.2917 24.416 26.2917H16.0827C15.9169 26.2917 15.758 26.2258 15.6407 26.1086C15.5235 25.9914 15.4577 25.8324 15.4577 25.6667C15.4577 25.5009 15.5235 25.3419 15.6407 25.2247C15.758 25.1075 15.9169 25.0417 16.0827 25.0417H24.416Z" fill="#6967E0"/>
</svg>
