<svg width="38" height="38" viewBox="0 0 38 38" fill="none" xmlns="http://www.w3.org/2000/svg">
<circle opacity="0.2" cx="19" cy="19" r="19" fill="#FFB169"/>
<g clip-path="url(#clip0_17620_134306)">
<path d="M24.3078 17.6442V14.9227C24.3078 13.4529 23.724 12.0434 22.6847 11.0041C21.6455 9.96486 20.2359 9.38101 18.7662 9.38101C17.2964 9.38101 15.8869 9.96486 14.8476 11.0041C13.8084 12.0434 13.2245 13.4529 13.2245 14.9227V17.6442C12.5483 17.9835 11.9794 18.5035 11.5809 19.1465C11.1823 19.7896 10.9698 20.5305 10.9668 21.287V24.9814C10.9679 26.0698 11.4007 27.1133 12.1703 27.8828C12.9399 28.6524 13.9834 29.0853 15.0717 29.0864H22.4606C23.549 29.0853 24.5925 28.6524 25.3621 27.8828C26.1316 27.1133 26.5645 26.0698 26.5656 24.9814V21.287C26.5626 20.5305 26.35 19.7896 25.9515 19.1465C25.553 18.5035 24.984 17.9835 24.3078 17.6442ZM20.4082 22.8895C20.4082 23.2143 20.3119 23.5317 20.1314 23.8018C19.951 24.0718 19.6946 24.2822 19.3945 24.4065C19.0945 24.5308 18.7644 24.5633 18.4458 24.5C18.1273 24.4366 17.8348 24.2802 17.6051 24.0506C17.3755 23.821 17.2191 23.5284 17.1558 23.2099C17.0924 22.8914 17.1249 22.5612 17.2492 22.2612C17.3735 21.9611 17.5839 21.7047 17.8539 21.5243C18.124 21.3439 18.4414 21.2476 18.7662 21.2476C19.2017 21.2476 19.6193 21.4206 19.9272 21.7285C20.2352 22.0364 20.4082 22.4541 20.4082 22.8895ZM18.7662 11.4351C19.6911 11.4362 20.5778 11.8041 21.2319 12.458C21.886 13.1119 22.2541 13.9986 22.2554 14.9235V16.7715C22.2554 16.8804 22.2121 16.9848 22.1351 17.0618C22.0582 17.1388 21.9538 17.182 21.8449 17.182H15.6875C15.5786 17.182 15.4742 17.1388 15.3972 17.0618C15.3202 16.9848 15.277 16.8804 15.277 16.7715V14.9227C15.2785 13.9979 15.6467 13.1115 16.3007 12.4577C16.9548 11.8039 17.8414 11.4362 18.7662 11.4351Z" fill="#FFB169"/>
</g>
<defs>
<clipPath id="clip0_17620_134306">
<rect width="19.7037" height="19.7037" fill="white" transform="translate(8.91406 9.38272)"/>
</clipPath>
</defs>
</svg>
