<svg width="38" height="38" viewBox="0 0 38 38" fill="none" xmlns="http://www.w3.org/2000/svg">
<circle opacity="0.2" cx="19" cy="19" r="19" fill="#6967E0"/>
<path d="M12.0657 13.75H25.9338C25.9962 13.75 26.0578 13.7351 26.1135 13.7067C26.1691 13.6783 26.2172 13.6371 26.2539 13.5865C26.2906 13.536 26.3148 13.4774 26.3245 13.4157C26.3342 13.354 26.3292 13.2909 26.3098 13.2315C25.4912 10.7417 22.4893 9 18.9997 9C15.5102 9 12.5083 10.7417 11.6897 13.2315C11.6703 13.2909 11.6653 13.354 11.675 13.4157C11.6847 13.4774 11.7089 13.536 11.7456 13.5865C11.7823 13.6371 11.8304 13.6783 11.886 13.7067C11.9417 13.7351 12.0032 13.75 12.0657 13.75ZM27.9058 28C28.0632 28 28.2142 27.9374 28.3256 27.8261C28.4369 27.7147 28.4995 27.5637 28.4995 27.4062C28.4995 27.2488 28.4369 27.0978 28.3256 26.9864C28.2142 26.8751 28.0632 26.8125 27.9058 26.8125H27.5226C27.4542 26.8125 27.3869 26.7948 27.3274 26.7611C27.2679 26.7274 27.2181 26.6788 27.183 26.6201L26.4642 25.4215C26.429 25.3629 26.3792 25.3143 26.3197 25.2806C26.2602 25.2469 26.193 25.2292 26.1246 25.2292H11.8749C11.8065 25.2292 11.7393 25.2469 11.6798 25.2806C11.6202 25.3143 11.5705 25.3629 11.5353 25.4215L10.8165 26.6201C10.7813 26.6788 10.7316 26.7274 10.6721 26.7611C10.6125 26.7948 10.5453 26.8125 10.4769 26.8125H10.0937C9.93627 26.8125 9.78525 26.8751 9.6739 26.9864C9.56255 27.0978 9.5 27.2488 9.5 27.4062C9.5 27.5637 9.56255 27.7147 9.6739 27.8261C9.78525 27.9374 9.93627 28 10.0937 28H27.9058Z" fill="#6967E0"/>
<path d="M13.8541 18.5H12.2708C12.0522 18.5 11.875 18.6772 11.875 18.8958V24.0417C11.875 24.2603 12.0522 24.4375 12.2708 24.4375H13.8541C14.0727 24.4375 14.2499 24.2603 14.2499 24.0417V18.8958C14.2499 18.6772 14.0727 18.5 13.8541 18.5Z" fill="#6967E0"/>
<path d="M17.8121 18.5H16.2288C16.0102 18.5 15.833 18.6772 15.833 18.8958V24.0417C15.833 24.2603 16.0102 24.4375 16.2288 24.4375H17.8121C18.0307 24.4375 18.2079 24.2603 18.2079 24.0417V18.8958C18.2079 18.6772 18.0307 18.5 17.8121 18.5Z" fill="#6967E0"/>
<path d="M21.7701 18.5H20.1868C19.9682 18.5 19.791 18.6772 19.791 18.8958V24.0417C19.791 24.2603 19.9682 24.4375 20.1868 24.4375H21.7701C21.9887 24.4375 22.166 24.2603 22.166 24.0417V18.8958C22.166 18.6772 21.9887 18.5 21.7701 18.5Z" fill="#6967E0"/>
<path d="M25.7291 18.5H24.1458C23.9272 18.5 23.75 18.6772 23.75 18.8958V24.0417C23.75 24.2603 23.9272 24.4375 24.1458 24.4375H25.7291C25.9477 24.4375 26.1249 24.2603 26.1249 24.0417V18.8958C26.1249 18.6772 25.9477 18.5 25.7291 18.5Z" fill="#6967E0"/>
<path d="M11.0139 17.1676C11.0665 17.3251 11.1673 17.462 11.302 17.559C11.4366 17.656 11.5984 17.7083 11.7644 17.7084H26.2357C26.4019 17.7084 26.5639 17.6561 26.6987 17.5589C26.8336 17.4617 26.9344 17.3246 26.9869 17.1669L27.5142 15.5835C27.5538 15.4646 27.5646 15.3379 27.5457 15.214C27.5268 15.09 27.4787 14.9724 27.4054 14.8706C27.3321 14.7689 27.2358 14.686 27.1242 14.6288C27.0126 14.5717 26.8891 14.5418 26.7637 14.5417H11.2364C11.111 14.5418 10.9874 14.5717 10.8759 14.6288C10.7643 14.686 10.6679 14.7689 10.5946 14.8706C10.5213 14.9724 10.4733 15.09 10.4544 15.214C10.4355 15.3379 10.4463 15.4646 10.4859 15.5835L11.0139 17.1676Z" fill="#6967E0"/>
</svg>
