<svg width="38" height="38" viewBox="0 0 38 38" fill="none" xmlns="http://www.w3.org/2000/svg">
<circle opacity="0.2" cx="19" cy="19" r="19" fill="#40E395"/>
<g clip-path="url(#clip0_17620_134643)">
<path d="M29 12.1711C29 11.3975 28.6927 10.6556 28.1457 10.1087C27.5988 9.56169 26.8569 9.2544 26.0833 9.2544H11.9167C11.5298 9.25408 11.1467 9.33101 10.79 9.48069C10.4333 9.63038 10.11 9.84979 9.83917 10.1261C9.79237 10.1587 9.75314 10.2011 9.72417 10.2502C9.25686 10.7809 8.99935 11.4639 9 12.1711V23.0044C9.03064 23.8015 9.31412 24.5682 9.8094 25.1935C10.3047 25.8188 10.9861 26.2704 11.755 26.4827L21.0542 28.6669C21.2646 28.7173 21.4803 28.743 21.6967 28.7436C22.2147 28.7498 22.7193 28.5786 23.1267 28.2586C23.4099 28.0269 23.636 27.7332 23.7875 27.4001C23.9389 27.067 24.0117 26.7035 24 26.3377V24.2544V18.2602C23.9989 17.4851 23.7443 16.7317 23.275 16.1148C22.8058 15.4979 22.1475 15.0514 21.4008 14.8436L12.38 12.3561C12.3009 12.3342 12.227 12.2969 12.1623 12.2465C12.0976 12.196 12.0435 12.1332 12.0031 12.0619C11.9626 11.9905 11.9367 11.9118 11.9266 11.8304C11.9166 11.749 11.9227 11.6664 11.9446 11.5873C11.9665 11.5082 12.0037 11.4343 12.0542 11.3696C12.1047 11.3049 12.1674 11.2508 12.2388 11.2104C12.3102 11.17 12.3888 11.144 12.4702 11.1339C12.5517 11.1239 12.6343 11.13 12.7133 11.1519C12.7133 11.1519 15.3375 11.8769 15.63 11.9569C15.6476 11.9619 15.6659 11.9644 15.6842 11.9644H26.0825C26.2483 11.9644 26.4072 12.0302 26.5244 12.1475C26.6417 12.2647 26.7075 12.4236 26.7075 12.5894C26.7075 12.7552 26.6417 12.9141 26.5244 13.0313C26.4072 13.1485 26.2483 13.2144 26.0825 13.2144H21.7208C21.6704 13.2143 21.6216 13.2325 21.5836 13.2656C21.5455 13.2988 21.5208 13.3446 21.514 13.3946C21.5072 13.4445 21.5187 13.4953 21.5465 13.5374C21.5743 13.5795 21.6164 13.6101 21.665 13.6236L21.7367 13.6427C22.6858 13.9065 23.53 14.4575 24.1533 15.2202C24.1735 15.2448 24.199 15.2646 24.2278 15.278C24.2567 15.2914 24.2882 15.2982 24.32 15.2977H26.0833C26.2491 15.2977 26.4081 15.3636 26.5253 15.4808C26.6425 15.598 26.7083 15.757 26.7083 15.9227C26.7083 16.0885 26.6425 16.2475 26.5253 16.3647C26.4081 16.4819 26.2491 16.5477 26.0833 16.5477H25.2183C25.186 16.5479 25.1542 16.5554 25.1253 16.5699C25.0963 16.5844 25.0712 16.6053 25.0517 16.6311C25.0323 16.6576 25.0196 16.6884 25.0145 16.7209C25.0094 16.7533 25.0122 16.7865 25.0225 16.8177C25.1756 17.283 25.2547 17.7695 25.2567 18.2594V24.0452C25.2567 24.1005 25.2786 24.1535 25.3177 24.1925C25.3568 24.2316 25.4097 24.2536 25.465 24.2536H26.0833C26.8569 24.2536 27.5988 23.9463 28.1457 23.3993C28.6927 22.8523 29 22.1104 29 21.3369V12.1711ZM21.9167 21.7544C21.9167 22.084 21.8189 22.4063 21.6358 22.6803C21.4526 22.9544 21.1924 23.168 20.8878 23.2942C20.5833 23.4203 20.2482 23.4533 19.9249 23.389C19.6016 23.3247 19.3046 23.166 19.0715 22.9329C18.8384 22.6998 18.6797 22.4028 18.6154 22.0795C18.5511 21.7562 18.5841 21.4211 18.7102 21.1166C18.8363 20.812 19.05 20.5518 19.3241 20.3686C19.5981 20.1855 19.9204 20.0877 20.25 20.0877C20.692 20.0877 21.116 20.2633 21.4285 20.5759C21.7411 20.8884 21.9167 21.3124 21.9167 21.7544Z" fill="#40E395"/>
</g>
<defs>
<clipPath id="clip0_17620_134643">
<rect width="20" height="20" fill="white" transform="translate(9 9)"/>
</clipPath>
</defs>
</svg>
