<svg width="38" height="38" viewBox="0 0 38 38" fill="none" xmlns="http://www.w3.org/2000/svg">
<circle opacity="0.2" cx="19" cy="19" r="19" fill="#C18AFF"/>
<path d="M20.8957 20.1543C20.9393 20.1542 20.982 20.141 21.0181 20.1165C21.0542 20.092 21.0822 20.0572 21.0983 20.0166C21.1145 19.9761 21.1182 19.9316 21.1089 19.889C21.0996 19.8463 21.0777 19.8074 21.0461 19.7773C20.3675 19.125 19.5552 18.6281 18.6655 18.3211C19.6612 17.8258 20.4598 17.0077 20.9307 16.0001C21.4016 14.9926 21.5171 13.8552 21.2583 12.7736C20.9995 11.6919 20.3818 10.73 19.5059 10.0446C18.63 9.35932 17.5476 8.99113 16.4355 9.00016C15.3234 9.00919 14.2472 9.39491 13.3825 10.0944C12.5178 10.7938 11.9158 11.7657 11.6746 12.8514C11.4335 13.9371 11.5674 15.0725 12.0546 16.0722C12.5418 17.072 13.3535 17.8771 14.3572 18.3561C13.0838 18.8108 11.9819 19.6476 11.202 20.7521C10.4221 21.8567 10.0023 23.1751 10 24.5272C10 24.6432 10.0461 24.7544 10.1281 24.8364C10.2101 24.9184 10.3213 24.9645 10.4373 24.9645H17.8713C17.9873 24.9645 18.0985 24.9184 18.1805 24.8364C18.2625 24.7544 18.3086 24.6432 18.3086 24.5272V21.9034C18.3086 21.4395 18.4929 20.9946 18.8209 20.6666C19.149 20.3385 19.5939 20.1543 20.0578 20.1543H20.8957ZM17.2154 22.2314C17.2154 22.4054 17.1463 22.5722 17.0233 22.6952C16.9002 22.8182 16.7334 22.8874 16.5594 22.8874C16.3855 22.8874 16.2186 22.8182 16.0956 22.6952C15.9726 22.5722 15.9035 22.4054 15.9035 22.2314V20.784C15.9035 20.61 15.9726 20.4431 16.0956 20.3201C16.2186 20.1971 16.3855 20.128 16.5594 20.128C16.7334 20.128 16.9002 20.1971 17.0233 20.3201C17.1463 20.4431 17.2154 20.61 17.2154 20.784V22.2314ZM16.472 17.0932C15.6326 17.0916 14.828 16.7572 14.2347 16.1634C13.6414 15.5696 13.3078 14.7648 13.3068 13.9254C13.3087 13.5146 13.3929 13.1084 13.5543 12.7307C13.5678 12.7009 13.5878 12.6744 13.6128 12.6532C13.6378 12.6321 13.6672 12.6167 13.6988 12.6084C13.7305 12.6 13.7636 12.5988 13.7958 12.6048C13.828 12.6108 13.8585 12.624 13.8849 12.6433C15.0269 13.4794 16.4053 13.9303 17.8206 13.9307C18.3512 13.9293 18.8798 13.8641 19.3949 13.7365C19.4241 13.7292 19.4547 13.7288 19.4841 13.7354C19.5136 13.7419 19.5411 13.7551 19.5645 13.7741C19.5883 13.7925 19.6074 13.8161 19.6206 13.8431C19.6338 13.8701 19.6407 13.8997 19.6406 13.9298C19.6385 14.769 19.3039 15.5732 18.7099 16.1662C18.116 16.7591 17.3112 17.0925 16.472 17.0932Z" fill="#C18AFF"/>
<path d="M28.4917 22.1741C28.4917 21.8637 28.3666 21.5661 28.144 21.3466C27.9214 21.1272 27.6195 21.0039 27.3047 21.0039H20.183C19.8682 21.0039 19.5663 21.1272 19.3437 21.3466C19.1211 21.5661 18.9961 21.8637 18.9961 22.1741V27.83C18.9961 28.1403 19.1211 28.438 19.3437 28.6574C19.5663 28.8769 19.8682 29.0002 20.183 29.0002H27.3047C27.6195 29.0002 27.9214 28.8769 28.144 28.6574C28.3666 28.438 28.4917 28.1403 28.4917 27.83V22.1741ZM22.8157 21.784C22.8487 21.725 22.8972 21.6758 22.956 21.6415C23.0149 21.6072 23.082 21.5891 23.1504 21.5891C23.2188 21.5891 23.2859 21.6072 23.3448 21.6415C23.4037 21.6758 23.4521 21.725 23.4851 21.784C23.5232 21.8423 23.5443 21.9098 23.5461 21.9791C23.5442 22.0483 23.5231 22.1158 23.4851 22.1741C23.4521 22.2331 23.4037 22.2824 23.3448 22.3166C23.2859 22.3509 23.2188 22.369 23.1504 22.369C23.082 22.369 23.0149 22.3509 22.956 22.3166C22.8972 22.2824 22.8487 22.2331 22.8157 22.1741C22.7777 22.1158 22.7566 22.0483 22.7548 21.9791C22.7565 21.9098 22.7776 21.8423 22.8157 21.784ZM21.4309 21.784C21.4639 21.725 21.5124 21.6758 21.5713 21.6415C21.6301 21.6072 21.6973 21.5891 21.7656 21.5891C21.834 21.5891 21.9011 21.6072 21.96 21.6415C22.0189 21.6758 22.0673 21.725 22.1004 21.784C22.1384 21.8423 22.1595 21.9098 22.1613 21.9791C22.1594 22.0483 22.1384 22.1158 22.1004 22.1741C22.0673 22.2331 22.0189 22.2824 21.96 22.3166C21.9011 22.3509 21.834 22.369 21.7656 22.369C21.6973 22.369 21.6301 22.3509 21.5713 22.3166C21.5124 22.2824 21.4639 22.2331 21.4309 22.1741C21.3929 22.1158 21.3718 22.0483 21.37 21.9791C21.3718 21.9098 21.3929 21.8423 21.4309 21.784ZM20.0216 21.8195C20.0527 21.7511 20.1031 21.693 20.1668 21.6521C20.2305 21.6113 20.3048 21.5893 20.3809 21.589C20.4491 21.5897 20.516 21.6081 20.5747 21.6423C20.6335 21.6766 20.6821 21.7254 20.7156 21.784C20.7536 21.8423 20.7747 21.9098 20.7765 21.9791C20.7747 22.0483 20.7536 22.1158 20.7156 22.1741C20.6826 22.2331 20.6341 22.2824 20.5752 22.3166C20.5164 22.3509 20.4492 22.369 20.3809 22.369C20.3125 22.369 20.2454 22.3509 20.1865 22.3166C20.1276 22.2824 20.0792 22.2331 20.0461 22.1741C20.0081 22.1158 19.9871 22.0483 19.9852 21.9791C19.9856 21.9239 19.998 21.8695 20.0216 21.8195ZM27.7004 27.83C27.7004 27.9334 27.6587 28.0327 27.5845 28.1058C27.5103 28.179 27.4096 28.22 27.3047 28.22H20.183C20.0781 28.22 19.9775 28.179 19.9033 28.1058C19.8291 28.0327 19.7874 27.9334 19.7874 27.83V23.0513C19.7874 23.0255 19.7978 23.0007 19.8164 22.9824C19.8349 22.9641 19.8601 22.9538 19.8863 22.9538H27.6015C27.6277 22.9538 27.6528 22.9641 27.6714 22.9824C27.6899 23.0007 27.7004 23.0255 27.7004 23.0513V27.83Z" fill="#C18AFF"/>
</svg>
