<svg width="38" height="38" viewBox="0 0 38 38" fill="none" xmlns="http://www.w3.org/2000/svg">
<circle opacity="0.2" cx="19" cy="19" r="19" fill="#5ABAFF"/>
<path d="M26.1359 25.5747C25.8776 25.5887 25.6205 25.5311 25.3937 25.4085C25.1669 25.286 24.9796 25.1033 24.8529 24.8813C24.8413 24.8639 24.8249 24.8501 24.8057 24.8415C24.7865 24.8329 24.7652 24.8299 24.7443 24.8328C24.7234 24.8357 24.7037 24.8443 24.6876 24.8578C24.6715 24.8712 24.6596 24.8889 24.6533 24.9087L23.9448 27.1277C23.8946 27.2595 23.8041 27.3728 23.6858 27.452C23.5675 27.5311 23.4272 27.5721 23.2842 27.5695C23.1412 27.5668 23.0025 27.5205 22.8874 27.4371C22.7722 27.3536 22.6861 27.237 22.6411 27.1033L21.5963 23.2734C21.5898 23.2496 21.5754 23.2286 21.5554 23.2137C21.5354 23.1989 21.5109 23.191 21.4859 23.1914C21.4608 23.1918 21.4366 23.2005 21.4171 23.216C21.3976 23.2315 21.384 23.2529 21.3783 23.277C21.2755 23.8522 21.094 24.4111 20.8388 24.9383C20.7207 25.1483 20.5434 25.3202 20.3282 25.4331C20.113 25.546 19.8693 25.5952 19.6264 25.5747H17.5107C17.7233 26.8121 18.3741 27.9354 19.3478 28.7455C20.3215 29.5555 21.5551 29.9999 22.8299 29.9999C24.1047 29.9999 25.3383 29.5555 26.312 28.7455C27.2856 27.9354 27.9365 26.8121 28.149 25.5747H26.1359Z" fill="#5ABAFF"/>
<path d="M19.6712 24.5864C20.0857 24.5864 20.1198 24.5864 20.5192 23.0344C20.6105 22.6805 20.7177 22.2635 20.8538 21.7742C20.8963 21.6397 20.9825 21.5226 21.0993 21.4408C21.216 21.359 21.3568 21.3171 21.5001 21.3214C21.6436 21.3175 21.7844 21.3599 21.9008 21.4423C22.0173 21.5247 22.103 21.6423 22.1446 21.7772L23.2084 25.6638C23.2145 25.6866 23.228 25.7069 23.2469 25.7215C23.2657 25.7361 23.2889 25.7443 23.3129 25.7448C23.3369 25.7453 23.3605 25.738 23.3799 25.7242C23.3994 25.7104 23.4137 25.6907 23.4208 25.6681L24.0174 23.8028C24.0611 23.6802 24.1416 23.5735 24.2483 23.4966C24.3549 23.4198 24.4827 23.3764 24.6149 23.3722C24.7431 23.3626 24.8714 23.3892 24.9848 23.4488C25.0981 23.5084 25.1917 23.5986 25.2545 23.7087C25.2989 23.7932 25.3432 23.8755 25.3809 23.9547C25.6384 24.4645 25.7133 24.5851 26.0901 24.5851H28.149C28.1489 23.1996 27.5883 21.8709 26.5906 20.8914C25.593 19.9119 24.24 19.3616 22.8292 19.3618C21.4185 19.362 20.0656 19.9125 19.0682 20.8923C18.0708 21.8721 17.5106 23.2009 17.5107 24.5864H19.6712Z" fill="#5ABAFF"/>
<path d="M24.6383 10H11.234C10.6415 10 10.0733 10.2354 9.65434 10.6543C9.23537 11.0733 9 11.6415 9 12.234V23.0319C9 23.6244 9.23537 24.1927 9.65434 24.6116C10.0733 25.0306 10.6415 25.266 11.234 25.266H16.0745C16.272 25.266 16.4614 25.1875 16.601 25.0478C16.7407 24.9082 16.8191 24.7188 16.8191 24.5213C16.8191 24.3238 16.7407 24.1344 16.601 23.9947C16.4614 23.8551 16.272 23.7766 16.0745 23.7766H11.234C11.0365 23.7766 10.8471 23.6981 10.7075 23.5585C10.5678 23.4188 10.4894 23.2294 10.4894 23.0319V13.9103C10.4893 13.8858 10.494 13.8615 10.5033 13.8388C10.5126 13.8162 10.5263 13.7956 10.5436 13.7782C10.5609 13.7608 10.5815 13.747 10.6041 13.7376C10.6268 13.7282 10.651 13.7234 10.6755 13.7234H25.1968C25.2462 13.7234 25.2935 13.743 25.3285 13.7779C25.3634 13.8128 25.383 13.8602 25.383 13.9096V18.1915C25.383 18.389 25.4614 18.5784 25.6011 18.7181C25.7407 18.8577 25.9302 18.9362 26.1277 18.9362C26.3252 18.9362 26.5146 18.8577 26.6542 18.7181C26.7939 18.5784 26.8723 18.389 26.8723 18.1915V12.234C26.8723 11.6415 26.637 11.0733 26.218 10.6543C25.799 10.2354 25.2308 10 24.6383 10V10ZM12.2364 12.234C12.1743 12.3468 12.083 12.4407 11.9722 12.5062C11.8614 12.5716 11.7351 12.6062 11.6064 12.6062C11.4777 12.6062 11.3513 12.5716 11.2405 12.5062C11.1297 12.4407 11.0385 12.3468 10.9764 12.234C10.9048 12.1227 10.8652 11.994 10.8617 11.8617C10.8625 11.7564 10.8858 11.6526 10.9302 11.5571C10.9887 11.4266 11.0836 11.3156 11.2035 11.2376C11.3234 11.1595 11.4633 11.1177 11.6064 11.117C11.7348 11.1184 11.8607 11.1535 11.9713 11.2188C12.0818 11.2842 12.1733 11.3775 12.2364 11.4894C12.308 11.6006 12.3477 11.7294 12.3511 11.8617C12.3476 11.994 12.3079 12.1227 12.2364 12.234ZM14.8428 12.234C14.7806 12.3468 14.6894 12.4407 14.5786 12.5062C14.4678 12.5716 14.3415 12.6062 14.2128 12.6062C14.0841 12.6062 13.9577 12.5716 13.8469 12.5062C13.7361 12.4407 13.6449 12.3468 13.5828 12.234C13.5112 12.1227 13.4716 11.994 13.4681 11.8617C13.4714 11.7294 13.5111 11.6006 13.5828 11.4894C13.6449 11.3767 13.7361 11.2827 13.8469 11.2172C13.9577 11.1518 14.0841 11.1172 14.2128 11.1172C14.3415 11.1172 14.4678 11.1518 14.5786 11.2172C14.6894 11.2827 14.7806 11.3767 14.8428 11.4894C14.9144 11.6006 14.9541 11.7294 14.9574 11.8617C14.954 11.994 14.9143 12.1227 14.8428 12.234ZM17.4491 12.234C17.387 12.3468 17.2958 12.4407 17.185 12.5062C17.0742 12.5716 16.9478 12.6062 16.8191 12.6062C16.6905 12.6062 16.5641 12.5716 16.4533 12.5062C16.3425 12.4407 16.2513 12.3468 16.1891 12.234C16.1176 12.1227 16.0779 11.994 16.0745 11.8617C16.0778 11.7294 16.1175 11.6006 16.1891 11.4894C16.2513 11.3767 16.3425 11.2827 16.4533 11.2172C16.5641 11.1518 16.6905 11.1172 16.8191 11.1172C16.9478 11.1172 17.0742 11.1518 17.185 11.2172C17.2958 11.2827 17.387 11.3767 17.4491 11.4894C17.5208 11.6006 17.5605 11.7294 17.5638 11.8617C17.5604 11.994 17.5207 12.1227 17.4491 12.234Z" fill="#5ABAFF"/>
</svg>
