<svg width="38" height="38" viewBox="0 0 38 38" fill="none" xmlns="http://www.w3.org/2000/svg">
<circle opacity="0.2" cx="19" cy="19" r="19" fill="#FFB169"/>
<path d="M19 20.2451C19.6904 20.2451 20.25 19.6855 20.25 18.9951C20.25 18.3048 19.6904 17.7451 19 17.7451C18.3096 17.7451 17.75 18.3048 17.75 18.9951C17.75 19.6855 18.3096 20.2451 19 20.2451Z" fill="#FFB169"/>
<path d="M18.9993 12.9534C18.6127 12.9538 18.242 13.1076 17.9686 13.381C17.6952 13.6544 17.5415 14.0251 17.541 14.4117V15.4534C17.541 15.5639 17.5849 15.6699 17.6631 15.748C17.7412 15.8261 17.8472 15.87 17.9577 15.87H20.041C20.1515 15.87 20.2575 15.8261 20.3356 15.748C20.4138 15.6699 20.4577 15.5639 20.4577 15.4534V14.4117C20.4572 14.0251 20.3035 13.6544 20.0301 13.381C19.7567 13.1076 19.386 12.9538 18.9993 12.9534Z" fill="#FFB169"/>
<path d="M26.1541 10.4906C26.154 10.3282 26.1059 10.1695 26.0156 10.0346C25.9254 9.89958 25.7972 9.79438 25.6472 9.73226C25.4972 9.67013 25.3322 9.65387 25.1729 9.68554C25.0137 9.7172 24.8674 9.79536 24.7526 9.91015L24.2469 10.4159C24.2082 10.4541 24.156 10.4755 24.1016 10.4755C24.0472 10.4755 23.995 10.4541 23.9563 10.4159L23.04 9.49965C22.8861 9.34574 22.6773 9.25928 22.4596 9.25928C22.2419 9.25928 22.0331 9.34574 21.8792 9.49965L20.963 10.4159C20.9242 10.4541 20.872 10.4755 20.8176 10.4755C20.7632 10.4755 20.711 10.4541 20.6723 10.4159L19.7561 9.49965C19.6021 9.34574 19.3934 9.25928 19.1757 9.25928C18.958 9.25928 18.7492 9.34574 18.5952 9.49965L17.679 10.4159C17.6403 10.4541 17.5881 10.4755 17.5337 10.4755C17.4793 10.4755 17.4271 10.4541 17.3884 10.4159L16.4721 9.49965C16.3182 9.34574 16.1094 9.25928 15.8917 9.25928C15.674 9.25928 15.4652 9.34574 15.3113 9.49965L14.395 10.4159C14.3563 10.4541 14.3041 10.4755 14.2497 10.4755C14.1953 10.4755 14.1431 10.4541 14.1044 10.4159L13.5987 9.91015C13.4839 9.79536 13.3376 9.7172 13.1784 9.68554C13.0191 9.65387 12.8541 9.67013 12.7041 9.73226C12.5541 9.79438 12.4259 9.89958 12.3357 10.0346C12.2455 10.1695 12.1973 10.3282 12.1973 10.4906V27.3914C12.1973 27.5538 12.2455 27.7125 12.3357 27.8475C12.4259 27.9824 12.5541 28.0876 12.7041 28.1498C12.8541 28.2119 13.0191 28.2281 13.1784 28.1965C13.3376 28.1648 13.4839 28.0867 13.5987 27.9719L14.1044 27.4653C14.1431 27.4271 14.1953 27.4057 14.2497 27.4057C14.3041 27.4057 14.3563 27.4271 14.395 27.4653L15.3113 28.3824C15.4652 28.5363 15.674 28.6227 15.8917 28.6227C16.1094 28.6227 16.3182 28.5363 16.4721 28.3824L17.3884 27.4653C17.4271 27.4271 17.4793 27.4057 17.5337 27.4057C17.5881 27.4057 17.6403 27.4271 17.679 27.4653L18.5952 28.3824C18.7492 28.5363 18.958 28.6227 19.1757 28.6227C19.3934 28.6227 19.6021 28.5363 19.7561 28.3824L20.6723 27.4653C20.711 27.4271 20.7632 27.4057 20.8176 27.4057C20.872 27.4057 20.9242 27.4271 20.963 27.4653L21.8792 28.3824C22.0331 28.5363 22.2419 28.6227 22.4596 28.6227C22.6773 28.6227 22.8861 28.5363 23.04 28.3824L23.9563 27.4661C23.9753 27.4469 23.9979 27.4317 24.0229 27.4213C24.0478 27.4109 24.0746 27.4055 24.1016 27.4055C24.1286 27.4055 24.1554 27.4109 24.1803 27.4213C24.2053 27.4317 24.2279 27.4469 24.2469 27.4661L24.7518 27.9719C24.8666 28.0869 25.0129 28.1653 25.1723 28.1972C25.3317 28.229 25.4969 28.2128 25.6471 28.1507C25.7972 28.0885 25.9256 27.9832 26.0158 27.848C26.1061 27.7129 26.1542 27.554 26.1541 27.3914V10.4906ZM20.3505 22.6166C20.307 22.5485 20.2773 22.4725 20.2632 22.393C20.2491 22.3134 20.2507 22.2318 20.2681 22.1529C20.2855 22.074 20.3182 21.9993 20.3645 21.9331C20.4107 21.8668 20.4696 21.8104 20.5377 21.7668C20.6058 21.7233 20.6817 21.6937 20.7613 21.6795C20.8408 21.6654 20.9224 21.6671 21.0013 21.6845C21.0802 21.7018 21.1549 21.7346 21.2212 21.7808C21.2874 21.8271 21.3439 21.886 21.3874 21.954C21.483 22.1045 21.6161 22.2276 21.7737 22.311C21.9312 22.3944 22.1078 22.4353 22.286 22.4297C22.4642 22.4241 22.6379 22.3722 22.7899 22.279C22.9419 22.1859 23.067 22.0548 23.153 21.8985C23.2389 21.7423 23.2826 21.5664 23.2799 21.3881C23.2771 21.2099 23.228 21.0354 23.1373 20.8819C23.0466 20.7284 22.9175 20.6012 22.7627 20.5128C22.6078 20.4244 22.4326 20.3778 22.2544 20.3777C21.6777 20.3766 21.1233 20.1549 20.7049 19.758C20.2865 19.3611 20.0358 18.8192 20.0043 18.2434C19.9728 17.6675 20.1629 17.1015 20.5355 16.6613C20.908 16.2212 21.4349 15.9403 22.0081 15.8763C22.0582 15.8708 22.1046 15.847 22.1382 15.8094C22.1719 15.7718 22.1904 15.7231 22.1903 15.6727V15.3837C22.1903 15.2204 22.2552 15.0637 22.3707 14.9483C22.4861 14.8328 22.6428 14.7679 22.8061 14.7679C22.9694 14.7679 23.126 14.8328 23.2415 14.9483C23.3569 15.0637 23.4218 15.2204 23.4218 15.3837V16.0676C23.422 16.1013 23.4304 16.1344 23.4463 16.1642C23.4621 16.194 23.485 16.2194 23.5129 16.2383C23.7813 16.4184 24.0081 16.6538 24.1779 16.9288C24.2205 16.9976 24.2491 17.0741 24.2622 17.1539C24.2752 17.2337 24.2724 17.3154 24.2538 17.3941C24.2353 17.4729 24.2015 17.5472 24.1542 17.6129C24.1069 17.6785 24.0472 17.7343 23.9784 17.7768C23.9097 17.8194 23.8332 17.8481 23.7533 17.8611C23.6735 17.8741 23.5918 17.8713 23.5131 17.8527C23.4343 17.8342 23.36 17.8004 23.2943 17.7531C23.2287 17.7059 23.1729 17.6461 23.1304 17.5773C23.036 17.4259 22.9037 17.3016 22.7467 17.2169C22.5896 17.1321 22.4132 17.0898 22.2347 17.0941C22.0563 17.0984 21.8821 17.1491 21.7293 17.2413C21.5765 17.3335 21.4503 17.4639 21.3633 17.6197C21.2763 17.7756 21.2315 17.9514 21.2332 18.1298C21.2349 18.3083 21.2831 18.4832 21.3731 18.6374C21.463 18.7915 21.5916 18.9195 21.7462 19.0088C21.9007 19.098 22.0759 19.1454 22.2544 19.1463C22.8321 19.1454 23.3882 19.3662 23.808 19.7632C24.2279 20.1601 24.4795 20.7029 24.5111 21.2798C24.5426 21.8567 24.3517 22.4238 23.9777 22.8641C23.6037 23.3045 23.0751 23.5847 22.5007 23.6469C22.4504 23.6524 22.4039 23.6763 22.3702 23.7141C22.3366 23.7518 22.3181 23.8007 22.3184 23.8513V24.1411C22.3184 24.3044 22.2535 24.4611 22.1381 24.5765C22.0226 24.692 21.866 24.7569 21.7027 24.7569C21.5394 24.7569 21.3827 24.692 21.2673 24.5765C21.1518 24.4611 21.0869 24.3044 21.0869 24.1411V23.4564C21.0869 23.4227 21.0786 23.3894 21.0627 23.3596C21.0469 23.3299 21.0239 23.3044 20.9958 23.2857C20.7365 23.11 20.5167 22.8821 20.3505 22.6166ZM17.9442 20.3777H15.0707C14.9074 20.3777 14.7508 20.3129 14.6353 20.1974C14.5199 20.0819 14.455 19.9253 14.455 19.762C14.455 19.5987 14.5199 19.4421 14.6353 19.3266C14.7508 19.2111 14.9074 19.1463 15.0707 19.1463H17.9442C18.1075 19.1463 18.2641 19.2111 18.3796 19.3266C18.495 19.4421 18.5599 19.5987 18.5599 19.762C18.5599 19.9253 18.495 20.0819 18.3796 20.1974C18.2641 20.3129 18.1075 20.3777 17.9442 20.3777ZM18.1494 23.0459C18.1494 23.2093 18.0846 23.3659 17.9691 23.4813C17.8536 23.5968 17.697 23.6617 17.5337 23.6617H15.0707C14.9074 23.6617 14.7508 23.5968 14.6353 23.4813C14.5199 23.3659 14.455 23.2093 14.455 23.0459C14.455 22.8826 14.5199 22.726 14.6353 22.6106C14.7508 22.4951 14.9074 22.4302 15.0707 22.4302H17.5337C17.697 22.4302 17.8536 22.4951 17.9691 22.6106C18.0846 22.726 18.1494 22.8826 18.1494 23.0459ZM17.9442 17.0938H15.0707C14.9074 17.0938 14.7508 17.0289 14.6353 16.9134C14.5199 16.798 14.455 16.6414 14.455 16.478C14.455 16.3147 14.5199 16.1581 14.6353 16.0427C14.7508 15.9272 14.9074 15.8623 15.0707 15.8623H17.9442C18.1075 15.8623 18.2641 15.9272 18.3796 16.0427C18.495 16.1581 18.5599 16.3147 18.5599 16.478C18.5599 16.6414 18.495 16.798 18.3796 16.9134C18.2641 17.0289 18.1075 17.0938 17.9442 17.0938Z" fill="#FFB169"/>
</svg>
