<svg width="20" height="20" viewBox="0 0 20 20" fill="none" xmlns="http://www.w3.org/2000/svg">
<g clip-path="url(#clip0_13869_117895)">
<path d="M14.5969 9.81002L13.6069 10.8025C13.5274 10.8795 13.4641 10.9715 13.4205 11.0733C13.377 11.175 13.3542 11.2844 13.3534 11.395C13.3526 11.5057 13.3738 11.6154 13.4159 11.7177C13.4579 11.8201 13.5199 11.913 13.5983 11.9912C13.6766 12.0693 13.7697 12.131 13.8722 12.1728C13.9747 12.2145 14.0844 12.2355 14.1951 12.2344C14.3057 12.2332 14.415 12.2101 14.5166 12.1663C14.6182 12.1225 14.7101 12.0589 14.7869 11.9792L15.776 10.9875C16.0618 10.7019 16.4494 10.5414 16.8534 10.5415C17.2575 10.5416 17.645 10.7022 17.9306 10.9879C18.2163 11.2737 18.3767 11.6612 18.3766 12.0653C18.3766 12.4694 18.216 12.8569 17.9302 13.1425L16.9394 14.1333C16.8598 14.2102 16.7963 14.3022 16.7526 14.4038C16.7089 14.5055 16.686 14.6149 16.685 14.7255C16.684 14.8362 16.7051 14.9459 16.747 15.0483C16.7889 15.1507 16.8508 15.2438 16.929 15.322C17.0073 15.4003 17.1003 15.4621 17.2027 15.504C17.3052 15.5459 17.4149 15.567 17.5255 15.5661C17.6362 15.5651 17.7455 15.5421 17.8472 15.4984C17.9489 15.4548 18.0408 15.3913 18.1177 15.3117L19.1085 14.3208C19.4078 14.0253 19.6457 13.6735 19.8085 13.2856C19.9713 12.8978 20.0557 12.4816 20.057 12.0609C20.0583 11.6403 19.9764 11.2236 19.8161 10.8347C19.6557 10.4459 19.42 10.0926 19.1225 9.7952C18.8251 9.49781 18.4717 9.26217 18.0829 9.10186C17.694 8.94155 17.2772 8.85972 16.8566 8.8611C16.436 8.86248 16.0198 8.94703 15.632 9.10988C15.2442 9.27273 14.8924 9.51068 14.5969 9.81002ZM14.2319 16.8425L13.1844 17.89C12.8986 18.1757 12.5111 18.3361 12.107 18.336C11.7029 18.336 11.3155 18.1754 11.0298 17.8896C10.7441 17.6038 10.5837 17.2163 10.5838 16.8122C10.5839 16.4082 10.7444 16.0207 11.0302 15.735L12.0769 14.6875C12.2287 14.5303 12.3127 14.3198 12.3108 14.1013C12.3089 13.8829 12.2212 13.6738 12.0667 13.5193C11.9122 13.3648 11.7032 13.2772 11.4847 13.2753C11.2662 13.2734 11.0557 13.3574 10.8985 13.5092L9.85188 14.5567C9.25987 15.1562 8.92905 15.9655 8.93166 16.808C8.93426 17.6505 9.27006 18.4578 9.86576 19.0536C10.4615 19.6494 11.2687 19.9854 12.1112 19.9882C12.9537 19.9909 13.7631 19.6603 14.3627 19.0684L15.4102 18.0209C15.562 17.8637 15.646 17.6532 15.6441 17.4347C15.6422 17.2162 15.5546 17.0072 15.4001 16.8527C15.2456 16.6982 15.0365 16.6105 14.818 16.6086C14.5995 16.6067 14.389 16.6907 14.2319 16.8425Z" fill="#859BA9"/>
<path d="M16.4523 12.4675C16.296 12.3113 16.0841 12.2235 15.8632 12.2235C15.6422 12.2235 15.4303 12.3113 15.274 12.4675L12.3282 15.4167C12.2486 15.4935 12.1851 15.5855 12.1414 15.6872C12.0977 15.7888 12.0747 15.8982 12.0738 16.0088C12.0728 16.1195 12.0939 16.2292 12.1358 16.3316C12.1777 16.434 12.2396 16.5271 12.3178 16.6053C12.3961 16.6836 12.4891 16.7455 12.5915 16.7874C12.6939 16.8293 12.8037 16.8503 12.9143 16.8494C13.025 16.8484 13.1343 16.8254 13.236 16.7818C13.3377 16.7381 13.4296 16.6746 13.5065 16.595L16.4523 13.6492C16.5302 13.5717 16.592 13.4797 16.6341 13.3783C16.6763 13.2769 16.698 13.1681 16.698 13.0583C16.698 12.9485 16.6763 12.8398 16.6341 12.7384C16.592 12.637 16.5302 12.5449 16.4523 12.4675ZM6.22149 15.4167H2.45898C2.23797 15.4167 2.02601 15.3289 1.86973 15.1726C1.71345 15.0163 1.62565 14.8043 1.62565 14.5833V4.37583C1.62554 4.3484 1.63085 4.32122 1.64127 4.29585C1.65169 4.27048 1.66702 4.24741 1.68638 4.22798C1.70573 4.20855 1.72874 4.19313 1.75407 4.18261C1.7794 4.17208 1.80656 4.16667 1.83398 4.16667H18.084C18.1392 4.16667 18.1922 4.18862 18.2313 4.22769C18.2704 4.26676 18.2923 4.31975 18.2923 4.375V7.09667C18.2904 7.31768 18.3764 7.53039 18.5314 7.688C18.6863 7.84561 18.8976 7.93521 19.1186 7.93708C19.3396 7.93896 19.5523 7.85297 19.7099 7.69802C19.8675 7.54306 19.9571 7.33185 19.959 7.11083V2.5C19.959 1.83696 19.6956 1.20107 19.2268 0.732233C18.7579 0.263392 18.122 0 17.459 0L2.45898 0C1.79594 0 1.16006 0.263392 0.691218 0.732233C0.222377 1.20107 -0.0410156 1.83696 -0.0410156 2.5V14.5833C-0.0410156 15.2464 0.222377 15.8823 0.691218 16.3511C1.16006 16.8199 1.79594 17.0833 2.45898 17.0833H6.22649C6.4475 17.0827 6.6592 16.9942 6.81501 16.8375C6.97082 16.6807 7.05798 16.4685 7.05732 16.2475C7.05666 16.0265 6.96822 15.8148 6.81147 15.659C6.65472 15.5032 6.4425 15.416 6.22149 15.4167ZM8.00065 1.66667C8.06983 1.53913 8.17216 1.43265 8.29683 1.35844C8.4215 1.28423 8.5639 1.24506 8.70899 1.24506C8.85407 1.24506 8.99647 1.28423 9.12114 1.35844C9.24581 1.43265 9.34814 1.53913 9.41732 1.66667C9.49749 1.79116 9.54189 1.93531 9.54565 2.08333C9.54176 2.23134 9.49737 2.37545 9.41732 2.5C9.34814 2.62753 9.24581 2.73402 9.12114 2.80823C8.99647 2.88244 8.85407 2.92161 8.70899 2.92161C8.5639 2.92161 8.4215 2.88244 8.29683 2.80823C8.17216 2.73402 8.06983 2.62753 8.00065 2.5C7.9212 2.37522 7.87713 2.23121 7.87315 2.08333C7.87701 1.93544 7.92109 1.79139 8.00065 1.66667ZM5.08398 1.66667C5.15316 1.53913 5.25549 1.43265 5.38016 1.35844C5.50484 1.28423 5.64723 1.24506 5.79232 1.24506C5.9374 1.24506 6.0798 1.28423 6.20447 1.35844C6.32915 1.43265 6.43147 1.53913 6.50065 1.66667C6.58082 1.79116 6.62522 1.93531 6.62898 2.08333C6.62509 2.23134 6.58071 2.37545 6.50065 2.5C6.43147 2.62753 6.32915 2.73402 6.20447 2.80823C6.0798 2.88244 5.9374 2.92161 5.79232 2.92161C5.64723 2.92161 5.50484 2.88244 5.38016 2.80823C5.25549 2.73402 5.15316 2.62753 5.08398 2.5C5.00453 2.37522 4.96046 2.23121 4.95649 2.08333C4.96034 1.93544 5.00442 1.79139 5.08398 1.66667ZM2.11648 1.7425C2.18214 1.59601 2.28872 1.4716 2.42339 1.38423C2.55807 1.29686 2.71512 1.25025 2.87565 1.25C3.01996 1.25091 3.16146 1.28992 3.28585 1.36308C3.41023 1.43625 3.51308 1.54098 3.58399 1.66667C3.66416 1.79116 3.70855 1.93531 3.71232 2.08333C3.70843 2.23134 3.66404 2.37545 3.58399 2.5C3.51481 2.62753 3.41248 2.73402 3.28781 2.80823C3.16313 2.88244 3.02074 2.92161 2.87565 2.92161C2.73057 2.92161 2.58817 2.88244 2.4635 2.80823C2.33882 2.73402 2.2365 2.62753 2.16732 2.5C2.08787 2.37522 2.0438 2.23121 2.03982 2.08333C2.04157 1.96564 2.06857 1.8497 2.11898 1.74333L2.11648 1.7425Z" fill="#859BA9"/>
</g>
<defs>
<clipPath id="clip0_13869_117895">
<rect width="20" height="20" fill="white"/>
</clipPath>
</defs>
</svg>
