<svg width="38" height="38" viewBox="0 0 38 38" fill="none" xmlns="http://www.w3.org/2000/svg">
<circle opacity="0.2" cx="19" cy="19" r="19" fill="#6967E0"/>
<path d="M25.7677 25.0876C25.7677 25.1998 25.8123 25.3074 25.8916 25.3867C25.971 25.4661 26.0785 25.5106 26.1907 25.5106H28.5773C28.6465 25.5106 28.7148 25.4935 28.7759 25.4609C28.837 25.4284 28.8893 25.3813 28.9279 25.3238C28.9666 25.2663 28.9906 25.2002 28.9977 25.1313C29.0049 25.0624 28.995 24.9928 28.969 24.9286C28.718 24.3013 28.3027 23.753 27.7669 23.3415C27.231 22.9299 26.5942 22.6701 25.9234 22.5894C25.8532 22.581 25.7821 22.5902 25.7164 22.6163C25.6507 22.6424 25.5926 22.6846 25.5474 22.739C25.5023 22.7933 25.4714 22.8581 25.4577 22.9275C25.444 22.9968 25.448 23.0685 25.4691 23.1359C25.6671 23.7676 25.7678 24.4257 25.7677 25.0876ZM12.9654 23.0995C12.9858 23.0362 12.9909 22.9689 12.9803 22.9032C12.9698 22.8374 12.9439 22.7751 12.9048 22.7213C12.8656 22.6675 12.8143 22.6236 12.755 22.5934C12.6957 22.5631 12.6301 22.5473 12.5635 22.5471H12.5534C11.7956 22.5475 11.0552 22.7746 10.4274 23.1991C9.79966 23.6236 9.31324 24.2262 9.0307 24.9294C9.0048 24.9936 8.99506 25.0632 9.00235 25.1321C9.00963 25.201 9.0337 25.267 9.07246 25.3244C9.11122 25.3818 9.16347 25.4287 9.22463 25.4612C9.28579 25.4937 9.35399 25.5107 9.42324 25.5106H12.2319C12.3441 25.5106 12.4517 25.4661 12.531 25.3867C12.6103 25.3074 12.6549 25.1998 12.6549 25.0876C12.6546 24.4128 12.7594 23.7421 12.9654 23.0995Z" fill="#6967E0"/>
<path d="M17.164 19.8491C17.1969 19.8693 17.2237 19.8981 17.2414 19.9324C17.2591 19.9667 17.2671 20.0052 17.2645 20.0437C17.2618 20.0822 17.2487 20.1193 17.2265 20.1509C17.2044 20.1825 17.1739 20.2075 17.1386 20.223C16.1853 20.63 15.3725 21.308 14.8011 22.1727C14.2296 23.0374 13.9246 24.0509 13.9238 25.0874C13.9238 25.1996 13.9684 25.3072 14.0477 25.3865C14.127 25.4659 14.2346 25.5104 14.3468 25.5104H24.0757C24.1879 25.5104 24.2955 25.4659 24.3748 25.3865C24.4541 25.3072 24.4987 25.1996 24.4987 25.0874C24.4969 24.0494 24.19 23.0347 23.6159 22.1698C23.0419 21.3049 22.2262 20.6279 21.2704 20.223C21.2347 20.2075 21.2039 20.1824 21.1814 20.1506C21.159 20.1188 21.1457 20.0814 21.1431 20.0425C21.1405 20.0036 21.1486 19.9648 21.1666 19.9302C21.1845 19.8957 21.2117 19.8667 21.245 19.8465C21.9996 19.3984 22.586 18.7147 22.914 17.9007C23.2421 17.0867 23.2936 16.1875 23.0607 15.3413C22.8278 14.4952 22.3233 13.749 21.6249 13.2175C20.9265 12.6861 20.0728 12.3988 19.1952 12.3999C18.3176 12.401 17.4647 12.6904 16.7676 13.2236C16.0705 13.7568 15.5679 14.5042 15.3371 15.3509C15.1063 16.1976 15.1601 17.0967 15.4901 17.9099C15.8202 18.7231 16.4083 19.4053 17.164 19.8516V19.8491ZM16.8848 16.4051C16.8848 16.2451 16.9027 16.0856 16.9381 15.9296C16.9528 15.8643 16.9828 15.8034 17.0255 15.752C17.0683 15.7005 17.1227 15.66 17.1843 15.6336C17.2458 15.6073 17.3127 15.5959 17.3794 15.6005C17.4462 15.605 17.511 15.6253 17.5683 15.6597C18.3792 16.1479 19.3079 16.4056 20.2544 16.4051C20.5018 16.4048 20.749 16.3864 20.9938 16.3501C21.0599 16.3402 21.1274 16.3461 21.1907 16.3673C21.2541 16.3885 21.3115 16.4245 21.3583 16.4722C21.4051 16.5199 21.44 16.578 21.46 16.6418C21.48 16.7056 21.4846 16.7732 21.4734 16.839C21.3659 17.4055 21.0509 17.9114 20.59 18.2578C20.129 18.6041 19.5555 18.766 18.9815 18.7117C18.4075 18.6574 17.8744 18.3909 17.4866 17.9643C17.0988 17.5376 16.8842 16.9816 16.8848 16.4051Z" fill="#6967E0"/>
<path d="M25.4457 21.7036C25.9314 21.7066 26.4061 21.5584 26.8038 21.2795C27.2016 21.0007 27.5027 20.605 27.6655 20.1473C27.8283 19.6896 27.8446 19.1926 27.7123 18.7252C27.58 18.2578 27.3056 17.8432 26.927 17.5387C26.5485 17.2343 26.0846 17.0551 25.5997 17.0261C25.1148 16.9972 24.6329 17.1197 24.2208 17.3769C23.8087 17.634 23.4868 18.013 23.2997 18.4613C23.1126 18.9096 23.0696 19.405 23.1767 19.8788C23.2955 20.3934 23.5838 20.8531 23.9953 21.184C24.4068 21.515 24.9176 21.698 25.4457 21.7036Z" fill="#6967E0"/>
<path d="M12.553 21.7032C13.8379 21.7032 14.8795 20.6616 14.8795 19.3768C14.8795 18.0919 13.8379 17.0503 12.553 17.0503C11.2682 17.0503 10.2266 18.0919 10.2266 19.3768C10.2266 20.6616 11.2682 21.7032 12.553 21.7032Z" fill="#6967E0"/>
</svg>
