<svg width="38" height="38" viewBox="0 0 38 38" fill="none" xmlns="http://www.w3.org/2000/svg">
<circle opacity="0.2" cx="19" cy="19" r="19" fill="#40E395"/>
<g clip-path="url(#clip0_13869_118263)">
<path d="M29 13.9592C29 13.2961 28.7366 12.6602 28.2678 12.1914C27.7989 11.7226 27.163 11.4592 26.5 11.4592H11.5C10.837 11.4592 10.2011 11.7226 9.73223 12.1914C9.26339 12.6602 9 13.2961 9 13.9592V26.0425C9 26.7055 9.26339 27.3414 9.73223 27.8103C10.2011 28.2791 10.837 28.5425 11.5 28.5425H26.5C27.163 28.5425 27.7989 28.2791 28.2678 27.8103C28.7366 27.3414 29 26.7055 29 26.0425V13.9592ZM17.045 13.1258C17.1145 12.9997 17.2166 12.8945 17.3406 12.8213C17.4646 12.7481 17.606 12.7094 17.75 12.7094C17.894 12.7094 18.0354 12.7481 18.1594 12.8213C18.2834 12.8945 18.3855 12.9997 18.455 13.1258C18.5352 13.2503 18.5796 13.3945 18.5833 13.5425C18.5794 13.6905 18.5351 13.8346 18.455 13.9592C18.3855 14.0853 18.2834 14.1905 18.1594 14.2637C18.0354 14.3369 17.894 14.3756 17.75 14.3756C17.606 14.3756 17.4646 14.3369 17.3406 14.2637C17.2166 14.1905 17.1145 14.0853 17.045 13.9592C16.9649 13.8346 16.9206 13.6905 16.9167 13.5425C16.9204 13.3945 16.9648 13.2503 17.045 13.1258ZM14.1283 13.1258C14.1979 12.9997 14.2999 12.8945 14.4239 12.8213C14.5479 12.7481 14.6893 12.7094 14.8333 12.7094C14.9773 12.7094 15.1187 12.7481 15.2427 12.8213C15.3667 12.8945 15.4688 12.9997 15.5383 13.1258C15.6185 13.2503 15.6629 13.3945 15.6667 13.5425C15.6628 13.6905 15.6184 13.8346 15.5383 13.9592C15.4688 14.0853 15.3667 14.1905 15.2427 14.2637C15.1187 14.3369 14.9773 14.3756 14.8333 14.3756C14.6893 14.3756 14.5479 14.3369 14.4239 14.2637C14.2999 14.1905 14.1979 14.0853 14.1283 13.9592C14.0483 13.8346 14.0039 13.6905 14 13.5425C14.0038 13.3945 14.0482 13.2503 14.1283 13.1258ZM11.16 13.2017C11.2255 13.0556 11.3317 12.9314 11.4659 12.8441C11.6 12.7567 11.7566 12.7099 11.9167 12.7092C12.0604 12.7107 12.2012 12.7499 12.325 12.8231C12.4487 12.8962 12.551 13.0006 12.6217 13.1258C12.7018 13.2503 12.7462 13.3945 12.75 13.5425C12.7461 13.6905 12.7017 13.8346 12.6217 13.9592C12.5521 14.0853 12.4501 14.1905 12.3261 14.2637C12.2021 14.3369 12.0607 14.3756 11.9167 14.3756C11.7727 14.3756 11.6313 14.3369 11.5073 14.2637C11.3833 14.1905 11.2812 14.0853 11.2117 13.9592C11.1316 13.8346 11.0872 13.6905 11.0833 13.5425C11.0842 13.4247 11.1103 13.3085 11.16 13.2017ZM27.3333 26.0425C27.3333 26.2635 27.2455 26.4755 27.0893 26.6318C26.933 26.788 26.721 26.8758 26.5 26.8758H11.5C11.279 26.8758 11.067 26.788 10.9107 26.6318C10.7545 26.4755 10.6667 26.2635 10.6667 26.0425V15.8333C10.6667 15.7781 10.6886 15.7251 10.7277 15.686C10.7668 15.647 10.8197 15.625 10.875 15.625H27.125C27.1803 15.625 27.2332 15.647 27.2723 15.686C27.3114 15.7251 27.3333 15.7781 27.3333 15.8333V26.0425Z" fill="#40E395"/>
</g>
<defs>
<clipPath id="clip0_13869_118263">
<rect width="20" height="20" fill="white" transform="translate(9 10)"/>
</clipPath>
</defs>
</svg>
