<svg width="38" height="38" viewBox="0 0 38 38" fill="none" xmlns="http://www.w3.org/2000/svg">
<circle opacity="0.2" cx="19" cy="19" r="19" fill="#FFA6D1"/>
<path d="M14.0013 26.0831C13.5593 26.0831 13.1354 25.9075 12.8228 25.5949C12.5102 25.2824 12.3346 24.8585 12.3346 24.4164V13.5831C12.3346 13.1411 12.5102 12.7172 12.8228 12.4046C13.1354 12.092 13.5593 11.9164 14.0013 11.9164H18.3763C18.4868 11.9164 18.5928 11.9603 18.6709 12.0385C18.7491 12.1166 18.793 12.2226 18.793 12.3331V12.7498C18.793 12.8322 18.8175 12.9128 18.8633 12.9813C18.9091 13.0499 18.9743 13.1033 19.0505 13.1348C19.101 13.1554 19.155 13.1662 19.2096 13.1664C19.2644 13.1665 19.3186 13.1558 19.3692 13.135C19.4199 13.1141 19.4659 13.0834 19.5046 13.0448L21.1713 11.3781C21.2101 11.3394 21.2409 11.2934 21.2619 11.2428C21.2829 11.1922 21.2937 11.1379 21.2937 11.0831C21.2937 11.0283 21.2829 10.974 21.2619 10.9234C21.2409 10.8728 21.2101 10.8268 21.1713 10.7881L19.5046 9.12144C19.4464 9.06301 19.3721 9.02321 19.2911 9.00707C19.2102 8.99093 19.1263 8.99918 19.0501 9.03078C18.9739 9.06238 18.9087 9.1159 18.863 9.18456C18.8172 9.25322 18.7928 9.33392 18.793 9.41644V9.8331C18.793 9.94361 18.7491 10.0496 18.6709 10.1277C18.5928 10.2059 18.4868 10.2498 18.3763 10.2498H14.0013C13.1172 10.2498 12.2694 10.601 11.6443 11.2261C11.0192 11.8512 10.668 12.699 10.668 13.5831V24.4164C10.668 25.3005 11.0192 26.1483 11.6443 26.7735C12.2694 27.3986 13.1172 27.7498 14.0013 27.7498C14.2223 27.7498 14.4343 27.662 14.5906 27.5057C14.7468 27.3494 14.8346 27.1374 14.8346 26.9164C14.8346 26.6954 14.7468 26.4835 14.5906 26.3272C14.4343 26.1709 14.2223 26.0831 14.0013 26.0831ZM24.0013 10.2498C23.7803 10.2498 23.5683 10.3376 23.412 10.4938C23.2558 10.6501 23.168 10.8621 23.168 11.0831C23.168 11.3041 23.2558 11.5161 23.412 11.6724C23.5683 11.8286 23.7803 11.9164 24.0013 11.9164C24.4433 11.9164 24.8673 12.092 25.1798 12.4046C25.4924 12.7172 25.668 13.1411 25.668 13.5831V24.4164C25.668 24.8585 25.4924 25.2824 25.1798 25.5949C24.8673 25.9075 24.4433 26.0831 24.0013 26.0831H19.6263C19.5158 26.0831 19.4098 26.0392 19.3317 25.9611C19.2535 25.8829 19.2096 25.7769 19.2096 25.6664V25.2498C19.2096 25.1673 19.1851 25.0867 19.1393 25.0182C19.0935 24.9497 19.0283 24.8963 18.9521 24.8648C18.9016 24.8441 18.8476 24.8334 18.793 24.8331C18.7382 24.833 18.684 24.8437 18.6334 24.8646C18.5827 24.8855 18.5367 24.9161 18.498 24.9548L16.8313 26.6214C16.7925 26.6601 16.7617 26.7061 16.7407 26.7567C16.7197 26.8074 16.7089 26.8616 16.7089 26.9164C16.7089 26.9712 16.7197 27.0255 16.7407 27.0761C16.7617 27.1267 16.7925 27.1727 16.8313 27.2114L18.498 28.8781C18.5562 28.9365 18.6306 28.9763 18.7115 28.9925C18.7924 29.0086 18.8763 29.0004 18.9525 28.9688C19.0287 28.9372 19.0939 28.8836 19.1397 28.815C19.1854 28.7463 19.2098 28.6656 19.2096 28.5831V28.1664C19.2096 28.0559 19.2535 27.9499 19.3317 27.8718C19.4098 27.7937 19.5158 27.7498 19.6263 27.7498H24.0013C24.8854 27.7498 25.7332 27.3986 26.3583 26.7735C26.9834 26.1483 27.3346 25.3005 27.3346 24.4164V13.5831C27.3346 12.699 26.9834 11.8512 26.3583 11.2261C25.7332 10.601 24.8854 10.2498 24.0013 10.2498Z" fill="#FFA6D1"/>
<path d="M19.0007 14.8331C18.1766 14.8331 17.371 15.0774 16.6858 15.5353C16.0006 15.9931 15.4665 16.6439 15.1512 17.4052C14.8358 18.1666 14.7533 19.0044 14.914 19.8126C15.0748 20.6209 15.4717 21.3633 16.0544 21.946C16.6371 22.5287 17.3795 22.9256 18.1878 23.0863C18.996 23.2471 19.8338 23.1646 20.5952 22.8492C21.3565 22.5339 22.0073 21.9998 22.4651 21.3146C22.9229 20.6294 23.1673 19.8238 23.1673 18.9997C23.1673 17.8947 22.7283 16.8349 21.9469 16.0535C21.1655 15.2721 20.1057 14.8331 19.0007 14.8331V14.8331ZM19.509 21.2869C19.4883 21.29 19.4695 21.3003 19.4558 21.3162C19.4422 21.332 19.4347 21.3521 19.4347 21.373V21.6386C19.4347 21.7537 19.389 21.8641 19.3076 21.9455C19.2262 22.0269 19.1158 22.0727 19.0007 22.0727C18.8855 22.0727 18.7751 22.0269 18.6937 21.9455C18.6124 21.8641 18.5666 21.7537 18.5666 21.6386V21.3938C18.5667 21.3824 18.5645 21.3711 18.5601 21.3606C18.5558 21.35 18.5494 21.3404 18.5413 21.3323C18.5332 21.3243 18.5236 21.3179 18.5131 21.3135C18.5025 21.3092 18.4912 21.307 18.4798 21.307H18.0816C17.9664 21.307 17.856 21.2613 17.7747 21.1799C17.6933 21.0985 17.6475 20.9881 17.6475 20.873C17.6475 20.7579 17.6933 20.6475 17.7747 20.5661C17.856 20.4847 17.9664 20.439 18.0816 20.439H19.3274C19.4176 20.4389 19.505 20.4075 19.5745 20.3501C19.6441 20.2926 19.6914 20.2127 19.7085 20.1242C19.7255 20.0356 19.7112 19.9438 19.668 19.8647C19.6247 19.7855 19.5552 19.7239 19.4715 19.6904L18.2076 19.1845C17.951 19.0827 17.7353 18.899 17.5939 18.6619C17.4525 18.4248 17.3935 18.1477 17.426 17.8736C17.4585 17.5995 17.5806 17.3438 17.7735 17.1463C17.9663 16.9488 18.2191 16.8206 18.4923 16.7817C18.5129 16.7787 18.5318 16.7684 18.5454 16.7526C18.5591 16.7369 18.5666 16.7167 18.5666 16.6959V16.4303C18.5666 16.3152 18.6124 16.2048 18.6937 16.1234C18.7751 16.042 18.8855 15.9963 19.0007 15.9963C19.1158 15.9963 19.2262 16.042 19.3076 16.1234C19.389 16.2048 19.4347 16.3152 19.4347 16.4303V16.6754C19.4347 16.6985 19.4438 16.7205 19.4601 16.7368C19.4764 16.7531 19.4985 16.7622 19.5215 16.7622H19.9197C20.0349 16.7622 20.1453 16.808 20.2267 16.8894C20.308 16.9708 20.3538 17.0812 20.3538 17.1963C20.3538 17.3114 20.308 17.4218 20.2267 17.5032C20.1453 17.5846 20.0349 17.6303 19.9197 17.6303H18.6739C18.5836 17.6301 18.4961 17.6614 18.4264 17.7188C18.3568 17.7762 18.3093 17.8561 18.2922 17.9448C18.2752 18.0334 18.2896 18.1253 18.3329 18.2045C18.3763 18.2836 18.4459 18.3452 18.5298 18.3786L19.7937 18.8845C20.0503 18.9862 20.266 19.1699 20.4074 19.407C20.5488 19.6441 20.6078 19.9212 20.5753 20.1953C20.5428 20.4694 20.4207 20.7251 20.2278 20.9226C20.035 21.1201 19.7822 21.2483 19.509 21.2872V21.2869Z" fill="#FFA6D1"/>
</svg>
