<svg width="12" height="13" viewBox="0 0 12 13" fill="none" xmlns="http://www.w3.org/2000/svg">
<path d="M6 0.5C4.81331 0.5 3.65328 0.851894 2.66658 1.51118C1.67989 2.17047 0.910851 3.10754 0.456726 4.2039C0.00259972 5.30026 -0.11622 6.50666 0.115291 7.67054C0.346802 8.83443 0.918247 9.90353 1.75736 10.7426C2.59648 11.5818 3.66558 12.1532 4.82946 12.3847C5.99335 12.6162 7.19975 12.4974 8.2961 12.0433C9.39246 11.5892 10.3295 10.8201 10.9888 9.83342C11.6481 8.84673 12 7.68669 12 6.5C11.9983 4.90923 11.3656 3.38411 10.2407 2.25926C9.1159 1.13441 7.59077 0.501721 6 0.5V0.5ZM9.156 6.861L6.4 9.772C6.35531 9.81968 6.30145 9.85786 6.24166 9.88425C6.18187 9.91064 6.11737 9.92469 6.05202 9.92558C5.98667 9.92647 5.92182 9.91417 5.86133 9.88941C5.80085 9.86465 5.74598 9.82795 5.7 9.7815L5.5525 9.6315C5.45852 9.53521 5.40418 9.4071 5.40029 9.2726C5.3964 9.1381 5.44324 9.00706 5.5315 8.9055L6.6815 7.619C6.8645 7.414 6.7895 7.246 6.5145 7.246H3.2645C3.13189 7.246 3.00472 7.19332 2.91095 7.09955C2.81718 7.00579 2.7645 6.87861 2.7645 6.746V6.246C2.7645 6.11339 2.81718 5.98621 2.91095 5.89245C3.00472 5.79868 3.13189 5.746 3.2645 5.746H6.507C6.782 5.746 6.857 5.58 6.669 5.3775L5.4835 4.0885C5.39406 3.98865 5.34599 3.8585 5.34906 3.72449C5.35212 3.59047 5.40609 3.46266 5.5 3.367L5.65 3.217C5.69616 3.17101 5.751 3.13467 5.81135 3.11009C5.87169 3.08552 5.93632 3.07319 6.00147 3.07385C6.06662 3.0745 6.13099 3.08811 6.19083 3.11389C6.25067 3.13967 6.30478 3.1771 6.35 3.224L9.155 6.1365C9.24709 6.23458 9.29844 6.36401 9.29862 6.49855C9.29881 6.63309 9.24782 6.76267 9.156 6.861Z" fill="#2266E2"/>
</svg>
