<svg width="14" height="14" viewBox="0 0 14 14" fill="none" xmlns="http://www.w3.org/2000/svg">
<g clip-path="url(#clip0)">
<path fill-rule="evenodd" clip-rule="evenodd" d="M7 0C5.61553 0 4.26216 0.410543 3.11101 1.17971C1.95987 1.94888 1.06266 3.04213 0.532846 4.32122C0.00303302 5.6003 -0.13559 7.00776 0.134506 8.36563C0.404603 9.7235 1.07129 10.9708 2.05026 11.9497C3.02922 12.9287 4.2765 13.5954 5.63437 13.8655C6.99224 14.1356 8.3997 13.997 9.67879 13.4672C10.9579 12.9373 12.0511 12.0401 12.8203 10.889C13.5895 9.73785 14 8.38447 14 7C13.9978 5.14415 13.2597 3.36493 11.9474 2.05264C10.6351 0.740353 8.85586 0.00216138 7 0ZM7.65468 7.0279C7.65835 7.03676 7.66374 7.04481 7.67053 7.05158L10.3714 9.75318C10.4535 9.83525 10.4995 9.94655 10.4995 10.0626C10.4995 10.1786 10.4534 10.2899 10.3713 10.3719C10.2892 10.454 10.1779 10.5 10.0619 10.5C9.94586 10.5 9.8346 10.4539 9.75257 10.3718L7.05137 7.67018C7.0446 7.66339 7.03655 7.658 7.0277 7.65433C7.01884 7.65065 7.00934 7.64876 6.99975 7.64876C6.99016 7.64876 6.98066 7.65065 6.97181 7.65433C6.96295 7.658 6.9549 7.66339 6.94813 7.67018L4.24693 10.3718C4.16491 10.4539 4.05364 10.5 3.9376 10.5C3.88015 10.5 3.82326 10.4887 3.77017 10.4667C3.71709 10.4448 3.66885 10.4125 3.62821 10.3719C3.54615 10.2899 3.50003 10.1786 3.5 10.0626C3.49999 10.0051 3.51129 9.94823 3.53326 9.89514C3.55524 9.84206 3.58745 9.79382 3.62807 9.75318L6.32897 7.05158C6.33576 7.04481 6.34115 7.03676 6.34482 7.0279C6.3485 7.01904 6.35039 7.00955 6.35039 6.99996C6.35039 6.99037 6.3485 6.98087 6.34482 6.97201C6.34115 6.96315 6.33576 6.95511 6.32897 6.94833L3.62807 4.24703C3.54604 4.16496 3.49997 4.05366 3.5 3.93762C3.50003 3.82159 3.54615 3.71031 3.62821 3.62828C3.71028 3.54625 3.82157 3.50018 3.9376 3.50021C3.99506 3.50022 4.05195 3.51155 4.10502 3.53355C4.1581 3.55555 4.20632 3.58779 4.24693 3.62843L6.94813 6.32857C6.9549 6.33536 6.96295 6.34074 6.97181 6.34442C6.98066 6.3481 6.99016 6.34999 6.99975 6.34999C7.00934 6.34999 7.01884 6.3481 7.0277 6.34442C7.03655 6.34074 7.0446 6.33536 7.05137 6.32857L9.75257 3.62843C9.8346 3.54628 9.9459 3.50008 10.062 3.5C10.1781 3.49992 10.2894 3.54596 10.3716 3.62799C10.4537 3.71002 10.4999 3.82132 10.5 3.93742C10.5001 4.05351 10.454 4.16488 10.372 4.24703L7.67053 6.94833C7.66374 6.95511 7.65835 6.96315 7.65468 6.97201C7.651 6.98087 7.64911 6.99037 7.64911 6.99996C7.64911 7.00955 7.651 7.01904 7.65468 7.0279Z" fill="#FF6767"/>
</g>
<defs>
<clipPath id="clip0">
<rect width="14" height="14" fill="white"/>
</clipPath>
</defs>
</svg>
