<svg width="14" height="16" viewBox="0 0 14 16" fill="none" xmlns="http://www.w3.org/2000/svg">
<path d="M7.00146 0.800049V10.3838" stroke="#717171" stroke-width="1.2" stroke-linecap="round" stroke-linejoin="round"/>
<path d="M4.12646 7.50879L7.00159 10.3839L9.87672 7.50879" stroke="#717171" stroke-width="1.2" stroke-linecap="round" stroke-linejoin="round"/>
<path d="M9.39748 3.19531H10.8338C11.3421 3.19531 11.8297 3.39726 12.1891 3.75672C12.5486 4.11618 12.7505 4.60371 12.7505 5.11207V13.2583C12.7505 13.7666 12.5486 14.2542 12.1891 14.6136C11.8297 14.9731 11.3421 15.175 10.8338 15.175H3.16675C2.6584 15.175 2.17086 14.9731 1.8114 14.6136C1.45194 14.2542 1.25 13.7666 1.25 13.2583V5.11207C1.25 4.60371 1.45194 4.11618 1.8114 3.75672C2.17086 3.39726 2.6584 3.19531 3.16675 3.19531H4.60432" stroke="#717171" stroke-width="1.2" stroke-linecap="round" stroke-linejoin="round"/>
</svg>
