<svg width="32" height="32" viewBox="0 0 32 32" fill="none" xmlns="http://www.w3.org/2000/svg">
<g clip-path="url(#clip0)">
<path d="M26.6667 25.3333V13.3333C26.6667 12.9797 26.5262 12.6406 26.2761 12.3905C26.0261 12.1405 25.687 12 25.3333 12H1.33333C0.979711 12 0.640573 12.1405 0.390524 12.3905C0.140476 12.6406 0 12.9797 0 13.3333L0 25.3333C0 25.687 0.140476 26.0261 0.390524 26.2761C0.640573 26.5262 0.979711 26.6667 1.33333 26.6667H25.3333C25.687 26.6667 26.0261 26.5262 26.2761 26.2761C26.5262 26.0261 26.6667 25.687 26.6667 25.3333ZM8.66667 22.5013C8.88768 22.5013 9.09964 22.5891 9.25592 22.7454C9.4122 22.9017 9.5 23.1137 9.5 23.3347C9.5 23.5557 9.4122 23.7676 9.25592 23.9239C9.09964 24.0802 8.88768 24.168 8.66667 24.168C7.38479 24.168 6.15541 23.6588 5.24898 22.7523C4.34256 21.8459 3.83333 20.6165 3.83333 19.3347C3.83333 18.0528 4.34256 16.8234 5.24898 15.917C6.15541 15.0106 7.38479 14.5013 8.66667 14.5013C8.88768 14.5013 9.09964 14.5891 9.25592 14.7454C9.4122 14.9017 9.5 15.1137 9.5 15.3347C9.5 15.5557 9.4122 15.7676 9.25592 15.9239C9.09964 16.0802 8.88768 16.168 8.66667 16.168C7.82681 16.168 7.02136 16.5016 6.4275 17.0955C5.83363 17.6894 5.5 18.4948 5.5 19.3347C5.5 20.1745 5.83363 20.98 6.4275 21.5738C7.02136 22.1677 7.82681 22.5013 8.66667 22.5013ZM12.5693 17.824L15.0227 19.4587C15.4817 19.7648 15.83 20.2105 16.0162 20.7298C16.2024 21.2492 16.2165 21.8146 16.0566 22.3427C15.8966 22.8707 15.571 23.3332 15.1279 23.6619C14.6848 23.9906 14.1477 24.1681 13.596 24.168H11.3333C11.1123 24.168 10.9004 24.0802 10.7441 23.9239C10.5878 23.7676 10.5 23.5557 10.5 23.3347C10.5 23.1137 10.5878 22.9017 10.7441 22.7454C10.9004 22.5891 11.1123 22.5013 11.3333 22.5013H13.6C13.794 22.5013 13.9828 22.4388 14.1385 22.3232C14.2942 22.2076 14.4086 22.0449 14.4648 21.8593C14.521 21.6736 14.516 21.4748 14.4506 21.2922C14.3851 21.1097 14.2627 20.953 14.1013 20.8453L11.648 19.2107C11.1896 18.9049 10.8415 18.46 10.6551 17.9414C10.4688 17.4228 10.454 16.8581 10.6129 16.3305C10.7719 15.8029 11.0961 15.3403 11.5379 15.011C11.9797 14.6816 12.5156 14.503 13.0667 14.5013H15.3333C15.5543 14.5013 15.7663 14.5891 15.9226 14.7454C16.0789 14.9017 16.1667 15.1137 16.1667 15.3347C16.1667 15.5557 16.0789 15.7676 15.9226 15.9239C15.7663 16.0802 15.5543 16.168 15.3333 16.168H13.0667C12.8727 16.1681 12.6839 16.2305 12.5282 16.3462C12.3724 16.4618 12.258 16.6244 12.2018 16.8101C12.1456 16.9957 12.1506 17.1945 12.2161 17.3771C12.2815 17.5597 12.404 17.7164 12.5653 17.824H12.5693ZM22.836 17.3347C22.8302 19.6782 22.0695 21.9574 20.6667 23.8347C20.589 23.9382 20.4884 24.0222 20.3727 24.08C20.257 24.1379 20.1294 24.168 20 24.168C19.8706 24.168 19.743 24.1379 19.6273 24.08C19.5116 24.0222 19.411 23.9382 19.3333 23.8347C17.9312 21.9567 17.1714 19.677 17.1667 17.3333V15.3333C17.1667 15.1123 17.2545 14.9004 17.4107 14.7441C17.567 14.5878 17.779 14.5 18 14.5C18.221 14.5 18.433 14.5878 18.5893 14.7441C18.7455 14.9004 18.8333 15.1123 18.8333 15.3333V17.3333C18.8362 18.7014 19.1432 20.0518 19.732 21.2867C19.7616 21.3292 19.8006 21.3642 19.8461 21.389C19.8916 21.4138 19.9422 21.4277 19.994 21.4295C20.0458 21.4313 20.0972 21.421 20.1443 21.3995C20.1914 21.3779 20.2329 21.3457 20.2653 21.3053C20.8582 20.0651 21.1662 18.708 21.1667 17.3333V15.3333C21.1667 15.1123 21.2545 14.9004 21.4107 14.7441C21.567 14.5878 21.779 14.5 22 14.5C22.221 14.5 22.433 14.5878 22.5893 14.7441C22.7455 14.9004 22.8333 15.1123 22.8333 15.3333L22.836 17.3347Z" fill="#5FCF64"/>
<path d="M31.6094 7.61067L24.3907 0.392C24.267 0.267939 24.1201 0.169464 23.9584 0.102203C23.7966 0.0349416 23.6232 0.000212411 23.448 0L8.00004 0C7.2928 0 6.61452 0.280952 6.11442 0.781049C5.61433 1.28115 5.33337 1.95942 5.33337 2.66667V10.3333C5.33337 10.4217 5.36849 10.5065 5.431 10.569C5.49352 10.6315 5.5783 10.6667 5.66671 10.6667H7.66671C7.75488 10.6667 7.83947 10.6317 7.90194 10.5695C7.96441 10.5073 7.99969 10.4228 8.00004 10.3347V3.33333C8.00004 3.15652 8.07028 2.98695 8.1953 2.86193C8.32033 2.7369 8.4899 2.66667 8.66671 2.66667H22.3334C22.4218 2.66667 22.5066 2.70179 22.5691 2.7643C22.6316 2.82681 22.6667 2.91159 22.6667 3V6.66667C22.6667 7.37391 22.9477 8.05219 23.4478 8.55229C23.9479 9.05238 24.6261 9.33333 25.3334 9.33333H29C29.0884 9.33333 29.1732 9.36845 29.2357 9.43096C29.2983 9.49348 29.3334 9.57826 29.3334 9.66667V28.6667C29.3334 28.8435 29.2631 29.013 29.1381 29.1381C29.0131 29.2631 28.8435 29.3333 28.6667 29.3333H8.33337C8.24497 29.3333 8.16018 29.2982 8.09767 29.2357C8.03516 29.1732 8.00004 29.0884 8.00004 29V28.3333C8.00004 28.2449 7.96492 28.1601 7.90241 28.0976C7.8399 28.0351 7.75511 28 7.66671 28H5.66671C5.5783 28 5.49352 28.0351 5.431 28.0976C5.36849 28.1601 5.33337 28.2449 5.33337 28.3333V29.3333C5.33337 30.0406 5.61433 30.7189 6.11442 31.219C6.61452 31.719 7.2928 32 8.00004 32H29.3334C30.0406 32 30.7189 31.719 31.219 31.219C31.7191 30.7189 32 30.0406 32 29.3333V8.55333C32 8.19974 31.8594 7.86066 31.6094 7.61067Z" fill="#5FCF64"/>
</g>
<defs>
<clipPath id="clip0">
<rect width="32" height="32" fill="white"/>
</clipPath>
</defs>
</svg>
