<svg width="38" height="38" viewBox="0 0 38 38" fill="none" xmlns="http://www.w3.org/2000/svg">
<circle cx="19" cy="19" r="19" fill="#979797"/>
<g clip-path="url(#clip0)">
<path d="M26.5 23.5833C26.1685 23.5833 25.8506 23.4516 25.6161 23.2172C25.3817 22.9828 25.25 22.6649 25.25 22.3333V18.2817C25.2981 16.6992 24.7785 15.1518 23.785 13.9192C22.7916 12.6865 21.3899 11.85 19.8334 11.5608V9.83333C19.8334 9.61232 19.7456 9.40036 19.5893 9.24408C19.433 9.0878 19.221 9 19 9C18.779 9 18.567 9.0878 18.4108 9.24408C18.2545 9.40036 18.1667 9.61232 18.1667 9.83333V11.5608C16.6102 11.85 15.2085 12.6865 14.215 13.9192C13.2215 15.1518 12.7019 16.6992 12.75 18.2817V22.3333C12.75 22.6649 12.6183 22.9828 12.3839 23.2172C12.1495 23.4516 11.8315 23.5833 11.5 23.5833C11.279 23.5833 11.067 23.6711 10.9108 23.8274C10.7545 23.9837 10.6667 24.1957 10.6667 24.4167C10.6667 24.6377 10.7545 24.8496 10.9108 25.0059C11.067 25.1622 11.279 25.25 11.5 25.25H26.5C26.721 25.25 26.933 25.1622 27.0893 25.0059C27.2456 24.8496 27.3334 24.6377 27.3334 24.4167C27.3334 24.1957 27.2456 23.9837 27.0893 23.8274C26.933 23.6711 26.721 23.5833 26.5 23.5833ZM20.8634 26.5H17.1367C17.0855 26.5001 17.0362 26.519 16.9981 26.5531C16.96 26.5872 16.9357 26.6342 16.93 26.685C16.9209 26.7619 16.9165 26.8392 16.9167 26.9167C16.9167 27.4692 17.1362 27.9991 17.5269 28.3898C17.9176 28.7805 18.4475 29 19 29C19.5526 29 20.0825 28.7805 20.4732 28.3898C20.8639 27.9991 21.0834 27.4692 21.0834 26.9167C21.0836 26.8392 21.0791 26.7619 21.07 26.685C21.0646 26.634 21.0405 26.5869 21.0023 26.5527C20.9641 26.5185 20.9146 26.4997 20.8634 26.5Z" fill="white"/>
</g>
<defs>
<clipPath id="clip0">
<rect width="20" height="20" fill="white" transform="translate(9 9)"/>
</clipPath>
</defs>
</svg>
