<svg width="12" height="12" viewBox="0 0 12 12" fill="none" xmlns="http://www.w3.org/2000/svg">
<path d="M2.625 0.248501H0.875C0.460786 0.248501 0.125 0.584287 0.125 0.998501V10.9985C0.125 11.4127 0.460786 11.7485 0.875 11.7485H2.625C3.03921 11.7485 3.375 11.4127 3.375 10.9985V0.998501C3.375 0.584287 3.03921 0.248501 2.625 0.248501Z" fill="#717171"/>
<path d="M6.875 0.248501H5.125C4.71079 0.248501 4.375 0.584287 4.375 0.998501V10.9985C4.375 11.4127 4.71079 11.7485 5.125 11.7485H6.875C7.28921 11.7485 7.625 11.4127 7.625 10.9985V0.998501C7.625 0.584287 7.28921 0.248501 6.875 0.248501Z" fill="#717171"/>
<path d="M11.125 0.248501H9.375C8.96079 0.248501 8.625 0.584287 8.625 0.998501V10.9985C8.625 11.4127 8.96079 11.7485 9.375 11.7485H11.125C11.5392 11.7485 11.875 11.4127 11.875 10.9985V0.998501C11.875 0.584287 11.5392 0.248501 11.125 0.248501Z" fill="#717171"/>
</svg>
