<svg width="16" height="16" viewBox="0 0 16 16" fill="none" xmlns="http://www.w3.org/2000/svg">
<path d="M11.2533 13.6H4.71995C4.47242 13.6 4.23502 13.5017 4.05999 13.3266C3.88495 13.1516 3.78662 12.9142 3.78662 12.6667V4.26666H12.1866V12.6667C12.1866 12.9142 12.0883 13.1516 11.9133 13.3266C11.7382 13.5017 11.5008 13.6 11.2533 13.6Z" stroke="#717171" stroke-width="1.3" stroke-linecap="round" stroke-linejoin="round"/>
<path d="M6.58667 10.8V7.06665" stroke="#717171" stroke-width="1.3" stroke-linecap="round" stroke-linejoin="round"/>
<path d="M9.38672 10.8V7.06665" stroke="#717171" stroke-width="1.3" stroke-linecap="round" stroke-linejoin="round"/>
<path d="M1.92004 4.26666H14.0534" stroke="#717171" stroke-width="1.3" stroke-linecap="round" stroke-linejoin="round"/>
<path d="M9.38665 2.40002H6.58665C6.33912 2.40002 6.10172 2.49836 5.92669 2.67339C5.75165 2.84843 5.65332 3.08582 5.65332 3.33336V4.26669H10.32V3.33336C10.32 3.08582 10.2217 2.84843 10.0466 2.67339C9.87159 2.49836 9.63419 2.40002 9.38665 2.40002Z" stroke="#717171" stroke-width="1.3" stroke-linecap="round" stroke-linejoin="round"/>
</svg>
