<svg width="21" height="21" viewBox="0 0 21 21" fill="none" xmlns="http://www.w3.org/2000/svg">
<ellipse cx="10.5" cy="10.4985" rx="10.5" ry="10.4985" fill="#5ABAFF" fill-opacity="0.1"/>
<path d="M17.0459 8.99992C17.1253 8.9886 17.198 8.94899 17.2506 8.88837C17.3032 8.82774 17.3322 8.75018 17.3322 8.66992C17.3322 8.58966 17.3032 8.5121 17.2506 8.45147C17.198 8.39085 17.1253 8.35124 17.0459 8.33992L16.8245 8.30859C16.5388 8.26694 16.2741 8.13413 16.0699 7.92993C15.8657 7.72572 15.7328 7.46103 15.6912 7.17525L15.6599 6.95392C15.6491 6.87397 15.6096 6.80065 15.5489 6.74756C15.4881 6.69447 15.4102 6.66521 15.3295 6.66521C15.2489 6.66521 15.1709 6.69447 15.1102 6.74756C15.0494 6.80065 15.01 6.87397 14.9992 6.95392L14.9685 7.17459C14.9268 7.46032 14.7939 7.72495 14.5898 7.92914C14.3856 8.13333 14.1209 8.26617 13.8352 8.30792L13.6145 8.33925C13.5351 8.35058 13.4624 8.39019 13.4098 8.45081C13.3572 8.51143 13.3282 8.58899 13.3282 8.66925C13.3282 8.74951 13.3572 8.82708 13.4098 8.8877C13.4624 8.94832 13.5351 8.98793 13.6145 8.99925L13.8359 9.03059C14.1216 9.07233 14.3862 9.20517 14.5904 9.40936C14.7946 9.61355 14.9275 9.87819 14.9692 10.1639L14.9999 10.3853C15.0107 10.4652 15.0501 10.5385 15.1108 10.5916C15.1716 10.6447 15.2495 10.674 15.3302 10.674C15.4109 10.674 15.4888 10.6447 15.5496 10.5916C15.6103 10.5385 15.6497 10.4652 15.6605 10.3853L15.6919 10.1646C15.7335 9.87881 15.8663 9.61412 16.0705 9.40991C16.2747 9.20571 16.5394 9.0729 16.8252 9.03125L17.0459 8.99992ZM7.15453 12.3333H7.1652C7.29372 12.3336 7.41744 12.2845 7.51076 12.1962C7.60409 12.1078 7.65986 11.9869 7.66653 11.8586C7.72187 10.7219 8.8772 9.33325 10.1652 9.33325C10.2309 9.33391 10.296 9.32163 10.3569 9.29711C10.4178 9.27259 10.4733 9.23631 10.5202 9.19034C10.5671 9.14438 10.6045 9.08963 10.6302 9.02921C10.656 8.9688 10.6695 8.90391 10.6702 8.83825C10.6709 8.77259 10.6586 8.70745 10.6341 8.64653C10.6095 8.58562 10.5733 8.53013 10.5273 8.48324C10.4813 8.43634 10.4266 8.39896 10.3662 8.37323C10.3057 8.34749 10.2409 8.33391 10.1752 8.33325C9.53285 8.27961 8.92975 8.00204 8.47123 7.549C8.01271 7.09596 7.7279 6.49624 7.66653 5.85459V5.83325C7.66662 5.76751 7.65373 5.7024 7.62859 5.64165C7.60345 5.58091 7.56656 5.52572 7.52005 5.47927C7.47353 5.43281 7.4183 5.396 7.35752 5.37094C7.29674 5.34589 7.23161 5.33308 7.16587 5.33325C7.10029 5.33317 7.03534 5.346 6.97473 5.37101C6.91411 5.39602 6.85902 5.43273 6.81259 5.47903C6.76616 5.52534 6.72931 5.58034 6.70413 5.64088C6.67896 5.70143 6.66595 5.76635 6.66587 5.83192C6.60931 6.47744 6.32673 7.08228 5.86793 7.53986C5.40912 7.99745 4.80353 8.27842 4.15787 8.33325C4.02602 8.33501 3.90025 8.38899 3.80814 8.48334C3.71604 8.5777 3.66511 8.70474 3.66653 8.83659C3.66829 8.96892 3.72209 9.09524 3.81629 9.1882C3.9105 9.28115 4.03752 9.33327 4.16987 9.33325C4.81838 9.37868 5.42853 9.65737 5.88748 10.1178C6.34644 10.5782 6.62318 11.1893 6.66653 11.8379C6.66754 11.9677 6.71905 12.092 6.81015 12.1845C6.90124 12.277 7.02476 12.3303 7.15453 12.3333Z" fill="#2266E2"/>
<path d="M11.4901 17H11.4977C11.5895 17.0002 11.6778 16.9652 11.7444 16.9021C11.8111 16.839 11.8509 16.7526 11.8556 16.661C11.8951 15.849 12.7199 14.8571 13.6395 14.8571C13.6863 14.8576 13.7328 14.8488 13.7763 14.8313C13.8198 14.8138 13.8594 14.7879 13.8929 14.7551C13.9264 14.7222 13.9531 14.6831 13.9714 14.64C13.9898 14.5968 13.9995 14.5505 14 14.5036C14.0005 14.4567 13.9917 14.4101 13.9742 14.3666C13.9567 14.3231 13.9308 14.2835 13.898 14.25C13.8651 14.2165 13.8261 14.1898 13.7829 14.1714C13.7398 14.153 13.6935 14.1433 13.6466 14.1429C13.188 14.1045 12.7575 13.9063 12.4301 13.5827C12.1028 13.2591 11.8995 12.8307 11.8556 12.3724V12.3571C11.8557 12.3102 11.8465 12.2637 11.8286 12.2203C11.8106 12.1769 11.7843 12.1375 11.7511 12.1043C11.7179 12.0711 11.6784 12.0448 11.635 12.0269C11.5916 12.009 11.5451 11.9999 11.4982 12C11.4514 11.9999 11.405 12.0091 11.3618 12.027C11.3185 12.0448 11.2792 12.0711 11.246 12.1041C11.2129 12.1372 11.1866 12.1765 11.1686 12.2197C11.1506 12.263 11.1413 12.3094 11.1413 12.3562C11.1009 12.8173 10.8992 13.2493 10.5716 13.5762C10.2441 13.903 9.81173 14.1037 9.35079 14.1429C9.25666 14.1441 9.16687 14.1827 9.10112 14.2501C9.03536 14.3175 8.999 14.4082 9.00002 14.5024C9.00127 14.5969 9.03968 14.6871 9.10693 14.7535C9.17419 14.8199 9.26487 14.8572 9.35935 14.8571C9.82233 14.8896 10.2579 15.0887 10.5856 15.4175C10.9132 15.7464 11.1108 16.1829 11.1417 16.6462C11.1425 16.7389 11.1792 16.8277 11.2443 16.8937C11.3093 16.9598 11.3975 16.9979 11.4901 17Z" fill="#2266E2"/>
</svg>
