<svg width="24" height="16" viewBox="0 0 24 16" fill="none" xmlns="http://www.w3.org/2000/svg">
<path d="M15.8098 15.4167C15.9882 15.4945 16.1854 15.5185 16.3773 15.4858C16.5691 15.4531 16.7472 15.3652 16.8898 15.2327L23.5238 9.07274C23.6717 8.93586 23.7897 8.76989 23.8704 8.58524C23.9511 8.40059 23.9928 8.20125 23.9928 7.99974C23.9928 7.79822 23.9511 7.59888 23.8704 7.41423C23.7897 7.22958 23.6717 7.06361 23.5238 6.92674L16.8898 0.766738C16.7472 0.63411 16.569 0.546014 16.377 0.513263C16.185 0.480512 15.9876 0.504532 15.8091 0.582376C15.6306 0.660219 15.4787 0.788499 15.372 0.951463C15.2654 1.11443 15.2087 1.30498 15.2088 1.49974V4.74974C15.2088 4.81604 15.1825 4.87963 15.1356 4.92651C15.0887 4.9734 15.0251 4.99974 14.9588 4.99974H10.5078C10.2426 4.99974 9.98824 5.10509 9.80071 5.29263C9.61317 5.48017 9.50781 5.73452 9.50781 5.99974V9.99974C9.50781 10.265 9.61317 10.5193 9.80071 10.7068C9.98824 10.8944 10.2426 10.9997 10.5078 10.9997H14.9588C15.0251 10.9997 15.0887 11.0261 15.1356 11.073C15.1825 11.1198 15.2088 11.1834 15.2088 11.2497V14.4997C15.2088 14.6945 15.2657 14.885 15.3724 15.0479C15.4792 15.2108 15.6312 15.339 15.8098 15.4167Z" fill="#EBEBEB"/>
<path d="M3.99365 5.99976L3.99365 9.99976C3.99365 10.552 4.44137 10.9998 4.99365 10.9998H7.00765C7.55994 10.9998 8.00765 10.552 8.00765 9.99976V5.99976C8.00765 5.44747 7.55994 4.99976 7.00765 4.99976H4.99365C4.44137 4.99976 3.99365 5.44747 3.99365 5.99976Z" fill="#EBEBEB"/>
<path d="M0.0078125 5.99976L0.0078125 9.99976C0.0078125 10.552 0.455528 10.9998 1.00781 10.9998H1.49381C2.0461 10.9998 2.49381 10.552 2.49381 9.99976L2.49381 5.99976C2.49381 5.44747 2.0461 4.99976 1.49381 4.99976H1.00781C0.455528 4.99976 0.0078125 5.44747 0.0078125 5.99976Z" fill="#EBEBEB"/>
</svg>
