<svg width="7" height="4" viewBox="0 0 7 4" fill="none" xmlns="http://www.w3.org/2000/svg">
<path d="M5.55308 0.0916331C5.68113 0.091404 5.80635 0.129175 5.91291 0.200164C6.01947 0.271153 6.10257 0.372166 6.15169 0.490413C6.2008 0.60866 6.21372 0.738823 6.18881 0.864417C6.1639 0.990012 6.10228 1.10539 6.01176 1.19594L3.65823 3.54883C3.53462 3.66571 3.37096 3.73083 3.20085 3.73083C3.03073 3.73083 2.86707 3.66571 2.74347 3.54883L0.390585 1.19594C0.300138 1.10547 0.238546 0.990208 0.213595 0.864734C0.188645 0.73926 0.201456 0.609206 0.250409 0.491012C0.299362 0.372818 0.38226 0.271792 0.488621 0.200704C0.594983 0.129617 0.720033 0.0916603 0.847964 0.0916331H5.55308Z" fill="#717171"/>
</svg>
