<svg width="24" height="24" viewBox="0 0 24 24" fill="none" xmlns="http://www.w3.org/2000/svg">
<path d="M4.58277 15.809C4.50503 15.9874 4.48103 16.1846 4.51372 16.3764C4.5464 16.5683 4.63435 16.7464 4.76677 16.889L10.9268 23.523C11.0636 23.6709 11.2296 23.7889 11.4143 23.8696C11.5989 23.9503 11.7983 23.992 11.9998 23.992C12.2013 23.992 12.4006 23.9503 12.5853 23.8696C12.7699 23.7889 12.9359 23.6709 13.0728 23.523L19.2328 16.889C19.3654 16.7464 19.4535 16.5681 19.4862 16.3762C19.519 16.1842 19.495 15.9868 19.4171 15.8083C19.3393 15.6298 19.211 15.4779 19.048 15.3712C18.8851 15.2646 18.6945 15.2079 18.4998 15.208H15.2498C15.1835 15.208 15.1199 15.1817 15.073 15.1348C15.0261 15.0879 14.9998 15.0243 14.9998 14.958V10.507C14.9998 10.2418 14.8944 9.98743 14.7069 9.7999C14.5193 9.61236 14.265 9.507 13.9998 9.507H9.99977C9.73456 9.507 9.4802 9.61236 9.29267 9.7999C9.10513 9.98743 8.99977 10.2418 8.99977 10.507V14.958C8.99977 15.0243 8.97343 15.0879 8.92655 15.1348C8.87967 15.1817 8.81608 15.208 8.74977 15.208H5.49977C5.305 15.208 5.11447 15.2649 4.95157 15.3716C4.78867 15.4784 4.66049 15.6304 4.58277 15.809Z" fill="url(#paint0_linear)"/>
<path d="M14 3.993H10C9.44772 3.993 9 4.44071 9 4.993V7.007C9 7.55928 9.44772 8.007 10 8.007H14C14.5523 8.007 15 7.55928 15 7.007V4.993C15 4.44071 14.5523 3.993 14 3.993Z" fill="url(#paint1_linear)"/>
<path d="M14 0.00700378H10C9.44772 0.00700378 9 0.454719 9 1.007V1.493C9 2.04529 9.44772 2.493 10 2.493H14C14.5523 2.493 15 2.04529 15 1.493V1.007C15 0.454719 14.5523 0.00700378 14 0.00700378Z" fill="url(#paint2_linear)"/>
<defs>
<linearGradient id="paint0_linear" x1="12" y1="9.507" x2="12" y2="23.992" gradientUnits="userSpaceOnUse">
<stop stop-color="white"/>
<stop offset="1" stop-color="white" stop-opacity="0.8"/>
</linearGradient>
<linearGradient id="paint1_linear" x1="12" y1="3.993" x2="12" y2="8.007" gradientUnits="userSpaceOnUse">
<stop stop-color="white"/>
<stop offset="1" stop-color="white" stop-opacity="0.8"/>
</linearGradient>
<linearGradient id="paint2_linear" x1="12" y1="0.00700378" x2="12" y2="2.493" gradientUnits="userSpaceOnUse">
<stop stop-color="white"/>
<stop offset="1" stop-color="white" stop-opacity="0.8"/>
</linearGradient>
</defs>
</svg>
