<svg width="21" height="21" viewBox="0 0 21 21" fill="none" xmlns="http://www.w3.org/2000/svg">
<circle cx="10.5" cy="10.5" r="10.5" fill="#2266E2"/>
<g clip-path="url(#clip0_6052_22458)">
<path d="M14 10.2758C13.884 10.2758 13.7727 10.3219 13.6906 10.404C13.6086 10.486 13.5625 10.5973 13.5625 10.7133V14.4321C13.5625 14.5481 13.5164 14.6594 13.4344 14.7415C13.3523 14.8235 13.241 14.8696 13.125 14.8696H6.5625C6.44647 14.8696 6.33519 14.8235 6.25314 14.7415C6.17109 14.6594 6.125 14.5481 6.125 14.4321V6.99459C6.125 6.87856 6.17109 6.76728 6.25314 6.68523C6.33519 6.60319 6.44647 6.55709 6.5625 6.55709H10.9375C11.0535 6.55709 11.1648 6.511 11.2469 6.42895C11.3289 6.3469 11.375 6.23562 11.375 6.11959C11.375 6.00356 11.3289 5.89228 11.2469 5.81023C11.1648 5.72819 11.0535 5.68209 10.9375 5.68209H6.5625C6.2144 5.68209 5.88056 5.82037 5.63442 6.06651C5.38828 6.31266 5.25 6.6465 5.25 6.99459V14.4321C5.25 14.7802 5.38828 15.114 5.63442 15.3602C5.88056 15.6063 6.2144 15.7446 6.5625 15.7446H13.125C13.4731 15.7446 13.8069 15.6063 14.0531 15.3602C14.2992 15.114 14.4375 14.7802 14.4375 14.4321V10.7133C14.4375 10.5973 14.3914 10.486 14.3094 10.404C14.2273 10.3219 14.116 10.2758 14 10.2758ZM15.4941 5.50272C15.3274 5.34364 15.1058 5.25488 14.8754 5.25488C14.645 5.25488 14.4235 5.34364 14.2568 5.50272L13.7926 5.9669C13.7516 6.00793 13.7286 6.06356 13.7286 6.12156C13.7286 6.17957 13.7516 6.2352 13.7926 6.27622L14.7206 7.20415C14.7616 7.24516 14.8172 7.2682 14.8752 7.2682C14.9332 7.2682 14.9889 7.24516 15.0299 7.20415L15.4941 6.73997C15.6581 6.57588 15.7502 6.35336 15.7502 6.12134C15.7502 5.88932 15.6581 5.6668 15.4941 5.50272Z" fill="white"/>
<path d="M10.2192 9.85007L11.1472 10.778C11.1882 10.819 11.2438 10.8421 11.3018 10.8421C11.3598 10.8421 11.4154 10.819 11.4565 10.778L14.2407 7.99376C14.2611 7.97344 14.2772 7.9493 14.2883 7.92272C14.2993 7.89615 14.305 7.86766 14.305 7.83888C14.305 7.81011 14.2993 7.78162 14.2883 7.75504C14.2772 7.72847 14.2611 7.70433 14.2407 7.68401L13.3123 6.75563C13.2705 6.71626 13.2152 6.69434 13.1577 6.69434C13.1002 6.69434 13.0449 6.71626 13.003 6.75563L10.2192 9.54076C10.1782 9.58178 10.1552 9.63741 10.1552 9.69541C10.1552 9.75342 10.1782 9.80905 10.2192 9.85007ZM9.77734 10.1655C9.74213 10.1728 9.70923 10.1886 9.68149 10.2114C9.65374 10.2343 9.63198 10.2636 9.61809 10.2968L9.08784 11.6246C9.07198 11.6643 9.06813 11.7078 9.07676 11.7498C9.08539 11.7917 9.10613 11.8301 9.1364 11.8604C9.16747 11.8893 9.20591 11.9092 9.2475 11.9177C9.28909 11.9263 9.33224 11.9233 9.37222 11.9089L10.6978 11.3787C10.7315 11.3653 10.7612 11.3437 10.7845 11.3159C10.8077 11.2881 10.8237 11.255 10.831 11.2196C10.8383 11.1841 10.8366 11.1474 10.8262 11.1127C10.8158 11.078 10.797 11.0464 10.7713 11.0208L9.97465 10.2254C9.94923 10.2 9.91792 10.1812 9.8835 10.1708C9.84909 10.1603 9.81262 10.1585 9.77734 10.1655Z" fill="white"/>
</g>
<defs>
<clipPath id="clip0_6052_22458">
<rect width="10.5" height="10.5" fill="white" transform="translate(5.25 5.25)"/>
</clipPath>
</defs>
</svg>
