<svg width="10" height="10" viewBox="0 0 10 10" fill="none" xmlns="http://www.w3.org/2000/svg">
<path d="M6.23318 1.776C6.21453 1.75718 6.19235 1.74224 6.1679 1.73202C6.14346 1.7218 6.11724 1.71651 6.09075 1.71645C6.06428 1.71645 6.03808 1.72168 6.01364 1.73183C5.9892 1.74198 5.967 1.75685 5.94832 1.7756L1.55382 6.1713C1.5161 6.20903 1.49491 6.26019 1.49491 6.31353C1.49491 6.36688 1.5161 6.41804 1.55382 6.45576L3.54466 8.44661C3.58239 8.48432 3.63355 8.50551 3.68689 8.50551C3.74024 8.50551 3.7914 8.48432 3.82912 8.44661L8.22161 4.05412C8.2592 4.01641 8.28031 3.96534 8.28031 3.91209C8.28031 3.85884 8.2592 3.80777 8.22161 3.77006L6.23318 1.776ZM1.14865 6.93175C1.12334 6.90653 1.09178 6.8885 1.0572 6.87952C1.02262 6.87054 0.986275 6.87093 0.951897 6.88065C0.917464 6.89031 0.886228 6.90897 0.861405 6.93471C0.836582 6.96045 0.819069 6.99234 0.810671 7.02711L0.204727 9.55267C0.19673 9.58614 0.197451 9.6211 0.20682 9.65421C0.216189 9.68732 0.233893 9.71747 0.25824 9.74178C0.282744 9.76583 0.312923 9.78331 0.34598 9.7926C0.379037 9.80188 0.413903 9.80267 0.447346 9.79489L2.9709 9.19136C3.0057 9.18303 3.03765 9.16558 3.06345 9.14079C3.08926 9.116 3.10798 9.08477 3.1177 9.05034C3.12741 9.0159 3.12777 8.9795 3.11873 8.94488C3.10969 8.91026 3.09158 8.87867 3.06626 8.85339L1.14865 6.93175ZM9.50552 1.3487L8.65132 0.494101C8.46274 0.305896 8.2072 0.200195 7.94077 0.200195C7.67434 0.200195 7.41879 0.305896 7.23021 0.494101L6.65968 1.06424C6.62196 1.10196 6.60077 1.15312 6.60077 1.20647C6.60077 1.25981 6.62196 1.31097 6.65968 1.3487L8.65132 3.33994C8.68905 3.37766 8.74021 3.39885 8.79356 3.39885C8.8469 3.39885 8.89806 3.37766 8.93579 3.33994L9.50552 2.769C9.69348 2.58046 9.79902 2.32508 9.79902 2.05885C9.79902 1.79262 9.69348 1.53725 9.50552 1.3487Z" fill="#717171"/>
</svg>
