<svg width="20" height="20" viewBox="0 0 20 20" fill="none" xmlns="http://www.w3.org/2000/svg">
<path d="M10.0004 0.416898C7.4334 0.39378 4.962 1.38971 3.12828 3.18626C1.29455 4.9828 0.248214 7.43328 0.21875 10.0002C0.248214 12.5672 1.29455 15.0177 3.12828 16.8142C4.962 18.6107 7.4334 19.6067 10.0004 19.5836C11.9654 19.5903 13.8875 19.0099 15.5204 17.9169C15.634 17.8407 15.7315 17.7428 15.8073 17.6289C15.883 17.515 15.9356 17.3873 15.9621 17.2531C15.9885 17.1189 15.9882 16.9808 15.9613 16.8467C15.9343 16.7126 15.8812 16.5851 15.805 16.4715C15.7288 16.3579 15.6309 16.2604 15.517 16.1846C15.4031 16.1089 15.2754 16.0563 15.1412 16.0298C15.007 16.0034 14.8689 16.0037 14.7348 16.0306C14.6007 16.0576 14.4732 16.1107 14.3596 16.1869C13.0699 17.0494 11.5519 17.5067 10.0004 17.5002C7.98578 17.5238 6.04401 16.7475 4.60089 15.3416C3.15776 13.9356 2.33107 12.0148 2.30208 10.0002C2.33107 7.98567 3.15776 6.06482 4.60089 4.65887C6.04401 3.25292 7.98578 2.47664 10.0004 2.50023C12.015 2.47664 13.9568 3.25292 15.3999 4.65887C16.8431 6.06482 17.6698 7.98567 17.6987 10.0002V10.7427C17.6853 11.1629 17.5088 11.5614 17.2068 11.8539C16.9048 12.1464 16.5009 12.31 16.0804 12.31C15.66 12.31 15.256 12.1464 14.954 11.8539C14.652 11.5614 14.4756 11.1629 14.4621 10.7427V10.0002C14.4776 9.11442 14.2292 8.24404 13.7483 7.49993C13.2675 6.75583 12.5761 6.17169 11.7621 5.82191C10.9481 5.47214 10.0485 5.37256 9.1777 5.53586C8.30694 5.69917 7.50449 6.11797 6.87257 6.73891C6.24065 7.35985 5.80786 8.15484 5.62932 9.0226C5.45079 9.89037 5.53458 10.7916 5.87004 11.6116C6.2055 12.4316 6.77744 13.1332 7.51301 13.627C8.24857 14.1207 9.11447 14.3844 10.0004 14.3844C10.6006 14.3845 11.1947 14.264 11.7474 14.0301C12.3001 13.7962 12.8002 13.4536 13.2179 13.0227C13.6973 13.6106 14.3458 14.0369 15.0756 14.2437C15.8054 14.4506 16.5811 14.4281 17.2977 14.1792C18.0142 13.9303 18.6369 13.4671 19.0813 12.8524C19.5257 12.2377 19.7704 11.5012 19.7821 10.7427V10.0002C19.7526 7.43328 18.7063 4.9828 16.8726 3.18626C15.0388 1.38971 12.5674 0.39378 10.0004 0.416898ZM10.0004 12.3011C9.54848 12.2862 9.11093 12.1385 8.74236 11.8766C8.37379 11.6146 8.09051 11.2499 7.92786 10.828C7.76521 10.4061 7.73039 9.94564 7.82775 9.50407C7.92511 9.06249 8.15033 8.65936 8.47532 8.34496C8.80031 8.03056 9.21068 7.81881 9.65524 7.73613C10.0998 7.65345 10.5589 7.7035 10.9752 7.88003C11.3914 8.05656 11.7466 8.35177 11.9962 8.72881C12.2458 9.10585 12.3788 9.54805 12.3787 10.0002C12.3676 10.6204 12.1109 11.2109 11.6651 11.6422C11.2193 12.0735 10.6206 12.3104 10.0004 12.3011Z" fill="#717171"/>
</svg>
