<svg width="40" height="40" viewBox="0 0 40 40" fill="none" xmlns="http://www.w3.org/2000/svg">
<g clip-path="url(#clip0)">
<path d="M35 2.92664C35 2.8743 34.9846 2.82311 34.9556 2.77954C34.9266 2.73597 34.8853 2.70196 34.837 2.68182C34.7887 2.66167 34.7355 2.65629 34.6841 2.66634C34.6327 2.67639 34.5855 2.70144 34.5483 2.73831L20.3333 16.95C19.5813 17.7003 18.5623 18.1216 17.5 18.1216C16.4377 18.1216 15.4187 17.7003 14.6667 16.95L0.453333 2.73831C0.416856 2.70103 0.369949 2.67566 0.318782 2.66555C0.267615 2.65543 0.214585 2.66104 0.166667 2.68164C0.11751 2.70104 0.0753275 2.73478 0.0456036 2.77848C0.0158797 2.82217 -1.02345e-05 2.8738 4.94563e-09 2.92664V20.4266C4.94563e-09 21.2002 0.307291 21.9421 0.854272 22.489C1.40125 23.036 2.14312 23.3433 2.91667 23.3433H23.81C23.8649 23.3432 23.9192 23.3322 23.9698 23.3111C24.0204 23.2899 24.0664 23.2589 24.105 23.22L34.88 12.445C34.9184 12.4064 34.9488 12.3607 34.9694 12.3103C34.99 12.26 35.0004 12.206 35 12.1516V2.92664Z" fill="#2266E2"/>
<path d="M16.2117 15.4033C16.5549 15.7428 17.0182 15.9332 17.5009 15.9332C17.9836 15.9332 18.4468 15.7428 18.7901 15.4033L32.9151 1.27834C33.0107 1.18244 33.0779 1.06186 33.1091 0.930025C33.1403 0.798193 33.1343 0.660289 33.0917 0.531676C32.9251 0.0550097 32.4851 0.0100098 32.0834 0.0100098H2.91673C2.51673 0.0100098 2.06673 0.0550097 1.91673 0.531676C1.87493 0.660373 1.8693 0.798082 1.90045 0.929761C1.93161 1.06144 1.99835 1.18202 2.09339 1.27834L16.2117 15.4033ZM19.3334 39.975L24.5717 38.9267C24.6457 38.912 24.7144 38.8774 24.7703 38.8267C24.8262 38.7761 24.8673 38.7112 24.8892 38.639C24.9111 38.5667 24.913 38.4899 24.8946 38.4167C24.8763 38.3435 24.8384 38.2767 24.7851 38.2233L20.1034 33.5433C20.0501 33.4901 19.9833 33.4523 19.9102 33.4341C19.8371 33.4159 19.7604 33.4179 19.6884 33.44C19.6164 33.4622 19.5517 33.5033 19.501 33.559C19.4503 33.6147 19.4155 33.683 19.4001 33.7567L18.3517 39C18.325 39.1344 18.3318 39.2734 18.3716 39.4046C18.4113 39.5357 18.4828 39.655 18.5798 39.752C18.6767 39.8489 18.796 39.9204 18.9272 39.9602C19.0583 40 19.1973 40.0068 19.3317 39.98L19.3334 39.975ZM38.7117 19.6C37.8932 18.7838 36.7844 18.3254 35.6284 18.3254C34.4724 18.3254 33.3636 18.7838 32.5451 19.6L21.4134 30.7333C21.3355 30.8114 21.2918 30.9172 21.2918 31.0275C21.2918 31.1378 21.3355 31.2436 21.4134 31.3217L27.0001 36.9117C27.0782 36.9895 27.1839 37.0333 27.2942 37.0333C27.4045 37.0333 27.5103 36.9895 27.5884 36.9117L38.7201 25.7783C39.1252 25.3721 39.4464 24.8901 39.6653 24.3598C39.8842 23.8294 39.9964 23.2612 39.9956 22.6875C39.9949 22.1137 39.8811 21.5458 39.6608 21.016C39.4405 20.4863 39.118 20.0051 38.7117 19.6Z" fill="#2266E2"/>
</g>
<defs>
<clipPath id="clip0">
<rect width="40" height="40" fill="white"/>
</clipPath>
</defs>
</svg>
