<svg width="13" height="12" viewBox="0 0 13 12" fill="none" xmlns="http://www.w3.org/2000/svg">
<path d="M5.95124 8.17759C5.94721 8.06789 5.96509 7.95849 6.00383 7.85579C6.04258 7.75308 6.10141 7.65913 6.17689 7.57943C6.25237 7.49973 6.34299 7.43588 6.44343 7.39161C6.54388 7.34734 6.65215 7.32355 6.7619 7.32161H6.77701C6.99778 7.32204 7.20981 7.40791 7.36866 7.56123C7.5275 7.71455 7.62083 7.92341 7.62907 8.14402C7.63318 8.25374 7.61535 8.36317 7.57664 8.46591C7.53792 8.56865 7.47909 8.66263 7.4036 8.74235C7.3281 8.82206 7.23745 8.88591 7.13697 8.93015C7.03649 8.9744 6.92818 8.99814 6.81841 9H6.8033C6.58262 8.9993 6.37074 8.91334 6.21195 8.76007C6.05317 8.60681 5.95976 8.39811 5.95124 8.17759ZM6.23097 5.91624V2.55946C6.23097 2.41108 6.28992 2.26878 6.39484 2.16386C6.49976 2.05894 6.64206 2 6.79044 2C6.93881 2 7.08112 2.05894 7.18604 2.16386C7.29095 2.26878 7.3499 2.41108 7.3499 2.55946V5.91624C7.3499 6.06462 7.29095 6.20692 7.18604 6.31184C7.08112 6.41676 6.93881 6.4757 6.79044 6.4757C6.64206 6.4757 6.49976 6.41676 6.39484 6.31184C6.28992 6.20692 6.23097 6.06462 6.23097 5.91624Z" fill="#FE6955"/>
</svg>
