<svg width="66" height="66" viewBox="0 0 66 66" fill="none" xmlns="http://www.w3.org/2000/svg">
<path d="M55.7076 32.5768C55.6409 26.5914 53.2229 20.8722 48.9756 16.6543C46.873 14.5682 44.3717 12.9271 41.6209 11.8291C38.8701 10.731 35.9262 10.1985 32.9651 10.2633C26.8973 10.3631 21.1126 12.8465 16.8611 17.1768C14.7346 19.296 13.057 21.8221 11.9287 24.6041C10.8004 27.3862 10.2444 30.3671 10.2941 33.3688C10.2908 36.3018 10.8664 39.2065 11.9877 41.9166C13.1091 44.6266 14.7543 47.0888 16.8289 49.1619C18.9036 51.235 21.3669 52.8784 24.0778 53.9977C26.7887 55.1171 29.6939 55.6905 32.6268 55.6851H33.0366C39.1049 55.6198 44.8997 53.1502 49.1497 48.8182C53.3998 44.4862 55.7582 38.6453 55.7076 32.5768ZM30.2508 21.9673C30.2508 21.238 30.5406 20.5385 31.0563 20.0228C31.572 19.5071 32.2715 19.2173 33.0008 19.2173C33.7302 19.2173 34.4296 19.5071 34.9454 20.0228C35.4611 20.5385 35.7508 21.238 35.7508 21.9673V34.3423C35.7508 35.0717 35.4611 35.7712 34.9454 36.2869C34.4296 36.8026 33.7302 37.0923 33.0008 37.0923C32.2715 37.0923 31.572 36.8026 31.0563 36.2869C30.5406 35.7712 30.2508 35.0717 30.2508 34.3423V21.9673ZM33.0613 46.7806H33.0008C32.0891 46.7882 31.2118 46.4334 30.5617 45.7942C29.9116 45.1549 29.5421 44.2836 29.5344 43.372C29.5268 42.4603 29.8816 41.5829 30.5208 40.9328C31.1601 40.2828 32.0314 39.9132 32.9431 39.9056H33.0008C33.9125 39.8983 34.7897 40.2535 35.4396 40.893C36.0894 41.5325 36.4585 42.4039 36.4658 43.3156C36.4731 44.2273 36.1179 45.1045 35.4784 45.7543C34.8389 46.4041 33.9675 46.7733 33.0558 46.7806H33.0613Z" fill="#FE6955"/>
</svg>
