<svg width="10" height="10" viewBox="0 0 10 10" fill="none" xmlns="http://www.w3.org/2000/svg">
    <path d="M9.75006 9C9.75006 9.19891 9.67105 9.38967 9.53039 9.53033C9.38974 9.67098 9.19898 9.75 9.00006 9.75C8.80115 9.75 8.61039 9.67098 8.46973 9.53033C8.32908 9.38967 8.25006 9.19891 8.25006 9V3.12C8.25001 3.09528 8.24263 3.07114 8.22886 3.05062C8.21509 3.0301 8.19555 3.01412 8.1727 3.0047C8.14985 2.99529 8.12472 2.99285 8.10049 2.99771C8.07626 3.00257 8.05402 3.0145 8.03656 3.032L1.53006 9.5315C1.3893 9.67206 1.19846 9.75095 0.999533 9.75081C0.800604 9.75067 0.609878 9.67151 0.469314 9.53075C0.328749 9.38998 0.24986 9.19914 0.25 9.00021C0.250141 8.80129 0.3293 8.61056 0.470064 8.47L6.98456 1.96249C7.00209 1.94501 7.01403 1.92272 7.01887 1.89844C7.02372 1.87417 7.02124 1.849 7.01176 1.82613C7.00228 1.80326 6.98622 1.78372 6.96563 1.76999C6.94503 1.75626 6.92082 1.74895 6.89606 1.74899H1.00006C0.801151 1.74899 0.610386 1.66998 0.469734 1.52933C0.329081 1.38867 0.250064 1.19791 0.250064 0.998995C0.250064 0.800082 0.329081 0.609318 0.469734 0.468665C0.610386 0.328012 0.801151 0.248995 1.00006 0.248995H8.50006C8.6643 0.248995 8.82693 0.281361 8.97865 0.344241C9.13037 0.407122 9.26822 0.499286 9.3843 0.615465C9.50039 0.731645 9.59244 0.869561 9.6552 1.02133C9.71796 1.17311 9.7502 1.33576 9.75006 1.5V9Z" fill="#717171"/>
</svg>
