<svg width="21" height="20" viewBox="0 0 21 20" fill="none" xmlns="http://www.w3.org/2000/svg">
<path d="M17.3704 3.51745C17.3747 3.45121 17.3654 3.38478 17.3431 3.32227C17.3207 3.25976 17.2858 3.20249 17.2405 3.154C17.1951 3.10551 17.1403 3.06683 17.0795 3.04034C17.0186 3.01385 16.9529 3.00012 16.8866 3H3.33462C3.26821 3.00003 3.20251 3.01369 3.1416 3.04015C3.08068 3.0666 3.02585 3.10528 2.98049 3.15379C2.93514 3.2023 2.90022 3.25961 2.87792 3.32216C2.85561 3.38472 2.84638 3.45118 2.85081 3.51745C2.96457 5.10149 3.59325 6.60486 4.64098 7.79833C5.68872 8.99181 7.09801 9.80989 8.65398 10.1278V16.5151C8.65402 16.6073 8.68031 16.6975 8.72979 16.7753C8.77927 16.8531 8.84988 16.9151 8.93336 16.9542C9.01684 16.9933 9.10972 17.0078 9.20114 16.996C9.29256 16.9842 9.37873 16.9466 9.44956 16.8876L11.39 15.2706C11.4447 15.2252 11.4887 15.1682 11.5189 15.1038C11.5491 15.0394 11.5647 14.9692 11.5646 14.8981V10.1278C13.1211 9.81049 14.5311 8.99265 15.5793 7.79912C16.6276 6.60558 17.2566 5.10188 17.3704 3.51745V3.51745Z" stroke="#717171" stroke-width="1.2" stroke-linecap="round" stroke-linejoin="round"/>
</svg>
