<svg width="16" height="16" viewBox="0 0 16 16" fill="none" xmlns="http://www.w3.org/2000/svg">
    <path d="M15.2606 1.51745C15.265 1.45121 15.2557 1.38478 15.2333 1.32227C15.211 1.25976 15.1761 1.20249 15.1307 1.154C15.0854 1.10551 15.0306 1.06683 14.9697 1.04034C14.9089 1.01385 14.8432 1.00012 14.7768 1H1.22488C1.15847 1.00003 1.09277 1.01369 1.03186 1.04015C0.970943 1.0666 0.916109 1.10528 0.870752 1.15379C0.825395 1.2023 0.790482 1.25961 0.768175 1.32216C0.745868 1.38472 0.736642 1.45118 0.741069 1.51745C0.854831 3.10149 1.48351 4.60486 2.53124 5.79833C3.57898 6.99181 4.98827 7.80989 6.54424 8.12784V14.5151C6.54428 14.6073 6.57057 14.6975 6.62005 14.7753C6.66953 14.8531 6.74014 14.9151 6.82362 14.9542C6.90709 14.9933 6.99998 15.0078 7.0914 14.996C7.18282 14.9842 7.26899 14.9466 7.33982 14.8876L9.28024 13.2706C9.33495 13.2252 9.37896 13.1682 9.40914 13.1038C9.43933 13.0394 9.45494 12.9692 9.45488 12.8981V8.12784C11.0114 7.81049 12.4213 6.99265 13.4696 5.79912C14.5178 4.60558 15.1468 3.10188 15.2606 1.51745V1.51745Z" stroke="#717171" stroke-width="1.2" stroke-linecap="round" stroke-linejoin="round"/>
</svg>
