<svg width="20" height="20" viewBox="0 0 20 20" fill="none" xmlns="http://www.w3.org/2000/svg">
<path d="M17.2606 3.51745C17.265 3.45121 17.2557 3.38478 17.2333 3.32227C17.211 3.25976 17.1761 3.20249 17.1307 3.154C17.0854 3.10551 17.0306 3.06683 16.9697 3.04034C16.9089 3.01385 16.8432 3.00012 16.7768 3H3.22488C3.15847 3.00003 3.09277 3.01369 3.03186 3.04015C2.97094 3.0666 2.91611 3.10528 2.87075 3.15379C2.8254 3.2023 2.79048 3.25961 2.76817 3.32216C2.74587 3.38472 2.73664 3.45118 2.74107 3.51745C2.85483 5.10149 3.48351 6.60486 4.53124 7.79833C5.57898 8.99181 6.98827 9.80989 8.54424 10.1278V16.5151C8.54428 16.6073 8.57057 16.6975 8.62005 16.7753C8.66953 16.8531 8.74014 16.9151 8.82362 16.9542C8.90709 16.9933 8.99998 17.0078 9.0914 16.996C9.18282 16.9842 9.26899 16.9466 9.33982 16.8876L11.2802 15.2706C11.3349 15.2252 11.379 15.1682 11.4091 15.1038C11.4393 15.0394 11.4549 14.9692 11.4549 14.8981V10.1278C13.0114 9.81049 14.4213 8.99265 15.4696 7.79912C16.5178 6.60558 17.1468 5.10188 17.2606 3.51745V3.51745Z" stroke="#717171" stroke-width="1.2" stroke-linecap="round" stroke-linejoin="round"/>
</svg>
