<svg width="67" height="64" viewBox="0 0 67 64" fill="none" xmlns="http://www.w3.org/2000/svg">
<path d="M62.9125 25.4933C63.0356 24.9108 63.0271 24.3083 62.8876 23.7295C62.7481 23.1508 62.4812 22.6105 62.1064 22.148C61.7316 21.6855 61.2582 21.3125 60.7209 21.0563C60.1836 20.8 59.5959 20.6669 59.0005 20.6666H27.3579C27.0505 20.6667 26.7526 20.5606 26.5144 20.3662C26.2763 20.1718 26.1127 19.9011 26.0512 19.6L25.3099 15.8666C25.1254 14.9627 24.6341 14.1503 23.9192 13.5671C23.2043 12.984 22.3098 12.6658 21.3872 12.6666H7.00055C6.41831 12.6665 5.84307 12.7935 5.315 13.0387C4.78692 13.2839 4.31875 13.6415 3.94317 14.0864C3.5676 14.5313 3.29367 15.0528 3.14053 15.6145C2.98739 16.1763 2.95873 16.7647 3.05655 17.3386L5.71521 50.672C5.87389 51.603 6.35692 52.4479 7.07876 53.057C7.80061 53.6661 8.71472 54.0002 9.65921 54H57.6672C58.5848 53.9975 59.4738 53.6806 60.1861 53.1022C60.8984 52.5238 59.3911 51.7188 59.5819 50.8213C61.0006 44.032 61.3232 33.0186 62.9125 25.4933Z" fill="url(#paint0_linear)"/>
<path d="M66.9126 30.4933C67.0356 29.9108 67.0271 29.3083 66.8876 28.7295C66.7481 28.1508 66.4812 27.6105 66.1064 27.148C65.7316 26.6855 65.2582 26.3125 64.7209 26.0563C64.1836 25.8 63.5959 25.6669 63.0005 25.6666H4.00055C3.41831 25.6665 2.84307 25.7935 2.315 26.0387C1.78692 26.2839 1.31875 26.6415 0.943174 27.0864C0.567598 27.5313 0.293674 28.0528 0.140534 28.6145C-0.0126051 29.1763 -0.0412682 29.7647 0.056547 30.3386L2.71521 55.672C2.87389 56.603 3.35692 57.4479 4.07876 58.057C4.80061 58.6661 5.71472 59.0002 6.65921 59H60.6672C61.5848 58.9975 62.4738 58.6806 63.1861 58.1022C63.8984 57.5238 64.3911 56.7188 64.5819 55.8213C65.5 49 66.1064 38 66.9126 30.4933Z" fill="#549DFC"/>
<defs>
<linearGradient id="paint0_linear" x1="44.5" y1="54" x2="44.5" y2="-2" gradientUnits="userSpaceOnUse">
<stop stop-color="#2257E2"/>
<stop offset="1" stop-color="#5AA6FF"/>
</linearGradient>
</defs>
</svg>
