<svg width="8" height="8" viewBox="0 0 8 8" fill="none" xmlns="http://www.w3.org/2000/svg">
<path d="M4 0C3.20888 0 2.43552 0.234596 1.77772 0.674121C1.11992 1.11365 0.607234 1.73836 0.304484 2.46927C0.00173314 3.20017 -0.0774802 4.00444 0.0768607 4.78036C0.231202 5.55628 0.612165 6.26902 1.17157 6.82843C1.73098 7.38784 2.44372 7.7688 3.21964 7.92314C3.99556 8.07748 4.79983 7.99827 5.53074 7.69552C6.26164 7.39277 6.88635 6.88008 7.32588 6.22228C7.76541 5.56448 8 4.79112 8 4C7.99877 2.93951 7.57694 1.92281 6.82707 1.17294C6.07719 0.423059 5.06049 0.00123507 4 0V0ZM6.309 2.73333L4.02734 5.82967C4.0004 5.86541 3.96661 5.89542 3.92795 5.91796C3.88928 5.94051 3.84652 5.95512 3.80214 5.96095C3.75777 5.96679 3.71268 5.96372 3.6695 5.95194C3.62633 5.94016 3.58593 5.9199 3.55067 5.89233L1.92134 4.58967C1.88715 4.56231 1.85868 4.52848 1.83757 4.49012C1.81645 4.45177 1.8031 4.40962 1.79827 4.3661C1.78852 4.27821 1.81408 4.19004 1.86934 4.121C1.92459 4.05196 2.00501 4.00769 2.0929 3.99794C2.18079 3.98818 2.26896 4.01375 2.338 4.069L3.69667 5.156L5.77234 2.339C5.79732 2.3015 5.82966 2.26946 5.86738 2.24481C5.9051 2.22016 5.94742 2.20342 5.9918 2.19559C6.03618 2.18776 6.08168 2.18901 6.12556 2.19926C6.16944 2.20951 6.21078 2.22855 6.24709 2.25523C6.28341 2.28191 6.31393 2.31568 6.33683 2.35449C6.35972 2.39331 6.37451 2.43636 6.38029 2.48104C6.38608 2.52573 6.38275 2.57113 6.37049 2.61449C6.35824 2.65785 6.33732 2.69828 6.309 2.73333Z" fill="#40E395"/>
</svg>
