<svg width="13" height="12" viewBox="0 0 13 12" fill="none" xmlns="http://www.w3.org/2000/svg">
<path d="M10.4452 4.10012L7.01147 8.74462C6.97093 8.79823 6.92008 8.84325 6.86189 8.87706C6.80371 8.91087 6.73934 8.93279 6.67257 8.94154C6.60579 8.95029 6.53793 8.9457 6.47295 8.92803C6.40797 8.91036 6.34718 8.87996 6.29411 8.83862L3.84207 6.88462C3.79062 6.84358 3.74779 6.79284 3.71601 6.7353C3.68423 6.67776 3.66414 6.61455 3.65687 6.54927C3.64219 6.41743 3.68066 6.28518 3.76382 6.18162C3.84697 6.07805 3.96799 6.01165 4.10027 5.99702C4.23254 5.98239 4.36522 6.02074 4.46913 6.10362L6.51383 7.73412L9.63758 3.50862C9.67518 3.45237 9.72384 3.40431 9.78061 3.36733C9.83737 3.33036 9.90107 3.30524 9.96786 3.29349C10.0346 3.28175 10.1031 3.28362 10.1692 3.299C10.2352 3.31438 10.2974 3.34294 10.3521 3.38297C10.4067 3.42299 10.4526 3.47364 10.4871 3.53186C10.5216 3.59007 10.5438 3.65465 10.5525 3.72168C10.5612 3.78871 10.5562 3.85681 10.5378 3.92185C10.5193 3.9869 10.4878 4.04754 10.4452 4.10012Z" fill="#5FCF64"/>
</svg>
