<svg width="24" height="24" viewBox="0 0 24 24" fill="none" xmlns="http://www.w3.org/2000/svg">
<path d="M19.518 8.288C20.9932 9.35659 22.3306 10.6034 23.5 12C23.5 12 18.352 18.5 12 18.5C10.9826 18.4944 9.97159 18.338 9 18.036M4.468 15.7C2.99842 14.6343 1.66572 13.3916 0.5 12C0.5 12 5.648 5.5 12 5.5C12.8436 5.50356 13.6835 5.61274 14.5 5.825M8 12C8 10.9391 8.42143 9.92172 9.17157 9.17157C9.92172 8.42143 10.9391 8 12 8M16 12C16 13.0609 15.5786 14.0783 14.8284 14.8284C14.0783 15.5786 13.0609 16 12 16" stroke="black" stroke-linecap="round" stroke-linejoin="round"/>
<path d="M21.75 2.25L2.25 21.75" stroke="black" stroke-linecap="round" stroke-linejoin="round"/>
</svg>
