<svg width="4" height="10" viewBox="0 0 4 10" fill="none" xmlns="http://www.w3.org/2000/svg">
<path opacity="0.8" d="M3.37012 1.74097C3.37012 1.93875 3.31147 2.13209 3.20159 2.29654C3.09171 2.46099 2.93553 2.58916 2.7528 2.66485C2.57007 2.74053 2.36901 2.76034 2.17503 2.72175C1.98105 2.68317 1.80286 2.58793 1.66301 2.44807C1.52316 2.30822 1.42792 2.13004 1.38933 1.93606C1.35075 1.74208 1.37055 1.54101 1.44624 1.35828C1.52192 1.17556 1.6501 1.01938 1.81455 0.909497C1.979 0.799616 2.17233 0.740967 2.37012 0.740967C2.63533 0.740967 2.88969 0.846324 3.07722 1.03386C3.26476 1.2214 3.37012 1.47575 3.37012 1.74097ZM1.87012 8.46597V5.48097C1.87012 5.41466 1.84378 5.35107 1.79689 5.30419C1.75001 5.25731 1.68642 5.23097 1.62012 5.23097H1.37012C1.1712 5.23097 0.980439 5.15195 0.839787 5.0113C0.699134 4.87064 0.620117 4.67988 0.620117 4.48097C0.620117 4.28206 0.699134 4.09129 0.839787 3.95064C0.980439 3.80998 1.1712 3.73097 1.37012 3.73097H2.61512C2.81403 3.73097 3.0048 3.80998 3.14545 3.95064C3.2861 4.09129 3.36512 4.28206 3.36512 4.48097V8.46597C3.36512 8.66488 3.2861 8.85564 3.14545 8.9963C3.0048 9.13695 2.81403 9.21597 2.61512 9.21597C2.4162 9.21597 2.22544 9.13695 2.08479 8.9963C1.94413 8.85564 1.86512 8.66488 1.86512 8.46597H1.87012Z" fill="#717171"/>
</svg>
