<svg width="8" height="10" viewBox="0 0 8 10" fill="none" xmlns="http://www.w3.org/2000/svg">
<path fill-rule="evenodd" clip-rule="evenodd" d="M7.93129 4.75787C7.38621 5.51044 6.50028 5.99999 5.5 5.99999C3.84315 5.99999 2.5 4.65685 2.5 2.99999C2.5 2.52703 2.60945 2.07962 2.8044 1.68173C1.17929 2.19008 0 3.70732 0 5.49999C0 7.70913 1.79086 9.49999 4 9.49999C6.20914 9.49999 8 7.70913 8 5.49999C8 5.24641 7.9764 4.99835 7.93129 4.75787Z" fill="#717171"/>
<path d="M5.5 0.5C5.00555 0.5 4.5222 0.646622 4.11108 0.921326C3.69995 1.19603 3.37952 1.58648 3.1903 2.04329C3.00108 2.50011 2.95157 3.00277 3.04804 3.48773C3.1445 3.97268 3.3826 4.41814 3.73223 4.76777C4.08187 5.1174 4.52732 5.3555 5.01228 5.45196C5.49723 5.54843 5.99989 5.49892 6.45671 5.3097C6.91352 5.12048 7.30397 4.80005 7.57867 4.38893C7.85338 3.9778 8 3.49445 8 3C7.99928 2.33718 7.73566 1.70171 7.26698 1.23302C6.79829 0.764339 6.16282 0.500717 5.5 0.5V0.5ZM5.5 4.45833C5.43819 4.45833 5.37778 4.44001 5.32639 4.40567C5.275 4.37133 5.23494 4.32252 5.21129 4.26542C5.18764 4.20832 5.18145 4.14549 5.19351 4.08487C5.20556 4.02425 5.23533 3.96857 5.27903 3.92486C5.32273 3.88116 5.37842 3.8514 5.43904 3.83934C5.49965 3.82728 5.56249 3.83347 5.61959 3.85712C5.67669 3.88077 5.7255 3.92083 5.75984 3.97222C5.79417 4.02361 5.8125 4.08403 5.8125 4.14583C5.8125 4.22871 5.77958 4.3082 5.72097 4.3668C5.66237 4.42541 5.58288 4.45833 5.5 4.45833ZM5.83333 3.19167C5.79617 3.20789 5.76454 3.23461 5.74234 3.26854C5.72013 3.30248 5.70831 3.34215 5.70833 3.38271C5.70833 3.43796 5.68639 3.49095 5.64732 3.53002C5.60824 3.56909 5.55525 3.59104 5.5 3.59104C5.44475 3.59104 5.39176 3.56909 5.35269 3.53002C5.31362 3.49095 5.29167 3.43796 5.29167 3.38271C5.29165 3.26108 5.32712 3.14209 5.39373 3.04033C5.46034 2.93856 5.5552 2.85844 5.66667 2.80979C5.73553 2.77974 5.79498 2.73163 5.83873 2.67055C5.88248 2.60948 5.9089 2.53771 5.9152 2.46284C5.9215 2.38798 5.90744 2.3128 5.87451 2.24527C5.84158 2.17774 5.791 2.12038 5.72813 2.07924C5.66526 2.03811 5.59244 2.01474 5.51737 2.01161C5.44231 2.00847 5.36779 2.02569 5.30172 2.06145C5.23564 2.0972 5.18046 2.15015 5.14202 2.2147C5.10357 2.27925 5.0833 2.35299 5.08333 2.42812C5.08333 2.48338 5.06139 2.53637 5.02232 2.57544C4.98324 2.61451 4.93025 2.63646 4.875 2.63646C4.81975 2.63646 4.76676 2.61451 4.72769 2.57544C4.68862 2.53637 4.66667 2.48338 4.66667 2.42812C4.66667 2.27788 4.70728 2.13043 4.78422 2.00139C4.86115 1.87234 4.97154 1.76649 5.10371 1.69504C5.23588 1.62359 5.3849 1.5892 5.53501 1.59551C5.68512 1.60183 5.83073 1.6486 5.95643 1.73089C6.08213 1.81318 6.18325 1.92792 6.24908 2.06298C6.31491 2.19803 6.34301 2.34837 6.33039 2.49808C6.31778 2.64779 6.26492 2.79131 6.17742 2.91344C6.08992 3.03557 5.97103 3.13178 5.83333 3.19187V3.19167Z" fill="#494949"/>
</svg>
