<svg width="14" height="14" viewBox="0 0 14 14" fill="none" xmlns="http://www.w3.org/2000/svg">
<path d="M7.00008 13.7082C8.32686 13.7082 9.62385 13.3147 10.727 12.5776C11.8302 11.8405 12.69 10.7928 13.1978 9.56701C13.7055 8.34122 13.8384 6.9924 13.5795 5.69111C13.3207 4.38982 12.6818 3.19451 11.7436 2.25633C10.8054 1.31816 9.6101 0.679248 8.30881 0.420406C7.00752 0.161563 5.6587 0.294411 4.43291 0.802148C3.20713 1.30989 2.15943 2.16971 1.42231 3.27289C0.685185 4.37607 0.291748 5.67306 0.291748 6.99984C0.293755 8.77839 1.00117 10.4835 2.25879 11.7411C3.51641 12.9988 5.22154 13.7062 7.00008 13.7082ZM3.50008 6.41651H6.27091C6.30959 6.41651 6.34669 6.40114 6.37403 6.37379C6.40138 6.34644 6.41675 6.30935 6.41675 6.27067V3.49984C6.41675 3.34513 6.47821 3.19676 6.5876 3.08736C6.697 2.97797 6.84537 2.91651 7.00008 2.91651C7.15479 2.91651 7.30316 2.97797 7.41256 3.08736C7.52196 3.19676 7.58341 3.34513 7.58341 3.49984V6.27067C7.58341 6.30935 7.59878 6.34644 7.62613 6.37379C7.65348 6.40114 7.69057 6.41651 7.72925 6.41651H10.5001C10.6548 6.41651 10.8032 6.47797 10.9126 6.58736C11.022 6.69676 11.0834 6.84513 11.0834 6.99984C11.0834 7.15455 11.022 7.30292 10.9126 7.41232C10.8032 7.52172 10.6548 7.58317 10.5001 7.58317H7.72925C7.69057 7.58317 7.65348 7.59854 7.62613 7.62589C7.59878 7.65324 7.58341 7.69033 7.58341 7.72901V10.4998C7.58341 10.6546 7.52196 10.8029 7.41256 10.9123C7.30316 11.0217 7.15479 11.0832 7.00008 11.0832C6.84537 11.0832 6.697 11.0217 6.5876 10.9123C6.47821 10.8029 6.41675 10.6546 6.41675 10.4998V7.72901C6.41675 7.69033 6.40138 7.65324 6.37403 7.62589C6.34669 7.59854 6.30959 7.58317 6.27091 7.58317H3.50008C3.34537 7.58317 3.197 7.52172 3.0876 7.41232C2.97821 7.30292 2.91675 7.15455 2.91675 6.99984C2.91675 6.84513 2.97821 6.69676 3.0876 6.58736C3.197 6.47797 3.34537 6.41651 3.50008 6.41651Z" fill="#C4C4C4"/>
</svg>
