<svg width="20" height="20" viewBox="0 0 20 20" fill="none" xmlns="http://www.w3.org/2000/svg">
<g opacity="0.5">
<path d="M7.18673 15.248L5.75372 15.248C4.99429 15.248 4.26595 14.9899 3.72895 14.5305C3.19194 14.0711 2.89026 13.4481 2.89026 12.7984L2.89026 5.4496C2.89026 4.79992 3.19194 4.17686 3.72895 3.71747C4.26595 3.25808 4.99429 3 5.75372 3L11.4807 3C12.2401 3 12.9684 3.25808 13.5054 3.71747C14.0424 4.17686 14.3441 4.79992 14.3441 5.4496L14.3441 11.5736" stroke="#717171" stroke-width="1.5" stroke-linecap="round" stroke-linejoin="round"/>
<path d="M11.4806 9.12402L14.344 11.5736L17.2075 9.12402" stroke="#717171" stroke-width="1.5" stroke-linecap="round" stroke-linejoin="round"/>
<path d="M11.4806 11.5736L14.344 14.0232L17.2075 11.5736" stroke="#717171" stroke-width="1.5" stroke-linecap="round" stroke-linejoin="round"/>
</g>
</svg>
