<svg width="18" height="8" viewBox="0 0 18 8" fill="none" xmlns="http://www.w3.org/2000/svg">
<path opacity="0.8" d="M9.06813 4.068C9.06813 4.068 5.72513 7.136 4.00013 7.136C3.18644 7.136 2.40609 6.81277 1.83073 6.2374C1.25536 5.66204 0.932129 4.88168 0.932129 4.068C0.932129 3.25432 1.25536 2.47396 1.83073 1.8986C2.40609 1.32324 3.18644 1 4.00013 1C5.72513 1 9.06813 4.068 9.06813 4.068ZM9.06813 4.068C9.06813 4.068 12.4121 7.136 14.1331 7.136C14.9468 7.136 15.7272 6.81277 16.3025 6.2374C16.8779 5.66204 17.2011 4.88168 17.2011 4.068C17.2011 3.25432 16.8779 2.47396 16.3025 1.8986C15.7272 1.32324 14.9468 1 14.1331 1C12.4121 1 9.06813 4.068 9.06813 4.068Z" stroke="black" stroke-width="1.1" stroke-linecap="round" stroke-linejoin="round"/>
</svg>
