<svg width="12" height="10" viewBox="0 0 12 10" fill="none" xmlns="http://www.w3.org/2000/svg">
<path d="M6.625 9.16669C7.42849 9.16669 8.21393 8.92843 8.882 8.48203C9.55008 8.03564 10.0708 7.40117 10.3783 6.65884C10.6857 5.91652 10.7662 5.09968 10.6094 4.31163C10.4527 3.52359 10.0658 2.79972 9.49762 2.23157C8.92947 1.66342 8.2056 1.2765 7.41755 1.11975C6.62951 0.962996 5.81267 1.04345 5.07035 1.35093C4.32802 1.65841 3.69355 2.17911 3.24715 2.84718C2.80076 3.51526 2.5625 4.3007 2.5625 5.10419V5.41669" stroke="#717171" stroke-width="0.8" stroke-linecap="round" stroke-linejoin="round"/>
<path d="M1.3125 4.16541L2.5625 5.41541L3.8125 4.16541" stroke="#717171" stroke-width="0.8" stroke-linecap="round" stroke-linejoin="round"/>
<path d="M6.3125 2.60291V5.41541H8.5" stroke="#717171" stroke-width="0.8" stroke-linecap="round" stroke-linejoin="round"/>
</svg>
