<svg width="15" height="16" viewBox="0 0 15 16" fill="none" xmlns="http://www.w3.org/2000/svg">
<circle cx="7.5" cy="8" r="7.5" fill="#B5D1FD" fill-opacity="0.5"/>
<g clip-path="url(#clip0_14439_113609)">
<path d="M12.5 5.10417C12.5 4.88315 12.4122 4.67119 12.2559 4.51491C12.0996 4.35863 11.8877 4.27083 11.6667 4.27083H9.16667C9.11141 4.27083 9.05842 4.29278 9.01935 4.33185C8.98028 4.37092 8.95833 4.42391 8.95833 4.47917V5.10417C8.95833 5.15942 8.93638 5.21241 8.89731 5.25148C8.85824 5.29055 8.80525 5.3125 8.75 5.3125C8.69475 5.3125 8.64176 5.29055 8.60269 5.25148C8.56362 5.21241 8.54167 5.15942 8.54167 5.10417V4.0625C8.54167 3.73098 8.40997 3.41304 8.17555 3.17862C7.94113 2.9442 7.62319 2.8125 7.29167 2.8125C6.96015 2.8125 6.6422 2.9442 6.40778 3.17862C6.17336 3.41304 6.04167 3.73098 6.04167 4.0625V5.10417C6.04167 5.15942 6.01972 5.21241 5.98065 5.25148C5.94158 5.29055 5.88859 5.3125 5.83333 5.3125C5.77808 5.3125 5.72509 5.29055 5.68602 5.25148C5.64695 5.21241 5.625 5.15942 5.625 5.10417V4.47917C5.625 4.42391 5.60305 4.37092 5.56398 4.33185C5.52491 4.29278 5.47192 4.27083 5.41667 4.27083H3.33333C3.11232 4.27083 2.90036 4.35863 2.74408 4.51491C2.5878 4.67119 2.5 4.88315 2.5 5.10417V11.3542C2.5 11.5752 2.5878 11.7871 2.74408 11.9434C2.90036 12.0997 3.11232 12.1875 3.33333 12.1875H11.6667C11.8877 12.1875 12.0996 12.0997 12.2559 11.9434C12.4122 11.7871 12.5 11.5752 12.5 11.3542V5.10417ZM6.875 3.95833C6.875 3.87592 6.89944 3.79537 6.94522 3.72685C6.991 3.65833 7.05608 3.60492 7.13222 3.57338C7.20835 3.54185 7.29213 3.5336 7.37295 3.54967C7.45378 3.56575 7.52802 3.60543 7.58629 3.66371C7.64457 3.72198 7.68425 3.79622 7.70033 3.87705C7.7164 3.95787 7.70815 4.04165 7.67662 4.11778C7.64508 4.19392 7.59167 4.259 7.52315 4.30478C7.45463 4.35056 7.37408 4.375 7.29167 4.375C7.18116 4.375 7.07518 4.3311 6.99704 4.25296C6.9189 4.17482 6.875 4.06884 6.875 3.95833ZM3.54167 11.3542C3.48641 11.3542 3.43342 11.3322 3.39435 11.2931C3.35528 11.2541 3.33333 11.2011 3.33333 11.1458V6.77083C3.33333 6.71558 3.35528 6.66259 3.39435 6.62352C3.43342 6.58445 3.48641 6.5625 3.54167 6.5625H11.4583C11.5136 6.5625 11.5666 6.58445 11.6056 6.62352C11.6447 6.66259 11.6667 6.71558 11.6667 6.77083V11.1458C11.6667 11.2011 11.6447 11.2541 11.6056 11.2931C11.5666 11.3322 11.5136 11.3542 11.4583 11.3542H3.54167Z" fill="#76A4F7"/>
<path d="M10.5208 8.125H8.54163C8.45875 8.125 8.37926 8.15792 8.32066 8.21653C8.26205 8.27513 8.22913 8.35462 8.22913 8.4375C8.22913 8.52038 8.26205 8.59987 8.32066 8.65847C8.37926 8.71708 8.45875 8.75 8.54163 8.75H10.5208C10.6037 8.75 10.6832 8.71708 10.7418 8.65847C10.8004 8.59987 10.8333 8.52038 10.8333 8.4375C10.8333 8.35462 10.8004 8.27513 10.7418 8.21653C10.6832 8.15792 10.6037 8.125 10.5208 8.125ZM9.99996 9.375H8.54163C8.45875 9.375 8.37926 9.40792 8.32066 9.46653C8.26205 9.52513 8.22913 9.60462 8.22913 9.6875C8.22913 9.77038 8.26205 9.84987 8.32066 9.90847C8.37926 9.96708 8.45875 10 8.54163 10H9.99996C10.0828 10 10.1623 9.96708 10.2209 9.90847C10.2795 9.84987 10.3125 9.77038 10.3125 9.6875C10.3125 9.60462 10.2795 9.52513 10.2209 9.46653C10.1623 9.40792 10.0828 9.375 9.99996 9.375Z" fill="#76A4F7"/>
<path d="M5.83162 9.06242C6.29186 9.06242 6.66496 8.68932 6.66496 8.22909C6.66496 7.76885 6.29186 7.39575 5.83162 7.39575C5.37139 7.39575 4.99829 7.76885 4.99829 8.22909C4.99829 8.68932 5.37139 9.06242 5.83162 9.06242Z" fill="#76A4F7"/>
<path d="M5.83335 9.47925C5.53403 9.48452 5.24314 9.57924 4.9981 9.75122C4.75306 9.92319 4.56508 10.1646 4.45835 10.4442C4.44576 10.476 4.4412 10.5105 4.44506 10.5444C4.44891 10.5784 4.46108 10.6109 4.48047 10.6391C4.49987 10.6672 4.5259 10.6902 4.55627 10.7059C4.58663 10.7217 4.62041 10.7297 4.6546 10.7292H7.00835C7.04255 10.7297 7.07632 10.7217 7.10669 10.7059C7.13706 10.6902 7.16309 10.6672 7.18248 10.6391C7.20188 10.6109 7.21404 10.5784 7.2179 10.5444C7.22176 10.5105 7.21719 10.476 7.2046 10.4442C7.09811 10.1651 6.91071 9.92418 6.66641 9.75225C6.4221 9.58033 6.13203 9.48527 5.83335 9.47925Z" fill="#76A4F7"/>
</g>
<defs>
<clipPath id="clip0_14439_113609">
<rect width="10" height="10" fill="white" transform="translate(2.5 2.5)"/>
</clipPath>
</defs>
</svg>
