<svg width="58" height="15" viewBox="0 0 58 15" fill="none" xmlns="http://www.w3.org/2000/svg">
<g opacity="0.9">
<path d="M15.5474 4.22038C15.3989 4.13539 15.229 4.09442 15.0579 4.10232C14.8867 4.11022 14.7214 4.16666 14.5814 4.26497C14.562 4.24301 14.5399 4.22353 14.5156 4.20697L14.3855 4.13238C14.1563 4.00115 13.8842 3.96575 13.6288 4.03397C13.3735 4.10219 13.1558 4.26844 13.0236 4.49621L11.9036 6.42662C11.851 6.51731 11.8368 6.62506 11.8641 6.72619C11.8913 6.82731 11.9579 6.91352 12.049 6.96585C12.1402 7.01818 12.2485 7.03234 12.3502 7.00522C12.4519 6.9781 12.5385 6.91191 12.5911 6.82123L13.7107 4.89042C13.7377 4.84409 13.7821 4.81025 13.8341 4.79628C13.8861 4.78232 13.9415 4.78935 13.9884 4.81584L14.1181 4.89082L11.6585 9.1352C11.5988 9.23808 11.5827 9.36031 11.6137 9.47501C11.6446 9.5897 11.7201 9.68748 11.8235 9.74684L12.6038 10.1947C12.7073 10.254 12.8301 10.2701 12.9455 10.2393C13.0608 10.2085 13.1591 10.1334 13.2187 10.0306L15.8799 5.44445C15.9389 5.34239 15.9772 5.22974 15.9925 5.11296C16.0077 4.99617 15.9997 4.87754 15.9688 4.76384C15.938 4.65015 15.8848 4.54362 15.8125 4.45037C15.7402 4.35712 15.6501 4.27896 15.5474 4.22038ZM12.6598 10.6895L11.4367 9.98794C11.4078 9.97134 11.3751 9.96228 11.3416 9.96162C11.3082 9.96095 11.2752 9.96869 11.2456 9.98412C11.216 9.99955 11.1908 10.0222 11.1723 10.0499C11.1539 10.0776 11.1427 10.1095 11.14 10.1426L11.0007 11.7866C10.9975 11.8239 11.005 11.8614 11.0224 11.8947C11.0399 11.928 11.0665 11.9556 11.0991 11.9744C11.1319 11.9927 11.1691 12.0015 11.2066 11.9998C11.2441 11.9981 11.2804 11.986 11.3114 11.9649L12.6725 11.0222C12.6998 11.0032 12.722 10.9776 12.7368 10.9479C12.7516 10.9181 12.7586 10.8851 12.7571 10.852C12.7557 10.8188 12.7459 10.7865 12.7286 10.7581C12.7113 10.7297 12.6871 10.7062 12.6582 10.6895H12.6598Z" fill="#FFB169"/>
</g>
<path d="M21.5687 11L19.8947 4.43H21.2177L22.5767 10.145L22.2257 9.938H23.1257L22.7297 10.145L23.8007 4.682H24.8987L23.5667 11H21.5687ZM25.4927 11L24.0437 4.682H25.1867L26.4197 10.145L26.0327 9.938H26.9147L26.5727 10.145L27.7697 4.43H29.0207L27.5267 11H25.4927ZM30.0424 11V4.385H31.3204V11H30.0424ZM34.0564 11L32.0404 8.138H33.4714L35.5504 11H34.0564ZM30.9424 8.804V7.769H32.6164C32.8504 7.769 33.0514 7.721 33.2194 7.625C33.3934 7.529 33.5284 7.394 33.6244 7.22C33.7204 7.046 33.7684 6.848 33.7684 6.626C33.7684 6.398 33.7204 6.197 33.6244 6.023C33.5284 5.849 33.3934 5.714 33.2194 5.618C33.0514 5.522 32.8504 5.474 32.6164 5.474H30.9424V4.385H32.4814C33.0094 4.385 33.4654 4.463 33.8494 4.619C34.2394 4.775 34.5394 5.012 34.7494 5.33C34.9594 5.648 35.0644 6.047 35.0644 6.527V6.671C35.0644 7.157 34.9564 7.556 34.7404 7.868C34.5304 8.18 34.2334 8.414 33.8494 8.57C33.4654 8.726 33.0094 8.804 32.4814 8.804H30.9424ZM36.538 11V4.43H37.816V11H36.538ZM40.7515 11V5.375H42.0295V11H40.7515ZM38.8525 5.555V4.43H43.9285V5.555H38.8525ZM44.9487 11V4.43H46.1997V11H44.9487ZM46.0197 11V9.92H48.9987V11H46.0197ZM46.0197 8.201V7.121H48.7647V8.201H46.0197ZM46.0197 5.51V4.43H48.9267V5.51H46.0197Z" fill="#FFB169"/>
</svg>
