<svg width="12" height="59" viewBox="0 0 12 59" fill="none" xmlns="http://www.w3.org/2000/svg">
<path d="M6 0.226497L0.226497 6L6 11.7735L11.7735 6L6 0.226497ZM6 58.7735L11.7735 53L6 47.2265L0.226497 53L6 58.7735ZM5 6V7.95833H7V6H5ZM5 9.91667V13.8333H7V9.91667H5ZM5 15.7917V19.7083H7V15.7917H5ZM5 21.6667V25.5833H7V21.6667H5ZM5 27.5417V31.4583H7V27.5417H5ZM5 33.4167V37.3333H7V33.4167H5ZM5 39.2917L5 43.2083H7V39.2917H5ZM5 45.1667V49.0833H7V45.1667H5ZM5 51.0417V53H7V51.0417H5Z" fill="#DDDDDD"/>
</svg>
