<svg width="8" height="8" viewBox="0 0 8 8" fill="none" xmlns="http://www.w3.org/2000/svg">
<path d="M7.16687 6.66669C7.16687 6.7993 7.11419 6.92648 7.02043 7.02025C6.92666 7.11402 6.79948 7.16669 6.66687 7.16669C6.53426 7.16669 6.40709 7.11402 6.31332 7.02025C6.21955 6.92648 6.16687 6.7993 6.16687 6.66669V2.74669C6.16684 2.73022 6.16192 2.71412 6.15274 2.70044C6.14356 2.68676 6.13053 2.67611 6.1153 2.66983C6.10006 2.66355 6.08331 2.66193 6.06716 2.66517C6.05101 2.66841 6.03617 2.67636 6.02454 2.68803L1.68687 7.02103C1.59303 7.11474 1.4658 7.16733 1.33319 7.16724C1.20057 7.16714 1.07342 7.11437 0.979705 7.02053C0.885995 6.92668 0.833402 6.79946 0.833496 6.66684C0.83359 6.53422 0.886363 6.40707 0.980205 6.31336L5.32321 1.97503C5.33489 1.96337 5.34285 1.94851 5.34608 1.93233C5.34931 1.91614 5.34766 1.89936 5.34134 1.88412C5.33502 1.86887 5.32431 1.85584 5.31058 1.84669C5.29685 1.83754 5.28071 1.83266 5.26421 1.83269H1.33354C1.20093 1.83269 1.07375 1.78002 0.979985 1.68625C0.886217 1.59248 0.833539 1.4653 0.833539 1.33269C0.833539 1.20009 0.886217 1.07291 0.979985 0.97914C1.07375 0.885372 1.20093 0.832694 1.33354 0.832694H6.33354C6.44303 0.832694 6.55145 0.85427 6.6526 0.896191C6.75374 0.938112 6.84564 0.999554 6.92303 1.07701C7.00042 1.15446 7.06179 1.2464 7.10363 1.34759C7.14547 1.44877 7.16696 1.5572 7.16687 1.66669V6.66669Z" fill="#5ABAFF"/>
</svg>
