<svg width="14" height="16" viewBox="0 0 14 16" fill="none" xmlns="http://www.w3.org/2000/svg">
<path d="M12 6.33333H11.5V4.5C11.5 3.30653 11.0259 2.16193 10.1819 1.31802C9.33803 0.474106 8.19343 0 6.99996 0C5.80648 0 4.66189 0.474106 3.81798 1.31802C2.97407 2.16193 2.49996 3.30653 2.49996 4.5V6.33333H1.99996C1.64634 6.33333 1.3072 6.47381 1.05715 6.72386C0.807102 6.97391 0.666626 7.31305 0.666626 7.66667V14.6667C0.666626 15.0203 0.807102 15.3594 1.05715 15.6095C1.3072 15.8595 1.64634 16 1.99996 16H12C12.3536 16 12.6927 15.8595 12.9428 15.6095C13.1928 15.3594 13.3333 15.0203 13.3333 14.6667V7.66667C13.3333 7.31305 13.1928 6.97391 12.9428 6.72386C12.6927 6.47381 12.3536 6.33333 12 6.33333ZM5.66663 10.3333C5.66557 10.099 5.72627 9.86859 5.84262 9.66521C5.95896 9.46184 6.12685 9.29272 6.32937 9.17488C6.53188 9.05704 6.76187 8.99464 6.99617 8.99398C7.23048 8.99332 7.46082 9.05441 7.66399 9.1711C7.86717 9.28779 8.03601 9.45596 8.15351 9.65868C8.27101 9.86139 8.33301 10.0915 8.33328 10.3258C8.33354 10.5601 8.27206 10.7903 8.15503 10.9933C8.03799 11.1963 7.86954 11.3648 7.66663 11.482V13C7.66663 13.1768 7.59639 13.3464 7.47136 13.4714C7.34634 13.5964 7.17677 13.6667 6.99996 13.6667C6.82315 13.6667 6.65358 13.5964 6.52855 13.4714C6.40353 13.3464 6.33329 13.1768 6.33329 13V11.482C6.13121 11.3658 5.96324 11.1985 5.84623 10.9969C5.72922 10.7953 5.66728 10.5664 5.66663 10.3333ZM4.16663 4.5C4.16663 3.74855 4.46514 3.02788 4.99649 2.49653C5.52784 1.96518 6.24851 1.66667 6.99996 1.66667C7.75141 1.66667 8.47208 1.96518 9.00343 2.49653C9.53478 3.02788 9.83329 3.74855 9.83329 4.5V6C9.83329 6.08841 9.79817 6.17319 9.73566 6.2357C9.67315 6.29821 9.58836 6.33333 9.49996 6.33333H4.49996C4.41155 6.33333 4.32677 6.29821 4.26426 6.2357C4.20174 6.17319 4.16663 6.08841 4.16663 6V4.5Z" fill="#2266E2"/>
</svg>
