<svg width="16" height="16" viewBox="0 0 16 16" fill="none" xmlns="http://www.w3.org/2000/svg">
<g opacity="0.51">
<path d="M12.5704 7.59076C12.235 7.58574 11.9052 7.50306 11.6071 7.3492C11.3089 7.19534 11.0505 6.97448 10.852 6.70395C10.8383 6.68573 10.8206 6.67094 10.8002 6.66075C10.7799 6.65057 10.7574 6.64526 10.7346 6.64526C10.7118 6.64526 10.6894 6.65057 10.669 6.66075C10.6486 6.67094 10.6309 6.68573 10.6172 6.70395C10.4224 6.97819 10.1647 7.20181 9.86573 7.35611C9.56678 7.51042 9.23523 7.59094 8.8988 7.59094C8.56237 7.59094 8.23083 7.51042 7.93188 7.35611C7.63292 7.20181 7.37524 6.97819 7.18036 6.70395C7.16669 6.68573 7.14897 6.67094 7.1286 6.66075C7.10822 6.65057 7.08576 6.64526 7.06298 6.64526C7.0402 6.64526 7.01774 6.65057 6.99736 6.66075C6.97699 6.67094 6.95927 6.68573 6.9456 6.70395C6.74756 6.97393 6.48977 7.19445 6.19238 7.34829C5.89498 7.50213 5.56604 7.58511 5.23127 7.59076C4.89569 7.58583 4.56582 7.5032 4.26756 7.34933C3.9693 7.19546 3.71076 6.97456 3.51224 6.70395C3.49857 6.68573 3.48085 6.67094 3.46047 6.66075C3.4401 6.65057 3.41764 6.64526 3.39486 6.64526C3.37208 6.64526 3.34961 6.65057 3.32924 6.66075C3.30887 6.67094 3.29114 6.68573 3.27748 6.70395C3.07926 6.97417 2.82118 7.19483 2.52347 7.34868C2.22575 7.50253 1.89646 7.58538 1.56138 7.59076C1.48608 7.59062 1.41084 7.58631 1.33601 7.57785C1.31544 7.57544 1.29459 7.57742 1.27485 7.58368C1.25511 7.58993 1.23692 7.60032 1.22149 7.61413C1.20606 7.62795 1.19375 7.64489 1.18536 7.66383C1.17698 7.68277 1.17271 7.70327 1.17285 7.72399V13.0196C1.17285 13.2531 1.26561 13.477 1.4307 13.6421C1.5958 13.8072 1.81972 13.8999 2.0532 13.8999H12.0305C12.264 13.8999 12.4879 13.8072 12.653 13.6421C12.8181 13.477 12.9109 13.2531 12.9109 13.0196V7.72809C12.9108 7.70765 12.9064 7.68745 12.8982 7.66876C12.8899 7.65007 12.8778 7.63331 12.8627 7.61952C12.8477 7.60576 12.83 7.59531 12.8107 7.58884C12.7914 7.58237 12.7709 7.58003 12.7506 7.58196C12.6908 7.58724 12.6309 7.59076 12.5704 7.59076ZM8.80138 9.41602C8.80457 9.35685 8.83105 9.30134 8.87504 9.26164C8.91903 9.22194 8.97695 9.20127 9.03614 9.20415H10.9142C10.9734 9.20127 11.0313 9.22194 11.0753 9.26164C11.1193 9.30134 11.1458 9.35685 11.149 9.41602V12.4321C11.149 12.5099 11.1181 12.5846 11.063 12.6396C11.008 12.6946 10.9334 12.7255 10.8555 12.7255H9.09483C9.017 12.7255 8.94236 12.6946 8.88733 12.6396C8.8323 12.5846 8.80138 12.5099 8.80138 12.4321V9.41602ZM3.22583 9.39958C3.22916 9.34461 3.25412 9.29319 3.29525 9.25657C3.33638 9.21995 3.39034 9.2011 3.44533 9.20415H6.52479C6.57984 9.20109 6.63387 9.21992 6.67509 9.25653C6.71632 9.29314 6.7414 9.34456 6.74488 9.39958V11.3563C6.7414 11.4113 6.71632 11.4628 6.67509 11.4994C6.63387 11.536 6.57984 11.5548 6.52479 11.5517H3.44533C3.39034 11.5548 3.33638 11.5359 3.29525 11.4993C3.25412 11.4627 3.22916 11.4113 3.22583 11.3563V9.39958Z" fill="#717171"/>
<path d="M12.5706 6.71017C12.8774 6.69011 13.1697 6.57251 13.405 6.37454C13.6402 6.17657 13.806 5.9086 13.8782 5.60973C13.9587 5.34736 13.9561 5.06648 13.8706 4.80568L12.8141 1.59534C12.8034 1.54605 12.7781 1.50111 12.7416 1.46628C12.7051 1.43146 12.659 1.40834 12.6093 1.3999H1.52043C1.47069 1.40834 1.42461 1.43146 1.38811 1.46628C1.35161 1.50111 1.32636 1.54605 1.3156 1.59534L0.260943 4.80451C0.175907 5.06561 0.173448 5.34659 0.2539 5.60915C0.325964 5.90812 0.491724 6.17622 0.726972 6.3743C0.962221 6.57239 1.25463 6.69007 1.56151 6.71017C1.96902 6.66768 2.34359 6.46699 2.60468 6.15124C2.86577 5.83549 2.99255 5.4299 2.95775 5.02166C2.95775 4.90492 3.00412 4.79296 3.08667 4.71041C3.16922 4.62786 3.28118 4.58149 3.39792 4.58149C3.51466 4.58149 3.62662 4.62786 3.70917 4.71041C3.79172 4.79296 3.8381 4.90492 3.8381 5.02166C3.80325 5.42944 3.92963 5.83463 4.19011 6.1503C4.45059 6.46597 4.82442 6.66697 5.2314 6.71017C5.63859 6.66725 6.01271 6.46638 6.27344 6.15067C6.53416 5.83497 6.6607 5.42962 6.62587 5.02166C6.62587 4.90492 6.67225 4.79296 6.75479 4.71041C6.83734 4.62786 6.9493 4.58149 7.06604 4.58149C7.18279 4.58149 7.29475 4.62786 7.3773 4.71041C7.45984 4.79296 7.50622 4.90492 7.50622 5.02166C7.4714 5.42971 7.59802 5.83514 7.85886 6.15086C8.11971 6.46658 8.49398 6.6674 8.90128 6.71017C9.30821 6.66697 9.68199 6.46595 9.94237 6.15026C10.2028 5.83457 10.329 5.42938 10.294 5.02166C10.294 4.90492 10.3404 4.79296 10.4229 4.71041C10.5055 4.62786 10.6174 4.58149 10.7342 4.58149C10.8509 4.58149 10.9629 4.62786 11.0454 4.71041C11.128 4.79296 11.1743 4.90492 11.1743 5.02166C11.1397 5.42986 11.2665 5.83537 11.5276 6.15109C11.7887 6.4668 12.1631 6.66754 12.5706 6.71017Z" fill="#717171"/>
</g>
</svg>
