<svg width="18" height="16" viewBox="0 0 18 16" fill="none" xmlns="http://www.w3.org/2000/svg">
<path d="M4.28367 9.56914V12.7128H1.14001" stroke="#2266E2" stroke-width="1.2" stroke-linecap="round" stroke-linejoin="round"/>
<path d="M13.7147 6.42548V3.28182H16.8583" stroke="#2266E2" stroke-width="1.2" stroke-linecap="round" stroke-linejoin="round"/>
<path d="M13.9117 3.27972C14.9957 4.40905 15.6577 5.87722 15.7863 7.4373C15.915 8.99738 15.5025 10.5542 14.6182 11.8459C13.7339 13.1375 12.4318 14.0853 10.9308 14.5297C9.42987 14.9741 7.82164 14.888 6.37666 14.286M4.08598 12.7149C3.00434 11.585 2.3444 10.1173 2.21699 8.55837C2.08957 6.99941 2.50244 5.44407 3.38625 4.15354C4.27007 2.863 5.57101 1.91586 7.07063 1.47116C8.57025 1.02647 10.1772 1.11129 11.6217 1.71139" stroke="#2266E2" stroke-width="1.2" stroke-linecap="round" stroke-linejoin="round"/>
</svg>
