<svg width="112" height="12" viewBox="0 0 112 12" fill="none" xmlns="http://www.w3.org/2000/svg">
<path d="M0.920828 11V0.78H3.66483L8.41083 9.558H8.87283L8.59283 9.81V0.78H10.1888V11H7.41683L2.67083 2.222H2.20883L2.48883 1.97V11H0.920828ZM16.3124 11.252C15.6497 11.252 15.0664 11.1447 14.5624 10.93C14.0584 10.706 13.6337 10.412 13.2884 10.048C12.9431 9.684 12.6817 9.27333 12.5044 8.816C12.3271 8.34933 12.2384 7.86867 12.2384 7.374V7.094C12.2384 6.59933 12.3271 6.11867 12.5044 5.652C12.6911 5.18533 12.9571 4.77 13.3024 4.406C13.6571 4.03267 14.0864 3.73867 14.5904 3.524C15.0944 3.30933 15.6684 3.202 16.3124 3.202C16.9564 3.202 17.5257 3.30933 18.0204 3.524C18.5244 3.73867 18.9537 4.03267 19.3084 4.406C19.6631 4.77 19.9291 5.18533 20.1064 5.652C20.2931 6.11867 20.3864 6.59933 20.3864 7.094V7.374C20.3864 7.86867 20.2977 8.34933 20.1204 8.816C19.9431 9.27333 19.6817 9.684 19.3364 10.048C18.9911 10.412 18.5664 10.706 18.0624 10.93C17.5584 11.1447 16.9751 11.252 16.3124 11.252ZM16.3124 9.824C16.8257 9.824 17.2644 9.712 17.6284 9.488C17.9924 9.25467 18.2677 8.942 18.4544 8.55C18.6504 8.158 18.7484 7.71933 18.7484 7.234C18.7484 6.73933 18.6504 6.296 18.4544 5.904C18.2584 5.512 17.9784 5.204 17.6144 4.98C17.2504 4.74667 16.8164 4.63 16.3124 4.63C15.8084 4.63 15.3744 4.74667 15.0104 4.98C14.6464 5.204 14.3664 5.512 14.1704 5.904C13.9744 6.296 13.8764 6.73933 13.8764 7.234C13.8764 7.71933 13.9697 8.158 14.1564 8.55C14.3524 8.942 14.6324 9.25467 14.9964 9.488C15.3604 9.712 15.7991 9.824 16.3124 9.824ZM29.9122 11V8.746H29.6462V6.198C29.6462 5.73133 29.5249 5.37667 29.2822 5.134C29.0395 4.89133 28.6802 4.77 28.2042 4.77C27.9429 4.77 27.6535 4.77467 27.3362 4.784C27.0189 4.79333 26.7062 4.80733 26.3982 4.826C26.0995 4.83533 25.8335 4.84933 25.6002 4.868V3.454C25.8055 3.43533 26.0295 3.42133 26.2722 3.412C26.5242 3.39333 26.7809 3.37933 27.0422 3.37C27.3129 3.36067 27.5695 3.356 27.8122 3.356C28.5775 3.356 29.2122 3.454 29.7162 3.65C30.2202 3.846 30.5935 4.15867 30.8362 4.588C31.0882 5.008 31.2142 5.57267 31.2142 6.282V11H29.9122ZM27.4622 11.196C26.9115 11.196 26.4309 11.1027 26.0202 10.916C25.6095 10.72 25.2922 10.44 25.0682 10.076C24.8442 9.70267 24.7322 9.25933 24.7322 8.746C24.7322 8.20467 24.8582 7.75667 25.1102 7.402C25.3715 7.04733 25.7402 6.78133 26.2162 6.604C26.6922 6.42667 27.2615 6.338 27.9242 6.338H29.8142V7.416H27.8822C27.3875 7.416 27.0095 7.53733 26.7482 7.78C26.4869 8.01333 26.3562 8.32133 26.3562 8.704C26.3562 9.08667 26.4869 9.39467 26.7482 9.628C27.0095 9.852 27.3875 9.964 27.8822 9.964C28.1715 9.964 28.4469 9.91267 28.7082 9.81C28.9695 9.698 29.1842 9.516 29.3522 9.264C29.5295 9.012 29.6275 8.65733 29.6462 8.2L30.0662 8.746C30.0195 9.278 29.8889 9.726 29.6742 10.09C29.4689 10.4447 29.1795 10.72 28.8062 10.916C28.4422 11.1027 27.9942 11.196 27.4622 11.196ZM36.773 11.252C36.129 11.252 35.5643 11.1447 35.079 10.93C34.603 10.706 34.2063 10.4073 33.889 10.034C33.581 9.65133 33.3476 9.23133 33.189 8.774C33.0396 8.30733 32.965 7.836 32.965 7.36V7.108C32.965 6.61333 33.0443 6.13733 33.203 5.68C33.3616 5.21333 33.5996 4.79333 33.917 4.42C34.2343 4.04667 34.6263 3.75267 35.093 3.538C35.569 3.314 36.1243 3.202 36.759 3.202C37.403 3.202 37.977 3.32333 38.481 3.566C38.9943 3.80867 39.405 4.154 39.713 4.602C40.021 5.04067 40.1936 5.554 40.231 6.142H38.649C38.593 5.722 38.4016 5.36733 38.075 5.078C37.7576 4.78867 37.319 4.644 36.759 4.644C36.2736 4.644 35.8723 4.756 35.555 4.98C35.2376 5.204 34.9996 5.512 34.841 5.904C34.6823 6.28667 34.603 6.73 34.603 7.234C34.603 7.71933 34.6776 8.158 34.827 8.55C34.9856 8.942 35.2236 9.25 35.541 9.474C35.8676 9.698 36.2783 9.81 36.773 9.81C37.1556 9.81 37.4823 9.74467 37.753 9.614C38.033 9.474 38.257 9.292 38.425 9.068C38.593 8.83467 38.691 8.56867 38.719 8.27H40.315C40.287 8.87667 40.1143 9.404 39.797 9.852C39.4796 10.2907 39.0596 10.636 38.537 10.888C38.0143 11.1307 37.4263 11.252 36.773 11.252ZM45.1085 11.084C44.4832 11.084 43.9559 11 43.5265 10.832C43.0972 10.664 42.7705 10.3747 42.5465 9.964C42.3319 9.55333 42.2245 8.998 42.2245 8.298V1.256H43.7785V8.438C43.7785 8.83 43.8812 9.13333 44.0865 9.348C44.3012 9.55333 44.5999 9.656 44.9825 9.656H46.2425V11.084H45.1085ZM40.9785 4.672V3.454H46.2425V4.672H40.9785ZM48.3805 11V3.454H50.0185V11H48.3805ZM47.2745 4.714V3.454H50.0185V4.714H47.2745ZM48.9125 2.404C48.5765 2.404 48.3245 2.31533 48.1565 2.138C47.9978 1.96067 47.9185 1.732 47.9185 1.452C47.9185 1.18133 47.9978 0.957333 48.1565 0.78C48.3245 0.593333 48.5765 0.499999 48.9125 0.499999C49.2578 0.499999 49.5098 0.593333 49.6685 0.78C49.8365 0.957333 49.9205 1.18133 49.9205 1.452C49.9205 1.732 49.8365 1.96067 49.6685 2.138C49.5098 2.31533 49.2578 2.404 48.9125 2.404ZM56.0019 11.252C55.3392 11.252 54.7559 11.1447 54.2519 10.93C53.7479 10.706 53.3232 10.412 52.9779 10.048C52.6325 9.684 52.3712 9.27333 52.1939 8.816C52.0165 8.34933 51.9279 7.86867 51.9279 7.374V7.094C51.9279 6.59933 52.0165 6.11867 52.1939 5.652C52.3805 5.18533 52.6465 4.77 52.9919 4.406C53.3465 4.03267 53.7759 3.73867 54.2799 3.524C54.7839 3.30933 55.3579 3.202 56.0019 3.202C56.6459 3.202 57.2152 3.30933 57.7099 3.524C58.2139 3.73867 58.6432 4.03267 58.9979 4.406C59.3525 4.77 59.6185 5.18533 59.7959 5.652C59.9825 6.11867 60.0759 6.59933 60.0759 7.094V7.374C60.0759 7.86867 59.9872 8.34933 59.8099 8.816C59.6325 9.27333 59.3712 9.684 59.0259 10.048C58.6805 10.412 58.2559 10.706 57.7519 10.93C57.2479 11.1447 56.6645 11.252 56.0019 11.252ZM56.0019 9.824C56.5152 9.824 56.9539 9.712 57.3179 9.488C57.6819 9.25467 57.9572 8.942 58.1439 8.55C58.3399 8.158 58.4379 7.71933 58.4379 7.234C58.4379 6.73933 58.3399 6.296 58.1439 5.904C57.9479 5.512 57.6679 5.204 57.3039 4.98C56.9399 4.74667 56.5059 4.63 56.0019 4.63C55.4979 4.63 55.0639 4.74667 54.6999 4.98C54.3359 5.204 54.0559 5.512 53.8599 5.904C53.6639 6.296 53.5659 6.73933 53.5659 7.234C53.5659 7.71933 53.6592 8.158 53.8459 8.55C54.0419 8.942 54.3219 9.25467 54.6859 9.488C55.0499 9.712 55.4885 9.824 56.0019 9.824ZM61.9481 11V3.454H63.2501V6.688H63.0961C63.0961 5.94133 63.1941 5.31133 63.3901 4.798C63.5955 4.28467 63.9035 3.89733 64.3141 3.636C64.7248 3.36533 65.2335 3.23 65.8401 3.23H65.9101C66.8435 3.23 67.5388 3.524 67.9961 4.112C68.4535 4.7 68.6821 5.55867 68.6821 6.688V11H67.0441V6.464C67.0441 5.94133 66.8948 5.52133 66.5961 5.204C66.2975 4.87733 65.8868 4.714 65.3641 4.714C64.8321 4.714 64.4028 4.882 64.0761 5.218C63.7495 5.54467 63.5861 5.98333 63.5861 6.534V11H61.9481ZM73.5619 11.224C72.5446 11.224 71.7512 11.0093 71.1819 10.58C70.6219 10.1507 70.3279 9.558 70.2999 8.802H71.8119C71.8306 9.082 71.9752 9.33867 72.2459 9.572C72.5166 9.80533 72.9599 9.922 73.5759 9.922C74.0986 9.922 74.5092 9.81933 74.8079 9.614C75.1066 9.40867 75.2559 9.152 75.2559 8.844C75.2559 8.564 75.1439 8.34467 74.9199 8.186C74.7052 8.018 74.3366 7.906 73.8139 7.85L73.0719 7.78C72.2972 7.696 71.6812 7.46733 71.2239 7.094C70.7759 6.72067 70.5519 6.21667 70.5519 5.582C70.5519 5.078 70.6779 4.65333 70.9299 4.308C71.1819 3.96267 71.5272 3.69667 71.9659 3.51C72.4139 3.32333 72.9272 3.23 73.5059 3.23C74.4019 3.23 75.1252 3.43067 75.6759 3.832C76.2266 4.224 76.5112 4.80267 76.5299 5.568H75.0319C75.0132 5.27867 74.8779 5.036 74.6259 4.84C74.3739 4.644 74.0006 4.546 73.5059 4.546C73.0392 4.546 72.6799 4.63933 72.4279 4.826C72.1852 5.01267 72.0639 5.25067 72.0639 5.54C72.0639 5.80133 72.1572 6.00667 72.3439 6.156C72.5306 6.30533 72.8339 6.40333 73.2539 6.45L73.9959 6.52C74.8452 6.61333 75.5172 6.85133 76.0119 7.234C76.5159 7.60733 76.7679 8.13 76.7679 8.802C76.7679 9.28733 76.6326 9.712 76.3619 10.076C76.0912 10.44 75.7132 10.7247 75.2279 10.93C74.7519 11.126 74.1966 11.224 73.5619 11.224ZM81.663 11V0.78H83.301V6.814H82.965C82.965 6.06733 83.0583 5.428 83.245 4.896C83.441 4.35467 83.735 3.944 84.127 3.664C84.5283 3.37467 85.0323 3.23 85.639 3.23H85.709C86.5957 3.23 87.263 3.52867 87.711 4.126C88.1683 4.72333 88.397 5.582 88.397 6.702V11H86.759V6.464C86.759 5.92267 86.6003 5.498 86.283 5.19C85.975 4.87267 85.5737 4.714 85.079 4.714C84.547 4.714 84.1177 4.89133 83.791 5.246C83.4643 5.60067 83.301 6.06733 83.301 6.646V11H81.663ZM93.9628 11.252C93.3094 11.252 92.7401 11.14 92.2548 10.916C91.7694 10.692 91.3728 10.398 91.0648 10.034C90.7568 9.66067 90.5234 9.24533 90.3648 8.788C90.2154 8.32133 90.1408 7.84533 90.1408 7.36V7.094C90.1408 6.59933 90.2154 6.12333 90.3648 5.666C90.5234 5.19933 90.7568 4.784 91.0648 4.42C91.3728 4.04667 91.7601 3.75267 92.2268 3.538C92.7028 3.314 93.2534 3.202 93.8788 3.202C94.6908 3.202 95.3674 3.37933 95.9088 3.734C96.4501 4.08867 96.8561 4.55067 97.1268 5.12C97.3974 5.68 97.5328 6.28667 97.5328 6.94V7.598H90.8408V6.492H96.4268L95.9788 7.052C95.9788 6.548 95.8994 6.114 95.7408 5.75C95.5821 5.37667 95.3488 5.092 95.0408 4.896C94.7328 4.69067 94.3454 4.588 93.8788 4.588C93.3934 4.588 92.9874 4.7 92.6608 4.924C92.3341 5.148 92.0914 5.456 91.9328 5.848C91.7741 6.24 91.6948 6.702 91.6948 7.234C91.6948 7.738 91.7741 8.19067 91.9328 8.592C92.0914 8.984 92.3388 9.29667 92.6748 9.53C93.0108 9.754 93.4401 9.866 93.9628 9.866C94.4854 9.866 94.9148 9.754 95.2508 9.53C95.5868 9.29667 95.7921 9.026 95.8668 8.718H97.3928C97.2901 9.23133 97.0801 9.67933 96.7628 10.062C96.4548 10.4447 96.0628 10.7387 95.5868 10.944C95.1108 11.1493 94.5694 11.252 93.9628 11.252ZM99.2997 11V3.454H100.602V6.604H100.546C100.546 5.52133 100.784 4.714 101.26 4.182C101.736 3.64067 102.44 3.37 103.374 3.37H103.64V4.812H103.136C102.426 4.812 101.88 5.00333 101.498 5.386C101.124 5.75933 100.938 6.296 100.938 6.996V11H99.2997ZM108.318 11.252C107.665 11.252 107.096 11.14 106.61 10.916C106.125 10.692 105.728 10.398 105.42 10.034C105.112 9.66067 104.879 9.24533 104.72 8.788C104.571 8.32133 104.496 7.84533 104.496 7.36V7.094C104.496 6.59933 104.571 6.12333 104.72 5.666C104.879 5.19933 105.112 4.784 105.42 4.42C105.728 4.04667 106.116 3.75267 106.582 3.538C107.058 3.314 107.609 3.202 108.234 3.202C109.046 3.202 109.723 3.37933 110.264 3.734C110.806 4.08867 111.212 4.55067 111.482 5.12C111.753 5.68 111.888 6.28667 111.888 6.94V7.598H105.196V6.492H110.782L110.334 7.052C110.334 6.548 110.255 6.114 110.096 5.75C109.938 5.37667 109.704 5.092 109.396 4.896C109.088 4.69067 108.701 4.588 108.234 4.588C107.749 4.588 107.343 4.7 107.016 4.924C106.69 5.148 106.447 5.456 106.288 5.848C106.13 6.24 106.05 6.702 106.05 7.234C106.05 7.738 106.13 8.19067 106.288 8.592C106.447 8.984 106.694 9.29667 107.03 9.53C107.366 9.754 107.796 9.866 108.318 9.866C108.841 9.866 109.27 9.754 109.606 9.53C109.942 9.29667 110.148 9.026 110.222 8.718H111.748C111.646 9.23133 111.436 9.67933 111.118 10.062C110.81 10.4447 110.418 10.7387 109.942 10.944C109.466 11.1493 108.925 11.252 108.318 11.252Z" fill="#717171"/>
</svg>
