<svg width="11" height="11" viewBox="0 0 11 11" fill="none" xmlns="http://www.w3.org/2000/svg">
<path d="M10.313 1.03125L0.687988 10.6563" stroke="#2266E2" stroke-width="0.6875" stroke-linecap="round" stroke-linejoin="round"/>
<path d="M4.5835 9.96875C4.64171 10.1671 4.7626 10.3412 4.92805 10.4651C5.0935 10.5889 5.29463 10.6559 5.50131 10.6559C5.70799 10.6559 5.90911 10.5889 6.07457 10.4651C6.24002 10.3412 6.36091 10.1671 6.41912 9.96875" stroke="#2266E2" stroke-width="0.6875" stroke-linecap="round" stroke-linejoin="round"/>
<path d="M5.50049 1.375V0.34375" stroke="#2266E2" stroke-width="0.6875" stroke-linecap="round" stroke-linejoin="round"/>
<path d="M4.8125 8.59364H9.625C9.625 8.59364 8.9375 8.04364 8.9375 4.81239C8.93216 4.67184 8.91792 4.53177 8.89487 4.39302M7.4305 1.97073C6.91387 1.62006 6.31148 1.41674 5.68802 1.38259C5.06456 1.34844 4.44357 1.48474 3.89173 1.77687C3.33989 2.069 2.87803 2.50592 2.55576 3.04072C2.23349 3.57552 2.06296 4.188 2.0625 4.81239V7.21864" stroke="#2266E2" stroke-width="0.6875" stroke-linecap="round" stroke-linejoin="round"/>
</svg>
