<svg width="15" height="16" viewBox="0 0 15 16" fill="none" xmlns="http://www.w3.org/2000/svg">
<circle cx="7.5" cy="8" r="7.5" fill="#B5D1FD" fill-opacity="0.5"/>
<path d="M11.1 10.2917C10.9409 10.2917 10.7883 10.2258 10.6757 10.1086C10.5632 9.9914 10.5 9.83243 10.5 9.66667V7.64083C10.5231 6.84962 10.2737 6.07591 9.79681 5.45958C9.31995 4.84326 8.64713 4.425 7.9 4.28042V3.41667C7.9 3.30616 7.85786 3.20018 7.78284 3.12204C7.70783 3.0439 7.60609 3 7.5 3C7.39391 3 7.29217 3.0439 7.21716 3.12204C7.14214 3.20018 7.1 3.30616 7.1 3.41667V4.28042C6.35287 4.425 5.68005 4.84326 5.20319 5.45958C4.72633 6.07591 4.4769 6.84962 4.5 7.64083V9.66667C4.5 9.83243 4.43679 9.9914 4.32426 10.1086C4.21174 10.2258 4.05913 10.2917 3.9 10.2917C3.79391 10.2917 3.69217 10.3356 3.61716 10.4137C3.54214 10.4918 3.5 10.5978 3.5 10.7083C3.5 10.8188 3.54214 10.9248 3.61716 11.003C3.69217 11.0811 3.79391 11.125 3.9 11.125H11.1C11.2061 11.125 11.3078 11.0811 11.3828 11.003C11.4579 10.9248 11.5 10.8188 11.5 10.7083C11.5 10.5978 11.4579 10.4918 11.3828 10.4137C11.3078 10.3356 11.2061 10.2917 11.1 10.2917ZM8.3944 11.75H6.6056C6.58105 11.75 6.55737 11.7595 6.53907 11.7766C6.52078 11.7936 6.50915 11.8171 6.5064 11.8425C6.50204 11.8809 6.4999 11.9196 6.5 11.9583C6.5 12.2346 6.60536 12.4996 6.79289 12.6949C6.98043 12.8903 7.23478 13 7.5 13C7.76522 13 8.01957 12.8903 8.20711 12.6949C8.39464 12.4996 8.5 12.2346 8.5 11.9583C8.5001 11.9196 8.49796 11.8809 8.4936 11.8425C8.49102 11.817 8.47944 11.7934 8.46111 11.7763C8.44278 11.7592 8.419 11.7499 8.3944 11.75Z" fill="#76A4F7"/>
</svg>
