<svg width="18" height="19" viewBox="0 0 18 19" fill="none" xmlns="http://www.w3.org/2000/svg">
<g opacity="0.8">
<g filter="url(#filter0_d_15755_121975)">
<path d="M8.39986 0.8125C9.03729 0.8125 9.60885 1.07627 10.0264 1.4829C10.4441 1.90057 10.6968 2.47206 10.6968 3.10949C10.6968 3.74692 10.444 4.31848 10.0264 4.73607C9.83958 4.92294 9.61982 5.07676 9.36701 5.19768C9.66375 5.27459 9.94953 5.39551 10.2133 5.53836C10.3342 5.6043 10.3782 5.7582 10.3122 5.87904C10.2463 5.99997 10.0924 6.0439 9.97154 5.97796C9.72977 5.84607 9.47696 5.74716 9.20222 5.68121C8.93845 5.61527 8.66371 5.5823 8.38889 5.5823C7.48769 5.5823 6.67436 5.94499 6.06994 6.54945C5.47645 7.14294 5.10279 7.95627 5.10279 8.85747V9.30811C5.10279 9.39606 5.13576 9.47297 5.19074 9.52795C5.24572 9.58293 5.33359 9.6159 5.43251 9.6159H9.33411C9.47696 9.6159 9.58692 9.72578 9.58692 9.86871C9.58692 10.0116 9.47704 10.1215 9.33411 10.1215H5.44344C5.21263 10.1215 5.00384 10.0336 4.86091 9.87975C4.70702 9.7369 4.61914 9.52803 4.61914 9.29722V8.84658C4.61914 7.81349 5.04777 6.85735 5.72922 6.17587C6.19082 5.71426 6.77335 5.36254 7.42175 5.19768C7.17998 5.0878 6.96014 4.92294 6.77327 4.73607C6.35561 4.3184 6.10287 3.74692 6.10287 3.10949C6.10287 2.47206 6.35568 1.90049 6.77327 1.4829C7.19094 1.06531 7.76235 0.8125 8.39986 0.8125ZM8.77351 8.64887H10.8287C10.9715 8.64887 11.0815 8.75875 11.0815 8.90167V9.39625L12.7521 8.0224L11.0815 6.63758V7.14313C11.0815 7.27501 10.9716 7.39594 10.8287 7.39594H8.77351V8.64887ZM10.587 9.15441H8.52067C8.38878 9.15441 8.26786 9.04453 8.26786 8.9016L8.26793 7.14313C8.26793 7.00027 8.37781 6.89032 8.52074 6.89032H10.5759V6.10996C10.5759 6.05498 10.5979 6.00008 10.6309 5.9451C10.7188 5.83522 10.8837 5.82418 10.9826 5.91213L13.2907 7.81357C13.3016 7.82453 13.3127 7.83557 13.3236 7.84654C13.4116 7.95642 13.4005 8.11031 13.2907 8.19826L11.0045 10.1216C10.9605 10.1655 10.8946 10.1875 10.8287 10.1875C10.6968 10.1875 10.5758 10.0776 10.5758 9.93469V9.15441H10.587ZM9.66375 1.83466C9.345 1.51591 8.89444 1.30711 8.39986 1.30711C7.90528 1.30711 7.45464 1.50495 7.13596 1.83466C6.81721 2.15342 6.60842 2.60398 6.60842 3.09856C6.60842 3.59314 6.80625 4.04378 7.13596 4.36245C7.45472 4.68121 7.90528 4.89 8.39986 4.89C8.89444 4.89 9.34508 4.69217 9.66375 4.36245C9.98251 4.0437 10.1913 3.59314 10.1913 3.09856C10.1913 2.60398 9.98251 2.16438 9.66375 1.83466Z" fill="#FFB169"/>
<path d="M8.77351 8.64887H10.8287C10.9715 8.64887 11.0815 8.75875 11.0815 8.90167V9.39625L12.7521 8.0224L11.0815 6.63758V7.14313C11.0815 7.27501 10.9716 7.39594 10.8287 7.39594H8.77351V8.64887Z" fill="#FFB169"/>
<path d="M9.66375 1.83466C9.345 1.51591 8.89444 1.30711 8.39986 1.30711C7.90528 1.30711 7.45464 1.50495 7.13596 1.83466C6.81721 2.15342 6.60842 2.60398 6.60842 3.09856C6.60842 3.59314 6.80625 4.04378 7.13596 4.36245C7.45472 4.68121 7.90528 4.89 8.39986 4.89C8.89444 4.89 9.34508 4.69217 9.66375 4.36245C9.98251 4.0437 10.1913 3.59314 10.1913 3.09856C10.1913 2.60398 9.98251 2.16438 9.66375 1.83466Z" fill="#FFB169"/>
</g>
</g>
<defs>
<filter id="filter0_d_15755_121975" x="0.619141" y="0.8125" width="16.7627" height="17.375" filterUnits="userSpaceOnUse" color-interpolation-filters="sRGB">
<feFlood flood-opacity="0" result="BackgroundImageFix"/>
<feColorMatrix in="SourceAlpha" type="matrix" values="0 0 0 0 0 0 0 0 0 0 0 0 0 0 0 0 0 0 127 0" result="hardAlpha"/>
<feOffset dy="4"/>
<feGaussianBlur stdDeviation="2"/>
<feColorMatrix type="matrix" values="0 0 0 0 0 0 0 0 0 0 0 0 0 0 0 0 0 0 0.05 0"/>
<feBlend mode="normal" in2="BackgroundImageFix" result="effect1_dropShadow_15755_121975"/>
<feBlend mode="normal" in="SourceGraphic" in2="effect1_dropShadow_15755_121975" result="shape"/>
</filter>
</defs>
</svg>
