<svg width="18" height="19" viewBox="0 0 18 19" fill="none" xmlns="http://www.w3.org/2000/svg">
<g opacity="0.8">
<g filter="url(#filter0_d_15755_121945)">
<path d="M8.58047 0.8125C9.2179 0.8125 9.78946 1.07627 10.207 1.4829C10.6247 1.90057 10.8774 2.47205 10.8774 3.10948C10.8774 3.7469 10.6246 4.31846 10.207 4.73606C10.0202 4.92292 9.80042 5.07674 9.54762 5.19766C9.74545 5.25264 9.95424 5.31858 10.1411 5.4175C10.273 5.47247 10.328 5.62629 10.262 5.74721C10.207 5.8791 10.0532 5.92304 9.93231 5.86813C9.72351 5.76922 9.50368 5.69231 9.27288 5.6483C9.04207 5.59332 8.81127 5.57139 8.58047 5.57139C7.67927 5.57139 6.86594 5.93408 6.26152 6.53853C5.66803 7.13202 5.29438 7.94535 5.29438 8.84655V9.29719C5.29438 9.38514 5.32735 9.46205 5.38233 9.51702C5.43731 9.572 5.52518 9.60497 5.6241 9.60497H9.28395C9.42681 9.60497 9.53676 9.71486 9.53676 9.85778C9.53676 10.0006 9.42688 10.1106 9.28395 10.1106L5.6241 10.1105C5.3933 10.1105 5.1845 10.0226 5.04157 9.86875C4.88768 9.7259 4.7998 9.51703 4.7998 9.28623V8.83559C4.7998 7.8025 5.22844 6.84636 5.90988 6.16488C6.37148 5.70328 6.95401 5.35155 7.6024 5.1867C7.36063 5.07681 7.14079 4.91196 6.95393 4.72509C6.53626 4.30743 6.28353 3.73594 6.28353 3.09851C6.28353 2.46109 6.53634 1.88953 6.95393 1.47194C7.3716 1.06531 7.94304 0.8125 8.58047 0.8125ZM12.9657 9.15434H10.9105V9.93469C10.9105 10.0775 10.8007 10.1875 10.6577 10.1875C10.5918 10.1875 10.5368 10.1655 10.4929 10.1216L8.18485 8.2092C8.07497 8.12125 8.06393 7.95639 8.15188 7.85748C8.16284 7.84651 8.17388 7.83547 8.18485 7.8245L10.4929 5.92307C10.6027 5.83512 10.7566 5.84616 10.8446 5.95605C10.8885 5.99998 10.8996 6.06593 10.8996 6.1209V6.90126L12.9657 6.90133C13.1085 6.90133 13.2185 7.01121 13.2185 7.15414V8.91261C13.2185 9.03345 13.1086 9.15434 12.9657 9.15434ZM10.6577 8.6488H12.7129V7.38483H10.6577C10.5148 7.38483 10.4049 7.27495 10.4049 7.13202V6.63745L8.74533 8.02233L10.4049 9.39618V8.90153C10.4049 8.75868 10.5148 8.6488 10.6577 8.6488ZM9.84436 1.83458C9.52561 1.51583 9.07505 1.30704 8.58047 1.30704C8.0859 1.30704 7.63526 1.50487 7.31658 1.83458C6.99783 2.15334 6.78903 2.6039 6.78903 3.09847C6.78903 3.59305 6.98686 4.04369 7.31658 4.36236C7.63533 4.68112 8.0859 4.88991 8.58047 4.88991C9.07505 4.88991 9.52568 4.69208 9.84436 4.36236C10.1631 4.04361 10.3719 3.59305 10.3719 3.09847C10.3719 2.6039 10.1631 2.1643 9.84436 1.83458Z" fill="#715AFF"/>
<path d="M9.84436 1.83458C9.52561 1.51583 9.07505 1.30704 8.58047 1.30704C8.0859 1.30704 7.63526 1.50487 7.31658 1.83458C6.99783 2.15334 6.78903 2.6039 6.78903 3.09847C6.78903 3.59305 6.98686 4.04369 7.31658 4.36236C7.63533 4.68112 8.0859 4.88991 8.58047 4.88991C9.07505 4.88991 9.52568 4.69208 9.84436 4.36236C10.1631 4.04361 10.3719 3.59305 10.3719 3.09847C10.3719 2.6039 10.1631 2.1643 9.84436 1.83458Z" fill="#715AFF"/>
<path d="M10.6577 8.6488H12.7129V7.38483H10.6577C10.5148 7.38483 10.4049 7.27495 10.4049 7.13202V6.63745L8.74533 8.02233L10.4049 9.39618V8.90153C10.4049 8.75868 10.5148 8.6488 10.6577 8.6488Z" fill="#715AFF"/>
</g>
</g>
<defs>
<filter id="filter0_d_15755_121945" x="0.799805" y="0.8125" width="16.4189" height="17.375" filterUnits="userSpaceOnUse" color-interpolation-filters="sRGB">
<feFlood flood-opacity="0" result="BackgroundImageFix"/>
<feColorMatrix in="SourceAlpha" type="matrix" values="0 0 0 0 0 0 0 0 0 0 0 0 0 0 0 0 0 0 127 0" result="hardAlpha"/>
<feOffset dy="4"/>
<feGaussianBlur stdDeviation="2"/>
<feColorMatrix type="matrix" values="0 0 0 0 0 0 0 0 0 0 0 0 0 0 0 0 0 0 0.05 0"/>
<feBlend mode="normal" in2="BackgroundImageFix" result="effect1_dropShadow_15755_121945"/>
<feBlend mode="normal" in="SourceGraphic" in2="effect1_dropShadow_15755_121945" result="shape"/>
</filter>
</defs>
</svg>
