<svg width="21" height="21" viewBox="0 0 21 21" fill="none" xmlns="http://www.w3.org/2000/svg">
<ellipse cx="10.5" cy="10.4985" rx="10.5" ry="10.4985" fill="#5ABAFF" fill-opacity="0.1"/>
<g clip-path="url(#clip0)">
<path d="M5.94458 12.6732C5.91818 12.6469 5.8852 12.6281 5.84907 12.6189C5.81295 12.6097 5.77501 12.6103 5.73921 12.6207C5.70342 12.6312 5.67108 12.651 5.64556 12.6782C5.62005 12.7054 5.6023 12.7389 5.59417 12.7753L5.005 15.427C4.99737 15.4612 4.99849 15.4967 5.00825 15.5304C5.01801 15.564 5.03609 15.5947 5.06083 15.6195C5.08579 15.644 5.11643 15.662 5.15002 15.6718C5.1836 15.6816 5.2191 15.6829 5.25333 15.6757L7.905 15.0866C7.94147 15.0785 7.97509 15.0608 8.00235 15.0353C8.02961 15.0097 8.0495 14.9773 8.05993 14.9415C8.07037 14.9056 8.07097 14.8676 8.06167 14.8314C8.05238 14.7952 8.03352 14.7622 8.00708 14.7358L5.94458 12.6732ZM12.2792 8.84378L7.7125 13.4098C7.69311 13.4294 7.68224 13.4559 7.68224 13.4835C7.68224 13.5111 7.69311 13.5376 7.7125 13.5573L8.44917 14.2938C8.4886 14.3322 8.54145 14.3536 8.59646 14.3536C8.65147 14.3536 8.70431 14.3322 8.74375 14.2938L13.1633 9.87488C13.2024 9.83582 13.2243 9.78285 13.2243 9.72761C13.2243 9.67238 13.2024 9.6194 13.1633 9.58034L12.4267 8.84378C12.407 8.8244 12.3805 8.81353 12.3529 8.81353C12.3253 8.81353 12.2988 8.8244 12.2792 8.84378ZM11.8375 8.2547L11.1008 7.51856C11.0618 7.47951 11.0088 7.45757 10.9535 7.45757C10.8983 7.45757 10.8453 7.47951 10.8063 7.51856L6.38667 11.9371C6.34761 11.9761 6.32567 12.0291 6.32567 12.0843C6.32567 12.1396 6.34761 12.1926 6.38667 12.2316L7.12333 12.9682C7.14298 12.9876 7.16948 12.9984 7.19708 12.9984C7.22469 12.9984 7.25118 12.9876 7.27083 12.9682L11.8375 8.40218C11.8569 8.38253 11.8678 8.35604 11.8678 8.32844C11.8678 8.30084 11.8569 8.27435 11.8375 8.2547ZM14.1946 6.48746C13.8817 6.17531 13.4578 6 13.0158 6C12.5739 6 12.1499 6.17531 11.8371 6.48746L11.5425 6.782C11.5034 6.82106 11.4815 6.87404 11.4815 6.92927C11.4815 6.98451 11.5034 7.03748 11.5425 7.07654L13.605 9.13832C13.6447 9.1761 13.6975 9.19716 13.7523 9.19716C13.8071 9.19716 13.8598 9.1761 13.8996 9.13832L14.1946 8.84378C14.507 8.53128 14.6826 8.1075 14.6826 7.66562C14.6826 7.22375 14.507 6.79996 14.1946 6.48746Z" fill="#2266E2"/>
</g>
<defs>
<clipPath id="clip0">
<rect width="10" height="9.99854" fill="white" transform="translate(5 6)"/>
</clipPath>
</defs>
</svg>
