<svg width="9" height="8" viewBox="0 0 9 8" fill="none" xmlns="http://www.w3.org/2000/svg">
<g clip-path="url(#clip0_6488:72932)">
<path d="M3.00899 2.5919C3.17116 3.52786 3.74107 4.16894 4.74791 4.49415C5.75474 4.16894 6.32466 3.52786 6.48682 2.5919C6.49644 2.52935 6.49238 2.46546 6.47491 2.40463C6.45745 2.34381 6.42699 2.2875 6.38565 2.23958C6.34431 2.19167 6.29306 2.15329 6.23545 2.12711C6.17784 2.10092 6.11523 2.08754 6.05195 2.0879H3.44387C3.38058 2.08754 3.31798 2.10092 3.26036 2.12711C3.20275 2.15329 3.15151 2.19167 3.11017 2.23958C3.06883 2.2875 3.03837 2.34381 3.0209 2.40463C3.00343 2.46546 2.99937 2.52935 3.00899 2.5919V2.5919Z" stroke="#717171" stroke-width="0.7" stroke-linecap="round" stroke-linejoin="round"/>
<path d="M2.34375 1.21289H7.15625" stroke="#717171" stroke-width="0.7" stroke-linecap="round" stroke-linejoin="round"/>
<path d="M3.44382 6.90039C3.38057 6.90074 3.31799 6.88737 3.2604 6.8612C3.20281 6.83503 3.15159 6.79668 3.11025 6.7488C3.06891 6.70092 3.03845 6.64465 3.02096 6.58386C3.00347 6.52307 2.99937 6.45921 3.00895 6.39668C3.17111 5.46072 3.74103 4.81964 4.74786 4.49414C5.7547 4.81964 6.32461 5.46072 6.48678 6.39668C6.49635 6.45921 6.49225 6.52307 6.47477 6.58386C6.45728 6.64465 6.42681 6.70092 6.38548 6.7488C6.34414 6.79668 6.29291 6.83503 6.23532 6.8612C6.17774 6.88737 6.11516 6.90074 6.0519 6.90039H3.44382Z" stroke="#717171" stroke-width="0.7" stroke-linecap="round" stroke-linejoin="round"/>
<path d="M2.34375 7.77539H7.15625" stroke="#717171" stroke-width="0.7" stroke-linecap="round" stroke-linejoin="round"/>
</g>
<defs>
<clipPath id="clip0_6488:72932">
<rect width="8" height="7" fill="white" transform="translate(0.25 0.994141)"/>
</clipPath>
</defs>
</svg>
