<svg width="14" height="14" viewBox="0 0 14 14" fill="none" xmlns="http://www.w3.org/2000/svg">
<rect width="14" height="14" rx="7" fill="#717171"/>
<g clip-path="url(#clip0_6488:72794)">
<path d="M5.01191 4.82601C5.19725 5.89567 5.84858 6.62834 6.99925 7.00001C8.14991 6.62834 8.80125 5.89567 8.98658 4.82601C8.99758 4.75452 8.99293 4.68151 8.97297 4.61199C8.95301 4.54248 8.9182 4.47812 8.87095 4.42336C8.8237 4.3686 8.76514 4.32475 8.6993 4.29482C8.63346 4.26489 8.5619 4.2496 8.48958 4.25001H5.50891C5.43659 4.2496 5.36504 4.26489 5.2992 4.29482C5.23336 4.32475 5.17479 4.3686 5.12754 4.42336C5.0803 4.47812 5.04549 4.54248 5.02553 4.61199C5.00556 4.68151 5.00092 4.75452 5.01191 4.82601V4.82601Z" stroke="white" stroke-width="0.7" stroke-linecap="round" stroke-linejoin="round"/>
<path d="M4.25 3.25H9.75" stroke="white" stroke-width="0.7" stroke-linecap="round" stroke-linejoin="round"/>
<path d="M5.50911 9.75C5.43682 9.7504 5.3653 9.73512 5.29948 9.70521C5.23367 9.6753 5.17512 9.63147 5.12788 9.57675C5.08064 9.52204 5.04583 9.45772 5.02584 9.38825C5.00585 9.31877 5.00117 9.24579 5.01211 9.17433C5.19744 8.10467 5.84877 7.372 6.99944 7C8.15011 7.372 8.80144 8.10467 8.98677 9.17433C8.99772 9.24579 8.99303 9.31877 8.97304 9.38825C8.95306 9.45772 8.91824 9.52204 8.871 9.57675C8.82376 9.63147 8.76521 9.6753 8.6994 9.70521C8.63358 9.73512 8.56206 9.7504 8.48977 9.75H5.50911Z" stroke="white" stroke-width="0.7" stroke-linecap="round" stroke-linejoin="round"/>
<path d="M4.25 10.75H9.75" stroke="white" stroke-width="0.7" stroke-linecap="round" stroke-linejoin="round"/>
</g>
<defs>
<clipPath id="clip0_6488:72794">
<rect width="8" height="8" fill="white" transform="translate(3 3)"/>
</clipPath>
</defs>
</svg>
