<svg width="40" height="40" viewBox="0 0 40 40" fill="none" xmlns="http://www.w3.org/2000/svg">
<path d="M28.6133 26.9366C28.2264 26.5496 27.767 26.2425 27.2614 26.0331C26.7558 25.8236 26.2139 25.7158 25.6666 25.7158C25.1194 25.7158 24.5775 25.8236 24.0719 26.0331C23.5663 26.2425 23.1069 26.5496 22.72 26.9366L22.0783 27.5783C18.5871 24.649 15.3587 21.42 12.43 17.9282L13.0733 17.2866C13.8544 16.5052 14.2933 15.4456 14.2933 14.3407C14.2933 13.2359 13.8544 12.1763 13.0733 11.3949L9.53665 7.85992C9.14969 7.47264 8.69021 7.16542 8.18446 6.95581C7.67871 6.74619 7.13661 6.63831 6.58915 6.63831C6.04168 6.63831 5.49958 6.74619 4.99383 6.95581C4.48809 7.16542 4.0286 7.47264 3.64165 7.85992L1.70331 9.79825C0.758623 10.7511 0.170071 11.9996 0.0362608 13.3347C-0.0975492 14.6697 0.231511 16.0102 0.968314 17.1316C6.73422 25.8228 14.181 33.2724 22.87 39.0416C23.9946 39.7692 25.3334 40.0926 26.6661 39.9584C27.9989 39.8242 29.2463 39.2405 30.2033 38.3033L32.145 36.3616C32.9256 35.5803 33.3641 34.521 33.3641 33.4166C33.3641 32.3121 32.9256 31.2529 32.145 30.4716L28.6133 26.9366Z" fill="#2266E2"/>
</svg>
