<svg width="21" height="21" viewBox="0 0 21 21" fill="none" xmlns="http://www.w3.org/2000/svg">
<circle cx="10.5" cy="10.5" r="10.5" fill="#2266E2"/>
<g clip-path="url(#clip0_6052_22439)">
<path d="M5.25 13.6724C5.25 14.0205 5.38828 14.3543 5.63442 14.6004C5.88056 14.8466 6.2144 14.9849 6.5625 14.9849H14.4375C14.7856 14.9849 15.1194 14.8466 15.3656 14.6004C15.6117 14.3543 15.75 14.0205 15.75 13.6724V7.32861C15.75 6.98052 15.6117 6.64668 15.3656 6.40054C15.1194 6.15439 14.7856 6.01611 14.4375 6.01611H6.5625C6.2144 6.01611 5.88056 6.15439 5.63442 6.40054C5.38828 6.64668 5.25 6.98052 5.25 7.32861V13.6724ZM11.5938 7.10986C11.5917 7.18757 11.5684 7.26322 11.5264 7.32861C11.4899 7.39483 11.4363 7.45004 11.3712 7.48849C11.3061 7.52695 11.2319 7.54723 11.1562 7.54723C11.0806 7.54723 11.0064 7.52695 10.9413 7.48849C10.8762 7.45004 10.8226 7.39483 10.7861 7.32861C10.7441 7.26322 10.7208 7.18757 10.7188 7.10986C10.7207 7.03215 10.744 6.95647 10.7861 6.89111C10.8226 6.8249 10.8762 6.76968 10.9413 6.73123C11.0064 6.69278 11.0806 6.6725 11.1562 6.6725C11.2319 6.6725 11.3061 6.69278 11.3712 6.73123C11.4363 6.76968 11.4899 6.8249 11.5264 6.89111C11.5685 6.95647 11.5918 7.03215 11.5938 7.10986ZM13.125 7.10986C13.123 7.18757 13.0997 7.26322 13.0576 7.32861C13.0211 7.39483 12.9675 7.45004 12.9024 7.48849C12.8373 7.52695 12.7631 7.54723 12.6875 7.54723C12.6119 7.54723 12.5377 7.52695 12.4726 7.48849C12.4075 7.45004 12.3539 7.39483 12.3174 7.32861C12.2753 7.26322 12.252 7.18757 12.25 7.10986C12.252 7.03215 12.2753 6.95647 12.3174 6.89111C12.3539 6.8249 12.4075 6.76968 12.4726 6.73123C12.5377 6.69278 12.6119 6.6725 12.6875 6.6725C12.7631 6.6725 12.8373 6.69278 12.9024 6.73123C12.9675 6.76968 13.0211 6.8249 13.0576 6.89111C13.0997 6.95647 13.123 7.03215 13.125 7.10986ZM14.6562 7.10986C14.6542 7.18757 14.6309 7.26322 14.5889 7.32861C14.5524 7.39483 14.4988 7.45004 14.4337 7.48849C14.3686 7.52695 14.2944 7.54723 14.2188 7.54723C14.1431 7.54723 14.0689 7.52695 14.0038 7.48849C13.9387 7.45004 13.8851 7.39483 13.8486 7.32861C13.8066 7.26322 13.7833 7.18757 13.7812 7.10986C13.7832 7.03215 13.8065 6.95647 13.8486 6.89111C13.8857 6.82538 13.9394 6.77057 14.0044 6.73217C14.0694 6.69377 14.1433 6.67315 14.2188 6.67236C14.3028 6.67274 14.385 6.69733 14.4554 6.74319C14.5259 6.78904 14.5816 6.85422 14.616 6.93093C14.6421 6.987 14.6558 7.04802 14.6562 7.10986ZM6.125 8.31255C6.125 8.28354 6.13652 8.25572 6.15704 8.23521C6.17755 8.2147 6.20537 8.20318 6.23438 8.20318H14.7656C14.7946 8.20318 14.8225 8.2147 14.843 8.23521C14.8635 8.25572 14.875 8.28354 14.875 8.31255V13.6719C14.875 13.788 14.8289 13.8992 14.7469 13.9813C14.6648 14.0633 14.5535 14.1094 14.4375 14.1094H6.5625C6.44647 14.1094 6.33519 14.0633 6.25314 13.9813C6.17109 13.8992 6.125 13.788 6.125 13.6719V8.31255Z" fill="white"/>
<path d="M8.22184 12.4504C8.30389 12.5324 8.41515 12.5785 8.53116 12.5785C8.64717 12.5785 8.75843 12.5324 8.84047 12.4504L9.93422 11.3567C10.0162 11.2746 10.0623 11.1634 10.0623 11.0474C10.0623 10.9313 10.0162 10.8201 9.93422 10.738L8.84047 9.6443C8.75796 9.5646 8.64744 9.5205 8.53273 9.5215C8.41802 9.5225 8.30829 9.56851 8.22717 9.64963C8.14606 9.73074 8.10005 9.84047 8.09905 9.95518C8.09805 10.0699 8.14215 10.1804 8.22184 10.2629L8.92884 10.9699C8.93903 10.9801 8.94711 10.9922 8.95262 11.0054C8.95814 11.0187 8.96098 11.033 8.96098 11.0474C8.96098 11.0617 8.95814 11.076 8.95262 11.0893C8.94711 11.1026 8.93903 11.1146 8.92884 11.1248L8.22184 11.8318C8.13983 11.9138 8.09375 12.0251 8.09375 12.1411C8.09375 12.2571 8.13983 12.3684 8.22184 12.4504ZM10.9374 12.5786H12.6874C12.8034 12.5786 12.9147 12.5325 12.9968 12.4505C13.0788 12.3684 13.1249 12.2571 13.1249 12.1411C13.1249 12.0251 13.0788 11.9138 12.9968 11.8317C12.9147 11.7497 12.8034 11.7036 12.6874 11.7036H10.9374C10.8214 11.7036 10.7101 11.7497 10.628 11.8317C10.546 11.9138 10.4999 12.0251 10.4999 12.1411C10.4999 12.2571 10.546 12.3684 10.628 12.4505C10.7101 12.5325 10.8214 12.5786 10.9374 12.5786Z" fill="white"/>
</g>
<defs>
<clipPath id="clip0_6052_22439">
<rect width="10.5" height="10.5" fill="white" transform="translate(5.25 5.25)"/>
</clipPath>
</defs>
</svg>
