<svg width="16" height="16" viewBox="0 0 16 16" fill="none" xmlns="http://www.w3.org/2000/svg">
<g clip-path="url(#clip0_6486:71612)">
<path d="M8 0C6.41775 0 4.87104 0.469192 3.55544 1.34824C2.23985 2.22729 1.21447 3.47672 0.608967 4.93853C0.00346629 6.40034 -0.15496 8.00887 0.153721 9.56072C0.462403 11.1126 1.22433 12.538 2.34315 13.6569C3.46197 14.7757 4.88743 15.5376 6.43928 15.8463C7.99113 16.155 9.59966 15.9965 11.0615 15.391C12.5233 14.7855 13.7727 13.7602 14.6518 12.4446C15.5308 11.129 16 9.58225 16 8C15.9977 5.87897 15.1541 3.84547 13.6543 2.34568C12.1545 0.845885 10.121 0.00229405 8 0V0ZM8 14.2867C6.75659 14.2868 5.54106 13.9182 4.50714 13.2275C3.47321 12.5368 2.66733 11.555 2.19141 10.4063C1.71548 9.25754 1.59089 7.99348 1.83339 6.77394C2.07588 5.5544 2.67458 4.43416 3.55376 3.55489C4.43294 2.67562 5.55311 2.07681 6.77262 1.83418C7.99214 1.59155 9.25621 1.71601 10.405 2.19181C11.5538 2.66762 12.5356 3.47339 13.2265 4.50725C13.9173 5.5411 14.286 6.75659 14.286 8C14.2841 9.66655 13.6212 11.2643 12.4427 12.4427C11.2643 13.6212 9.66656 14.2841 8 14.286V14.2867Z" fill="white"/>
<path d="M11.0715 7.14117L7.12086 5.16584C6.96601 5.07737 6.79018 5.03227 6.61187 5.0353C6.43356 5.03833 6.25936 5.08937 6.10761 5.18305C5.95586 5.27674 5.83217 5.4096 5.74956 5.56765C5.66695 5.7257 5.62848 5.9031 5.63819 6.08117V9.91717C5.63114 10.0946 5.67047 10.2708 5.75231 10.4284C5.83415 10.586 5.95566 10.7195 6.10486 10.8158C6.25696 10.9096 6.4322 10.959 6.61086 10.9585C6.7874 10.9566 6.96107 10.9137 7.11819 10.8332L11.0689 8.85784C11.2406 8.78939 11.3878 8.67101 11.4916 8.518C11.5953 8.36498 11.6507 8.18437 11.6507 7.99951C11.6507 7.81464 11.5953 7.63403 11.4916 7.48102C11.3878 7.328 11.2406 7.20962 11.0689 7.14117H11.0715Z" fill="white"/>
</g>
<defs>
<clipPath id="clip0_6486:71612">
<rect width="16" height="16" fill="white"/>
</clipPath>
</defs>
</svg>
