<svg width="16" height="16" viewBox="0 0 16 16" fill="none" xmlns="http://www.w3.org/2000/svg">
<g opacity="0.51">
<path d="M11.8753 6.14583H11.4691V4.65625C11.4691 3.68655 11.0839 2.75657 10.3982 2.07089C9.7125 1.38521 8.78252 1 7.81282 1C6.84313 1 5.91315 1.38521 5.22747 2.07089C4.54179 2.75657 4.15658 3.68655 4.15658 4.65625V6.14583H3.75033C3.46301 6.14583 3.18746 6.25997 2.98429 6.46313C2.78113 6.6663 2.66699 6.94185 2.66699 7.22917V12.9167C2.66699 13.204 2.78113 13.4795 2.98429 13.6827C3.18746 13.8859 3.46301 14 3.75033 14H11.8753C12.1626 14 12.4382 13.8859 12.6414 13.6827C12.8445 13.4795 12.9587 13.204 12.9587 12.9167V7.22917C12.9587 6.94185 12.8445 6.6663 12.6414 6.46313C12.4382 6.25997 12.1626 6.14583 11.8753 6.14583ZM6.72949 9.39583C6.72863 9.20546 6.77795 9.01823 6.87248 8.85299C6.96702 8.68774 7.10342 8.55033 7.26797 8.45459C7.43251 8.35884 7.61938 8.30815 7.80975 8.30761C8.00012 8.30707 8.18727 8.35671 8.35235 8.45152C8.51744 8.54633 8.65462 8.68297 8.75008 8.84767C8.84555 9.01238 8.89593 9.19933 8.89615 9.3897C8.89636 9.58008 8.84641 9.76714 8.75132 9.93206C8.65623 10.097 8.51936 10.2339 8.35449 10.3291V11.5625C8.35449 11.7062 8.29742 11.8439 8.19584 11.9455C8.09426 12.0471 7.95648 12.1042 7.81282 12.1042C7.66917 12.1042 7.53139 12.0471 7.42981 11.9455C7.32823 11.8439 7.27116 11.7062 7.27116 11.5625V10.3291C7.10697 10.2347 6.97049 10.0988 6.87542 9.93497C6.78035 9.77116 6.73002 9.58523 6.72949 9.39583ZM5.51074 4.65625C5.51074 4.0457 5.75328 3.46016 6.18501 3.02843C6.61673 2.59671 7.20227 2.35417 7.81282 2.35417C8.42338 2.35417 9.00892 2.59671 9.44064 3.02843C9.87237 3.46016 10.1149 4.0457 10.1149 4.65625V5.875C10.1149 5.94683 10.0864 6.01572 10.0356 6.06651C9.98479 6.1173 9.9159 6.14583 9.84407 6.14583H5.78157C5.70975 6.14583 5.64086 6.1173 5.59007 6.06651C5.53928 6.01572 5.51074 5.94683 5.51074 5.875V4.65625Z" fill="#717171"/>
</g>
</svg>
