<svg width="100" height="100" viewBox="0 0 100 100" fill="none" xmlns="http://www.w3.org/2000/svg">
    <circle cx="50" cy="50" r="49" fill="#EBEBEB" stroke="#DDDDDD" stroke-width="2"/>
    <path opacity="0.2" d="M61.1583 56.565C60.9868 56.4844 60.8396 56.3605 60.7315 56.2056C60.6235 56.0508 60.5583 55.8705 60.5425 55.6828C60.5267 55.4951 60.5608 55.3065 60.6415 55.136C60.7222 54.9656 60.8467 54.8191 61.0023 54.7114C63.7857 52.7726 66.0187 50.1546 67.4857 47.1099C68.9528 44.0652 69.6046 40.6967 69.378 37.3293C69.1515 33.9618 68.0543 30.7092 66.1924 27.8851C64.3305 25.061 61.7667 22.7609 58.7484 21.2066C55.73 19.6523 52.359 18.8962 48.9605 19.0114C45.562 19.1267 42.2508 20.1092 39.3464 21.8643C36.4419 23.6195 34.0422 26.0879 32.3788 29.0315C30.7154 31.975 29.8445 35.2944 29.85 38.6693C29.858 41.8788 30.6629 45.0369 32.1934 47.8642C33.724 50.6915 35.9329 53.1008 38.625 54.8791C38.7825 54.9847 38.9091 55.1297 38.992 55.2995C39.0749 55.4692 39.1112 55.6577 39.0971 55.8458C39.083 56.034 39.0191 56.215 38.9119 56.3708C38.8046 56.5265 38.6578 56.6514 38.4863 56.7327C34.1407 58.8629 30.4816 62.1562 27.9219 66.241C25.3621 70.3257 24.0037 75.0393 24 79.8496C24 80.4199 24.2283 80.9669 24.6346 81.3702C25.0409 81.7734 25.592 82 26.1667 82H73.8333C74.408 82 74.9591 81.7734 75.3654 81.3702C75.7717 80.9669 76 80.4199 76 79.8496C75.9956 74.9732 74.5991 70.1978 71.9724 66.0768C69.3456 61.9558 65.5961 58.6578 61.1583 56.565ZM39.1753 35.0223C39.2309 34.8691 39.3207 34.7304 39.4381 34.6167C39.5555 34.503 39.6973 34.4173 39.853 34.3659C40.0086 34.3145 40.174 34.2989 40.3366 34.3203C40.4992 34.3416 40.6548 34.3993 40.7917 34.489C43.6109 36.338 46.7737 37.6099 50.0946 38.2303C53.4154 38.8506 56.8277 38.8069 60.1313 38.1016C60.2162 38.0838 60.304 38.0849 60.3883 38.1048C60.4727 38.1248 60.5515 38.1631 60.6192 38.2171C60.6868 38.271 60.7414 38.3391 60.7792 38.4166C60.817 38.4941 60.837 38.579 60.8377 38.665C60.8377 41.6022 59.6621 44.4191 57.5695 46.496C55.4769 48.5728 52.6387 49.7396 49.6793 49.7396C46.72 49.7396 43.8818 48.5728 41.7892 46.496C39.6966 44.4191 38.521 41.6022 38.521 38.665C38.5214 37.422 38.7429 36.1888 39.1753 35.0223Z" fill="#717171"/>
</svg>
