<svg width="10" height="9" viewBox="0 0 10 9" fill="none" xmlns="http://www.w3.org/2000/svg">
<g clip-path="url(#clip0_14381_115220)">
<path d="M4.72925 2.30031C4.73175 2.28232 4.72898 2.26398 4.72125 2.24754C4.71353 2.23109 4.7012 2.21725 4.68575 2.20768C4.2125 1.91256 3.13737 1.44718 1.06512 1.42018C1.04028 1.41984 1.01562 1.42443 0.992565 1.4337C0.969513 1.44296 0.948532 1.45672 0.930842 1.47417C0.913152 1.49161 0.899106 1.5124 0.889519 1.53532C0.879933 1.55824 0.874998 1.58284 0.875 1.60768V7.51956C0.874995 7.56884 0.894389 7.61613 0.928986 7.65122C0.963583 7.68631 1.0106 7.70637 1.05988 7.70706C2.9915 7.73181 4.05763 8.13831 4.57925 8.43156C4.59338 8.43976 4.60942 8.44408 4.62575 8.44408C4.64208 8.44408 4.65812 8.43976 4.67225 8.43156C4.6864 8.4233 4.69815 8.41147 4.70631 8.39726C4.71446 8.38305 4.71875 8.36695 4.71875 8.35056V2.41731C4.71983 2.37813 4.72334 2.33906 4.72925 2.30031ZM7.71875 6.54231C7.71865 6.60867 7.69511 6.67286 7.6523 6.72356C7.60949 6.77426 7.55015 6.80821 7.48475 6.81943C6.87681 6.93771 6.31708 7.23217 5.87525 7.66618C5.72758 7.83012 5.59842 8.00983 5.49013 8.20206C5.48047 8.21949 5.47661 8.23954 5.47912 8.25931C5.48164 8.27908 5.49038 8.29753 5.50409 8.312C5.5178 8.32646 5.53576 8.33618 5.55537 8.33974C5.57497 8.3433 5.5952 8.34052 5.61312 8.33181C6.6637 7.88475 7.79894 7.67158 8.94012 7.70706C8.9894 7.70637 9.03642 7.68631 9.07101 7.65122C9.10561 7.61613 9.125 7.56884 9.125 7.51956V1.60768C9.125 1.58284 9.12007 1.55824 9.11048 1.53532C9.10089 1.5124 9.08685 1.49161 9.06916 1.47417C9.05147 1.45672 9.03049 1.44296 9.00743 1.4337C8.98438 1.42443 8.95972 1.41984 8.93488 1.42018C8.51713 1.42543 8.14212 1.44981 7.80237 1.48618C7.77937 1.48868 7.7581 1.4996 7.74266 1.51684C7.72722 1.53408 7.71871 1.55642 7.71875 1.57956V6.54231Z" fill="#5FCF64"/>
<path d="M7.088 6.33749C7.10764 6.33187 7.12492 6.32002 7.13724 6.30372C7.14955 6.28741 7.15622 6.26755 7.15625 6.24712V0.650243C7.15626 0.635147 7.15263 0.62027 7.14567 0.606878C7.1387 0.593486 7.1286 0.581974 7.11623 0.573322C7.10386 0.56467 7.08958 0.559133 7.07461 0.557182C7.05964 0.555232 7.04442 0.556925 7.03025 0.562118C6.59232 0.709085 6.19618 0.959248 5.87525 1.29149C5.56173 1.59522 5.35359 1.99127 5.28125 2.42174V7.24124C5.28123 7.26031 5.28704 7.27894 5.29788 7.29463C5.30873 7.31032 5.3241 7.32233 5.34195 7.32905C5.3598 7.33577 5.37927 7.33689 5.39778 7.33226C5.41628 7.32763 5.43293 7.31746 5.4455 7.30312L5.45413 7.29337C5.90048 6.83054 6.46583 6.49979 7.088 6.33749Z" fill="#5FCF64"/>
</g>
<defs>
<clipPath id="clip0_14381_115220">
<rect width="9" height="9" fill="white" transform="translate(0.5)"/>
</clipPath>
</defs>
</svg>
