<svg width="54" height="15" viewBox="0 0 54 15" fill="none" xmlns="http://www.w3.org/2000/svg">
<rect x="0.5" width="53" height="15" rx="2" fill="#5FCF64" fill-opacity="0.2"/>
<g clip-path="url(#clip0_14439_112819)">
<path d="M12.7292 5.30007C12.7318 5.28207 12.729 5.26374 12.7213 5.24729C12.7135 5.23085 12.7012 5.217 12.6858 5.20744C12.2125 4.91232 11.1374 4.44694 9.06512 4.41994C9.04028 4.41959 9.01562 4.42419 8.99257 4.43345C8.96951 4.44272 8.94853 4.45648 8.93084 4.47392C8.91315 4.49137 8.89911 4.51215 8.88952 4.53508C8.87993 4.558 8.875 4.5826 8.875 4.60744V10.5193C8.875 10.5686 8.89439 10.6159 8.92899 10.651C8.96358 10.6861 9.0106 10.7061 9.05988 10.7068C10.9915 10.7316 12.0576 11.1381 12.5793 11.4313C12.5934 11.4395 12.6094 11.4438 12.6258 11.4438C12.6421 11.4438 12.6581 11.4395 12.6723 11.4313C12.6864 11.4231 12.6981 11.4112 12.7063 11.397C12.7145 11.3828 12.7188 11.3667 12.7188 11.3503V5.41707C12.7198 5.37789 12.7233 5.33881 12.7292 5.30007ZM15.7188 9.54206C15.7186 9.60842 15.6951 9.67261 15.6523 9.72331C15.6095 9.77401 15.5502 9.80797 15.4847 9.81919C14.8768 9.93746 14.3171 10.2319 13.8752 10.6659C13.7276 10.8299 13.5984 11.0096 13.4901 11.2018C13.4805 11.2192 13.4766 11.2393 13.4791 11.2591C13.4816 11.2788 13.4904 11.2973 13.5041 11.3118C13.5178 11.3262 13.5358 11.3359 13.5554 11.3395C13.575 11.3431 13.5952 11.3403 13.6131 11.3316C14.6637 10.8845 15.7989 10.6713 16.9401 10.7068C16.9894 10.7061 17.0364 10.6861 17.071 10.651C17.1056 10.6159 17.125 10.5686 17.125 10.5193V4.60744C17.125 4.5826 17.1201 4.558 17.1105 4.53508C17.1009 4.51215 17.0868 4.49137 17.0692 4.47392C17.0515 4.45648 17.0305 4.44272 17.0074 4.43345C16.9844 4.42419 16.9597 4.41959 16.9349 4.41994C16.5171 4.42519 16.1421 4.44957 15.8024 4.48594C15.7794 4.48844 15.7581 4.49936 15.7427 4.5166C15.7272 4.53384 15.7187 4.55617 15.7188 4.57932V9.54206Z" fill="#5FCF64"/>
<path d="M15.088 9.33774C15.1076 9.33212 15.1249 9.32026 15.1372 9.30396C15.1495 9.28766 15.1562 9.26779 15.1562 9.24736V3.65049C15.1563 3.63539 15.1526 3.62051 15.1457 3.60712C15.1387 3.59373 15.1286 3.58222 15.1162 3.57357C15.1039 3.56491 15.0896 3.55938 15.0746 3.55743C15.0596 3.55548 15.0444 3.55717 15.0302 3.56236C14.5923 3.70933 14.1962 3.95949 13.8752 4.29174C13.5617 4.59546 13.3536 4.99151 13.2813 5.42199V10.2415C13.2812 10.2606 13.287 10.2792 13.2979 10.2949C13.3087 10.3106 13.3241 10.3226 13.342 10.3293C13.3598 10.336 13.3793 10.3371 13.3978 10.3325C13.4163 10.3279 13.4329 10.3177 13.4455 10.3034L13.4541 10.2936C13.9005 9.83079 14.4658 9.50003 15.088 9.33774Z" fill="#5FCF64"/>
</g>
<path d="M20.4438 11V4.385H21.7218V11H20.4438ZM24.4578 11L22.4418 8.138H23.8728L25.9518 11H24.4578ZM21.3438 8.804V7.769H23.0178C23.2518 7.769 23.4528 7.721 23.6208 7.625C23.7948 7.529 23.9298 7.394 24.0258 7.22C24.1218 7.046 24.1698 6.848 24.1698 6.626C24.1698 6.398 24.1218 6.197 24.0258 6.023C23.9298 5.849 23.7948 5.714 23.6208 5.618C23.4528 5.522 23.2518 5.474 23.0178 5.474H21.3438V4.385H22.8828C23.4108 4.385 23.8668 4.463 24.2508 4.619C24.6408 4.775 24.9408 5.012 25.1508 5.33C25.3608 5.648 25.4658 6.047 25.4658 6.527V6.671C25.4658 7.157 25.3578 7.556 25.1418 7.868C24.9318 8.18 24.6348 8.414 24.2508 8.57C23.8668 8.726 23.4108 8.804 22.8828 8.804H21.3438ZM26.9213 11V4.43H28.1723V11H26.9213ZM27.9923 11V9.92H30.9713V11H27.9923ZM27.9923 8.201V7.121H30.7373V8.201H27.9923ZM27.9923 5.51V4.43H30.8993V5.51H27.9923ZM31.6347 11L33.8757 4.43H35.9637L38.2677 11H36.9537L35.0007 5.303L35.4597 5.501H34.3347L34.8027 5.303L32.9127 11H31.6347ZM33.2007 9.254L33.6057 8.174H36.2697L36.6657 9.254H33.2007ZM40.3416 11.036V9.848H41.7006C42.0426 9.848 42.3456 9.797 42.6096 9.695C42.8796 9.587 43.1076 9.437 43.2936 9.245C43.4796 9.053 43.6206 8.828 43.7166 8.57C43.8186 8.306 43.8696 8.015 43.8696 7.697C43.8696 7.367 43.8186 7.073 43.7166 6.815C43.6206 6.551 43.4796 6.326 43.2936 6.14C43.1076 5.954 42.8796 5.813 42.6096 5.717C42.3456 5.621 42.0426 5.573 41.7006 5.573H40.3416V4.385H41.6196C42.2136 4.385 42.7326 4.472 43.1766 4.646C43.6206 4.82 43.9896 5.06 44.2836 5.366C44.5776 5.666 44.7966 6.011 44.9406 6.401C45.0906 6.785 45.1656 7.184 45.1656 7.598V7.796C45.1656 8.192 45.0906 8.582 44.9406 8.966C44.7966 9.35 44.5776 9.698 44.2836 10.01C43.9896 10.322 43.6206 10.571 43.1766 10.757C42.7326 10.943 42.2136 11.036 41.6196 11.036H40.3416ZM39.2436 11.036V4.385H40.5216V11.036H39.2436Z" fill="#5FCF64"/>
<defs>
<clipPath id="clip0_14439_112819">
<rect width="9" height="9" fill="white" transform="translate(8.5 3)"/>
</clipPath>
</defs>
</svg>
