<svg width="7" height="7" viewBox="0 0 7 7" fill="none" xmlns="http://www.w3.org/2000/svg">
<path d="M6.163 5.74583C6.163 5.85741 6.11868 5.96441 6.03978 6.04331C5.96088 6.12221 5.85387 6.16654 5.74229 6.16654C5.63071 6.16654 5.52371 6.12221 5.44481 6.04331C5.36591 5.96441 5.32158 5.85741 5.32158 5.74583V2.44747C5.32155 2.4336 5.31742 2.42006 5.30969 2.40855C5.30197 2.39704 5.291 2.38808 5.27819 2.38279C5.26537 2.37751 5.25128 2.37615 5.23768 2.37887C5.22409 2.3816 5.21161 2.38829 5.20182 2.3981L1.55203 6.04397C1.47307 6.12282 1.36602 6.16707 1.25443 6.16699C1.14284 6.16691 1.03586 6.12251 0.957007 6.04355C0.878158 5.96459 0.833906 5.85754 0.833984 5.74595C0.834063 5.63436 0.878467 5.52737 0.957428 5.44853L4.61171 1.79817C4.62154 1.78837 4.62824 1.77586 4.63095 1.76224C4.63367 1.74862 4.63228 1.73451 4.62696 1.72168C4.62165 1.70885 4.61264 1.69789 4.60109 1.69019C4.58953 1.68248 4.57595 1.67839 4.56206 1.67841H1.25473C1.14315 1.67841 1.03614 1.63409 0.957243 1.55519C0.878345 1.47629 0.83402 1.36928 0.83402 1.2577C0.83402 1.14612 0.878345 1.03911 0.957243 0.960216C1.03614 0.881317 1.14315 0.836992 1.25473 0.836992H5.46182C5.55395 0.836992 5.64517 0.855147 5.73028 0.89042C5.81539 0.925693 5.89271 0.977392 5.95783 1.04256C6.02295 1.10773 6.07458 1.1851 6.10979 1.27023C6.14499 1.35537 6.16308 1.44661 6.163 1.53874V5.74583Z" fill="#5ABAFF"/>
</svg>
