<svg width="7" height="7" viewBox="0 0 7 7" fill="none" xmlns="http://www.w3.org/2000/svg">
<path d="M6.33338 6.16669C6.33338 6.2993 6.2807 6.42648 6.18693 6.52025C6.09316 6.61402 5.96598 6.66669 5.83338 6.66669C5.70077 6.66669 5.57359 6.61402 5.47982 6.52025C5.38606 6.42648 5.33338 6.2993 5.33338 6.16669V2.24669C5.33334 2.23022 5.32842 2.21412 5.31924 2.20044C5.31006 2.18676 5.29703 2.17611 5.2818 2.16983C5.26657 2.16355 5.24982 2.16193 5.23366 2.16517C5.21751 2.16841 5.20268 2.17636 5.19104 2.18803L0.853376 6.52103C0.759533 6.61474 0.632308 6.66733 0.499689 6.66724C0.367069 6.66714 0.239919 6.61437 0.146209 6.52053C0.0524993 6.42668 -9.3642e-05 6.29946 1.25167e-07 6.16684C9.38924e-05 6.03422 0.0528667 5.90707 0.146709 5.81336L4.48971 1.47503C4.50139 1.46337 4.50936 1.44851 4.51258 1.43233C4.51581 1.41614 4.51416 1.39936 4.50784 1.38412C4.50152 1.36887 4.49082 1.35584 4.47709 1.34669C4.46335 1.33754 4.44721 1.33266 4.43071 1.33269H0.500043C0.367434 1.33269 0.240257 1.28002 0.146489 1.18625C0.0527209 1.09248 4.24842e-05 0.965302 4.24842e-05 0.832694C4.24842e-05 0.700085 0.0527209 0.572908 0.146489 0.47914C0.240257 0.385372 0.367434 0.332694 0.500043 0.332694H5.50004C5.60953 0.332694 5.71795 0.35427 5.8191 0.396191C5.92025 0.438112 6.01214 0.499554 6.08953 0.577007C6.16693 0.65446 6.22829 0.746405 6.27013 0.847586C6.31197 0.948768 6.33346 1.0572 6.33338 1.16669V6.16669Z" fill="#5ABAFF"/>
</svg>
