<svg width="12" height="12" viewBox="0 0 12 12" fill="none" xmlns="http://www.w3.org/2000/svg">
<g clip-path="url(#clip0_6579:78012)">
<path d="M1.25 8.25C1.1837 8.25 1.12011 8.22366 1.07322 8.17678C1.02634 8.12989 1 8.0663 1 8V3.75C1 3.6837 1.02634 3.62011 1.07322 3.57322C1.12011 3.52634 1.1837 3.5 1.25 3.5H8C8.0663 3.5 8.12989 3.52634 8.17678 3.57322C8.22366 3.62011 8.25 3.6837 8.25 3.75V4.785C8.58175 4.739 8.91825 4.739 9.25 4.785V1.5C9.25 1.36739 9.19732 1.24021 9.10355 1.14645C9.00979 1.05268 8.88261 1 8.75 1H7.5C7.46685 1 7.43505 0.98683 7.41161 0.963388C7.38817 0.939946 7.375 0.908152 7.375 0.875V0.375C7.375 0.275544 7.33549 0.180161 7.26516 0.109835C7.19484 0.0395088 7.09946 0 7 0C6.90054 0 6.80516 0.0395088 6.73484 0.109835C6.66451 0.180161 6.625 0.275544 6.625 0.375V2.25C6.625 2.29925 6.6153 2.34801 6.59645 2.39351C6.57761 2.439 6.54999 2.48034 6.51516 2.51517C6.48034 2.54999 6.439 2.57761 6.39351 2.59645C6.34801 2.6153 6.29925 2.625 6.25 2.625C6.20075 2.625 6.15199 2.6153 6.10649 2.59645C6.061 2.57761 6.01966 2.54999 5.98484 2.51517C5.95001 2.48034 5.92239 2.439 5.90355 2.39351C5.8847 2.34801 5.875 2.29925 5.875 2.25V1.25C5.875 1.1837 5.84866 1.12011 5.80178 1.07322C5.75489 1.02634 5.6913 1 5.625 1H3.5C3.46685 1 3.43505 0.98683 3.41161 0.963388C3.38817 0.939946 3.375 0.908152 3.375 0.875V0.375C3.375 0.275544 3.33549 0.180161 3.26517 0.109835C3.19484 0.0395088 3.09946 0 3 0C2.90054 0 2.80516 0.0395088 2.73483 0.109835C2.66451 0.180161 2.625 0.275544 2.625 0.375V2.25C2.625 2.34946 2.58549 2.44484 2.51517 2.51517C2.44484 2.58549 2.34946 2.625 2.25 2.625C2.15054 2.625 2.05516 2.58549 1.98483 2.51517C1.91451 2.44484 1.875 2.34946 1.875 2.25V1.25C1.875 1.1837 1.84866 1.12011 1.80178 1.07322C1.75489 1.02634 1.6913 1 1.625 1H0.5C0.367392 1 0.240215 1.05268 0.146447 1.14645C0.0526784 1.24021 0 1.36739 0 1.5L0 8.25C0 8.51522 0.105357 8.76957 0.292893 8.95711C0.48043 9.14464 0.734784 9.25 1 9.25H4.7845C4.7385 8.91825 4.7385 8.58175 4.7845 8.25H1.25ZM11.3845 9.3C11.3224 9.27874 11.2566 9.26994 11.1911 9.27409C11.1255 9.27824 11.0614 9.29526 11.0025 9.32419C10.9435 9.35312 10.8908 9.39338 10.8474 9.44268C10.804 9.49197 10.7707 9.54934 10.7495 9.6115C10.6314 9.95922 10.422 10.2688 10.1431 10.5077C9.86421 10.7466 9.52619 10.906 9.16447 10.9693C8.80275 11.0326 8.43066 10.9974 8.08722 10.8675C7.74378 10.7375 7.44165 10.5175 7.2125 10.2305L8.1555 9.288C8.19055 9.25304 8.21444 9.20845 8.22412 9.15989C8.2338 9.11134 8.22885 9.061 8.20989 9.01527C8.19093 8.96953 8.15882 8.93045 8.11763 8.90299C8.07643 8.87553 8.02801 8.86091 7.9785 8.861H5.75C5.6837 8.861 5.62011 8.88734 5.57322 8.93422C5.52634 8.98111 5.5 9.0447 5.5 9.111V11.34C5.50001 11.3895 5.5147 11.4378 5.5422 11.4789C5.5697 11.5201 5.60878 11.5521 5.6545 11.571C5.70022 11.5899 5.75051 11.5948 5.79902 11.5851C5.84753 11.5754 5.89207 11.5515 5.927 11.5165L6.5045 10.939C6.85433 11.3463 7.30568 11.6539 7.81275 11.8305C8.31983 12.0071 8.8646 12.0464 9.39178 11.9444C9.91895 11.8425 10.4098 11.6029 10.8145 11.25C11.2191 10.8971 11.5233 10.4434 11.696 9.935C11.7173 9.87285 11.7261 9.80713 11.7219 9.74158C11.7178 9.67602 11.7007 9.61193 11.6718 9.55296C11.6429 9.49399 11.6026 9.4413 11.5533 9.3979C11.504 9.35449 11.4467 9.32123 11.3845 9.3Z" fill="#717171"/>
<path d="M11.8454 5.88651C11.7997 5.86761 11.7494 5.86271 11.7009 5.87241C11.6524 5.88211 11.6079 5.90598 11.5729 5.94101L10.9679 6.54601C10.6159 6.14245 10.1637 5.83871 9.65703 5.66534C9.15033 5.49196 8.60691 5.45506 8.08142 5.55834C7.55592 5.66163 7.06689 5.90145 6.6635 6.25371C6.2601 6.60596 5.95657 7.05823 5.78343 7.56501C5.74046 7.69052 5.74912 7.82796 5.80749 7.9471C5.86586 8.06623 5.96917 8.15729 6.09468 8.20026C6.22019 8.24322 6.35763 8.23457 6.47677 8.1762C6.5959 8.11783 6.68696 8.01452 6.72993 7.88901C6.84763 7.54264 7.05601 7.23415 7.33337 6.99563C7.61073 6.7571 7.94694 6.59726 8.30702 6.53274C8.66711 6.46822 9.0379 6.50137 9.38083 6.62874C9.72375 6.75612 10.0263 6.97307 10.2569 7.25701L9.34443 8.16951C9.30955 8.2045 9.28582 8.24904 9.27623 8.29751C9.26665 8.34598 9.27164 8.3962 9.29058 8.44184C9.30952 8.48747 9.34155 8.52647 9.38264 8.55391C9.42373 8.58135 9.47202 8.596 9.52143 8.59601H11.7499C11.8162 8.59601 11.8798 8.56967 11.9267 8.52279C11.9736 8.4759 11.9999 8.41231 11.9999 8.34601V6.11751C11.9999 6.06804 11.9852 6.01968 11.9577 5.97856C11.9302 5.93744 11.8911 5.90541 11.8454 5.88651Z" fill="#717171"/>
</g>
<defs>
<clipPath id="clip0_6579:78012">
<rect width="12" height="12" fill="white"/>
</clipPath>
</defs>
</svg>
