<svg width="14" height="10" viewBox="0 0 14 10" fill="none" xmlns="http://www.w3.org/2000/svg">
<path d="M11.7374 9.26132C11.7374 9.33985 11.7686 9.41517 11.8241 9.47069C11.8797 9.52622 11.955 9.55742 12.0335 9.55742H13.7041C13.7526 9.55739 13.8003 9.54545 13.8431 9.52264C13.8859 9.49984 13.9225 9.46687 13.9496 9.42664C13.9766 9.3864 13.9934 9.34013 13.9984 9.2919C14.0034 9.24366 13.9965 9.19493 13.9783 9.14999C13.8026 8.71086 13.5119 8.32712 13.1368 8.03902C12.7617 7.75091 12.316 7.56908 11.8464 7.51258C11.7973 7.50665 11.7474 7.51313 11.7015 7.53142C11.6555 7.5497 11.6148 7.57922 11.5832 7.61727C11.5516 7.65531 11.53 7.70068 11.5204 7.74922C11.5108 7.79776 11.5136 7.84793 11.5284 7.89514C11.6669 8.33729 11.7374 8.79796 11.7374 9.26132ZM2.77577 7.86967C2.79003 7.82531 2.79362 7.77821 2.78624 7.7322C2.77887 7.68619 2.76074 7.64257 2.73333 7.60489C2.70592 7.56721 2.67 7.53653 2.6285 7.51534C2.587 7.49416 2.54108 7.48307 2.49448 7.48297H2.48738C1.95689 7.48324 1.43862 7.64218 0.99919 7.93935C0.559761 8.23653 0.219267 8.65835 0.0214882 9.15058C0.0033594 9.19554 -0.00345552 9.24426 0.00164178 9.29246C0.00673908 9.34066 0.0235927 9.38688 0.0507229 9.42705C0.077853 9.46722 0.11443 9.50011 0.157242 9.52284C0.200054 9.54557 0.247793 9.55745 0.296265 9.55742H2.26234C2.34087 9.55742 2.41619 9.52622 2.47171 9.47069C2.52724 9.41517 2.55844 9.33985 2.55844 9.26132C2.55822 8.78897 2.63155 8.31947 2.77577 7.86967Z" fill="#DDDDDD"/>
<path d="M5.71438 5.59437C5.73743 5.60849 5.75617 5.62866 5.76857 5.65268C5.78097 5.67669 5.78656 5.70365 5.78473 5.73062C5.7829 5.75759 5.77372 5.78354 5.75819 5.80566C5.74266 5.82779 5.72136 5.84523 5.69662 5.85611C5.02934 6.14103 4.46039 6.61558 4.06035 7.2209C3.66032 7.82621 3.4468 8.53566 3.44629 9.26122C3.44629 9.33975 3.47748 9.41506 3.53301 9.47059C3.58854 9.52612 3.66386 9.55732 3.74239 9.55732H10.5526C10.6311 9.55732 10.7064 9.52612 10.762 9.47059C10.8175 9.41506 10.8487 9.33975 10.8487 9.26122C10.8475 8.53458 10.6326 7.82433 10.2308 7.21889C9.82897 6.61344 9.25798 6.13952 8.58888 5.85611C8.56387 5.84526 8.54232 5.82772 8.5266 5.80544C8.51088 5.78315 8.5016 5.75697 8.49976 5.72976C8.49793 5.70255 8.50361 5.67536 8.5162 5.65117C8.52879 5.62697 8.54779 5.60671 8.57112 5.59259C9.0993 5.27886 9.50978 4.80029 9.73942 4.23049C9.96905 3.6607 10.0051 3.03123 9.84209 2.43893C9.67905 1.84663 9.32593 1.3243 8.83705 0.952287C8.34816 0.580273 7.7506 0.379182 7.13627 0.379946C6.52194 0.38071 5.92487 0.583288 5.43692 0.956517C4.94896 1.32975 4.59714 1.85295 4.43557 2.44566C4.27401 3.03836 4.31165 3.66773 4.5427 4.23696C4.77375 4.80618 5.18542 5.28373 5.71438 5.59614V5.59437ZM5.51896 3.18355C5.51898 3.07157 5.53149 2.95994 5.55627 2.85074C5.56655 2.80504 5.58754 2.76242 5.61749 2.72641C5.64745 2.69039 5.68553 2.66199 5.72859 2.64355C5.77166 2.62511 5.81848 2.61716 5.86522 2.62033C5.91196 2.62351 5.95728 2.63773 5.99745 2.66183C6.56506 3.00354 7.21513 3.18393 7.87766 3.18355C8.0509 3.18339 8.22389 3.17053 8.39524 3.14506C8.44151 3.13813 8.48876 3.14227 8.53312 3.15713C8.57748 3.17199 8.61769 3.19714 8.65045 3.23054C8.68321 3.26394 8.70759 3.30462 8.72159 3.34926C8.7356 3.3939 8.73882 3.44122 8.73101 3.48735C8.65575 3.88385 8.43521 4.23799 8.11258 4.48045C7.78994 4.72291 7.38843 4.83623 6.98664 4.79822C6.58485 4.76022 6.2117 4.57364 5.94024 4.27499C5.66878 3.97634 5.51855 3.58714 5.51896 3.18355Z" fill="#DDDDDD"/>
<path d="M11.5124 6.89258C11.8524 6.89466 12.1846 6.79091 12.4631 6.5957C12.7415 6.40049 12.9523 6.1235 13.0662 5.80313C13.1802 5.48275 13.1916 5.13486 13.099 4.80768C13.0064 4.4805 12.8143 4.19024 12.5493 3.97714C12.2843 3.76403 11.9596 3.63864 11.6202 3.61834C11.2808 3.59804 10.9434 3.68384 10.655 3.86385C10.3665 4.04386 10.1411 4.30915 10.0102 4.62296C9.87922 4.93677 9.84914 5.28355 9.9241 5.61522C10.0072 5.97541 10.209 6.29719 10.4971 6.52886C10.7851 6.76053 11.1427 6.88863 11.5124 6.89258Z" fill="#DDDDDD"/>
<path d="M2.4879 6.89225C3.38732 6.89225 4.11643 6.16313 4.11643 5.26372C4.11643 4.36431 3.38732 3.63519 2.4879 3.63519C1.58849 3.63519 0.859375 4.36431 0.859375 5.26372C0.859375 6.16313 1.58849 6.89225 2.4879 6.89225Z" fill="#DDDDDD"/>
</svg>
