<svg width="11" height="11" viewBox="0 0 11 11" fill="none" xmlns="http://www.w3.org/2000/svg">
<path d="M5.5 0C4.4122 0 3.34884 0.322569 2.44437 0.926917C1.5399 1.53126 0.834947 2.39025 0.418665 3.39524C0.00238307 4.40023 -0.106535 5.5061 0.105683 6.573C0.317902 7.63989 0.841726 8.6199 1.61091 9.38909C2.3801 10.1583 3.36011 10.6821 4.427 10.8943C5.4939 11.1065 6.59977 10.9976 7.60476 10.5813C8.60975 10.1651 9.46873 9.4601 10.0731 8.55564C10.6774 7.65117 11 6.5878 11 5.5C10.9983 4.04183 10.4183 2.64387 9.38721 1.61279C8.35613 0.581706 6.95817 0.00169823 5.5 0V0ZM8.67488 3.75833L5.53758 8.01579C5.50055 8.06493 5.45409 8.10621 5.40093 8.1372C5.34776 8.16819 5.28896 8.18829 5.22794 8.19631C5.16693 8.20433 5.10493 8.20012 5.04556 8.18392C4.9862 8.16772 4.93065 8.13986 4.88217 8.10196L2.64183 6.31079C2.59483 6.27317 2.55569 6.22666 2.52666 6.17392C2.49762 6.12118 2.47926 6.06323 2.47262 6.00339C2.45921 5.88254 2.49436 5.76131 2.57034 5.66637C2.64631 5.57144 2.75688 5.51057 2.87774 5.49716C2.99859 5.48375 3.11982 5.5189 3.21475 5.59487L5.08292 7.0895L7.93696 3.21612C7.97132 3.16457 8.01577 3.12051 8.06764 3.08661C8.11951 3.05272 8.17771 3.0297 8.23872 3.01893C8.29974 3.00816 8.3623 3.00988 8.42264 3.02398C8.48297 3.03807 8.53982 3.06426 8.58975 3.10094C8.63968 3.13763 8.68165 3.18406 8.71313 3.23743C8.74461 3.29079 8.76494 3.34999 8.7729 3.41143C8.78086 3.47288 8.77627 3.5353 8.75942 3.59493C8.74258 3.65455 8.71381 3.71014 8.67488 3.75833Z" fill="#40E395"/>
</svg>
