<svg width="9" height="11" viewBox="0 0 9 11" fill="none" xmlns="http://www.w3.org/2000/svg">
<path d="M8.54389 5.39166C8.52737 5.28896 8.48514 5.19211 8.42114 5.11011C8.35713 5.02812 8.27343 4.96364 8.17781 4.92268C8.08261 4.8812 7.97855 4.86415 7.87509 4.87308C7.77162 4.88201 7.67203 4.91664 7.58534 4.97382C7.50738 5.02496 7.42755 5.0736 7.34648 5.1185C7.32386 5.13087 7.29853 5.13745 7.27276 5.13768C7.24698 5.1379 7.22155 5.13175 7.19872 5.11978C7.17589 5.10781 7.15636 5.09039 7.14189 5.06906C7.12741 5.04773 7.11842 5.02315 7.11573 4.99752C7.00174 3.93598 6.57673 2.93177 5.89403 2.11094C5.21133 1.29011 4.30138 0.689228 3.27839 0.383727C3.16656 0.349469 3.04727 0.347881 2.93457 0.37915C2.82187 0.410419 2.72045 0.473242 2.64226 0.560221C2.56323 0.646322 2.50998 0.752898 2.48859 0.867797C2.4672 0.982696 2.47852 1.10129 2.52127 1.21007C2.81673 1.96216 2.85639 2.7906 2.63415 3.56748C2.62547 3.59753 2.60795 3.62428 2.58387 3.64425C2.55979 3.66421 2.53025 3.67647 2.49911 3.67943C2.46797 3.68239 2.43666 3.67591 2.40924 3.66084C2.38183 3.64577 2.35959 3.6228 2.3454 3.59492C2.30736 3.52133 2.27243 3.44587 2.23938 3.36978C2.19863 3.27443 2.13454 3.19086 2.05302 3.12678C1.9715 3.0627 1.87516 3.02015 1.77289 3.00307C1.67067 2.98481 1.56551 2.99235 1.46695 3.02503C1.36839 3.0577 1.27955 3.11446 1.20848 3.19017C0.736057 3.69952 0.395182 4.31655 0.215486 4.98762C0.0357903 5.65869 0.022711 6.3635 0.177385 7.04077C0.332059 7.71805 0.649806 8.3473 1.10301 8.87383C1.55621 9.40037 2.13115 9.80824 2.77785 10.062C3.42456 10.3158 4.12346 10.4078 4.8138 10.33C5.50414 10.2522 6.16504 10.007 6.73905 9.61562C7.31305 9.22429 7.7828 8.69868 8.10745 8.08449C8.4321 7.4703 8.60183 6.78612 8.60189 6.0914C8.6021 5.85695 8.5827 5.62289 8.54389 5.39166ZM4.3361 9.51464C4.11395 9.5137 3.89421 9.46851 3.68971 9.38172C3.48521 9.29493 3.30005 9.16827 3.14503 9.00913C2.99002 8.84999 2.86826 8.66157 2.78686 8.45487C2.70546 8.24816 2.66606 8.02731 2.67095 7.8052C2.67838 7.22304 2.84694 6.65432 3.15793 6.16212C3.46892 5.66993 3.91019 5.27351 4.43277 5.01685C4.46301 5.00223 4.49716 4.99777 4.53014 5.00413C4.56312 5.01048 4.59316 5.02732 4.6158 5.05213C4.63844 5.07694 4.65246 5.1084 4.65578 5.14182C4.65909 5.17525 4.65153 5.20885 4.63421 5.23762C4.50301 5.46573 4.423 5.71966 4.39974 5.98178C4.37648 6.2439 4.41052 6.50794 4.4995 6.7556C4.50885 6.77964 4.52401 6.80099 4.54364 6.81773C4.56326 6.83448 4.58674 6.84609 4.61195 6.85153C4.63717 6.85697 4.66334 6.85606 4.68813 6.8489C4.71291 6.84173 4.73553 6.82853 4.75395 6.81048C4.8551 6.71688 4.93432 6.6021 4.98595 6.47433C4.99366 6.45346 5.00576 6.43448 5.02141 6.41867C5.03707 6.40286 5.05593 6.39058 5.07673 6.38266C5.09752 6.37475 5.11977 6.37137 5.14198 6.37277C5.16419 6.37417 5.18584 6.3803 5.20548 6.39076C5.46351 6.53335 5.67544 6.7467 5.81631 7.00568C5.95718 7.26466 6.02113 7.5585 6.00064 7.8526C6.00471 8.0722 5.96442 8.29035 5.88218 8.494C5.79994 8.69766 5.67744 8.88261 5.52202 9.0378C5.3666 9.19299 5.18146 9.31521 4.97768 9.39714C4.77391 9.47908 4.55569 9.51904 4.3361 9.51464Z"/>
</svg>
