<svg width="9" height="11" viewBox="0 0 9 11" fill="none" xmlns="http://www.w3.org/2000/svg">
<path d="M8.54341 5.39166C8.52688 5.28896 8.48465 5.19211 8.42065 5.11011C8.35664 5.02812 8.27294 4.96364 8.17732 4.92268C8.08212 4.8812 7.97806 4.86415 7.8746 4.87308C7.77114 4.88201 7.67154 4.91664 7.58485 4.97382C7.50689 5.02496 7.42707 5.0736 7.34599 5.1185C7.32337 5.13087 7.29805 5.13745 7.27227 5.13768C7.24649 5.1379 7.22106 5.13175 7.19823 5.11978C7.1754 5.10781 7.15588 5.09039 7.1414 5.06906C7.12692 5.04773 7.11794 5.02315 7.11524 4.99752C7.00126 3.93598 6.57624 2.93177 5.89354 2.11094C5.21085 1.29011 4.30089 0.689228 3.2779 0.383727C3.16607 0.349469 3.04678 0.347881 2.93408 0.37915C2.82138 0.410419 2.71996 0.473242 2.64177 0.560221C2.56274 0.646322 2.50949 0.752898 2.4881 0.867797C2.46671 0.982696 2.47803 1.10129 2.52078 1.21007C2.81624 1.96216 2.85591 2.7906 2.63366 3.56748C2.62498 3.59753 2.60746 3.62428 2.58338 3.64425C2.5593 3.66421 2.52977 3.67647 2.49862 3.67943C2.46748 3.68239 2.43617 3.67591 2.40876 3.66084C2.38134 3.64577 2.3591 3.6228 2.34491 3.59492C2.30687 3.52133 2.27195 3.44587 2.23889 3.36978C2.19814 3.27443 2.13405 3.19086 2.05253 3.12678C1.97101 3.0627 1.87468 3.02015 1.7724 3.00307C1.67018 2.98481 1.56502 2.99235 1.46646 3.02503C1.3679 3.0577 1.27906 3.11446 1.20799 3.19017C0.735568 3.69952 0.394694 4.31655 0.214998 4.98762C0.035302 5.65869 0.0222227 6.3635 0.176897 7.04077C0.331571 7.71805 0.649318 8.3473 1.10252 8.87383C1.55572 9.40037 2.13066 9.80824 2.77736 10.062C3.42407 10.3158 4.12297 10.4078 4.81331 10.33C5.50365 10.2522 6.16455 10.007 6.73856 9.61562C7.31256 9.22429 7.78231 8.69868 8.10696 8.08449C8.43161 7.4703 8.60134 6.78612 8.60141 6.0914C8.60162 5.85695 8.58221 5.62289 8.54341 5.39166ZM4.33562 9.51464C4.11346 9.5137 3.89372 9.46851 3.68922 9.38172C3.48472 9.29493 3.29956 9.16827 3.14454 9.00913C2.98953 8.84999 2.86777 8.66157 2.78637 8.45487C2.70497 8.24816 2.66557 8.02731 2.67046 7.8052C2.67789 7.22304 2.84645 6.65432 3.15744 6.16212C3.46843 5.66993 3.9097 5.27351 4.43228 5.01685C4.46252 5.00223 4.49667 4.99777 4.52965 5.00413C4.56263 5.01048 4.59268 5.02732 4.61531 5.05213C4.63795 5.07694 4.65197 5.1084 4.65529 5.14182C4.65861 5.17525 4.65104 5.20885 4.63372 5.23762C4.50252 5.46573 4.42251 5.71966 4.39925 5.98178C4.37599 6.2439 4.41003 6.50794 4.49901 6.7556C4.50836 6.77964 4.52352 6.80099 4.54315 6.81773C4.56277 6.83448 4.58625 6.84609 4.61146 6.85153C4.63668 6.85697 4.66286 6.85606 4.68764 6.8489C4.71242 6.84173 4.73504 6.82853 4.75346 6.81048C4.85461 6.71688 4.93383 6.6021 4.98546 6.47433C4.99318 6.45346 5.00527 6.43448 5.02093 6.41867C5.03658 6.40286 5.05544 6.39058 5.07624 6.38266C5.09703 6.37475 5.11928 6.37137 5.14149 6.37277C5.1637 6.37417 5.18535 6.3803 5.20499 6.39076C5.46303 6.53335 5.67495 6.7467 5.81582 7.00568C5.9567 7.26466 6.02065 7.5585 6.00015 7.8526C6.00422 8.0722 5.96393 8.29035 5.88169 8.494C5.79945 8.69766 5.67695 8.88261 5.52153 9.0378C5.36611 9.19299 5.18097 9.31521 4.97719 9.39714C4.77342 9.47908 4.5552 9.51904 4.33562 9.51464Z" fill="#EBEBEB"/>
</svg>
