<svg width="21" height="24" viewBox="0 0 21 24" fill="none" xmlns="http://www.w3.org/2000/svg">
<circle cx="10.5" cy="10.5" r="10.5" fill="#2266E2"/>
<g filter="url(#filter0_d_6052_22468)">
<path d="M8.45362 12.701C8.11711 12.1976 7.9375 11.6057 7.9375 11.0003C7.93842 10.1886 8.26137 9.41052 8.8355 8.83661C9.40962 8.26271 10.188 7.93988 11 7.93896C11.6057 7.93896 12.1978 8.11851 12.7014 8.45489C13.205 8.79127 13.5976 9.26937 13.8293 9.82875C14.0611 10.3881 14.1218 11.0037 14.0036 11.5975C13.8855 12.1913 13.5938 12.7368 13.1655 13.1649C12.7372 13.5931 12.1915 13.8846 11.5974 14.0027C11.0034 14.1209 10.3876 14.0602 9.82802 13.8285C9.26843 13.5968 8.79013 13.2045 8.45362 12.701Z" fill="white"/>
<path d="M7.19189 14.2309C7.20848 14.2505 7.21759 14.2754 7.21759 14.3011C7.21759 14.3268 7.20848 14.3516 7.19189 14.3712L6.99679 14.6027C6.96085 14.6443 6.93685 14.6948 6.92731 14.7488C6.91778 14.8029 6.92307 14.8586 6.94263 14.9099C6.96219 14.9612 6.99529 15.0062 7.03841 15.0403C7.08153 15.0743 7.13307 15.096 7.18754 15.1031L8.43461 15.2807C8.48161 15.3009 8.53207 15.3118 8.58321 15.3129C8.59712 15.3129 8.61059 15.3094 8.62666 15.3081L8.71574 15.3207C8.73015 15.3226 8.74466 15.3236 8.75919 15.3237C8.80758 15.3241 8.85538 15.313 8.89859 15.2912C8.94181 15.2695 8.97921 15.2377 9.00768 15.1986C9.03615 15.1595 9.05487 15.1141 9.06229 15.0663C9.0697 15.0185 9.0656 14.9696 9.05032 14.9237L8.57539 13.4573C8.5592 13.4048 8.52909 13.3577 8.48824 13.3209C8.4474 13.2842 8.39735 13.2592 8.34342 13.2486C8.28949 13.238 8.23369 13.2422 8.18196 13.2607C8.13023 13.2793 8.0845 13.3115 8.04962 13.354L7.87017 13.5668C7.85969 13.5793 7.84658 13.5893 7.83178 13.5961C7.81699 13.603 7.80087 13.6064 7.78457 13.6063C7.76823 13.6058 7.75222 13.6016 7.73771 13.5941C7.7232 13.5866 7.71056 13.5759 7.70071 13.5629C7.21878 12.9454 6.92021 12.2049 6.83907 11.4259C6.75793 10.6469 6.89748 9.86086 7.2418 9.15735C7.58613 8.45385 8.12135 7.86127 8.7864 7.44722C9.45146 7.03318 10.2196 6.81435 11.003 6.81571C11.3005 6.81585 11.5972 6.84715 11.8882 6.9091C11.9412 6.92204 11.9963 6.92422 12.0502 6.91549C12.1041 6.90676 12.1557 6.88731 12.2019 6.85828C12.2482 6.82926 12.2881 6.79125 12.3194 6.74651C12.3507 6.70178 12.3726 6.65122 12.384 6.59784C12.3954 6.54446 12.3959 6.48934 12.3856 6.43574C12.3753 6.38215 12.3543 6.33117 12.3239 6.28583C12.2935 6.24049 12.2543 6.20171 12.2086 6.17179C12.163 6.14187 12.1118 6.12141 12.0581 6.11163C11.3283 5.95493 10.5728 5.9633 9.84675 6.13613C9.12069 6.30896 8.44247 6.64187 7.86173 7.11051C7.28098 7.57915 6.8124 8.17165 6.49028 8.84466C6.16816 9.51767 6.00065 10.2542 6 11.0002C5.99881 12.1848 6.42158 13.3307 7.19189 14.2309V14.2309ZM14.8081 7.76911C14.7915 7.7495 14.7824 7.72465 14.7824 7.69896C14.7824 7.67327 14.7915 7.64842 14.8081 7.62881L15.0032 7.3973C15.039 7.35576 15.0629 7.30531 15.0724 7.25129C15.0819 7.19728 15.0765 7.14171 15.057 7.09047C15.0374 7.03923 15.0044 6.99423 14.9613 6.96023C14.9183 6.92624 14.8669 6.90452 14.8125 6.89737L13.5458 6.71668C13.4976 6.69987 13.4465 6.6925 13.3955 6.69496L13.2864 6.67976C13.2349 6.67185 13.1822 6.67733 13.1334 6.69565C13.0846 6.71397 13.0413 6.74453 13.0077 6.78439C12.9741 6.82426 12.9513 6.87208 12.9415 6.92328C12.9318 6.97448 12.9353 7.02733 12.9519 7.07676L13.4246 8.54312C13.4415 8.59507 13.4719 8.64157 13.5128 8.67784C13.5537 8.71411 13.6035 8.73882 13.6571 8.74943C13.6765 8.75324 13.6963 8.75513 13.7162 8.75508C13.7608 8.75511 13.8048 8.74541 13.8453 8.72666C13.8857 8.7079 13.9216 8.68054 13.9504 8.64649L14.1298 8.43366C14.1402 8.42127 14.1533 8.41137 14.168 8.40468C14.1827 8.398 14.1988 8.3947 14.215 8.39503C14.2311 8.39537 14.247 8.39932 14.2615 8.40661C14.2759 8.4139 14.2885 8.42433 14.2984 8.43714C14.7804 9.05429 15.0791 9.79442 15.1605 10.5731C15.2419 11.3518 15.1027 12.1377 14.7588 12.8411C14.4149 13.5445 13.8801 14.1371 13.2155 14.5514C12.5509 14.9656 11.7832 15.1848 11 15.1839C10.7025 15.184 10.4058 15.1527 10.1149 15.0905C10.062 15.078 10.0071 15.0761 9.95341 15.0851C9.89976 15.094 9.84844 15.1136 9.80246 15.1427C9.75649 15.1717 9.71678 15.2097 9.68567 15.2543C9.65456 15.2989 9.63268 15.3493 9.62131 15.4024C9.60993 15.4556 9.6093 15.5105 9.61944 15.5639C9.62958 15.6173 9.6503 15.6682 9.68037 15.7135C9.71044 15.7588 9.74926 15.7977 9.79455 15.8278C9.83984 15.8579 9.89069 15.8786 9.94412 15.8888C10.6737 16.0452 11.429 16.0365 12.1548 15.8635C12.8805 15.6905 13.5585 15.3575 14.139 14.8889C14.7194 14.4203 15.1878 13.828 15.5098 13.1552C15.8318 12.4823 15.9993 11.7461 16 11.0002C16.0013 9.81551 15.5785 8.66942 14.8081 7.76911V7.76911Z" fill="white"/>
</g>
<defs>
<filter id="filter0_d_6052_22468" x="2" y="6" width="18" height="18" filterUnits="userSpaceOnUse" color-interpolation-filters="sRGB">
<feFlood flood-opacity="0" result="BackgroundImageFix"/>
<feColorMatrix in="SourceAlpha" type="matrix" values="0 0 0 0 0 0 0 0 0 0 0 0 0 0 0 0 0 0 127 0" result="hardAlpha"/>
<feOffset dy="4"/>
<feGaussianBlur stdDeviation="2"/>
<feColorMatrix type="matrix" values="0 0 0 0 0 0 0 0 0 0 0 0 0 0 0 0 0 0 0.05 0"/>
<feBlend mode="normal" in2="BackgroundImageFix" result="effect1_dropShadow_6052_22468"/>
<feBlend mode="normal" in="SourceGraphic" in2="effect1_dropShadow_6052_22468" result="shape"/>
</filter>
</defs>
</svg>
