<svg fill="#FFC117" width="9" height="11" viewBox="0 0 9 11" xmlns="http://www.w3.org/2000/svg">
<path d="M8.16348 2.71626L4.71162 0.743552C4.58876 0.673518 4.44978 0.636688 4.30836 0.636688C4.16694 0.636688 4.02796 0.673518 3.9051 0.743552L0.452459 2.71626C0.328164 2.78739 0.224846 2.89006 0.152945 3.0139C0.0810433 3.13775 0.043107 3.27838 0.0429688 3.42158V7.353C0.043107 7.4962 0.0810433 7.63683 0.152945 7.76068C0.224846 7.88452 0.328164 7.98719 0.452459 8.05832L3.90198 10.0279C4.02484 10.0979 4.16382 10.1348 4.30524 10.1348C4.44666 10.1348 4.58564 10.0979 4.70851 10.0279L8.16036 8.0552C8.28478 7.98474 8.38843 7.88273 8.46087 7.75945C8.5333 7.63617 8.57197 7.49598 8.57297 7.353V3.42158C8.57283 3.27838 8.53489 3.13775 8.46299 3.0139C8.39109 2.89006 8.28777 2.78739 8.16348 2.71626Z"/>
</svg>
