<svg width="12" height="12" viewBox="0 0 12 12" fill="none" xmlns="http://www.w3.org/2000/svg">
<path d="M11 1.5355C11.0663 1.5355 11.1299 1.50916 11.1768 1.46228C11.2237 1.41539 11.25 1.3518 11.25 1.2855V1.0355C11.25 0.770283 11.1446 0.515929 10.9571 0.328393C10.7696 0.140856 10.5152 0.0354996 10.25 0.0354996H1.75C1.48478 0.0354996 1.23043 0.140856 1.04289 0.328393C0.855357 0.515929 0.75 0.770283 0.75 1.0355V1.2855C0.75 1.3518 0.776339 1.41539 0.823223 1.46228C0.870107 1.50916 0.933696 1.5355 1 1.5355H11ZM1 2.2855C0.933696 2.2855 0.870107 2.31184 0.823223 2.35872C0.776339 2.40561 0.75 2.4692 0.75 2.5355V3.668C0.751521 5.32797 1.19239 6.95797 2.02781 8.3924C2.86322 9.82684 4.06343 11.0146 5.5065 11.835C5.65721 11.9199 5.82727 11.9645 6.00025 11.9645C6.17323 11.9645 6.34329 11.9199 6.494 11.835C7.93691 11.0144 9.13696 9.82665 9.97228 8.39224C10.8076 6.95783 11.2484 5.3279 11.25 3.668V2.5355C11.25 2.4692 11.2237 2.40561 11.1768 2.35872C11.1299 2.31184 11.0663 2.2855 11 2.2855H1ZM3.32 5.0465C3.33543 5.0061 3.36288 4.97141 3.39864 4.94709C3.4344 4.92277 3.47676 4.91 3.52 4.9105H4.8885C4.93721 4.91057 4.98488 4.89641 5.02565 4.86977C5.06642 4.84312 5.09852 4.80514 5.118 4.7605L5.8065 3.164C5.82282 3.12616 5.84987 3.09392 5.8843 3.07127C5.91873 3.04863 5.95904 3.03656 6.00025 3.03656C6.04146 3.03656 6.08177 3.04863 6.1162 3.07127C6.15063 3.09392 6.17768 3.12616 6.194 3.164L6.8825 4.7605C6.90198 4.80514 6.93408 4.84312 6.97485 4.86977C7.01562 4.89641 7.06329 4.91057 7.112 4.9105H8.483C8.52577 4.91048 8.56754 4.92346 8.60276 4.94772C8.63799 4.97198 8.66501 5.00637 8.68025 5.04633C8.69548 5.08629 8.69822 5.12994 8.68808 5.1715C8.67795 5.21305 8.65543 5.25054 8.6235 5.279L7.468 6.309C7.42865 6.34403 7.40138 6.39059 7.39006 6.44204C7.37875 6.49349 7.38398 6.5472 7.405 6.5955L8.081 8.15C8.0988 8.19053 8.10337 8.23564 8.09406 8.27891C8.08474 8.32219 8.06203 8.36142 8.02914 8.39105C7.99625 8.42067 7.95486 8.43917 7.91085 8.44392C7.86684 8.44867 7.82245 8.43942 7.784 8.4175L6.123 7.482C6.08554 7.46088 6.04326 7.44979 6.00025 7.44979C5.95724 7.44979 5.91497 7.46088 5.8775 7.482L4.2165 8.419C4.17798 8.44068 4.13362 8.44972 4.08969 8.44483C4.04576 8.43995 4.00447 8.42139 3.97165 8.39178C3.93883 8.36216 3.91614 8.32299 3.90679 8.27979C3.89743 8.23659 3.90188 8.19154 3.9195 8.151L4.5955 6.5955C4.61652 6.5472 4.62175 6.49349 4.61044 6.44204C4.59912 6.39059 4.57185 6.34403 4.5325 6.309L3.377 5.279C3.34507 5.25058 3.32252 5.21313 3.31234 5.17162C3.30216 5.1301 3.30483 5.08647 3.32 5.0465Z" fill="#717171"/>
</svg>
