<svg width="46" height="46" viewBox="0 0 46 46" fill="none" xmlns="http://www.w3.org/2000/svg">
<circle cx="23" cy="23" r="23" fill="#5ABAFF"/>
<path d="M34.8498 11.0796C34.773 11.0155 34.6802 10.9737 34.5813 10.9586C34.4825 10.9436 34.3814 10.9559 34.289 10.9942L9.09856 21.3989C8.99787 21.4409 8.91202 21.512 8.85201 21.6031C8.792 21.6942 8.76057 21.8012 8.76175 21.9103C8.76293 22.0194 8.79666 22.1256 8.85862 22.2154C8.92058 22.3052 9.00794 22.3744 9.10951 22.4142L16.0446 25.1074C16.1285 25.1401 16.2191 25.1516 16.3085 25.1409C16.3979 25.1302 16.4833 25.0977 16.5571 25.0461L25.7571 18.5031C25.8697 18.4217 26.0091 18.3862 26.1469 18.4036C26.2847 18.4211 26.4108 18.4904 26.4995 18.5973C26.5882 18.7043 26.6329 18.8409 26.6246 18.9796C26.6163 19.1183 26.5556 19.2487 26.4548 19.3443L18.7881 26.7317C18.7351 26.7827 18.693 26.844 18.6642 26.9117C18.6354 26.9795 18.6206 27.0523 18.6206 27.1259V34.5002C18.6209 34.6202 18.6607 34.7368 18.7338 34.832C18.8069 34.9273 18.9092 34.9958 19.0251 35.0272C19.141 35.0586 19.2639 35.051 19.3751 35.0056C19.4862 34.9603 19.5794 34.8797 19.6402 34.7762L23.1088 28.8345C23.145 28.7729 23.2038 28.7278 23.2727 28.7088C23.3416 28.6897 23.4152 28.6983 23.4779 28.7327L29.8588 32.2374C29.9335 32.2786 30.0168 32.3018 30.1021 32.305C30.1873 32.3083 30.2722 32.2916 30.3498 32.2563C30.4275 32.221 30.4958 32.168 30.5494 32.1016C30.6029 32.0352 30.6402 31.9572 30.6583 31.8738L35.0393 11.6119C35.0581 11.5143 35.0504 11.4135 35.0171 11.3199C34.9838 11.2263 34.926 11.1433 34.8498 11.0796Z" fill="white"/>
</svg>
