<svg width="18" height="18" viewBox="0 0 18 18" fill="none" xmlns="http://www.w3.org/2000/svg">
<path d="M9 18C10.78 18 12.5201 17.4722 14.0001 16.4832C15.4802 15.4943 16.6337 14.0887 17.3149 12.4442C17.9961 10.7996 18.1743 8.99002 17.8271 7.24419C17.4798 5.49836 16.6226 3.89471 15.364 2.63604C14.1053 1.37737 12.5016 0.520203 10.7558 0.172936C9.00998 -0.17433 7.20038 0.0038996 5.55585 0.685088C3.91131 1.36628 2.50571 2.51983 1.51677 3.99987C0.52784 5.47991 0 7.21997 0 9C0.00269279 11.3861 0.951769 13.6737 2.63901 15.361C4.32626 17.0482 6.61388 17.9973 9 18ZM4.30435 8.21739H8.02174C8.07363 8.21739 8.12339 8.19678 8.16008 8.16009C8.19677 8.1234 8.21739 8.07363 8.21739 8.02174V4.30435C8.21739 4.09679 8.29984 3.89773 8.44661 3.75096C8.59338 3.6042 8.79244 3.52174 9 3.52174C9.20756 3.52174 9.40662 3.6042 9.55338 3.75096C9.70015 3.89773 9.78261 4.09679 9.78261 4.30435V8.02174C9.78261 8.07363 9.80322 8.1234 9.83991 8.16009C9.8766 8.19678 9.92637 8.21739 9.97826 8.21739H13.6956C13.9032 8.21739 14.1023 8.29985 14.249 8.44661C14.3958 8.59338 14.4783 8.79244 14.4783 9C14.4783 9.20756 14.3958 9.40662 14.249 9.55339C14.1023 9.70016 13.9032 9.78261 13.6956 9.78261H9.97826C9.92637 9.78261 9.8766 9.80322 9.83991 9.83992C9.80322 9.87661 9.78261 9.92637 9.78261 9.97826V13.6957C9.78261 13.9032 9.70015 14.1023 9.55338 14.249C9.40662 14.3958 9.20756 14.4783 9 14.4783C8.79244 14.4783 8.59338 14.3958 8.44661 14.249C8.29984 14.1023 8.21739 13.9032 8.21739 13.6957V9.97826C8.21739 9.92637 8.19677 9.87661 8.16008 9.83992C8.12339 9.80322 8.07363 9.78261 8.02174 9.78261H4.30435C4.09679 9.78261 3.89773 9.70016 3.75096 9.55339C3.60419 9.40662 3.52174 9.20756 3.52174 9C3.52174 8.79244 3.60419 8.59338 3.75096 8.44661C3.89773 8.29985 4.09679 8.21739 4.30435 8.21739Z" fill="#5ABAFF"/>
</svg>
