<svg width="12" height="12" viewBox="0 0 12 12" fill="none" xmlns="http://www.w3.org/2000/svg">
<g clip-path="url(#clip0)">
<path d="M11.184 4.24999H10.956C10.9279 4.25015 10.9005 4.24073 10.8784 4.22329C10.8563 4.20584 10.8409 4.1814 10.8345 4.15399C10.5737 3.13584 9.93797 2.25379 9.0545 1.68449C9.03198 1.66949 9.01492 1.64759 9.00591 1.62208C8.99689 1.59656 8.9964 1.56881 9.00451 1.54299C9.08256 1.30247 9.22016 1.08558 9.4045 0.91249C9.46944 0.851146 9.51676 0.773525 9.54154 0.687699C9.56631 0.601873 9.56764 0.510977 9.54539 0.424463C9.52314 0.337948 9.47811 0.258976 9.415 0.195758C9.35188 0.13254 9.27298 0.0873852 9.1865 0.0649896C8.80324 -0.0348449 8.39894 -0.0184607 8.02501 0.112059C7.65108 0.242579 7.3244 0.48134 7.08651 0.79799C7.07259 0.816456 7.0538 0.830681 7.03225 0.839071C7.0107 0.84746 6.98725 0.849683 6.96451 0.84549C6.18929 0.696901 5.39138 0.714321 4.62339 0.896601C3.8554 1.07888 3.13477 1.42188 2.50901 1.90299C1.7763 2.46731 1.25709 3.26385 1.03651 4.16199C1.03232 4.18134 1.03281 4.20141 1.03793 4.22053C1.04305 4.23965 1.05266 4.25728 1.06596 4.27194C1.07925 4.28661 1.09586 4.29789 1.11439 4.30486C1.13292 4.31182 1.15284 4.31427 1.17251 4.31199C1.63542 4.26439 2.1007 4.24369 2.56601 4.24999C3.45501 4.24999 5.81601 4.24999 5.81601 5.49999V9.12199C5.81601 9.15506 5.82911 9.18677 5.85244 9.2102C5.87577 9.23363 5.90744 9.24686 5.94051 9.24699C6.49066 9.2489 7.03803 9.16868 7.56451 9.00899C7.5803 9.00428 7.59686 9.00274 7.61325 9.00445C7.62964 9.00617 7.64553 9.01111 7.66001 9.01899C7.68909 9.03513 7.71064 9.06207 7.72001 9.09399L7.96351 9.93599C8.00867 10.0921 8.1033 10.2292 8.23314 10.3269C8.36299 10.4245 8.52104 10.4774 8.68351 10.4775C8.75425 10.4776 8.82464 10.4675 8.89251 10.4475C9.0834 10.3921 9.24449 10.2632 9.3404 10.0891C9.43631 9.915 9.45919 9.70994 9.40401 9.51899L9.08 8.39999C9.0727 8.37505 9.07335 8.34845 9.08186 8.3239C9.09037 8.29935 9.10633 8.27805 9.1275 8.26299C9.67311 7.88558 10.1265 7.38995 10.454 6.81299C10.4649 6.79347 10.4807 6.77719 10.5 6.76586C10.5192 6.75452 10.5412 6.74852 10.5635 6.74849H11.184C11.3829 6.74849 11.5737 6.66947 11.7143 6.52882C11.855 6.38817 11.934 6.1974 11.934 5.99849V4.99999C11.934 4.80108 11.855 4.61031 11.7143 4.46966C11.5737 4.32901 11.3829 4.24999 11.184 4.24999ZM8.43401 4.24999C8.43401 4.1511 8.46333 4.05443 8.51827 3.9722C8.57321 3.88998 8.6513 3.82589 8.74266 3.78805C8.83403 3.75021 8.93456 3.7403 9.03155 3.7596C9.12854 3.77889 9.21763 3.82651 9.28756 3.89644C9.35748 3.96636 9.40511 4.05545 9.4244 4.15244C9.44369 4.24944 9.43379 4.34997 9.39594 4.44133C9.3581 4.53269 9.29401 4.61078 9.21179 4.66572C9.12957 4.72067 9.0329 4.74999 8.93401 4.74999C8.8014 4.74999 8.67422 4.69731 8.58045 4.60354C8.48668 4.50978 8.43401 4.3826 8.43401 4.24999ZM3.90901 3.29999C3.82946 3.35959 3.72952 3.38521 3.63111 3.37125C3.5327 3.35728 3.44384 3.30487 3.38401 3.22549C3.35436 3.18611 3.33276 3.14127 3.32045 3.09353C3.30815 3.04579 3.30538 2.9961 3.3123 2.94729C3.31922 2.89848 3.33569 2.85152 3.36078 2.80908C3.38587 2.76665 3.41908 2.72958 3.45851 2.69999C4.24733 2.1064 5.22361 1.81689 6.20851 1.88449C6.25779 1.88767 6.30596 1.90054 6.35025 1.92239C6.39455 1.94423 6.43409 1.97461 6.46661 2.01177C6.49913 2.04894 6.52399 2.09217 6.53976 2.13897C6.55553 2.18577 6.5619 2.23522 6.55851 2.28449C6.55008 2.38325 6.50369 2.4749 6.4291 2.54017C6.35451 2.60544 6.25751 2.63925 6.15851 2.63449C5.3533 2.58097 4.55548 2.817 3.90901 3.29999Z" fill="#717171"/>
<path d="M5.00004 7.84698C5.02009 7.83631 5.03686 7.82039 5.04857 7.80093C5.06028 7.78147 5.06649 7.7592 5.06654 7.73648V6.54998C5.06655 6.52999 5.06177 6.51029 5.0526 6.49253C5.04343 6.47477 5.03013 6.45947 5.01382 6.44791C4.99751 6.43635 4.97866 6.42887 4.95887 6.4261C4.93907 6.42333 4.9189 6.42535 4.90004 6.43198C4.14267 6.65486 3.35592 6.76174 2.56654 6.74898C1.77733 6.7617 0.990744 6.65482 0.23354 6.43198C0.214655 6.42537 0.194462 6.42336 0.174644 6.42614C0.154827 6.42891 0.13596 6.43638 0.119617 6.44793C0.103275 6.45948 0.0899303 6.47476 0.0806973 6.49252C0.0714642 6.51027 0.0666101 6.52997 0.06654 6.54998V7.73698C0.0666545 7.75981 0.0729427 7.78218 0.0847381 7.80172C0.0965336 7.82126 0.113397 7.83725 0.13354 7.84798C0.907381 8.15095 1.73643 8.28725 2.56654 8.24798C3.39696 8.28839 4.22648 8.1517 5.00004 7.84698ZM2.56604 10.75C1.77683 10.7627 0.990244 10.6558 0.23304 10.433C0.214155 10.4264 0.193962 10.4244 0.174144 10.4271C0.154327 10.4299 0.13546 10.4374 0.119117 10.4489C0.102775 10.4605 0.0894303 10.4758 0.0801973 10.4935C0.0709642 10.5113 0.0661101 10.531 0.06604 10.551V11.5C0.06604 11.777 1.18554 12 2.56604 12C3.94654 12 5.06604 11.777 5.06604 11.5V10.55C5.06605 10.53 5.06127 10.5103 5.0521 10.4925C5.04293 10.4748 5.02963 10.4595 5.01332 10.4479C4.99701 10.4363 4.97816 10.4289 4.95837 10.4261C4.93857 10.4233 4.9184 10.4253 4.89954 10.432C4.14222 10.6552 3.35547 10.7624 2.56604 10.75ZM0.06604 5.49998V5.73798C0.0661545 5.76081 0.0724427 5.78318 0.0842381 5.80272C0.0960336 5.82226 0.112897 5.83825 0.13304 5.84898C0.906881 6.15195 1.73593 6.28825 2.56604 6.24898C3.3967 6.28914 4.2264 6.15211 5.00004 5.84698C5.02009 5.83631 5.03686 5.82039 5.04857 5.80093C5.06028 5.78147 5.06649 5.7592 5.06654 5.73648V5.49998C5.06654 5.22448 3.94754 4.99998 2.56654 4.99998C1.18554 4.99998 0.06604 5.22448 0.06604 5.49998ZM5.06604 8.54998C5.06605 8.52999 5.06127 8.51029 5.0521 8.49253C5.04293 8.47477 5.02963 8.45947 5.01332 8.44791C4.99701 8.43635 4.97816 8.42887 4.95837 8.4261C4.93857 8.42333 4.9184 8.42535 4.89954 8.43198C4.14217 8.65486 3.35542 8.76174 2.56604 8.74898C1.77683 8.7617 0.990244 8.65482 0.23304 8.43198C0.214155 8.42537 0.193962 8.42336 0.174144 8.42614C0.154327 8.42891 0.13546 8.43638 0.119117 8.44793C0.102775 8.45948 0.0894303 8.47476 0.0801973 8.49252C0.0709642 8.51027 0.0661101 8.52997 0.06604 8.54998V9.73698C0.0661545 9.75981 0.0724427 9.78218 0.0842381 9.80172C0.0960336 9.82126 0.112897 9.83725 0.13304 9.84798C0.906881 10.1509 1.73593 10.2873 2.56604 10.248C3.39663 10.2885 4.22633 10.1518 5.00004 9.84698C5.02009 9.83631 5.03686 9.82039 5.04857 9.80093C5.06028 9.78147 5.06649 9.7592 5.06654 9.73648L5.06604 8.54998Z" fill="#717171"/>
</g>
<defs>
<clipPath id="clip0">
<rect width="12" height="12" fill="white"/>
</clipPath>
</defs>
</svg>
