<svg width="70" height="70" viewBox="0 0 70 70" fill="none" xmlns="http://www.w3.org/2000/svg">
<path d="M34.9994 10.606C30.1748 10.606 25.4584 12.0366 21.4469 14.7171C17.4353 17.3975 14.3087 21.2073 12.4624 25.6647C10.616 30.1222 10.133 35.027 11.0742 39.7589C12.0154 44.4909 14.3387 48.8375 17.7503 52.249C21.1619 55.6606 25.5084 57.9839 30.2404 58.9251C34.9724 59.8664 39.8772 59.3833 44.3346 57.537C48.792 55.6906 52.6018 52.564 55.2822 48.5524C57.9627 44.5409 59.3934 39.8246 59.3934 34.9999C59.3858 28.5325 56.8133 22.3322 52.2402 17.7591C47.6671 13.186 41.4668 10.6135 34.9994 10.606V10.606ZM49.0808 27.2751L35.1661 46.1581C35.0018 46.3761 34.7958 46.5591 34.56 46.6966C34.3242 46.834 34.0634 46.9232 33.7928 46.9587C33.5222 46.9943 33.2472 46.9756 32.9839 46.9038C32.7206 46.8319 32.4742 46.7084 32.2592 46.5403L22.3227 38.596C22.1142 38.4291 21.9406 38.2228 21.8118 37.9889C21.6831 37.755 21.6016 37.498 21.5722 37.2326C21.5127 36.6966 21.6686 36.1589 22.0056 35.7378C22.3425 35.3167 22.833 35.0468 23.369 34.9873C23.905 34.9278 24.4427 35.0837 24.8637 35.4207L33.1495 42.0497L45.808 24.8703C45.9604 24.6416 46.1575 24.4462 46.3876 24.2959C46.6176 24.1456 46.8757 24.0435 47.1464 23.9957C47.417 23.948 47.6945 23.9556 47.9621 24.0181C48.2297 24.0806 48.4818 24.1967 48.7033 24.3595C48.9247 24.5222 49.1109 24.7281 49.2505 24.9648C49.3901 25.2015 49.4803 25.464 49.5156 25.7366C49.5509 26.0091 49.5305 26.2859 49.4558 26.5504C49.3811 26.8148 49.2535 27.0614 49.0808 27.2751Z" fill="#5FCF64"/>
</svg>
