<svg width="16" height="16" viewBox="0 0 16 16" fill="none" xmlns="http://www.w3.org/2000/svg">
<g opacity="0.51" clip-path="url(#clip0_14381_115058)">
<path d="M15.9253 3.88808C15.9031 3.87861 15.8784 3.87603 15.8547 3.88067C15.8309 3.8853 15.8091 3.89694 15.792 3.91408L9.294 10.4107C8.95021 10.7543 8.48405 10.9474 7.998 10.9474C7.51195 10.9474 7.04579 10.7543 6.702 10.4107L0.206668 3.91408C0.189673 3.89678 0.167836 3.88503 0.144035 3.88039C0.120233 3.87575 0.0955836 3.87843 0.0733346 3.88808C0.0514725 3.89749 0.0328631 3.91313 0.0198236 3.93305C0.00678413 3.95296 -0.000109405 3.97627 1.31304e-06 4.00008V12.0001C1.31304e-06 12.3537 0.140477 12.6928 0.390526 12.9429C0.640574 13.1929 0.979713 13.3334 1.33333 13.3334H14.6667C15.0203 13.3334 15.3594 13.1929 15.6095 12.9429C15.8595 12.6928 16 12.3537 16 12.0001V4.00008C16.0001 3.9761 15.993 3.95264 15.9797 3.9327C15.9664 3.91275 15.9475 3.89721 15.9253 3.88808Z" fill="#717171"/>
<path d="M7.40976 9.70408C7.56622 9.86008 7.77815 9.94769 7.99909 9.94769C8.22004 9.94769 8.43197 9.86008 8.58843 9.70408L15.0458 3.24675C15.0895 3.20303 15.1202 3.14802 15.1344 3.08786C15.1487 3.0277 15.1459 2.96476 15.1264 2.90608C15.0531 2.68675 14.8491 2.66675 14.6664 2.66675H1.33309C1.14976 2.66675 0.944428 2.68675 0.872428 2.90608C0.852959 2.96476 0.850193 3.0277 0.864438 3.08786C0.878684 3.14802 0.909379 3.20303 0.953095 3.24675L7.40976 9.70408Z" fill="#717171"/>
</g>
<defs>
<clipPath id="clip0_14381_115058">
<rect width="16" height="16" fill="white"/>
</clipPath>
</defs>
</svg>
