<svg width="16" height="16" viewBox="0 0 16 16" fill="none" xmlns="http://www.w3.org/2000/svg">
<g opacity="0.51">
<path d="M7.10087 11.7148L5.50571 13.3094C5.19633 13.605 4.78489 13.77 4.35698 13.77C3.92907 13.77 3.51763 13.605 3.20825 13.3094L2.68838 12.7901C2.38384 12.4855 2.21275 12.0724 2.21275 11.6417C2.21275 11.211 2.38384 10.7979 2.68838 10.4933L6.06871 7.11293C6.37349 6.80849 6.78665 6.63749 7.21744 6.63749C7.64822 6.63749 8.06138 6.80849 8.36616 7.11293L8.88662 7.6328C8.99621 7.74239 9.14485 7.80396 9.29983 7.80396C9.45482 7.80396 9.60346 7.74239 9.71305 7.6328C9.82264 7.52321 9.88421 7.37457 9.88421 7.21958C9.88421 7.0646 9.82264 6.91596 9.71305 6.80637L9.1926 6.2865C8.66905 5.76365 7.95939 5.46997 7.21947 5.46997C6.47956 5.46997 5.7699 5.76365 5.24636 6.2865L1.86603 9.66682C1.60694 9.92589 1.40143 10.2335 1.26121 10.572C1.121 10.9105 1.04883 11.2733 1.04883 11.6397C1.04883 12.006 1.121 12.3688 1.26121 12.7073C1.40143 13.0458 1.60694 13.3534 1.86603 13.6125L2.3859 14.1318C2.6449 14.3911 2.95248 14.5968 3.29104 14.7371C3.62961 14.8775 3.99252 14.9497 4.35902 14.9497C4.72552 14.9497 5.08843 14.8775 5.42699 14.7371C5.76556 14.5968 6.07314 14.3911 6.33214 14.1318L7.92672 12.5378C7.98087 12.4837 8.02383 12.4194 8.05315 12.3487C8.08247 12.278 8.09758 12.2022 8.0976 12.1256C8.09763 12.0491 8.08258 11.9733 8.05331 11.9025C8.02404 11.8318 7.98112 11.7675 7.92701 11.7134C7.8729 11.6592 7.80865 11.6163 7.73794 11.5869C7.66723 11.5576 7.59143 11.5425 7.51488 11.5425C7.43833 11.5425 7.36252 11.5575 7.29178 11.5868C7.22105 11.6161 7.15677 11.659 7.10262 11.7131L7.10087 11.7148Z" fill="#717171"/>
<path d="M14.1339 2.38351L13.6141 1.86364C13.0899 1.34224 12.3806 1.04956 11.6412 1.04956C10.9019 1.04956 10.1926 1.34224 9.6684 1.86364L7.97532 3.5538C7.86916 3.66372 7.81041 3.81094 7.81174 3.96375C7.81307 4.11656 7.87436 4.26274 7.98242 4.3708C8.09048 4.47886 8.23666 4.54015 8.38947 4.54148C8.54228 4.54281 8.6895 4.48406 8.79942 4.3779L10.4896 2.68774C10.7944 2.38362 11.2074 2.21283 11.638 2.21283C12.0686 2.21283 12.4816 2.38362 12.7865 2.68774L13.3069 3.20819C13.4579 3.35899 13.5776 3.53806 13.6593 3.73517C13.741 3.93227 13.7831 4.14355 13.7831 4.35692C13.7831 4.57029 13.741 4.78157 13.6593 4.97867C13.5776 5.17578 13.4579 5.35485 13.3069 5.50565L9.92659 8.88597C9.77612 9.03737 9.59711 9.15741 9.39993 9.23914C9.20274 9.32087 8.99131 9.36268 8.77786 9.36213C8.56463 9.3627 8.35341 9.32095 8.15643 9.23932C7.95945 9.15768 7.78062 9.03778 7.6303 8.88656C7.57692 8.82956 7.51263 8.78386 7.44124 8.75219C7.36986 8.72052 7.29284 8.70352 7.21476 8.7022C7.13667 8.70087 7.05912 8.71526 6.98671 8.74449C6.91429 8.77373 6.84849 8.81722 6.79321 8.87238C6.73793 8.92754 6.6943 8.99325 6.66491 9.0656C6.63553 9.13796 6.62098 9.21548 6.62213 9.29356C6.62329 9.37165 6.64013 9.4487 6.67165 9.52015C6.70317 9.59161 6.74872 9.65599 6.80561 9.70949C7.06402 9.96921 7.37141 10.1751 7.70996 10.3151C8.04851 10.4552 8.41148 10.5267 8.77786 10.5254C9.14433 10.5267 9.5074 10.4553 9.84605 10.3152C10.1847 10.1751 10.4922 9.96926 10.7507 9.70949L14.131 6.32917C14.3903 6.07012 14.5959 5.76253 14.7362 5.42397C14.8765 5.08542 14.9487 4.72253 14.9487 4.35604C14.9487 3.98956 14.8765 3.62667 14.7362 3.28812C14.5959 2.94956 14.3903 2.64197 14.131 2.38292L14.1339 2.38351Z" fill="#717171"/>
</g>
</svg>
