<svg width="13" height="12" viewBox="0 0 13 12" fill="none" xmlns="http://www.w3.org/2000/svg">
<path d="M7.17704 10.5138C8.04749 10.5138 8.89838 10.2556 9.62213 9.77205C10.3459 9.28845 10.91 8.6011 11.2431 7.79692C11.5762 6.99273 11.6633 6.10783 11.4935 5.25411C11.3237 4.40039 10.9045 3.6162 10.289 3.00071C9.67355 2.38521 8.88936 1.96605 8.03564 1.79624C7.18193 1.62642 6.29702 1.71358 5.49284 2.04668C4.68865 2.37979 4.0013 2.94388 3.51771 3.66763C3.03412 4.39137 2.776 5.24227 2.776 6.11271V6.45126" stroke="#717171" stroke-width="0.8" stroke-linecap="round" stroke-linejoin="round"/>
<path d="M1.42188 5.0957L2.77604 6.44987L4.13021 5.0957" stroke="#717171" stroke-width="0.8" stroke-linecap="round" stroke-linejoin="round"/>
<path d="M6.8385 3.40308V6.44995H9.20829" stroke="#717171" stroke-width="0.8" stroke-linecap="round" stroke-linejoin="round"/>
</svg>
