<svg width="8" height="8" viewBox="0 0 8 8" fill="none" xmlns="http://www.w3.org/2000/svg">
<path d="M7.16687 6.66667C7.16687 6.79928 7.11419 6.92645 7.02043 7.02022C6.92666 7.11399 6.79948 7.16667 6.66687 7.16667C6.53426 7.16667 6.40709 7.11399 6.31332 7.02022C6.21955 6.92645 6.16687 6.79928 6.16687 6.66667V2.74667C6.16684 2.73019 6.16192 2.7141 6.15274 2.70042C6.14356 2.68674 6.13053 2.67608 6.1153 2.66981C6.10006 2.66353 6.08331 2.66191 6.06716 2.66514C6.05101 2.66838 6.03617 2.67634 6.02454 2.688L1.68687 7.021C1.59303 7.11471 1.4658 7.1673 1.33319 7.16721C1.20057 7.16712 1.07342 7.11434 0.979705 7.0205C0.885995 6.92666 0.833402 6.79943 0.833496 6.66681C0.83359 6.53419 0.886363 6.40704 0.980205 6.31333L5.32321 1.975C5.33489 1.96335 5.34285 1.94848 5.34608 1.9323C5.34931 1.91611 5.34766 1.89934 5.34134 1.88409C5.33502 1.86884 5.32431 1.85582 5.31058 1.84666C5.29685 1.83751 5.28071 1.83264 5.26421 1.83267H1.33354C1.20093 1.83267 1.07375 1.77999 0.979985 1.68622C0.886217 1.59245 0.833539 1.46528 0.833539 1.33267C0.833539 1.20006 0.886217 1.07288 0.979985 0.979114C1.07375 0.885345 1.20093 0.832667 1.33354 0.832667H6.33354C6.44303 0.832667 6.55145 0.854244 6.6526 0.896164C6.75374 0.938085 6.84564 0.999527 6.92303 1.07698C7.00042 1.15443 7.06179 1.24638 7.10363 1.34756C7.14547 1.44874 7.16696 1.55718 7.16687 1.66667V6.66667Z" fill="#5ABAFF"/>
</svg>
