<svg width="7" height="4" viewBox="0 0 7 4" fill="none" xmlns="http://www.w3.org/2000/svg">
<path d="M5.75475 3.90849C5.88279 3.90872 6.00801 3.87095 6.11457 3.79996C6.22113 3.72897 6.30423 3.62796 6.35335 3.50971C6.40246 3.39146 6.41538 3.2613 6.39047 3.1357C6.36556 3.01011 6.30394 2.89473 6.21342 2.80418L3.85989 0.451296C3.73628 0.334414 3.57262 0.269287 3.40251 0.269287C3.23239 0.269287 3.06873 0.334414 2.94513 0.451296L0.592245 2.80418C0.501798 2.89465 0.440206 3.00991 0.415255 3.13539C0.390305 3.26086 0.403116 3.39092 0.452069 3.50911C0.501022 3.6273 0.58392 3.72833 0.690282 3.79942C0.796643 3.87051 0.921693 3.90846 1.04962 3.90849H5.75475Z" fill="#717171"/>
</svg>
