<svg width="6" height="4" viewBox="0 0 6 4" fill="none" xmlns="http://www.w3.org/2000/svg">
<path d="M5.35191 3.90849C5.47995 3.90872 5.60518 3.87095 5.71174 3.79996C5.8183 3.72897 5.9014 3.62796 5.95052 3.50971C5.99963 3.39146 6.01255 3.2613 5.98764 3.1357C5.96273 3.01011 5.90111 2.89473 5.81059 2.80418L3.45706 0.451296C3.33345 0.334414 3.16979 0.269287 2.99968 0.269287C2.82956 0.269287 2.6659 0.334414 2.5423 0.451296L0.189413 2.80418C0.0989657 2.89465 0.0373739 3.00991 0.0124233 3.13539C-0.0125272 3.26086 0.000283855 3.39092 0.0492371 3.50911C0.0981903 3.6273 0.181088 3.72833 0.28745 3.79942C0.393811 3.87051 0.518861 3.90846 0.646792 3.90849H5.35191Z" fill="#DDDDDD"/>
</svg>
