<svg width="18" height="18" viewBox="0 0 18 18" fill="none" xmlns="http://www.w3.org/2000/svg">
<g clip-path="url(#clip0_19403_3679)">
<path d="M1.125 6.20024C0.826631 6.20024 0.540483 6.31877 0.329505 6.52975C0.118526 6.74073 0 7.02687 0 7.32524C0 7.62361 0.118526 7.90976 0.329505 8.12074C0.540483 8.33172 0.826631 8.45024 1.125 8.45024C2.23261 8.41645 3.33583 8.60413 4.36996 9.00227C5.4041 9.40042 6.34834 10.001 7.14733 10.7688C7.94632 11.5367 8.58397 12.4563 9.02291 13.4738C9.46185 14.4913 9.69323 15.5862 9.7035 16.6942C9.7035 16.9926 9.82203 17.2788 10.033 17.4897C10.244 17.7007 10.5301 17.8192 10.8285 17.8192C11.1269 17.8192 11.413 17.7007 11.624 17.4897C11.835 17.2788 11.9535 16.9926 11.9535 16.6942C11.9463 15.2898 11.6588 13.901 11.1079 12.6091C10.557 11.3173 9.75368 10.1484 8.74515 9.17103C7.73662 8.19365 6.54312 7.42744 5.23462 6.91731C3.92611 6.40717 2.52894 6.16339 1.125 6.20024Z" fill="#717171"/>
<path d="M1.14844 0.17775C0.850069 0.17775 0.563921 0.296276 0.352942 0.507254C0.141964 0.718233 0.0234375 1.00438 0.0234375 1.30275C0.0234375 1.60112 0.141964 1.88727 0.352942 2.09824C0.563921 2.30922 0.850069 2.42775 1.14844 2.42775C9.33619 2.42775 15.7502 8.694 15.7502 16.6942C15.7502 16.9926 15.8687 17.2788 16.0797 17.4897C16.2907 17.7007 16.5768 17.8192 16.8752 17.8192C17.1736 17.8192 17.4597 17.7007 17.6707 17.4897C17.8817 17.2788 18.0002 16.9926 18.0002 16.6942C18.0002 7.4325 10.5977 0.17775 1.14844 0.17775Z" fill="#717171"/>
<path d="M2.625 17.811C4.07475 17.811 5.25 16.6358 5.25 15.186C5.25 13.7363 4.07475 12.561 2.625 12.561C1.17525 12.561 0 13.7363 0 15.186C0 16.6358 1.17525 17.811 2.625 17.811Z" fill="#717171"/>
</g>
<defs>
<clipPath id="clip0_19403_3679">
<rect width="18" height="18" fill="white"/>
</clipPath>
</defs>
</svg>
