<svg width="12" height="12" viewBox="0 0 12 12" fill="none" xmlns="http://www.w3.org/2000/svg">
<g clip-path="url(#clip0_6595:78032)">
<path d="M9.67698 7C9.38968 7.01575 9.10371 6.9507 8.85149 6.81222C8.59928 6.67374 8.3909 6.46737 8.24998 6.2165C8.2371 6.19687 8.2189 6.1813 8.19752 6.17161C8.17613 6.16191 8.15243 6.15849 8.12917 6.16174C8.10592 6.16498 8.08406 6.17477 8.06615 6.18995C8.04823 6.20513 8.035 6.22509 8.02798 6.2475L7.23998 8.7545C7.18419 8.90348 7.08356 9.03148 6.95197 9.12087C6.82038 9.21027 6.66431 9.25665 6.50526 9.25364C6.3462 9.25062 6.192 9.19835 6.0639 9.10403C5.93579 9.00971 5.84009 8.87798 5.78998 8.727L4.62798 4.4C4.62078 4.37307 4.60478 4.34933 4.58252 4.33254C4.56027 4.31575 4.53304 4.30687 4.50517 4.30733C4.4773 4.30779 4.45038 4.31756 4.4287 4.33507C4.40701 4.35259 4.3918 4.37685 4.38548 4.404C4.2712 5.0539 4.06936 5.68531 3.78548 6.281C3.65412 6.51824 3.45688 6.71237 3.21758 6.83996C2.97829 6.96755 2.70718 7.02313 2.43698 7H0.0839844C0.320403 8.39799 1.04425 9.66709 2.12718 10.5823C3.21011 11.4974 4.58214 11.9995 5.99998 11.9995C7.41782 11.9995 8.78986 11.4974 9.87278 10.5823C10.9557 9.66709 11.6796 8.39799 11.916 7H9.67698Z" fill="#717171"/>
<path d="M2.437 5.99925C2.9045 5.99925 2.943 5.99925 3.3935 4.21675C3.4965 3.81025 3.6175 3.33125 3.771 2.76925C3.81893 2.61478 3.91618 2.48029 4.04785 2.38637C4.17951 2.29245 4.33834 2.24428 4.5 2.24925C4.66182 2.24469 4.82065 2.29347 4.95202 2.38807C5.08339 2.48267 5.18001 2.61783 5.227 2.77275L6.427 7.23675C6.43385 7.26297 6.44906 7.28623 6.47033 7.30302C6.4916 7.31981 6.51777 7.3292 6.54486 7.32976C6.57195 7.33033 6.59849 7.32204 6.62044 7.30615C6.64239 7.29027 6.65856 7.26766 6.6665 7.24175L7.3395 5.09925C7.38885 4.95846 7.47963 4.83588 7.59992 4.74763C7.72021 4.65937 7.86439 4.60957 8.0135 4.60475C8.1581 4.59368 8.30285 4.62418 8.43068 4.69266C8.55852 4.76114 8.6641 4.86474 8.735 4.99125C8.785 5.08825 8.835 5.18275 8.8775 5.27375C9.168 5.85925 9.2525 5.99775 9.6775 5.99775H12C11.9998 4.40645 11.3675 2.88041 10.2421 1.75533C9.11675 0.630251 7.59055 -0.001699 5.99925 -0.00150008C4.40795 -0.00130117 2.88191 0.631031 1.75683 1.75639C0.631751 2.88175 -0.000198865 4.40795 4.69429e-08 5.99925H2.437Z" fill="#717171"/>
</g>
<defs>
<clipPath id="clip0_6595:78032">
<rect width="12" height="12" fill="white"/>
</clipPath>
</defs>
</svg>
