<svg width="12" height="14" viewBox="0 0 12 14" fill="none" xmlns="http://www.w3.org/2000/svg">
<path d="M11.7992 12.969C11.4773 12.1082 10.9659 11.3308 10.303 10.6943C9.64003 10.0578 8.84244 9.57858 7.96924 9.29198C7.92133 9.27655 7.8792 9.24701 7.84835 9.20724C7.8175 9.16746 7.79938 9.1193 7.79635 9.06905C7.79332 9.0188 7.80554 8.96882 7.83139 8.92562C7.85724 8.88243 7.89553 8.84805 7.94124 8.82698C8.81866 8.42143 9.53172 7.72902 9.96286 6.86388C10.394 5.99875 10.5175 5.01253 10.313 4.0678C10.1085 3.12306 9.58824 2.2762 8.83793 1.6668C8.08761 1.0574 7.15205 0.721836 6.18546 0.715426C5.21887 0.709015 4.27894 1.03214 3.5206 1.63153C2.76227 2.23093 2.2308 3.07082 2.0138 4.01276C1.79679 4.9547 1.90721 5.94247 2.32684 6.81324C2.74647 7.68402 3.45028 8.38583 4.32224 8.80298C4.36748 8.82473 4.40513 8.8596 4.43027 8.90305C4.45542 8.94649 4.46691 8.9965 4.46324 9.04656C4.45957 9.09662 4.44092 9.14442 4.40971 9.18373C4.37849 9.22305 4.33617 9.25206 4.28824 9.26698C3.40137 9.54791 2.5901 10.0271 1.91593 10.6681C1.24177 11.3092 0.722415 12.0954 0.397244 12.967C0.353761 13.0805 0.338543 13.2028 0.352905 13.3235C0.367267 13.4442 0.410776 13.5595 0.479679 13.6596C0.548582 13.7598 0.640809 13.8416 0.7484 13.8981C0.855992 13.9546 0.975717 13.9841 1.09724 13.984H11.0972C11.2187 13.9838 11.3383 13.9542 11.4457 13.8976C11.5532 13.8411 11.6453 13.7593 11.7142 13.6592C11.783 13.5592 11.8266 13.4439 11.841 13.3233C11.8555 13.2028 11.8405 13.0805 11.7972 12.967L11.7992 12.969ZM3.89924 4.98598C3.89999 4.74065 3.94225 4.49721 4.02424 4.26598C4.03674 4.23097 4.05686 4.19917 4.08315 4.17289C4.10944 4.1466 4.14123 4.12648 4.17624 4.11398C4.21129 4.10169 4.2486 4.0972 4.28557 4.10082C4.32253 4.10445 4.35826 4.11611 4.39025 4.13498C5.2744 4.68455 6.29324 4.97905 7.33424 4.98598C7.59027 4.98603 7.84596 4.96732 8.09925 4.92998C8.13624 4.92483 8.17392 4.92801 8.20954 4.93927C8.24515 4.95053 8.2778 4.9696 8.30511 4.99509C8.33242 5.02058 8.35369 5.05184 8.36738 5.08659C8.38107 5.12135 8.38683 5.15872 8.38424 5.19598C8.3325 5.77302 8.05987 6.30778 7.62327 6.68861C7.18667 7.06944 6.61985 7.26693 6.04113 7.23983C5.46241 7.21273 4.91652 6.96315 4.51742 6.54319C4.11831 6.12322 3.89685 5.56533 3.89924 4.98598Z" fill="#717171"/>
</svg>
