<svg width="20" height="20" viewBox="0 0 20 20" fill="none" xmlns="http://www.w3.org/2000/svg">
<path d="M7.46368 9.16667C7.4636 9.1009 7.44098 9.03714 7.39958 8.98603C7.35818 8.93493 7.3005 8.89956 7.23618 8.88583C6.84397 8.79893 6.44372 8.7534 6.04201 8.75C4.69783 8.75612 3.39102 9.19297 2.31338 9.99643C1.23575 10.7999 0.444054 11.9277 0.0545137 13.2142C0.035953 13.2764 0.0321751 13.342 0.0434809 13.4059C0.0547868 13.4698 0.0808638 13.5302 0.119634 13.5823C0.158404 13.6343 0.208795 13.6766 0.26679 13.7057C0.324786 13.7348 0.388783 13.75 0.45368 13.75H7.04701C7.15752 13.75 7.2635 13.7061 7.34164 13.628C7.41978 13.5498 7.46368 13.4438 7.46368 13.3333V9.16667Z" fill="#717171"/>
<path d="M5.87044 7.91667C8.05657 7.91667 9.82878 6.14446 9.82878 3.95833C9.82878 1.77221 8.05657 0 5.87044 0C3.68432 0 1.91211 1.77221 1.91211 3.95833C1.91211 6.14446 3.68432 7.91667 5.87044 7.91667Z" fill="#717171"/>
<path d="M10.4167 8.75C9.97464 8.75 9.55072 8.9256 9.23816 9.23816C8.9256 9.55072 8.75 9.97464 8.75 10.4167V18.3333C8.75 18.7754 8.9256 19.1993 9.23816 19.5118C9.55072 19.8244 9.97464 20 10.4167 20H18.3333C18.7754 20 19.1993 19.8244 19.5118 19.5118C19.8244 19.1993 20 18.7754 20 18.3333V10.4167C20 9.97464 19.8244 9.55072 19.5118 9.23816C19.1993 8.9256 18.7754 8.75 18.3333 8.75H10.4167ZM17.7292 14.0725C17.6352 13.9315 17.5082 13.8155 17.3593 13.7347C17.2103 13.6538 17.0439 13.6105 16.8744 13.6085C16.705 13.6066 16.5376 13.646 16.3868 13.7233C16.236 13.8007 16.1064 13.9137 16.0092 14.0525L14.7283 15.8858C14.7116 15.9084 14.6905 15.9274 14.6663 15.9417C14.6421 15.956 14.6153 15.9653 14.5875 15.9692C14.5592 15.9732 14.5304 15.9713 14.5029 15.9637C14.4754 15.9561 14.4497 15.9429 14.4275 15.925L13.9175 15.5175C13.8048 15.4271 13.6746 15.3612 13.535 15.3239C13.3955 15.2866 13.2497 15.2788 13.107 15.3009C12.9643 15.323 12.8277 15.3745 12.706 15.4523C12.5843 15.5301 12.4801 15.6323 12.4 15.7525L10.7333 18.2567C10.718 18.2805 10.6969 18.3 10.672 18.3135C10.6471 18.3269 10.6191 18.3337 10.5908 18.3333C10.5453 18.3333 10.5016 18.3152 10.4694 18.2831C10.4373 18.2509 10.4192 18.2072 10.4192 18.1617V10.625C10.4192 10.5697 10.4411 10.5168 10.4802 10.4777C10.5193 10.4386 10.5722 10.4167 10.6275 10.4167H18.1275C18.1828 10.4167 18.2357 10.4386 18.2748 10.4777C18.3139 10.5168 18.3358 10.5697 18.3358 10.625V14.2917C18.3359 14.3364 18.3215 14.38 18.2949 14.4159C18.2683 14.4519 18.2308 14.4783 18.188 14.4913C18.1452 14.5043 18.0993 14.5031 18.0572 14.488C18.0151 14.473 17.979 14.4447 17.9542 14.4075L17.7292 14.0725Z" fill="#717171"/>
<path d="M12.9163 13.9582C13.7218 13.9582 14.3747 13.3053 14.3747 12.4998C14.3747 11.6944 13.7218 11.0415 12.9163 11.0415C12.1109 11.0415 11.458 11.6944 11.458 12.4998C11.458 13.3053 12.1109 13.9582 12.9163 13.9582Z" fill="#717171"/>
</svg>
