<svg width="21" height="21" viewBox="0 0 21 21" fill="none" xmlns="http://www.w3.org/2000/svg">
<circle cx="10.5" cy="10.5" r="10" fill="#F4F6FC" stroke="#B4BBD0"/>
<path d="M9.24096 11.119C9.26555 11.134 9.28554 11.1556 9.29876 11.1812C9.31199 11.2068 9.31795 11.2356 9.316 11.2643C9.31405 11.2931 9.30426 11.3208 9.28769 11.3444C9.27112 11.368 9.24841 11.3866 9.22201 11.3982C8.51025 11.7021 7.90337 12.2083 7.47666 12.854C7.04995 13.4996 6.8222 14.2564 6.82166 15.0303C6.82166 15.1141 6.85493 15.1944 6.91416 15.2536C6.97339 15.3129 7.05373 15.3461 7.13749 15.3461H14.4017C14.4855 15.3461 14.5658 15.3129 14.6251 15.2536C14.6843 15.1944 14.7176 15.1141 14.7176 15.0303C14.7163 14.2552 14.4871 13.4976 14.0585 12.8518C13.6299 12.206 13.0208 11.7005 12.3071 11.3982C12.2804 11.3866 12.2574 11.3679 12.2407 11.3441C12.2239 11.3204 12.214 11.2924 12.212 11.2634C12.2101 11.2344 12.2162 11.2054 12.2296 11.1796C12.243 11.1538 12.2633 11.1321 12.2882 11.1171C12.8516 10.7824 13.2894 10.272 13.5343 9.66418C13.7793 9.0564 13.8178 8.38497 13.6439 7.75318C13.47 7.12139 13.0933 6.56423 12.5718 6.16742C12.0503 5.7706 11.4129 5.5561 10.7576 5.55692C10.1024 5.55773 9.46549 5.77382 8.945 6.17193C8.42451 6.57004 8.04923 7.12813 7.8769 7.76035C7.70456 8.39257 7.74471 9.0639 7.99117 9.67108C8.23762 10.2782 8.67674 10.7876 9.24096 11.1209V11.119ZM9.03251 8.54744C9.03253 8.42799 9.04587 8.30892 9.07231 8.19244C9.08328 8.14369 9.10566 8.09823 9.13761 8.05982C9.16957 8.0214 9.21018 7.99111 9.25612 7.97144C9.30205 7.95177 9.352 7.94328 9.40186 7.94667C9.45171 7.95006 9.50005 7.96523 9.5429 7.99093C10.1484 8.35543 10.8418 8.54784 11.5485 8.54744C11.7333 8.54727 11.9178 8.53354 12.1006 8.50638C12.1499 8.49899 12.2003 8.5034 12.2476 8.51925C12.2949 8.5351 12.3378 8.56194 12.3728 8.59756C12.4077 8.63319 12.4337 8.67658 12.4487 8.7242C12.4636 8.77181 12.467 8.82229 12.4587 8.87149C12.3784 9.29443 12.1432 9.67218 11.799 9.9308C11.4549 10.1894 11.0266 10.3103 10.598 10.2698C10.1695 10.2292 9.77144 10.0302 9.48188 9.71164C9.19232 9.39309 9.03208 8.97793 9.03251 8.54744Z" fill="#B4BBD0"/>
</svg>
