<svg width="15" height="16" viewBox="0 0 15 16" fill="none" xmlns="http://www.w3.org/2000/svg">
<circle cx="7.5" cy="8" r="7.5" fill="#B5D1FD" fill-opacity="0.5"/>
<path d="M4.0457 11.8099C4.07345 11.8664 4.11513 11.9138 4.16632 11.9473C4.21751 11.9808 4.27631 11.999 4.33649 12H10.6643C10.7243 11.999 10.7829 11.9809 10.8341 11.9477C10.8852 11.9145 10.927 11.8674 10.9551 11.8113C10.9846 11.7529 11 11.6878 11 11.6216C11 11.5554 10.9846 11.4902 10.9551 11.4318C10.6337 10.7502 10.1423 10.1745 9.53383 9.76696C8.9254 9.3594 8.22317 9.13552 7.5031 9.11954C6.78206 9.13513 6.07874 9.35868 5.46906 9.76606C4.85939 10.1734 4.36652 10.7492 4.04366 11.4311C4.01464 11.4896 3.99965 11.5547 4.00001 11.6208C4.00036 11.6868 4.01605 11.7518 4.0457 11.8099ZM7.49697 8.39942C8.17426 8.39942 8.82381 8.11492 9.30273 7.60849C9.78164 7.10206 10.0507 6.41519 10.0507 5.69899C10.0507 5.22732 9.6421 3 7.48472 3C6.80761 3.00172 6.15888 3.2878 5.68124 3.79531C5.2036 4.30282 4.93618 4.99019 4.9378 5.70619C4.93943 6.4222 5.20997 7.1082 5.6899 7.61328C6.16984 8.11836 6.81986 8.40114 7.49697 8.39942ZM8.68871 5.69899C8.68871 6.03322 8.56315 6.35376 8.33966 6.59009C8.11616 6.82642 7.81304 6.95919 7.49697 6.95919C7.1809 6.95919 6.87778 6.82642 6.65429 6.59009C6.43079 6.35376 6.30524 6.03322 6.30524 5.69899C6.30568 5.5336 6.33764 5.36999 6.39921 5.21795C6.41654 5.17505 6.44895 5.14093 6.4896 5.1228C6.53025 5.10466 6.57597 5.10393 6.61713 5.12074C7.22301 5.37365 7.86716 5.50856 8.51846 5.51896C8.54084 5.51877 8.56304 5.52327 8.58377 5.5322C8.6045 5.54112 8.62336 5.5543 8.63925 5.57097C8.65514 5.58764 8.66775 5.60747 8.67635 5.62932C8.68496 5.65117 8.68939 5.6746 8.68939 5.69827L8.68871 5.69899Z" fill="#76A4F7"/>
</svg>
