<svg width="20" height="20" viewBox="0 0 20 20" fill="none" xmlns="http://www.w3.org/2000/svg">
<g clip-path="url(#clip0_14381_115201)">
<path d="M20 5.20833C20 4.76631 19.8244 4.34238 19.5118 4.02982C19.1993 3.71726 18.7754 3.54167 18.3333 3.54167H13.3333C13.2228 3.54167 13.1168 3.58557 13.0387 3.66371C12.9606 3.74185 12.9167 3.84783 12.9167 3.95833V5.20833C12.9167 5.31884 12.8728 5.42482 12.7946 5.50296C12.7165 5.5811 12.6105 5.625 12.5 5.625C12.3895 5.625 12.2835 5.5811 12.2054 5.50296C12.1272 5.42482 12.0833 5.31884 12.0833 5.20833V3.125C12.0833 2.46196 11.8199 1.82607 11.3511 1.35723C10.8823 0.888392 10.2464 0.625 9.58333 0.625C8.92029 0.625 8.28441 0.888392 7.81557 1.35723C7.34672 1.82607 7.08333 2.46196 7.08333 3.125V5.20833C7.08333 5.31884 7.03943 5.42482 6.96129 5.50296C6.88315 5.5811 6.77717 5.625 6.66667 5.625C6.55616 5.625 6.45018 5.5811 6.37204 5.50296C6.2939 5.42482 6.25 5.31884 6.25 5.20833V3.95833C6.25 3.84783 6.2061 3.74185 6.12796 3.66371C6.04982 3.58557 5.94384 3.54167 5.83333 3.54167H1.66667C1.22464 3.54167 0.800716 3.71726 0.488155 4.02982C0.175595 4.34238 0 4.76631 0 5.20833L0 17.7083C0 18.1504 0.175595 18.5743 0.488155 18.8868C0.800716 19.1994 1.22464 19.375 1.66667 19.375H18.3333C18.7754 19.375 19.1993 19.1994 19.5118 18.8868C19.8244 18.5743 20 18.1504 20 17.7083V5.20833ZM8.75 2.91667C8.75 2.75185 8.79887 2.59073 8.89044 2.45369C8.98201 2.31665 9.11216 2.20984 9.26443 2.14677C9.4167 2.08369 9.58426 2.06719 9.74591 2.09935C9.90756 2.1315 10.056 2.21087 10.1726 2.32741C10.2891 2.44395 10.3685 2.59244 10.4007 2.75409C10.4328 2.91574 10.4163 3.0833 10.3532 3.23557C10.2902 3.38784 10.1833 3.51799 10.0463 3.60956C9.90927 3.70113 9.74815 3.75 9.58333 3.75C9.36232 3.75 9.15036 3.6622 8.99408 3.50592C8.8378 3.34964 8.75 3.13768 8.75 2.91667ZM2.08333 17.7083C1.97283 17.7083 1.86685 17.6644 1.78871 17.5863C1.71057 17.5082 1.66667 17.4022 1.66667 17.2917V8.54167C1.66667 8.43116 1.71057 8.32518 1.78871 8.24704C1.86685 8.1689 1.97283 8.125 2.08333 8.125H17.9167C18.0272 8.125 18.1332 8.1689 18.2113 8.24704C18.2894 8.32518 18.3333 8.43116 18.3333 8.54167V17.2917C18.3333 17.4022 18.2894 17.5082 18.2113 17.5863C18.1332 17.6644 18.0272 17.7083 17.9167 17.7083H2.08333Z" fill="#717171"/>
<path d="M16.0413 11.25H12.083C11.9172 11.25 11.7583 11.3158 11.6411 11.4331C11.5239 11.5503 11.458 11.7092 11.458 11.875C11.458 12.0408 11.5239 12.1997 11.6411 12.3169C11.7583 12.4342 11.9172 12.5 12.083 12.5H16.0413C16.2071 12.5 16.3661 12.4342 16.4833 12.3169C16.6005 12.1997 16.6663 12.0408 16.6663 11.875C16.6663 11.7092 16.6005 11.5503 16.4833 11.4331C16.3661 11.3158 16.2071 11.25 16.0413 11.25ZM14.9997 13.75H12.083C11.9172 13.75 11.7583 13.8158 11.6411 13.9331C11.5239 14.0503 11.458 14.2092 11.458 14.375C11.458 14.5408 11.5239 14.6997 11.6411 14.8169C11.7583 14.9342 11.9172 15 12.083 15H14.9997C15.1654 15 15.3244 14.9342 15.4416 14.8169C15.5588 14.6997 15.6247 14.5408 15.6247 14.375C15.6247 14.2092 15.5588 14.0503 15.4416 13.9331C15.3244 13.8158 15.1654 13.75 14.9997 13.75Z" fill="#717171"/>
<path d="M6.66374 13.1248C7.58421 13.1248 8.3304 12.3786 8.3304 11.4582C8.3304 10.5377 7.58421 9.7915 6.66374 9.7915C5.74326 9.7915 4.99707 10.5377 4.99707 11.4582C4.99707 12.3786 5.74326 13.1248 6.66374 13.1248Z" fill="#717171"/>
<path d="M6.66695 13.9585C6.06831 13.969 5.48652 14.1585 4.99644 14.5024C4.50636 14.8464 4.1304 15.3291 3.91695 15.8885C3.89177 15.9521 3.88264 16.0209 3.89036 16.0889C3.89807 16.1568 3.9224 16.2218 3.96119 16.2782C3.99998 16.3345 4.05204 16.3804 4.11277 16.4119C4.17351 16.4433 4.24106 16.4593 4.30945 16.4585H9.01695C9.08534 16.4593 9.15288 16.4433 9.21362 16.4119C9.27436 16.3804 9.32642 16.3345 9.36521 16.2782C9.404 16.2218 9.42832 16.1568 9.43604 16.0889C9.44375 16.0209 9.43462 15.9521 9.40945 15.8885C9.19647 15.3303 8.82166 14.8484 8.33306 14.5045C7.84445 14.1607 7.2643 13.9705 6.66695 13.9585Z" fill="#717171"/>
</g>
<defs>
<clipPath id="clip0_14381_115201">
<rect width="20" height="20" fill="white"/>
</clipPath>
</defs>
</svg>
