<svg width="61" height="61" viewBox="0 0 61 61" fill="none" xmlns="http://www.w3.org/2000/svg">
<rect x="0.371951" y="0.371951" width="60.2561" height="60.2561" rx="30.128" fill="#EBEBEB" stroke="#DDDDDD" stroke-width="0.743902"/>
<g clip-path="url(#clip0)">
<path d="M38.3108 24.9207H30.3034C30.2344 24.9207 30.1668 24.9015 30.108 24.8653C30.0493 24.829 30.0018 24.7771 29.9709 24.7154L29.2664 23.302C29.1736 23.117 29.031 22.9616 28.8546 22.8533C28.6782 22.745 28.4751 22.6881 28.2681 22.689H22.6889C22.3929 22.689 22.1091 22.8066 21.8998 23.0159C21.6906 23.2251 21.573 23.5089 21.573 23.8049V37.1951C21.573 37.4911 21.6906 37.7749 21.8998 37.9842C22.1091 38.1934 22.3929 38.311 22.6889 38.311H38.3108C38.6067 38.311 38.8906 38.1934 39.0998 37.9842C39.3091 37.7749 39.4267 37.4911 39.4267 37.1951V26.0366C39.4267 25.7407 39.3091 25.4568 39.0998 25.2476C38.8906 25.0383 38.6067 24.9207 38.3108 24.9207ZM28.1193 26.7805C28.4136 26.7805 28.7013 26.8678 28.9459 27.0312C29.1906 27.1947 29.3813 27.4271 29.4939 27.6989C29.6065 27.9708 29.636 28.27 29.5786 28.5586C29.5211 28.8472 29.3794 29.1123 29.1714 29.3203C28.9633 29.5284 28.6982 29.6701 28.4096 29.7275C28.121 29.7849 27.8218 29.7555 27.55 29.6429C27.2781 29.5302 27.0458 29.3396 26.8823 29.0949C26.7188 28.8502 26.6315 28.5626 26.6315 28.2683C26.6315 27.8737 26.7883 27.4953 27.0673 27.2163C27.3463 26.9373 27.7247 26.7805 28.1193 26.7805ZM35.3858 35.6114C35.3697 35.6405 35.3462 35.6648 35.3175 35.6817C35.2888 35.6986 35.2561 35.7074 35.2229 35.7073H26.2224C26.1891 35.7074 26.1565 35.6985 26.1278 35.6816C26.0992 35.6648 26.0755 35.6405 26.0594 35.6114C26.0433 35.5823 26.0353 35.5494 26.0363 35.5162C26.0372 35.483 26.047 35.4506 26.0647 35.4224L28.129 32.1202C28.1624 32.0667 28.2089 32.0226 28.2641 31.992C28.3193 31.9615 28.3813 31.9454 28.4444 31.9454C28.5075 31.9454 28.5696 31.9615 28.6247 31.992C28.6799 32.0226 28.7264 32.0667 28.7598 32.1202L29.4405 33.4756C29.4574 33.5022 29.4806 33.5241 29.5082 33.5393C29.5358 33.5544 29.5667 33.5624 29.5982 33.5624C29.6297 33.5624 29.6606 33.5544 29.6882 33.5393C29.7158 33.5241 29.7391 33.5022 29.7559 33.4756L31.5227 30.2605C31.5561 30.207 31.6026 30.1629 31.6578 30.1323C31.713 30.1017 31.775 30.0857 31.8381 30.0857C31.9012 30.0857 31.9632 30.1017 32.0184 30.1323C32.0736 30.1629 32.1201 30.207 32.1535 30.2605L35.3798 35.4224C35.3976 35.4505 35.4074 35.4829 35.4083 35.5162C35.4093 35.5494 35.4012 35.5823 35.385 35.6114H35.3858Z" fill="#717171"/>
</g>
<defs>
<clipPath id="clip0">
<rect width="17.8537" height="17.8537" fill="white" transform="translate(21.5731 21.5732)"/>
</clipPath>
</defs>
</svg>
