<svg width="11" height="11" viewBox="0 0 11 11" fill="none" xmlns="http://www.w3.org/2000/svg">
<path d="M10.184 4.24999H9.95601C9.92787 4.25015 9.90051 4.24073 9.87843 4.22329C9.85635 4.20584 9.84086 4.1814 9.83451 4.15399C9.57375 3.13584 8.93797 2.25379 8.0545 1.68449C8.03198 1.66949 8.01492 1.64759 8.00591 1.62208C7.99689 1.59656 7.9964 1.56881 8.00451 1.54299C8.08256 1.30247 8.22016 1.08558 8.4045 0.91249C8.46944 0.851146 8.51676 0.773525 8.54154 0.687699C8.56631 0.601873 8.56764 0.510977 8.54539 0.424463C8.52314 0.337948 8.47811 0.258976 8.415 0.195758C8.35188 0.13254 8.27298 0.0873852 8.1865 0.0649896C7.80324 -0.0348449 7.39894 -0.0184607 7.02501 0.112059C6.65108 0.242579 6.3244 0.48134 6.08651 0.79799C6.07259 0.816456 6.0538 0.830681 6.03225 0.839071C6.0107 0.84746 5.98725 0.849683 5.96451 0.84549C5.18929 0.696901 4.39138 0.714321 3.62339 0.896601C2.8554 1.07888 2.13477 1.42188 1.50901 1.90299C0.776302 2.46731 0.25709 3.26385 0.0365065 4.16199C0.0323206 4.18134 0.0328089 4.20141 0.0379309 4.22053C0.0430528 4.23965 0.0526608 4.25728 0.0659577 4.27194C0.0792545 4.28661 0.0958569 4.29789 0.114387 4.30486C0.132918 4.31182 0.152842 4.31427 0.172507 4.31199C0.635416 4.26439 1.1007 4.24369 1.56601 4.24999C2.45501 4.24999 4.81601 4.24999 4.81601 5.49999V9.12199C4.81601 9.15506 4.82911 9.18677 4.85244 9.2102C4.87577 9.23363 4.90744 9.24686 4.94051 9.24699C5.49066 9.2489 6.03803 9.16868 6.56451 9.00899C6.5803 9.00428 6.59686 9.00274 6.61325 9.00445C6.62964 9.00617 6.64553 9.01111 6.66001 9.01899C6.68909 9.03513 6.71064 9.06207 6.72001 9.09399L6.96351 9.93599C7.00867 10.0921 7.1033 10.2292 7.23314 10.3269C7.36299 10.4245 7.52104 10.4774 7.68351 10.4775C7.75425 10.4776 7.82464 10.4675 7.89251 10.4475C8.0834 10.3921 8.24449 10.2632 8.3404 10.0891C8.43631 9.915 8.45919 9.70994 8.40401 9.51899L8.08 8.39999C8.0727 8.37505 8.07335 8.34845 8.08186 8.3239C8.09037 8.29935 8.10633 8.27805 8.1275 8.26299C8.67311 7.88558 9.12653 7.38995 9.45401 6.81299C9.46486 6.79347 9.48074 6.77719 9.49999 6.76586C9.51924 6.75452 9.54116 6.74852 9.56351 6.74849H10.184C10.3829 6.74849 10.5737 6.66947 10.7143 6.52882C10.855 6.38817 10.934 6.1974 10.934 5.99849V4.99999C10.934 4.80108 10.855 4.61031 10.7143 4.46966C10.5737 4.32901 10.3829 4.24999 10.184 4.24999ZM7.43401 4.24999C7.43401 4.1511 7.46333 4.05443 7.51827 3.9722C7.57321 3.88998 7.6513 3.82589 7.74266 3.78805C7.83403 3.75021 7.93456 3.7403 8.03155 3.7596C8.12854 3.77889 8.21763 3.82651 8.28756 3.89644C8.35748 3.96636 8.40511 4.05545 8.4244 4.15244C8.44369 4.24944 8.43379 4.34997 8.39594 4.44133C8.3581 4.53269 8.29401 4.61078 8.21179 4.66572C8.12957 4.72067 8.0329 4.74999 7.93401 4.74999C7.8014 4.74999 7.67422 4.69731 7.58045 4.60354C7.48668 4.50978 7.43401 4.3826 7.43401 4.24999ZM2.90901 3.29999C2.82946 3.35959 2.72952 3.38521 2.63111 3.37125C2.5327 3.35728 2.44384 3.30487 2.38401 3.22549C2.35436 3.18611 2.33276 3.14127 2.32045 3.09353C2.30815 3.04579 2.30538 2.9961 2.3123 2.94729C2.31922 2.89848 2.33569 2.85152 2.36078 2.80908C2.38587 2.76665 2.41908 2.72958 2.45851 2.69999C3.24733 2.1064 4.22361 1.81689 5.20851 1.88449C5.25779 1.88767 5.30596 1.90054 5.35025 1.92239C5.39455 1.94423 5.43409 1.97461 5.46661 2.01177C5.49913 2.04894 5.52399 2.09217 5.53976 2.13897C5.55553 2.18577 5.5619 2.23522 5.55851 2.28449C5.55008 2.38325 5.50369 2.4749 5.4291 2.54017C5.35451 2.60544 5.25751 2.63925 5.15851 2.63449C4.3533 2.58097 3.55548 2.817 2.90901 3.29999Z" fill="#717171"/>
</svg>
