<svg width="46" height="46" viewBox="0 0 46 46" fill="none" xmlns="http://www.w3.org/2000/svg">
<path d="M45.7076 22.5769C45.6409 16.5915 43.2229 10.8723 38.9756 6.65444C36.873 4.56833 34.3717 2.92726 31.6209 1.8292C28.8701 0.731153 25.9262 0.198634 22.9651 0.263442C16.8973 0.363159 11.1126 2.84658 6.86107 7.17694C4.73456 9.29611 3.05704 11.8222 1.92872 14.6042C0.800407 17.3863 0.24445 20.3672 0.294067 23.3689C0.290806 26.3019 0.866353 29.2066 1.98773 31.9167C3.1091 34.6268 4.75426 37.0889 6.82891 39.162C8.90356 41.2351 11.3669 42.8785 14.0778 43.9979C16.7887 45.1172 19.6939 45.6906 22.6268 45.6852H23.0366C29.1049 45.6199 34.8997 43.1504 39.1497 38.8183C43.3998 34.4863 45.7582 28.6455 45.7076 22.5769ZM20.2508 11.9674C20.2508 11.2381 20.5406 10.5386 21.0563 10.0229C21.572 9.50717 22.2715 9.21744 23.0008 9.21744C23.7302 9.21744 24.4296 9.50717 24.9454 10.0229C25.4611 10.5386 25.7508 11.2381 25.7508 11.9674V24.3424C25.7508 25.0718 25.4611 25.7713 24.9454 26.287C24.4296 26.8027 23.7302 27.0924 23.0008 27.0924C22.2715 27.0924 21.572 26.8027 21.0563 26.287C20.5406 25.7713 20.2508 25.0718 20.2508 24.3424V11.9674ZM23.0613 36.7807H23.0008C22.0891 36.7883 21.2118 36.4335 20.5617 35.7943C19.9116 35.155 19.5421 34.2837 19.5344 33.3721C19.5268 32.4604 19.8816 31.583 20.5208 30.9329C21.1601 30.2829 22.0314 29.9133 22.9431 29.9057H23.0008C23.9125 29.8984 24.7897 30.2536 25.4396 30.8931C26.0894 31.5326 26.4585 32.404 26.4658 33.3157C26.4731 34.2274 26.1179 35.1046 25.4784 35.7544C24.8389 36.4042 23.9675 36.7734 23.0558 36.7807H23.0613Z" fill="#FE6955"/>
</svg>
