<svg width="16" height="16" viewBox="0 0 16 16" fill="none" xmlns="http://www.w3.org/2000/svg">
<path d="M8 4.6665V8.6665" stroke="#FF6767" stroke-linecap="round" stroke-linejoin="round"/>
<path d="M8.25 10.9165C8.25 10.9828 8.22366 11.0464 8.17678 11.0933C8.12989 11.1402 8.0663 11.1665 8 11.1665M8 10.6665C8.0663 10.6665 8.12989 10.6928 8.17678 10.7397C8.22366 10.7866 8.25 10.8502 8.25 10.9165L8 10.6665ZM7.75 10.9165C7.75 10.8502 7.77634 10.7866 7.82322 10.7397C7.87011 10.6928 7.9337 10.6665 8 10.6665L7.75 10.9165ZM8 11.1665C7.9337 11.1665 7.87011 11.1402 7.82322 11.0933C7.77634 11.0464 7.75 10.9828 7.75 10.9165L8 11.1665Z" stroke="#FF6767" stroke-linecap="round" stroke-linejoin="round"/>
<path d="M8 13.6665C11.0376 13.6665 13.5 11.2041 13.5 8.1665C13.5 5.12894 11.0376 2.6665 8 2.6665C4.96243 2.6665 2.5 5.12894 2.5 8.1665C2.5 11.2041 4.96243 13.6665 8 13.6665Z" stroke="#FF6767" stroke-linecap="round" stroke-linejoin="round"/>
</svg>
