<svg width="50" height="50" viewBox="0 0 50 50" fill="none" xmlns="http://www.w3.org/2000/svg">
<path d="M42.4994 25.3041C42.448 29.9158 40.5846 34.3222 37.3115 37.5719C35.6912 39.1792 33.7636 40.4436 31.6437 41.2896C29.5239 42.1356 27.2553 42.5459 24.9733 42.4959C20.2973 42.4191 15.8394 40.5057 12.5631 37.1693C10.9243 35.5366 9.63158 33.5903 8.76207 31.4469C7.89255 29.3034 7.46411 27.0067 7.50235 24.6939C7.49984 22.4342 7.94337 20.1962 8.80754 18.1082C9.6717 16.0202 10.9395 14.1232 12.5383 12.5259C14.1371 10.9286 16.0354 9.6625 18.1245 8.80007C20.2137 7.93763 22.4525 7.49585 24.7127 7.50003H25.0284C29.7049 7.55036 34.1705 9.45303 37.4457 12.7907C40.7209 16.1284 42.5384 20.6286 42.4994 25.3041ZM22.8816 33.4784C22.8816 34.0403 23.1049 34.5793 23.5023 34.9766C23.8998 35.374 24.4388 35.5972 25.0009 35.5972C25.5629 35.5972 26.102 35.374 26.4994 34.9766C26.8968 34.5793 27.1201 34.0403 27.1201 33.4784V23.9439C27.1201 23.382 26.8968 22.843 26.4994 22.4457C26.102 22.0483 25.5629 21.8251 25.0009 21.8251C24.4388 21.8251 23.8998 22.0483 23.5023 22.4457C23.1049 22.843 22.8816 23.382 22.8816 23.9439V33.4784ZM25.0475 14.3606H25.0009C24.2983 14.3547 23.6222 14.6281 23.1212 15.1206C22.6202 15.6131 22.3355 16.2845 22.3296 16.9869C22.3237 17.6893 22.5971 18.3653 23.0897 18.8661C23.5823 19.367 24.2538 19.6517 24.9564 19.6576H25.0009C25.7034 19.6632 26.3795 19.3896 26.8802 18.8969C27.381 18.4041 27.6655 17.7327 27.6711 17.0303C27.6767 16.3279 27.403 15.652 26.9102 15.1513C26.4174 14.6507 25.7458 14.3663 25.0433 14.3606H25.0475Z" fill="#2266E2"/>
</svg>
