<svg width="5" height="8" viewBox="0 0 5 8" fill="none" xmlns="http://www.w3.org/2000/svg">
<path d="M4.54742 0.220382C4.3989 0.135385 4.22904 0.0944202 4.05788 0.102321C3.88672 0.110222 3.7214 0.166659 3.58143 0.264972C3.56197 0.243011 3.53985 0.223527 3.51558 0.206965L3.38546 0.132385C3.15632 0.00114702 2.88418 -0.0342507 2.62882 0.0339677C2.37346 0.102186 2.15576 0.268441 2.02356 0.496211L0.903648 2.42662C0.851041 2.51731 0.836805 2.62506 0.864071 2.72619C0.891338 2.82731 0.957874 2.91352 1.04904 2.96585C1.14021 3.01818 1.24854 3.03234 1.3502 3.00522C1.45187 2.9781 1.53854 2.91191 1.59114 2.82123L2.71066 0.890423C2.73771 0.844086 2.78207 0.810252 2.83407 0.796285C2.88608 0.782317 2.94153 0.789346 2.98835 0.815842L3.11808 0.890817L0.658481 5.1352C0.598846 5.23808 0.58273 5.36031 0.613678 5.47501C0.644626 5.5897 0.720103 5.68748 0.823513 5.74684L1.60384 6.19471C1.70727 6.25403 1.83015 6.27006 1.94546 6.23928C2.06077 6.2085 2.15907 6.13342 2.21874 6.03056L4.87986 1.44445C4.93895 1.34239 4.97721 1.22974 4.99248 1.11296C5.00775 0.996171 4.99971 0.877535 4.96884 0.763841C4.93796 0.650147 4.88484 0.543625 4.81253 0.450372C4.74022 0.357118 4.65013 0.278964 4.54742 0.220382ZM1.65977 6.68955L0.436721 5.98794C0.407766 5.97134 0.375063 5.96228 0.341649 5.96162C0.308234 5.96095 0.275192 5.96869 0.24559 5.98412C0.215988 5.99955 0.190785 6.02217 0.172322 6.04988C0.153859 6.07759 0.142735 6.10949 0.139982 6.14263L0.000737338 7.78655C-0.00251113 7.82393 0.00501875 7.86145 0.022444 7.89471C0.0398692 7.92798 0.0664675 7.95562 0.0991211 7.97439C0.131861 7.99267 0.169092 8.00147 0.2066 7.9998C0.244109 7.99813 0.280399 7.98604 0.311361 7.96492L1.67247 7.0222C1.69984 7.00321 1.72195 6.97765 1.73675 6.94789C1.75155 6.91813 1.75857 6.88514 1.75714 6.85198C1.75572 6.81881 1.7459 6.78653 1.72861 6.75814C1.71131 6.72975 1.68709 6.70616 1.65819 6.68955H1.65977Z" fill="#FFB169"/>
</svg>
