<svg width="50" height="25" viewBox="0 0 67 30" fill="none" xmlns="http://www.w3.org/2000/svg">
<circle cx="59.8032" cy="7.49644" r="7.19675" fill="#57E1FF"/>
<circle cx="59.8034" cy="7.49654" r="6.08956" fill="#D3FF57"/>
<circle cx="59.8032" cy="7.49685" r="4.6133" fill="#FF4B33"/>
<path d="M42.6416 29.0571V12.3517H46.9995V19.6149L46.939 17.4005C46.939 15.0602 47.784 14.3485 48.3621 13.7704C49.4693 12.6632 50.7925 12.1096 52.6285 12.1096H53.2943V16.8307H52.0232C50.7925 16.8307 49.8342 17.1636 49.1482 17.8294C48.4824 18.4952 48.1495 19.4535 48.1495 20.7044V29.0571H42.6416Z" fill="white"/>
<path d="M30.5195 29.2121C28.623 29.2121 27.1502 28.5967 26.101 27.366C25.0721 26.1151 24.5576 24.5776 24.5576 22.0153V12.3311H30.0655V22.1666C30.0655 22.9131 30.2875 23.5184 30.7313 23.9824C31.1752 24.4465 31.7704 24.6785 32.5169 24.6785C33.2634 24.6785 33.8686 24.4465 34.3327 23.9824C34.7967 23.5184 35.0287 22.8929 35.0287 22.1061V12.3311H40.5366V29.0364H36.1787V27.4118C35.5243 28.0751 35.1204 28.2955 34.1533 28.7544C33.0461 29.2799 32.0125 29.2121 30.7616 29.2121H30.5195Z" fill="white"/>
<path d="M57.6048 29.087V12.3817H63.1127V29.087H57.6048ZM55.4863 16.3765V12.3817H63.1127V16.3765H55.4863Z" fill="white"/>
<circle cx="59.8036" cy="7.49654" r="3.13705" fill="#2D2828"/>
<path d="M0 29.0868V25.6671L7.4145 16.7394V17.2236L6.62766 16.2552L7.23292 16.5578H0.0605266V12.3815H13.6185V15.8012L6.20397 24.7289V24.2447L6.99082 25.2131L6.38555 24.9105H13.8001V29.0868H0Z" fill="white"/>
<path d="M16.6405 29.0868V6.99463H22.1485V29.0868H16.6405ZM14.7642 10.9894V6.99463H22.1485V10.9894H14.7642Z" fill="white"/>
</svg>
