<svg width="52" height="22" viewBox="0 0 52 22" fill="none" xmlns="http://www.w3.org/2000/svg">
<path d="M32.75 21.9629V9.20468H36.097V14.7517L36.0505 13.0606C36.0505 11.2732 36.6995 10.7297 37.1435 10.2882C37.9938 9.44257 39.0101 9.01978 40.4202 9.01978H40.9315V12.6254H39.9553C39.0101 12.6254 38.2741 12.8796 37.7472 13.3881C37.2359 13.8966 36.9802 14.6285 36.9802 15.5838V21.9629H32.75Z" fill="#222222"/>
<path d="M23.4402 21.9979C21.9836 21.9979 20.8525 21.5279 20.0467 20.588C19.2565 19.6327 18.8613 18.4584 18.8613 16.5016V9.20435H23.0915V16.6171C23.0915 17.1872 23.262 17.6495 23.6029 18.0039C23.9438 18.3583 24.4009 18.5355 24.9742 18.5355C25.5475 18.5355 26.0124 18.3583 26.3688 18.0039C26.7252 17.6495 26.9034 17.1718 26.9034 16.5709V9.20435H31.1336V21.9633H27.7866V20.623C27.284 21.1296 26.9738 21.2979 26.231 21.6484C25.3807 22.0497 24.5868 21.9979 23.6261 21.9979H23.4402Z" fill="#222222"/>
<ellipse cx="45.8639" cy="5.4383" rx="5.46891" ry="5.4383" fill="#57E1FF"/>
<ellipse cx="45.8639" cy="5.43855" rx="4.62754" ry="4.60164" fill="#D3FF57"/>
<ellipse cx="45.8646" cy="5.43824" rx="3.50571" ry="3.48609" fill="#FF4B33"/>
<ellipse cx="45.8644" cy="5.43841" rx="2.38389" ry="2.37054" fill="#2D2828"/>
<path d="M44.2417 21.9853V9.22705H48.472V21.9853H44.2417ZM42.6147 12.2779V9.22705H48.472V12.2779H42.6147Z" fill="#222222"/>
<path d="M0 21.9851V19.3734L5.69451 12.5551V12.9249L5.0902 12.1853L5.55506 12.4164H0.0464858V9.22687H10.4593V11.8386L4.7648 18.6569V18.2871L5.36911 19.0267L4.90425 18.7956H10.5988V21.9851H0Z" fill="#222222"/>
<path d="M12.7803 21.9851V5.11279H17.0105V21.9851H12.7803ZM11.3393 8.16368V5.11279H17.0105V8.16368H11.3393Z" fill="#222222"/>
</svg>
