<svg width="13" height="12" viewBox="0 0 13 12" fill="none" xmlns="http://www.w3.org/2000/svg">
<g opacity="0.5">
<path d="M11.2501 10C11.2501 10.199 11.171 10.3897 11.0304 10.5304C10.8897 10.671 10.699 10.75 10.5001 10.75C10.3012 10.75 10.1104 10.671 9.96973 10.5304C9.82908 10.3897 9.75006 10.199 9.75006 10V4.12004C9.75001 4.09533 9.74263 4.07119 9.72886 4.05067C9.71509 4.03015 9.69555 4.01417 9.6727 4.00475C9.64985 3.99533 9.62472 3.9929 9.60049 3.99776C9.57626 4.00261 9.55402 4.01454 9.53656 4.03204L3.03006 10.5315C2.8893 10.6721 2.69846 10.751 2.49953 10.7509C2.3006 10.7507 2.10988 10.6716 1.96931 10.5308C1.82875 10.39 1.74986 10.1992 1.75 10.0003C1.75014 9.80133 1.8293 9.61061 1.97006 9.47004L8.48456 2.96254C8.50209 2.94506 8.51403 2.92277 8.51887 2.89849C8.52372 2.87421 8.52124 2.84904 8.51176 2.82617C8.50228 2.80331 8.48622 2.78377 8.46563 2.77004C8.44503 2.7563 8.42082 2.749 8.39606 2.74904H2.50006C2.30115 2.74904 2.11039 2.67002 1.96973 2.52937C1.82908 2.38872 1.75006 2.19795 1.75006 1.99904C1.75006 1.80013 1.82908 1.60936 1.96973 1.46871C2.11039 1.32806 2.30115 1.24904 2.50006 1.24904H10.0001C10.1643 1.24904 10.3269 1.28141 10.4786 1.34429C10.6304 1.40717 10.7682 1.49933 10.8843 1.61551C11.0004 1.73169 11.0924 1.86961 11.1552 2.02138C11.218 2.17315 11.2502 2.3358 11.2501 2.50004V10Z" fill="#717171"/>
</g>
</svg>
