<svg width="12" height="11" viewBox="0 0 12 11" fill="none" xmlns="http://www.w3.org/2000/svg">
<path d="M0.666666 4.66667L11.3333 4.66667C11.7015 4.66667 12 4.96515 12 5.33334C12 5.70153 11.7015 6.00001 11.3333 6.00001L0.666666 6.00001C0.298476 6.00001 0 5.70153 0 5.33334C0 4.96515 0.298476 4.66667 0.666666 4.66667Z" fill="white"/>
<path d="M10.3209 5.33927L5.56064 1.16808C5.28372 0.925432 5.25594 0.504237 5.49859 0.227318C5.74124 -0.0496016 6.16244 -0.077383 6.43936 0.165267L11.7727 4.83858C12.0761 5.1044 12.0757 5.57662 11.772 5.84202L6.43865 10.502C6.16139 10.7443 5.74023 10.7159 5.49797 10.4387C5.25571 10.1614 5.28409 9.74024 5.56135 9.49798L10.3209 5.33927Z" fill="white"/>
</svg>
