<svg width="28" height="28" viewBox="0 0 28 28" fill="none" xmlns="http://www.w3.org/2000/svg">
<circle cx="14" cy="14" r="13.5" fill="#5ABAFF" fill-opacity="0.1" stroke="#5ABAFF"/>
<path d="M9.40501 11.8417C9.43279 11.8439 9.45935 11.854 9.48156 11.8708C9.50376 11.8876 9.52068 11.9105 9.53032 11.9366C9.53995 11.9627 9.5419 11.9911 9.53592 12.0183C9.52994 12.0455 9.5163 12.0705 9.4966 12.0902L7.58793 14C7.53526 14.0526 7.49348 14.1151 7.46498 14.1838C7.43647 14.2526 7.4218 14.3263 7.4218 14.4007C7.4218 14.4752 7.43647 14.5489 7.46498 14.6177C7.49348 14.6864 7.53526 14.7489 7.58793 14.8015L8.62801 15.8422C8.65902 15.8731 8.6966 15.8967 8.73798 15.9112C8.77935 15.9256 8.82345 15.9306 8.867 15.9257C8.91055 15.9207 8.95243 15.906 8.98952 15.8827C9.02662 15.8594 9.05798 15.828 9.08126 15.7908C9.16962 15.6503 9.27353 15.5202 9.39101 15.4029C9.81647 14.9775 10.3935 14.7384 10.9952 14.7384C11.5969 14.7384 12.1739 14.9775 12.5993 15.4029C13.0248 15.8284 13.2638 16.4054 13.2638 17.0071C13.2638 17.6088 13.0248 18.1858 12.5993 18.6112C12.4819 18.7286 12.3518 18.8324 12.2114 18.921C12.1743 18.9443 12.1429 18.9756 12.1196 19.0127C12.0962 19.0498 12.0815 19.0917 12.0766 19.1353C12.0717 19.1788 12.0766 19.2229 12.0911 19.2643C12.1055 19.3057 12.1291 19.3432 12.1601 19.3742L13.2008 20.4149C13.3071 20.5211 13.4512 20.5808 13.6015 20.5808C13.7518 20.5808 13.8959 20.5211 14.0023 20.4149L15.9115 18.5057C15.9312 18.486 15.9561 18.4723 15.9834 18.4663C16.0106 18.4604 16.0389 18.4623 16.0651 18.4719C16.0912 18.4816 16.114 18.4985 16.1309 18.5207C16.1477 18.5429 16.1578 18.5695 16.16 18.5972C16.1896 18.9834 16.3179 19.3555 16.5328 19.6777C16.7476 19.9999 17.0417 20.2615 17.3868 20.4372C17.7319 20.613 18.1164 20.697 18.5034 20.6812C18.8903 20.6655 19.2668 20.5505 19.5964 20.3472C19.8885 20.1677 20.1361 19.9243 20.3206 19.6354C20.5052 19.3465 20.6219 19.0195 20.662 18.679C20.7021 18.3385 20.6646 17.9934 20.5523 17.6695C20.44 17.3456 20.2558 17.0513 20.0135 16.8087C19.6346 16.4297 19.1318 16.1998 18.5972 16.1612C18.5694 16.159 18.5428 16.1489 18.5206 16.1321C18.4984 16.1153 18.4815 16.0924 18.4719 16.0663C18.4622 16.0402 18.4603 16.0118 18.4663 15.9846C18.4723 15.9574 18.4859 15.9324 18.5056 15.9127L20.4119 14C20.4646 13.9474 20.5064 13.8849 20.5349 13.8162C20.5634 13.7474 20.5781 13.6737 20.5781 13.5992C20.5781 13.5248 20.5634 13.4511 20.5349 13.3823C20.5064 13.3136 20.4646 13.2511 20.4119 13.1985L19.3718 12.1578C19.3408 12.1268 19.3033 12.1033 19.2619 12.0888C19.2205 12.0743 19.1764 12.0694 19.1329 12.0743C19.0893 12.0793 19.0474 12.0939 19.0103 12.1173C18.9732 12.1406 18.9419 12.172 18.9186 12.2092C18.8302 12.3507 18.7261 12.4818 18.6083 12.6C18.3976 12.8107 18.1475 12.9778 17.8723 13.0918C17.597 13.2058 17.302 13.2645 17.0041 13.2645C16.4024 13.2645 15.8254 13.0254 15.3999 12.6C14.9745 12.1745 14.7355 11.5975 14.7355 10.9958C14.7355 10.6979 14.7941 10.4029 14.9082 10.1277C15.0222 9.85242 15.1893 9.60232 15.3999 9.39166C15.5174 9.27435 15.6475 9.17046 15.7878 9.08191C15.825 9.05862 15.8564 9.02727 15.8797 8.99017C15.9031 8.95308 15.9177 8.9112 15.9227 8.86765C15.9276 8.8241 15.9227 8.78 15.9082 8.73862C15.8938 8.69725 15.8702 8.65966 15.8392 8.62866L14.8014 7.58741C14.6951 7.48119 14.551 7.42152 14.4007 7.42152C14.2504 7.42152 14.1062 7.48119 13.9999 7.58741L12.0907 9.49666C12.071 9.51655 12.046 9.53035 12.0187 9.53643C11.9914 9.54252 11.9629 9.54062 11.9367 9.53096C11.9104 9.52131 11.8875 9.50431 11.8707 9.48199C11.8538 9.45967 11.8437 9.43297 11.8416 9.40508C11.8121 9.01892 11.6837 8.64686 11.4689 8.32463C11.254 8.00241 10.9599 7.74085 10.6148 7.56511C10.2697 7.38936 9.88518 7.30533 9.49822 7.32108C9.11126 7.33684 8.73486 7.45186 8.40518 7.65508C8.11318 7.83492 7.86572 8.07857 7.68137 8.36774C7.49702 8.65691 7.38058 8.98409 7.34078 9.32471C7.30098 9.66532 7.33886 10.0105 7.45158 10.3344C7.5643 10.6583 7.74893 10.9524 7.9916 11.1947C8.36987 11.573 8.87152 11.8026 9.40501 11.8417Z" fill="#5ABAFF"/>
</svg>
