<svg width="29" height="29" viewBox="0 0 29 29" fill="none" xmlns="http://www.w3.org/2000/svg">
<g opacity="0.8">
<g opacity="0.5" filter="url(#filter0_d)">
<path d="M14.5 0C12.4233 0 10.3932 0.615814 8.66652 1.76957C6.9398 2.92332 5.59399 4.5632 4.79927 6.48182C4.00455 8.40045 3.79661 10.5116 4.20176 12.5484C4.6069 14.5852 5.60693 16.4562 7.07538 17.9246C8.54383 19.3931 10.4148 20.3931 12.4516 20.7982C14.4884 21.2034 16.5996 20.9955 18.5182 20.2007C20.4368 19.406 22.0767 18.0602 23.2304 16.3335C24.3842 14.6068 25 12.5767 25 10.5C24.997 7.71615 23.8898 5.04718 21.9213 3.0787C19.9528 1.11022 17.2839 0.00301095 14.5 0V0ZM14.5 16.625C14.2404 16.625 13.9867 16.548 13.7708 16.4038C13.555 16.2596 13.3868 16.0546 13.2874 15.8148C13.1881 15.5749 13.1621 15.311 13.2127 15.0564C13.2634 14.8018 13.3884 14.568 13.5719 14.3844C13.7555 14.2009 13.9893 14.0759 14.2439 14.0252C14.4985 13.9746 14.7624 14.0006 15.0023 14.0999C15.2421 14.1992 15.4471 14.3675 15.5913 14.5833C15.7355 14.7992 15.8125 15.0529 15.8125 15.3125C15.8125 15.6606 15.6742 15.9944 15.4281 16.2406C15.1819 16.4867 14.8481 16.625 14.5 16.625ZM15.9 11.305C15.7439 11.3731 15.6111 11.4853 15.5178 11.6279C15.4246 11.7704 15.3749 11.937 15.375 12.1074C15.375 12.3394 15.2828 12.562 15.1187 12.7261C14.9546 12.8902 14.7321 12.9824 14.5 12.9824C14.2679 12.9824 14.0454 12.8902 13.8813 12.7261C13.7172 12.562 13.625 12.3394 13.625 12.1074C13.6249 11.5965 13.7739 11.0968 14.0537 10.6694C14.3334 10.242 14.7318 9.90546 15.2 9.70112C15.4892 9.57491 15.7389 9.37284 15.9227 9.11632C16.1064 8.8598 16.2174 8.55837 16.2438 8.24393C16.2703 7.9295 16.2112 7.61376 16.0729 7.33014C15.9346 7.04653 15.7222 6.80558 15.4581 6.63282C15.1941 6.46006 14.8882 6.3619 14.573 6.34874C14.2577 6.33559 13.9447 6.40792 13.6672 6.55808C13.3897 6.70824 13.1579 6.93065 12.9965 7.20175C12.835 7.47286 12.7498 7.78258 12.75 8.09812C12.75 8.33019 12.6578 8.55275 12.4937 8.71684C12.3296 8.88094 12.1071 8.97312 11.875 8.97312C11.6429 8.97312 11.4204 8.88094 11.2563 8.71684C11.0922 8.55275 11 8.33019 11 8.09812C11 7.46711 11.1706 6.84782 11.4937 6.30582C11.8168 5.76381 12.2805 5.31924 12.8356 5.01916C13.3907 4.71908 14.0166 4.57465 14.647 4.60116C15.2775 4.62767 15.8891 4.82413 16.417 5.16975C16.945 5.51536 17.3697 5.99728 17.6461 6.5645C17.9226 7.13172 18.0406 7.76314 17.9876 8.39193C17.9347 9.02072 17.7127 9.62349 17.3452 10.1364C16.9777 10.6494 16.4783 11.0535 15.9 11.3059V11.305Z" fill="#2266E2"/>
</g>
</g>
<defs>
<filter id="filter0_d" x="0" y="0" width="29" height="29" filterUnits="userSpaceOnUse" color-interpolation-filters="sRGB">
<feFlood flood-opacity="0" result="BackgroundImageFix"/>
<feColorMatrix in="SourceAlpha" type="matrix" values="0 0 0 0 0 0 0 0 0 0 0 0 0 0 0 0 0 0 127 0"/>
<feOffset dy="4"/>
<feGaussianBlur stdDeviation="2"/>
<feColorMatrix type="matrix" values="0 0 0 0 0 0 0 0 0 0 0 0 0 0 0 0 0 0 0.05 0"/>
<feBlend mode="normal" in2="BackgroundImageFix" result="effect1_dropShadow"/>
<feBlend mode="normal" in="SourceGraphic" in2="effect1_dropShadow" result="shape"/>
</filter>
</defs>
</svg>
