<svg width="33" height="33" viewBox="0 0 23 23" fill="none" xmlns="http://www.w3.org/2000/svg">
<path opacity="0.2" d="M19.55 10.35C19.245 10.35 18.9524 10.4711 18.7368 10.6868C18.5211 10.9025 18.4 11.195 18.4 11.5C18.4 12.8647 17.9953 14.1987 17.2371 15.3334C16.4789 16.4681 15.4013 17.3525 14.1405 17.8748C12.8797 18.397 11.4923 18.5336 10.1538 18.2674C8.81536 18.0012 7.58589 17.344 6.62091 16.379C5.65593 15.414 4.99877 14.1846 4.73253 12.8461C4.46629 11.5076 4.60294 10.1203 5.12518 8.85947C5.64743 7.59866 6.53182 6.52103 7.66652 5.76285C8.80121 5.00467 10.1353 4.59999 11.5 4.59999C11.8049 4.59999 12.0975 4.47883 12.3131 4.26316C12.5288 4.04749 12.65 3.75499 12.65 3.44999C12.65 3.14499 12.5288 2.85248 12.3131 2.63682C12.0975 2.42115 11.8049 2.29999 11.5 2.29999C9.68036 2.29999 7.90164 2.83956 6.38871 3.85047C4.87577 4.86138 3.69658 6.29822 3.00026 7.9793C2.30393 9.66038 2.12174 11.5102 2.47672 13.2948C2.83171 15.0794 3.70792 16.7187 4.99457 18.0054C6.28121 19.292 7.92049 20.1682 9.70512 20.5232C11.4897 20.8782 13.3396 20.696 15.0206 19.9997C16.7017 19.3034 18.1386 18.1242 19.1495 16.6112C20.1604 15.0983 20.7 13.3196 20.7 11.5C20.7 11.195 20.5788 10.9025 20.3631 10.6868C20.1475 10.4711 19.855 10.35 19.55 10.35Z" fill="#717171"/>
<path d="M10.35 3.44999C10.35 3.75499 10.4712 4.04749 10.6869 4.26316C10.9025 4.47883 11.1951 4.59999 11.5 4.59999C12.8647 4.59999 14.1988 5.00467 15.3335 5.76285C16.4682 6.52103 17.3526 7.59866 17.8748 8.85947C18.3971 10.1203 18.5337 11.5076 18.2675 12.8461C18.0012 14.1846 17.3441 15.414 16.3791 16.379C15.4141 17.344 14.1846 18.0012 12.8462 18.2674C11.5077 18.5336 10.1203 18.397 8.85953 17.8748C7.59872 17.3525 6.52109 16.4681 5.76291 15.3334C5.00473 14.1987 4.60005 12.8647 4.60005 11.5C4.60005 11.195 4.47889 10.9025 4.26322 10.6868C4.04755 10.4711 3.75505 10.35 3.45005 10.35C3.14505 10.35 2.85254 10.4711 2.63688 10.6868C2.42121 10.9025 2.30005 11.195 2.30005 11.5C2.30005 13.3196 2.83962 15.0983 3.85053 16.6112C4.86144 18.1242 6.29828 19.3034 7.97936 19.9997C9.66044 20.696 11.5103 20.8782 13.2949 20.5232C15.0795 20.1682 16.7188 19.292 18.0054 18.0054C19.2921 16.7187 20.1683 15.0794 20.5233 13.2948C20.8783 11.5102 20.6961 9.66038 19.9997 7.9793C19.3034 6.29822 18.1242 4.86138 16.6113 3.85047C15.0984 2.83956 13.3196 2.29999 11.5 2.29999C11.1951 2.29999 10.9025 2.42115 10.6869 2.63682C10.4712 2.85248 10.35 3.14499 10.35 3.44999Z" fill="#2266E2"/>
</svg>
