<svg width="40" height="40" viewBox="0 0 40 40" fill="none" xmlns="http://www.w3.org/2000/svg">
<g clip-path="url(#clip0)">
<path d="M33.3333 31.6667V16.6667C33.3333 16.2246 33.1577 15.8007 32.8452 15.4882C32.5326 15.1756 32.1087 15 31.6667 15H1.66667C1.22464 15 0.800716 15.1756 0.488155 15.4882C0.175595 15.8007 0 16.2246 0 16.6667L0 31.6667C0 32.1087 0.175595 32.5326 0.488155 32.8452C0.800716 33.1577 1.22464 33.3333 1.66667 33.3333H31.6667C32.1087 33.3333 32.5326 33.1577 32.8452 32.8452C33.1577 32.5326 33.3333 32.1087 33.3333 31.6667ZM10.8333 28.1267C11.1096 28.1267 11.3746 28.2364 11.5699 28.4318C11.7653 28.6271 11.875 28.8921 11.875 29.1683C11.875 29.4446 11.7653 29.7096 11.5699 29.9049C11.3746 30.1003 11.1096 30.21 10.8333 30.21C9.23098 30.21 7.69426 29.5735 6.56123 28.4404C5.4282 27.3074 4.79167 25.7707 4.79167 24.1683C4.79167 22.566 5.4282 21.0293 6.56123 19.8962C7.69426 18.7632 9.23098 18.1267 10.8333 18.1267C11.1096 18.1267 11.3746 18.2364 11.5699 18.4318C11.7653 18.6271 11.875 18.8921 11.875 19.1683C11.875 19.4446 11.7653 19.7096 11.5699 19.9049C11.3746 20.1003 11.1096 20.21 10.8333 20.21C9.78352 20.21 8.7767 20.627 8.03437 21.3694C7.29204 22.1117 6.875 23.1185 6.875 24.1683C6.875 25.2181 7.29204 26.225 8.03437 26.9673C8.7767 27.7096 9.78352 28.1267 10.8333 28.1267ZM15.7117 22.28L18.7783 24.3233C19.3521 24.706 19.7875 25.2631 20.0202 25.9123C20.253 26.5614 20.2707 27.2683 20.0707 27.9283C19.8708 28.5883 19.4638 29.1665 18.9099 29.5774C18.356 29.9883 17.6846 30.2101 16.995 30.21H14.1667C13.8904 30.21 13.6254 30.1003 13.4301 29.9049C13.2347 29.7096 13.125 29.4446 13.125 29.1683C13.125 28.8921 13.2347 28.6271 13.4301 28.4318C13.6254 28.2364 13.8904 28.1267 14.1667 28.1267H17C17.2425 28.1266 17.4784 28.0485 17.6731 27.904C17.8678 27.7594 18.0108 27.5561 18.0811 27.3241C18.1513 27.092 18.1451 26.8435 18.0632 26.6153C17.9814 26.3871 17.8284 26.1912 17.6267 26.0567L14.56 24.0133C13.987 23.6312 13.5519 23.075 13.3189 22.4268C13.086 21.7786 13.0675 21.0726 13.2661 20.4131C13.4648 19.7536 13.8702 19.1754 14.4224 18.7637C14.9746 18.352 15.6445 18.1287 16.3333 18.1267H19.1667C19.4429 18.1267 19.7079 18.2364 19.9032 18.4318C20.0986 18.6271 20.2083 18.8921 20.2083 19.1683C20.2083 19.4446 20.0986 19.7096 19.9032 19.9049C19.7079 20.1003 19.4429 20.21 19.1667 20.21H16.3333C16.0909 20.2101 15.8549 20.2882 15.6602 20.4327C15.4656 20.5772 15.3225 20.7805 15.2523 21.0126C15.182 21.2446 15.1883 21.4931 15.2701 21.7214C15.3519 21.9496 15.505 22.1454 15.7067 22.28H15.7117ZM28.545 21.6683C28.5377 24.5977 27.5869 27.4468 25.8333 29.7933C25.7363 29.9227 25.6105 30.0277 25.4658 30.1C25.3212 30.1723 25.1617 30.21 25 30.21C24.8383 30.21 24.6788 30.1723 24.5342 30.1C24.3895 30.0277 24.2637 29.9227 24.1667 29.7933C22.414 27.4459 21.4643 24.5962 21.4583 21.6667V19.1667C21.4583 18.8904 21.5681 18.6254 21.7634 18.4301C21.9588 18.2347 22.2237 18.125 22.5 18.125C22.7763 18.125 23.0412 18.2347 23.2366 18.4301C23.4319 18.6254 23.5417 18.8904 23.5417 19.1667V21.6667C23.5453 23.3768 23.929 25.0647 24.665 26.6083C24.702 26.6615 24.7508 26.7053 24.8077 26.7363C24.8645 26.7673 24.9278 26.7846 24.9925 26.7868C25.0572 26.7891 25.1215 26.7763 25.1804 26.7493C25.2393 26.7224 25.2911 26.6821 25.3317 26.6317C26.0728 25.0814 26.4578 23.385 26.4583 21.6667V19.1667C26.4583 18.8904 26.5681 18.6254 26.7634 18.4301C26.9588 18.2347 27.2237 18.125 27.5 18.125C27.7763 18.125 28.0412 18.2347 28.2366 18.4301C28.4319 18.6254 28.5417 18.8904 28.5417 19.1667L28.545 21.6683Z" fill="#5ABAFF"/>
<path d="M39.513 9.51333L30.4896 0.49C30.335 0.334924 30.1514 0.21183 29.9492 0.127753C29.747 0.0436769 29.5303 0.000265514 29.3113 0L10.0013 0C9.11725 0 8.2694 0.35119 7.64428 0.976311C7.01916 1.60143 6.66797 2.44928 6.66797 3.33333V12.9167C6.66797 13.0272 6.71187 13.1332 6.79001 13.2113C6.86815 13.2894 6.97413 13.3333 7.08464 13.3333H9.58464C9.69485 13.3333 9.80058 13.2897 9.87868 13.2119C9.95677 13.1341 10.0009 13.0286 10.0013 12.9183V4.16667C10.0013 3.94565 10.0891 3.73369 10.2454 3.57741C10.4017 3.42113 10.6136 3.33333 10.8346 3.33333H27.918C28.0285 3.33333 28.1345 3.37723 28.2126 3.45537C28.2907 3.53351 28.3346 3.63949 28.3346 3.75V8.33333C28.3346 9.21739 28.6858 10.0652 29.3109 10.6904C29.9361 11.3155 30.7839 11.6667 31.668 11.6667H36.2513C36.3618 11.6667 36.4678 11.7106 36.5459 11.7887C36.6241 11.8668 36.668 11.9728 36.668 12.0833V35.8333C36.668 36.0543 36.5802 36.2663 36.4239 36.4226C36.2676 36.5789 36.0556 36.6667 35.8346 36.6667H10.418C10.3075 36.6667 10.2015 36.6228 10.1233 36.5446C10.0452 36.4665 10.0013 36.3605 10.0013 36.25V35.4167C10.0013 35.3062 9.9574 35.2002 9.87926 35.122C9.80112 35.0439 9.69514 35 9.58464 35H7.08464C6.97413 35 6.86815 35.0439 6.79001 35.122C6.71187 35.2002 6.66797 35.3062 6.66797 35.4167V36.6667C6.66797 37.5507 7.01916 38.3986 7.64428 39.0237C8.2694 39.6488 9.11725 40 10.0013 40H36.668C37.552 40 38.3999 39.6488 39.025 39.0237C39.6501 38.3986 40.0013 37.5507 40.0013 36.6667V10.6917C40.0012 10.2497 39.8256 9.82582 39.513 9.51333Z" fill="#5ABAFF"/>
</g>
<defs>
<clipPath id="clip0">
<rect width="40" height="40" fill="white"/>
</clipPath>
</defs>
</svg>
