<svg width="200" height="200" viewBox="0 0 200 200" fill="none" xmlns="http://www.w3.org/2000/svg">
<rect opacity="0.3" x="0.5" y="0.5" width="199" height="199" rx="99.5" fill="#EBEBEB" stroke="#717171"/>
<g clip-path="url(#clip0)">
<path d="M60.3333 77.8333H45.8333C44.5515 77.8333 43.3221 78.3426 42.4157 79.249C41.5092 80.1554 41 81.3848 41 82.6667C41 83.9485 41.5092 85.1779 42.4157 86.0843C43.3221 86.9908 44.5515 87.5 45.8333 87.5H60.3333C61.6152 87.5 62.8446 86.9908 63.751 86.0843C64.6574 85.1779 65.1667 83.9485 65.1667 82.6667C65.1667 81.3848 64.6574 80.1554 63.751 79.249C62.8446 78.3426 61.6152 77.8333 60.3333 77.8333ZM55.5 97.1667H45.8333C44.5515 97.1667 43.3221 97.6759 42.4157 98.5823C41.5092 99.4887 41 100.718 41 102C41 103.282 41.5092 104.511 42.4157 105.418C43.3221 106.324 44.5515 106.833 45.8333 106.833H55.5C56.7819 106.833 58.0113 106.324 58.9177 105.418C59.8241 104.511 60.3333 103.282 60.3333 102C60.3333 100.718 59.8241 99.4887 58.9177 98.5823C58.0113 97.6759 56.7819 97.1667 55.5 97.1667ZM51.8605 116.5H45.8333C44.5515 116.5 43.3221 117.009 42.4157 117.916C41.5092 118.822 41 120.051 41 121.333C41 122.615 41.5092 123.845 42.4157 124.751C43.3221 125.657 44.5515 126.167 45.8333 126.167H51.8605C53.1424 126.167 54.3718 125.657 55.2782 124.751C56.1846 123.845 56.6938 122.615 56.6938 121.333C56.6938 120.051 56.1846 118.822 55.2782 117.916C54.3718 117.009 53.1424 116.5 51.8605 116.5ZM156.681 79.6458C156.558 79.5974 156.423 79.5849 156.293 79.6097C156.163 79.6345 156.043 79.6956 155.946 79.786L115.699 115.108C113.639 116.947 110.983 117.977 108.222 118.008C106.979 118.041 105.744 117.797 104.605 117.296C103.467 116.795 102.454 116.047 101.639 115.108L72.0107 79.7667C71.9255 79.6726 71.8125 79.6082 71.6881 79.583C71.5638 79.5578 71.4346 79.573 71.3195 79.6265C71.1953 79.6794 71.0861 79.7623 71.0018 79.8677C70.9174 79.9732 70.8605 80.0979 70.8362 80.2307L63.9245 123.731C63.7361 124.623 63.7528 125.547 63.9732 126.432C64.1936 127.317 64.6121 128.141 65.1971 128.841C65.782 129.541 66.5183 130.099 67.3502 130.473C68.1822 130.847 69.0882 131.027 70 131H142.34C144.349 130.936 146.273 130.18 147.787 128.858C149.301 127.536 150.31 125.731 150.644 123.75L157 80.25C157.022 80.1281 157.002 80.0026 156.944 79.8931C156.886 79.7837 156.794 79.6966 156.681 79.6458Z" fill="#5FCF64"/>
<path d="M106.062 111.265C106.48 111.687 106.978 112.022 107.526 112.25C108.074 112.479 108.662 112.596 109.256 112.596C109.85 112.596 110.439 112.479 110.987 112.25C111.535 112.022 112.033 111.687 112.451 111.265L152.447 76.1562C152.709 75.9312 152.91 75.6433 153.03 75.3194C153.15 74.9955 153.186 74.6464 153.133 74.305C152.877 72.913 151.311 73 150.842 73H79.1544C78.628 72.9317 78.0931 73.0189 77.6156 73.2507C77.1381 73.4826 76.7389 73.8491 76.467 74.305C76.3104 74.5945 76.2403 74.9229 76.2652 75.2512C76.29 75.5794 76.4087 75.8936 76.6072 76.1562L106.062 111.265Z" fill="#5FCF64"/>
</g>
<defs>
<clipPath id="clip0">
<rect width="116" height="116" fill="white" transform="translate(41 44)"/>
</clipPath>
</defs>
</svg>
