<svg width="46" height="46" viewBox="0 0 46 46" fill="none" xmlns="http://www.w3.org/2000/svg">
<path d="M45.7056 22.5766C45.639 16.5911 43.2209 10.872 38.9736 6.65409C36.8711 4.56798 34.3697 2.92691 31.6189 1.82885C28.8681 0.730802 25.9243 0.198283 22.9631 0.263091C16.8954 0.362808 11.1106 2.84623 6.85911 7.17659C4.73261 9.29576 3.05509 11.8218 1.92677 14.6039C0.798454 17.3859 0.242497 20.3669 0.292114 23.3686C0.288852 26.3015 0.8644 29.2062 1.98577 31.9163C3.10715 34.6264 4.7523 37.0886 6.82696 39.1617C8.90161 41.2348 11.365 42.8781 14.0759 43.9975C16.7868 45.1169 19.692 45.6903 22.6249 45.6848H23.0346C29.103 45.6195 34.8977 43.15 39.1478 38.818C43.3978 34.486 45.7562 28.6451 45.7056 22.5766ZM20.2489 11.9671C20.2489 11.2377 20.5386 10.5383 21.0543 10.0225C21.57 9.50682 22.2695 9.21709 22.9989 9.21709C23.7282 9.21709 24.4277 9.50682 24.9434 10.0225C25.4591 10.5383 25.7489 11.2377 25.7489 11.9671V24.3421C25.7489 25.0714 25.4591 25.7709 24.9434 26.2866C24.4277 26.8024 23.7282 27.0921 22.9989 27.0921C22.2695 27.0921 21.57 26.8024 21.0543 26.2866C20.5386 25.7709 20.2489 25.0714 20.2489 24.3421V11.9671ZM23.0594 36.7803H22.9989C22.0872 36.788 21.2098 36.4332 20.5597 35.7939C19.9097 35.1547 19.5401 34.2834 19.5325 33.3717C19.5248 32.46 19.8797 31.5827 20.5189 30.9326C21.1581 30.2825 22.0294 29.913 22.9411 29.9053H22.9989C23.9105 29.898 24.7878 30.2532 25.4376 30.8927C26.0874 31.5322 26.4566 32.4037 26.4639 33.3153C26.4712 34.227 26.116 35.1043 25.4765 35.7541C24.837 36.4039 23.9655 36.773 23.0539 36.7803H23.0594Z" fill="#FE6955"/>
</svg>
