<svg width="17" height="17" viewBox="0 0 17 17" fill="none" xmlns="http://www.w3.org/2000/svg">
<circle cx="8.5" cy="8.5" r="8.5" fill="white"/>
<path d="M16.9997 8.35227C16.9748 6.11235 16.0697 3.9721 14.4799 2.39366C13.6929 1.61298 12.7566 0.998845 11.727 0.587925C10.6973 0.177005 9.59542 -0.0222773 8.48704 0.0019754C6.21585 0.039292 4.05057 0.968655 2.45921 2.58919C1.66325 3.38224 1.03534 4.32756 0.613004 5.36867C0.190668 6.40978 -0.0174299 7.52533 0.00114212 8.64866C-7.86463e-05 9.74623 0.215352 10.8333 0.63509 11.8474C1.05483 12.8616 1.67062 13.783 2.44717 14.5588C3.22373 15.3347 4.14578 15.9496 5.16049 16.3685C6.1752 16.7874 7.26262 17.002 8.36043 17H8.5138C10.7852 16.9755 12.9542 16.0514 14.5451 14.4302C16.1359 12.8091 17.0186 10.6233 16.9997 8.35227ZM7.47108 4.38192C7.47108 4.10898 7.57953 3.84722 7.77257 3.65422C7.96561 3.46122 8.22742 3.3528 8.50042 3.3528C8.77342 3.3528 9.03524 3.46122 9.22828 3.65422C9.42132 3.84722 9.52976 4.10898 9.52976 4.38192V9.01297C9.52976 9.28591 9.42132 9.54767 9.22828 9.74067C9.03524 9.93367 8.77342 10.0421 8.50042 10.0421C8.22742 10.0421 7.96561 9.93367 7.77257 9.74067C7.57953 9.54767 7.47108 9.28591 7.47108 9.01297V4.38192ZM8.52307 13.6677H8.50042C8.15917 13.6706 7.83076 13.5378 7.58744 13.2985C7.34411 13.0593 7.2058 12.7333 7.20294 12.3921C7.20007 12.0509 7.33288 11.7226 7.57215 11.4793C7.81142 11.236 8.13756 11.0977 8.4788 11.0949H8.50042C8.84167 11.0922 9.17002 11.2251 9.41325 11.4644C9.65648 11.7037 9.79466 12.0298 9.79739 12.371C9.80012 12.7122 9.66718 13.0405 9.42781 13.2836C9.18844 13.5268 8.86226 13.665 8.52101 13.6677H8.52307Z" fill="#FE6955"/>
</svg>
