<svg width="20" height="20" viewBox="0 0 20 20" fill="none" xmlns="http://www.w3.org/2000/svg">
<rect width="20" height="20" rx="10" fill="#6967E0"/>
<g clip-path="url(#clip0_1521_6218)">
<path d="M9.375 10.6875C9.375 10.3394 9.51328 10.0056 9.75942 9.75942C10.0056 9.51328 10.3394 9.375 10.6875 9.375H13.8594C13.8884 9.375 13.9162 9.36348 13.9367 9.34297C13.9572 9.32245 13.9688 9.29463 13.9688 9.26562V5.65625C13.9688 5.4822 13.8996 5.31528 13.7765 5.19221C13.6535 5.06914 13.4865 5 13.3125 5H5.65625C5.4822 5 5.31528 5.06914 5.19221 5.19221C5.06914 5.31528 5 5.4822 5 5.65625V12C5 12.174 5.06914 12.341 5.19221 12.464C5.31528 12.5871 5.4822 12.6562 5.65625 12.6562H6.96875V14.1875C6.96876 14.2308 6.98161 14.2731 7.00567 14.3091C7.02974 14.345 7.06394 14.3731 7.10394 14.3896C7.14394 14.4061 7.18795 14.4104 7.23039 14.402C7.27283 14.3935 7.31181 14.3726 7.34238 14.3419L9.02806 12.6562H9.26562C9.29463 12.6562 9.32245 12.6447 9.34297 12.6242C9.36348 12.6037 9.375 12.5759 9.375 12.5469V10.6875ZM8.28125 9.70312H6.96875C6.88173 9.70312 6.79827 9.66855 6.73673 9.60702C6.6752 9.54548 6.64062 9.46202 6.64062 9.375C6.64062 9.28798 6.6752 9.20452 6.73673 9.14298C6.79827 9.08145 6.88173 9.04688 6.96875 9.04688H8.28125C8.36827 9.04688 8.45173 9.08145 8.51327 9.14298C8.5748 9.20452 8.60938 9.28798 8.60938 9.375C8.60938 9.46202 8.5748 9.54548 8.51327 9.60702C8.45173 9.66855 8.36827 9.70312 8.28125 9.70312ZM11.5625 7.51562H6.96875C6.88173 7.51562 6.79827 7.48105 6.73673 7.41952C6.6752 7.35798 6.64062 7.27452 6.64062 7.1875C6.64062 7.10048 6.6752 7.01702 6.73673 6.95548C6.79827 6.89395 6.88173 6.85938 6.96875 6.85938H11.5625C11.6495 6.85938 11.733 6.89395 11.7945 6.95548C11.8561 7.01702 11.8906 7.10048 11.8906 7.1875C11.8906 7.27452 11.8561 7.35798 11.7945 7.41952C11.733 7.48105 11.6495 7.51562 11.5625 7.51562Z" fill="white"/>
<path d="M14.8438 10.0312H10.6875C10.5135 10.0312 10.3465 10.1004 10.2235 10.2235C10.1004 10.3465 10.0312 10.5135 10.0312 10.6875V13.5313C10.0312 13.7053 10.1004 13.8722 10.2235 13.9953C10.3465 14.1184 10.5135 14.1875 10.6875 14.1875H12.1457L13.8375 15.4563C13.87 15.4806 13.9086 15.4955 13.9491 15.4991C13.9896 15.5028 14.0302 15.4951 14.0666 15.4769C14.1029 15.4587 14.1335 15.4308 14.1548 15.3963C14.1762 15.3617 14.1875 15.3219 14.1875 15.2813V14.1875H14.8438C15.0178 14.1875 15.1847 14.1184 15.3078 13.9953C15.4309 13.8722 15.5 13.7053 15.5 13.5313V10.6875C15.5 10.5135 15.4309 10.3465 15.3078 10.2235C15.1847 10.1004 15.0178 10.0312 14.8438 10.0312Z" fill="white"/>
</g>
<defs>
<clipPath id="clip0_1521_6218">
<rect width="10.5" height="10.5" fill="white" transform="translate(5 5)"/>
</clipPath>
</defs>
</svg>
