<svg width="70" height="6" viewBox="0 0 70 6" fill="none" xmlns="http://www.w3.org/2000/svg">
<path opacity="0.5" d="M70 2.99999L65 0.113243L65 5.88675L70 2.99999ZM1.45833 3.5C1.73448 3.5 1.95833 3.27614 1.95833 3C1.95833 2.72386 1.73448 2.5 1.45833 2.5L1.45833 3.5ZM4.375 2.5C4.09886 2.5 3.875 2.72386 3.875 3C3.875 3.27614 4.09886 3.5 4.375 3.5L4.375 2.5ZM7.29167 3.5C7.56781 3.5 7.79167 3.27614 7.79167 3C7.79167 2.72386 7.56781 2.5 7.29167 2.5L7.29167 3.5ZM10.2083 2.5C9.93219 2.5 9.70833 2.72386 9.70833 3C9.70833 3.27614 9.93219 3.5 10.2083 3.5L10.2083 2.5ZM13.125 3.5C13.4011 3.5 13.625 3.27614 13.625 3C13.625 2.72386 13.4011 2.5 13.125 2.5L13.125 3.5ZM16.0417 2.5C15.7655 2.5 15.5417 2.72386 15.5417 3C15.5417 3.27614 15.7655 3.5 16.0417 3.5L16.0417 2.5ZM18.9583 3.5C19.2345 3.5 19.4583 3.27614 19.4583 3C19.4583 2.72386 19.2345 2.5 18.9583 2.5L18.9583 3.5ZM21.875 2.5C21.5989 2.5 21.375 2.72386 21.375 3C21.375 3.27614 21.5989 3.5 21.875 3.5L21.875 2.5ZM24.7917 3.5C25.0678 3.5 25.2917 3.27614 25.2917 3C25.2917 2.72386 25.0678 2.5 24.7917 2.5L24.7917 3.5ZM27.7083 2.5C27.4322 2.5 27.2083 2.72386 27.2083 3C27.2083 3.27614 27.4322 3.5 27.7083 3.5L27.7083 2.5ZM30.625 3.5C30.9011 3.5 31.125 3.27614 31.125 3C31.125 2.72385 30.9011 2.5 30.625 2.5L30.625 3.5ZM33.5417 2.5C33.2655 2.5 33.0417 2.72385 33.0417 3C33.0417 3.27614 33.2655 3.5 33.5417 3.5L33.5417 2.5ZM36.4583 3.5C36.7345 3.5 36.9583 3.27614 36.9583 3C36.9583 2.72385 36.7345 2.5 36.4583 2.5L36.4583 3.5ZM39.375 2.5C39.0989 2.5 38.875 2.72385 38.875 3C38.875 3.27614 39.0989 3.5 39.375 3.5L39.375 2.5ZM42.2917 3.5C42.5678 3.5 42.7917 3.27614 42.7917 3C42.7917 2.72385 42.5678 2.5 42.2917 2.5L42.2917 3.5ZM45.2083 2.5C44.9322 2.5 44.7083 2.72385 44.7083 3C44.7083 3.27614 44.9322 3.5 45.2083 3.5L45.2083 2.5ZM48.125 3.5C48.4011 3.5 48.625 3.27614 48.625 3C48.625 2.72385 48.4011 2.5 48.125 2.5L48.125 3.5ZM51.0417 2.5C50.7655 2.5 50.5417 2.72385 50.5417 3C50.5417 3.27614 50.7655 3.5 51.0417 3.5L51.0417 2.5ZM53.9583 3.5C54.2345 3.5 54.4583 3.27614 54.4583 3C54.4583 2.72385 54.2345 2.5 53.9583 2.5L53.9583 3.5ZM56.875 2.5C56.5989 2.5 56.375 2.72385 56.375 3C56.375 3.27614 56.5989 3.5 56.875 3.5L56.875 2.5ZM59.7917 3.49999C60.0678 3.49999 60.2917 3.27614 60.2917 2.99999C60.2917 2.72385 60.0678 2.49999 59.7917 2.49999L59.7917 3.49999ZM62.7083 2.49999C62.4322 2.49999 62.2083 2.72385 62.2083 2.99999C62.2083 3.27614 62.4322 3.49999 62.7083 3.49999L62.7083 2.49999ZM65.625 3.49999C65.9012 3.49999 66.125 3.27614 66.125 2.99999C66.125 2.72385 65.9012 2.49999 65.625 2.49999L65.625 3.49999ZM68.5417 2.49999C68.2655 2.49999 68.0417 2.72385 68.0417 2.99999C68.0417 3.27614 68.2655 3.49999 68.5417 3.49999L68.5417 2.49999ZM4.37114e-08 3.5L1.45833 3.5L1.45833 2.5L-4.37114e-08 2.5L4.37114e-08 3.5ZM4.375 3.5L7.29167 3.5L7.29167 2.5L4.375 2.5L4.375 3.5ZM10.2083 3.5L13.125 3.5L13.125 2.5L10.2083 2.5L10.2083 3.5ZM16.0417 3.5L18.9583 3.5L18.9583 2.5L16.0417 2.5L16.0417 3.5ZM21.875 3.5L24.7917 3.5L24.7917 2.5L21.875 2.5L21.875 3.5ZM27.7083 3.5L30.625 3.5L30.625 2.5L27.7083 2.5L27.7083 3.5ZM33.5417 3.5L36.4583 3.5L36.4583 2.5L33.5417 2.5L33.5417 3.5ZM39.375 3.5L42.2917 3.5L42.2917 2.5L39.375 2.5L39.375 3.5ZM45.2083 3.5L48.125 3.5L48.125 2.5L45.2083 2.5L45.2083 3.5ZM51.0417 3.5L53.9583 3.5L53.9583 2.5L51.0417 2.5L51.0417 3.5ZM56.875 3.5L59.7917 3.49999L59.7917 2.49999L56.875 2.5L56.875 3.5ZM62.7083 3.49999L65.625 3.49999L65.625 2.49999L62.7083 2.49999L62.7083 3.49999Z" fill="url(#paint0_linear_1521_6683)"/>
<defs>
<linearGradient id="paint0_linear_1521_6683" x1="63.4667" y1="3.50051" x2="4.9" y2="3.5005" gradientUnits="userSpaceOnUse">
<stop stop-color="#717171"/>
<stop offset="1" stop-color="#717171" stop-opacity="0"/>
</linearGradient>
</defs>
</svg>
