<svg width="21" height="20" viewBox="0 0 21 20" fill="none" xmlns="http://www.w3.org/2000/svg">
<ellipse cx="10.0015" cy="10" rx="10.0015" ry="10" fill="#5FCF64"/>
<path d="M16.2363 8.57266C16.312 8.56187 16.3812 8.52414 16.4313 8.4664C16.4814 8.40865 16.509 8.33477 16.509 8.25832C16.509 8.18188 16.4814 8.10799 16.4313 8.05025C16.3812 7.99251 16.312 7.95478 16.2363 7.94399L16.0255 7.91415C15.7533 7.87448 15.5012 7.74798 15.3066 7.55346C15.1121 7.35895 14.9856 7.10683 14.946 6.83462L14.9161 6.6238C14.9058 6.54764 14.8683 6.4778 14.8104 6.42723C14.7525 6.37666 14.6783 6.34879 14.6015 6.34879C14.5246 6.34879 14.4504 6.37666 14.3925 6.42723C14.3347 6.4778 14.2971 6.54764 14.2868 6.6238L14.2576 6.83399C14.2178 7.10615 14.0913 7.35822 13.8968 7.55272C13.7023 7.74721 13.4502 7.87375 13.1781 7.91351L12.9679 7.94336C12.8922 7.95414 12.823 7.99187 12.7729 8.04961C12.7228 8.10736 12.6952 8.18124 12.6952 8.25769C12.6952 8.33414 12.7228 8.40802 12.7729 8.46576C12.823 8.52351 12.8922 8.56124 12.9679 8.57202L13.1787 8.60187C13.4509 8.64163 13.7029 8.76816 13.8974 8.96266C14.0919 9.15715 14.2185 9.40922 14.2582 9.68139L14.2874 9.89221C14.2977 9.96837 14.3353 10.0382 14.3932 10.0888C14.451 10.1393 14.5253 10.1672 14.6021 10.1672C14.6789 10.1672 14.7532 10.1393 14.811 10.0888C14.8689 10.0382 14.9065 9.96837 14.9167 9.89221L14.9466 9.68202C14.9863 9.40982 15.1128 9.15769 15.3073 8.96318C15.5018 8.76867 15.7539 8.64217 16.0261 8.6025L16.2363 8.57266ZM6.81461 11.7477H6.82477C6.94718 11.7481 7.06503 11.7013 7.15392 11.6171C7.24282 11.533 7.29594 11.4178 7.3023 11.2956C7.355 10.2129 8.45548 8.89016 9.68233 8.89016C9.74487 8.89079 9.80693 8.87909 9.86495 8.85573C9.92297 8.83237 9.97582 8.79782 10.0205 8.75404C10.0652 8.71025 10.1008 8.6581 10.1253 8.60056C10.1498 8.54302 10.1627 8.48121 10.1634 8.41866C10.164 8.35612 10.1523 8.29407 10.1289 8.23604C10.1056 8.17802 10.071 8.12517 10.0272 8.0805C9.98344 8.03584 9.93129 8.00023 9.87375 7.97572C9.8162 7.95121 9.7544 7.93827 9.69185 7.93764C9.08 7.88655 8.50554 7.62215 8.06879 7.19062C7.63204 6.75909 7.36075 6.18785 7.3023 5.57666V5.55634C7.30238 5.49372 7.2901 5.4317 7.26615 5.37384C7.24221 5.31598 7.20707 5.26341 7.16277 5.21916C7.11846 5.17491 7.06585 5.13985 7.00795 5.11598C6.95006 5.09211 6.88802 5.07991 6.8254 5.08008C6.76294 5.08 6.70108 5.09222 6.64334 5.11604C6.5856 5.13987 6.53312 5.17483 6.4889 5.21894C6.44467 5.26304 6.40957 5.31543 6.38559 5.3731C6.36161 5.43078 6.34923 5.49261 6.34914 5.55507C6.29527 6.16994 6.02611 6.74606 5.58909 7.18192C5.15207 7.61778 4.57523 7.88541 3.96022 7.93764C3.83463 7.93932 3.71484 7.99073 3.6271 8.08061C3.53937 8.17048 3.49086 8.29149 3.49222 8.41708C3.49388 8.54313 3.54513 8.66345 3.63486 8.75199C3.7246 8.84053 3.84559 8.89017 3.97165 8.89016C4.58938 8.93343 5.17055 9.19889 5.60772 9.63746C6.04489 10.076 6.30848 10.658 6.34978 11.2759C6.35074 11.3995 6.3998 11.5179 6.48657 11.606C6.57334 11.6941 6.691 11.7449 6.81461 11.7477Z" fill="white"/>
<path d="M10.9442 16.1928H10.9514C11.0388 16.193 11.1229 16.1596 11.1864 16.0995C11.2499 16.0394 11.2878 15.9571 11.2923 15.8698C11.33 15.0965 12.1156 14.1517 12.9914 14.1517C13.0361 14.1521 13.0804 14.1438 13.1218 14.1271C13.1632 14.1104 13.201 14.0857 13.2329 14.0544C13.2648 14.0232 13.2902 13.9859 13.3077 13.9448C13.3252 13.9037 13.3344 13.8596 13.3349 13.8149C13.3353 13.7702 13.3269 13.7259 13.3103 13.6844C13.2936 13.643 13.2689 13.6052 13.2377 13.5733C13.2064 13.5414 13.1692 13.516 13.1281 13.4985C13.087 13.481 13.0429 13.4717 12.9982 13.4713C12.5614 13.4348 12.1513 13.2459 11.8395 12.9377C11.5277 12.6295 11.3341 12.2214 11.2923 11.7849V11.7704C11.2924 11.7256 11.2836 11.6813 11.2665 11.64C11.2494 11.5987 11.2243 11.5611 11.1927 11.5295C11.1611 11.4979 11.1235 11.4729 11.0822 11.4558C11.0409 11.4388 10.9966 11.4301 10.9519 11.4302C10.9073 11.4301 10.8631 11.4388 10.8219 11.4559C10.7807 11.4729 10.7432 11.4979 10.7116 11.5294C10.6801 11.5609 10.655 11.5983 10.6379 11.6395C10.6208 11.6807 10.6119 11.7248 10.6119 11.7695C10.5734 12.2086 10.3812 12.6202 10.0693 12.9315C9.75726 13.2428 9.34546 13.434 8.9064 13.4713C8.81674 13.4725 8.73122 13.5092 8.66858 13.5734C8.60595 13.6376 8.57132 13.724 8.57229 13.8137C8.57348 13.9038 8.61006 13.9897 8.67412 14.053C8.73818 14.1162 8.82456 14.1517 8.91456 14.1517C9.35556 14.1826 9.77046 14.3722 10.0826 14.6854C10.3947 14.9987 10.5828 15.4144 10.6123 15.8558C10.613 15.9441 10.648 16.0286 10.71 16.0916C10.7719 16.1545 10.8559 16.1908 10.9442 16.1928Z" fill="white"/>
</svg>
