<svg width="20" height="20" viewBox="0 0 20 20" fill="none" xmlns="http://www.w3.org/2000/svg">
<circle cx="10" cy="10" r="10" fill="#FF6767"/>
<path d="M16.1905 9.99999C16.1905 8.77563 15.8275 7.57876 15.1472 6.56074C14.467 5.54273 13.5002 4.74928 12.369 4.28073C11.2379 3.81219 9.99318 3.6896 8.79235 3.92846C7.59151 4.16732 6.48847 4.75691 5.62272 5.62266C4.75697 6.48841 4.16738 7.59145 3.92852 8.79228C3.68966 9.99312 3.81225 11.2378 4.28079 12.369C4.74934 13.5001 5.54279 14.467 6.5608 15.1472C7.57882 15.8274 8.77569 16.1905 10 16.1905C11.6412 16.1884 13.2146 15.5356 14.3751 14.3751C15.5357 13.2146 16.1885 11.6412 16.1905 9.99999ZM10 14.2857C9.30168 14.2853 8.61439 14.1111 8.00005 13.779C7.96725 13.7616 7.93898 13.7368 7.91748 13.7066C7.89599 13.6763 7.88186 13.6414 7.87624 13.6047C7.87098 13.5679 7.87436 13.5303 7.88609 13.4949C7.89782 13.4595 7.9176 13.4274 7.94386 13.4009L13.3981 7.94665C13.4245 7.92031 13.4567 7.90055 13.4921 7.88897C13.5275 7.87739 13.5651 7.87431 13.602 7.87999C13.6387 7.88551 13.6736 7.89948 13.704 7.9208C13.7344 7.94212 13.7595 7.9702 13.7772 8.00284C14.1085 8.61744 14.2823 9.30462 14.2829 10.0028C14.2821 11.1385 13.8307 12.2274 13.0276 13.0304C12.2246 13.8335 11.1357 14.2849 10 14.2857ZM5.71433 9.99999C5.7156 8.86373 6.16753 7.77438 6.97098 6.97092C7.77444 6.16747 8.86379 5.71553 10 5.71427C10.6985 5.71526 11.3857 5.88968 12 6.22189C12.033 6.23924 12.0613 6.26419 12.0827 6.29466C12.104 6.32514 12.1178 6.36026 12.1229 6.39713C12.1283 6.4338 12.1251 6.47121 12.1135 6.50642C12.1019 6.54162 12.0823 6.57366 12.0562 6.59999L6.60005 12.0543C6.57362 12.0805 6.54146 12.1003 6.50609 12.112C6.47073 12.1238 6.43313 12.1271 6.39624 12.1219C6.35955 12.1163 6.32468 12.1021 6.29442 12.0806C6.26416 12.0592 6.23934 12.0309 6.22195 11.9981C5.8899 11.3844 5.71547 10.6978 5.71433 9.99999Z" fill="white"/>
</svg>
