<svg width="20" height="20" viewBox="0 0 20 20" fill="none" xmlns="http://www.w3.org/2000/svg">
<circle cx="10" cy="10" r="10" fill="#C18AFF"/>
<g clip-path="url(#clip0_1521_6255)">
<path d="M15.0928 4.8356C15.0228 4.78063 14.9384 4.74722 14.8497 4.73943C14.7611 4.73164 14.6721 4.74982 14.5937 4.79174L5.09936 9.84481C4.98502 9.90462 4.8901 9.9958 4.82575 10.1076C4.7614 10.2195 4.73027 10.3474 4.73603 10.4763C4.74178 10.6052 4.78418 10.7298 4.85824 10.8355C4.93231 10.9411 5.03497 11.0235 5.15419 11.0729L6.58138 11.6781C6.58137 11.7148 6.58776 11.7511 6.60024 11.7856L7.69673 14.7444C7.75374 14.8975 7.85643 15.0294 7.99089 15.1222C8.12536 15.215 8.2851 15.2642 8.44848 15.2632C8.6461 15.2615 8.83626 15.1876 8.98313 15.0553C9.00024 15.04 10.2068 13.7053 10.4744 13.4088C10.4896 13.3919 10.5098 13.3802 10.5321 13.3753C10.5543 13.3705 10.5775 13.3727 10.5985 13.3816L11.9831 13.9689C12.0736 14.0072 12.1712 14.026 12.2695 14.0239C12.3677 14.0219 12.4645 13.9991 12.5533 13.9571C12.6415 13.9154 12.7198 13.8554 12.783 13.7811C12.8461 13.7067 12.8927 13.6197 12.9195 13.5259L15.2459 5.30709C15.27 5.22218 15.2684 5.13201 15.2411 5.04804C15.2138 4.96408 15.1622 4.89012 15.0928 4.8356ZM7.29717 11.7746L11.548 8.23823C11.5579 8.22828 11.5697 8.22052 11.5827 8.21545C11.5957 8.21038 11.6097 8.20813 11.6236 8.20883C11.6376 8.20954 11.6512 8.21318 11.6637 8.21953C11.6761 8.22589 11.6871 8.2348 11.6959 8.24569C11.7069 8.25409 11.7159 8.26477 11.7224 8.27701C11.7289 8.28925 11.7327 8.30275 11.7335 8.31658C11.7343 8.33041 11.7321 8.34425 11.727 8.35715C11.722 8.37005 11.7142 8.3817 11.7042 8.3913L8.52962 12.2751C8.49329 12.3193 8.46951 12.3725 8.46076 12.429L8.18313 14.1615L7.29717 11.7746Z" fill="white"/>
</g>
<defs>
<clipPath id="clip0_1521_6255">
<rect width="10.5263" height="10.5263" fill="white" transform="translate(4.73633 4.73682)"/>
</clipPath>
</defs>
</svg>
