<svg width="20" height="20" viewBox="0 0 20 20" fill="none" xmlns="http://www.w3.org/2000/svg">
<rect width="20" height="20" rx="10" fill="#6967E0"/>
<path d="M15.1719 6.84644C15.1719 6.62888 15.0854 6.42023 14.9316 6.26639C14.7778 6.11255 14.5691 6.02612 14.3516 6.02612H11.8906C11.8362 6.02612 11.7841 6.04773 11.7456 6.08619C11.7072 6.12465 11.6855 6.17681 11.6855 6.2312V6.84644C11.6855 6.90083 11.6639 6.95299 11.6255 6.99145C11.587 7.02991 11.5349 7.05151 11.4805 7.05151C11.4261 7.05151 11.3739 7.02991 11.3355 6.99145C11.297 6.95299 11.2754 6.90083 11.2754 6.84644V5.82104C11.2754 5.4947 11.1458 5.18173 10.915 4.95097C10.6842 4.72021 10.3713 4.59058 10.0449 4.59058C9.71858 4.59058 9.40561 4.72021 9.17485 4.95097C8.94409 5.18173 8.81445 5.4947 8.81445 5.82104V6.84644C8.81445 6.90083 8.79285 6.95299 8.75439 6.99145C8.71593 7.02991 8.66377 7.05151 8.60938 7.05151C8.55498 7.05151 8.50282 7.02991 8.46436 6.99145C8.4259 6.95299 8.4043 6.90083 8.4043 6.84644V6.2312C8.4043 6.17681 8.38269 6.12465 8.34423 6.08619C8.30577 6.04773 8.25361 6.02612 8.19922 6.02612H6.14844C5.93088 6.02612 5.72223 6.11255 5.56839 6.26639C5.41455 6.42023 5.32812 6.62888 5.32812 6.84644V12.9988C5.32812 13.2163 5.41455 13.425 5.56839 13.5788C5.72223 13.7327 5.93088 13.8191 6.14844 13.8191H14.3516C14.5691 13.8191 14.7778 13.7327 14.9316 13.5788C15.0854 13.425 15.1719 13.2163 15.1719 12.9988V6.84644ZM9.63477 5.71851C9.63477 5.63738 9.65882 5.55809 9.70389 5.49064C9.74896 5.42319 9.81302 5.37061 9.88796 5.33957C9.96291 5.30853 10.0454 5.3004 10.1249 5.31623C10.2045 5.33206 10.2776 5.37112 10.3349 5.42848C10.3923 5.48584 10.4314 5.55893 10.4472 5.63849C10.463 5.71805 10.4549 5.80052 10.4239 5.87547C10.3928 5.95041 10.3402 6.01447 10.2728 6.05954C10.2053 6.10461 10.126 6.12866 10.0449 6.12866C9.93614 6.12866 9.83182 6.08545 9.7549 6.00853C9.67798 5.93161 9.63477 5.82729 9.63477 5.71851ZM6.35352 12.9988C6.29913 12.9988 6.24696 12.9772 6.2085 12.9387C6.17004 12.9003 6.14844 12.8481 6.14844 12.7937V8.48706C6.14844 8.43267 6.17004 8.38051 6.2085 8.34205C6.24696 8.30359 6.29913 8.28198 6.35352 8.28198H14.1465C14.2009 8.28198 14.253 8.30359 14.2915 8.34205C14.33 8.38051 14.3516 8.43267 14.3516 8.48706V12.7937C14.3516 12.8481 14.33 12.9003 14.2915 12.9387C14.253 12.9772 14.2009 12.9988 14.1465 12.9988H6.35352Z" fill="white"/>
<path d="M13.2236 9.82007H11.2754C11.1938 9.82007 11.1156 9.85248 11.0579 9.91017C11.0002 9.96786 10.9678 10.0461 10.9678 10.1277C10.9678 10.2093 11.0002 10.2875 11.0579 10.3452C11.1156 10.4029 11.1938 10.4353 11.2754 10.4353H13.2236C13.3052 10.4353 13.3835 10.4029 13.4412 10.3452C13.4988 10.2875 13.5312 10.2093 13.5312 10.1277C13.5312 10.0461 13.4988 9.96786 13.4412 9.91017C13.3835 9.85248 13.3052 9.82007 13.2236 9.82007ZM12.7109 11.0505H11.2754C11.1938 11.0505 11.1156 11.0829 11.0579 11.1406C11.0002 11.1983 10.9678 11.2766 10.9678 11.3582C10.9678 11.4397 11.0002 11.518 11.0579 11.5757C11.1156 11.6334 11.1938 11.6658 11.2754 11.6658H12.7109C12.7925 11.6658 12.8708 11.6334 12.9285 11.5757C12.9861 11.518 13.0186 11.4397 13.0186 11.3582C13.0186 11.2766 12.9861 11.1983 12.9285 11.1406C12.8708 11.0829 12.7925 11.0505 12.7109 11.0505Z" fill="white"/>
<path fill-rule="evenodd" clip-rule="evenodd" d="M9.4278 9.92261C9.4278 10.3757 9.06053 10.7429 8.60748 10.7429C8.15444 10.7429 7.78717 10.3757 7.78717 9.92261C7.78717 9.46956 8.15444 9.10229 8.60748 9.10229C9.06053 9.10229 9.4278 9.46956 9.4278 9.92261ZM7.78692 11.4208C8.02813 11.2515 8.31448 11.1583 8.60912 11.1531C8.90313 11.159 9.18867 11.2526 9.42916 11.4218C9.66965 11.5911 9.85412 11.8282 9.95895 12.103C9.97134 12.1343 9.97583 12.1682 9.97204 12.2016C9.96824 12.2351 9.95627 12.2671 9.93717 12.2948C9.91808 12.3225 9.89246 12.3451 9.86256 12.3606C9.83267 12.3761 9.79943 12.384 9.76576 12.3835H7.44879C7.41513 12.384 7.38189 12.3761 7.35199 12.3606C7.3221 12.3451 7.29647 12.3225 7.27738 12.2948C7.25829 12.2671 7.24632 12.2351 7.24252 12.2016C7.23872 12.1682 7.24322 12.1343 7.25561 12.103C7.36067 11.8277 7.54571 11.5901 7.78692 11.4208Z" fill="white"/>
</svg>
