<svg width="20" height="20" viewBox="0 0 20 20" fill="none" xmlns="http://www.w3.org/2000/svg">
<rect width="20" height="20" rx="10" fill="#FFB169"/>
<g clip-path="url(#clip0_1521_6300)">
<path d="M7.70249 7.69805C8.17075 7.22811 8.7597 6.89662 9.40439 6.74014C10.0491 6.58366 10.7245 6.60826 11.3561 6.81124C11.4941 6.85533 11.6441 6.84276 11.7729 6.77631C11.9017 6.70985 11.9988 6.59494 12.0429 6.45686C12.087 6.31878 12.0745 6.16885 12.008 6.04003C11.9415 5.91122 11.8266 5.81408 11.6886 5.76999C10.8373 5.49761 9.92602 5.47343 9.06149 5.70026C8.19697 5.92709 7.41496 6.39555 6.80707 7.05078C6.19917 7.706 5.79055 8.52087 5.62905 9.39995C5.46755 10.279 5.55987 11.1859 5.89518 12.0144C5.90455 12.0377 5.90557 12.0635 5.89807 12.0874C5.89058 12.1113 5.87502 12.1319 5.85406 12.1457L5.24156 12.549C5.16909 12.5966 5.11237 12.6645 5.07858 12.7443C5.04479 12.8241 5.03545 12.9122 5.05176 12.9973C5.06807 13.0824 5.10929 13.1607 5.17018 13.2224C5.23108 13.284 5.30891 13.3262 5.39381 13.3435L7.32187 13.7408C7.35065 13.7468 7.37997 13.7499 7.40937 13.75C7.51015 13.7499 7.60781 13.715 7.68585 13.6513C7.76389 13.5875 7.81752 13.4987 7.83768 13.4L8.23756 11.4724C8.25499 11.3876 8.24691 11.2996 8.21435 11.2195C8.18178 11.1394 8.12619 11.0707 8.0546 11.0221C7.98301 10.9736 7.89863 10.9473 7.81213 10.9467C7.72563 10.9461 7.64089 10.9711 7.56862 11.0187L6.98281 11.4041C6.96869 11.4134 6.95262 11.4193 6.93583 11.4214C6.91905 11.4234 6.90202 11.4216 6.88608 11.4159C6.87014 11.4103 6.85572 11.401 6.84396 11.3889C6.8322 11.3767 6.82342 11.362 6.81831 11.3459C6.61792 10.7152 6.59439 10.0415 6.75029 9.39834C6.90619 8.75515 7.23554 8.16705 7.70249 7.69805ZM15.4489 7.55149C15.4344 7.46623 15.3949 7.3872 15.3355 7.32436C15.2761 7.26152 15.1994 7.21769 15.1151 7.19842L13.1953 6.76092C13.1392 6.74797 13.0811 6.74621 13.0244 6.75575C12.9676 6.76528 12.9133 6.78592 12.8645 6.81648C12.8158 6.84704 12.7735 6.88693 12.7402 6.93385C12.7068 6.98077 12.6831 7.03381 12.6703 7.08992L12.2328 9.00924C12.2136 9.09359 12.2198 9.18175 12.2507 9.26258C12.2815 9.3434 12.3357 9.41326 12.4062 9.46332C12.4768 9.51337 12.5606 9.54138 12.6471 9.54381C12.7336 9.54623 12.8189 9.52295 12.8921 9.47692L13.5234 9.08055C13.5373 9.07136 13.5532 9.06551 13.5697 9.06346C13.5863 9.06141 13.6031 9.06322 13.6188 9.06874C13.6345 9.0745 13.6487 9.08375 13.6603 9.0958C13.6719 9.10785 13.6806 9.12239 13.6857 9.1383C13.8896 9.76711 13.9168 10.4398 13.7644 11.083C13.612 11.7262 13.2859 12.3153 12.8216 12.7858C12.3574 13.2563 11.7728 13.5903 11.1317 13.7513C10.4906 13.9123 9.81755 13.8942 9.18606 13.6988C9.11687 13.6754 9.04371 13.6662 8.97088 13.6716C8.89806 13.6769 8.82705 13.6968 8.76204 13.7301C8.69704 13.7634 8.63935 13.8093 8.59239 13.8652C8.54542 13.9211 8.51013 13.9859 8.4886 14.0557C8.46706 14.1255 8.45972 14.1988 8.467 14.2715C8.47429 14.3441 8.49605 14.4146 8.531 14.4787C8.56595 14.5428 8.61339 14.5993 8.67052 14.6448C8.72765 14.6903 8.7933 14.7238 8.86362 14.7435C9.71248 15.0061 10.6184 15.0228 11.4763 14.7917C12.3343 14.5606 13.1092 14.0913 13.7114 13.4379C14.3136 12.7846 14.7184 11.974 14.879 11.1001C15.0395 10.2262 14.9492 9.32469 14.6185 8.49999C14.6094 8.47644 14.6087 8.45044 14.6167 8.42648C14.6247 8.40253 14.6408 8.3821 14.6622 8.36874L15.2511 7.99861C15.3248 7.95223 15.383 7.88491 15.4183 7.80525C15.4535 7.72559 15.4642 7.63723 15.4489 7.55149Z" fill="white"/>
</g>
<defs>
<clipPath id="clip0_1521_6300">
<rect width="10.5" height="10.5" fill="white" transform="translate(5 5)"/>
</clipPath>
</defs>
</svg>
