<svg width="16" height="16" viewBox="0 0 16 16" fill="none" xmlns="http://www.w3.org/2000/svg">
<path d="M15.0334 7.0406H3.62608C3.59234 7.04027 3.55948 7.02975 3.53182 7.01042C3.50417 6.99109 3.483 6.96384 3.4711 6.93226C3.45921 6.90068 3.45714 6.86624 3.46516 6.83347C3.47319 6.80069 3.49094 6.77111 3.51608 6.7486L9.27409 1.68193C9.4551 1.51126 9.5628 1.27698 9.57446 1.02846C9.58613 0.77994 9.50086 0.536599 9.33663 0.349718C9.17239 0.162837 8.94202 0.0470142 8.69406 0.0266583C8.44611 0.00630245 8.19993 0.0830039 8.00742 0.240598L0.553418 6.79993C0.383168 6.95008 0.246815 7.13473 0.153418 7.34163C0.0600215 7.54853 0.0117188 7.77293 0.0117188 7.99993C0.0117188 8.22693 0.0600215 8.45133 0.153418 8.65823C0.246815 8.86513 0.383168 9.04978 0.553418 9.19993L8.00608 15.7579C8.19875 15.9135 8.4441 15.9887 8.69087 15.9676C8.93764 15.9466 9.16673 15.831 9.33026 15.645C9.49379 15.459 9.57911 15.217 9.5684 14.9696C9.55768 14.7221 9.45175 14.4884 9.27275 14.3173L3.51475 9.2506C3.48961 9.22809 3.47186 9.19851 3.46383 9.16573C3.4558 9.13295 3.45787 9.09851 3.46977 9.06693C3.48167 9.03535 3.50283 9.00811 3.53049 8.98878C3.55815 8.96944 3.59101 8.95892 3.62475 8.9586H15.0334C15.2836 8.952 15.5212 8.848 15.6958 8.66875C15.8704 8.4895 15.9681 8.24916 15.9681 7.99893C15.9681 7.7487 15.8704 7.50836 15.6958 7.32911C15.5212 7.14986 15.2836 7.04586 15.0334 7.03926V7.0406Z" fill="#484848"/>
</svg>