<svg width="20" height="20" viewBox="0 0 20 20" fill="none" xmlns="http://www.w3.org/2000/svg">
<path d="M10.0015 17.2002V7.61643" stroke="#2266E2" stroke-width="1.2" stroke-linecap="round" stroke-linejoin="round"/>
<path d="M7.12646 10.4917L10.0016 7.61657L12.8767 10.4917" stroke="#2266E2" stroke-width="1.2" stroke-linecap="round" stroke-linejoin="round"/>
<path d="M12.3975 14.8047H13.8338C14.3421 14.8047 14.8297 14.6027 15.1891 14.2433C15.5486 13.8838 15.7505 13.3963 15.7505 12.8879V4.74174C15.7505 4.23338 15.5486 3.74585 15.1891 3.38639C14.8297 3.02693 14.3421 2.82498 13.8338 2.82498H6.16675C5.6584 2.82498 5.17086 3.02693 4.8114 3.38639C4.45194 3.74585 4.25 4.23338 4.25 4.74174V12.8879C4.25 13.3963 4.45194 13.8838 4.8114 14.2433C5.17086 14.6027 5.6584 14.8047 6.16675 14.8047H7.60432" stroke="#2266E2" stroke-width="1.2" stroke-linecap="round" stroke-linejoin="round"/>
</svg>
