<svg width="12" height="13" viewBox="0 0 12 13" fill="none" xmlns="http://www.w3.org/2000/svg">
<path d="M6 4V7" stroke="#5ABAFF" stroke-linecap="round" stroke-linejoin="round"/>
<path d="M6.1875 8.68751C6.1875 8.73724 6.16775 8.78493 6.13258 8.82009C6.09742 8.85525 6.04973 8.87501 6 8.87501M6 8.50001C6.04973 8.50001 6.09742 8.51976 6.13258 8.55492C6.16775 8.59009 6.1875 8.63778 6.1875 8.68751L6 8.50001ZM5.8125 8.68751C5.8125 8.63778 5.83225 8.59009 5.86742 8.55492C5.90258 8.51976 5.95027 8.50001 6 8.50001L5.8125 8.68751ZM6 8.87501C5.95027 8.87501 5.90258 8.85525 5.86742 8.82009C5.83225 8.78493 5.8125 8.73724 5.8125 8.68751L6 8.87501Z" stroke="#5ABAFF" stroke-linecap="round" stroke-linejoin="round"/>
<path d="M6 10.75C8.27817 10.75 10.125 8.90318 10.125 6.625C10.125 4.34683 8.27817 2.5 6 2.5C3.72183 2.5 1.875 4.34683 1.875 6.625C1.875 8.90318 3.72183 10.75 6 10.75Z" stroke="#5ABAFF" stroke-linecap="round" stroke-linejoin="round"/>
</svg>
