<svg width="13" height="13" viewBox="0 0 13 13" fill="none" xmlns="http://www.w3.org/2000/svg">
<path d="M11.6458 1.625H10.1562C10.1203 1.625 10.0859 1.61073 10.0605 1.58534C10.0351 1.55994 10.0208 1.5255 10.0208 1.48958V0.541667C10.0208 0.398008 9.96376 0.260233 9.86218 0.158651C9.7606 0.0570683 9.62282 0 9.47916 0C9.3355 0 9.19773 0.0570683 9.09615 0.158651C8.99456 0.260233 8.9375 0.398008 8.9375 0.541667V3.11458C8.9375 3.22233 8.89469 3.32566 8.81851 3.40185C8.74232 3.47803 8.63899 3.52083 8.53125 3.52083C8.4235 3.52083 8.32017 3.47803 8.24398 3.40185C8.1678 3.32566 8.125 3.22233 8.125 3.11458V1.89583C8.125 1.824 8.09646 1.75512 8.04567 1.70433C7.99488 1.65353 7.92599 1.625 7.85416 1.625H4.46875C4.43292 1.625 4.39856 1.61081 4.37318 1.58553C4.3478 1.56025 4.33347 1.52595 4.33333 1.49013V0.541667C4.33333 0.398008 4.27626 0.260233 4.17468 0.158651C4.0731 0.0570683 3.93532 0 3.79166 0C3.648 0 3.51023 0.0570683 3.40865 0.158651C3.30706 0.260233 3.24999 0.398008 3.24999 0.541667V3.11458C3.24999 3.22233 3.20719 3.32566 3.13101 3.40185C3.05482 3.47803 2.95149 3.52083 2.84374 3.52083C2.736 3.52083 2.63267 3.47803 2.55648 3.40185C2.4803 3.32566 2.43749 3.22233 2.43749 3.11458V1.89583C2.43749 1.824 2.40896 1.75512 2.35817 1.70433C2.30738 1.65353 2.23849 1.625 2.16666 1.625H1.35416C1.06684 1.625 0.791294 1.73914 0.588129 1.9423C0.384965 2.14547 0.270828 2.42102 0.270828 2.70833V11.9167C0.270828 12.204 0.384965 12.4795 0.588129 12.6827C0.791294 12.8859 1.06684 13 1.35416 13H11.6458C11.9331 13 12.2087 12.8859 12.4119 12.6827C12.615 12.4795 12.7292 12.204 12.7292 11.9167V2.70833C12.7292 2.42102 12.615 2.14547 12.4119 1.9423C12.2087 1.73914 11.9331 1.625 11.6458 1.625ZM11.6458 11.6458C11.6458 11.7177 11.6173 11.7866 11.5665 11.8373C11.5157 11.8881 11.4468 11.9167 11.375 11.9167H1.62499C1.55317 11.9167 1.48428 11.8881 1.43349 11.8373C1.3827 11.7866 1.35416 11.7177 1.35416 11.6458V5.14583C1.35416 5.074 1.3827 5.00512 1.43349 4.95433C1.48428 4.90353 1.55317 4.875 1.62499 4.875H11.375C11.4468 4.875 11.5157 4.90353 11.5665 4.95433C11.6173 5.00512 11.6458 5.074 11.6458 5.14583V11.6458Z" fill="#DDDDDD"/>
<path d="M6.60834 7.98688H6.39167C6.25094 7.99568 6.11241 7.94863 6.00614 7.85595C5.89987 7.76327 5.83442 7.63242 5.82401 7.4918C5.82401 7.12238 6.1008 6.99671 6.39276 6.99671L7.36776 6.99942C7.4755 6.99942 7.57883 6.95662 7.65502 6.88044C7.7312 6.80425 7.77401 6.70092 7.77401 6.59317C7.77401 6.48543 7.7312 6.3821 7.65502 6.30591C7.57883 6.22972 7.4755 6.18692 7.36776 6.18692H6.90626V5.86951C6.90626 5.76176 6.86345 5.65843 6.78727 5.58224C6.71108 5.50606 6.60775 5.46326 6.50001 5.46326C6.39226 5.46326 6.28893 5.50606 6.21274 5.58224C6.13656 5.65843 6.09376 5.76176 6.09376 5.86951V6.2178C5.84462 6.26804 5.61389 6.38527 5.42642 6.55688C5.29655 6.67599 5.1926 6.82056 5.12103 6.98159C5.04946 7.14263 5.01181 7.31667 5.01042 7.49288C5.02105 7.84906 5.17236 8.18651 5.43124 8.43138C5.69011 8.67624 6.03546 8.80857 6.39167 8.79938H6.60834C6.6794 8.7894 6.75178 8.79479 6.82059 8.81517C6.8894 8.83556 6.95303 8.87047 7.00719 8.91756C7.06134 8.96464 7.10477 9.02279 7.13453 9.0881C7.16428 9.1534 7.17968 9.22433 7.17968 9.29609C7.17968 9.36785 7.16428 9.43878 7.13453 9.50408C7.10477 9.56939 7.06134 9.62754 7.00719 9.67463C6.95303 9.72171 6.8894 9.75662 6.82059 9.77701C6.75178 9.79739 6.6794 9.80278 6.60834 9.7928H5.63334C5.52559 9.7928 5.42226 9.8356 5.34608 9.91179C5.26989 9.98797 5.22709 10.0913 5.22709 10.199C5.22709 10.3068 5.26989 10.4101 5.34608 10.4863C5.42226 10.5625 5.52559 10.6053 5.63334 10.6053H6.09267V10.9222C6.09267 11.0299 6.13547 11.1332 6.21166 11.2094C6.28785 11.2856 6.39118 11.3284 6.49892 11.3284C6.60667 11.3284 6.71 11.2856 6.78618 11.2094C6.86237 11.1332 6.90517 11.0299 6.90517 10.9222V10.5712C7.20481 10.5149 7.476 10.3574 7.67324 10.1249C7.87049 9.89248 7.9818 9.59926 7.98851 9.29447C7.97759 8.93848 7.82638 8.60125 7.56784 8.3563C7.30929 8.11136 6.96439 7.97856 6.60834 7.98688Z" fill="#DDDDDD"/>
</svg>
