<svg width="7" height="6" viewBox="0 0 7 6" fill="none" xmlns="http://www.w3.org/2000/svg">
<path d="M5.92477 2.31039C5.80038 1.76632 5.52499 1.2684 5.13026 0.873845C4.73553 0.479293 4.23748 0.204129 3.69336 0.0799817C3.19535 -0.0372803 2.67564 -0.0254328 2.18349 0.114402C1.69133 0.254236 1.24304 0.517426 0.881087 0.879029C0.519133 1.24063 0.25551 1.68867 0.115199 2.18069C-0.0251124 2.6727 -0.0374638 3.1924 0.0793158 3.69053C0.229474 4.35025 0.60052 4.93888 1.13098 5.35888C1.66143 5.77888 2.31946 6.00505 2.99604 5.99991C3.44926 6.00086 3.89682 5.89918 4.30514 5.7025C4.71346 5.50582 5.07195 5.21925 5.35373 4.86427C5.63551 4.50929 5.83326 4.09512 5.93216 3.65282C6.03105 3.21052 6.02853 2.75157 5.92477 2.31039ZM1.19552 3.86748C1.01775 3.49341 0.960131 3.07348 1.03056 2.66535C1.10099 2.25722 1.29602 1.8809 1.58888 1.58804C1.88173 1.29519 2.25806 1.10016 2.66619 1.02973C3.07432 0.959297 3.49424 1.01692 3.86831 1.19469C3.8861 1.20341 3.90156 1.21623 3.91342 1.2321C3.92528 1.24797 3.93319 1.26643 3.93651 1.28596C3.93983 1.30549 3.93846 1.32552 3.93251 1.34442C3.92657 1.36332 3.91621 1.38053 3.9023 1.39463L1.39647 3.90047C1.38238 3.91452 1.36516 3.92501 1.34622 3.93109C1.32728 3.93717 1.30717 3.93866 1.28754 3.93544C1.26792 3.93222 1.24934 3.92437 1.23334 3.91256C1.21734 3.90074 1.20437 3.88529 1.19552 3.86748ZM4.41667 4.41733C4.12374 4.71006 3.74743 4.90501 3.33934 4.97544C2.93126 5.04587 2.51137 4.98834 2.13727 4.81073C2.11957 4.80193 2.10419 4.78907 2.0924 4.7732C2.08061 4.75733 2.07273 4.73889 2.06942 4.7194C2.06611 4.69991 2.06745 4.67991 2.07333 4.66103C2.07921 4.64216 2.08948 4.62494 2.10328 4.61078L4.60912 2.10545C4.62322 2.09154 4.64043 2.08118 4.65933 2.07524C4.67823 2.06929 4.69827 2.06792 4.7178 2.07124C4.73732 2.07456 4.75578 2.08247 4.77165 2.09433C4.78752 2.10619 4.80034 2.12165 4.80906 2.13944C4.98669 2.51295 5.04434 2.93231 4.97408 3.3399C4.90382 3.74749 4.7091 4.12334 4.41667 4.41583V4.41733Z" fill="#717171"/>
</svg>
