<svg width="8" height="14" viewBox="0 0 8 14" fill="none" xmlns="http://www.w3.org/2000/svg">
<path d="M7.875 4.8125C7.875 4.4644 7.73672 4.13056 7.49058 3.88442C7.24444 3.63828 6.9106 3.5 6.5625 3.5V0.875C6.5625 0.642936 6.47031 0.420376 6.30622 0.256282C6.14212 0.0921874 5.91956 0 5.6875 0C5.45544 0 5.23288 0.0921874 5.06878 0.256282C4.90469 0.420376 4.8125 0.642936 4.8125 0.875V3.27775C4.8125 3.33577 4.78945 3.39141 4.74843 3.43243C4.70741 3.47345 4.65177 3.4965 4.59375 3.4965H3.28125C3.22323 3.4965 3.16759 3.47345 3.12657 3.43243C3.08555 3.39141 3.0625 3.33577 3.0625 3.27775V0.875C3.0625 0.642936 2.97031 0.420376 2.80622 0.256282C2.64212 0.0921874 2.41956 0 2.1875 0C1.95544 0 1.73288 0.0921874 1.56878 0.256282C1.40469 0.420376 1.3125 0.642936 1.3125 0.875V3.5C0.964403 3.5 0.630564 3.63828 0.384422 3.88442C0.138281 4.13056 0 4.4644 0 4.8125V7.4375C0 8.24973 0.322655 9.02868 0.896986 9.60301C1.47132 10.1773 2.25027 10.5 3.0625 10.5V13.125C3.0625 13.3571 3.15469 13.5796 3.31878 13.7437C3.48288 13.9078 3.70544 14 3.9375 14C4.16956 14 4.39212 13.9078 4.55622 13.7437C4.72031 13.5796 4.8125 13.3571 4.8125 13.125V10.5C5.62473 10.5 6.40368 10.1773 6.97801 9.60301C7.55234 9.02868 7.875 8.24973 7.875 7.4375V4.8125Z" fill="#5FCF64"/>
</svg>
