<svg
	width="14"
	height="14"
	viewBox="0 0 14 14"
	fill="none"
	xmlns="http://www.w3.org/2000/svg"
>
	<path
		d="M11.3097 0.568085C11.3319 0.523618 11.3425 0.474192 11.3403 0.424503C11.3381 0.374815 11.3232 0.326515 11.2971 0.284194C11.271 0.241873 11.2344 0.206936 11.191 0.182705C11.1476 0.158474 11.0987 0.145754 11.0489 0.145752H7.90942C7.85968 0.145754 7.81077 0.158474 7.76733 0.182705C7.7239 0.206936 7.68738 0.241873 7.66125 0.284194C7.63512 0.326515 7.62025 0.374815 7.61805 0.424503C7.61584 0.474192 7.62638 0.523618 7.64867 0.568085L8.27225 1.81525C8.2843 1.83944 8.30285 1.85979 8.32584 1.87401C8.34882 1.88824 8.37531 1.89576 8.40233 1.89575H10.5583C10.5855 1.89587 10.6121 1.8884 10.6352 1.87417C10.6583 1.85994 10.6769 1.83953 10.689 1.81525L11.3097 0.568085ZM11.2642 8.18467C11.238 8.15504 11.2019 8.13597 11.1627 8.131C11.143 8.12928 11.1232 8.13155 11.1045 8.13766C11.0857 8.14378 11.0684 8.15361 11.0536 8.16658C10.9472 8.26177 10.809 8.31378 10.6662 8.31242H6.85417C6.83468 8.31261 6.8152 8.31164 6.79583 8.3095L6.216 8.25117C6.19217 8.24866 6.16808 8.25209 6.14589 8.26114C6.1237 8.2702 6.1041 8.28461 6.08883 8.30309C5.32384 9.1553 4.87346 10.2436 4.8125 11.3872C4.8125 13.2083 6.9125 13.8541 8.71033 13.8541C10.5449 13.8541 12.7079 13.2083 12.6875 11.3872C12.5743 10.1932 12.0745 9.0688 11.2642 8.18467ZM8.50558 11.1906C8.03075 10.8715 7.58333 10.5699 7.58333 10.0992C7.56369 9.91473 7.61713 9.72994 7.73218 9.58445C7.84724 9.43897 8.01475 9.34438 8.19875 9.321C8.23097 9.31639 8.26046 9.30038 8.28187 9.27586C8.30328 9.25135 8.31519 9.21996 8.31542 9.18742C8.31542 9.07139 8.36151 8.96011 8.44356 8.87806C8.5256 8.79601 8.63688 8.74992 8.75292 8.74992C8.86895 8.74992 8.98023 8.79601 9.06228 8.87806C9.14432 8.96011 9.19042 9.07139 9.19042 9.18742C9.19042 9.2164 9.20189 9.24421 9.22233 9.26476C9.24277 9.28531 9.27052 9.29693 9.2995 9.29708H9.48208C9.59811 9.29708 9.70939 9.34318 9.79144 9.42523C9.87349 9.50727 9.91958 9.61855 9.91958 9.73458C9.91958 9.85062 9.87349 9.9619 9.79144 10.0439C9.70939 10.126 9.59811 10.1721 9.48208 10.1721H9.03992C9.00872 10.1721 8.97835 10.1821 8.95327 10.2007C8.92819 10.2193 8.90972 10.2454 8.90059 10.2752C8.89145 10.305 8.89212 10.337 8.9025 10.3664C8.91287 10.3959 8.93242 10.4212 8.95825 10.4387L8.99733 10.4649C9.46808 10.784 9.91667 11.0833 9.91667 11.5575C9.92918 11.7401 9.873 11.9208 9.75914 12.0641C9.64528 12.2075 9.48196 12.3031 9.30125 12.3322C9.26879 12.3374 9.23924 12.354 9.21788 12.379C9.19651 12.404 9.18471 12.4358 9.18458 12.4687C9.18458 12.5847 9.13849 12.696 9.05644 12.778C8.9744 12.8601 8.86312 12.9062 8.74708 12.9062C8.63105 12.9062 8.51977 12.8601 8.43772 12.778C8.35568 12.696 8.30958 12.5847 8.30958 12.4687C8.30958 12.4543 8.30674 12.4401 8.30122 12.4268C8.29571 12.4135 8.28762 12.4015 8.27743 12.3913C8.26724 12.3812 8.25514 12.3732 8.24184 12.3677C8.22854 12.3623 8.21429 12.3595 8.19992 12.3596H8.02083C7.9048 12.3596 7.79352 12.3135 7.71147 12.2314C7.62943 12.1494 7.58333 12.0381 7.58333 11.9221C7.58333 11.8061 7.62943 11.6948 7.71147 11.6127C7.79352 11.5307 7.9048 11.4846 8.02083 11.4846H8.46358C8.49475 11.4843 8.52502 11.4742 8.55 11.4555C8.57498 11.4369 8.59336 11.4108 8.60247 11.381C8.61158 11.3512 8.61094 11.3192 8.60065 11.2898C8.59036 11.2604 8.57095 11.235 8.54525 11.2174L8.50558 11.1906Z"
		fill="#5ABAFF"
	/>
	<path
		d="M6.84658 7.72855H10.5881C10.6121 7.72857 10.6357 7.72267 10.6569 7.71137C10.678 7.70008 10.6961 7.68374 10.7094 7.6638L11.0915 7.09096C11.1407 7.01702 11.1724 6.9328 11.1841 6.84475C11.1959 6.7567 11.1873 6.66713 11.1592 6.58288L11.0483 6.24921C11.0202 6.16496 11.0116 6.07539 11.0234 5.98734C11.0351 5.89929 11.0668 5.81508 11.116 5.74113L11.3254 5.4273C11.3894 5.33144 11.4235 5.21878 11.4235 5.10355C11.4235 4.98831 11.3894 4.87566 11.3254 4.7798L11.1737 4.5523C11.1098 4.45644 11.0757 4.34378 11.0757 4.22855C11.0757 4.11331 11.1098 4.00066 11.1737 3.9048L11.3254 3.6773C11.3894 3.58144 11.4235 3.46878 11.4235 3.35355C11.4235 3.23831 11.3894 3.12566 11.3254 3.0298L11.1312 2.73813C11.0779 2.65826 11.0057 2.59278 10.921 2.5475C10.8364 2.50222 10.7418 2.47853 10.6458 2.47855H7.81667C7.78967 2.47843 7.76323 2.47084 7.74028 2.45664C7.71732 2.44243 7.69874 2.42215 7.68658 2.39805L7.1505 1.3253C7.133 1.29081 7.10257 1.26464 7.06585 1.25251C7.02913 1.24038 6.9891 1.24327 6.9545 1.26055L5.86133 1.8083C5.74851 1.86473 5.65702 1.95622 5.60058 2.06905L4.92042 3.42938C4.85108 3.56741 4.72982 3.6723 4.58325 3.72105L4.03725 3.90305C4.00822 3.91271 3.98297 3.93127 3.96507 3.95608C3.94717 3.98089 3.93752 4.0107 3.9375 4.0413V7.30446C3.93746 7.34064 3.95088 7.37554 3.97513 7.40238C3.99939 7.42923 4.03275 7.44609 4.06875 7.44971L6.84658 7.72855ZM2.47917 3.6458H1.45833C1.41966 3.6458 1.38256 3.66116 1.35521 3.68851C1.32786 3.71586 1.3125 3.75295 1.3125 3.79163V7.5833C1.3125 7.62197 1.32786 7.65907 1.35521 7.68642C1.38256 7.71377 1.41966 7.72913 1.45833 7.72913H2.47917C2.63388 7.72913 2.78225 7.66767 2.89165 7.55827C3.00104 7.44888 3.0625 7.30051 3.0625 7.1458V4.22913C3.0625 4.07442 3.00104 3.92605 2.89165 3.81665C2.78225 3.70725 2.63388 3.6458 2.47917 3.6458Z"
		fill="#5ABAFF"
	/>
</svg>
