<svg width="14" height="14" viewBox="0 0 14 14" fill="none" xmlns="http://www.w3.org/2000/svg">
<g clip-path="url(#clip0_14209_113649)">
<path d="M14 6.99994C14.0036 6.5398 13.8822 6.08732 13.6488 5.69076C13.4154 5.29421 13.0787 4.96846 12.6746 4.74827C12.6455 4.73233 12.6227 4.70694 12.61 4.67629C12.5973 4.64564 12.5954 4.61156 12.6046 4.57969C12.7309 4.13796 12.7368 3.6705 12.6216 3.22575C12.5064 2.78099 12.2744 2.37514 11.9496 2.05025C11.6247 1.72535 11.2189 1.49324 10.7742 1.37798C10.3294 1.26271 9.86198 1.26848 9.42023 1.39469C9.38836 1.40395 9.35428 1.40206 9.32363 1.38933C9.29298 1.3766 9.26758 1.3538 9.25164 1.32469C9.02852 0.92319 8.7021 0.588651 8.30619 0.355736C7.91029 0.12282 7.45931 0 6.99998 0C6.54064 0 6.08966 0.12282 5.69376 0.355736C5.29786 0.588651 4.97144 0.92319 4.74831 1.32469C4.73245 1.35388 4.70707 1.37674 4.67639 1.38948C4.64571 1.40222 4.6116 1.40406 4.57973 1.39469C4.13798 1.26848 3.67051 1.26271 3.22578 1.37798C2.78105 1.49324 2.37523 1.72535 2.0504 2.05025C1.72557 2.37514 1.49353 2.78099 1.37835 3.22575C1.26316 3.6705 1.26902 4.13796 1.39531 4.57969C1.40468 4.61156 1.40284 4.64568 1.3901 4.67635C1.37736 4.70703 1.35449 4.73241 1.32531 4.74827C0.923652 4.97127 0.588955 5.29765 0.355922 5.69357C0.122888 6.08949 0 6.54053 0 6.99994C0 7.45935 0.122888 7.9104 0.355922 8.30631C0.588955 8.70223 0.923652 9.02861 1.32531 9.25161C1.35447 9.26765 1.37729 9.29315 1.39001 9.3239C1.40273 9.35465 1.4046 9.38882 1.39531 9.42077C1.26915 9.86246 1.2634 10.3299 1.37864 10.7745C1.49389 11.2192 1.72594 11.6249 2.05075 11.9497C2.37556 12.2746 2.78132 12.5066 3.22598 12.6219C3.67065 12.7371 4.13804 12.7313 4.57973 12.6052C4.6116 12.5959 4.64567 12.5978 4.67632 12.6106C4.70698 12.6233 4.73237 12.6461 4.74831 12.6752C4.97144 13.0767 5.29786 13.4112 5.69376 13.6441C6.08966 13.8771 6.54064 13.9999 6.99998 13.9999C7.45931 13.9999 7.91029 13.8771 8.30619 13.6441C8.7021 13.4112 9.02852 13.0767 9.25164 12.6752C9.2675 12.646 9.29289 12.6231 9.32357 12.6104C9.35424 12.5977 9.38836 12.5958 9.42023 12.6052C9.86194 12.7315 10.3294 12.7374 10.7742 12.6223C11.2189 12.5071 11.6248 12.2751 11.9496 11.9502C12.2745 11.6253 12.5066 11.2195 12.6217 10.7747C12.7369 10.33 12.731 9.86248 12.6046 9.42077C12.5954 9.38882 12.5972 9.35465 12.6099 9.3239C12.6227 9.29315 12.6455 9.26765 12.6746 9.25161C13.0788 9.03157 13.4156 8.70585 13.6491 8.30926C13.8825 7.91267 14.0038 7.46011 14 6.99994ZM9.13381 10.2001C8.92274 10.2002 8.71639 10.1377 8.54084 10.0205C8.3653 9.90335 8.22846 9.73673 8.14764 9.54175C8.06681 9.34677 8.04563 9.1322 8.08678 8.92519C8.12793 8.71817 8.22956 8.52801 8.3788 8.37877C8.52805 8.22952 8.71821 8.12789 8.92523 8.08675C9.13224 8.0456 9.34681 8.06678 9.54179 8.1476C9.73676 8.22842 9.90339 8.36526 10.0206 8.54081C10.1378 8.71635 10.2003 8.92271 10.2001 9.13377C10.2 9.41654 10.0876 9.68767 9.88765 9.88761C9.68771 10.0876 9.41657 10.2 9.13381 10.2001ZM4.56689 10.2584C4.4555 10.3557 4.3113 10.4071 4.16348 10.4021C4.01566 10.3971 3.87525 10.3362 3.77066 10.2316C3.66608 10.127 3.60513 9.98659 3.60014 9.83877C3.59516 9.69095 3.64651 9.54675 3.74381 9.43536L9.43306 3.74611C9.48563 3.68592 9.55001 3.63718 9.6222 3.6029C9.6944 3.56863 9.77286 3.54955 9.85273 3.54686C9.9326 3.54416 10.0122 3.55791 10.0865 3.58724C10.1608 3.61658 10.2284 3.66087 10.2849 3.71738C10.3414 3.77389 10.3857 3.8414 10.415 3.91574C10.4443 3.99008 10.4581 4.06965 10.4554 4.14952C10.4527 4.22939 10.4336 4.30786 10.3994 4.38005C10.3651 4.45224 10.3163 4.51662 10.2561 4.56919L4.56689 10.2584ZM4.86673 3.79977C5.07777 3.79977 5.28407 3.86236 5.45953 3.97962C5.635 4.09688 5.77175 4.26355 5.85249 4.45853C5.93322 4.65352 5.95431 4.86807 5.9131 5.07505C5.87189 5.28203 5.77021 5.47213 5.62094 5.62132C5.47168 5.77051 5.28151 5.87208 5.07451 5.91318C4.86751 5.95428 4.65297 5.93307 4.45803 5.85223C4.26309 5.77138 4.0965 5.63454 3.97933 5.45901C3.86217 5.28348 3.79969 5.07715 3.79981 4.86611C3.79996 4.58324 3.91244 4.31202 4.11251 4.11206C4.31258 3.9121 4.58386 3.79977 4.86673 3.79977Z" fill="#5ABAFF"/>
</g>
<defs>
<clipPath id="clip0_14209_113649">
<rect width="14" height="14" fill="white"/>
</clipPath>
</defs>
</svg>
