<svg width="12" height="12" viewBox="0 0 12 12" fill="none" xmlns="http://www.w3.org/2000/svg">
<path d="M7.125 8.25H6.75C6.55109 8.25 6.36032 8.17098 6.21967 8.03033C6.07902 7.88968 6 7.69891 6 7.5V5.625C6 5.52554 5.96049 5.43016 5.89016 5.35984C5.81984 5.28951 5.72446 5.25 5.625 5.25H5.25M5.8125 3.375C5.77542 3.375 5.73916 3.386 5.70833 3.4066C5.6775 3.4272 5.65346 3.45649 5.63927 3.49075C5.62508 3.52501 5.62137 3.56271 5.6286 3.59908C5.63584 3.63545 5.65369 3.66886 5.67992 3.69508C5.70614 3.7213 5.73955 3.73916 5.77592 3.7464C5.81229 3.75363 5.84999 3.74992 5.88425 3.73573C5.91851 3.72154 5.9478 3.6975 5.9684 3.66667C5.989 3.63584 6 3.59958 6 3.5625C6 3.51277 5.98025 3.46508 5.94508 3.42992C5.90992 3.39475 5.86223 3.375 5.8125 3.375Z" stroke="#717171" stroke-width="0.75" stroke-linecap="round" stroke-linejoin="round"/>
<path d="M6 11.625C9.1066 11.625 11.625 9.1066 11.625 6C11.625 2.8934 9.1066 0.375 6 0.375C2.8934 0.375 0.375 2.8934 0.375 6C0.375 9.1066 2.8934 11.625 6 11.625Z" stroke="#717171" stroke-width="0.75" stroke-linecap="round" stroke-linejoin="round"/>
</svg>
