<svg width="12" height="12" viewBox="0 0 12 12" fill="none" xmlns="http://www.w3.org/2000/svg">
<circle opacity="0.2" cx="6" cy="6" r="6" fill="#5FCF64"/>
<path d="M3.95754 6.45149C3.80286 6.48309 3.66291 6.47677 3.53033 6.43885C3.44931 6.41357 3.36092 6.3946 3.27253 6.37564C3.13258 6.35036 3 6.43885 3 6.56525V7.75975C3 7.99359 3.22097 8.18319 3.4935 8.18319H4.89298C5.03293 8.18319 5.14342 8.29695 5.11395 8.41704C5.09186 8.4992 5.06976 8.58136 5.03293 8.66352C4.98874 8.77728 4.98137 8.90368 5.0182 9.03009C5.08449 9.25129 5.28336 9.42193 5.54116 9.47881C6.03466 9.58625 6.46924 9.27025 6.46924 8.86576C6.46924 8.79624 6.45451 8.73304 6.43241 8.66984C6.40295 8.58768 6.37349 8.50552 6.35139 8.42336C6.32193 8.30327 6.42505 8.18951 6.57236 8.18951H7.97184C8.24437 8.18951 8.46534 7.99991 8.46534 7.76607V6.56525C8.46534 6.44517 8.59792 6.35036 8.73787 6.37564C8.83363 6.3946 8.92938 6.41357 9.02513 6.44517C9.15772 6.48309 9.30503 6.48941 9.45234 6.45781C9.71014 6.40093 9.90902 6.23028 9.97531 6.00908C10.1005 5.58563 9.73224 5.21275 9.26084 5.21275C9.17981 5.21275 9.10616 5.22539 9.0325 5.24435C8.93675 5.26963 8.84099 5.29491 8.74524 5.31387C8.60529 5.33915 8.47271 5.25067 8.47271 5.12427V3.92345C8.47271 3.6896 8.25174 3.5 7.97921 3.5H3.4935C3.22097 3.5 3 3.6896 3 3.92345V5.11795C3 5.24435 3.13258 5.33283 3.27253 5.30755C3.36092 5.28859 3.44194 5.26963 3.53033 5.24435C3.60399 5.22539 3.67764 5.21275 3.75867 5.21275C4.23007 5.21275 4.59835 5.59195 4.47314 6.00908C4.41421 6.22396 4.20797 6.3946 3.95754 6.45149Z" fill="#5FCF64"/>
</svg>
