<svg width="80" height="80" viewBox="0 0 80 80" fill="none" xmlns="http://www.w3.org/2000/svg">
<g clip-path="url(#clip0_32_3225)">
<circle cx="40" cy="40" r="40" fill="#E8F0FC"/>
<rect x="1" y="-2" width="77" height="18" fill="#5FCF64"/>
<rect width="104" height="58" transform="translate(-12 12)" fill="#F6F7FA"/>
<rect x="-10" y="14" width="32" height="12" rx="1" fill="#EBEBEB"/>
<rect x="24" y="14" width="32" height="12" rx="1" fill="#EBEBEB"/>
<rect x="58" y="14" width="32" height="12" rx="1" fill="#EBEBEB"/>
<rect x="-10" y="28" width="32" height="12" rx="1" fill="#EBEBEB"/>
<rect x="24" y="28" width="32" height="12" rx="1" fill="white" stroke="#5FCF64" stroke-width="0.5"/>
<rect x="58" y="28" width="32" height="12" rx="1" fill="#EBEBEB"/>
<rect x="26" y="30" width="0.5" height="8" fill="#D9D9D9"/>
<rect x="-10" y="42" width="32" height="12" rx="1" fill="#EBEBEB"/>
<rect x="24" y="42" width="32" height="12" rx="1" fill="#EBEBEB"/>
<rect x="58" y="42" width="32" height="12" rx="1" fill="#EBEBEB"/>
<rect x="24" y="41" width="32" height="10" rx="2" fill="white"/>
<rect x="25" y="42" width="23" height="2" rx="1" fill="#DDDDDD"/>
<rect x="25" y="45" width="14" height="2" rx="1" fill="#DDDDDD"/>
<rect x="25" y="48" width="19" height="2" rx="1" fill="#DDDDDD"/>
<rect x="-10" y="56" width="32" height="12" rx="1" fill="#EBEBEB"/>
<rect x="24" y="56" width="32" height="12" rx="1" fill="#EBEBEB"/>
<rect x="58" y="56" width="32" height="12" rx="1" fill="#EBEBEB"/>
</g>
<defs>
<clipPath id="clip0_32_3225">
<rect width="80" height="80" rx="40" fill="white"/>
</clipPath>
</defs>
</svg>
