<svg width="80" height="80" viewBox="0 0 80 80" fill="none" xmlns="http://www.w3.org/2000/svg">
<g clip-path="url(#clip0_32_2728)">
<circle cx="40" cy="40" r="40" fill="#E8F0FC"/>
<rect x="10" width="73" height="52" fill="#F6F7FA"/>
<path d="M10 52H83V68H14C11.7909 68 10 66.2091 10 64V52Z" fill="#EBEBEB"/>
<rect x="11" y="53" width="52" height="14" rx="3" fill="white"/>
<path d="M18 54C16.8133 54 15.6533 54.3519 14.6666 55.0112C13.6799 55.6705 12.9109 56.6075 12.4567 57.7039C12.0026 58.8003 11.8838 60.0067 12.1153 61.1705C12.3468 62.3344 12.9182 63.4035 13.7574 64.2426C14.5965 65.0818 15.6656 65.6532 16.8295 65.8847C17.9933 66.1162 19.1997 65.9974 20.2961 65.5433C21.3925 65.0892 22.3295 64.3201 22.9888 63.3334C23.6481 62.3467 24 61.1867 24 60C23.9983 58.4092 23.3656 56.8841 22.2407 55.7593C21.1159 54.6344 19.5908 54.0017 18 54V54ZM20.374 61.332L18.374 63.582C18.3271 63.6352 18.2694 63.6778 18.2047 63.707C18.1401 63.7362 18.0699 63.7513 17.999 63.7513C17.9281 63.7513 17.8579 63.7362 17.7933 63.707C17.7286 63.6778 17.6709 63.6352 17.624 63.582L15.624 61.332C15.5599 61.2598 15.5181 61.1706 15.5035 61.0751C15.489 60.9797 15.5025 60.8821 15.5422 60.7941C15.582 60.7061 15.6464 60.6315 15.7276 60.5793C15.8088 60.5271 15.9035 60.4996 16 60.5H17.125C17.1582 60.5 17.1899 60.4868 17.2134 60.4634C17.2368 60.4399 17.25 60.4082 17.25 60.375V56.75C17.25 56.5511 17.329 56.3603 17.4697 56.2197C17.6103 56.079 17.8011 56 18 56C18.1989 56 18.3897 56.079 18.5303 56.2197C18.671 56.3603 18.75 56.5511 18.75 56.75V60.375C18.75 60.4082 18.7632 60.4399 18.7866 60.4634C18.8101 60.4868 18.8419 60.5 18.875 60.5H20C20.0964 60.5 20.1907 60.5278 20.2716 60.5801C20.3526 60.6325 20.4167 60.7071 20.4562 60.795C20.4957 60.8829 20.509 60.9804 20.4944 61.0756C20.4798 61.1709 20.438 61.2599 20.374 61.332Z" fill="#82A7ED"/>
<rect x="26" y="57" width="35" height="3" rx="1" fill="#DDDDDD"/>
<rect x="26" y="61" width="21" height="2" rx="1" fill="#DDDDDD"/>
<path d="M33.8191 43.0271C33.7544 43.1757 33.7344 43.3401 33.7616 43.4999C33.7888 43.6598 33.8621 43.8082 33.9725 43.9271L39.1058 49.4554C39.2199 49.5786 39.3582 49.677 39.5121 49.7442C39.6659 49.8115 39.832 49.8462 40 49.8462C40.1679 49.8462 40.334 49.8115 40.4879 49.7442C40.6418 49.677 40.7801 49.5786 40.8941 49.4554L46.0275 43.9271C46.138 43.8082 46.2114 43.6597 46.2387 43.4997C46.266 43.3397 46.246 43.1752 46.1811 43.0265C46.1162 42.8777 46.0093 42.7511 45.8735 42.6623C45.7377 42.5734 45.5789 42.5261 45.4166 42.5262H42.7083C42.6531 42.5262 42.6001 42.5043 42.561 42.4652C42.5219 42.4261 42.5 42.3731 42.5 42.3179V38.6087C42.5 38.3877 42.4122 38.1757 42.2559 38.0195C42.0996 37.8632 41.8877 37.7754 41.6666 37.7754H38.3333C38.1123 37.7754 37.9003 37.8632 37.7441 38.0195C37.5878 38.1757 37.5 38.3877 37.5 38.6087V42.3179C37.5 42.3731 37.478 42.4261 37.439 42.4652C37.3999 42.5043 37.3469 42.5262 37.2916 42.5262H34.5833C34.421 42.5262 34.2622 42.5736 34.1265 42.6626C33.9907 42.7515 33.8839 42.8782 33.8191 43.0271Z" fill="#5FCF64"/>
<path d="M41.6667 33.2539H38.3333C37.8731 33.2539 37.5 33.627 37.5 34.0872V35.7656C37.5 36.2258 37.8731 36.5989 38.3333 36.5989H41.6667C42.1269 36.5989 42.5 36.2258 42.5 35.7656V34.0872C42.5 33.627 42.1269 33.2539 41.6667 33.2539Z" fill="#5FCF64"/>
<path d="M41.6667 30.0059H38.3333C37.8731 30.0059 37.5 30.379 37.5 30.8392V31.2442C37.5 31.7044 37.8731 32.0775 38.3333 32.0775H41.6667C42.1269 32.0775 42.5 31.7044 42.5 31.2442V30.8392C42.5 30.379 42.1269 30.0059 41.6667 30.0059Z" fill="#5FCF64"/>
</g>
<defs>
<clipPath id="clip0_32_2728">
<rect width="80" height="80" rx="40" fill="white"/>
</clipPath>
</defs>
</svg>
