<svg width="80" height="80" viewBox="0 0 80 80" fill="none" xmlns="http://www.w3.org/2000/svg">
<g clip-path="url(#clip0_39_2129)">
<circle cx="40" cy="40" r="40" fill="#E8F0FC"/>
<g clip-path="url(#clip1_39_2129)">
<rect x="6" y="16" width="68" height="4" fill="#FFDC7A"/>
<rect width="68" height="3" transform="translate(6 20)" fill="#F6F7FA"/>
<rect x="7" y="21" width="66" height="2" rx="1" fill="#EBEBEB"/>
<rect width="68" height="33" transform="translate(6 23)" fill="#F6F7FA"/>
<rect x="7" y="24" width="14" height="31" rx="1" fill="#EBEBEB"/>
<rect x="22" y="24" width="51" height="31" rx="1" fill="white"/>
<rect width="68" height="2" transform="translate(6 56)" fill="#F6F7FA"/>
<rect x="22" y="56" width="51" height="2" rx="1" fill="#EBEBEB"/>
<rect width="68" height="6" transform="translate(6 58)" fill="#F6F7FA"/>
<rect x="40" y="59" width="16" height="4" rx="1" fill="#DDDDDD"/>
<rect x="57" y="59" width="16" height="4" rx="1" fill="#B1C8F3"/>
</g>
<g clip-path="url(#clip2_39_2129)">
<path d="M30.0001 46.325C30.0009 47.2166 30.3555 48.0713 30.9859 48.7017C31.6163 49.3321 32.471 49.6867 33.3626 49.6875H46.6376C47.5291 49.6867 48.3838 49.3321 49.0142 48.7017C49.6446 48.0713 49.9992 47.2166 50.0001 46.325V44.7634C50.004 44.6269 49.9804 44.4911 49.9309 44.3639C49.8814 44.2366 49.8069 44.1207 49.7117 44.0228C49.6166 43.9249 49.5028 43.847 49.377 43.7939C49.2513 43.7408 49.1161 43.7134 48.9796 43.7134C48.8431 43.7134 48.708 43.7408 48.5823 43.7939C48.4565 43.847 48.3427 43.9249 48.2476 44.0228C48.1524 44.1207 48.0779 44.2366 48.0284 44.3639C47.9788 44.4911 47.9553 44.6269 47.9592 44.7634V46.325C47.9588 46.6754 47.8194 47.0113 47.5716 47.2591C47.3239 47.5069 46.9879 47.6463 46.6376 47.6467H33.3626C33.0122 47.6463 32.6762 47.5069 32.4285 47.2591C32.1807 47.0113 32.0413 46.6754 32.0409 46.325V44.7634C32.0448 44.6269 32.0213 44.4911 31.9717 44.3639C31.9222 44.2366 31.8477 44.1207 31.7525 44.0228C31.6574 43.9249 31.5436 43.847 31.4179 43.7939C31.2921 43.7408 31.157 43.7134 31.0205 43.7134C30.884 43.7134 30.7488 43.7408 30.6231 43.7939C30.4973 43.847 30.3835 43.9249 30.2884 44.0228C30.1933 44.1207 30.1187 44.2366 30.0692 44.3639C30.0197 44.4911 29.9962 44.6269 30.0001 44.7634V46.325Z" fill="#2266E2"/>
<path d="M39.9999 46.1017C40.4329 46.1017 40.8481 45.9297 41.1543 45.6235C41.4605 45.3174 41.6324 44.9022 41.6324 44.4692V36.8334C41.6324 36.7781 41.6544 36.7251 41.6935 36.686C41.7325 36.647 41.7855 36.625 41.8408 36.625H44.0833C44.2399 36.6251 44.3933 36.5802 44.525 36.4955C44.6568 36.4108 44.7614 36.29 44.8263 36.1474C44.8913 36.0049 44.9138 35.8467 44.8912 35.6917C44.8687 35.5367 44.802 35.3915 44.6991 35.2734L40.6158 30.5834C40.537 30.4989 40.4416 30.4316 40.3357 30.3856C40.2297 30.3395 40.1155 30.3158 39.9999 30.3158C39.8844 30.3158 39.7702 30.3395 39.6642 30.3856C39.5583 30.4316 39.4629 30.4989 39.3841 30.5834L35.3008 35.2775C35.199 35.3957 35.1331 35.5406 35.1112 35.6951C35.0892 35.8495 35.112 36.0071 35.1768 36.149C35.2416 36.2909 35.3457 36.4112 35.4769 36.4957C35.608 36.5803 35.7606 36.6254 35.9166 36.6259H38.1591C38.2144 36.6259 38.2674 36.6478 38.3064 36.6869C38.3455 36.7259 38.3674 36.7789 38.3674 36.8342V44.4692C38.3674 44.9022 38.5394 45.3174 38.8456 45.6235C39.1517 45.9297 39.567 46.1017 39.9999 46.1017Z" fill="#2266E2"/>
</g>
</g>
<defs>
<clipPath id="clip0_39_2129">
<rect width="80" height="80" rx="40" fill="white"/>
</clipPath>
<clipPath id="clip1_39_2129">
<rect x="6" y="16" width="68" height="48" rx="2" fill="white"/>
</clipPath>
<clipPath id="clip2_39_2129">
<rect width="20" height="20" fill="white" transform="translate(30 30)"/>
</clipPath>
</defs>
</svg>
