<svg width="12" height="12" viewBox="0 0 12 12" fill="none" xmlns="http://www.w3.org/2000/svg">
<path d="M11.9972 5.89572C11.9796 4.3146 11.3409 2.80383 10.2189 1.68964C9.66349 1.13857 9.00274 0.705067 8.27608 0.415006C7.54943 0.124945 6.77179 -0.0157252 5.98957 0.0013944C4.38672 0.0277355 2.85862 0.683756 1.73554 1.82766C1.17381 2.38746 0.730672 3.05474 0.432616 3.78965C0.134561 4.52455 -0.0123008 5.312 0.00080603 6.10494C-5.55032e-05 6.87969 0.151981 7.64701 0.448203 8.3629C0.744424 9.0788 1.17901 9.7292 1.72705 10.2768C2.27509 10.8245 2.92581 11.2586 3.64192 11.5543C4.35804 11.85 5.12546 12.0014 5.90022 12H6.00846C7.61148 11.9827 9.14221 11.3304 10.2649 10.186C11.3876 9.04169 12.0106 7.49878 11.9972 5.89572ZM5.27258 3.09312C5.27258 2.90046 5.34911 2.71568 5.48534 2.57945C5.62158 2.44322 5.80635 2.36668 5.99901 2.36668C6.19168 2.36668 6.37645 2.44322 6.51268 2.57945C6.64892 2.71568 6.72545 2.90046 6.72545 3.09312V6.3621C6.72545 6.55476 6.64892 6.73953 6.51268 6.87576C6.37645 7.012 6.19168 7.08853 5.99901 7.08853C5.80635 7.08853 5.62158 7.012 5.48534 6.87576C5.34911 6.73953 5.27258 6.55476 5.27258 6.3621V3.09312ZM6.015 9.64778H5.99901C5.75818 9.6498 5.52642 9.55607 5.35469 9.38721C5.18297 9.21835 5.08536 8.98819 5.08334 8.74736C5.08132 8.50653 5.17504 8.27476 5.34391 8.10304C5.51277 7.93131 5.74293 7.8337 5.98376 7.83168H5.99901C6.23984 7.82975 6.47157 7.92358 6.64323 8.09251C6.81488 8.26144 6.9124 8.49164 6.91433 8.73247C6.91625 8.9733 6.82243 9.20503 6.6535 9.37668C6.48457 9.54834 6.25437 9.64585 6.01354 9.64778H6.015Z" fill="#FFB169"/>
</svg>
