<svg width="12" height="12" viewBox="0 0 12 12" fill="none" xmlns="http://www.w3.org/2000/svg">
<path d="M6 3.5V6.5" stroke="#FFB169" stroke-linecap="round" stroke-linejoin="round"/>
<path d="M6.1875 8.1875C6.1875 8.23723 6.16775 8.28492 6.13258 8.32008C6.09742 8.35525 6.04973 8.375 6 8.375M6 8C6.04973 8 6.09742 8.01975 6.13258 8.05492C6.16775 8.09008 6.1875 8.13777 6.1875 8.1875L6 8ZM5.8125 8.1875C5.8125 8.13777 5.83225 8.09008 5.86742 8.05492C5.90258 8.01975 5.95027 8 6 8L5.8125 8.1875ZM6 8.375C5.95027 8.375 5.90258 8.35525 5.86742 8.32008C5.83225 8.28492 5.8125 8.23723 5.8125 8.1875L6 8.375Z" stroke="#FFB169" stroke-linecap="round" stroke-linejoin="round"/>
<path d="M6 10.25C8.27817 10.25 10.125 8.40318 10.125 6.125C10.125 3.84683 8.27817 2 6 2C3.72183 2 1.875 3.84683 1.875 6.125C1.875 8.40318 3.72183 10.25 6 10.25Z" stroke="#FFB169" stroke-linecap="round" stroke-linejoin="round"/>
</svg>
