<svg width="10" height="11" viewBox="0 0 10 11" fill="none" xmlns="http://www.w3.org/2000/svg">
<path d="M6.17857 9.3628L4.6118 9.73232C4.54254 9.74865 4.48261 9.79183 4.44519 9.85235C4.40777 9.91287 4.39592 9.98578 4.41225 10.055C4.47759 10.3321 4.6503 10.5718 4.89238 10.7215C5.13446 10.8711 5.42609 10.9185 5.70311 10.8532C5.98014 10.7879 6.21986 10.6152 6.36954 10.3731C6.51923 10.131 6.56662 9.83936 6.50128 9.56234C6.48495 9.49308 6.44177 9.43315 6.38125 9.39573C6.32073 9.35831 6.24782 9.34646 6.17857 9.3628ZM8.68146 7.11857C8.54295 7.15124 8.39713 7.12755 8.27609 7.0527C8.15505 6.97786 8.06869 6.858 8.03603 6.71949L7.48175 4.36933C7.05667 2.56702 5.57193 1.33715 4.02377 1.39521L3.82349 0.546018C3.79082 0.407507 3.70446 0.287646 3.58342 0.212803C3.46238 0.137961 3.31657 0.114267 3.17805 0.146935C3.03954 0.179603 2.91968 0.265955 2.84484 0.386997C2.77 0.508039 2.7463 0.653854 2.77897 0.792365L2.97938 1.64208C1.56843 2.28192 0.789714 4.04563 1.21466 5.84742L1.76894 8.19757C1.80161 8.33608 1.77792 8.4819 1.70308 8.60294C1.62823 8.72398 1.50837 8.81033 1.36986 8.843C1.23135 8.87567 1.11149 8.96202 1.03665 9.08306C0.961804 9.20411 0.938111 9.34992 0.970778 9.48843C1.00345 9.62694 1.0898 9.7468 1.21084 9.82165C1.33188 9.89649 1.4777 9.92018 1.61621 9.88752L8.9278 8.16308C9.06631 8.13042 9.18618 8.04406 9.26102 7.92302C9.33586 7.80198 9.35956 7.65616 9.32689 7.51765C9.29422 7.37914 9.20787 7.25928 9.08683 7.18444C8.96578 7.1096 8.81997 7.0859 8.68146 7.11857Z" fill="#2266E2"/>
</svg>
