<svg width="6" height="12" viewBox="0 0 6 12" fill="none" xmlns="http://www.w3.org/2000/svg">
<path d="M5.84698 6.40416C5.89549 6.35111 5.93397 6.28811 5.96023 6.21876C5.98649 6.14941 6 6.07507 6 6C6 5.92493 5.98649 5.85059 5.96023 5.78124C5.93397 5.71189 5.89549 5.64889 5.84698 5.59584L0.890527 0.167583C0.817592 0.0875874 0.724621 0.0330954 0.623389 0.0110083C0.522156 -0.0110788 0.417216 0.000232697 0.321857 0.0435104C0.226498 0.0867872 0.145011 0.160084 0.0877156 0.254117C0.0304199 0.34815 -0.000107233 0.45869 2.83027e-07 0.571737L2.83027e-07 1.42845C-7.10039e-05 1.50348 0.0133579 1.57779 0.0395198 1.64714C0.0656816 1.71649 0.104064 1.77951 0.152473 1.8326L3.76264 5.78582C3.78837 5.81392 3.80877 5.84731 3.8227 5.88406C3.83662 5.92081 3.84379 5.96021 3.84379 6C3.84379 6.03979 3.83662 6.07919 3.8227 6.11594C3.80877 6.15269 3.78837 6.18608 3.76264 6.21418L0.152473 10.1674C0.104064 10.2205 0.0656816 10.2835 0.0395198 10.3529C0.0133579 10.4222 -7.10039e-05 10.4965 2.83027e-07 10.5716L2.83027e-07 11.4283C-0.000107233 11.5413 0.0304199 11.6519 0.0877156 11.7459C0.145011 11.8399 0.226498 11.9132 0.321857 11.9565C0.417216 11.9998 0.522156 12.0111 0.623389 11.989C0.724621 11.9669 0.817592 11.9124 0.890527 11.8324L5.84698 6.40416Z" fill="#717171"/>
</svg>