<svg width="14" height="21" viewBox="0 0 14 21" fill="none" xmlns="http://www.w3.org/2000/svg">
<path fill-rule="evenodd" clip-rule="evenodd" d="M6.26325 0.560526C4.38025 3.49878 0 10.6729 0 13.7905C0 15.647 0.737498 17.4275 2.05025 18.7403C3.36301 20.053 5.14348 20.7905 7 20.7905C8.85652 20.7905 10.637 20.053 11.9497 18.7403C13.2625 17.4275 14 15.647 14 13.7905C14 10.5819 9.20588 2.85303 7.73675 0.560526C7.65759 0.436968 7.54862 0.335306 7.41987 0.264891C7.29113 0.194475 7.14674 0.15757 7 0.15757C6.85326 0.15757 6.70887 0.194475 6.58013 0.264891C6.45138 0.335306 6.34241 0.436968 6.26325 0.560526ZM8.27497 5.78431C8.11087 5.62021 7.88831 5.52803 7.65625 5.52803V5.52978C7.42479 5.5307 7.20313 5.6233 7.03979 5.78729C6.87645 5.95129 6.78475 6.17332 6.78475 6.40478V6.63228C6.78486 6.68795 6.76375 6.74157 6.72571 6.78221C6.68766 6.82285 6.63556 6.84746 6.58 6.85103C6.04121 6.88571 5.52683 7.08836 5.10916 7.43048C4.69149 7.7726 4.39153 8.237 4.25142 8.75841C4.11132 9.27981 4.13812 9.83202 4.32806 10.3374C4.518 10.8428 4.86154 11.276 5.31038 11.576L7.72538 13.1869C7.87473 13.286 7.98816 13.4307 8.04885 13.5993C8.10954 13.768 8.11426 13.9518 8.0623 14.1233C8.01035 14.2949 7.9045 14.4451 7.76043 14.5518C7.61637 14.6585 7.44176 14.7159 7.2625 14.7155H5.03125C4.79919 14.7155 4.57663 14.8077 4.41253 14.9718C4.24844 15.1359 4.15625 15.3585 4.15625 15.5905C4.15625 15.8226 4.24844 16.0452 4.41253 16.2092C4.57663 16.3733 4.79919 16.4655 5.03125 16.4655H5.2465C5.30452 16.4655 5.36016 16.4886 5.40118 16.5296C5.4422 16.5706 5.46525 16.6263 5.46525 16.6843V16.903C5.46525 17.1351 5.55744 17.3577 5.72153 17.5217C5.88563 17.6858 6.10819 17.778 6.34025 17.778C6.57231 17.778 6.79487 17.6858 6.95897 17.5217C7.12306 17.3577 7.21525 17.1351 7.21525 16.903V16.6615C7.21536 16.606 7.23657 16.5526 7.27459 16.5121C7.31261 16.4717 7.36459 16.4472 7.42 16.4437C7.95888 16.4117 8.47407 16.211 8.89264 15.8701C9.31122 15.5292 9.61199 15.0653 9.75239 14.5441C9.89279 14.0228 9.86571 13.4706 9.67499 12.9656C9.48426 12.4606 9.13955 12.0283 8.68962 11.73L6.27462 10.12C6.12548 10.0207 6.01226 9.87599 5.95171 9.70733C5.89116 9.53867 5.8865 9.355 5.9384 9.18349C5.99031 9.01197 6.09603 8.86171 6.23994 8.75492C6.38385 8.64814 6.5583 8.5905 6.7375 8.59053H8.96875C9.20081 8.59053 9.42337 8.49834 9.58747 8.33424C9.75156 8.17015 9.84375 7.94759 9.84375 7.71553C9.84375 7.48346 9.75156 7.2609 9.58747 7.09681C9.42337 6.93271 9.20081 6.84053 8.96875 6.84053H8.75C8.69205 6.8403 8.63655 6.81717 8.59557 6.7762C8.5546 6.73523 8.53148 6.67972 8.53125 6.62178V6.40303C8.53125 6.17096 8.43906 5.9484 8.27497 5.78431Z" fill="#2266E2"/>
</svg>
