<svg width="30" height="30" viewBox="0 0 30 30" fill="none" xmlns="http://www.w3.org/2000/svg">
<g opacity="0.4">
<path d="M24.7331 22.7516C23.5006 22.7516 22.3186 22.262 21.447 21.3905C20.5755 20.5189 20.0859 19.3369 20.0859 18.1044C20.0859 16.8719 20.5755 15.6899 21.447 14.8184C22.3186 13.9468 23.5006 13.4572 24.7331 13.4572H27.5214C27.6036 13.4572 27.6824 13.4246 27.7405 13.3665C27.7986 13.3084 27.8312 13.2296 27.8312 13.1474V10.0493C27.8312 9.22762 27.5048 8.4396 26.9238 7.85859C26.3428 7.27758 25.5548 6.95117 24.7331 6.95117H3.66587C2.8442 6.95117 2.05618 7.27758 1.47517 7.85859C0.894157 8.4396 0.567749 9.22762 0.567749 10.0493V26.1595C0.567749 26.9812 0.894157 27.7692 1.47517 28.3502C2.05618 28.9312 2.8442 29.2576 3.66587 29.2576H24.7331C25.5548 29.2576 26.3428 28.9312 26.9238 28.3502C27.5048 27.7692 27.8312 26.9812 27.8312 26.1595V23.0614C27.8312 22.9792 27.7986 22.9004 27.7405 22.8423C27.6824 22.7842 27.6036 22.7516 27.5214 22.7516H24.7331Z" fill="white"/>
<path d="M28.4508 15.3161H24.7331C23.9936 15.3161 23.2844 15.6099 22.7615 16.1328C22.2385 16.6557 21.9448 17.3649 21.9448 18.1044C21.9448 18.8439 22.2385 19.5531 22.7615 20.076C23.2844 20.5989 23.9936 20.8927 24.7331 20.8927H28.4508C28.8878 20.8174 29.2836 20.5889 29.5674 20.2483C29.8513 19.9077 30.0046 19.4772 29.9999 19.0338V17.175C30.0046 16.7316 29.8513 16.3011 29.5674 15.9605C29.2836 15.6199 28.8878 15.3914 28.4508 15.3161ZM24.9648 1.28285C24.9164 1.0879 24.8295 0.904571 24.7094 0.743563C24.5893 0.582555 24.4383 0.447098 24.2652 0.345107C24.0922 0.243116 23.9005 0.176635 23.7015 0.149549C23.5024 0.122463 23.3 0.135314 23.1059 0.187352L7.15435 4.48135C7.08223 4.50124 7.01974 4.54655 6.97842 4.60892C6.93711 4.67129 6.91976 4.7465 6.92958 4.82067C6.93939 4.89484 6.97572 4.96295 7.03184 5.01242C7.08796 5.06189 7.16009 5.08938 7.2349 5.08982L25.5262 5.11708C25.5735 5.11743 25.6202 5.10692 25.6627 5.08636C25.7053 5.0658 25.7425 5.03574 25.7716 4.9985C25.8007 4.96126 25.8209 4.91784 25.8305 4.87157C25.8402 4.82531 25.8391 4.77745 25.8273 4.73168L24.9648 1.28285Z" fill="white"/>
</g>
</svg>
