<svg width="12" height="12" viewBox="0 0 12 12" fill="none" xmlns="http://www.w3.org/2000/svg">
<g clip-path="url(#clip0)">
<path d="M7.625 10.375C7.625 9.47754 6.89746 8.75 6 8.75C5.10254 8.75 4.375 9.47754 4.375 10.375C4.375 11.2725 5.10254 12 6 12C6.89746 12 7.625 11.2725 7.625 10.375Z" fill="white"/>
<path d="M7.625 6C7.625 5.10254 6.89746 4.375 6 4.375C5.10254 4.375 4.375 5.10254 4.375 6C4.375 6.89746 5.10254 7.625 6 7.625C6.89746 7.625 7.625 6.89746 7.625 6Z" fill="white"/>
<path d="M7.625 1.625C7.625 0.727538 6.89746 9.53674e-07 6 9.53674e-07C5.10254 9.53674e-07 4.375 0.727538 4.375 1.625C4.375 2.52246 5.10254 3.25 6 3.25C6.89746 3.25 7.625 2.52246 7.625 1.625Z" fill="white"/>
</g>
<defs>
<clipPath id="clip0">
<rect width="12" height="12" fill="white" transform="translate(0 12) rotate(-90)"/>
</clipPath>
</defs>
</svg>
