<svg width="24" height="24" viewBox="0 0 24 24" fill="none" xmlns="http://www.w3.org/2000/svg">
<g opacity="0.5" clip-path="url(#clip0)">
<path d="M24 8.414C23.9999 8.1488 23.8946 7.89449 23.707 7.707L18.293 2.293C18.1055 2.10545 17.8512 2.00006 17.586 2H2C1.46957 2 0.960859 2.21071 0.585786 2.58579C0.210714 2.96086 0 3.46957 0 4L0 20C0 20.5304 0.210714 21.0391 0.585786 21.4142C0.960859 21.7893 1.46957 22 2 22H22C22.5304 22 23.0391 21.7893 23.4142 21.4142C23.7893 21.0391 24 20.5304 24 20V8.414ZM22 19.5C22 19.6326 21.9473 19.7598 21.8536 19.8536C21.7598 19.9473 21.6326 20 21.5 20H2.5C2.36739 20 2.24021 19.9473 2.14645 19.8536C2.05268 19.7598 2 19.6326 2 19.5V4.5C2 4.36739 2.05268 4.24021 2.14645 4.14645C2.24021 4.05268 2.36739 4 2.5 4H16.965C17.0974 4.00003 17.2243 4.05253 17.318 4.146L21.854 8.682C21.9475 8.77571 22 8.90265 22 9.035V19.5Z" fill="#717171"/>
<path d="M8.29883 10C9.4034 10 10.2988 9.10457 10.2988 8C10.2988 6.89543 9.4034 6 8.29883 6C7.19426 6 6.29883 6.89543 6.29883 8C6.29883 9.10457 7.19426 10 8.29883 10Z" fill="#717171"/>
<path d="M13.7233 10.6779C13.6784 10.606 13.6159 10.5467 13.5417 10.5056C13.4675 10.4644 13.3841 10.4429 13.2993 10.4429C13.2145 10.4429 13.1311 10.4644 13.0569 10.5056C12.9828 10.5467 12.9203 10.606 12.8753 10.6779L10.4493 14.5599C10.4267 14.5956 10.3954 14.625 10.3583 14.6454C10.3212 14.6658 10.2796 14.6765 10.2373 14.6765C10.195 14.6765 10.1534 14.6658 10.1163 14.6454C10.0793 14.625 10.048 14.5956 10.0253 14.5599L9.16131 13.1779C9.11637 13.106 9.05387 13.0467 8.9797 13.0056C8.90553 12.9644 8.82212 12.9429 8.73731 12.9429C8.65251 12.9429 8.5691 12.9644 8.49493 13.0056C8.42076 13.0467 8.35826 13.106 8.31331 13.1779L5.53831 17.6169C5.51453 17.6547 5.50133 17.6983 5.5001 17.7429C5.49886 17.7876 5.50962 17.8318 5.53127 17.8709C5.55292 17.9101 5.58466 17.9426 5.62319 17.9653C5.66171 17.988 5.70561 17.9999 5.75031 17.9999H17.8503C17.895 17.9999 17.9389 17.988 17.9774 17.9653C18.016 17.9426 18.0477 17.9101 18.0694 17.8709C18.091 17.8318 18.1018 17.7876 18.1005 17.7429C18.0993 17.6983 18.0861 17.6547 18.0623 17.6169L13.7233 10.6779Z" fill="#717171"/>
</g>
<defs>
<clipPath id="clip0">
<rect width="24" height="24" fill="white"/>
</clipPath>
</defs>
</svg>
